<svg xmlns="http://www.w3.org/2000/svg" viewBox="0 0 150 150.1"><style>.st0{fill:#df6b90}.st1{fill:#703081}</style><path class="st0" d="M57.7 117.1c5.6 2.4 11.5 3.4 17.5 3.4h1.2c5.4-.2 10.9-1.2 16.1-3.4 23.1-9.7 34.2-36.4 24.7-59.6-7-16.5-22.3-26.8-39-28-.6 0-1.4-.2-2-.2H76c-6-.2-12.3 1-18.3 3.4C46.4 37.5 37.8 46.3 33 57.6c-4.6 11.3-4.6 23.5 0 34.8 4.6 11.2 13.4 19.9 24.7 24.7zm37-8.4c2.6-4 4.6-8.7 6.2-14.1h7.6c-3.1 5.6-7.9 10.5-13.8 14.1zM111.6 88h-9.3c.8-4 1.2-8.4 1.2-12.9 0-4.4-.4-8.7-1-12.7h9.3c2.8 8.5 2.6 17.5-.2 25.6zm-3-32.4H101c-1.4-5.2-3.4-9.9-5.8-13.7 5.6 3.4 10.2 8 13.4 13.7zM79.4 36.7c6.4 1.8 11.7 9.1 14.7 18.9H79.4V36.7zm0 25.7h16.3c.8 4 1.2 8.2 1.2 12.7 0 4.4-.4 8.7-1.2 12.9H79.4V62.4zm0 32h14.3c-3 9.9-8.2 16.9-14.3 18.9V94.4zm-38 .2h10.1c1.8 6.2 4.4 11.7 7.4 15.9-7.4-3.4-13.5-9.1-17.5-15.9zm31.4 18.9c-6-2-11.3-9.3-14.3-18.9h14.3v18.9zm.2-25.7H56.9c-1-4-1.4-8.2-1.4-12.7 0-4.4.4-8.9 1.2-12.9H73v25.6zm-.2-51.1v18.9H58.1c3-9.9 8.2-17.1 14.7-18.9zm-14.5 3.4c-3 4.2-5.4 9.5-7 15.5h-9.9c3.8-6.9 9.7-12.1 16.9-15.5zM38.4 62.2h11.5c-.6 4-1 8.2-1 12.9 0 4.4.4 8.7 1 12.9H38.4c-3-8.5-3-17.3 0-25.8z" id="Layer_1"/><path class="st1" d="M26.1 27.2C52.3.4 95.1-.2 122.3 25.6h-6.8v6.6l18.3-.2-.2-18.3H127v7C97.3-7.6 50.1-6.8 21.3 22.6c-9.9 10.3-16.7 22.9-19.7 37-2.8 13.7-1.8 27.8 2.8 40.8l6.2-2.2c-8.8-24.9-3-52.1 15.5-71zm119.5 22.5l-6.2 2.2c8.9 24.9 3 52.1-15.5 71-26.2 26.8-69.2 27.4-96.2 1.6h6.8v-6.6l-18.3.2.2 18.3H23v-7c14.5 13.9 33.2 20.7 51.9 20.7 19.5 0 39-7.4 53.7-22.5 9.9-10.3 16.7-22.9 19.7-37 2.9-13.7 1.9-27.8-2.7-40.9z" id="Layer_1_copy"/></svg>