<svg id="Layer_1" xmlns="http://www.w3.org/2000/svg" viewBox="0 0 140 111.6"><style>.st0{fill:#703081}.st1{fill:#df6b90}.st2{fill:#fff}</style><g id="Layer_1_1_"><path class="st0" d="M96.3 37.4H21.9c-4.5 0-8.1 3.4-8.1 7.5v46.4c0 4.1 3.6 7.5 8.1 7.5h74.4c4.5 0 8.1-3.4 8.1-7.5V44.9c0-4.2-3.6-7.5-8.1-7.5zm0 4.8c.2 0 .4 0 .6.2L59.1 71 20.6 42.6c.3-.2.9-.4 1.3-.4h74.4zm0 51.7H21.9c-1.7 0-3-1.1-3-2.6V47.5l40.2 29.7 40.2-30.5v44.5c0 1.6-1.3 2.7-3 2.7z"/><path transform="rotate(-45.001 48.491 13.704)" class="st1" d="M31.9 11.2H65v5.1H31.9z"/><path transform="rotate(-45.001 126.495 13.507)" class="st1" d="M109.9 11H143v5.1h-33.1z"/><path transform="rotate(-45.001 86.574 13.507)" class="st0" d="M70 11h33.1v5.1H70z"/><path transform="rotate(-45.001 126.368 75.657)" class="st1" d="M109.8 73.1h33.1v5.1h-33.1z"/><path transform="rotate(-45.001 126.462 45.62)" class="st0" d="M109.9 43.1H143v5.1h-33.1z"/></g><path class="st1" d="M40 91.6c0 11-9 20-20 20s-20-9-20-20 9-20 20-20c11.1 0 20 9 20 20z"/><path class="st2" d="M33.9 89.1l-1.7-.4c-.8-.2-1.4-.7-1.7-1.4-.3-.7-.2-1.5.3-2.2l1.1-1.4c.4-.4.3-1.1-.2-1.5L29.5 80c-.4-.4-1-.4-1.4-.2l-1.4 1c-.4.3-.8.4-1.3.4-1 0-2.1-.7-2.2-2l-.3-1.8c-.1-.5-.6-1-1.2-1h-3.1c-.5 0-1.1.4-1.2 1l-.4 2.2c-.3 1.3-1.3 1.9-2.2 1.9-.4 0-.9-.2-1.3-.4l-1.8-1.3c-.4-.4-1.1-.3-1.4.2l-1.9 2.3c-.4.4-.4 1.1-.2 1.5l1.1 1.4c.4.6.6 1.4.3 2.2-.3.7-.9 1.3-1.7 1.4l-1.9.4c-.5.1-1 .6-1 1.2v3.1c0 .6.4 1.1 1 1.2l1.8.3c.8.2 1.4.6 1.7 1.3.4.7.3 1.5-.2 2.2l-1 1.4c-.4.4-.3 1.1.2 1.4l2.2 2.2c.4.4 1.1.4 1.5.2l1.4-1.1c.4-.3.9-.4 1.3-.4 1 0 2 .6 2.2 1.9l.4 1.7c.1.5.6 1 1.2 1h3c.6 0 1.1-.4 1.2-1l.2-1.3c.2-1.3 1.3-2 2.2-2 .5 0 1 .2 1.3.4l1 .7c.4.4 1.1.3 1.5-.2l2.2-2.2c.4-.4.4-1 .2-1.4l-1-1.4c-.4-.7-.5-1.4-.2-2.2.4-.7 1-1.3 1.7-1.3l1.8-.3c.5-.1 1-.6 1-1.2v-3.1c.1-.7-.3-1.1-.9-1.2zm-1.3 3.2l-.8.2c-1.5.3-2.9 1.3-3.5 2.7-.6 1.4-.5 3.1.4 4.4l.4.6-.9.9-.3-.2c-.8-.6-1.7-.9-2.7-.9-2.2 0-4.1 1.6-4.5 3.9l-.1.3h-1.3l-.2-.7c-.4-2.2-2.3-3.7-4.5-3.7-1 0-1.9.4-2.7.9l-.6.4-.9-.9.4-.6c.9-1.3 1.1-3 .4-4.4s-2-2.4-3.5-2.7l-.5-.2v-1.2l.7-.2c1.5-.4 2.8-1.3 3.4-2.8.6-1.4.4-3.1-.6-4.4l-.4-.5.9-.9 1.1.7c.8.5 1.6.8 2.5.8 2.2 0 4-1.5 4.5-3.7l.3-1.3h1.2l.2.8c.4 2.2 2.2 3.9 4.5 3.9.9 0 1.8-.3 2.5-.8l.6-.4.9.9-.4.6c-1 1.3-1.2 2.9-.6 4.4.6 1.4 1.9 2.5 3.4 2.8l.7.2v1.1z"/><path class="st2" d="M20 85.9c-3.1 0-5.7 2.6-5.7 5.7s2.6 5.7 5.7 5.7 5.7-2.6 5.7-5.7-2.5-5.7-5.7-5.7zm0 9.1c-1.9 0-3.4-1.5-3.4-3.4s1.5-3.4 3.4-3.4 3.4 1.5 3.4 3.4C23.5 93.4 22 95 20 95z"/></svg>