<svg id="Layer_1" xmlns="http://www.w3.org/2000/svg" viewBox="0 0 150 150"><style>.st0{fill:#703081}.st1{fill:#f2ba59}.st2{fill:none}</style><g id="Layer_1_1_"><path class="st0" d="M131.1 55.1c.1-.9.1-1.6.1-2.5 0-11.6-9.5-21.1-21.1-21.1-1.5 0-2.9.1-4.4.5-4.6-12.9-17-21.6-30.8-21.6s-26.1 8.8-30.8 21.5c-1.4-.3-2.9-.5-4.4-.5-11.6 0-21.1 9.5-21.1 21.1 0 .7 0 1.6.1 2.5C8.3 56.1 0 65.1 0 76c0 11.6 9.5 21.1 21.1 21.1h18.8v-4.8H21.1c-9 0-16.4-7.4-16.4-16.4s7.4-16.4 16.6-16.4h.4c.7 0 1.5-.3 1.9-.9.5-.6.6-1.4.5-2-.4-1.4-.5-2.8-.5-4.1 0-9 7.4-16.4 16.4-16.4 1.8 0 3.5.3 5.1.9.6.3 1.3.1 1.9-.1.6-.3 1-.8 1.1-1.4 3.3-12 14.4-20.4 26.9-20.4s23.6 8.4 27 20.4c.1.6.6 1.1 1.1 1.4.6.3 1.3.4 1.9.1 1.6-.5 3.4-.9 5.1-.9 9 0 16.4 7.4 16.4 16.4 0 1.4-.1 2.8-.5 4.1-.1.8 0 1.5.5 2 .5.6 1.1.9 1.9.9h.5c9 0 16.4 7.4 16.4 16.4s-7.4 16.4-16.4 16.4h-18.8V97h18.8c11.6 0 21.1-9.5 21.1-21.1 0-10.8-8.2-19.8-18.9-20.8z"/><path class="st1" d="M56.3 43.2h-4.8C51.5 30.4 62 19.7 75 19.7v4.8c-10.4 0-18.7 8.4-18.7 18.7z"/></g><g id="Layer_1_2_"><path class="st2" d="M69.6 96.7c0 1 .8 1.7 1.8 1.7-1 .1-1.8-.7-1.8-1.7z"/><path class="st0" d="M77.2 77.9h3.3V66.8h-3.3v11.1zm-7.8 0h3.3V66.8h-3.3v11.1zm17.8 3.4V60.1H62.8v21.1h-8.9v49.4c0 12.2 7.2 19.4 19.4 19.4h3.3c13.1 0 19.4-6.3 19.4-19.4V81.3h-8.8zM66.1 63.5h17.8v17.8H66.1V63.5zm26.7 67.2c0 11.1-5 16.1-16.1 16.1h-3.3c-6 0-16.1-2.1-16.1-16.1V91.3h35.6l-.1 39.4zm0-42.8H57.2v-3.3h35.6v3.3zm-3.4 42.2v-6.7h-3.3v6.7c.2 4.7-1.9 10-10 10v3.3c10.2.1 13.7-6.8 13.3-13.3z"/><path class="st1" d="M76.1 140.2v3.3c10.2 0 13.7-6.9 13.3-13.3v-6.7h-3.3v6.7c.2 4.6-1.9 10-10 10zM69.4 66.8h3.3v11.1h-3.3zM77.2 66.8h3.3v11.1h-3.3z"/></g></svg>