<svg id="Layer_1" xmlns="http://www.w3.org/2000/svg" viewBox="0 0 150 150"><style>.st0{fill:#703081}.st1{fill:#f2ba59}</style><g id="Layer_1_1_"><path class="st0" d="M131.1 55.1c.1-.9.1-1.6.1-2.5 0-11.6-9.5-21.1-21.1-21.1-1.5 0-2.9.1-4.4.5-4.6-12.9-17-21.6-30.8-21.6s-26.1 8.8-30.8 21.5c-1.4-.3-2.9-.5-4.4-.5-11.6 0-21.1 9.5-21.1 21.1 0 .7 0 1.6.1 2.5C8.3 56.1 0 65.1 0 76c0 11.6 9.5 21.1 21.1 21.1h18.8v-4.8H21.1c-9 0-16.4-7.4-16.4-16.4s7.4-16.4 16.6-16.4h.4c.7 0 1.5-.3 1.9-.9.5-.6.6-1.4.5-2-.4-1.4-.5-2.8-.5-4.1 0-9 7.4-16.4 16.4-16.4 1.8 0 3.5.3 5.1.9.6.3 1.3.1 1.9-.1.6-.3 1-.8 1.1-1.4 3.3-12 14.4-20.4 26.9-20.4s23.6 8.4 27 20.4c.1.6.6 1.1 1.1 1.4.6.3 1.3.4 1.9.1 1.6-.5 3.4-.9 5.1-.9 9 0 16.4 7.4 16.4 16.4 0 1.4-.1 2.8-.5 4.1-.1.8 0 1.5.5 2 .5.6 1.1.9 1.9.9h.5c9 0 16.4 7.4 16.4 16.4s-7.4 16.4-16.4 16.4h-18.8V97h18.8c11.6 0 21.1-9.5 21.1-21.1 0-10.8-8.2-19.8-18.9-20.8z"/><path class="st1" d="M56.3 43.2h-4.8C51.5 30.4 62 19.7 75 19.7v4.8c-10.4 0-18.7 8.4-18.7 18.7z"/></g><path class="st0" d="M98.4 89.8H51.6c-.9 0-1.6-.7-1.6-1.6V72.6c0-.9.7-1.6 1.6-1.6h46.9c.9 0 1.6.7 1.6 1.6v15.6c-.1.8-.8 1.6-1.7 1.6zm-45.3-3.2h43.8V74.1H53.1v12.5z"/><path class="st1" d="M87.5 85.1c-2.6 0-4.7-2.1-4.7-4.7s2.1-4.7 4.7-4.7 4.7 2.1 4.7 4.7-2.1 4.7-4.7 4.7zm0-6.3c-.9 0-1.6.7-1.6 1.6 0 .9.7 1.6 1.6 1.6s1.6-.7 1.6-1.6c0-.9-.7-1.6-1.6-1.6z"/><path class="st0" d="M78.1 83.5H59.4c-.9 0-1.6-.7-1.6-1.6 0-.9.7-1.6 1.6-1.6h18.8c.9 0 1.6.7 1.6 1.6-.1.9-.8 1.6-1.7 1.6zM98.4 105.4H51.6c-.9 0-1.6-.7-1.6-1.6V88.2c0-.9.7-1.6 1.6-1.6h46.9c.9 0 1.6.7 1.6 1.6v15.6c-.1.9-.8 1.6-1.7 1.6zm-45.3-3.1h43.8V89.8H53.1v12.5z"/><path class="st1" d="M87.5 100.7c-2.6 0-4.7-2.1-4.7-4.7s2.1-4.7 4.7-4.7 4.7 2.1 4.7 4.7-2.1 4.7-4.7 4.7zm0-6.3c-.9 0-1.6.7-1.6 1.6 0 .9.7 1.6 1.6 1.6s1.6-.7 1.6-1.6c0-.9-.7-1.6-1.6-1.6z"/><path class="st0" d="M78.1 99.1H59.4c-.9 0-1.6-.7-1.6-1.6 0-.9.7-1.6 1.6-1.6h18.8c.9 0 1.6.7 1.6 1.6-.1.9-.8 1.6-1.7 1.6zM98.4 121H51.6c-.9 0-1.6-.7-1.6-1.6v-15.6c0-.9.7-1.6 1.6-1.6h46.9c.9 0 1.6.7 1.6 1.6v15.6c-.1.9-.8 1.6-1.7 1.6zm-45.3-3.1h43.8v-12.5H53.1v12.5z"/><path class="st1" d="M87.5 116.3c-2.6 0-4.7-2.1-4.7-4.7s2.1-4.7 4.7-4.7 4.7 2.1 4.7 4.7-2.1 4.7-4.7 4.7zm0-6.2c-.9 0-1.6.7-1.6 1.6 0 .9.7 1.6 1.6 1.6s1.6-.7 1.6-1.6c0-.9-.7-1.6-1.6-1.6z"/><path class="st0" d="M78.1 114.8H59.4c-.9 0-1.6-.7-1.6-1.6 0-.9.7-1.6 1.6-1.6h18.8c.9 0 1.6.7 1.6 1.6-.1.8-.8 1.6-1.7 1.6z"/></svg>