<svg id="Layer_1" xmlns="http://www.w3.org/2000/svg" viewBox="0 0 150 115"><style>.st0{display:none}.st0,.st1{fill:#d8427d}</style><g id="Layer_5"><path class="st0" d="M88.3 36.9H28.8c-2 0-3.5 1.5-3.5 3.5v11.8c0 2 1.5 3.5 3.5 3.5h59.5c2 0 3.5-1.5 3.5-3.5V40.4c0-2-1.5-3.5-3.5-3.5zm-56.6 8.2c-1.2 0-2.1-.9-2.1-2.1 0-1.2.9-2.1 2.1-2.1s2.1.9 2.1 2.1c0 1.2-1.1 2.1-2.1 2.1zm51.1 6.2H67.7v-5h15.1v5zm5.5 6.1H28.8c-2 0-3.5 1.5-3.5 3.5v11.8c0 2 1.5 3.5 3.5 3.5h59.5c2 0 3.5-1.5 3.5-3.5V60.9c0-2-1.5-3.5-3.5-3.5zm-56.6 8.2c-1.2 0-2.1-.9-2.1-2.1 0-1.2.9-2.1 2.1-2.1s2.1.9 2.1 2.1c0 1.2-1.1 2.1-2.1 2.1zm51.1 6.2H67.7v-5h15.1v5zm5.5 6.1H28.8c-2 0-3.5 1.5-3.5 3.5v11.8c0 2 1.5 3.5 3.5 3.5h59.5c2 0 3.5-1.5 3.5-3.5V81.4c0-2-1.5-3.5-3.5-3.5zm-56.6 8.2c-1.2 0-2.1-.9-2.1-2.1s.9-2.1 2.1-2.1 2.1.9 2.1 2.1-1.1 2.1-2.1 2.1zm51.1 6.2H67.7v-5h15.1v5zm-13.9 15.5h-6.3v-9.2h-7.9v9.2h-6.3v2.6H26.1v7.8h22.3v2.4h20.5v-2.4h22.2v-7.8H68.9z"/><path class="st1" d="M93.8 17.9c-.9 0-1.7-.5-2.1-1.2C86.8 10.2 79.3 6.3 71 6.3h-1.5c-.8 0-1.4-.2-2-.6-5-3.8-11-5.7-17.3-5.7-11.3 0-21.3 6.5-25.9 16.4-.5.9-1.4 1.5-2.3 1.7C9.6 19.9 0 30.6 0 43.4c0 12.4 8.7 22.6 20.4 25v-7.5c0-.9.2-1.8.5-2.7-6.2-2.1-10.7-7.8-10.7-14.8 0-8.6 6.9-15.5 15.5-15.5h1.2c2.4.2 4.7-1.4 5.3-3.8 2.1-8.3 9.5-14.2 18.1-14.2 4.8 0 9.5 2 13 5.3 1.2 1.2 2.9 1.7 4.5 1.4 1.1-.2 2.1-.3 3.2-.3 6 0 11.3 3.3 14 8.7.9 2 2.9 3 5 2.9.5 0 1.1-.2 1.5-.2 8.6 0 15.5 6.9 15.5 15.5 0 6.9-4.5 12.7-10.7 14.8.3.9.5 1.8.5 2.7v7.6c11.9-2.3 20.5-12.5 20.5-24.9-.2-13.4-10.4-24.4-23.5-25.5zM107.2 85.9c.3.8.6 1.7 1.1 2.4l-1.2 1.5c-.5.5-.3 1.2.2 1.7l2.1 2.1c.5.5 1.2.5 1.7.2l1.5-1.2c.8.5 1.7.8 2.4 1.1l.2 2c0 .6.6 1.1 1.2 1.1h2.9c.6 0 1.2-.5 1.2-1.1l.2-1.8c.9-.3 1.8-.6 2.6-1.1l1.5 1.2c.5.5 1.2.3 1.7-.2l2.1-2.1c.5-.5.5-1.2.2-1.7l-1.2-1.5c.5-.8.9-1.7 1.1-2.6l1.8-.2c.6 0 1.1-.6 1.1-1.2v-2.9c0-.6-.5-1.2-1.1-1.2l-1.7-.2c-.3-.9-.6-1.8-1.1-2.6l1.1-1.4c.5-.5.3-1.2-.2-1.7l-2.1-2.1c-.5-.5-1.2-.5-1.7-.2l-1.4 1.1c-.9-.5-1.8-.9-2.7-1.1l-.2-1.7c0-.6-.6-1.1-1.2-1.1h-2.9c-.6 0-1.2.5-1.2 1.1l-.2 1.7c-.9.3-2 .6-2.7 1.2l-1.5-1.4c-.5-.5-1.2-.3-1.7.2l-2.1 2.1c-.5.5-.5 1.2-.2 1.7l1.1 1.4c-.5.8-.8 1.7-1.1 2.6l-1.8.2c-.6 0-1.1.6-1.1 1.2v2.9c0 .6.5 1.2 1.1 1.2l2.2.4zm10.5-7.8c2.7 0 4.8 2.1 4.8 4.8 0 2.7-2.1 4.8-4.8 4.8-2.7 0-4.8-2.1-4.8-4.8s2.1-4.8 4.8-4.8z"/><path class="st1" d="M146.7 86.7l-1.5-1.4c-.5-.5-1.2-.5-1.7 0l-.9.8c-.8-.3-1.5-.6-2.3-.8l-.3-1.2c-.2-.6-.8-1.1-1.4-1.1l-2 .2c-.6 0-1.1.6-1.1 1.2v1.2c-.8.3-1.5.6-2.1 1.2l-1.1-.6c-.5-.3-1.2-.3-1.7.3l-1.4 1.5c-.5.5-.5 1.2 0 1.7l.9.9c-.3.8-.6 1.4-.6 2.1l-1.2.3c-.6.2-1.1.8-1.1 1.4l.2 2.1c0 .6.6 1.1 1.2 1.1h1.4l.9 1.8-.8 1.2c-.3.5-.3 1.2.3 1.7l1.5 1.4c.5.5 1.2.5 1.7 0l1.1-.9c.6.3 1.4.6 2.1.6l.3 1.4c.2.6.8 1.1 1.4 1.1l2-.2c.6 0 1.1-.6 1.1-1.2v-1.4c.8-.3 1.4-.6 2.1-1.1l1.1.8c.5.3 1.2.3 1.7-.3l1.4-1.5c.5-.5.5-1.2 0-1.7l-.9-1c.3-.8.6-1.4.8-2.3l1.2-.3c.6-.2 1.1-.8 1.1-1.4l-.2-2c0-.6-.6-1.1-1.2-1.1h-1.2c-.3-.8-.6-1.4-1.1-2l.6-1.1c.3-.2.1-1-.3-1.4zM139 98.4c-2.1.2-4.1-1.5-4.2-3.6-.2-2.1 1.5-4.1 3.6-4.2 2.1-.2 4.1 1.5 4.2 3.6.3 2.1-1.3 3.9-3.6 4.2z"/><path class="st1" d="M114.1 103.7c-.6 0-1.1.6-1.1 1.2v1.2c0 .6.5 1.2 1.1 1.2l.9.2c.2.6.3 1.1.6 1.7l-.6.8c-.5.5-.3 1.2 0 1.7l.9.9c.5.5 1.2.5 1.7.2l.8-.6c.5.3 1.1.6 1.7.8l.2.9c0 .6.6 1.1 1.2 1.1h1.2c.6 0 1.2-.5 1.2-1.1l.2-.9c.6-.2 1.2-.5 1.8-.8l.8.6c.5.5 1.2.3 1.7 0l.9-.9c.5-.5.5-1.2.2-1.7l-.5-.8c.3-.6.6-1.1.8-1.7l.8-.2c.6 0 1.1-.6 1.1-1.2v-1.2c0-.6-.5-1.2-1.1-1.2l-.8-.2c-.2-.6-.5-1.2-.6-1.7l.5-.6c.5-.5.3-1.2 0-1.7l-.9-.9c-.5-.5-1.2-.5-1.7-.2l-.6.5c-.6-.3-1.2-.6-1.8-.8l-.2-.8c0-.6-.6-1.1-1.2-1.1h-1.2c-.6 0-1.2.5-1.2 1.1l-.2.8c-.6.2-1.2.5-1.8.8l-.6-.5c-.5-.5-1.2-.3-1.7 0l-.9.9c-.5.5-.5 1.2-.2 1.7l.5.6c-.3.6-.6 1.1-.8 1.7l-1.1.2zm8-1.3c1.8 0 3.2 1.5 3.2 3.3s-1.5 3.2-3.3 3.2-3.2-1.5-3.2-3.3c.1-1.7 1.7-3.2 3.3-3.2z"/><g><path class="st1" d="M91.2 70.9h-5.1V57.1c0-3.8-3.2-6.9-6.9-6.9H65.4v-5.1c0-4.8-3.8-8.6-8.6-8.6s-8.6 3.8-8.6 8.6v5.1H34.5c-3.8 0-6.9 3.2-6.9 6.9v13.1h5.1c5.1 0 9.3 4.1 9.3 9.3s-4.1 9.3-9.3 9.3h-5.1v13.1c0 3.8 3.2 6.9 6.9 6.9h13.1v-5.1c0-5.1 4.1-9.3 9.3-9.3s9.3 4.1 9.3 9.3v5.1h13.1c3.8 0 6.9-3.2 6.9-6.9V88.3h5.1c4.8 0 8.6-3.8 8.6-8.6-.1-5.1-3.9-8.8-8.7-8.8z" id="extension"/></g></g></svg>