<svg id="Layer_1" xmlns="http://www.w3.org/2000/svg" viewBox="0 0 150 112.2"><style>.st0{display:none}.st1{fill:#d8427d}</style><g id="Layer_5"><g id="_x31_03_65_"><path class="st1" d="M148.9 97.3l-3.7-3.7 4.7-4.7L148 87l-4.7 4.7-3.7-3.7c-.1-.1-.1-.1-.3-.1l-.7-.7-1.9 1.9 4.9 4.9-4.7 4.7 1.9 1.9 4.7-4.7 4.7 4.7 1.9-1.9-.6-.6c-.5-.7-.6-.7-.6-.8z"/><path class="st1" d="M142.1 82.2h.7c0-.3 0-.4.1-.7-.3-4.7-3.6-8-8.4-8.4-2.7-.1-5.2 1.3-6.6 3.3-1.6-2-3.7-3.1-6.6-3.3-4.7-.3-8 4-8.4 8.4 0 .6 0 1.1.1 1.6-.3 0-.6 0-1-.1-5.2-.3-8.7 4.3-9 9-.3 4.9 3.7 8.4 8.2 8.9v.1h22.4c-1.9-2-3-4.7-3-7.6.3-6.2 5.2-11.2 11.5-11.2z"/></g><path class="st1" d="M96.7 18.5c-1 0-1.7-.4-2.2-1.3-5-6.7-12.7-10.7-21.2-10.7h-1.6c-.7 0-1.4-.1-2-.6C64.5 2.1 58.2 0 51.8 0 40.2 0 29.9 6.7 25.1 16.9c-.4 1-1.4 1.6-2.3 1.7C9.9 20.4 0 31.5 0 44.8c0 12.8 9 23.4 21 25.8v-7.8c0-1 .1-1.9.4-2.7-6.3-2.2-11-8-11-15.2 0-8.9 7.2-16 16-16h1.3c2.5.1 4.9-1.4 5.4-3.9 2.2-8.6 9.8-14.6 18.6-14.6 5 0 9.8 2 13.3 5.4 1.3 1.3 3 1.7 4.7 1.4 1.1-.1 2.2-.3 3.3-.3 6.2 0 11.6 3.4 14.5 9 1 2 3 3.1 5.2 3 .4 0 1.1-.1 1.6-.1 8.9 0 16 7.2 16 16 0 7.2-4.7 13.1-11 15.2.3 1 .4 1.9.4 2.7v7.8c12.3-2.3 21.2-12.9 21.2-25.7 0-13.8-10.6-25.1-24.2-26.3z"/><path class="st1" d="M94.1 72.9h-5.3V58.8c0-3.9-3.3-7.2-7.2-7.2H67.4v-5.3c0-5-3.9-8.9-8.9-8.9s-8.9 3.9-8.9 8.9v5.3h-14c-3.9 0-7.2 3.3-7.2 7.2v13.5h5.3c5.3 0 9.6 4.2 9.6 9.6 0 5.4-4.3 9.5-9.6 9.5h-5.3V105c0 3.9 3.3 7.2 7.2 7.2h13.5v-5.3c0-5.3 4.2-9.6 9.6-9.6 5.3 0 9.6 4.2 9.6 9.6v5.3h13.5c3.9 0 7.2-3.3 7.2-7.2V90.8h5.3c5 0 8.9-3.9 8.9-8.9-.2-4.9-4.2-9-9.1-9z" id="extension"/></g></svg>