<svg id="Layer_1" xmlns="http://www.w3.org/2000/svg" viewBox="0 0 150 150"><style>.st0{fill:#703081}.st1{fill:#df6b90}</style><path class="st0" d="M118.6 37.2H23c-4.4 0-8 3.6-8 8V101c0 4.4 3.6 8 8 8h57.8c1.1 0 2-.9 2-2s-.9-2-2-2H23c-2.2 0-4-1.8-4-4V45.1c0-2.2 1.8-4 4-4h95.7c2.2 0 4 1.8 4 4V67c0 1.1.9 2 2 2s2-.9 2-2V45.1c-.1-4.4-3.7-7.9-8.1-7.9z"/><path class="st1" d="M40.9 85H29c-1.1 0-2-.9-2-2s.9-2 2-2h12c1.1 0 2 .9 2 2-.1 1.1-1 2-2.1 2z"/><path class="st0" d="M72.8 97H29c-1.1 0-2-.9-2-2s.9-2 2-2h43.8c1.1 0 2 .9 2 2s-.9 2-2 2z"/><path class="st1" d="M64.8 85h-12c-1.1 0-2-.9-2-2s.9-2 2-2h12c1.1 0 2 .9 2 2s-.9 2-2 2zM88.7 85h-12c-1.1 0-2-.9-2-2s.9-2 2-2h12c1.1 0 2 .9 2 2s-.9 2-2 2zM46.9 53.1V69h-16V53.1h16m0-4h-16c-2.2 0-4 1.8-4 4V69c0 2.2 1.8 4 4 4h15.9c2.2 0 4-1.8 4-4V53.1c.1-2.2-1.7-4-3.9-4z"/><path class="st0" d="M135 81.9l-.8.1s-.4.1-1 .1c-2.3 0-8.4-.8-15.3-8.2l-.5-.5-.5.5c-6.9 7.4-13 8.2-15.3 8.2-.7 0-1-.1-1-.1l-.8-.2v.8c0 18.6 12.8 34.1 17.7 34.1s17.5-15.4 17.5-34v-.8zm-17.7 33.5c-3.8 0-16-14.7-16.3-32h.5c2.4 0 8.7-.8 15.8-8.1 7.1 7.3 13.4 8.1 15.8 8.1h.5c-.3 17.4-12.5 32-16.3 32z"/><path class="st1" d="M101.9 84.3c.2 4 .9 7.3 2 10.9 2.5 8.5 10.1 19.1 13.3 19.1V76.7c-7.7 8.2-15.3 7.6-15.3 7.6z"/></svg>