<svg id="Layer_1" xmlns="http://www.w3.org/2000/svg" viewBox="0 0 150 99.4"><style>.st0{fill:#703081}.st1{fill:#df6b90}</style><path class="st0" d="M129.5 0H10C4.5 0 0 4.5 0 10v69.8c0 5.5 4.5 10 10 10h72.3c1.4 0 2.5-1.1 2.5-2.5s-1.1-2.5-2.5-2.5H10c-2.8 0-5-2.3-5-5V9.9c0-2.8 2.2-5 5-5h119.6c2.8 0 5 2.2 5 5v27.4c0 1.4 1.1 2.5 2.5 2.5s2.5-1.1 2.5-2.5V9.9C139.5 4.4 135 0 129.5 0z"/><path class="st1" d="M32.4 59.8H17.5c-1.4 0-2.5-1.1-2.5-2.5s1.1-2.5 2.5-2.5h15c1.4 0 2.5 1.1 2.5 2.5-.1 1.3-1.2 2.5-2.6 2.5z"/><path class="st0" d="M72.3 74.8H17.5c-1.4 0-2.5-1.1-2.5-2.5s1.1-2.5 2.5-2.5h54.8c1.4 0 2.5 1.1 2.5 2.5 0 1.3-1.2 2.5-2.5 2.5z"/><path class="st1" d="M62.3 59.8h-15c-1.4 0-2.5-1.1-2.5-2.5s1.1-2.5 2.5-2.5h15c1.4 0 2.5 1.1 2.5 2.5 0 1.3-1.2 2.5-2.5 2.5zM92.1 59.8h-15c-1.4 0-2.5-1.1-2.5-2.5s1.1-2.5 2.5-2.5h15c1.4 0 2.5 1.1 2.5 2.5 0 1.3-1.1 2.5-2.5 2.5zM39.9 19.9v19.9h-20V19.9h20m0-5h-20c-2.8 0-5 2.2-5 5v19.9c0 2.7 2.2 5 5 5h19.9c2.8 0 5-2.3 5-5V19.9c.1-2.8-2.2-5-4.9-5zM146.4 85.2c-.6 0-1.2.2-1.7.4l-4.6-4.4c2.3-2.8 3.7-6.4 3.7-10.4 0-9-7.3-16.3-16.3-16.3s-16.3 7.3-16.3 16.3c0 3.9 1.4 7.6 3.7 10.4l-4.6 4.4c-.5-.3-1.1-.4-1.7-.4-2 0-3.6 1.6-3.6 3.6s1.6 3.6 3.6 3.6 3.6-1.6 3.6-3.6c0-.5-.1-1.1-.3-1.5l4.6-4.4c2.6 2.4 6 3.9 9.8 4.2v5.3c-1.4.5-2.4 1.8-2.4 3.4 0 2 1.6 3.6 3.6 3.6s3.6-1.6 3.6-3.6c0-1.6-1-2.9-2.4-3.4v-5.3c3.8-.3 7.2-1.8 9.8-4.2l4.6 4.4c-.2.5-.3 1-.3 1.5 0 2 1.6 3.6 3.6 3.6s3.6-1.6 3.6-3.6-1.6-3.6-3.6-3.6zm-8.5-6.5c-1-.9-3-1.6-4-2.1-.6-.3-1.3-.5-1.7-.7-.4-.3-.4-.9-.9-1.4-.2-.2-.8 0-.8-.3-.1-.5.5-.9.7-1.4.2-.5.1-.4.2-1.1 1-.3 1.5-2.8.8-2.8.3-1.8.6-4.5-.6-5.2-.3-.1-.6-.1-.8-.2-.1-.1-.2-.3-.4-.4-.6-.5-2.2-.8-3.1-.8-.9 0-1.9.3-2.5.8l-1.2.6c-1.3.7-.9 3.4-.6 5.2-.7.1-.2 2.5.9 2.8.1.6 0 .5.2 1s.7.8.7 1.4c0 .3-.6.1-.8.3-.5.4-.5 1.1-.9 1.4-.4.3-1.1.5-1.7.7-1 .5-3.1 1.2-4 2.1-1.7-2.2-2.7-4.9-2.7-7.9 0-7.2 5.9-13.1 13.1-13.1 7.2 0 13.1 5.9 13.1 13.1-.3 3.1-1.4 5.8-3 8z"/></svg>