<svg id="Layer_1" xmlns="http://www.w3.org/2000/svg" viewBox="0 0 150 150"><style>.st0{fill:#703081}.st1,.st2{fill:#df6b90}.st2{display:none}</style><path class="st0" d="M75 0C33.6 0 0 33.6 0 75s33.6 75 75 75 75-33.6 75-75S116.4 0 75 0zm0 3.1c39.7 0 71.9 32.2 71.9 71.9s-32.2 71.9-71.9 71.9S3.1 114.7 3.1 75 35.3 3.1 75 3.1z" id="Layer_2"/><path class="st1" d="M48.4 112.2H30.6c-1.7 0-3-1.3-3-3s1.3-3 3-3h17.8c1.7 0 3 1.3 3 3-.2 1.7-1.3 3-3 3z"/><path class="st0" d="M111 130H46c-1.7 0-3-1.3-3-3s1.3-3 3-3h65c1.7 0 3 1.3 3 3s-1.3 3-3 3z"/><path class="st1" d="M83.8 112.2H66.1c-1.7 0-3-1.3-3-3s1.3-3 3-3h17.8c1.7 0 3 1.3 3 3-.1 1.7-1.4 3-3.1 3zM119.4 112.2h-17.8c-1.7 0-3-1.3-3-3s1.3-3 3-3h17.8c1.7 0 3 1.3 3 3-.1 1.7-1.4 3-3 3z"/><path class="st2" d="M57.2 65v23.7H33.6V65h23.6m0-6H33.6c-3.3 0-5.9 2.7-5.9 5.9v23.7c0 3.2 2.7 5.9 5.9 5.9h23.7c3.3 0 5.9-2.7 5.9-5.9V65c-.1-3.2-2.8-6-6-6z"/><path class="st1" d="M108.7 71.6c-1.1 0-2.1.4-3 .7l-8.2-7.8c4.1-5 6.6-11.4 6.6-18.5 0-16-13-29-29-29S46 30 46 46c0 6.9 2.5 13.5 6.6 18.5l-8.2 7.8c-.9-.5-2-.7-3-.7-3.6 0-6.4 2.9-6.4 6.4s2.9 6.4 6.4 6.4c3.6 0 6.4-2.9 6.4-6.4 0-.9-.2-2-.5-2.7l8.2-7.8c4.6 4.3 10.7 6.9 17.5 7.5v9.4c-2.5.9-4.3 3.2-4.3 6.1 0 3.6 2.9 6.4 6.4 6.4 3.6 0 6.4-2.9 6.4-6.4 0-2.9-1.8-5.2-4.3-6.1V75c6.8-.5 12.8-3.2 17.5-7.5l8.2 7.8c-.4.9-.5 1.8-.5 2.7 0 3.6 2.9 6.4 6.4 6.4 3.6 0 6.4-2.9 6.4-6.4-.1-3.5-3-6.4-6.5-6.4zM93.5 60.1c-1.8-1.6-5.3-2.9-7.1-3.7-1.1-.5-2.3-.9-3-1.2-.7-.5-.7-1.6-1.6-2.5-.4-.4-1.4 0-1.4-.5-.2-.9.9-1.6 1.2-2.5.4-.9.2-.7.4-2 1.8-.5 2.7-5 1.4-5 .5-3.2 1.1-8-1.1-9.3-.5-.2-1.1-.2-1.4-.4-.2-.2-.4-.5-.7-.7-1.1-.9-3.9-1.4-5.5-1.4s-3.4.5-4.5 1.4l-2.1 1.1c-2.3 1.2-1.6 6.1-1.1 9.3-1.2.2-.4 4.5 1.6 5 .2 1.1 0 .9.4 1.8s1.2 1.4 1.2 2.5c0 .5-1.1.2-1.4.5-.9.7-.9 2-1.6 2.5s-2 .9-3 1.2c-1.8.9-5.5 2.1-7.1 3.7-3-3.9-4.8-8.7-4.8-14.1 0-12.8 10.5-23.3 23.3-23.3S98.9 33 98.9 45.8c-.6 5.5-2.5 10.3-5.4 14.3z"/></svg>