<svg id="Layer_1" xmlns="http://www.w3.org/2000/svg" viewBox="0 0 150 150"><style>.st0{fill:#d8427d}</style><path class="st0" d="M75 37.5c-20.7 0-37.5 16.8-37.5 37.5s16.8 37.5 37.5 37.5 37.5-16.8 37.5-37.5S95.7 37.5 75 37.5zm0 69.1c-17.5 0-31.6-14.2-31.6-31.6S57.5 43.4 75 43.4s31.6 14.2 31.6 31.6-14.1 31.6-31.6 31.6z"/><path class="st0" d="M61.7 61.7c-7.3 7.3-7.3 19.2 0 26.5 7.3 7.3 19.2 7.3 26.5 0 7.3-7.3 7.3-19.2 0-26.5-7.3-7.3-19.1-7.3-26.5 0zm3.4 3.4c4.9-4.9 12.6-5.4 18.1-1.5L63.6 83.1c-3.9-5.5-3.5-13.1 1.5-18zm19.8 19.8c-4.9 4.9-12.6 5.4-18.1 1.5l19.6-19.6c3.9 5.6 3.5 13.2-1.5 18.1z"/></svg>