<svg xmlns="http://www.w3.org/2000/svg" viewBox="0 0 150 126.6"><style>.st0{fill:#703081}.st1{fill:#f2ba59}</style><path class="st0" d="M138 0H11.8C5.4 0 0 5.2 0 11.8v103.1c0 6.4 5.2 11.8 11.8 11.8h126.4c6.4 0 11.8-5.2 11.8-11.8V11.6C149.8 5.2 144.6 0 138 0zm7.2 114.6c0 3.8-3.2 7-7 7H11.8c-3.8 0-7-3.2-7-7v-103c0-3.8 3.2-7 7-7h126.4c3.8 0 7 3.2 7 7v103z" id="Layer_1"/><g id="Layer_1_copy"><path class="st0" d="M138 0H11.8C5.4 0 0 5.2 0 11.8v103.1c0 6.4 5.2 11.8 11.8 11.8h126.4c6.4 0 11.8-5.2 11.8-11.8V11.6C149.8 5.2 144.6 0 138 0zm7.2 114.6c0 3.8-3.2 7-7 7H11.8c-3.8 0-7-3.2-7-7v-103c0-3.8 3.2-7 7-7h126.4c3.8 0 7 3.2 7 7v103z"/><path class="st0" d="M95.2 979.3c-.9-3.8-3.8-6.9-7.7-6.9h-3.9c-1-3.9-4.4-6.8-8.6-6.8s-7.6 2.9-8.6 6.8h-3.9c-3.9 0-6.8 3-7.7 6.9-7.6.4-13.9 6.2-13.9 13.6v59.1c0 7.6 6.7 13.6 14.8 13.6h38.6c8 0 14.8-6 14.8-13.6v-59.1c0-7.3-6.3-13.1-13.9-13.6zM62.5 977h5.7c1.3 0 2.3-1 2.3-2.3 0-2.5 2-4.5 4.5-4.5s4.5 2 4.5 4.5c0 1.3 1 2.3 2.3 2.3h5.7c1.7 0 3.4 1.8 3.4 4.5 0 2.8-1.7 4.5-3.4 4.5h-25c-1.7 0-3.4-1.8-3.4-4.5s1.7-4.5 3.4-4.5zm42 75c0 5-4.4 9.1-10.2 9.1H55.7c-5.8 0-10.2-4.1-10.2-9.1v-59.1c0-4.6 3.9-8.5 9.2-9h.2c.9 3.8 3.8 6.7 7.7 6.7h25c3.8 0 6.8-3 7.7-6.7 5.4.4 9.4 4.3 9.4 9v59.1z" transform="translate(0 -952.362)"/><path class="st1" d="M62.2 992.4c-1-.4-2-.8-2.9-1.3.8.6 1.8 1.1 2.9 1.3zM75 1041.1c8.7 0 15.8-7.1 15.8-15.8 0-8.7-7.1-15.8-15.8-15.8s-15.8 7.1-15.8 15.8c0 8.7 7.1 15.8 15.8 15.8zm0-27.5c6.4 0 11.6 5.2 11.6 11.6 0 2.4-.7 4.7-2 6.6l-16.2-16.2c1.9-1.2 4.2-2 6.6-2zm-9.6 5l16.2 16.2c-1.9 1.3-4.1 2-6.6 2-6.4 0-11.6-5.2-11.6-11.6 0-2.4.7-4.7 2-6.6z" transform="translate(0 -952.362)"/></g></svg>