<svg id="Layer_1" xmlns="http://www.w3.org/2000/svg" viewBox="0 0 150 114"><style>.st0{fill:#df6b90}.st1{fill:#703081}</style><circle class="st0" cx="84.1" cy="102.1" r="2.4"/><circle class="st0" cx="75.1" cy="102.1" r="2.4"/><circle class="st0" cx="66.1" cy="102.1" r="2.4"/><path class="st1" d="M147.4 90.3H141V20.8C141 4.3 127.5 0 120.2 0H29.9C22.6 0 9.1 4.4 9.1 20.8v69.7H2.8c-1.5 0-2.8 1.3-2.8 2.8 0 7.3 4.4 20.8 20.8 20.8h108.5c16.5 0 20.8-13.5 20.8-20.8 0-1.6-1.2-3-2.7-3zM14.5 20.8c0-14.9 13.8-15.4 15.4-15.4h90.4c1.6 0 15.4.5 15.4 15.4v69.7H14.5V20.8zm114.9 87.7H20.8c-11.4 0-14.3-8.1-15.1-12.6h138.7c-.8 4.3-3.7 12.6-15 12.6z"/><g><path class="st0" d="M100.3 45.7c-.1-1.1-1.1-2-2.3-1.9s-1.9 1.1-1.9 2.1c1 11.6-7.6 21.9-19.3 22.9-5.6.5-11.1-1.3-15.5-4.9-9-7.5-10.1-20.9-2.6-29.9 5.5-6.6 14.5-9.1 22.8-6.5 1.1.4 2.3-.1 2.6-1.3.4-1.1-.1-2.3-1.3-2.6h-.1c-13.3-4.3-27.5 3-31.9 16.3-3.1 10 0 20.8 7.9 27.4 4.5 3.9 10.3 5.9 16.3 5.9.8 0 1.5 0 2.3-.1 13.9-1.2 24.2-13.4 23-27.4z"/><path class="st0" d="M82.6 37.4l-7.5 7.5-7.5-7.5c-.8-.8-2.1-.8-2.9 0-.8.8-.8 2.1 0 2.9l7.5 7.5-7.5 7.5c-.8.8-.8 2.1 0 2.9.8.8 2.1.8 2.9 0l7.5-7.5 7.5 7.5c.8.8 2.1.8 2.9 0 .8-.8.8-2.1 0-2.9L78 47.8l7.5-7.5c.8-.8.8-2.1 0-2.9-.8-.7-2.1-.7-2.9 0z"/></g></svg>