<svg id="Layer_1" xmlns="http://www.w3.org/2000/svg" viewBox="0 0 110 83.6"><style>.st0{fill:#d8427d}.st1{fill:#703081}</style><circle class="st0" cx="61.6" cy="74.9" r="1.7"/><circle class="st0" cx="55" cy="74.9" r="1.7"/><circle class="st0" cx="48.4" cy="74.9" r="1.7"/><path class="st1" d="M108.1 66.2h-4.7v-51C103.4 3.1 93.5 0 88.2 0H21.9C16.6 0 6.7 3.2 6.7 15.2v51.1H2c-1.1 0-2 .9-2 2 0 5.3 3.2 15.2 15.2 15.2h79.5c12.1 0 15.2-9.9 15.2-15.2.2-1.1-.7-2.1-1.8-2.1zm-97.5-51c0-10.9 10.1-11.3 11.3-11.3h66.3c1.2 0 11.3.4 11.3 11.3v51.1H10.6V15.2zm84.3 64.3H15.2c-8.3 0-10.5-6-11.1-9.3h101.7c-.5 3.3-2.6 9.3-10.9 9.3z"/><path class="st0" d="M60.8 48.4V25.2c0-.9-.7-1.5-1.5-1.5-.9 0-1.5.7-1.5 1.5v23.2c0 .9.7 1.5 1.5 1.5.7 0 1.5-.7 1.5-1.5zm-8.5 0V25.2c0-.9-.7-1.5-1.5-1.5-.9 0-1.5.7-1.5 1.5v23.2c0 .9.7 1.5 1.5 1.5.7 0 1.5-.7 1.5-1.5zm17-24.8c-.9 0-1.5.7-1.5 1.5v28c0 .9-.7 1.7-1.7 1.7H43.8c-.9 0-1.7-.7-1.7-1.7V25.2c0-.9-.7-1.5-1.5-1.5-.9 0-1.5.7-1.5 1.5v28c0 2.6 2.1 4.8 4.8 4.8h22.3c2.6 0 4.8-2.1 4.8-4.8v-28c-.2-.9-.9-1.6-1.7-1.6zm4.1-5.7h-8.7v-4.8c0-.9-.7-1.5-1.5-1.5H46.8c-.9 0-1.5.7-1.5 1.5v4.8h-8.7c-.9 0-1.5.7-1.5 1.5s.7 1.5 1.5 1.5h36.9c.9 0 1.5-.7 1.5-1.5s-.7-1.5-1.6-1.5zm-11.9 0H48.3v-3.2h13.4l-.2 3.2z"/></svg>