<svg id="Layer_1" xmlns="http://www.w3.org/2000/svg" viewBox="0 0 110 83.6"><style>.st0{fill:#d8427d}.st1{fill:#703081}</style><circle class="st0" cx="61.6" cy="74.9" r="1.7"/><circle class="st0" cx="55" cy="74.9" r="1.7"/><circle class="st0" cx="48.4" cy="74.9" r="1.7"/><path class="st1" d="M108.1 66.2h-4.7v-51C103.4 3.1 93.5 0 88.2 0H21.9C16.6 0 6.7 3.2 6.7 15.2v51.1H2c-1.1 0-2 .9-2 2 0 5.3 3.2 15.2 15.2 15.2h79.5c12.1 0 15.2-9.9 15.2-15.2.2-1.1-.7-2.1-1.8-2.1zm-97.5-51c0-10.9 10.1-11.3 11.3-11.3h66.3c1.2 0 11.3.4 11.3 11.3v51.1H10.6V15.2zm84.3 64.3H15.2c-8.3 0-10.5-6-11.1-9.3h101.7c-.5 3.3-2.6 9.3-10.9 9.3z"/><g><path class="st0" d="M73.6 33.5c-.1-.8-.8-1.5-1.7-1.4-.8.1-1.4.8-1.4 1.6.7 8.5-5.6 16.1-14.1 16.8-4.1.4-8.2-.9-11.4-3.6-6.6-5.5-7.4-15.3-1.9-21.9 4-4.9 10.6-6.7 16.7-4.8.8.3 1.7-.1 1.9-.9.3-.8-.1-1.7-.9-1.9h-.1c-9.7-3.1-20.2 2.2-23.4 11.9-2.3 7.3 0 15.2 5.8 20.1 3.3 2.8 7.5 4.3 11.9 4.3.6 0 1.1 0 1.7-.1 10.2-.9 17.7-9.8 16.9-20.1z"/><path class="st0" d="M60.5 27.4L55 32.9l-5.5-5.5c-.6-.6-1.6-.6-2.1 0-.6.6-.6 1.6 0 2.1l5.5 5.5-5.5 5.5c-.6.6-.6 1.6 0 2.1.6.6 1.6.6 2.1 0l5.5-5.5 5.5 5.5c.6.6 1.6.6 2.1 0 .6-.6.6-1.6 0-2.1L57.2 35l5.5-5.5c.6-.6.6-1.6 0-2.1s-1.5-.5-2.2 0z"/></g></svg>