<svg id="Layer_1" xmlns="http://www.w3.org/2000/svg" viewBox="0 0 150 150"><style>.st0{fill:#d8427d}.st1{fill:#703081}</style><circle class="st0" cx="82.2" cy="111.1" r="1.9"/><circle class="st0" cx="75" cy="111.1" r="1.9"/><circle class="st0" cx="67.8" cy="111.1" r="1.9"/><path class="st1" d="M132.8 101.7h-5.1V46.1c0-13.2-10.8-16.6-16.6-16.6H38.9c-5.8 0-16.6 3.5-16.6 16.6v55.7h-5.1c-1.2 0-2.2 1-2.2 2.2 0 5.8 3.5 16.6 16.6 16.6h86.7c13.2 0 16.6-10.8 16.6-16.6.1-1.2-.9-2.3-2.1-2.3zM26.6 46.1c0-11.9 11-12.3 12.3-12.3h72.3c1.3 0 12.3.4 12.3 12.3v55.7H26.6V46.1zm91.8 70.1H31.6c-9.1 0-11.4-6.5-12.1-10.1h110.9c-.6 3.5-2.9 10.1-12 10.1z"/><g><path class="st0" d="M95.2 66c-.1-.9-.9-1.6-1.8-1.5-.9.1-1.5.9-1.5 1.7.8 9.3-6.1 17.5-15.4 18.3-4.5.4-8.9-1-12.4-3.9-7.2-6-8.1-16.7-2.1-23.9 4.4-5.3 11.6-7.3 18.2-5.2.9.3 1.8-.1 2.1-1 .3-.9-.1-1.8-1-2.1h-.1c-10.6-3.4-22 2.4-25.5 13-2.5 8 0 16.6 6.3 21.9 3.6 3.1 8.2 4.7 13 4.7.6 0 1.2 0 1.8-.1C87.9 87 96.1 77.2 95.2 66z"/><path class="st0" d="M81 59.4l-6 6-6-6c-.6-.6-1.7-.6-2.3 0s-.6 1.7 0 2.3l6 6-6 6c-.6.6-.6 1.7 0 2.3s1.7.6 2.3 0l6-6 6 6c.6.6 1.7.6 2.3 0s.6-1.7 0-2.3l-6-6 6-6c.6-.6.6-1.7 0-2.3-.6-.6-1.6-.6-2.3 0z"/></g></svg>