<svg id="Layer_1" xmlns="http://www.w3.org/2000/svg" viewBox="0 0 150 114"><style>.st0{fill:#df6b90}.st1{fill:#703081}</style><circle class="st0" cx="84.1" cy="102.1" r="2.4"/><circle class="st0" cx="75.1" cy="102.1" r="2.4"/><circle class="st0" cx="66.1" cy="102.1" r="2.4"/><path class="st1" d="M147.4 90.3H141V20.8C141 4.3 127.5 0 120.2 0H29.9C22.6 0 9.1 4.4 9.1 20.8v69.7H2.8c-1.5 0-2.8 1.3-2.8 2.8 0 7.3 4.4 20.8 20.8 20.8h108.5c16.5 0 20.8-13.5 20.8-20.8 0-1.6-1.2-3-2.7-3zM14.5 20.8c0-14.9 13.8-15.4 15.4-15.4h90.4c1.6 0 15.4.5 15.4 15.4v69.7H14.5V20.8zm114.9 87.7H20.8c-11.4 0-14.3-8.1-15.1-12.6h138.7c-.8 4.3-3.7 12.6-15 12.6z"/><path class="st0" d="M109.1 42.3c-1.1-1.1-2.8-1.1-3.8 0l-4.9 4.9C100 33.6 88.8 22.6 75 22.6c-13.9 0-25.3 11.4-25.3 25.3S61.1 73.3 75 73.3c5.8 0 11.4-2 15.9-5.6 1.1-.9 1.3-2.8.4-3.8s-2.8-1.3-3.8-.4c-3.4 2.8-8 4.4-12.5 4.4-11 0-19.9-8.9-19.9-19.9s8.9-20 20-20c10.6 0 19.4 8.5 19.9 19.1l-4.8-4.8c-1.1-1.1-2.8-1.1-3.8 0s-1.1 2.8 0 3.8l9.3 9.3c.5.5 1.3.8 2 .8H98c.8 0 1.5-.1 2-.8l9.3-9.3c.8-.9.8-2.7-.2-3.8z"/></svg>