<svg id="Layer_1" xmlns="http://www.w3.org/2000/svg" viewBox="0 0 110 83.6"><style>.st0{fill:#d8427d}.st1{fill:#703081}</style><circle class="st0" cx="61.6" cy="74.9" r="1.7"/><circle class="st0" cx="55" cy="74.9" r="1.7"/><circle class="st0" cx="48.4" cy="74.9" r="1.7"/><path class="st1" d="M108.1 66.2h-4.7v-51C103.4 3.1 93.5 0 88.2 0H21.9C16.6 0 6.7 3.2 6.7 15.2v51.1H2c-1.1 0-2 .9-2 2 0 5.3 3.2 15.2 15.2 15.2h79.5c12.1 0 15.2-9.9 15.2-15.2.2-1.1-.7-2.1-1.8-2.1zm-97.5-51c0-10.9 10.1-11.3 11.3-11.3h66.3c1.2 0 11.3.4 11.3 11.3v51.1H10.6V15.2zm84.3 64.3H15.2c-8.3 0-10.5-6-11.1-9.3h101.7c-.5 3.3-2.6 9.3-10.9 9.3z"/><path class="st0" d="M80 31c-.8-.8-2-.8-2.8 0l-3.6 3.6c-.3-10-8.5-18.1-18.6-18.1-10.2 0-18.5 8.3-18.5 18.5S44.9 53.7 55 53.7c4.2 0 8.3-1.5 11.7-4.1.8-.6.9-2 .3-2.8-.6-.7-2-.9-2.8-.3-2.5 2-5.9 3.2-9.2 3.2-8.1 0-14.6-6.5-14.6-14.6S47 20.5 55 20.5c7.8 0 14.2 6.2 14.6 14L66.1 31c-.8-.8-2-.8-2.8 0-.7.8-.8 2 0 2.8l6.8 6.8c.4.4.9.6 1.5.6h.2c.6 0 1.1-.1 1.5-.6l6.8-6.8c.6-.7.6-2-.1-2.8z"/></svg>