<svg id="Layer_1" xmlns="http://www.w3.org/2000/svg" viewBox="0 0 150 114"><style>.st0{fill:#df6b90}.st1{fill:#703081}</style><circle class="st0" cx="84.1" cy="102.1" r="2.4"/><circle class="st0" cx="75.1" cy="102.1" r="2.4"/><circle class="st0" cx="66.1" cy="102.1" r="2.4"/><path class="st1" d="M147.4 90.3H141V20.8C141 4.3 127.5 0 120.2 0H29.9C22.6 0 9.1 4.4 9.1 20.8v69.7H2.8c-1.5 0-2.8 1.3-2.8 2.8 0 7.3 4.4 20.8 20.8 20.8h108.5c16.5 0 20.8-13.5 20.8-20.8 0-1.6-1.2-3-2.7-3zM14.5 20.8c0-14.9 13.8-15.4 15.4-15.4h90.4c1.6 0 15.4.5 15.4 15.4v69.7H14.5V20.8zm114.9 87.7H20.8c-11.4 0-14.3-8.1-15.1-12.6h138.7c-.8 4.3-3.7 12.6-15 12.6z"/><path class="st0" d="M87.5 17c-4.9.9-9.6 3.3-13.3 7.1l-.3.3-2.6-2.6-1.6 9.8 9.8-1.6-3-3 .3-.3c3.8-3.8 8.5-5.9 13.4-6.4L87.5 17zm-27.7 5l-4.3.7c-1.7 5-1.9 10.4-.4 15.4l-3.6 1 7.7 6.3 3.5-9.3-4 1.1c-1.4-5-1.1-10.4 1.1-15.2zm34 8.6l-9.3 3.5 6.3 7.7 1.1-4c3.7.9 7.3 2.9 10.2 5.8.9.9 1.7 1.8 2.3 2.8l1.5-4.1c-.4-.5-.8-.9-1.2-1.4-3.4-3.4-7.5-5.6-11.9-6.7l1-3.6zm-48.2 17l-1.6 4c.4.5.8.9 1.2 1.3 3.4 3.4 7.5 5.7 11.9 6.8l-1 3.6 9.3-3.5-6.3-7.7-1.1 4c-3.7-.9-7.3-2.9-10.2-5.8-.8-.8-1.5-1.8-2.2-2.7zm45.2 1l-3.5 9.3 4-1.1c1.4 5 1 10.4-1.1 15.2l4.3-.7c1.7-5 1.9-10.4.4-15.4l3.6-1-7.7-6.3zM80.4 62.5l-9.8 1.6 2.9 2.9c-.1.1-.2.2-.2.3-3.8 3.8-8.5 5.9-13.5 6.4l2.7 3.4c4.9-.9 9.6-3.3 13.3-7.1l.3-.3 2.6 2.6 1.7-9.8z"/></svg>