<svg id="Layer_1" xmlns="http://www.w3.org/2000/svg" viewBox="0 0 150 150"><style>.st0{fill:#d8427d}.st1{fill:#703081}</style><circle class="st0" cx="82.2" cy="111.1" r="1.9"/><circle class="st0" cx="75" cy="111.1" r="1.9"/><circle class="st0" cx="67.8" cy="111.1" r="1.9"/><path class="st1" d="M132.8 101.7h-5.1V46.1c0-13.2-10.8-16.6-16.6-16.6H38.9c-5.8 0-16.6 3.5-16.6 16.6v55.7h-5.1c-1.2 0-2.2 1-2.2 2.2 0 5.8 3.5 16.6 16.6 16.6h86.7c13.2 0 16.6-10.8 16.6-16.6.1-1.2-.9-2.3-2.1-2.3zM26.6 46.1c0-11.9 11-12.3 12.3-12.3h72.3c1.3 0 12.3.4 12.3 12.3v55.7H26.6V46.1zm91.8 70.1H31.6c-9.1 0-11.4-6.5-12.1-10.1h110.9c-.6 3.5-2.9 10.1-12 10.1z"/><path class="st0" d="M80.8 81.2V58c0-.9-.7-1.5-1.5-1.5-.9 0-1.5.7-1.5 1.5v23.2c0 .9.7 1.5 1.5 1.5s1.5-.7 1.5-1.5zm-8.5 0V58c0-.9-.7-1.5-1.5-1.5-.9 0-1.5.7-1.5 1.5v23.2c0 .9.7 1.5 1.5 1.5s1.5-.7 1.5-1.5zm17.1-24.8c-.9 0-1.5.7-1.5 1.5v28c0 .9-.7 1.7-1.7 1.7H63.9c-.9 0-1.7-.7-1.7-1.7V58c0-.9-.7-1.5-1.5-1.5-.9 0-1.5.7-1.5 1.5v28c0 2.6 2.1 4.8 4.8 4.8h22.3c2.6 0 4.8-2.1 4.8-4.8V58c-.2-.9-.9-1.6-1.7-1.6zm4.1-5.7h-8.7v-4.8c0-.9-.7-1.5-1.5-1.5H66.8c-.9 0-1.5.7-1.5 1.5v4.8h-8.7c-.9 0-1.5.7-1.5 1.5s.7 1.5 1.5 1.5h36.9c.9 0 1.5-.7 1.5-1.5s-.7-1.5-1.5-1.5zm-11.8 0H68.3v-3.2h13.4v3.2z"/></svg>