<svg id="Layer_1" xmlns="http://www.w3.org/2000/svg" viewBox="0 0 50 50"><path fill="#787878" d="M43.3 19.1c-.3-.3-.8-.3-1.1 0L21.3 40c-1.5 1.5-3.6 2.4-5.8 2.4-2.2 0-4.3-.8-5.8-2.4-1.5-1.5-2.4-3.6-2.4-5.8 0-2.2.8-4.3 2.4-5.8L30.6 7.5c2.2-2.2 5.7-2.1 8.1.3 2.4 2.4 2.5 5.9.3 8.1L19.4 35.6c-1.1 1.1-2.9 1.1-4 0s-1.1-2.9 0-4l13.3-13.3c.3-.3.3-.8 0-1.1-.3-.3-.8-.3-1.1 0L14.3 30.5c-1.7 1.7-1.7 4.5 0 6.2 1.7 1.7 4.5 1.7 6.2 0L40.1 17c2.8-2.8 2.7-7.3-.3-10.3-3-3-7.4-3.2-10.3-.3L8.6 27.3c-1.8 1.8-2.8 4.3-2.8 6.9 0 2.6 1 5 2.8 6.9 1.8 1.8 4.3 2.8 6.9 2.8 2.6 0 5-1 6.9-2.8l20.9-20.9c.3-.3.3-.8 0-1.1z"/></svg>