<svg id="Layer_1" xmlns="http://www.w3.org/2000/svg" viewBox="0 0 138.1 150"><style>.st0{display:none}.st0,.st1{fill:#d8427d}</style><path class="st0" d="M104.4 43.6H34c-2.3 0-4.1 1.8-4.1 4.1v13.9c0 2.3 1.8 4.1 4.1 4.1h70.4c2.3 0 4.1-1.8 4.1-4.1V47.7c-.2-2.3-2-4.1-4.1-4.1zM37 53.3c-1.4 0-2.5-1.1-2.5-2.5s1.1-2.5 2.5-2.5 2.5 1.1 2.5 2.5c.2 1.4-1 2.5-2.5 2.5zm60.6 7.3H79.8v-5.9h17.8v5.9zm6.8 7.3H34c-2.3 0-4.1 1.8-4.1 4.1v13.9c0 2.3 1.8 4.1 4.1 4.1h70.4c2.3 0 4.1-1.8 4.1-4.1V72c-.2-2.3-2-4.1-4.1-4.1zM37 77.5c-1.4 0-2.5-1.1-2.5-2.5s1.1-2.5 2.5-2.5 2.5 1.1 2.5 2.5c.2 1.4-1 2.5-2.5 2.5zm60.6 7.3H79.8v-5.9h17.8v5.9zm6.8 7.3H34c-2.3 0-4.1 1.8-4.1 4.1v13.9c0 2.3 1.8 4.1 4.1 4.1h70.4c2.3 0 4.1-1.8 4.1-4.1V96.2c-.2-2.3-2-4.1-4.1-4.1zM37 101.7c-1.4 0-2.5-1.1-2.5-2.5s1.1-2.5 2.5-2.5 2.5 1.1 2.5 2.5c.2 1.5-1 2.5-2.5 2.5zm60.6 7.3H79.8v-5.9h17.8v5.9zm-16.2 18.4h-7.5v-10.9h-9.4v10.9H57v3H30.8v9.3H57v2.8h24.4v-2.8h26.2v-9.3H81.4z"/><path class="st1" d="M110.8 21.2c-1.1 0-2-.5-2.5-1.4-5.7-7.7-14.6-12.3-24.4-12.3h-1.8c-.9 0-1.6-.2-2.3-.7C73.9 2.3 66.8 0 59.3 0 45.9 0 34.2 7.7 28.7 19.4c-.5 1.1-1.6 1.8-2.7 2C11.4 23.5 0 36.2 0 51.3 0 65.9 10.3 78 24 80.9V72c0-1.1.2-2.1.5-3.2-7.3-2.5-12.6-9.3-12.6-17.5 0-10.1 8.2-18.3 18.4-18.3h1.4c2.9.2 5.5-1.6 6.2-4.5 2.5-9.8 11.2-16.7 21.4-16.7 5.7 0 11.2 2.3 15.3 6.2 1.4 1.4 3.4 2 5.3 1.6 1.2-.2 2.5-.4 3.7-.4 7.1 0 13.4 3.9 16.6 10.3 1.1 2.3 3.4 3.6 5.9 3.4.5 0 1.2-.2 1.8-.2 10.2 0 18.3 8.2 18.3 18.3 0 8.2-5.3 15-12.6 17.5.4 1.1.5 2.1.5 3.2v8.9c13.7-2.9 24-15.1 24-29.6.3-15.5-11.8-28.6-27.3-29.8zm-37.4 88.5H65c-11.8-.4-21.2-2-28-4.3-3.2-1.1-5.9-2.3-8-3.7V117c4.6 4.8 20 9.1 40.1 9.1s35.5-4.5 40.1-9.1v-15.3c-2.1 1.4-4.8 2.7-8 3.7-6.8 2.4-16.2 4-27.8 4.3z"/><path class="st1" d="M29 80.5v15.3c4.3 4.5 17.6 8.6 35.8 9.1h8.4c18-.5 31.5-4.6 35.8-9.1V80.5c-7.8 5.3-24.2 8.2-40.1 8.2s-32-2.8-39.9-8.2z"/><path class="st1" d="M109 70.4c-1.8-6.9-15.7-13.7-39.9-13.7s-37.9 6.8-39.9 13.7c-.2.2-.2.5-.2.7v3.8c4.6 4.8 19.8 9.1 40.1 9.1s35.6-4.5 40.1-9.1v-3.8c0-.2 0-.6-.2-.7zm-80 52v13.2c0 .2 0 .5.2.7 2 7.8 18.9 13.7 39.9 13.7s37.9-5.9 39.9-13.7c.2-.2.2-.5.2-.7v-13.2c-6.6 4.6-20.3 8.4-40.1 8.4S35.6 127 29 122.4z"/></svg>