<svg id="Layer_1" xmlns="http://www.w3.org/2000/svg" viewBox="0 0 150 150"><style>.st0{fill:#703081}.st1{fill:#f2ba59}</style><g id="Layer_1_1_"><path class="st0" d="M131.1 55.1c.1-.9.1-1.6.1-2.5 0-11.6-9.5-21.1-21.1-21.1-1.5 0-2.9.1-4.4.5-4.6-12.9-17-21.6-30.8-21.6s-26.1 8.8-30.8 21.5c-1.4-.3-2.9-.5-4.4-.5-11.6 0-21.1 9.5-21.1 21.1 0 .7 0 1.6.1 2.5C8.3 56.1 0 65.1 0 76c0 11.6 9.5 21.1 21.1 21.1h18.8v-4.8H21.1c-9 0-16.4-7.4-16.4-16.4s7.4-16.4 16.6-16.4h.4c.7 0 1.5-.3 1.9-.9.5-.6.6-1.4.5-2-.4-1.4-.5-2.8-.5-4.1 0-9 7.4-16.4 16.4-16.4 1.8 0 3.5.3 5.1.9.6.3 1.3.1 1.9-.1.6-.3 1-.8 1.1-1.4 3.3-12 14.4-20.4 26.9-20.4s23.6 8.4 27 20.4c.1.6.6 1.1 1.1 1.4.6.3 1.3.4 1.9.1 1.6-.5 3.4-.9 5.1-.9 9 0 16.4 7.4 16.4 16.4 0 1.4-.1 2.8-.5 4.1-.1.8 0 1.5.5 2 .5.6 1.1.9 1.9.9h.5c9 0 16.4 7.4 16.4 16.4s-7.4 16.4-16.4 16.4h-18.8V97h18.8c11.6 0 21.1-9.5 21.1-21.1 0-10.8-8.2-19.8-18.9-20.8z"/><path class="st1" d="M56.3 43.2h-4.8C51.5 30.4 62 19.7 75 19.7v4.8c-10.4 0-18.7 8.4-18.7 18.7z"/></g><path class="st1" d="M87.8 67.1c-2.5-.8-5-1.2-7.6-1.2v9.4c1.6 0 3.2.2 4.7.7l2.9-8.9zM92.3 83.2l7.8-5.3c-1.6-2.3-3.5-4.3-5.7-6l-5.7 7.5c1.4 1 2.6 2.3 3.6 3.8zM96.1 91.9h9.4c0-2.6-.4-5.1-1.1-7.5L95.3 87c.6 1.7.8 3.3.8 4.9z"/><path class="st0" d="M78.5 70.8l-8.7-10.3V65c-14 0-25.4 11.7-25.4 26.1h9.4c0-9.2 7.2-16.6 15.9-16.6v5.2l8.8-8.9zM80.2 115.3v-5.1l-8.7 9 8.7 10.3v-4.6c14 0 25.4-11.7 25.4-26.1h-9.4c-.1 9.1-7.2 16.5-16 16.5z"/><path class="st1" d="M62.1 122.8c2.5.8 5 1.2 7.6 1.2v-9.4c-1.6 0-3.2-.2-4.7-.7l-2.9 8.9zM57.6 106.8l-7.8 5.3c1.6 2.3 3.5 4.3 5.7 6l5.7-7.5c-1.4-1-2.6-2.3-3.6-3.8zM53.8 98.1h-9.4c0 2.6.4 5.1 1.1 7.5l9.1-2.7c-.6-1.6-.8-3.2-.8-4.8z"/></svg>