<svg id="Layer_1" xmlns="http://www.w3.org/2000/svg" viewBox="0 0 150 150"><style>.st0{display:none}.st1{display:inline}.st2,.st3,.st4{fill:#d8427d}.st3{display:inline}.st4{display:none}</style><path class="st0 st1 st2" d="M92.4 104.9l12.3 1.7V94.8H92.4zm0-11.6h12.3V81.4l-12.3 1.7zm13.7 13.4l16.3 2.3V94.8h-16.3zm0-25.4v12h16.3V79z" id="Layer_3"/><g id="Layer_4"><g class="st0"><g class="st1"><path class="st2" d="M90 46.1H19.4c-2.3 0-4.1 1.8-4.1 4.1v13.9c0 2.3 1.8 4.1 4.1 4.1h70.4c2.3 0 4.1-1.8 4.1-4.1V50.2c.2-2.1-1.8-4.1-3.9-4.1zm-67.2 9.8c-1.4 0-2.5-1.1-2.5-2.5s1.1-2.5 2.5-2.5 2.5 1.1 2.5 2.5c0 1.3-1.1 2.5-2.5 2.5zm60.4 7.2H65.4v-5.9h17.8v5.9zm6.8 7.4H19.4c-2.3 0-4.1 1.8-4.1 4.1v13.9c0 2.3 1.8 4.1 4.1 4.1h70.4c2.3 0 4.1-1.8 4.1-4.1V74.6c.2-2.3-1.8-4.1-3.9-4.1zm-67.2 9.7c-1.4 0-2.5-1.1-2.5-2.5s1.1-2.5 2.5-2.5 2.5 1.1 2.5 2.5-1.1 2.5-2.5 2.5zm60.4 7.3H65.4v-5.9h17.8v5.9zm6.8 7.3H19.4c-2.3 0-4.1 1.8-4.1 4.1v13.9c0 2.3 1.8 4.1 4.1 4.1h70.4c2.3 0 4.1-1.8 4.1-4.1V98.9c.2-2.3-1.8-4.1-3.9-4.1zm-67.2 9.6c-1.4 0-2.5-1.1-2.5-2.5s1.1-2.5 2.5-2.5 2.5 1.1 2.5 2.5-1.1 2.5-2.5 2.5zm60.4 7.3H65.4v-5.9h17.8v5.9zM66.8 130h-7.5v-10.8h-9.2V130h-7.5v2.9H16.2v9.4h26.4v2.9h24.2v-2.9h26.4v-9.4H66.8z"/><path class="st2" d="M96.2 23.9c-1.1 0-2-.5-2.5-1.4-5.7-7.7-14.6-12.3-24.4-12.3h-1.8c-.9 0-1.6-.2-2.3-.7-5.9-4.5-13-6.8-20.5-6.8-13.4 0-25.1 7.7-30.6 19.4-.5 1.1-1.6 1.8-2.7 2-14.6 2.1-26 14.8-26 29.9 0 14.6 10.3 26.7 24 29.6v-8.9c0-1.1.2-2.1.5-3.2C2.7 68.9-2.7 62.2-2.7 54c0-10.2 8.2-18.3 18.3-18.3H17c2.9.2 5.5-1.6 6.2-4.5 2.5-9.8 11.2-16.7 21.4-16.7 5.7 0 11.2 2.3 15.3 6.2 1.4 1.4 3.4 2 5.3 1.6 1.2-.2 2.5-.4 3.7-.4 7.1 0 13.4 3.9 16.6 10.3 1.1 2.3 3.4 3.6 5.9 3.4.5 0 1.2-.2 1.8-.2 10.2 0 18.3 8.2 18.3 18.3 0 8.2-5.3 15-12.6 17.5.4 1.1.5 2.1.5 3.2v8.9c13.7-2.9 24-15.1 24-29.6.6-15.6-11.7-28.6-27.2-29.8z"/><g class="st0 st1"><path class="st2" d="M164.6 115.3c0 18.2-13.9 31.5-30.1 32.2-8.6.4-16.2-2.1-22.6-7.7-7.1-6.4-10.9-14.4-10.9-24 0-8.2 2.7-15.5 8.4-21.6 6.6-7.1 14.8-10.5 24.6-10.3 16.4.4 30.3 13.9 30.6 31.4zm-15.8-4.5v-.9c0-.2 0-.4.2-.4.5-2.5.7-5-.4-7.5-1.1-2.3-1.8-4.6-2.9-6.8-.5-1.1-1.1-2.3-2-3.2-2.1-2-5-2-7.7-1.6-1.6.2-3 .7-4.6.5-2-.2-4.1-.5-6.1-.7-1.8-.2-3.6 1.2-4.1 2.9-.7 2.1-1.2 4.1-1.8 6.2-.5 2-.2 3.2 1.8 4.3s4.1 1.8 6.2 2.5c1.6.5 3.2.9 4.8 1.6 1.1.4 1.8 1.1 1.8 2.3 0 .9.4 1.6.9 2.3.2.4.4.7.5 1.1 0 .2-.2.2-.2.4-.9 0-2 0-2.9-.2-5-1.4-9.6-3.4-13.9-6.2-.5-.4-.9-.9-.9-1.4-.2-.9-.2-1.8 0-2.5s-.2-.9-.7-.9c-1.8.2-3.4.2-5.2.4-2 .2-3.4 1.1-4.5 2.7-.5.7-.7 1.6-.2 2.3.7 1.1 1.4 2.1 2.1 2.9 1.8 1.6 3.6 3.4 5.5 4.8 2.3 1.6 4.6 3.2 7.1 4.5 2 1.1 4.1 1.8 6.1 2.5 2.7 1.1 5.5 1.8 8.4 2.1 1.2.2 2.7.4 3.9.4 2 0 3.9 0 5.7-.2 2.3-.2 4.5-1.4 6.6-2.5 2.7-1.4 4.6-3.4 5.3-6.4.4-2 .4-3.7-1.4-5-2-1.2-3.9-2.5-6.2-3.2.7 1.1.4 2.4-1.2 2.9zm-45.1 16.4c5.3 11.8 14.1 18.7 26.9 19.6 11 .9 20.1-3.4 27.1-12.3h-2.1c-1.8 0-3.7-.2-5.5-.2-.2 0-.5.4-.4.5.2.7-.2 1.1-.7 1.4-2 .9-3.9 2.1-5.5 3.7-.5.5-1.2.9-1.8 1.1-.4.2-.7 0-1.1-.2 0-.4 0-.7.2-1.1 1.4-2 2.9-3.7 4.3-5.7.2-.4.5-.5.5-.9.4-1.8.9-3.7 1.2-5.5.2-.4 0-.7-.5-.7h-3c-1.4 0-2.9-.5-4.3.2-.4.2-.7 0-1.1 0-.7-.2-1.6-.4-2.3-.4-1.8 0-3.6.2-5.3.2-.9 0-2-.4-2.7-.9-1.2-1.1-2.3-2.3-3.6-3.6-.4-.5-.9-.5-1.4-.4-.9.4-1.4 0-2-.7-.7-.9-1.6-1.8-2.5-2.7-.5-.5-1.2-.7-2-.4-.9.4-1.8.9-1.8 2s.4 2 .9 2.9c.7.9 1.4 2 2.5 2.7.2.2.4.7.2 1.1-.2.4-.5.5-.9.7-.9.2-1.6 0-2.3-.7-.7-.7-1.4-1.4-2.3-2.1-.4-.4-.7-.5-1.2-.5h-7.3c-1.3.2-1.1.8-.2 2.9z"/><path class="st2" d="M123.6 95.5c.5.4 1.1.5 1.4.9.9.9 2.1.9 3.2.7 1.4-.4 2.7.2 3.9.5.2 0 .4.4.4.4 0 .2-.2.5-.4.5-.7.2-1.2.4-2 .5-.9.2-2 .2-2.9.4-.4 0-.7.2-.9.4-1.2 1.1-2.1 0-3-.5s-1.1-1.6-.9-2.7c.3-.4.9-.8 1.2-1.1zm12.9-3.2c1.1-.5 2.1-.5 3.2-.5.5 0 .9.2 1.4.4.7.4 1.1.7 1.1 1.6 0 .7-.5 1.1-1.1 1.1-.9.2-1.8.2-2.5.2-.2 0-.4-.2-.5-.4.5-.4.9-.7 1.4-1.2-.7-1-2-.9-3-1.2zm1.2 41.1c-.9-.4-1.8-.5-2.5-.9h-.2c-.5 0-1.1 0-.9-.7.2-.7.9-1.1 1.6-.9.4.2.9.4 1.2.5.7.4 1.2.5 1.8-.2.2-.2.9-.2.9-.2.2.4.4.9.4 1.2-.7 1.1-1.4 1.2-2.3 1.2z"/></g><path class="st0 st3" d="M103.3 114h-7v16.7l5-4.6c4.8 6.8 12.8 11.2 21.7 11.2 13.7 0 24.9-10.2 26.5-23.3h-6.8c-1.6 9.4-9.8 16.7-19.8 16.7-6.9 0-13.2-3.6-16.7-9.1l8.2-7.7c.1.1-11.1.1-11.1.1zm19.8-30.1c-13.7 0-24.9 10.2-26.5 23.3h6.8c1.6-9.4 9.8-16.7 19.8-16.7 7.3 0 13.5 3.9 17.1 9.6l-7.1 7.1H150V90.5l-4.8 4.8c-5-6.9-13-11.4-22.1-11.4z"/></g><g class="st1"><path class="st2" d="M99.6 103.5c.4.9.7 2 1.2 2.9l-1.4 1.8c-.5.5-.4 1.4.2 2l2.5 2.5c.5.5 1.4.5 2 .2l1.8-1.4c.9.5 2 .9 2.9 1.2l.2 2.3c0 .7.7 1.2 1.4 1.2h3.4c.7 0 1.4-.5 1.4-1.2l.2-2.1c1.1-.4 2.1-.7 3-1.2l1.8 1.4c.5.5 1.4.4 2-.2l2.5-2.5c.5-.5.5-1.4.2-2l-1.4-1.8c.5-.9 1.1-2 1.2-3l2.1-.2c.7 0 1.2-.7 1.2-1.4v-3.7c0-.7-.5-1.4-1.2-1.4l-2-.2c-.4-1.1-.7-2.1-1.2-3l1.2-1.6c.5-.5.4-1.4-.2-2l-2.5-2.5c-.5-.5-1.4-.5-2-.2l-1.6 1.2c-1.1-.5-2.1-1.1-3.2-1.2l-.2-2c0-.7-.7-1.2-1.4-1.2h-3.4c-.7 0-1.4.5-1.4 1.2v1.8c-1.1.4-2.3.7-3.2 1.4l-1.6-1.2c-.5-.5-1.4-.4-2 .2L99.6 90c-.5.5-.5 1.4-.2 2l1.2 1.6c-.5.9-.9 2-1.2 3l-2.1.2c-.7 0-1.2.7-1.2 1.4v3.6c0 .7.5 1.4 1.2 1.4l2.3.3zm12.6-9.4c3.2 0 5.7 2.5 5.7 5.7s-2.5 5.7-5.7 5.7-5.7-2.5-5.7-5.7 2.5-5.7 5.7-5.7z"/><path class="st2" d="M146.4 104.2l-1.8-1.6c-.5-.5-1.4-.5-2 0l-1.1.9c-.9-.4-1.8-.7-2.7-.9l-.4-1.4c-.2-.7-.9-1.2-1.6-1.2l-2.3.2c-.7 0-1.2.7-1.2 1.4v1.4c-.9.4-1.8.7-2.5 1.4l-1.2-.7c-.5-.4-1.4-.4-2 .4l-1.6 1.8c-.5.5-.5 1.4 0 2l1.1 1.1c-.4.9-.7 1.6-.7 2.5l-1.4.4c-.7.2-1.2.9-1.2 1.6l.2 2.3c0 .7.7 1.2 1.4 1.2h1.6c.4.7.7 1.4 1.1 2.1l-.9 1.4c-.4.5-.4 1.4.4 2l1.8 1.6c.5.5 1.4.5 2 0l1.2-1.1c.7.4 1.6.7 2.5.7l.4 1.6c.2.7.9 1.2 1.6 1.2l2.3-.2c.7 0 1.2-.7 1.2-1.4v-1.6c.9-.4 1.6-.7 2.5-1.2l1.2.9c.5.4 1.4.4 2-.4l1.6-1.8c.5-.5.5-1.4 0-2l-1.1-1.1c.4-.9.7-1.6.9-2.7l1.4-.4c.7-.2 1.2-.9 1.2-1.6l-.2-2.3c0-.7-.7-1.2-1.4-1.2h-1.4c-.4-.9-.7-1.6-1.2-2.3l.7-1.2c.2-.4.2-1.2-.4-1.8zm-9 13.9c-2.5.2-4.8-1.8-5-4.3s1.8-4.8 4.3-5c2.5-.2 4.8 1.8 5 4.3.1 2.5-1.7 4.7-4.3 5z"/><path class="st2" d="M108 124.3c-.7 0-1.2.7-1.2 1.4v1.4c0 .7.5 1.4 1.2 1.4l1.1.2c.2.7.4 1.2.7 2l-.7.9c-.5.5-.4 1.4 0 2l1.1 1.1c.5.5 1.4.5 2 .2l.9-.7c.5.4 1.2.7 2 .9l.2 1.1c0 .7.7 1.2 1.4 1.2h1.4c.7 0 1.4-.5 1.4-1.2l.2-1.1c.7-.2 1.4-.5 2.1-.9l.9.7c.5.5 1.4.4 2 0l1.1-1.1c.5-.5.5-1.4.2-2l-.5-.9c.4-.7.7-1.2.9-2l.9-.2c.7 0 1.2-.7 1.2-1.4V126c0-.7-.5-1.4-1.2-1.4l-.9-.2c-.2-.7-.5-1.4-.7-2l.5-.7c.5-.5.4-1.4 0-2l-1.1-1.1c-.5-.5-1.4-.5-2-.2l-.7.5c-.7-.4-1.4-.7-2.1-.9l-.2-.9c0-.7-.7-1.2-1.4-1.2H117c-.7 0-1.4.5-1.4 1.2l-.2.9c-.7.2-1.4.5-2.1.9l-.7-.5c-.5-.5-1.4-.4-2 0l-1.1 1.1c-.5.5-.5 1.4-.2 2l.5.7c-.4.7-.7 1.2-.9 2l-.9.1zm9.4-1.6c2.1 0 3.7 1.8 3.7 3.9s-1.8 3.7-3.9 3.7-3.7-1.8-3.7-3.9c.2-1.9 1.8-3.7 3.9-3.7z"/></g></g><g class="st0"><g id="_x31_03_65_" class="st1"><path class="st2" d="M153.6 106.2l-4.3-4.3 5.3-5.3-2.1-2.1-5.3 5.3-4.3-4.3c-.2-.2-.2-.2-.4-.2l-.9-.9-2.1 2.1 5.5 5.5-5.3 5.3 2.1 2.1 5.3-5.3 5.3 5.3 2.1-2.1-.7-.7c-.1-.2-.2-.2-.2-.4z"/><path class="st2" d="M145.7 89.1h.9c0-.4 0-.5.2-.9-.4-5.3-4.1-9.3-9.6-9.6-3.2-.2-5.9 1.4-7.5 3.7-1.8-2.3-4.3-3.6-7.5-3.7-5.3-.4-9.3 4.6-9.6 9.6 0 .7 0 1.2.2 1.8-.4 0-.7 0-1.1-.2-5.9-.4-10 5-10.3 10.3-.4 5.5 4.3 9.6 9.4 10.2v.4h25.7c-2.1-2.3-3.4-5.3-3.4-8.7-.2-7.2 5.5-12.9 12.6-12.9z"/></g></g><path class="st0 st3" d="M106.5 92.3v-6.8c0-.9.7-1.6 1.6-1.6.9 0 1.6.7 1.6 1.6v6.8c0 .9-.7 1.6-1.6 1.6-.7 0-1.6-.7-1.6-1.6zm28.5 1.6c.9 0 1.6-.7 1.6-1.6v-6.8c0-.9-.7-1.6-1.6-1.6-.9 0-1.6.7-1.6 1.6v6.8c-.1.9.7 1.6 1.6 1.6zm18.4 30.1c0 7.3-6.1 13.4-13.4 13.4-7.3 0-13.4-6.1-13.4-13.4s6.1-13.4 13.4-13.4c7.3 0 13.4 6.1 13.4 13.4zm-3.4 0c0-5.5-4.5-10-10-10s-10 4.5-10 10 4.5 10 10 10 10-4.5 10-10zm-36.7-20h-6.8v6.6h6.8V104zm-6.8 16.6h6.8v-6.8h-6.8v6.8zm10.2-10h6.8V104h-6.8v6.6zm0 10h6.8v-6.8h-6.8v6.8zm-13.4 3v-23H140v6.8h3.4v-13c0-2-1.6-3.7-3.6-3.7h-1.4v1.6c0 1.8-1.4 3.4-3.4 3.4-1.8 0-3.4-1.4-3.4-3.4v-1.6h-20v1.6c0 1.8-1.4 3.4-3.4 3.4-1.8 0-3.4-1.4-3.4-3.4v-1.6h-1.4c-2 0-3.6 1.6-3.6 3.7v29.4c0 2 1.6 3.7 3.6 3.7h19.8v-3.4h-19.8c-.1-.1-.1-.3-.1-.5zm30-13V104h-6.6v6.6h6.6zM145 124h-5v-5c0-.9-.7-1.6-1.6-1.6s-1.6.7-1.6 1.6v6.8c0 .9.7 1.6 1.6 1.6h6.8c.9 0 1.6-.7 1.6-1.6 0-1.1-.9-1.8-1.8-1.8z"/><path class="st0 st3" d="M144.7 87.5h-43.1c-1.4 0-2.5 1.1-2.5 2.5v23.3h48.1V90c-.1-1.5-1.1-2.5-2.5-2.5zm-13.6 12.8c0 1.8-1.4 3.2-3.2 3.2h-9.8c-1.8 0-3.2-1.4-3.2-3.2V99c0-.5.4-.9.9-.9s.9.4.9.9v1.2c0 .7.5 1.4 1.4 1.4h9.8c.7 0 1.4-.5 1.4-1.4V99c0-.5.4-.9.9-.9s.9.4.9.9v1.3zM99 138.4c0 1.4 1.1 2.5 2.5 2.5h43.1c1.4 0 2.5-1.1 2.5-2.5v-23.3H99v23.3zm16.1-13.5c0-.5.4-.9.9-.9s.9.4.9.9v1.2c0 .7.5 1.4 1.4 1.4h9.8c.7 0 1.4-.5 1.4-1.4v-1.2c0-.5.4-.9.9-.9s.9.4.9.9v1.2c0 1.8-1.4 3.2-3.2 3.2h-9.8c-1.8 0-3.2-1.4-3.2-3.2v-1.2z"/><path class="st4" d="M151.1 108h-3v-6.4c0-1.4-1.1-2.5-2.5-2.5h-2.9V97l-13.9-13h-21.7v8.9h-4.6c-1.4 0-2.5 1.1-2.5 2.5v40.3c0 .4.2.7.4.9.4.5 1.1.9 1.8.9H142c1.1 0 2-.7 2.1-1.6l9.1-24.9v-.2c.2-1.8-.7-2.8-2.1-2.8zm-23.5-22.1c0-.2.1-.2 0 0L140.7 98v.2h-13.2V85.9zm-13.4 2.5h8.9c.5 0 .9.4.9.9s-.4.9-.9.9h-8.9c-.5 0-.9-.4-.9-.9s.4-.9.9-.9zm0 6.2h8.9c.5 0 .9.4.9.9s-.4.9-.9.9h-8.9c-.5 0-.9-.4-.9-.9s.4-.9.9-.9zm0 6.2h21.4c.5 0 .9.4.9.9s-.4.9-.9.9h-21.4c-.5 0-.9-.4-.9-.9s.4-.9.9-.9zm-5.2 8.8l-7.3 20.3V95.3c0-.4.4-.7.7-.7h4.6v16.9l1.4-3.7c.2-.5.5-.7 1.1-.7h33.2v-6.2h2.9c.4 0 .7.4.7.7v6.4h-35c-1 0-1.9.7-2.3 1.6z"/><path class="st0 st3" d="M101.2 105.3V116c0 .9.4 1.6.7 2.3h52.9c.5-.7.7-1.4.7-2.3v-10.7c0-.9-.4-1.6-.7-2.3h-52.7c-.6.7-.9 1.4-.9 2.3zm47.2 5.9c.5 0 .9.4.9.9s-.4.9-.9.9-.9-.4-.9-.9c0-.6.4-.9.9-.9zm-1.8-2.9c.5 0 .9.4.9.9s-.4.9-.9.9-.9-.4-.9-.9.4-.9.9-.9zm-1.8 2.9c.5 0 .9.4.9.9s-.4.9-.9.9-.9-.4-.9-.9c0-.6.4-.9.9-.9zm-1.9-2.9c.5 0 .9.4.9.9s-.4.9-.9.9-.9-.4-.9-.9.5-.9.9-.9zm-1.8 2.9c.5 0 .9.4.9.9s-.4.9-.9.9-.9-.4-.9-.9c0-.6.4-.9.9-.9zm-1.8-2.9c.5 0 .9.4.9.9s-.4.9-.9.9-.9-.4-.9-.9.4-.9.9-.9zm-1.8 2.9c.5 0 .9.4.9.9s-.4.9-.9.9-.9-.4-.9-.9c0-.6.4-.9.9-.9zm-1.8-2.9c.5 0 .9.4.9.9s-.4.9-.9.9-.9-.4-.9-.9.4-.9.9-.9zm-1.7 2.9c.5 0 .9.4.9.9s-.4.9-.9.9-.9-.4-.9-.9c0-.6.3-.9.9-.9zm-2-2.9c.5 0 .9.4.9.9s-.4.9-.9.9-.9-.4-.9-.9.6-.9.9-.9zm-21.2-1.8c2.3 0 4.1 1.8 4.1 4.1s-1.8 4.1-4.1 4.1-4.1-1.8-4.1-4.1 1.8-4.1 4.1-4.1zm44-5.3c.5-.7.7-1.4.7-2.3V88.2c0-2.3-2-4.1-4.1-4.1h-46c-2.3 0-4.1 2-4.1 4.1v10.7c0 .9.4 1.6.7 2.3h52.8zm-6.4-7.3c.5 0 .9.4.9.9s-.4.9-.9.9-.9-.4-.9-.9.4-.9.9-.9zm-1.8-2.7c.5 0 .9.4.9.9s-.4.9-.9.9-.9-.4-.9-.9.4-.9.9-.9zm-1.8 2.7c.5 0 .9.4.9.9s-.4.9-.9.9-.9-.4-.9-.9.4-.9.9-.9zm-1.9-2.7c.5 0 .9.4.9.9s-.4.9-.9.9-.9-.4-.9-.9.5-.9.9-.9zm-1.8 2.7c.5 0 .9.4.9.9s-.4.9-.9.9-.9-.4-.9-.9.4-.9.9-.9zm-1.8-2.7c.5 0 .9.4.9.9s-.4.9-.9.9-.9-.4-.9-.9.4-.9.9-.9zm-1.8 2.7c.5 0 .9.4.9.9s-.4.9-.9.9-.9-.4-.9-.9.4-.9.9-.9zm-1.8-2.7c.5 0 .9.4.9.9s-.4.9-.9.9-.9-.4-.9-.9.4-.9.9-.9zm-1.7 2.7c.5 0 .9.4.9.9s-.4.9-.9.9-.9-.4-.9-.9.3-.9.9-.9zm-2-2.7c.5 0 .9.4.9.9s-.4.9-.9.9-.9-.4-.9-.9.6-.9.9-.9zm-21.2-1.8c2.3 0 4.1 1.8 4.1 4.1s-1.8 4.1-4.1 4.1-4.1-1.8-4.1-4.1 1.8-4.1 4.1-4.1zm-8.7 30.7c-.5.7-.7 1.4-.7 2.3v10.7c0 2.3 2 4.1 4.1 4.1h46c2.3 0 4.1-2 4.1-4.1v-10.7c0-.9-.4-1.6-.7-2.3h-52.8zm8.7 11.7c-2.3 0-4.1-1.8-4.1-4.1s1.8-4.1 4.1-4.1 4.1 1.8 4.1 4.1-2 4.1-4.1 4.1zm21.2-4.4c-.5 0-.9-.4-.9-.9s.4-.9.9-.9.9.4.9.9-.4.9-.9.9zm2 2.6c-.5 0-.9-.4-.9-.9s.4-.9.9-.9.9.4.9.9c0 .6-.6.9-.9.9zm1.7-2.6c-.5 0-.9-.4-.9-.9s.4-.9.9-.9.9.4.9.9-.5.9-.9.9zm1.8 2.6c-.5 0-.9-.4-.9-.9s.4-.9.9-.9.9.4.9.9c0 .6-.3.9-.9.9zm1.8-2.6c-.5 0-.9-.4-.9-.9s.4-.9.9-.9.9.4.9.9-.4.9-.9.9zm1.8 2.6c-.5 0-.9-.4-.9-.9s.4-.9.9-.9.9.4.9.9c0 .6-.4.9-.9.9zm1.8-2.6c-.5 0-.9-.4-.9-.9s.4-.9.9-.9.9.4.9.9-.4.9-.9.9zm1.9 2.6c-.5 0-.9-.4-.9-.9s.4-.9.9-.9.9.4.9.9c0 .6-.5.9-.9.9zm1.8-2.6c-.5 0-.9-.4-.9-.9s.4-.9.9-.9.9.4.9.9-.4.9-.9.9zm1.8 2.6c-.5 0-.9-.4-.9-.9s.4-.9.9-.9.9.4.9.9c0 .6-.4.9-.9.9z"/><path class="st0 st1 st2" d="M128.4 94.2c-6.1 0-11 5-11 11 0 6.1 5 11 11 11 6.1 0 11-5 11-11 .1-6-4.9-11-11-11zm-3.2 3.4c-.7.9-1.4 2.1-1.8 3.6h-2.1c.7-1.6 2.2-2.9 3.9-3.6zm-4.8 10c-.2-.7-.4-1.6-.4-2.3 0-.9.2-1.6.4-2.3h2.5c-.2.7-.2 1.4-.2 2.3 0 .9 0 1.6.2 2.3h-2.5zm.7 1.8h2.1c.5 1.4 1.1 2.7 1.8 3.6-1.5-.8-3-2-3.9-3.6zm6.5 3.9c-.9-.9-1.8-2.1-2.5-3.9h2.5v3.9zm0-5.7h-2.9c-.2-.7-.2-1.4-.2-2.3 0-.9 0-1.6.2-2.3h2.9v4.6zm0-6.4h-2.5c.7-1.8 1.6-3 2.5-3.9v3.9zm8.1 0h-2.1c-.5-1.4-1.1-2.7-1.8-3.6 1.6.7 3.1 2 3.9 3.6zm-6.4-3.9c.9.9 1.8 2.1 2.5 3.9h-2.5v-3.9zm0 5.7h2.9c.2.7.2 1.4.2 2.3 0 .9 0 1.6-.2 2.3h-2.9V103zm0 6.4h2.5c-.7 1.8-1.6 3-2.5 3.9v-3.9zm2.4 3.5c.7-.9 1.4-2.1 1.8-3.6h2.1c-.7 1.7-2.2 2.9-3.9 3.6zm2.3-5.3c.2-.7.2-1.4.2-2.3 0-.9 0-1.6-.2-2.3h2.5c.2.7.4 1.6.4 2.3 0 .9-.2 1.6-.4 2.3H134zm-23.2-.4h4.1c0-.5-.2-1.2-.2-2v-1.4h-3.9c-.7-1.8-2.3-3-4.5-3-2.5 0-4.6 2.1-4.6 4.6s2.1 4.6 4.6 4.6c2 .3 3.8-1 4.5-2.8zm16-19.6v3.9c.5 0 1.1-.2 1.6-.2s1.1 0 1.6.2v-4.1c1.8-.7 3-2.3 3-4.5 0-2.5-2.1-4.6-4.6-4.6-2.5 0-4.6 2.1-4.6 4.6 0 2.3 1.3 4 3 4.7zm-14 6.8c.7 0 1.4-.2 2-.4l2.9 2.9c.7-.9 1.4-1.6 2.3-2.3l-2.9-2.9c.4-.5.4-1.2.4-2 0-2.5-2.1-4.6-4.6-4.6s-4.6 2.1-4.6 4.6c-.2 2.6 2 4.7 4.5 4.7zm26.5 2.3l2.9-2.9c1.8.7 3.7.5 5.2-.9 1.8-1.8 1.8-4.8 0-6.6-1.8-1.8-4.8-1.8-6.6 0-1.4 1.4-1.8 3.6-.9 5.2l-2.3 2.3-.5.5c.8.8 1.5 1.5 2.2 2.4zm11.2 4c-2.1 0-3.9 1.4-4.5 3.4h-3.9v1.4c0 .7 0 1.2-.2 2h4.1c.7 1.6 2.3 2.9 4.3 2.9 2.5 0 4.6-2.1 4.6-4.6s-1.9-5.1-4.4-5.1zm-6.4 15.5c-.7 0-1.4.2-2 .4l-2.9-2.9c-.7.9-1.4 1.6-2.3 2.3l2.9 2.9c-.4.5-.4 1.2-.4 2 0 2.5 2.1 4.6 4.6 4.6s4.6-2.1 4.6-4.6c.2-2.6-2-4.7-4.5-4.7zm-26.5-2.4l-2.9 2.9c-.5-.4-1.2-.4-2-.4-2.5 0-4.6 2.1-4.6 4.6 0 2.5 2.1 4.6 4.6 4.6s4.6-2.1 4.6-4.6c0-.7-.2-1.4-.4-2l2.9-2.9c-.8-.6-1.5-1.3-2.2-2.2zm12.4 9.1V119c-.5 0-1.1.2-1.6.2s-1.1 0-1.6-.2v3.9c-1.8.7-3 2.3-3 4.5 0 2.5 2.1 4.6 4.6 4.6 2.5 0 4.6-2.1 4.6-4.6.1-2-1.2-3.8-3-4.5z"/><g class="st0"><g id="data" class="st1"><path class="st2" d="M134.3 83.9c-11.2 0-23.3 3.4-23.3 10.9v31.7c0 7.5 12.1 10.9 23.3 10.9 11.2 0 23.3-3.4 23.3-10.9V94.8c.1-7.5-12.1-10.9-23.3-10.9zm20 42.6c0 4.1-8.9 7.5-20.1 7.5-11 0-20.1-3.4-20.1-7.5v-6.2c3.4 3.6 11.8 5.3 20.1 5.3 8.4 0 16.6-1.8 20.1-5.3v6.2zm0-10c0 4.1-8.9 7.5-20.1 7.5s-20-3.4-20-7.5v-6.2c3.4 3.6 11.8 5.3 20.1 5.3s16.6-1.8 20.1-5.3v6.2h-.1zm0-10c0 4.1-8.9 7.5-20.1 7.5s-20-3.4-20-7.5v-5.7c4.5 3.4 12.5 5 20.1 5s15.7-1.6 20.1-5v5.7h-.1zm-20-4.2c-11 0-20.1-3.4-20.1-7.5s8.9-7.5 20.1-7.5c11 0 20.1 3.4 20.1 7.5-.1 4.1-9 7.5-20.1 7.5z"/><circle class="st2" cx="149.3" cy="127.4" r="1.6"/><circle class="st2" cx="149.3" cy="117.2" r="1.6"/><circle class="st2" cx="149.3" cy="107.2" r="1.6"/></g></g><path class="st0 st1 st2" d="M106.9 88.4c-.2-1.2-1.6-2.3-2.9-2.3-4.1 0-7.8-2.5-9.4-6.2-1.6-3.9-.5-8.4 2.5-11.2 1.1-.9 1.1-2.3.4-3.4-2.1-2.7-4.6-5.2-7.3-7.3-1.1-.9-2.5-.7-3.4.4-2.7 3-7.7 4.1-11.4 2.5-3.9-1.6-6.4-5.7-6.2-10 0-1.4-.9-2.5-2.3-2.7-3.4-.4-6.8-.4-10.3 0-1.2.2-2.3 1.2-2.3 2.7.2 4.3-2.3 8.2-6.2 9.8-3.7 1.6-8.6.4-11.2-2.5-.9-1.1-2.3-1.1-3.4-.4-2.7 2.1-5.2 4.6-7.3 7.3-.9 1.1-.7 2.5.4 3.4 3.2 2.9 4.3 7.5 2.5 11.4-1.6 3.7-5.5 6.2-10 6.2-1.4 0-2.5.9-2.7 2.3-.4 3.4-.4 6.9 0 10.3.2 1.2 1.6 2.3 3 2.3 3.9-.2 7.8 2.3 9.4 6.2 1.6 3.9.5 8.4-2.5 11.2-.9.9-1.1 2.3-.4 3.4 2.1 2.7 4.6 5.2 7.3 7.3 1.1.9 2.5.7 3.6-.4 2.7-3 7.7-4.1 11.4-2.5 3.9 1.6 6.4 5.7 6.2 10 0 1.4.9 2.5 2.3 2.7 1.8.2 3.6.4 5.3.4 1.6 0 3.4-.2 5-.4 1.2-.2 2.3-1.2 2.3-2.7-.2-4.3 2.3-8.2 6.2-9.8 3.7-1.6 8.6-.4 11.2 2.5.9 1.1 2.3 1.1 3.4.4 2.7-2.1 5.2-4.6 7.3-7.3.9-1.1.7-2.5-.4-3.4-3.2-2.9-4.3-7.5-2.5-11.4 1.6-3.7 5.3-6.2 9.3-6.2h.5c1.2.2 2.5-.9 2.7-2.3.2-3.4.2-6.8-.1-10.3zm-45.3 20.4c-8.4 0-15.1-6.8-15.1-15.1s6.8-15.1 15.1-15.1 15.1 6.8 15.1 15.1c.3 8.2-6.7 15.1-15.1 15.1z" id="Settings"/><path class="st4" d="M110.3 43.6H39.9c-2.3 0-4.1 1.8-4.1 4.1v13.9c0 2.3 1.8 4.1 4.1 4.1h70.4c2.3 0 4.1-1.8 4.1-4.1V47.7c-.2-2.3-2-4.1-4.1-4.1zm-67.4 9.7c-1.4 0-2.5-1.1-2.5-2.5s1.1-2.5 2.5-2.5 2.5 1.1 2.5 2.5c.2 1.4-1 2.5-2.5 2.5zm60.6 7.3H85.7v-5.9h17.8v5.9zm6.8 7.3H39.9c-2.3 0-4.1 1.8-4.1 4.1v13.9c0 2.3 1.8 4.1 4.1 4.1h70.4c2.3 0 4.1-1.8 4.1-4.1V72c-.2-2.3-2-4.1-4.1-4.1zm-67.4 9.6c-1.4 0-2.5-1.1-2.5-2.5s1.1-2.5 2.5-2.5 2.5 1.1 2.5 2.5c.2 1.4-1 2.5-2.5 2.5zm60.6 7.3H85.7v-5.9h17.8v5.9zm6.8 7.3H39.9c-2.3 0-4.1 1.8-4.1 4.1v13.9c0 2.3 1.8 4.1 4.1 4.1h70.4c2.3 0 4.1-1.8 4.1-4.1V96.2c-.2-2.3-2-4.1-4.1-4.1zm-67.4 9.6c-1.4 0-2.5-1.1-2.5-2.5s1.1-2.5 2.5-2.5 2.5 1.1 2.5 2.5c.2 1.5-1 2.5-2.5 2.5zm60.6 7.3H85.7v-5.9h17.8v5.9zm-16.2 18.4h-7.5v-10.9h-9.4v10.9h-7.5v3H36.7v9.3h26.2v2.8h24.4v-2.8h26.2v-9.3H87.3z"/><path class="st2" d="M116.7 21.2c-1.1 0-2-.5-2.5-1.4-5.7-7.7-14.6-12.3-24.4-12.3H88c-.9 0-1.6-.2-2.3-.7C79.8 2.3 72.7 0 65.2 0 51.8 0 40.1 7.7 34.6 19.4c-.5 1.1-1.6 1.8-2.7 2-14.6 2.1-26 14.8-26 29.9 0 14.6 10.3 26.7 24 29.6V72c0-1.1.2-2.1.5-3.2-7.3-2.5-12.6-9.3-12.6-17.5C17.8 41.2 26 33 36.2 33h1.4c2.9.2 5.5-1.6 6.2-4.5 2.5-9.8 11.2-16.7 21.4-16.7 5.7 0 11.2 2.3 15.3 6.2 1.4 1.4 3.4 2 5.3 1.6 1.2-.2 2.5-.4 3.7-.4 7.1 0 13.4 3.9 16.6 10.3 1.1 2.3 3.4 3.6 5.9 3.4.5 0 1.2-.2 1.8-.2 10.2 0 18.3 8.2 18.3 18.3 0 8.2-5.3 15-12.6 17.5.4 1.1.5 2.1.5 3.2v8.9c13.7-2.9 24-15.1 24-29.6.3-15.5-11.8-28.6-27.3-29.8zm-37.4 88.5h-8.4c-11.8-.4-21.2-2-28-4.3-3.2-1.1-5.9-2.3-8-3.7V117c4.6 4.8 20 9.1 40.1 9.1s35.5-4.5 40.1-9.1v-15.3c-2.1 1.4-4.8 2.7-8 3.7-6.8 2.4-16.2 4-27.8 4.3z"/><path class="st2" d="M34.9 80.5v15.3c4.3 4.5 17.6 8.6 35.8 9.1h8.4c18-.5 31.5-4.6 35.8-9.1V80.5c-7.8 5.3-24.2 8.2-40.1 8.2s-32-2.8-39.9-8.2z"/><path class="st2" d="M114.9 70.4c-1.8-6.9-15.7-13.7-39.9-13.7s-37.9 6.8-39.9 13.7c-.2.2-.2.5-.2.7v3.8C39.5 79.7 54.7 84 75 84s35.6-4.5 40.1-9.1v-3.8c0-.2 0-.6-.2-.7zm-80 52v13.2c0 .2 0 .5.2.7C37.1 144.1 54 150 75 150s37.9-5.9 39.9-13.7c.2-.2.2-.5.2-.7v-13.2c-6.6 4.6-20.3 8.4-40.1 8.4s-33.5-3.8-40.1-8.4z"/></g></svg>