<svg id="Layer_1" xmlns="http://www.w3.org/2000/svg" viewBox="0 0 150 126.1"><style>.st0{fill:#703081}.st1{fill:#df6b90}</style><path class="st0" d="M141.7 0H63.3C58.8 0 55 3.8 55 8.3v48.3H8.3c-4.5 0-8.3 3.8-8.3 8.3v53c0 4.5 3.8 8.3 8.3 8.3h78.4c4.5 0 8.3-3.8 8.3-8.3V69.5h46.8c4.5 0 8.3-3.8 8.3-8.3v-53c-.1-4.4-3.9-8.2-8.4-8.2zm0 4.9c.4 0 .8 0 1.1.2l-40.2 29.7-41-29.3c.6-.4 1.1-.6 1.7-.6h78.4zm-55 56.6c.4 0 .8 0 1.1.2L47.4 91.4 6.6 62c.6-.4 1.1-.6 1.7-.6l78.4.1zm0 59.6H8.3c-1.9 0-3.4-1.5-3.4-3.4V66.9l42.5 30.5L89.8 66v51.7c.2 1.8-1.5 3.4-3.1 3.4zm55-56.4H94.9c-.2-4.5-3.8-8.1-8.3-8.1H60V10.3l42.5 30.5L145 9.4v51.7c.1 2.1-1.4 3.6-3.3 3.6z"/><path class="st1" d="M39.7 26.1h.8v-4.9h-.8c-10.5 0-19 8.5-19 19h4.9c0-7.7 6.4-14.1 14.1-14.1zM137.2 103.9h1.6v3.4h-8.9l3 3-2.4 2.4-5-5-2.1-2.2.7-.6 1.8-1.8 2.6-2.6 2.2-2.2 2.4 2.4-2.2 2.2-.8.8h7.1zm-31.8 3.6h3.2V96.6c0-4.5 3.7-8.1 8.1-8.1h21v-2.9c0-3-2.4-5.4-5.4-5.4h-17.5l-6.1-6.1c-.2-.2-.7-.5-1-.6-1.3-.2-2.5.7-2.5 2v4.7c-2.9.1-5.2 2.5-5.2 5.4v16.3c0 3.1 2.4 5.6 5.4 5.6zm44.6-10v16.4c0 2.6-1.8 4.8-4.3 5.3v4.8c0 .6-.2 1.1-.7 1.5-.4.3-.8.6-1.4.6-.6 0-1.1-.2-1.4-.6l-6.1-6.1h-18.4c-3 0-5.4-2.4-5.4-5.4V97.5c0-3 2.4-5.4 5.4-5.4h27c2.9-.1 5.3 2.4 5.3 5.4zm-3.7 0c0-.9-.7-1.7-1.7-1.7h-27c-.9 0-1.7.7-1.7 1.7v16.4c0 .9.7 1.7 1.7 1.7h20.1l4.2 4.2v-4.2h2.7c.9 0 1.7-.7 1.7-1.7V97.5z"/></svg>