<svg id="Layer_1" xmlns="http://www.w3.org/2000/svg" viewBox="0 0 50 50"><path fill="#D6417C" d="M14.7 32.4h25.7c2.9 0 5.3-2.4 5.3-5.3V16.3v-.1-.1-.1-.1-.1-.1-.1-.1-.1-.1h-.1-.1-.1-.1-.2-.1c-.1 0 0 0 0 0h-.1L12 10.5V6v-.1-.1-.1-.1-.1-.1-.1l-.1-.1-.1-.1h-.1-.1s-.1 0-.1-.1L4.4 2c-.7-.3-1.4 0-1.7.7s0 1.4.7 1.7L9.7 7v28.4c0 2.7 2 4.9 4.6 5.2-.5.8-.7 1.7-.7 2.7 0 2.9 2.3 5.2 5.2 5.2s5.2-2.3 5.2-5.2c0-1-.3-1.9-.7-2.6h11.6c-.5.8-.7 1.7-.7 2.6 0 2.9 2.3 5.2 5.2 5.2s5.2-2.3 5.2-5.2-2.3-5.2-5.2-5.2H14.7c-1.5 0-2.7-1.2-2.7-2.7v-3.5c.8.2 1.7.5 2.7.5zm6.4 10.7c0 1.5-1.2 2.6-2.6 2.6s-2.6-1.2-2.6-2.6c0-1.4 1.2-2.6 2.6-2.6s2.6 1.1 2.6 2.6zm20.7 0c0 1.5-1.2 2.6-2.6 2.6-1.4 0-2.6-1.2-2.6-2.6 0-1.4 1.2-2.6 2.6-2.6 1.4-.1 2.6 1.1 2.6 2.6zm-1.4-13.3H14.7c-1.5 0-2.7-1.2-2.7-2.7v-14l31.1 4.3v9.7c0 1.5-1.2 2.7-2.7 2.7z"/></svg>