<svg id="Layer_1" xmlns="http://www.w3.org/2000/svg" viewBox="0 0 150 150"><style>.st0{fill:#d8427d}</style><path class="st0" d="M100.8 84.7c-3-2.4-6.2-4.1-6.8-4.4-.1 0-.1-.1-.1-.2v-4.6c.6-.4 1-1 1-1.8v-4.8c0-2.4-1.9-4.3-4.3-4.3h-1.1c-2.4 0-4.3 1.9-4.3 4.3v4.8c0 .8.4 1.4 1 1.8V80.2c.9.6 1.9 1.3 2.8 2.1 1.1.9 1.7 2.2 1.7 3.6v3.9h11v-3.3c0-.7-.4-1.4-.9-1.8z"/><path class="st0" d="M87.7 83.8c-3.5-2.9-7.2-4.8-8-5.1-.1 0-.1-.1-.1-.2V73c.7-.5 1.1-1.2 1.1-2.1v-5.6c0-2.8-2.3-5.1-5.1-5.1h-1.2c-2.8 0-5.1 2.3-5.1 5.1v5.6c0 .9.4 1.7 1.1 2.1v5.4c0 .1-.1.2-.1.2-.8.4-4.5 2.3-8 5.1-.6.5-1 1.3-1 2.1v3.9h27.4v-3.9c0-.7-.4-1.5-1-2z"/><path class="st0" d="M63.8 80.1v-4.6c.6-.4 1-1 1-1.8v-4.8c0-2.4-1.9-4.3-4.3-4.3h-1c-2.4 0-4.3 1.9-4.3 4.3v4.8c0 .8.4 1.4 1 1.8v4.6c0 .1 0 .2-.1.2-.6.3-3.8 1.9-6.8 4.4-.5.4-.8 1.1-.8 1.8v3.3h11v-3.9c0-1.4.6-2.7 1.7-3.6.8-.8 1.7-1.5 2.6-2.2.1.1 0 0 0 0zM111.8 85.7c-2.4-2-4.9-3.2-5.5-3.5-.1 0-.1-.1-.1-.2v-3.7c.5-.3.8-.8.8-1.4V73c0-1.9-1.6-3.5-3.5-3.5h-.8c-1.9 0-3.5 1.6-3.5 3.5v3.8c0 .6.3 1.1.8 1.4v3.3c.7.5 1.3 1 2 1.5 1 .8 1.6 2 1.6 3.3v3.3h8.8V87c.1-.4-.1-1-.6-1.3zM49.9 78.3c.5-.3.8-.8.8-1.4v-3.8c0-1.9-1.6-3.5-3.5-3.5h-.8c-1.9 0-3.5 1.6-3.5 3.5v3.8c0 .6.3 1.1.8 1.4V82c0 .1 0 .1-.1.2-.5.3-3.1 1.6-5.5 3.5-.4.4-.7.9-.7 1.4v2.6h8.8v-3.3c0-1.3.6-2.5 1.6-3.3.7-.6 1.4-1.1 2-1.5.1 0 .1-3.3.1-3.3z"/></svg>