<svg id="Layer_1" xmlns="http://www.w3.org/2000/svg" viewBox="0 0 150 126.6"><style>.st0{fill:#703081}.st1{stroke-linecap:round;stroke-linejoin:round}.st1,.st2,.st3,.st4{fill:none;stroke:#f2ba59;stroke-width:4;stroke-miterlimit:10}.st3,.st4{stroke:#703081}.st4{stroke-linecap:round;stroke-linejoin:round}</style><path class="st0" d="M138 0H11.8C5.4 0 0 5.2 0 11.8v103.1c0 6.4 5.2 11.8 11.8 11.8h126.4c6.4 0 11.8-5.2 11.8-11.8V11.6C149.8 5.2 144.6 0 138 0zm7.2 114.6c0 3.8-3.2 7-7 7H11.8c-3.8 0-7-3.2-7-7v-103c0-3.8 3.2-7 7-7h126.4c3.8 0 7 3.2 7 7v103z"/><path class="st1" d="M56.6 88c-1.5-8.5-3.1-17-4.6-25.4-1.8-8.4 2.9-15.6 11.2-19.1M86.3 43.5c8.3 3.5 13 10.7 11.2 19.1C96 71 94.4 79.5 92.9 88"/><path class="st2" d="M89.8 33.9c0 3.6-1.3 6.9-3.4 9.5-2.8 3.3-6.9 5.5-11.6 5.5-4.7 0-8.8-2.1-11.6-5.5-2.1-2.6-3.4-5.9-3.4-9.5 0-8.3 6.7-15 15-15s15 6.8 15 15z"/><circle class="st3" cx="36.1" cy="44.2" r="12.4"/><circle class="st3" cx="113.9" cy="43.3" r="12.4"/><path class="st4" d="M121 53.5c6.5 2.9 10.2 8.8 8.7 15.6-1.3 7-2.5 14-3.8 21-1.9 9.7-7.7 9.9-15 9.9-4.7 0-8.8-.1-11.6-2.8l-.1-.1c0 5.8-4.7 10.5-10.5 10.5H61.3c-5.8 0-10.5-4.7-10.5-10.5v.1c-2.8 2.7-6.9 2.8-11.6 2.8-7.3 0-13.1-.2-15-9.9-1.3-7-2.5-14-3.8-21-1.4-6.5 1.9-12.2 8-15.2"/></svg>