<svg id="Layer_1" xmlns="http://www.w3.org/2000/svg" viewBox="0 0 50 50"><path fill="#F4F4F5" d="M41.9 19.7c-.4-7.2-6.4-13-13.6-13-4.4 0-8.6 2.1-11.2 5.6-.1 0-.1-.1-.2-.1-.2-.1-.3-.2-.5-.2-.1 0-.2-.1-.3-.1-.2-.1-.3-.1-.5-.2-.1 0-.2-.1-.3-.1-.2 0-.4-.1-.6-.1h-1c-4 0-7.2 3.2-7.2 7.2v.3C3.2 20.8.9 24.6.9 28.5c0 5.7 4.6 10.3 10.3 10.3h2.5c.4 0 .8-.4.8-.8s-.4-.8-.8-.8h-2.5c-4.8 0-8.7-3.9-8.7-8.7 0-3.3 2.2-6.8 5.2-8.2l.4-.3v-.5V18.9v-.2c0-3.1 2.5-5.6 5.6-5.6.2 0 .5 0 .7.1h.2c.2 0 .4.1.6.1h.1c.2.1.5.2.7.3.1 0 .1.1.2.1l.6.3c1.5 1 2.6 2.7 2.6 4.7 0 .4.4.8.8.8s.8-.4.8-.8c0-2.2-1-4.2-2.6-5.5 2.3-3 6.1-4.9 9.9-4.9 6.2 0 11.4 4.9 11.9 11.2-.8-.1-2.1-.1-3.3.1-.4.1-.7.5-.7.9.1.4.4.7.8.7h.1c1.8-.3 3.7 0 3.8 0 3.7.7 6.6 4.2 6.6 8 0 4.4-3.6 8.1-8.1 8.1H13.7c-.4 0-.8.4-.8.8s.4.8.8.8h25.7c5.3 0 9.7-4.3 9.7-9.7 0-4.5-3.1-8.4-7.2-9.5z"/></svg>