<svg id="Layer_1" xmlns="http://www.w3.org/2000/svg" viewBox="0 0 150 164.6"><style>.st0{fill:#f2ba59}</style><path class="st0" d="M99.3 67.6C97.2 59.9 90.5 55 82.5 55h-1.4c.2-6.4-1.1-11.9-4.3-16.3-3.7-5.5-9.1-9.1-15.6-10.7-1.7-.3-3.2-.5-5-.5-6.6 0-15.6 3-21.3 11.2-2.1-.9-4.6-1.4-7.1-1.4-9.4 0-17.1 7.3-17.9 16.5-.7.3-1.6 1.1-2.7 1.9-2.5 1.9-4.6 4.8-5.8 7.8-2 5.1-1.8 10.8.9 15.6 3.4 6.4 8.5 9.8 15.8 10.3l11.5.2H37c2.9 0 5.3 2.3 5.3 5.3v7.8L37 97.4c-.9-.9-2.3-.9-3 0-.9.9-.9 2.3 0 3l7.8 7.8c.7.7 1.8 1.1 2.9 1.1s1.9-.3 2.9-1.1l7.8-7.8c.9-.9.9-2.3 0-3-.9-.9-2.3-.9-3 0l-5.3 5.3v-8c0-5.3-4.3-9.6-9.6-9.6H18c-5.5-.3-9.6-3-12.1-8-1.9-3.7-2.1-8-.7-11.9 1.1-2.5 2.5-4.6 4.5-6.1 1.1-.9 2.1-1.4 3.2-1.9l1.4-.7v-1.6c.2-7.3 6.2-13.3 13.5-13.3 2.3 0 4.5.5 6.4 1.6l2.1 1.3 1.4-2.3c.2-.3.3-.5.5-.9C42.9 34.4 50.5 32 56 32c1.4 0 2.9.2 4.1.3 5.5 1.3 9.9 4.3 12.9 8.9 2.9 4.1 3.9 9.3 3.4 15.6v2.5h5.9c5.9 0 11 3.9 12.6 9.6 1.1 3.7.3 7.8-1.9 11-2.3 3.2-6.1 5.1-9.9 5.3-1.3 0-2.1 1.1-2.1 2.3s1.1 2.1 2.3 2.1c5.3-.2 10.1-2.7 13.3-7.1 3.3-4.6 4.2-9.9 2.7-14.9z"/><path class="st0" d="M70.4 85.2h-8.9c-2.9 0-5.3-2.3-5.3-5.3V65.2l5.3 5.3c.3.3 1.1.7 1.6.7s1.1-.2 1.6-.7c.9-.9.9-2.3 0-3l-7.8-7.8c-1.4-1.4-4.1-1.4-5.5 0l-7.8 7.8c-.9.9-.9 2.3 0 3 .9.9 2.3.9 3 0l5.3-5.3v14.5c0 5.3 4.3 9.6 9.6 9.6h8.9c1.4 0 2.7 1.3 2.7 2.7v31.1c0 1.4-1.3 2.7-2.7 2.7h-41c-1.4 0-2.7-1.3-2.7-2.7V97.2c0-1.3-.9-2.1-2.1-2.1-1.3 0-2.1.9-2.1 2.1v25.9c0 3.9 3.2 7.1 7.1 7.1h41.2c3.9 0 6.9-3.2 6.9-7.1V92.2c-.2-3.8-3.2-7-7.3-7zM59 132.9H40.5c-1.3 0-2.1.9-2.1 2.1 0 1.3.9 2.1 2.1 2.1h18.3c1.3 0 2.1-.9 2.1-2.1 0-1.2-.8-2.1-1.9-2.1zM122.5 147.1c-15.2 0-27.5-12.3-27.5-27.5s12.3-27.5 27.5-27.5 27.5 12.3 27.5 27.5-12.3 27.5-27.5 27.5zm0-52.1C109 95 98 106 98 119.5s11 24.5 24.5 24.5 24.5-10.9 24.5-24.4S136 95 122.5 95z"/><path class="st0" d="M120.6 127.3v-1.1c0-1.4.2-2.7.6-3.7.3-.7.7-1.6 1.4-2.3.5-.6 1.4-1.4 2.6-2.5 1.3-1.1 2-2 2.4-2.7s.6-1.4.6-2.1c0-1.4-.6-2.7-1.7-3.7-1.1-1.1-2.5-1.6-4.1-1.6s-2.9.5-3.9 1.5c-1 .9-1.6 2.1-1.9 4.2h-3.8c.4-2.8 1.3-4.9 3-6.3 1.7-1.5 3.9-2.2 6.6-2.2 2.9 0 5.2.8 6.9 2.3 1.8 1.6 2.6 3.5 2.6 5.7 0 1.3-.3 2.5-.9 3.6-.6 1.1-1.8 2.4-3.5 4-1.2 1-1.9 1.9-2.3 2.3-.4.5-.6 1.1-.8 1.8-.2.6-.3 1.7-.3 3.1h-3.4v-.3zM120.5 130.4h4.2v4.2h-4.2z"/></svg>