<svg id="Layer_1" xmlns="http://www.w3.org/2000/svg" viewBox="0 0 150 150"><style>.st0{fill:#703081}.st1{fill:#f2ba59}</style><path class="st0" d="M149 54.9c-3.2-10.5-13.3-17.2-25.3-17.2h-2.1c.3-8.7-1.6-16.2-6.4-22.3C109.6 7.8 101.6 3 91.8.8 89.3.3 87 0 84.3 0c-9.9 0-23.4 4.1-32 15.3-3.2-1.2-6.9-1.9-10.7-1.9-14.1 0-25.6 9.9-26.9 22.6-1.1.5-2.4 1.5-4 2.6C7 41.3 3.8 45.2 2 49.3c-3 7-2.7 14.8 1.3 21.3C8.4 79.4 16.1 84 27 84.8l17.3.2h11.2c4.3 0 8 3.2 8 7.3V103l-8-7.3c-1.3-1.2-3.5-1.2-4.5 0-1.3 1.2-1.3 3.2 0 4.1l11.7 10.7c1.1 1 2.7 1.5 4.3 1.5s2.9-.5 4.3-1.5L83 99.8c1.3-1.2 1.3-3.2 0-4.1-1.3-1.2-3.5-1.2-4.5 0l-8 7.3V92c0-7.3-6.4-13.1-14.4-13.1H27c-8.3-.4-14.4-4.1-18.1-10.9C6 62.9 5.7 57 7.8 51.7c1.6-3.4 3.7-6.3 6.7-8.3 1.6-1.2 3.2-1.9 4.8-2.6l2.1-1v-2.2c.3-9.9 9.3-18.2 20.2-18.2 3.5 0 6.7.7 9.6 2.2l3.2 1.7 2.1-3.2c.3-.5.5-.7.8-1.2C64.3 9.5 75.8 6.1 84 6.1c2.1 0 4.3.3 6.1.5 8.3 1.7 14.9 5.8 19.4 12.1 4.3 5.6 5.9 12.7 5.1 21.3v3.4h8.8c8.8 0 16.5 5.4 18.9 13.1 1.6 5.1.5 10.7-2.9 15-3.5 4.4-9.1 7-14.9 7.3-1.9 0-3.2 1.5-3.2 3.2 0 1.7 1.6 2.9 3.5 2.9 8-.3 15.2-3.6 20-9.8 5-6.1 6.4-13.4 4.2-20.2z"/><path class="st1" d="M105.6 78.9H92.3c-4.3 0-8-3.2-8-7.3v-20l8 7.3c.5.5 1.6 1 2.4 1 .8 0 1.6-.3 2.4-1 1.3-1.2 1.3-3.2 0-4.1L85.4 44.2c-2.1-1.9-6.1-1.9-8.3 0L65.4 54.9c-1.3 1.2-1.3 3.2 0 4.1 1.3 1.2 3.5 1.2 4.5 0l8-7.3v19.9c0 7.3 6.4 13.1 14.4 13.1h13.3c2.1 0 4 1.7 4 3.6v42.5c0 1.9-1.9 3.6-4 3.6H44.1c-2.1 0-4-1.7-4-3.6V95.3c0-1.7-1.3-2.9-3.2-2.9-1.9 0-3.2 1.2-3.2 2.9v35.4c0 5.4 4.8 9.8 10.7 9.8h61.8c5.9 0 10.4-4.4 10.4-9.8V88.6c-.3-5.3-4.9-9.7-11-9.7z"/><path class="st0" d="M88.5 144.2H60.8c-1.9 0-3.2 1.2-3.2 2.9s1.3 2.9 3.2 2.9h27.4c1.9 0 3.2-1.2 3.2-2.9s-1.3-2.9-2.9-2.9z"/></svg>