<svg id="Layer_1" xmlns="http://www.w3.org/2000/svg" viewBox="0 0 120 131.7"><style>.st0{fill:#703081}.st1{fill:#f2ba59}</style><path class="st0" d="M119.2 48.2C116.6 39 108.6 33 99 33h-1.7c.2-7.7-1.3-14.2-5.1-19.6C87.7 6.8 81.3 2.6 73.4.6c-2-.4-3.8-.6-6-.6-7.9 0-18.7 3.6-25.6 13.4-2.6-1-5.5-1.7-8.6-1.7-11.3 0-20.5 8.7-21.5 19.8-.9.4-1.9 1.3-3.2 2.3-3 2.3-5.5 5.8-7 9.4-2.4 6.2-2.2 13 1 18.7 4.1 7.7 10.2 11.8 19 12.4l13.8.2h9c3.4 0 6.4 2.8 6.4 6.4v9.4L44.4 84c-1-1-2.8-1-3.6 0-1 1-1 2.8 0 3.6l9.4 9.4c.9.9 2.2 1.3 3.4 1.3s2.3-.4 3.4-1.3l9.4-9.4c1-1 1-2.8 0-3.6-1-1-2.8-1-3.6 0l-6.4 6.4v-9.6c0-6.4-5.1-11.5-11.5-11.5H21.6c-6.6-.4-11.5-3.6-14.5-9.6-2.3-4.5-2.6-9.6-.9-14.3 1.3-3 3-5.5 5.4-7.3 1.3-1 2.6-1.7 3.8-2.3l1.7-.9V33c.2-8.7 7.4-16 16.2-16 2.8 0 5.4.6 7.7 1.9l2.6 1.5 1.7-2.8c.2-.4.4-.6.6-1C51.4 8.3 60.6 5.4 67.2 5.4c1.7 0 3.4.2 4.9.4 6.6 1.5 11.9 5.1 15.5 10.6 3.4 4.9 4.7 11.1 4.1 18.7v3h7c7 0 13.2 4.7 15.1 11.5 1.3 4.5.4 9.4-2.3 13.2-2.8 3.8-7.3 6.2-11.9 6.4-1.5 0-2.6 1.3-2.6 2.8s1.3 2.6 2.8 2.6c6.4-.2 12.2-3.2 16-8.6 4-5.4 5.2-11.8 3.4-17.8z"/><path class="st1" d="M84.5 69.3H73.8c-3.4 0-6.4-2.8-6.4-6.4V45.4l6.4 6.4c.4.4 1.3.9 1.9.9.6 0 1.3-.2 1.9-.9 1-1 1-2.8 0-3.6l-9.4-9.4c-1.7-1.7-4.9-1.7-6.6 0l-9.4 9.4c-1 1-1 2.8 0 3.6 1 1 2.8 1 3.6 0l6.4-6.4v17.4c0 6.4 5.1 11.5 11.5 11.5h10.6c1.7 0 3.2 1.5 3.2 3.2v37.3c0 1.7-1.5 3.2-3.2 3.2h-49c-1.7 0-3.2-1.5-3.2-3.2V83.7c0-1.5-1-2.6-2.6-2.6s-2.6 1-2.6 2.6v31.1c0 4.7 3.8 8.6 8.6 8.6H85c4.7 0 8.3-3.8 8.3-8.6v-37c-.3-4.7-3.9-8.5-8.8-8.5z"/><path class="st0" d="M70.8 126.5H48.6c-1.5 0-2.6 1-2.6 2.6 0 1.5 1 2.6 2.6 2.6h21.9c1.5 0 2.6-1 2.6-2.6 0-1.5-1-2.6-2.3-2.6z"/></svg>