<svg id="Layer_1" xmlns="http://www.w3.org/2000/svg" viewBox="0 0 150 150"><style>.st0{fill:#703081}.st1{fill:#f2ba59}</style><path class="st0" d="M149 54.9c-3.1-10.5-13.2-17.3-25.3-17.3h-2.2c.3-8.7-1.6-16.2-6.4-22.3C109.5 7.8 101.5 2.9 91.8.7 89.4.2 87.1 0 84.4 0c-9.9 0-23.3 4.1-32 15.3-3.1-1.2-6.8-2-10.8-2-14 0-25.5 10-26.8 22.7-1.2.5-2.3 1.5-4.1 2.6C7 41.2 3.9 45.2 2 49.3-1 56.4-.7 64 3.4 70.6c5 8.7 12.6 13.4 23.5 14l17.3.2h11.2c4.4 0 8 3.2 8 7.3v10.7l-8-7.3c-1.4-1.2-3.5-1.2-4.5 0-1.4 1.2-1.4 3.2 0 4.1l11.7 10.7c1.2 1.1 2.7 1.5 4.4 1.5 1.6 0 2.9-.5 4.4-1.5L83 99.7c1.4-1.2 1.4-3.2 0-4.1-1.4-1.2-3.5-1.2-4.5 0l-8 7.3V92.1c0-7.3-6.4-13.2-14.4-13.2H27.3c-8.2-.5-14.4-4.1-18.1-10.8C6.4 63 6.1 57.3 8.1 51.8c1.6-3.4 3.7-6.2 6.7-8.2 1.6-1.2 3.1-2 4.9-2.6l2.2-1.1v-2.1c.3-10 9.3-18.2 20.1-18.2 3.5 0 6.7.7 9.5 2.1l3.1 1.7 2.2-3.2c.3-.5.5-.7.8-1.2 7-9.5 18.5-12.9 26.6-12.9 2.2 0 4.4.2 6 .5 8.2 1.7 14.8 5.9 19.5 12.1 4.4 5.5 5.9 12.7 5 21.3v3.4h8.7c8.7 0 16.3 5.4 18.9 13.2 1.6 5.1.5 10.7-2.9 14.9-3.5 4.5-9 7.1-14.8 7.3-1.9 0-3.1 1.5-3.1 3.2 0 1.7 1.6 2.9 3.5 2.9 8-.2 15.1-3.7 19.9-9.8 4.8-5.9 6.3-13.2 4.1-20.2z"/><path class="st1" d="M105.6 79.2H92.4c-4.4 0-8-3.2-8-7.3v-20l8 7.3c.5.5 1.6 1.1 2.3 1.1.8 0 1.6-.2 2.3-1.1 1.4-1.2 1.4-3.2 0-4.1L85.3 44.4c-2.2-2-6-2-8.2 0L65.4 55.1c-1.4 1.2-1.4 3.2 0 4.1 1.4 1.2 3.5 1.2 4.5 0l8-7.3v19.9C78 79.2 84.4 85 92.4 85h13.2c2.2 0 4.1 1.7 4.1 3.7v42.4c0 2-1.9 3.7-4.1 3.7H44.3c-2.2 0-4.1-1.7-4.1-3.7V95.5c0-1.7-1.4-2.9-3.1-2.9-1.9 0-3.1 1.2-3.1 2.9V131c0 5.4 4.9 9.8 10.8 9.8h61.5c5.9 0 10.3-4.5 10.3-9.8V88.8c-.2-5.4-4.7-9.6-11-9.6z"/><path class="st0" d="M88.6 144.3H61c-1.9 0-3.1 1.2-3.1 2.9s1.4 2.9 3.1 2.9h27.2c1.9 0 3.1-1.2 3.1-2.9.3-1.7-1.1-2.9-2.7-2.9z"/></svg>