<svg id="Layer_1" xmlns="http://www.w3.org/2000/svg" viewBox="0 0 110 120.6"><style>.st0{fill:#703081}.st1{fill:#f2ba59}</style><path class="st0" d="M109.3 44.1c-2.3-8.4-9.7-13.9-18.6-13.9h-1.6c.2-7-1.2-13-4.7-17.9-4.1-6-10-10-17.1-11.7-1.8-.4-3.5-.6-5.5-.6-7.3 0-17.1 3.3-23.5 12.3-2.3-1-5-1.6-7.9-1.6-10.3 0-18.7 8-19.7 18.2-.9.4-1.7 1.2-3 2.1-2.7 2.1-5 5.3-6.4 8.6-2.2 5.7-2 11.8 1 17.1 3.7 7 9.3 10.8 17.3 11.3l12.7.2h8.2c3.2 0 5.9 2.6 5.9 5.9v8.6l-5.9-5.9c-1-1-2.6-1-3.3 0-1 1-1 2.6 0 3.3l8.6 8.6c.9.9 2 1.2 3.2 1.2 1.2 0 2.1-.4 3.2-1.2l8.6-8.6c1-1 1-2.6 0-3.3-1-1-2.6-1-3.3 0l-5.9 5.9V74c0-5.9-4.7-10.6-10.6-10.6H19.9c-6-.4-10.6-3.3-13.3-8.7-2.1-4.1-2.3-8.7-.8-13.1 1.2-2.7 2.7-5 4.9-6.6 1.2-1 2.3-1.6 3.6-2.1l1.6-.9v-1.7c.2-8 6.8-14.6 14.8-14.6 2.6 0 4.9.6 7 1.7l2.3 1.4 1.6-2.6c.2-.4.4-.6.6-1C47.3 7.6 55.7 4.9 61.7 4.9c1.6 0 3.2.2 4.4.4C72.1 6.7 77 10 80.4 15c3.2 4.4 4.3 10.2 3.7 17.1v2.7h6.4c6.4 0 12 4.3 13.9 10.6 1.2 4.1.4 8.6-2.1 12-2.6 3.6-6.6 5.7-10.9 5.9-1.4 0-2.3 1.2-2.3 2.6 0 1.4 1.2 2.3 2.6 2.3 5.9-.2 11.1-3 14.6-7.9 3.5-4.7 4.6-10.6 3-16.2z"/><path class="st1" d="M77.4 63.6h-9.7c-3.2 0-5.9-2.6-5.9-5.9v-16l5.9 5.9c.4.4 1.2.9 1.7.9.6 0 1.2-.2 1.7-.9 1-1 1-2.6 0-3.3l-8.6-8.6c-1.6-1.6-4.4-1.6-6 0l-8.6 8.6c-1 1-1 2.6 0 3.3 1 1 2.6 1 3.3 0l5.9-5.9v16c0 5.9 4.7 10.6 10.6 10.6h9.7c1.6 0 3 1.4 3 3v34.1c0 1.6-1.4 3-3 3h-45c-1.6 0-3-1.4-3-3V76.7c0-1.4-1-2.3-2.3-2.3-1.4 0-2.3 1-2.3 2.3v28.5c0 4.3 3.6 7.9 7.9 7.9h45.2c4.3 0 7.6-3.6 7.6-7.9V71.3c-.2-4.3-3.5-7.7-8.1-7.7z"/><path class="st0" d="M64.9 115.9H44.6c-1.4 0-2.3 1-2.3 2.3 0 1.4 1 2.3 2.3 2.3h20c1.4 0 2.3-1 2.3-2.3.2-1.3-.8-2.3-2-2.3z"/></svg>