<svg id="Layer_1" xmlns="http://www.w3.org/2000/svg" viewBox="0 0 150 164.6"><style>.st0{fill:#f2ba59}</style><path class="st0" d="M149 60.2c-3.2-11.5-13.3-18.9-25.3-18.9h-2.1c.3-9.6-1.6-17.8-6.4-24.5-5.6-8.3-13.6-13.6-23.4-16C89.3.3 87 0 84.3 0c-9.9 0-23.4 4.5-32 16.8-3.2-1.3-6.9-2.1-10.7-2.1-14.1 0-25.6 10.9-26.9 24.8-1.1.5-2.4 1.6-4 2.9C7 45.3 3.8 49.6 2 54.1c-3 7.7-2.7 16.2 1.3 23.4C8.4 87.1 16.1 92.2 27 93l17.3.3h11.2c4.3 0 8 3.5 8 8V113l-8-8c-1.3-1.3-3.5-1.3-4.5 0-1.3 1.3-1.3 3.5 0 4.5l11.7 11.7c1.1 1.1 2.7 1.6 4.3 1.6s2.9-.5 4.3-1.6L83 109.5c1.3-1.3 1.3-3.5 0-4.5-1.3-1.3-3.5-1.3-4.5 0l-8 8v-12c0-8-6.4-14.4-14.4-14.4H27c-8.3-.5-14.4-4.5-18.1-12C6 69 5.7 62.6 7.8 56.7c1.6-3.7 3.7-6.9 6.7-9.1 1.6-1.3 3.2-2.1 4.8-2.9l2.1-1.1v-2.4c.3-10.9 9.3-20 20.2-20 3.5 0 6.7.8 9.6 2.4l3.2 1.9 2.1-3.5c.3-.5.5-.8.8-1.3 7-10.3 18.5-14 26.7-14 2.1 0 4.3.3 6.1.5 8.3 1.9 14.9 6.4 19.4 13.3 4.3 6.1 5.9 13.9 5.1 23.4v3.7h8.8c8.8 0 16.5 5.9 18.9 14.4 1.6 5.6.5 11.7-2.9 16.5-3.5 4.8-9.1 7.7-14.9 8-1.9 0-3.2 1.6-3.2 3.5s1.6 3.2 3.5 3.2c8-.3 15.2-4 20-10.7 5-6.8 6.4-14.8 4.2-22.3z"/><path class="st0" d="M105.6 86.6H92.3c-4.3 0-8-3.5-8-8V56.7l8 8c.5.5 1.6 1.1 2.4 1.1s1.6-.3 2.4-1.1c1.3-1.3 1.3-3.5 0-4.5L85.4 48.5c-2.1-2.1-6.1-2.1-8.3 0L65.4 60.2c-1.3 1.3-1.3 3.5 0 4.5 1.3 1.3 3.5 1.3 4.5 0l8-8v21.8c0 8 6.4 14.4 14.4 14.4h13.3c2.1 0 4 1.9 4 4v46.6c0 2.1-1.9 4-4 4H44.1c-2.1 0-4-1.9-4-4v-38.9c0-1.9-1.3-3.2-3.2-3.2s-3.2 1.3-3.2 3.2v38.9c0 5.9 4.8 10.7 10.7 10.7h61.8c5.9 0 10.4-4.8 10.4-10.7V97.2c-.3-5.8-4.9-10.6-11-10.6zm-17.1 71.6H60.8c-1.9 0-3.2 1.3-3.2 3.2s1.3 3.2 3.2 3.2h27.4c1.9 0 3.2-1.3 3.2-3.2s-1.3-3.2-2.9-3.2z"/></svg>