<svg id="Layer_1" xmlns="http://www.w3.org/2000/svg" viewBox="0 0 150 150"><style>.st0{fill:#703081}.st1{fill:#df6b90}</style><path class="st0" d="M117.5 38.4H22.9c-4.4 0-7.9 3.5-7.9 7.9v55.2c0 4.4 3.5 7.9 7.9 7.9h57.2c1.1 0 2-.9 2-2s-.9-2-2-2H22.9c-2.2 0-3.9-1.8-3.9-3.9V46.3c0-2.2 1.8-3.9 3.9-3.9h94.6c2.2 0 3.9 1.8 3.9 3.9V68c0 1.1.9 2 2 2s2-.9 2-2V46.3c0-4.4-3.5-7.9-7.9-7.9z"/><path class="st1" d="M40.6 85.7H28.8c-1.1 0-2-.9-2-2s.9-2 2-2h11.8c1.1 0 2 .9 2 2s-.9 2-2 2z"/><path class="st0" d="M72.2 97.5H28.8c-1.1 0-2-.9-2-2s.9-2 2-2h43.4c1.1 0 2 .9 2 2-.1 1.1-.9 2-2 2z"/><path class="st1" d="M64.3 85.7H52.5c-1.1 0-2-.9-2-2s.9-2 2-2h11.8c1.1 0 2 .9 2 2s-.9 2-2 2zM87.9 85.7H76.1c-1.1 0-2-.9-2-2s.9-2 2-2h11.8c1.1 0 2 .9 2 2s-.9 2-2 2zM46.5 54.2V70H30.8V54.2h15.7m0-4H30.8c-2.2 0-3.9 1.8-3.9 3.9v15.8c0 2.2 1.8 3.9 3.9 3.9h15.8c2.2 0 3.9-1.8 3.9-3.9V54.2c0-2.2-1.8-4-4-4z"/><g><path class="st1" d="M134.9 96.1l-1.9-5.4c-.1-5.4-3.5-10-8.3-11.8 2.9 2.3 4.8 5.9 4.8 9.8l1.9 5.4c.3.8-.1 1.6-.9 1.9l-1.8.6v4.4c0 1.6-1.3 3-3 3H122v6l3.5 1.6V106h3.8c1.6 0 3-1.3 3-3v-4.4l1.7-.6c.8-.2 1.2-1.1.9-1.9z"/><path class="st0" d="M125.3 99.1v-4.4l1.8-.6c.8-.3 1.2-1.1.9-1.9l-1.9-5.4c-.1-4-2-7.5-4.9-9.8-2.2-1.7-4.9-2.8-7.8-2.9-.3-1.3-1.5-2.2-2.9-2.2-1.6 0-3 1.3-3 3v.5c-4.4 2.1-7.5 6.6-7.5 11.8 0 4.2 2 7.9 5 10.3v5l13.5 6.1V102h3.8c1.7 0 3-1.3 3-2.9zm-4.6-.7c-.2.2-.5.3-.8.3s-.6-.1-.8-.3l-5.4-5.4c-.8.8-1.9 1.2-3.1 1.2-2.5 0-4.5-2-4.5-4.5 0-2 1.3-3.6 3-4.3V74.7c0-.8.7-1.5 1.5-1.5s1.5.7 1.5 1.5v10.7c1.8.6 3 2.3 3 4.3 0 .4-.1.8-.2 1.1l5.8 5.8c.5.6.5 1.3 0 1.8z"/></g></svg>