<svg id="Layer_1" xmlns="http://www.w3.org/2000/svg" viewBox="0 0 150 150"><style>.st0{fill:#703081}.st1,.st2{fill:#df6b90}.st2{display:none}</style><path class="st0" d="M75 0C33.6 0 0 33.6 0 75s33.6 75 75 75 75-33.6 75-75S116.4 0 75 0zm0 3.1c39.7 0 71.9 32.2 71.9 71.9s-32.2 71.9-71.9 71.9S3.1 114.7 3.1 75 35.3 3.1 75 3.1z" id="Layer_2"/><path class="st1" d="M48.4 112.2H30.6c-1.7 0-3-1.3-3-3s1.3-3 3-3h17.8c1.7 0 3 1.3 3 3-.2 1.7-1.3 3-3 3z"/><path class="st0" d="M111 130H46c-1.7 0-3-1.3-3-3s1.3-3 3-3h65c1.7 0 3 1.3 3 3s-1.3 3-3 3z"/><path class="st1" d="M83.8 112.2H66.1c-1.7 0-3-1.3-3-3s1.3-3 3-3h17.8c1.7 0 3 1.3 3 3-.1 1.7-1.4 3-3.1 3zM119.4 112.2h-17.8c-1.7 0-3-1.3-3-3s1.3-3 3-3h17.8c1.7 0 3 1.3 3 3-.1 1.7-1.4 3-3 3z"/><path class="st2" d="M57.2 65v23.7H33.6V65h23.6m0-6H33.6c-3.3 0-5.9 2.7-5.9 5.9v23.7c0 3.2 2.7 5.9 5.9 5.9h23.7c3.3 0 5.9-2.7 5.9-5.9V65c-.1-3.2-2.8-6-6-6z"/><g><path class="st1" d="M109.9 67.1l-3.8-10.9c-.2-10.9-7.1-20-16.7-23.7 5.8 4.6 9.6 11.9 9.6 19.7l3.8 10.9c.6 1.6-.2 3.2-1.8 3.8l-3.7 1.3V77c0 3.2-2.6 6.1-6.1 6.1h-7.4v12l7.1 3.2V87.1h7.7c3.2 0 6.1-2.6 6.1-6.1v-8.8l3.4-1.3c1.7-.3 2.5-2.2 1.8-3.8z"/><path class="st0" d="M90.7 73.1v-8.8l3.7-1.3c1.6-.6 2.4-2.2 1.8-3.8l-3.8-10.9c-.2-8-4-15.1-9.8-19.7-4.5-3.4-9.8-5.6-15.7-5.8-.6-2.6-3-4.5-5.8-4.5-3.2 0-6.1 2.6-6.1 6.1v1c-8.8 4.2-15.1 13.3-15.1 23.7 0 8.5 4 15.9 10.1 20.7v10.1l27.1 12.2V78.8h7.7c3.3.1 5.9-2.4 5.9-5.7zm-9.3-1.4c-.5.3-1 .6-1.6.6s-1.3-.2-1.6-.6L67.3 60.8c-1.6 1.6-3.8 2.4-6.3 2.4-5 0-9-4-9-9 0-4 2.6-7.2 6.1-8.7V24.1c0-1.6 1.4-3 3-3s3 1.4 3 3v21.6c3.7 1.3 6.1 4.6 6.1 8.7 0 .8-.2 1.6-.5 2.2l11.7 11.7c1.1 1 1.1 2.4 0 3.4z"/></g></svg>