<svg id="Layer_1" xmlns="http://www.w3.org/2000/svg" viewBox="0 0 150 93.8"><style>.st0{fill:#703081}.st1{fill:#df6b90}</style><path class="st0" d="M128.4 0H9.9C4.4 0 0 4.4 0 9.9V79c0 5.5 4.4 9.9 9.9 9.9h71.6c1.4 0 2.5-1.1 2.5-2.5s-1.1-2.5-2.5-2.5H9.9C7.1 83.9 5 81.6 5 79V9.9C5 7.1 7.3 5 9.9 5h118.5c2.8 0 4.9 2.3 4.9 4.9V37c0 1.4 1.1 2.5 2.5 2.5s2.5-1.1 2.5-2.5V9.9c-.1-5.4-4.6-9.9-9.9-9.9z"/><path class="st1" d="M32 59.3H17.3c-1.4 0-2.5-1.1-2.5-2.5s1.1-2.5 2.5-2.5H32c1.4 0 2.5 1.1 2.5 2.5s-1.1 2.5-2.5 2.5z"/><path class="st0" d="M71.6 74.1H17.3c-1.4 0-2.5-1.1-2.5-2.5s1.1-2.5 2.5-2.5h54.3c1.4 0 2.5 1.1 2.5 2.5 0 1.3-1.2 2.5-2.5 2.5z"/><path class="st1" d="M61.7 59.3H46.9c-1.4 0-2.5-1.1-2.5-2.5s1.1-2.5 2.5-2.5h14.8c1.4 0 2.5 1.1 2.5 2.5s-1.1 2.5-2.5 2.5zM91.3 59.3H76.6c-1.4 0-2.5-1.1-2.5-2.5s1.1-2.5 2.5-2.5h14.8c1.4 0 2.5 1.1 2.5 2.5-.1 1.4-1.2 2.5-2.6 2.5zM39.5 19.8v19.8H19.8V19.8h19.7m0-4.9H19.8c-2.8 0-4.9 2.3-4.9 4.9v19.8c0 2.8 2.3 4.9 4.9 4.9h19.8c2.8 0 4.9-2.3 4.9-4.9V19.8c-.1-2.8-2.3-4.9-5-4.9zM148.1 63.8h-5.6v-5.5c0-1-.7-1.9-1.8-1.9H135v-5.5c0-1-.7-1.9-1.8-1.9H107c-1 0-1.9.9-1.9 1.9V77c0 1 .9 1.8 1.9 1.8h5.5v5.7c0 1 .9 1.8 1.9 1.8h5.5v5.6c0 1 .8 1.9 1.9 1.9H148c1 0 1.9-.8 1.9-1.9V65.7c.1-1-.8-1.9-1.8-1.9zm-39.4 11.3V52.6h22.5v22.5h-22.5zm7.5 7.5v-3.7h16.9c1 0 1.8-.7 1.8-1.8v-17h3.7v22.5h-22.4zm30 7.5h-22.5v-3.7h16.9c1 0 1.8-.7 1.8-1.8v-17h3.7v22.5z"/></svg>