<svg id="Layer_1" xmlns="http://www.w3.org/2000/svg" viewBox="0 0 150 150"><style>.st0{fill:#703081}.st1,.st2{fill:#df6b90}.st2{display:none}</style><path class="st0" d="M75 0C33.6 0 0 33.6 0 75s33.6 75 75 75 75-33.6 75-75S116.4 0 75 0zm0 3.1c39.7 0 71.9 32.2 71.9 71.9s-32.2 71.9-71.9 71.9S3.1 114.7 3.1 75 35.3 3.1 75 3.1z" id="Layer_2"/><path class="st1" d="M48.4 112.2H30.6c-1.7 0-3-1.3-3-3s1.3-3 3-3h17.8c1.7 0 3 1.3 3 3-.2 1.7-1.3 3-3 3z"/><path class="st0" d="M111 130H46c-1.7 0-3-1.3-3-3s1.3-3 3-3h65c1.7 0 3 1.3 3 3s-1.3 3-3 3z"/><path class="st1" d="M83.8 112.2H66.1c-1.7 0-3-1.3-3-3s1.3-3 3-3h17.8c1.7 0 3 1.3 3 3-.1 1.7-1.4 3-3.1 3zM119.4 112.2h-17.8c-1.7 0-3-1.3-3-3s1.3-3 3-3h17.8c1.7 0 3 1.3 3 3-.1 1.7-1.4 3-3 3z"/><path class="st2" d="M57.2 65v23.7H33.6V65h23.6m0-6H33.6c-3.3 0-5.9 2.7-5.9 5.9v23.7c0 3.2 2.7 5.9 5.9 5.9h23.7c3.3 0 5.9-2.7 5.9-5.9V65c-.1-3.2-2.8-6-6-6z"/><path class="st1" d="M107.2 44.5h-8.8v-8.6c0-1.6-1.1-3-2.8-3h-8.9v-8.6c0-1.6-1.1-3-2.8-3H43c-1.6 0-3 1.4-3 3v40.8c0 1.6 1.4 2.8 3 2.8h8.6v8.9c0 1.6 1.4 2.8 3 2.8h8.6v8.7c0 1.6 1.3 3 3 3H107c1.6 0 3-1.3 3-3V47.5c.2-1.6-1.3-3-2.8-3zM45.6 62.2V27h35.2v35.2H45.6zm11.7 11.7v-5.8h26.4c1.6 0 2.8-1.1 2.8-2.8V38.7h5.8v35.2h-35zm46.9 11.7H69.1v-5.8h26.4c1.6 0 2.8-1.1 2.8-2.8V50.5h5.8v35.2h.1z"/></svg>