<svg id="Layer_1" xmlns="http://www.w3.org/2000/svg" viewBox="0 0 150 150"><style>.st0{fill:#703081}.st1{fill:#f2ba59}</style><g id="Layer_1_1_"><path class="st0" d="M131.1 55.1c.1-.9.1-1.6.1-2.5 0-11.6-9.5-21.1-21.1-21.1-1.5 0-2.9.1-4.4.5-4.6-12.9-17-21.6-30.8-21.6s-26.1 8.8-30.8 21.5c-1.4-.3-2.9-.5-4.4-.5-11.6 0-21.1 9.5-21.1 21.1 0 .7 0 1.6.1 2.5C8.3 56.1 0 65.1 0 76c0 11.6 9.5 21.1 21.1 21.1h18.8v-4.8H21.1c-9 0-16.4-7.4-16.4-16.4s7.4-16.4 16.6-16.4h.4c.7 0 1.5-.3 1.9-.9.5-.6.6-1.4.5-2-.4-1.4-.5-2.8-.5-4.1 0-9 7.4-16.4 16.4-16.4 1.8 0 3.5.3 5.1.9.6.3 1.3.1 1.9-.1.6-.3 1-.8 1.1-1.4 3.3-12 14.4-20.4 26.9-20.4s23.6 8.4 27 20.4c.1.6.6 1.1 1.1 1.4.6.3 1.3.4 1.9.1 1.6-.5 3.4-.9 5.1-.9 9 0 16.4 7.4 16.4 16.4 0 1.4-.1 2.8-.5 4.1-.1.8 0 1.5.5 2 .5.6 1.1.9 1.9.9h.5c9 0 16.4 7.4 16.4 16.4s-7.4 16.4-16.4 16.4h-18.8V97h18.8c11.6 0 21.1-9.5 21.1-21.1 0-10.8-8.2-19.8-18.9-20.8z"/><path class="st1" d="M56.3 43.2h-4.8C51.5 30.4 62 19.7 75 19.7v4.8c-10.4 0-18.7 8.4-18.7 18.7z"/></g><path class="st0" d="M74.9 68.1c-3.5 0-6.4 2.9-6.4 6.4 0 3 2.2 5.7 5.1 6.2v9.2c-1.4.2-2.6.7-3.6 1.5l-6.2-6.2c.6-.9.9-1.9.9-3 0-3.1-2.6-5.7-5.7-5.7s-5.7 2.6-5.7 5.7 2.6 5.7 5.7 5.7c1.1 0 2.2-.3 3-.9l6.2 6.2c-.8 1-1.3 2.2-1.5 3.6h-9.1c-.6-2.9-3.2-5.1-6.2-5.1-3.5 0-6.4 2.9-6.4 6.4 0 3.5 2.9 6.4 6.4 6.4 3 0 5.7-2.2 6.2-5.1h9.2c.2 1.4.7 2.6 1.5 3.6l-6.2 6.2c-.9-.6-1.9-.9-3-.9-3.1 0-5.7 2.6-5.7 5.7s2.6 5.7 5.7 5.7 5.7-2.6 5.7-5.7c0-1.1-.3-2.2-.9-3l6.2-6.2c1 .8 2.2 1.3 3.6 1.5v9.2c-2.9.6-5.1 3.2-5.1 6.2 0 3.5 2.9 6.4 6.4 6.4 3.5 0 6.4-2.9 6.4-6.4 0-3-2.2-5.7-5.1-6.2v-9.2c1.4-.2 2.6-.7 3.6-1.5l6.2 6.2c-.6.9-.9 1.9-.9 3 0 3.1 2.6 5.7 5.7 5.7s5.7-2.6 5.7-5.7-2.6-5.7-5.7-5.7c-1.1 0-2.2.3-3 .9l-6.2-6.2c.8-1 1.3-2.2 1.5-3.6h9.2c.6 2.9 3.2 5.1 6.2 5.1 3.5 0 6.4-2.9 6.4-6.4 0-3.5-2.9-6.4-6.4-6.4-3 0-5.7 2.2-6.2 5.1h-9.3c-.2-1.4-.7-2.6-1.5-3.6l6.2-6.2c.9.6 1.9.9 3 .9 3.1 0 5.7-2.6 5.7-5.7s-2.6-5.7-5.7-5.7-5.7 2.6-5.7 5.7c0 1.1.3 2.2.9 3l-6.2 6.2c-1-.8-2.2-1.3-3.6-1.5v-9.2c2.9-.6 5.1-3.2 5.1-6.2 0-3.5-2.9-6.4-6.4-6.4z"/><path class="st1" d="M74.9 70.7c2.2 0 3.8 1.7 3.8 3.8 0 2.2-1.7 3.8-3.8 3.8-2.2 0-3.8-1.7-3.8-3.8s1.7-3.8 3.8-3.8zM59 79c1.8 0 3.2 1.4 3.2 3.2s-1.4 3.2-3.2 3.2c-1.8 0-3.2-1.4-3.2-3.2.1-1.9 1.4-3.2 3.2-3.2zm31.8 0c1.8 0 3.2 1.4 3.2 3.2s-1.4 3.2-3.2 3.2c-1.8 0-3.2-1.4-3.2-3.2.1-1.9 1.4-3.2 3.2-3.2zM74.9 92.3c3.2 0 5.7 2.6 5.7 5.7s-2.6 5.7-5.7 5.7-5.7-2.6-5.7-5.7 2.5-5.7 5.7-5.7zm-23.5 1.9c2.2 0 3.8 1.7 3.8 3.8 0 2.2-1.7 3.8-3.8 3.8-2.2 0-3.8-1.7-3.8-3.8s1.6-3.8 3.8-3.8zm47.1 0c2.2 0 3.8 1.7 3.8 3.8 0 2.2-1.7 3.8-3.8 3.8-2.2 0-3.8-1.7-3.8-3.8s1.7-3.8 3.8-3.8zM59 110.8c1.8 0 3.2 1.4 3.2 3.2s-1.4 3.2-3.2 3.2c-1.8 0-3.2-1.4-3.2-3.2.1-1.9 1.4-3.2 3.2-3.2zm31.8 0c1.8 0 3.2 1.4 3.2 3.2s-1.4 3.2-3.2 3.2c-1.8 0-3.2-1.4-3.2-3.2.1-1.9 1.4-3.2 3.2-3.2zm-15.9 6.9c2.2 0 3.8 1.7 3.8 3.8 0 2.2-1.7 3.8-3.8 3.8-2.2 0-3.8-1.7-3.8-3.8 0-2 1.7-3.8 3.8-3.8z"/></svg>