<svg id="Layer_1" xmlns="http://www.w3.org/2000/svg" viewBox="0 0 50 50"><g fill="#D81F2A"><path d="M39.8 8.4h-6V4.5c0-.8-.6-1.4-1.4-1.4-.1 0-.1 0-.2.1l-.1-.1H17.9c-.8 0-1.4.6-1.4 1.4v3.9h-6c-1.7 0-3.1 1.3-3.1 3.1v5H10v28.4c0 1.7 1.3 3 3 3h24c1.7 0 3.1-1.3 3.1-3V16.4h2.6v-5c.1-1.7-1.2-3-2.9-3zM19.3 5.9H31v2.5H19.3V5.9zm18.1 39c0 .2-.1.3-.3.3h-24c-.2 0-.3-.1-.3-.3V16.4h24.5v28.5zM40 13.7H10.2v-2.2c0-.2.1-.3.3-.3h29.3c.2 0 .3.1.3.3l-.1 2.2z"/><path d="M30.2 19.7H33v22.9h-2.8zM23.8 19.7h2.8v22.9h-2.8zM17.3 19.7h2.8v22.9h-2.8z"/></g></svg>