<svg id="Layer_1" xmlns="http://www.w3.org/2000/svg" viewBox="0 0 150 122.5"><style>.st0{fill:#df6b90}</style><path class="st0" d="M106.6 96.2V41.9c0-5.6-4.7-10.4-10.4-10.4H10.4C4.7 31.5 0 36.2 0 41.9v54.4c0 5.6 4.7 10.4 10.4 10.4h85.7c5.8-.1 10.5-4.8 10.5-10.5zm-101.4 0V41.9c0-2.9 2.2-5.2 5.2-5.2h85.7c2.9 0 5.2 2.2 5.2 5.2v54.4c0 2.9-2.2 5.2-5.2 5.2H10.4c-2.9 0-5.2-2.4-5.2-5.3zM33.7 116h39v5.2h-39z"/><path class="st0" d="M139.9 0H95.1c-5.6 0-10.4 4.7-10.4 10.4v12.1H90V10.2C90 7.4 92.2 5 95.2 5H140c2.9 0 5.2 2.2 5.2 5.2v101.9c0 2.9-2.2 5.2-5.2 5.2H95.1c-2.9 0-5.2-2.2-5.2-5.2v-.4h-5.2v.4c0 5.6 4.7 10.4 10.4 10.4h44.6c5.6 0 10.4-4.7 10.4-10.4V10.5c0-6-4.6-10.5-10.2-10.5z"/><path class="st0" d="M99.5 16.6h34.4v5.2H99.5zm13.4 80.6h7.5v5.2h-7.5z"/></svg>