<svg id="Layer_1" xmlns="http://www.w3.org/2000/svg" viewBox="0 0 150 150"><style>.st0{fill:#703081}.st1,.st2{fill:none;stroke:#703081;stroke-width:4;stroke-linecap:round;stroke-linejoin:round;stroke-miterlimit:10}.st2{stroke:#df6b90}</style><path class="st0" d="M75 0C33.6 0 0 33.6 0 75s33.6 75 75 75 75-33.6 75-75S116.4 0 75 0zm0 3.1c39.7 0 71.9 32.2 71.9 71.9s-32.2 71.9-71.9 71.9S3.1 114.7 3.1 75 35.3 3.1 75 3.1z" id="Layer_2"/><path class="st1" d="M43.3 110.9H58M67.7 110.9h14.6"/><path class="st2" d="M125 107.3c0 6.3-5.8 11.4-12.9 11.4H37.9c-7.1 0-12.9-5.1-12.9-11.4 0-6.3 5.8-11.4 12.9-11.4H112c7.2-.1 13 5.1 13 11.4zM33.2 31.3h83.5v64.5H33.2z"/><path class="st1" d="M71.7 84.5c-11.5-11.5-11.5-30.2 0-41.8M80.3 75.8c-6.7-6.8-6.7-17.7 0-24.4M87.6 68.5c-2.7-2.7-2.7-7.1 0-9.9"/></svg>