<svg id="Layer_1" xmlns="http://www.w3.org/2000/svg" viewBox="0 0 150 150"><style>.st0{fill:#df6b90}</style><path class="st0" d="M64 96V63.4c0-3.4-2.8-6.2-6.2-6.2H6.2C2.8 57.2 0 60 0 63.4V96c0 3.4 2.8 6.2 6.2 6.2h51.4c3.5 0 6.4-2.8 6.4-6.2zM3.1 96V63.4c0-1.7 1.3-3.1 3.1-3.1h51.4c1.7 0 3.1 1.3 3.1 3.1V96c0 1.7-1.3 3.1-3.1 3.1H6.2c-1.7 0-3.1-1.4-3.1-3.1zM20.2 107.8h23.4v3.1H20.2z"/><path class="st0" d="M83.9 38.3H57.1c-3.4 0-6.2 2.8-6.2 6.2v7.3H54v-7.3c0-1.7 1.3-3.1 3.1-3.1H84c1.7 0 3.1 1.3 3.1 3.1v61.1c0 1.7-1.3 3.1-3.1 3.1H57.1c-1.7 0-3.1-1.3-3.1-3.1v-.2h-3.1v.2c0 3.4 2.8 6.2 6.2 6.2h26.8c3.4 0 6.2-2.8 6.2-6.2v-61c0-3.6-2.8-6.3-6.2-6.3z"/><path class="st0" d="M59.7 48.2h20.6v3.1H59.7zM67.7 96.6h4.5v3.1h-4.5z"/><g><path class="st0" d="M122.5 137.1c-15.2 0-27.5-12.3-27.5-27.5s12.3-27.5 27.5-27.5S150 94.4 150 109.6s-12.3 27.5-27.5 27.5zm0-52.1C109 85 98 96 98 109.5s11 24.5 24.5 24.5 24.5-10.9 24.5-24.4S136 85 122.5 85z"/></g><path class="st0" d="M120.6 117.3v-1.1c0-1.4.2-2.7.6-3.7.3-.7.7-1.6 1.4-2.3.5-.6 1.4-1.4 2.6-2.5 1.3-1.1 2-2 2.4-2.7s.6-1.4.6-2.1c0-1.4-.6-2.7-1.7-3.7-1.1-1.1-2.5-1.6-4.1-1.6s-2.9.5-3.9 1.5c-1 .9-1.6 2.1-1.9 4.2h-3.8c.4-2.8 1.3-4.9 3-6.3 1.7-1.5 3.9-2.2 6.6-2.2 2.9 0 5.2.8 6.9 2.3 1.8 1.6 2.6 3.5 2.6 5.7 0 1.3-.3 2.5-.9 3.6-.6 1.1-1.8 2.4-3.5 4-1.2 1-1.9 1.9-2.3 2.3-.4.5-.6 1.1-.8 1.8-.2.6-.3 1.7-.3 3.1h-3.4v-.3zM120.5 120.4h4.2v4.2h-4.2z"/></svg>