<svg id="Layer_1" xmlns="http://www.w3.org/2000/svg" viewBox="0 0 150 150"><style>.st0{fill:#703081}.st1{fill:#f2ba59}</style><g id="Layer_1_1_"><path class="st0" d="M131.1 55.1c.1-.9.1-1.6.1-2.5 0-11.6-9.5-21.1-21.1-21.1-1.5 0-2.9.1-4.4.5-4.6-12.9-17-21.6-30.8-21.6s-26.1 8.8-30.8 21.5c-1.4-.3-2.9-.5-4.4-.5-11.6 0-21.1 9.5-21.1 21.1 0 .7 0 1.6.1 2.5C8.3 56.1 0 65.1 0 76c0 11.6 9.5 21.1 21.1 21.1h18.8v-4.8H21.1c-9 0-16.4-7.4-16.4-16.4s7.4-16.4 16.6-16.4h.4c.7 0 1.5-.3 1.9-.9.5-.6.6-1.4.5-2-.4-1.4-.5-2.8-.5-4.1 0-9 7.4-16.4 16.4-16.4 1.8 0 3.5.3 5.1.9.6.3 1.3.1 1.9-.1.6-.3 1-.8 1.1-1.4 3.3-12 14.4-20.4 26.9-20.4s23.6 8.4 27 20.4c.1.6.6 1.1 1.1 1.4.6.3 1.3.4 1.9.1 1.6-.5 3.4-.9 5.1-.9 9 0 16.4 7.4 16.4 16.4 0 1.4-.1 2.8-.5 4.1-.1.8 0 1.5.5 2 .5.6 1.1.9 1.9.9h.5c9 0 16.4 7.4 16.4 16.4s-7.4 16.4-16.4 16.4h-18.8V97h18.8c11.6 0 21.1-9.5 21.1-21.1 0-10.8-8.2-19.8-18.9-20.8z"/><path class="st1" d="M56.3 43.2h-4.8C51.5 30.4 62 19.7 75 19.7v4.8c-10.4 0-18.7 8.4-18.7 18.7z"/></g><path class="st0" d="M56.3 130.5c1.1 1.7 8.9 3 18.3 3s17.1-1.3 18.2-3h.1l5.7-40H50.2l6.1 40zm28.3-3.2l3-30.9c.1-.8.6-1.4 1.1-1.4l2.3.2c.6 0 1 .7.9 1.5l-3 30.9c-.1.8-.6 1.4-1.1 1.4l-2.3-.2c-.6 0-1-.7-.9-1.5zM72.5 95.9c0-.8.5-1.5 1.1-1.5h2.6c.6 0 1.1.7 1.1 1.5v32.7c0 .8-.5 1.5-1.1 1.5h-2.6c-.6 0-1.1-.7-1.1-1.5V95.9zM58 95.1l2.4-.2c.6 0 1.1.6 1.2 1.4l3.1 30.8c.1.8-.3 1.5-.9 1.5l-2.4.2c-.6 0-1.1-.6-1.2-1.4l-3.1-30.8c-.1-.8.3-1.5.9-1.5z"/><path class="st1" d="M100.6 80.3h-1.1l-3.3-4.7H84.9l-4.5-7.3-.3.2v-.2H69v.2l-4.4 7.1H52.5l-3 4.7h-.1c-1.9 0-3.5 1.6-3.5 3.5s1.6 3.5 3.5 3.5h51.2c1.9 0 3.5-1.6 3.5-3.5s-1.5-3.5-3.5-3.5zm-28.9-8.7h6.2l2.5 4.1H69.2l2.5-4.1z"/></svg>