<svg id="Layer_1" xmlns="http://www.w3.org/2000/svg" viewBox="0 0 150 150"><style>.st0{fill:#703081}.st1{fill:#df6b90}</style><path class="st0" d="M75 0C33.6 0 0 33.6 0 75s33.6 75 75 75 75-33.6 75-75S116.4 0 75 0zm0 3.1c39.7 0 71.9 32.2 71.9 71.9s-32.2 71.9-71.9 71.9S3.1 114.7 3.1 75 35.3 3.1 75 3.1z" id="Layer_2"/><path class="st1" d="M115.7 56.7v6c.2-1.9.1-3.9 0-6zM119.7 78.4H86.3c-2.8 0-5.3 2.3-5.3 5.3v24c0 2.8 2.3 5.3 5.3 5.3h14.9v5.1h-5c-1 0-1.8.8-1.8 1.8s.8 1.8 1.8 1.8h13.5c1 0 1.8-.8 1.8-1.8s-.8-1.8-1.8-1.8h-5V113h15v-.1c2.8 0 5.3-2.3 5.3-5.3V83.7c0-2.9-2.3-5.3-5.3-5.3zm1.8 29.2c0 .9-.7 1.7-1.7 1.7H86.3c-.9-.1-1.6-.8-1.6-1.7v-24c0-.9.7-1.7 1.7-1.7h33.3c.9 0 1.7.7 1.7 1.7v24zM58.3 62.9h14.9V68h-4.9v-.1c-1 0-1.8.8-1.8 1.8s.8 1.8 1.8 1.8h13.5c1 0 1.8-.8 1.8-1.8s-.9-1.8-1.9-1.8h-5v-5.1h14.9c2.8 0 5.3-2.3 5.3-5.3V33.7c0-2.8-2.3-5.3-5.3-5.3H58.3c-2.8 0-5.3 2.3-5.3 5.3v24c0 2.8 2.4 5.2 5.3 5.2zm-1.6-29.2c0-.9.7-1.7 1.7-1.7h33.3c.9 0 1.7.7 1.7 1.7v24c0 .9-.7 1.7-1.7 1.7H58.3c-.9-.1-1.6-.8-1.6-1.8V33.7zM63.6 78.4H30.3c-2.8 0-5.3 2.3-5.3 5.3v24c0 2.8 2.3 5.3 5.3 5.3h14.9v5.1h-5c-1 0-1.8.8-1.8 1.8s.8 1.8 1.8 1.8h13.5c1-.1 1.8-.9 1.8-1.9s-.8-1.8-1.8-1.8h-5v-5.1h14.9c2.8 0 5.3-2.3 5.3-5.3V83.7c-.1-2.9-2.4-5.3-5.3-5.3zm1.8 29.2c0 .9-.7 1.7-1.7 1.7H30.3c-.9-.1-1.6-.8-1.6-1.7v-24c0-.9.7-1.7 1.7-1.7h33.3c.9 0 1.7.7 1.7 1.7v24z"/><path class="st0" d="M32.5 71.6c1 0 1.8-.8 1.8-1.8V44.3h11.1c1 0 1.8-.8 1.8-1.8s-.8-1.8-1.8-1.8v-.1h-13c-1 0-1.8.8-1.8 1.8v27.4c.1 1 .9 1.8 1.9 1.8zM104.6 44.2h11.1v25.5c0 1 .8 1.8 1.8 1.8s1.8-.8 1.8-1.8V42.5c0-1-.8-1.8-1.8-1.8h-13c-1 0-1.8.7-1.8 1.7s.8 1.8 1.9 1.8z"/></svg>