<svg id="Layer_1" xmlns="http://www.w3.org/2000/svg" viewBox="0 0 150 126.1"><style>.st0{fill:#703081}.st1{fill:#df6b90}</style><path class="st0" d="M141.7 0H63.3C58.8 0 55 3.8 55 8.3v48.3H8.3c-4.5 0-8.3 3.8-8.3 8.3v53c0 4.5 3.8 8.3 8.3 8.3h78.4c4.5 0 8.3-3.8 8.3-8.3V69.5h46.8c4.5 0 8.3-3.8 8.3-8.3v-53c-.1-4.4-3.9-8.2-8.4-8.2zm0 4.9c.4 0 .8 0 1.1.2l-40.2 29.7-41-29.3c.6-.4 1.1-.6 1.7-.6h78.4zm-55 56.6c.4 0 .8 0 1.1.2L47.4 91.4 6.6 62c.6-.4 1.1-.6 1.7-.6h78.4zm0 59.6H8.3c-1.9 0-3.4-1.5-3.4-3.4V66.9l42.5 30.5L89.8 66v51.7c.2 1.8-1.5 3.4-3.1 3.4zm55-56.4H94.9c-.2-4.5-3.8-8.1-8.3-8.1H60V10.3l42.5 30.5L145 9.4v51.7c.1 2.1-1.4 3.6-3.3 3.6z"/><path class="st1" d="M39.7 26.1h.8v-4.9h-.8c-10.5 0-19 8.5-19 19h4.9c0-7.7 6.4-14.1 14.1-14.1zM110.7 98.5h-.7v4.9h.8c10.5 0 19-8.6 19-19h-4.9c-.1 7.7-6.5 14.1-14.2 14.1z"/></svg>