<svg id="Layer_1" xmlns="http://www.w3.org/2000/svg" viewBox="0 0 150 121.6"><style>.st0{fill:#703081}.st1{fill:#df6b90}</style><g id="Layer_1_1_"><path class="st0" d="M82.5 60.2H8.1c-4.5 0-8.1 3.4-8.1 7.5v46.4c0 4.1 3.6 7.5 8.1 7.5h74.4c4.5 0 8.1-3.4 8.1-7.5V67.7c0-4.2-3.6-7.5-8.1-7.5zm0 4.8c.2 0 .4 0 .6.2L45.3 93.8 6.8 65.4c.3-.2.9-.4 1.3-.4h74.4zm0 51.7H8.1c-1.7 0-3-1.1-3-2.6V70.3L45.3 100l40.2-30.5V114c0 1.6-1.3 2.7-3 2.7zM141.5 0H66c-4.5 0-8.1 3.4-8.1 7.7V13H63V7.7c0-1.5 1.5-2.6 3.2-2.6H142c1.7 0 3.2 1.3 3.2 2.6v47.2c0 1.5-1.5 2.6-3.2 2.6h-6v5.1h6c4.5 0 8.1-3.4 8.1-7.7V7.7c-.5-4.1-4-7.7-8.6-7.7z"/><path transform="rotate(-45.001 34.669 36.508)" class="st1" d="M18.1 34h33.1v5.1H18.1z"/><path transform="rotate(-45.001 112.672 36.311)" class="st1" d="M96.1 33.8h33.1v5.1H96.1z"/><path transform="rotate(-45.001 72.751 36.311)" class="st0" d="M56.2 33.8h33.1v5.1H56.2z"/><path transform="rotate(-45.001 112.545 98.461)" class="st1" d="M96 95.9h33.1v5.1H96z"/><path transform="rotate(-45.001 112.64 68.424)" class="st0" d="M96.1 65.9h33.1V71H96.1z"/></g></svg>