<svg xmlns="http://www.w3.org/2000/svg" viewBox="0 0 150 165"><style>.st0{fill:#df6b90}.st1{fill:#703081}</style><g id="Layer_1"><path class="st0" d="M116.3 976.8c0-2.1-1.6-3.8-3.7-3.8H52.1c-2.1.1-3.7 1.9-3.6 3.9.1 2.1 1.9 3.7 3.9 3.6h60c2.2 0 3.9-1.6 3.9-3.7zM106.9 1018H57.8c-2.1.1-3.7 1.9-3.6 3.9.1 2.1 1.9 3.7 3.9 3.6h48.7c2.1 0 3.8-1.6 3.8-3.7s-1.6-3.8-3.7-3.8c.1 0 0 0 0 0zM107 995.5H57.8c-2.1.1-3.7 1.9-3.6 3.9s1.9 3.7 3.9 3.6h48.7c2.1 0 3.8-1.6 3.8-3.7.1-2.1-1.5-3.8-3.6-3.8zM18.7 1068l15.8 9.4c1.8 1 4.1.4 5.1-1.4.3-.6.5-1.2.5-1.8h14.1v-.1c2.4 0 4-1 5.2-2.2 1.3-1.3 2.5-2.7 2.5-5.2v-3.7c0-2.5-1.2-4-2.5-5.2-1.3-1.2-2.8-2.3-5.2-2.3h-14c0-2.1-1.6-3.8-3.7-3.8H36c-.5.1-1 .3-1.4.5l-15.8 9.4c-1.8 1.1-2.4 3.4-1.3 5.1.3.6.7 1 1.2 1.3zm14.9-6.5c.7.9 1.8 1.4 2.9 1.4H54s.2.1.3.2c.1.1.2.3.2.4v3.2H36.4c-1.1 0-2.2.5-2.9 1.4l-5.5-3.3 5.6-3.3zM61.4 1089.1c-.3-.5-.8-1-1.3-1.3l-15.8-9.4c-.8-.5-1.6-.7-2.5-.5-1.8.3-3.1 1.9-3.1 3.7H24.6v.1c-2.4 0-4 1-5.2 2.2-1.3 1.3-2.5 2.7-2.5 5.2v3.7c0 2.5 1.2 3.9 2.5 5.2 1.3 1.2 2.8 2.3 5.2 2.3h14.1c0 2.1 1.7 3.7 3.8 3.7.6 0 1.3-.2 1.8-.5l15.8-9.4c1.8-.9 2.4-3.2 1.3-5zm-16.1 5.2c-.7-.9-1.8-1.4-2.9-1.4H24.9s-.2-.1-.3-.2l-.2-.2v-3.3s.1-.1 0-.1c.1 0 .1 0 .2.1h17.8c1.1 0 2.2-.5 2.9-1.4l5.6 3.3-5.6 3.2z" transform="translate(0 -952.362)"/></g><g id="Layer_1_copy"><path class="st1" d="M135 974.9h-3.7v-7.5c0-8.2-6.8-15-15-15H48.8c-8.2 0-15 6.8-15 15v71.6c-19 2.7-33.8 19.2-33.8 39 0 21.7 17.7 39.4 39.4 39.4 18.5 0 34-12.8 38.2-30H135c8.2 0 15-6.8 15-15v-82.5c0-8.3-6.8-15-15-15zm-95.6 134.8c-17.6 0-31.8-14.2-31.8-31.8s14.2-31.8 31.8-31.8 31.8 14.2 31.8 31.8c0 17.7-14.1 31.8-31.8 31.8zm35.6-48.6c-2.4-5-5.9-9.5-10.1-13.1h47.6c2.1 0 3.8-1.6 3.8-3.7s-1.6-3.8-3.7-3.8H52.1c-.2 0-.3 0-.5.1-3.3-1.1-6.8-1.8-10.4-1.9v-71.2c0-4.2 3.3-7.5 7.5-7.5h67.5c4.2 0 7.5 3.3 7.5 7.5v86.2c0 4.2-3.3 7.5-7.5 7.5H75zm67.5 11.2c0 4.2-3.3 7.5-7.5 7.5H78.8c0-.6.1-1.3.1-1.9 0-3.2-.4-6.4-1.2-9.4h38.6c8.2 0 15-6.8 15-15v-71.2h3.7c4.2 0 7.5 3.3 7.5 7.5v82.5zM71.5 1018H68h3.5z" transform="translate(0 -952.362)"/></g></svg>