<svg id="Layer_1" xmlns="http://www.w3.org/2000/svg" viewBox="0 0 150 126.6"><style>.st0{fill:#703081}.st1{fill:#9b75a6}.st2{fill:#865294}</style><path class="st0" d="M138 0H11.8C5.4 0 0 5.2 0 11.8v103.1c0 6.4 5.2 11.8 11.8 11.8h126.4c6.4 0 11.8-5.2 11.8-11.8V11.6C149.8 5.2 144.6 0 138 0zm7.2 114.6c0 3.8-3.2 7-7 7H11.8c-3.8 0-7-3.2-7-7v-103c0-3.8 3.2-7 7-7h126.4c3.8 0 7 3.2 7 7v103z"/><path class="st0" d="M30.4 46.7h-4.6c-3.8 0-7 3.2-7 7v4.6c0 3.8 3.2 7 7 7h4.6c3.8 0 7-3.2 7-7v-4.6c.1-3.8-3-7-7-7zm2.4 11.8c0 1.2-1 2.4-2.4 2.4h-4.6c-1.2 0-2.4-1-2.4-2.4v-4.6c0-1.2 1-2.4 2.4-2.4h4.6c1.2 0 2.4 1 2.4 2.4v4.6z"/><path class="st1" d="M53.9 46.7h-4.6c-3.8 0-7 3.2-7 7v4.6c0 3.8 3.2 7 7 7h4.6c3.8 0 7-3.2 7-7v-4.6c0-3.8-3.2-7-7-7zm2.2 11.8c0 1.2-1 2.4-2.4 2.4h-4.6c-1.2 0-2.4-1-2.4-2.4v-4.6c0-1.2 1-2.4 2.4-2.4h4.6c1.2 0 2.4 1 2.4 2.4v4.6z"/><path class="st0" d="M77.3 46.7h-4.6c-3.8 0-7 3.2-7 7v4.6c0 3.8 3.2 7 7 7h4.6c3.8 0 7-3.2 7-7v-4.6c0-3.8-3.2-7-7-7zm2.2 11.8c0 1.2-1 2.4-2.4 2.4h-4.6c-1.2 0-2.4-1-2.4-2.4v-4.6c0-1.2 1-2.4 2.4-2.4h4.6c1.2 0 2.4 1 2.4 2.4v4.6z"/><path class="st1" d="M100.7 46.7h-4.6c-3.8 0-7 3.2-7 7v4.6c0 3.8 3.2 7 7 7h4.6c3.8 0 7-3.2 7-7v-4.6c0-3.8-3.2-7-7-7zm-4.8 4.6h3.8l-6 6v-3.8c0-1 1-2.2 2.2-2.2zm4.8 9.4h-3.8l6-6v3.8c.2 1.2-1 2.2-2.2 2.2z"/><path class="st0" d="M124 46.7h-4.6c-3.8 0-7 3.2-7 7v4.6c0 3.8 3.2 7 7 7h4.6c3.8 0 7-3.2 7-7v-4.6c0-3.8-3.2-7-7-7zm-4.6 4.6h3.8l-6 6v-3.8c-.2-1 .8-2.2 2.2-2.2zm4.6 9.4h-3.8l6-6v3.8c.2 1.2-.8 2.2-2.2 2.2z"/><path class="st1" d="M30.4 70.1h-4.6c-3.8 0-7 3.2-7 7v4.6c0 3.8 3.2 7 7 7h4.6c3.8 0 7-3.2 7-7v-4.6c.1-3.8-3-7-7-7zm2.4 11.8c0 1.2-1 2.4-2.4 2.4h-4.6c-1.2 0-2.4-1-2.4-2.4v-4.8c0-1.2 1-2.4 2.4-2.4h4.6c1.2 0 2.4 1 2.4 2.4v4.8z"/><path class="st0" d="M53.9 70.1h-4.6c-3.8 0-7 3.2-7 7v4.6c0 3.8 3.2 7 7 7h4.6c3.8 0 7-3.2 7-7v-4.6c0-3.8-3.2-7-7-7zm2.2 11.8c0 1.2-1 2.4-2.4 2.4h-4.6c-1.2 0-2.4-1-2.4-2.4v-4.8c0-1.2 1-2.4 2.4-2.4h4.6c1.2 0 2.4 1 2.4 2.4v4.8z"/><path class="st1" d="M77.3 70.1h-4.6c-3.8 0-7 3.2-7 7v4.6c0 3.8 3.2 7 7 7h4.6c3.8 0 7-3.2 7-7v-4.6c0-3.8-3.2-7-7-7zm2.2 11.8c0 1.2-1 2.4-2.4 2.4h-4.6c-1.2 0-2.4-1-2.4-2.4v-4.8c0-1.2 1-2.4 2.4-2.4h4.6c1.2 0 2.4 1 2.4 2.4v4.8z"/><path class="st0" d="M100.7 70.1h-4.6c-3.8 0-7 3.2-7 7v4.6c0 3.8 3.2 7 7 7h4.6c3.8 0 7-3.2 7-7v-4.6c0-3.8-3.2-7-7-7zm-4.8 4.8h3.8l-6 6v-3.8c0-1.2 1-2.2 2.2-2.2zm4.8 9.2h-3.8l6-6v3.8c.2 1.2-1 2.2-2.2 2.2z"/><path class="st1" d="M124 70.1h-4.6c-3.8 0-7 3.2-7 7v4.6c0 3.8 3.2 7 7 7h4.6c3.8 0 7-3.2 7-7v-4.6c0-3.8-3.2-7-7-7zm-4.6 4.8h3.8l-6 6v-3.8c-.2-1.2.8-2.2 2.2-2.2zm4.6 9.2h-3.8l6-6v3.8c.2 1.2-.8 2.2-2.2 2.2z"/><path class="st0" d="M30.4 93.5h-4.6c-3.8 0-7 3.2-7 7v4.6c0 3.8 3.2 7 7 7h4.6c3.8 0 7-3.2 7-7v-4.6c.1-3.8-3-7-7-7zm2.4 11.8c0 1.2-1 2.4-2.4 2.4h-4.6c-1.2 0-2.4-1-2.4-2.4v-4.6c0-1.2 1-2.4 2.4-2.4h4.6c1.2 0 2.4 1 2.4 2.4v4.6z"/><path class="st1" d="M53.9 93.5h-4.6c-3.8 0-7 3.2-7 7v4.6c0 3.8 3.2 7 7 7h4.6c3.8 0 7-3.2 7-7v-4.6c0-3.8-3.2-7-7-7zm2.2 11.8c0 1.2-1 2.4-2.4 2.4h-4.6c-1.2 0-2.4-1-2.4-2.4v-4.6c0-1.2 1-2.4 2.4-2.4h4.6c1.2 0 2.4 1 2.4 2.4v4.6z"/><path class="st0" d="M77.3 93.5h-4.6c-3.8 0-7 3.2-7 7v4.6c0 3.8 3.2 7 7 7h4.6c3.8 0 7-3.2 7-7v-4.6c0-3.8-3.2-7-7-7zm2.2 11.8c0 1.2-1 2.4-2.4 2.4h-4.6c-1.2 0-2.4-1-2.4-2.4v-4.6c0-1.2 1-2.4 2.4-2.4h4.6c1.2 0 2.4 1 2.4 2.4v4.6z"/><path class="st1" d="M100.7 93.5h-4.6c-3.8 0-7 3.2-7 7v4.6c0 3.8 3.2 7 7 7h4.6c3.8 0 7-3.2 7-7v-4.6c0-3.8-3.2-7-7-7zm-4.8 4.8h3.8l-6 6v-3.8c0-1.2 1-2.2 2.2-2.2zm4.8 9.4h-3.8l6-6v3.8c.2 1-1 2.2-2.2 2.2z"/><path class="st0" d="M124 93.5h-4.6c-3.8 0-7 3.2-7 7v4.6c0 3.8 3.2 7 7 7h4.6c3.8 0 7-3.2 7-7v-4.6c0-3.8-3.2-7-7-7zm-4.6 4.8h3.8l-6 6v-3.8c-.2-1.2.8-2.2 2.2-2.2zm4.6 9.4h-3.8l6-6v3.8c.2 1-.8 2.2-2.2 2.2z"/><path class="st1" d="M124 14H25.8c-3.8 0-7 3.2-7 7v9.4c0 3.8 3.2 7 7 7H124c3.8 0 7-3.2 7-7V21c0-3.8-3.2-7-7-7zm2.4 16.4c0 1.2-1 2.4-2.4 2.4H25.8c-1.2 0-2.4-1-2.4-2.4V21c0-1.2 1-2.4 2.4-2.4H124c1.2 0 2.4 1 2.4 2.4v9.4z"/><path class="st2" d="M30.4 21c-1.2 0-2.4 1-2.4 2.4V28c0 1.2 1 2.4 2.4 2.4s2.4-1 2.4-2.4v-4.6c0-1.4-1-2.4-2.4-2.4z"/><path class="st0" d="M39.7 21c-1.2 0-2.4 1-2.4 2.4V28c0 1.2 1 2.4 2.4 2.4s2.4-1 2.4-2.4v-4.6c0-1.4-1-2.4-2.4-2.4z"/><path class="st2" d="M49.1 21c-1.2 0-2.4 1-2.4 2.4V28c0 1.2 1 2.4 2.4 2.4s2.4-1 2.4-2.4v-4.6c0-1.4-1-2.4-2.4-2.4z"/><path class="st0" d="M58.5 21c-1.2 0-2.4 1-2.4 2.4V28c0 1.2 1 2.4 2.4 2.4s2.4-1 2.4-2.4v-4.6c0-1.4-1.2-2.4-2.4-2.4z"/><path class="st2" d="M67.9 21c-1.2 0-2.4 1-2.4 2.4V28c0 1.2 1 2.4 2.4 2.4s2.4-1 2.4-2.4v-4.6c0-1.4-1.2-2.4-2.4-2.4z"/></svg>