<svg id="Layer_1" xmlns="http://www.w3.org/2000/svg" viewBox="0 0 150 166.8"><style>.st0{fill:#703081}.st1{fill:#9b75a6}</style><path class="st0" d="M75 0C33.6 0 0 33.6 0 75c0 39.2 30.2 71.4 68.6 74.8L56.4 162c-1 1-1 2.8 0 4 .6.6 1.2.8 2 .8s1.4-.2 2-.8L77 149.4c.2-.2.4-.6.6-1 .2-.6.2-1.4 0-2.2-.2-.4-.4-.6-.6-1l-16.6-16.6c-1-1-2.8-1-4 0s-1 2.8 0 4L68 144.2C33 140.6 5.6 111 5.6 75 5.6 36.8 36.8 5.6 75 5.6s69.4 31.2 69.4 69.4c0 18.4-7.2 35.8-20.2 48.8-1 1-1 2.8 0 4 1 1 2.8 1 4 0C142.2 113.6 150 95 150 75c0-41.2-33.6-75-75-75z" id="Layer_2"/><path class="st1" d="M113.3 99.3l-6.9-62.4c-.2-1.9-2.1-3.5-4.3-3.5H48c-2.1 0-4.1 1.5-4.3 3.5l-6.9 62.4V106.4c0 3.9 3.2 6.9 6.9 6.9h62.7c3.9 0 6.9-3.2 6.9-6.9v-6.9-.2zM68.2 57.7c0-3.8 3.1-6.8 6.8-6.8 3.8 0 6.8 3.1 6.8 6.8V60h-2.6v-2.3c0-2.3-1.9-4.3-4.3-4.3-2.3 0-4.3 1.9-4.3 4.3V60H68v-2.3h.2zM65.4 62c0-.7.6-1.2 1.3-1.2h16.5c.7 0 1.2.6 1.2 1.2v12.8c0 .7-.6 1.3-1.2 1.3H66.7c-.7 0-1.3-.6-1.3-1.3V62zm44.4 44.5c0 1.9-1.5 3.5-3.5 3.5H43.7c-1.9 0-3.5-1.5-3.5-3.5v-6.9c0-1.9 1.5-3.5 3.5-3.5h62.7c1.9 0 3.5 1.5 3.5 3.5l-.1 6.9z"/><path class="st0" d="M47.8 100.4c1.4 0 2.6 1.1 2.6 2.4 0 1.4-1.1 2.6-2.6 2.6-1.4 0-2.6-1.1-2.6-2.6 0-1.2 1.1-2.4 2.6-2.4z"/></svg>