<svg id="Layer_1" xmlns="http://www.w3.org/2000/svg" viewBox="0 0 150 150"><style>.st0{fill:#703081}.st1{fill:#df6b90}</style><path class="st0" d="M75 0C33.6 0 0 33.6 0 75s33.6 75 75 75 75-33.6 75-75S116.4 0 75 0zm0 3.1c39.7 0 71.9 32.2 71.9 71.9s-32.2 71.9-71.9 71.9S3.1 114.7 3.1 75 35.3 3.1 75 3.1z" id="Layer_2"/><path class="st0" d="M58.3 60H68l4.5 10.4c.4.9 1.3 1.5 2.2 1.5h.1c1 0 1.9-.6 2.2-1.6L80.9 60h8.8c5.7 0 10.3-4.6 10.3-10.3V28.2c0-5.7-4.6-10.3-10.3-10.3H58.3c-5.7 0-10.3 4.6-10.3 10.3v21.5C48 55.4 52.6 60 58.3 60zm-5.5-31.8c0-3 2.4-5.5 5.5-5.5h31.4c3 0 5.5 2.4 5.5 5.5v21.5c0 3-2.4 5.5-5.5 5.5H79.2c-1 0-1.9.6-2.3 1.6L74.6 63l-2.8-6.4c-.4-.9-1.3-1.5-2.2-1.5H58.3c-3 0-5.5-2.4-5.5-5.5V28.2z"/><path class="st1" d="M115.9 94.7c.7-1.7 1-3.4 1-4.8 0-5.3-4.3-9.5-9.5-9.5-5.3 0-9.5 4.3-9.5 9.5 0 1.5.4 3.1 1 4.8-4.2 1.2-7.5 4.4-8.8 8.6-.8-.4-1.7-.8-2.5-1.2 2.1-3.6 3.3-7.7 3.3-11.3 0-8.8-7.1-15.9-15.9-15.9s-16 7-16 15.8c0 3.9 1.4 8.4 3.7 12.1-.9.4-1.7.9-2.5 1.4-1-4.6-4.5-8.3-9.1-9.6.7-1.6 1-3.3 1-4.8 0-5.3-4.3-9.5-9.5-9.5s-9.5 4.3-9.5 9.5c0 1.5.4 3.2 1 4.8-5.3 1.6-9.1 6.5-9.1 12.3v1.8c0 1.3 1.1 2.4 2.4 2.4s2.4-1.1 2.4-2.4v-1.8c0-4.1 3.1-7.4 7.1-7.9 1.5 1.6 3.5 2.7 5.7 2.7s4.2-1.1 5.7-2.7c4.1.3 7.3 3.7 7.3 7.9 0 .4.1.8.3 1.2-3 3.6-4.9 8.3-4.9 13.4v8.2c0 1.3 1.1 2.4 2.4 2.4s2.4-1.1 2.4-2.4v-8.2c0-8.9 7.2-16.1 16.1-16.1h7.9c8.9 0 16.1 7.2 16.1 16.1v8.2c0 1.3 1.1 2.4 2.4 2.4 1.3 0 2.4-1.1 2.4-2.4v-8.2c0-5.9-2.5-11.3-6.4-15.1.3-3.9 3.3-7.1 7.3-7.4 1.5 1.6 3.5 2.7 5.7 2.7s4.2-1.1 5.7-2.7c4 .4 7.1 3.8 7.1 7.9v1.8c0 1.3 1.1 2.4 2.4 2.4 1.3 0 2.4-1.1 2.4-2.4v-1.8c.1-5.8-3.8-10.7-9-12.2zm-73.3 2.2c-2.2 0-4.7-4.2-4.7-7.1 0-2.6 2.1-4.7 4.7-4.7s4.7 2.1 4.7 4.7c0 2.9-2.4 7.1-4.7 7.1zm29.4 3.7c-1.6 0-3.1.2-4.6.5-2.2-3.1-3.6-7.2-3.6-10.4 0-6.1 5-11.1 11.1-11.1S86 84.6 86 90.7c0 3.2-1.3 7-3.4 10.1-.9-.1-1.8-.2-2.7-.2H72zm35.4-3.7c-2.2 0-4.7-4.2-4.7-7.1 0-2.6 2.1-4.7 4.7-4.7s4.7 2.1 4.7 4.7c-.1 2.9-2.5 7.1-4.7 7.1z"/></svg>