<svg id="Layer_1" xmlns="http://www.w3.org/2000/svg" viewBox="0 0 50 50"><path fill="#868686" d="M42 21.9c-.4-7.3-6.5-13.1-13.7-13.1-4.4 0-8.7 2.2-11.3 5.7-.1 0-.1-.1-.2-.1-.2-.1-.3-.2-.5-.2-.1 0-.2-.1-.3-.1-.2-.1-.3-.1-.5-.2-.1 0-.2-.1-.3-.1-.2 0-.4-.1-.6-.1h-1c-4 0-7.3 3.3-7.3 7.3v.3C2.9 23.1.6 27 .6 30.9c0 5.8 4.7 10.4 10.4 10.4h2.6c.4 0 .8-.4.8-.8s-.4-.8-.8-.8H11c-4.9 0-8.8-4-8.8-8.8 0-3.4 2.2-6.9 5.2-8.3l.5-.2V21c0-3.1 2.6-5.7 5.7-5.7.3 0 .5 0 .7.1h.2c.2 0 .4.1.6.1h.1c.2.1.5.2.7.3.1 0 .1.1.2.1l.6.3c1.6 1 2.6 2.8 2.6 4.8 0 .4.4.8.8.8s.8-.4.8-.8c0-2.2-1-4.2-2.6-5.6 2.3-3 6.2-5 10-5 6.3 0 11.5 5 12.1 11.3-.8-.1-2.1-.1-3.3.1-.4.1-.7.5-.7.9.1.4.4.7.8.7h.1c1.8-.3 3.7 0 3.8 0 3.8.7 6.6 4.2 6.6 8.1 0 4.5-3.7 8.1-8.1 8.1h-26c-.4 0-.8.4-.8.8s.4.8.8.8h26c5.4 0 9.8-4.4 9.8-9.8 0-4.4-3.1-8.4-7.4-9.5z"/></svg>