<svg id="Layer_1" xmlns="http://www.w3.org/2000/svg" viewBox="0 0 150 126.6"><style>.st0{fill:#d8427d}</style><g id="Layer_3"><path class="st0" d="M92.7 38.8H30.2c-2.1 0-3.6 1.6-3.6 3.6v12.3c0 2.1 1.6 3.6 3.6 3.6h62.5c2.1 0 3.6-1.6 3.6-3.6V42.4c.1-2-1.7-3.6-3.6-3.6zm-59.6 8.5c-1.3 0-2.2-.9-2.2-2.2s.9-2.2 2.2-2.2c1.3 0 2.2.9 2.2 2.2s-1 2.2-2.2 2.2zm53.8 6.5H71v-5.2h15.8l.1 5.2zM92.7 60.3H30.2c-2.1 0-3.6 1.6-3.6 3.6v12.4c0 2.1 1.6 3.6 3.6 3.6h62.5c2.1 0 3.6-1.6 3.6-3.6V63.9c.1-2-1.7-3.6-3.6-3.6zm-59.6 8.5c-1.3 0-2.2-.9-2.2-2.2 0-1.3.9-2.2 2.2-2.2 1.3 0 2.2.9 2.2 2.2 0 1.3-1 2.2-2.2 2.2zm53.8 6.5H71v-5.2h15.8l.1 5.2zM92.7 81.8H30.2c-2.1 0-3.6 1.6-3.6 3.6v12.3c0 2.1 1.6 3.6 3.6 3.6h62.5c2.1 0 3.6-1.6 3.6-3.6V85.5c.1-2.1-1.7-3.7-3.6-3.7zm-59.6 8.6c-1.3 0-2.2-.9-2.2-2.2s.9-2.2 2.2-2.2c1.3 0 2.2.9 2.2 2.2 0 1.2-1 2.2-2.2 2.2zm53.8 6.4H71v-5.2h15.8l.1 5.2zM72.3 113.1h-6.8v-9.6h-8.2v9.6h-6.7v2.7H27.4v8.3h23.2v2.5h21.7v-2.5h23.3v-8.3H72.3z"/><path class="st0" d="M98.4 18.8c-.9 0-1.7-.5-2.2-1.3-5.1-6.8-13-10.9-21.7-10.9h-1.6c-.8 0-1.4-.2-2.1-.6-5.2-4-11.6-6-18.2-6-11.9 0-22.3 6.8-27.2 17.2-.5.9-1.4 1.6-2.4 1.7-12.9 2-23 13.2-23 26.7 0 13 9.2 23.7 21.4 26.3V64c0-.9.2-1.9.5-2.8C15.4 59 10.7 53 10.7 45.7c0-9 7.3-16.3 16.3-16.3h1.3c2.5.2 4.9-1.4 5.5-4 2.2-8.7 10-14.9 19-14.9 5.1 0 10 2.1 13.6 5.5 1.3 1.3 3 1.7 4.7 1.4 1.1-.2 2.2-.3 3.3-.3 6.3 0 11.9 3.5 14.7 9.2.9 2.1 3 3.2 5.2 3 .5 0 1.1-.2 1.6-.2 9 0 16.3 7.3 16.3 16.3 0 7.3-4.7 13.3-11.2 15.5.3.9.5 1.9.5 2.8v7.9c12.2-2.5 21.4-13.4 21.4-26.3 0-13.8-10.9-25.4-24.5-26.5z"/><g><path class="st0" d="M102.5 110.6l19.5 2.7V94.6h-19.5zM102.5 92.3H122V73.4l-19.5 2.7zM124.2 113.5l25.8 3.6V94.6h-25.8zM124.2 73.3v19H150V69.6z"/></g></g></svg>