<svg id="Layer_1" xmlns="http://www.w3.org/2000/svg" viewBox="0 0 145.5 150"><style>.st0{display:none}.st1{fill:#d8427d}</style><g id="Layer_4"><path class="st1" d="M110.1 45.8H35.9c-2.4 0-4.3 1.9-4.3 4.3v14.6c0 2.4 1.9 4.3 4.3 4.3H110c2.4 0 4.3-1.9 4.3-4.3V50.1c.1-2.3-1.9-4.3-4.2-4.3zM39.4 56.1c-1.5 0-2.6-1.1-2.6-2.6s1.1-2.6 2.6-2.6S42 52 42 53.5c0 1.2-1.1 2.6-2.6 2.6zm63.6 7.5H84.2v-6.2H103v6.2zM110.1 71.4H35.9c-2.4 0-4.3 1.9-4.3 4.3v14.6c0 2.4 1.9 4.3 4.3 4.3H110c2.4 0 4.3-1.9 4.3-4.3V75.8c.1-2.5-1.9-4.4-4.2-4.4zM39.4 81.6c-1.5 0-2.6-1.1-2.6-2.6s1.1-2.6 2.6-2.6S42 77.5 42 79c0 1.4-1.1 2.6-2.6 2.6zm63.6 7.7H84.2v-6.2H103v6.2zM110.1 96.9H35.9c-2.4 0-4.3 1.9-4.3 4.3v14.6c0 2.4 1.9 4.3 4.3 4.3H110c2.4 0 4.3-1.9 4.3-4.3v-14.6c.1-2.4-1.9-4.3-4.2-4.3zm-70.7 10.2c-1.5 0-2.6-1.1-2.6-2.6s1.1-2.6 2.6-2.6 2.6 1.1 2.6 2.6c0 1.4-1.1 2.6-2.6 2.6zm63.6 7.6H84.2v-6.2H103v6.2zM85.7 134.1h-7.8v-11.5h-9.8v11.5h-7.9v3H32.5v9.9h27.7v3h25.5v-3h27.8v-9.9H85.7z"/><path class="st1" d="M116.7 22.3c-1.1 0-2.1-.6-2.6-1.5-6-8.1-15.4-12.9-25.7-12.9h-1.9c-.9 0-1.7-.2-2.4-.8C77.9 2.4 70.4 0 62.5 0 48.4 0 36 8.1 30.2 20.4c-.6 1.1-1.7 1.9-2.8 2.1C12 24.8 0 38.1 0 54c0 15.4 10.9 28.1 25.3 31.1v-9.4c0-1.1.2-2.2.6-3.4-7.7-2.6-13.3-9.7-13.3-18.4 0-10.7 8.6-19.3 19.3-19.3h1.5c3 .2 5.8-1.7 6.6-4.7 2.6-10.2 11.8-17.5 22.5-17.5 6 0 11.8 2.4 16.1 6.6 1.5 1.5 3.6 2.1 5.6 1.7 1.3-.2 2.6-.4 3.9-.4 7.5 0 14.1 4.1 17.4 10.9 1.1 2.4 3.6 3.8 6.2 3.6.6 0 1.3-.2 1.9-.2 10.7 0 19.3 8.6 19.3 19.3 0 8.6-5.6 15.8-13.3 18.4.4 1.1.6 2.2.6 3.4v9.4c14.4-3 25.3-15.9 25.3-31.1.4-16.7-12.5-30.4-28.8-31.7z"/></g></svg>