<svg id="Layer_1" xmlns="http://www.w3.org/2000/svg" viewBox="0 0 150 126.6"><style>.st0{fill:#703081}.st1{fill:#f2ba59}</style><path class="st0" d="M138 0H11.8C5.4 0 0 5.2 0 11.8v103.1c0 6.4 5.2 11.8 11.8 11.8h126.4c6.4 0 11.8-5.2 11.8-11.8V11.6C149.8 5.2 144.6 0 138 0zm7.2 114.6c0 3.8-3.2 7-7 7H11.8c-3.8 0-7-3.2-7-7v-103c0-3.8 3.2-7 7-7h126.4c3.8 0 7 3.2 7 7v103z"/><path class="st0" d="M127.8 25.5H22.2c-1.2 0-2.2 1-2.2 2.2v71.5c0 .1 0 .1.1.2 0 .1 0 .2.1.2 0 .1.1.1.1.2s.1.1.1.2c.2.2.4.5.6.6.1 0 .1.1.2.1s.1.1.2.1.1 0 .2.1c.1 0 .1 0 .2.1H128.1c.1 0 .1 0 .2-.1.1 0 .2 0 .2-.1s.1-.1.2-.1.1-.1.2-.1c.2-.2.5-.4.6-.6 0-.1.1-.1.1-.2s.1-.1.1-.2 0-.2.1-.2c0-.1 0-.1.1-.2V27.8c.1-1.3-.9-2.3-2.1-2.3zM27.7 96.6l25.2-25.2 6.3 6.3c.9.9 2.3.9 3.2 0L83 57.1l39.4 39.4H27.7zm97.8-3.2l-41-41c-.9-.9-2.3-.9-3.2 0L60.8 73l-6.3-6.3c-.8-.8-2.3-.8-3.2 0L24.5 93.4V30h101v63.4z"/><path class="st1" d="M79.1 66.7L69.7 76c-.9.9-.9 2.3 0 3.2.4.4 1 .7 1.6.7s1.1-.2 1.6-.7l9.3-9.3c.9-.9.9-2.3 0-3.2-.8-.9-2.2-.9-3.1 0zM49.7 80.2L40.9 89c-.9.9-.9 2.3 0 3.2.4.4 1 .7 1.6.7s1.1-.2 1.6-.7l8.8-8.8c.9-.9.9-2.3 0-3.2-.9-.8-2.4-.8-3.2 0zM39.5 55.8c5.4 0 9.7-4.4 9.7-9.7s-4.4-9.7-9.7-9.7c-5.4 0-9.7 4.4-9.7 9.7s4.3 9.7 9.7 9.7zm0-15c2.9 0 5.2 2.3 5.2 5.2s-2.3 5.2-5.2 5.2c-2.9 0-5.2-2.3-5.2-5.2 0-2.8 2.3-5.2 5.2-5.2z"/></svg>