<svg id="Layer_1" xmlns="http://www.w3.org/2000/svg" viewBox="0 0 150 150"><style>.st0{fill:#d8427d}</style><path class="st0" d="M112.5 38h-75v56.2h44.2L97 109.5c3.5 3.3 9 3.3 12.4-.1 1.7-1.7 2.5-3.9 2.5-6.2 0-2.2-.8-4.4-2.5-6.1l-3-3h6.1V38zm-5.8 61.8c1.8 2 1.8 5-.1 6.9-1.9 1.9-5 1.9-6.9 0L71 78l.1-.1H58l-3.7-13.8 1.5-1.5 7.3 7.3 7.2-7.2-7.3-7.3 1.5-1.5 13.8 3.7v13.5l28.4 28.7zm2-9.4h-6.1L98 85.8h5.1V46.4H46.4v39.4h26.9l4.6 4.6H41.4V41.8h67.3v48.6z"/><path class="st0" d="M104.8 105c.9-.9.8-2.2 0-3.1-.9-.8-2.2-.8-3.1 0-.8.9-.8 2.2 0 3.1.8.8 2.2.8 3.1 0z"/></svg>