<svg id="Layer_1" xmlns="http://www.w3.org/2000/svg" viewBox="0 0 50 50"><circle fill="#E89F2B" cx="25" cy="24.8" r="22"/><path fill="#C97B29" d="M22.9 26.2l-.6-9.3c-.1-1.8-.2-3.1-.2-3.9 0-1.1.3-1.9.8-2.5.6-.6 1.3-.9 2.2-.9 1.1 0 1.9.4 2.2 1.2.4.8.6 1.9.6 3.3 0 .9 0 1.7-.1 2.6l-.8 9.6c-.1 1.1-.3 2-.6 2.6-.3.6-.8.9-1.5.9s-1.2-.3-1.5-.9c-.2-.6-.4-1.5-.5-2.7zM25.1 39c-.8 0-1.5-.3-2.1-.8-.6-.5-.9-1.2-.9-2.1 0-.8.3-1.5.8-2 .6-.6 1.3-.8 2.1-.8s1.5.3 2.1.8c.6.6.9 1.2.9 2 0 .9-.3 1.6-.9 2.1-.6.5-1.3.8-2 .8z"/></svg>