<svg id="Layer_1" xmlns="http://www.w3.org/2000/svg" xmlns:xlink="http://www.w3.org/1999/xlink" viewBox="0 0 150 150"><style>.st0{fill:#969696}</style><symbol id="a" viewBox="-32 -32 64 64"><path class="st0" d="M22.6 22.6C16.4 28.9 8.2 32 0 32s-16.4-3.1-22.6-9.4c-12.5-12.5-12.5-32.8 0-45.3C-16.4-28.9-8.2-32 0-32s16.4 3.1 22.6 9.4c12.5 12.5 12.5 32.7 0 45.2zm-3.5-41.7C14-24.2 7.2-27 0-27s-14 2.8-19.1 7.9c-10.5 10.5-10.5 27.7 0 38.2C-14 24.2-7.2 27 0 27s14-2.8 19.1-7.9C24.2 14 27 7.2 27 0c0-7.2-2.8-14-7.9-19.1z"/><path class="st0" d="M0 17c-2.6 0-4.7-2.1-4.7-4.7S-2.6 7.6 0 7.6s4.7 2.1 4.7 4.7S2.6 17 0 17zM-4.3-17h8.6V4.1h-8.6z"/></symbol><use xlink:href="#a" width="64" height="64" id="XMLID_1_" x="-32" y="-32" transform="matrix(2.3438 0 0 -2.3438 75 74.998)" overflow="visible"/></svg>