<svg id="Layer_1" xmlns="http://www.w3.org/2000/svg" viewBox="0 0 150 150"><style>.st0{fill:#703081}.st1{fill:#f2ba59}</style><g id="Layer_1_1_"><path class="st0" d="M131.1 55.1c.1-.9.1-1.6.1-2.5 0-11.6-9.5-21.1-21.1-21.1-1.5 0-2.9.1-4.4.5-4.6-12.9-17-21.6-30.8-21.6s-26.1 8.8-30.8 21.5c-1.4-.3-2.9-.5-4.4-.5-11.6 0-21.1 9.5-21.1 21.1 0 .7 0 1.6.1 2.5C8.3 56.1 0 65.1 0 76c0 11.6 9.5 21.1 21.1 21.1h18.8v-4.8H21.1c-9 0-16.4-7.4-16.4-16.4s7.4-16.4 16.6-16.4h.4c.7 0 1.5-.3 1.9-.9.5-.6.6-1.4.5-2-.4-1.4-.5-2.8-.5-4.1 0-9 7.4-16.4 16.4-16.4 1.8 0 3.5.3 5.1.9.6.3 1.3.1 1.9-.1.6-.3 1-.8 1.1-1.4 3.3-12 14.4-20.4 26.9-20.4s23.6 8.4 27 20.4c.1.6.6 1.1 1.1 1.4.6.3 1.3.4 1.9.1 1.6-.5 3.4-.9 5.1-.9 9 0 16.4 7.4 16.4 16.4 0 1.4-.1 2.8-.5 4.1-.1.8 0 1.5.5 2 .5.6 1.1.9 1.9.9h.5c9 0 16.4 7.4 16.4 16.4s-7.4 16.4-16.4 16.4h-18.8V97h18.8c11.6 0 21.1-9.5 21.1-21.1 0-10.8-8.2-19.8-18.9-20.8z"/><path class="st1" d="M56.3 43.2h-4.8C51.5 30.4 62 19.7 75 19.7v4.8c-10.4 0-18.7 8.4-18.7 18.7z"/></g><path class="st1" d="M115 129.1c-1.8-1.1-3.9-1.8-6-1.8-3.5 0-6.7 1.6-8.8 4.3L79 119.2v-.4c0-4-1.6-7.6-4.2-10.3l10.5-15.1c1.8 1.1 3.9 1.8 6 1.8 3.5 0 6.7-1.6 8.8-4.3 3.9-4.9 3-12-1.8-15.8-2-1.6-4.5-2.4-7-2.4-3.5 0-6.7 1.6-8.8 4.3-1.9 2.4-2.7 5.3-2.4 8.3.3 2.6 1.5 4.9 3.4 6.7L73 107c-2.5-1.8-5.5-2.9-8.8-2.9-1.4 0-2.7.2-4 .6l-10-29.3c5.1-2.4 7.8-8.3 5.9-13.8-1.6-4.5-5.8-7.6-10.6-7.6-1.2 0-2.5.2-3.7.6-5.9 2-9 8.4-7 14.3 1.6 4.5 5.8 7.6 10.6 7.6.9 0 1.7-.1 2.5-.3L58 105.4c-5 2.3-8.5 7.4-8.5 13.4 0 1.4.2 2.8.6 4.2l-19.3 8.6c-1.9-3.6-5.7-5.9-9.9-5.9-1.5 0-2.9.3-4.2.8-2.8 1.1-5 3.3-6.1 6.1-1.1 2.8-1.2 5.8-.1 8.6 1.7 4.3 5.8 7 10.4 7 1.5 0 2.9-.3 4.2-.8 5.4-2.2 8.1-8.1 6.5-13.6l19.3-8.6c2.4 5 7.4 8.4 13.3 8.4 7.1 0 13.1-5.1 14.5-11.8l20.2 11.9c-2.5 5.1-.9 11.4 4 14.5 1.8 1.1 3.9 1.8 6 1.8 3.9 0 7.4-2 9.5-5.2 3.4-5.4 1.8-12.4-3.4-15.7zM40.4 67c-.5-1.4-.4-2.8.3-4.1.6-1.3 1.7-2.3 3.1-2.7.6-.2 1.2-.3 1.7-.3 2.3 0 4.3 1.5 5.1 3.6.5 1.4.4 2.8-.3 4.1-.6 1.3-1.7 2.3-3.1 2.7-2.8 1-5.9-.6-6.8-3.3zm-17.5 74.9c-2.7 1.1-5.9-.3-7-2.9-.5-1.3-.5-2.8 0-4.1.6-1.3 1.6-2.3 2.9-2.9.6-.3 1.3-.4 2-.4 2.2 0 4.1 1.3 5 3.3 1.2 2.7-.2 5.8-2.9 7zm64.2-61.3c1-1.3 2.6-2 4.2-2 1.2 0 2.4.4 3.3 1.2 2.3 1.8 2.7 5.2.9 7.5-1.8 2.2-5.3 2.7-7.5.9-1.1-.9-1.8-2.2-2-3.6-.2-1.5.2-2.9 1.1-4zm-22.9 47.1c-3.5 0-6.4-2-7.9-4.9l.2-.1-1-2.2h-.1c-.1-.6-.2-1.1-.2-1.7 0-4.9 4-8.9 8.9-8.9s8.9 4 8.9 8.9-3.9 8.9-8.8 8.9zm49.3 13.8c-1.5 2.4-5 3.2-7.4 1.7-2.5-1.6-3.2-4.9-1.7-7.4 1-1.6 2.7-2.5 4.5-2.5 1 0 2 .3 2.9.8 2.5 1.6 3.3 4.9 1.7 7.4z"/></svg>