<svg id="Layer_1" xmlns="http://www.w3.org/2000/svg" viewBox="0 0 150 166.8"><style>.st0{fill:#703081}.st1{fill:#9b75a6}</style><path class="st0" d="M75 0C33.6 0 0 33.6 0 75c0 39.2 30.2 71.4 68.6 74.8L56.4 162c-1 1-1 2.8 0 4 .6.6 1.2.8 2 .8s1.4-.2 2-.8L77 149.4c.2-.2.4-.6.6-1 .2-.6.2-1.4 0-2.2-.2-.4-.4-.6-.6-1l-16.6-16.6c-1-1-2.8-1-4 0s-1 2.8 0 4L68 144.2C33 140.6 5.6 111 5.6 75 5.6 36.8 36.8 5.6 75 5.6s69.4 31.2 69.4 69.4c0 18.4-7.2 35.8-20.2 48.8-1 1-1 2.8 0 4 1 1 2.8 1 4 0C142.2 113.6 150 95 150 75c0-41.2-33.6-75-75-75z" id="Layer_2"/><path class="st1" d="M39.8 990.5c-4.4 0-8 3.6-8 8v46.6h-4.7c-1.2.1-2.1 1.1-2.1 2.3v4.5c0 5 4.1 9.1 9.1 9.1h81.8c5 0 9.1-4.1 9.1-9.1v-4.5c0-1.3-1-2.3-2.3-2.3h-4.5v-46.6c0-4.4-3.6-8-8-8H39.8zm0 4.6h70.5c1.9 0 3.4 1.5 3.4 3.4v46.6H36.4v-46.6c0-1.9 1.4-3.4 3.4-3.4zm35.2 5.7c-6.3 0-11.4 5.1-11.4 11.4v4.5h-2.5c-1.1.1-2.1 1.2-2.1 2.3v18.2c0 1.2 1.1 2.3 2.3 2.3h27.3c1.2 0 2.3-1.1 2.3-2.3V1019c0-1.2-1.1-2.3-2.3-2.3h-2.3v-4.5c.1-6.3-5-11.4-11.3-11.4zm0 4.5c3.8 0 6.8 3 6.8 6.8v4.5H68.2v-4.5c0-3.8 3-6.8 6.8-6.8zm-11.4 15.9h22.7v13.6H63.6v-13.6zm-34.1 28.4h90.9v2.3c0 2.6-2 4.5-4.5 4.5H34.1c-2.6 0-4.5-2-4.5-4.5v-2.3z" transform="translate(0 -952.362)"/></svg>