<svg id="Layer_1" xmlns="http://www.w3.org/2000/svg" viewBox="0 0 150 138.2"><style>.st0{fill:#f2ba59}.st1{fill:#703081}</style><path class="st0" d="M31.9 69.2c-1.8 0-3.2 1.4-3.2 3.2s1.4 3.2 3.2 3.2h14.6c1.8 0 3.2-1.4 3.2-3.2s-1.4-3.2-3.2-3.2H31.9zM53 42.4H25.3c-1.8 0-3.2 1.4-3.2 3.2 0 1.8 1.4 3.2 3.2 3.2H53c1.8 0 3.2-1.4 3.2-3.2 0-1.6-1.4-3.2-3.2-3.2zM56.2 59c0-1.8-1.4-3.2-3.2-3.2H25.3c-1.8 0-3.2 1.4-3.2 3.2s1.4 3.2 3.2 3.2H53c1.8 0 3.2-1.4 3.2-3.2zM93.8 45.6c0 1.8 1.4 3.2 3.2 3.2h27.8c1.8 0 3.2-1.4 3.2-3.2s-1.4-3.2-3.2-3.2H97c-1.8 0-3.2 1.6-3.2 3.2zM144.6 111c-3.4 3.4-10.6 3-20 2.4-13.2-.8-31-2-49.6 7.6-18.8-9.4-36.6-8.4-49.6-7.6-9.4.6-16.8 1.2-20-2.4-1.2-1.4-3.2-1.4-4.4-.2-1.4 1.2-1.4 3.2-.2 4.4 5.4 5.8 14 5.2 25 4.6V135c0 1.2.6 2.2 1.6 2.8.4.2 1 .4 1.6.4s1.2-.2 1.6-.4l8.6-4.8 8.6 4.8c1 .6 2.2.6 3.2 0s1.6-1.6 1.6-2.8v-14.6c6.6 1.2 13.8 3.2 21 7.2 1 .6 2 .6 3 0 17.6-9.6 34.2-8.6 47.6-7.8 11 .6 19.8 1.2 25-4.6 1.2-1.2 1-3.2-.2-4.4-1.4-1.2-3.4-1.2-4.4.2zm-98.7 18.4l-5.4-3c-.8-.6-2-.6-3 0l-5.4 3v-10c4.4-.2 9.2-.2 14 .2l-.2 9.8zM118.2 69.2h-14.6c-1.8 0-3.2 1.4-3.2 3.2s1.4 3.2 3.2 3.2h14.6c1.8 0 3.2-1.4 3.2-3.2s-1.4-3.2-3.2-3.2zM124.8 55.8H97c-1.8 0-3.2 1.4-3.2 3.2s1.4 3.2 3.2 3.2h27.8c1.8 0 3.2-1.4 3.2-3.2s-1.4-3.2-3.2-3.2z"/><path class="st1" d="M148.4.4c-1-.6-2.2-.6-3.2 0C127.6 10 111 9 97.6 8.2c-9.4-.6-17.2-1-22.6 2.6-5.4-3.6-13-3.2-22.6-2.6C39.2 9 22.4 10 4.8.4c-1-.6-2.2-.6-3.2 0S0 2 0 3.2V100c0 .8.2 1.6.8 2.2 5.4 5.8 14 5.2 25 4.6 13.4-1 30-1.8 47.6 7.6.8.4 1.4.4 1.6.4.4 0 1-.2 1.4-.4h.2c17.6-9.6 34.2-8.6 47.6-7.8 11 .6 19.8 1.2 25-4.6.4-.6.8-1.4.8-2.2V3.2c0-1.2-.6-2.2-1.6-2.8zM71.8 106c-12-5.4-23.6-6.6-33.6-6.6-4.6 0-8.8.4-12.8.6-8.6.4-15.4.8-19-1.8v-90c17.6 8 34 7 46.4 6.2 8.6-.4 15.4-.8 19 1.8V106zm71.8-7.8c-3.6 2.8-10.4 2.4-19 1.8-12.4-.8-28.8-1.8-46.4 6.2v-90c3.6-2.8 10.4-2.4 19-1.8 12.4.8 28.8 1.8 46.4-6.2v90z"/></svg>