<svg id="Layer_1" xmlns="http://www.w3.org/2000/svg" viewBox="0 0 150 166.8"><style>.st0{fill:#703081}.st1{fill:#9b75a6}</style><path class="st0" d="M75 0C33.6 0 0 33.6 0 75c0 39.2 30.2 71.4 68.6 74.8L56.4 162c-1 1-1 2.8 0 4 .6.6 1.2.8 2 .8s1.4-.2 2-.8L77 149.4c.2-.2.4-.6.6-1 .2-.6.2-1.4 0-2.2-.2-.4-.4-.6-.6-1l-16.6-16.6c-1-1-2.8-1-4 0s-1 2.8 0 4L68 144.2C33 140.6 5.6 111 5.6 75 5.6 36.8 36.8 5.6 75 5.6s69.4 31.2 69.4 69.4c0 18.4-7.2 35.8-20.2 48.8-1 1-1 2.8 0 4 1 1 2.8 1 4 0C142.2 113.6 150 95 150 75c0-41.2-33.6-75-75-75z" id="Layer_2"/><g id="Layer_11"><g id="_x31_86_50_"><path class="st0" d="M56.4 65.9s-.1-1.4-.2-2.2c.3-.2.7-.4 1-.6.5.3 1.6.9 1.6.9l1.8-.5 2.1-3.5-.5-1.8-2.1-1.2c0-.4-.1-.8-.1-1.2.5-.5 1.6-1.4 1.6-1.4v-1.9L59 49.4h-1.9s-.9.8-1.3 1.2l-1.5-.6c0-.5-.1-1.6-.1-1.6l-1.3-1.3-4 .3-1.5 1.6s.1 1.4.2 2.1c-.4.2-.8.5-1.1.8-.6-.3-1.7-.8-1.7-.8l-1.8.5-1.6 3.8-.1.3.5 1.6s1.4.6 2 .9c0 .4.1.9.2 1.3-.5.4-1.5 1.3-1.5 1.3v1.9l2.6 3.1s1.6.2 1.6.1c.1 0 .3-.1.3-.1l1.5-1.2c.4.2.8.3 1.3.5 0 .6.2 1.7.2 1.7l1.3 1.3 4-.4 1.1-1.8zm-4.7-4.3c-2.2 0-4.1-1.9-4.1-4.1 0-2.2 1.9-4.1 4.1-4.1s4.1 1.9 4.1 4.1c0 2.2-1.8 4.1-4.1 4.1z"/><path class="st1" d="M67.6 79.1s-.1-1.1-.1-1.6c.3-.1.5-.3.7-.5.4.2 1.2.7 1.2.7l1.4-.4 1.6-2.6-.4-1.4s-1-.6-1.6-.9c0-.3 0-.6-.1-.9.4-.4 1.2-1.1 1.2-1.1V69l-2-2.3H68s-.7.6-1 .9c-.4-.2-.8-.3-1.2-.4 0-.4-.1-1.2-.1-1.2l-1-1-3 .3-1 1s.1 1.1.1 1.6l-.9.6c-.4-.2-1.3-.6-1.3-.6l-1.4.4-1.3 2.8v.1l.4 1.2s1 .5 1.5.7c0 .3.1.7.2 1-.4.3-1.2 1-1.2 1v1.4l2 2.3 1.2.1.2-.1s.7-.6 1.1-.9c.3.1.6.3 1 .3 0 .4.1 1.3.1 1.3l1 1 3-.3 1.2-1.1zm-3.5-3.3c-1.7 0-3.1-1.4-3.1-3.1 0-1.7 1.4-3.1 3.1-3.1 1.7 0 3.1 1.4 3.1 3.1s-1.5 3.1-3.1 3.1z"/><path class="st0" d="M95.6 40.8H56.8c-3.2 0-3.2 5.1 0 5.1h38.8c3.3 0 3.3-5.1 0-5.1z"/><path class="st1" d="M95.6 52.6H77c-3.2 0-3.2 5.1 0 5.1h18.6c3.3 0 3.3-5.1 0-5.1z"/><path class="st0" d="M44.4 34.5h58.5v31.9h6.1v-38H38.4v19.7h6z"/><path class="st1" d="M98.2 100.5c0-.7-.1-1.3-.2-1.9.9-.7 2.7-2.2 2.7-2.2l.1-3-4.2-5.2-3-.1s-1.5 1.2-2.2 1.8c-.8-.4-1.6-.8-2.4-1 0-.9-.1-2.6-.1-2.6L86.8 84l-6.6.3-2.2 2.1s.1 2.2.2 3.4c-.7.4-1.3.8-1.9 1.2-.9-.5-2.7-1.4-2.7-1.4l-2.9.7-2.9 6-.3.5.8 2.5 3.2 1.6c0 .7.1 1.5.3 2.2-.9.7-2.5 2.1-2.5 2.1l-.1 3 4.2 5.3s2.5.4 2.6.3c.1-.1.4-.2.4-.2s1.7-1.3 2.4-2c.7.3 1.4.6 2.1.8.1.9.2 2.7.2 2.7l2.1 2.2 6.6-.4 2.2-2.1s-.1-2.3-.2-3.5c.6-.3 1.1-.6 1.6-1 .9.5 2.5 1.6 2.5 1.6l2.9-.7 3.5-5.7-.7-3s-2.2-1.4-3.4-2zm-14 6.8c-3.7-.1-6.6-3.2-6.5-6.9.1-3.7 3.2-6.6 6.9-6.5 3.7.1 6.6 3.2 6.5 6.9 0 3.8-3.1 6.6-6.9 6.5z"/><path class="st0" d="M110.6 86.2s-2.3-1.5-3.5-2.2c0-.7-.1-1.4-.2-2.1 1-.8 2.9-2.3 2.9-2.3l.1-3.3-4.5-5.7-3.3-.1s-1.6 1.3-2.4 2c-.9-.4-1.8-.8-2.6-1.1 0-1-.1-2.8-.1-2.8l-2.2-2.4-7.2.4-2.6 2.2s.1 2.4.2 3.6c-.7.4-1.4.8-2.1 1.3l-3-1.5-3.2.8-3.2 6.4.1.5.9 2.7s1.5.8 2.7 1.4l1.4-1.3.6-.5h.8l5.4-.3c1-3 3.8-5.2 7.1-5.1 4 .1 7.1 3.5 7 7.4 0 1.1-.3 2.1-.8 3l3.8 4.7.5.6v.8l-.1 2 1.6 1 3.2-.8 3.8-6.1-1.1-3.2z"/><path class="st1" d="M41.9 79.1c.6 0 1.1-.2 1.5-.5.4-.3.7-.8.9-1.4s.3-1.4.3-2.3c0-.8-.1-1.5-.2-2s-.3-.9-.5-1.2c-.2-.3-.5-.6-.8-.8-.3-.2-.7-.3-1.2-.3-.6 0-1.1.2-1.5.5-.4.3-.7.8-.9 1.4-.2.6-.3 1.4-.3 2.3 0 1.6.3 2.6.8 3.3.4.8 1.1 1 1.9 1zm-1.2-6.9c.3-.4.7-.6 1.1-.6.5 0 .9.2 1.2.7.3.5.5 1.4.5 2.6 0 1.4-.2 2.2-.5 2.6-.3.5-.7.7-1.2.7s-.9-.2-1.2-.7c-.3-.5-.5-1.4-.5-2.6.1-1.2.3-2.2.6-2.7zM47.7 71.9c-.4.4-.9.7-1.5 1v1c.3-.1.7-.3 1.1-.5.4-.2.7-.5 1-.7V79h1v-8.1h-.7c-.2.3-.5.6-.9 1zM44 83.9c-.2-.3-.5-.6-.8-.8s-.7-.3-1.2-.3c-.6 0-1.1.2-1.5.5-.4.3-.7.8-.9 1.4-.2.6-.3 1.4-.3 2.3 0 1.6.3 2.6.8 3.3.5.6 1.1.9 1.9.9.6 0 1.1-.2 1.5-.5.4-.3.7-.8.9-1.4s.3-1.4.3-2.3c0-.8-.1-1.5-.2-2-.1-.3-.3-.7-.5-1.1zm-.8 5.9c-.3.5-.7.7-1.2.7s-.9-.2-1.2-.7-.5-1.4-.5-2.6c0-1.4.2-2.2.5-2.7.3-.4.7-.6 1.1-.6.5 0 .9.2 1.2.7.3.5.5 1.4.5 2.6 0 1.2-.1 2.1-.4 2.6zM49.5 91.1V83h-.7c-.2.4-.5.7-.9 1.1-.4.4-.9.7-1.5 1v1c.3-.1.7-.3 1.1-.5.4-.2.7-.5 1-.7v6.3h1v-.1zM54.9 91.1V83h-.7c-.2.4-.5.7-.9 1.1-.4.4-.9.7-1.5 1v1c.3-.1.7-.3 1.1-.5.4-.2.7-.5 1-.7v6.3h1v-.1zM62 83.9c-.2-.3-.5-.6-.8-.8-.3-.2-.7-.3-1.2-.3-.6 0-1.1.2-1.5.5-.4.3-.7.8-.9 1.4-.2.6-.3 1.4-.3 2.3 0 1.6.3 2.6.8 3.3.5.6 1.1.9 1.9.9.6 0 1.1-.2 1.5-.5.4-.3.7-.8.9-1.4s.3-1.4.3-2.3c0-.8-.1-1.5-.2-2-.1-.3-.3-.7-.5-1.1zm-.8 5.9c-.3.5-.7.7-1.2.7s-.9-.2-1.2-.7-.5-1.4-.5-2.6c0-1.4.2-2.2.5-2.7.3-.4.7-.6 1.1-.6.5 0 .9.2 1.2.7.3.5.5 1.4.5 2.6.1 1.2-.1 2.1-.4 2.6zM44 97.5c-.2-.3-.5-.6-.8-.8-.3-.2-.7-.3-1.2-.3-.6 0-1.1.2-1.5.5s-.7.8-.9 1.4c-.2.6-.3 1.4-.3 2.3 0 1.6.3 2.6.8 3.3.5.6 1.1.9 1.9.9.6 0 1.1-.2 1.5-.5.4-.3.7-.8.9-1.4s.3-1.4.3-2.3c0-.8-.1-1.5-.2-2-.1-.4-.3-.8-.5-1.1zm-.8 5.8c-.3.5-.7.7-1.2.7s-.9-.2-1.2-.7c-.3-.5-.5-1.4-.5-2.6 0-1.4.2-2.2.5-2.7.3-.4.7-.6 1.1-.6.5 0 .9.2 1.2.7.3.5.5 1.4.5 2.6 0 1.3-.1 2.2-.4 2.6zM50.2 97.5c-.2-.3-.5-.6-.8-.8-.3-.2-.7-.3-1.2-.3-.6 0-1.1.2-1.5.5-.4.3-.7.8-.9 1.4-.2.6-.3 1.4-.3 2.3 0 1.6.3 2.6.8 3.3.5.6 1.1.9 1.9.9.6 0 1.1-.2 1.5-.5.4-.3.7-.8.9-1.4s.3-1.4.3-2.3c0-.8-.1-1.5-.2-2-.1-.4-.2-.8-.5-1.1zm-.7 5.8c-.3.5-.7.7-1.2.7s-.9-.2-1.2-.7c-.3-.5-.5-1.4-.5-2.6 0-1.4.2-2.2.5-2.7.3-.4.7-.6 1.1-.6.5 0 .9.2 1.2.7.3.5.5 1.4.5 2.6 0 1.3-.1 2.2-.4 2.6zM56.6 97.5c-.2-.3-.5-.6-.8-.8-.3-.2-.7-.3-1.2-.3-.6 0-1.1.2-1.5.5s-.7.8-.9 1.4c-.2.6-.3 1.4-.3 2.3 0 1.6.3 2.6.8 3.3.5.6 1.1.9 1.9.9.6 0 1.1-.2 1.5-.5.4-.3.7-.8.9-1.4s.3-1.4.3-2.3c0-.8-.1-1.5-.2-2-.1-.4-.4-.8-.5-1.1zm-.8 5.8c-.3.5-.7.7-1.2.7s-.9-.2-1.2-.7c-.3-.5-.5-1.4-.5-2.6 0-1.4.2-2.2.5-2.7.3-.4.7-.6 1.1-.6.5 0 .9.2 1.2.7.3.5.5 1.4.5 2.6.1 1.3-.1 2.2-.4 2.6zM62 104.7v-8.1h-.7c-.2.4-.5.7-.9 1.1-.4.4-.9.7-1.5 1v1c.3-.1.7-.3 1.1-.5s.7-.5 1-.7v6.3l1-.1zM67.4 110.8c-.4.4-.9.7-1.5 1v1c.3-.1.7-.3 1.1-.5.4-.2.7-.5 1-.7v6.3h1v-8.2h-.7c-.2.3-.5.7-.9 1.1zM44 111.1c-.2-.3-.5-.6-.8-.8-.3-.2-.7-.3-1.2-.3-.6 0-1.1.2-1.5.5-.4.3-.7.8-.9 1.4-.2.6-.3 1.4-.3 2.3 0 1.6.3 2.6.8 3.3.5.6 1.1.9 1.9.9.6 0 1.1-.2 1.5-.5.4-.3.7-.8.9-1.4.2-.6.3-1.4.3-2.3 0-.8-.1-1.5-.2-2-.1-.4-.3-.7-.5-1.1zm-.8 5.8c-.3.5-.7.7-1.2.7s-.9-.2-1.2-.7c-.3-.5-.5-1.4-.5-2.6 0-1.4.2-2.2.5-2.7.3-.4.7-.6 1.1-.6.5 0 .9.2 1.2.7.3.4.5 1.4.5 2.6 0 1.3-.1 2.1-.4 2.6zM47.9 111.2c-.4.4-.9.7-1.5 1v1c.3-.1.7-.3 1.1-.5.4-.2.7-.5 1-.7v6.3h1v-8.2h-.7c-.2.3-.5.7-.9 1.1zM53.4 111.2c-.4.4-.9.7-1.5 1v1c.3-.1.7-.3 1.1-.5.4-.2.7-.5 1-.7v6.3h1v-8.2h-.7c-.2.3-.5.7-.9 1.1zM62 111.1c-.2-.3-.5-.6-.8-.8-.3-.2-.7-.3-1.2-.3-.6 0-1.1.2-1.5.5-.4.3-.7.8-.9 1.4-.2.6-.3 1.4-.3 2.3 0 1.6.3 2.6.8 3.3.5.6 1.1.9 1.9.9.6 0 1.1-.2 1.5-.5.4-.3.7-.8.9-1.4.2-.6.3-1.4.3-2.3 0-.8-.1-1.5-.2-2-.1-.4-.3-.7-.5-1.1zm-.8 5.8c-.3.5-.7.7-1.2.7s-.9-.2-1.2-.7c-.3-.5-.5-1.4-.5-2.6 0-1.4.2-2.2.5-2.7.3-.4.7-.6 1.1-.6.5 0 .9.2 1.2.7.3.4.5 1.4.5 2.6.1 1.3-.1 2.1-.4 2.6z"/></g></g></svg>