<svg id="Layer_1" xmlns="http://www.w3.org/2000/svg" viewBox="0 0 150 150"><style>.st0{fill:#703081}.st1{fill:#df6b90;stroke:#df6b90;stroke-miterlimit:10}</style><path class="st0" d="M75 0C33.6 0 0 33.6 0 75s33.6 75 75 75 75-33.6 75-75S116.4 0 75 0zm0 3.1c39.7 0 71.9 32.2 71.9 71.9s-32.2 71.9-71.9 71.9S3.1 114.7 3.1 75 35.3 3.1 75 3.1z" id="Layer_2"/><path class="st1" d="M43.2 58.8c0 2.3-1.2 4.4-3.2 5.7-2 1.2-4.6 1.3-6.6.1-2-1.1-3.3-3.2-3.4-5.5s1-4.5 2.9-5.8c2-1.4 4.7-1.5 6.8-.3 2.2 1.1 3.5 3.4 3.5 5.8 0 1.5 2.4 1.5 2.4 0 0-2.7-1.2-5.2-3.3-6.9-2.2-1.8-5-2.4-7.7-1.8-2.6.5-4.8 2.3-6 4.7-1.3 2.5-1.3 5.4-.1 7.9 1.7 3.8 6.1 5.8 10.1 4.9 4.1-.9 6.9-4.7 7-8.8 0-1.5-2.4-1.5-2.4 0zM46.9 89.5H26.3l1.2 1.2v-8.4c0-1.5.1-3 .7-4.5 1-2.2 2.7-3.9 4.9-4.9s4.8-.9 7-.1 3.9 2.6 4.9 4.7c.7 1.4.8 3 .8 4.6v8.5c0 1.5 2.4 1.5 2.4 0v-8.4c0-1.7-.1-3.4-.7-5-.9-2.5-2.7-4.5-5-5.9-4.7-2.8-10.9-1.7-14.5 2.3-1.8 2-2.8 4.6-2.9 7.3v9.6c0 .6.5 1.2 1.2 1.2h20.6c1.5.2 1.5-2.2 0-2.2z"/><path class="st0" d="M101.3 105.7c-1.3-4.5-2.5-9-3.8-13.6-1.6-5.9-3.3-11.8-4.9-17.7-.1-.3-.2-.7-.3-1-.1-.5-.6-.9-1.1-.9H58.8c-.5 0-1 .4-1.1.9-1.3 4.5-2.5 9-3.8 13.6-1.6 5.9-3.3 11.8-4.9 17.7-.1.3-.2.7-.3 1-.4 1.5 1.9 2.1 2.3.6 1.3-4.5 2.5-9 3.8-13.6 1.6-5.9 3.3-11.8 4.9-17.7.1-.3.2-.7.3-1-.4.3-.8.6-1.1.9h32.4c-.4-.3-.8-.6-1.1-.9 1.3 4.5 2.5 9 3.8 13.6 1.6 5.9 3.3 11.8 4.9 17.7.1.3.2.7.3 1 .3 1.5 2.5.8 2.1-.6z"/><path class="st1" d="M81.3 40.9c0 2.2-1 4.6-2.4 6.4-.7.8-1.6 1.6-2.5 2-1 .4-1.8.4-2.8 0-1.9-.7-3.5-3-4.3-4.9-.9-2.2-1.1-4.5.1-6.6 1.4-2.5 4.4-3.7 7.2-3 2.8.7 4.7 3.3 4.7 6.1 0 1.5 2.4 1.5 2.4 0 0-2.8-1.3-5.3-3.5-7-2.2-1.6-5-2.1-7.6-1.4-2.6.7-4.6 2.7-5.7 5.2-1 2.4-.6 5.2.3 7.5 1.5 3.8 5.4 8 9.9 6.2 2.1-.8 3.6-2.5 4.7-4.3 1.1-1.9 1.8-4.1 1.9-6.3 0-1.4-2.4-1.4-2.4.1z"/><path class="st1" d="M88.9 61.2v6l1.2-1.2H59.9l1.2 1.2v-3.5c0-1.2-.1-2.6.1-3.7.4-2.1 1.8-3.8 3.6-4.7 1.4-.7 3-.6 4.6-.6-.3-.2-.7-.4-1-.6 1.9 2.5 3.7 5.1 5.6 7.6.6.8 1.5.8 2 0 1.8-2.5 3.7-5.1 5.5-7.6-.3.2-.7.4-1 .6h1.8c1.2 0 2.3.3 3.3.9 2.1 1.1 3.3 3.3 3.3 5.6 0 1.5 2.4 1.5 2.4 0 0-2.7-1.2-5.3-3.3-6.9-1.1-.8-2.3-1.4-3.6-1.8-1-.2-2-.2-3-.2h-.8c-.5 0-.8.3-1.1.7-.3.4-.6.8-.9 1.3-1 1.4-2.1 2.8-3.1 4.3-.5.7-1 1.3-1.4 2h2c-1.7-2.3-3.3-4.5-5-6.8-.2-.3-.4-.6-.6-.8-.6-.8-1.7-.6-2.6-.6-2.5 0-4.9.9-6.6 2.8a8.24 8.24 0 0 0-2.2 4.1c-.2.9-.2 1.9-.2 2.8v5.2c0 .6.5 1.2 1.2 1.2h30.2c.6 0 1.2-.5 1.2-1.2v-6c-.3-1.7-2.6-1.7-2.6-.1zM120.1 58.8c0 2.3-1.2 4.4-3.2 5.7-2 1.2-4.6 1.3-6.6.1-2-1.1-3.3-3.2-3.4-5.5s1-4.5 2.9-5.8c2-1.4 4.7-1.5 6.8-.3 2.2 1.1 3.5 3.4 3.5 5.8 0 1.5 2.4 1.5 2.4 0 0-2.7-1.2-5.2-3.3-6.9-2.2-1.8-5-2.4-7.7-1.8-2.6.5-4.8 2.3-6 4.7-1.3 2.5-1.3 5.4-.1 7.9 1.7 3.8 6.1 5.8 10.1 4.9 4.1-.9 6.9-4.7 7-8.8 0-1.5-2.4-1.5-2.4 0zM123.8 89.5h-20.6l1.2 1.2v-8.4c0-1.5.1-3 .7-4.5 1-2.2 2.7-3.9 4.9-4.9 2.2-1 4.8-.9 7-.1s3.9 2.6 4.9 4.7c.7 1.4.8 3 .8 4.6v8.5c0 1.5 2.4 1.5 2.4 0v-8.4c0-1.7-.1-3.4-.7-5-.9-2.5-2.7-4.5-5-5.9-4.7-2.8-10.9-1.7-14.5 2.3-1.8 2-2.8 4.6-2.9 7.3v9.6c0 .6.5 1.2 1.2 1.2h20.6c1.5.2 1.5-2.2 0-2.2z"/><path class="st0" d="M81.3 88.1c0 2.2-1 4.6-2.4 6.4-.7.8-1.6 1.6-2.5 2-1 .4-1.8.4-2.8 0-1.9-.7-3.5-3-4.3-4.9-.9-2.2-1.1-4.5.1-6.6 1.4-2.5 4.4-3.7 7.2-3 2.8.7 4.7 3.3 4.7 6.1 0 1.5 2.4 1.5 2.4 0 0-2.8-1.3-5.3-3.5-7-2.2-1.6-5-2.1-7.6-1.4s-4.6 2.7-5.7 5.2c-1 2.4-.6 5.2.3 7.5 1.5 3.8 5.4 8 9.9 6.2 2.1-.8 3.6-2.5 4.7-4.3 1.1-1.9 1.8-4.1 1.9-6.3 0-1.5-2.4-1.4-2.4.1zM88.9 110.6v6l1.2-1.2H59.9l1.2 1.2v-4c0-1.5-.1-3.1.5-4.5.9-2.1 2.9-3.7 5.1-4 .9-.1 1.9-.1 2.8-.1H82.3c2.2 0 4.2 1.1 5.4 2.9.8 1.1 1.2 2.3 1.2 3.7 0 1.5 2.4 1.5 2.4 0 0-2.7-1.2-5.3-3.3-6.9-1.7-1.3-3.7-2-5.8-2H68.8c-1.3 0-2.5 0-3.7.4-2.6.8-4.7 2.8-5.7 5.2-.7 1.6-.6 3.3-.6 5v4.3c0 .6.5 1.2 1.2 1.2h30.2c.6 0 1.2-.5 1.2-1.2v-6c-.2-1.6-2.5-1.6-2.5 0z"/></svg>