<svg id="Layer_1" xmlns="http://www.w3.org/2000/svg" viewBox="0 0 150 150"><style>.st0{fill:#703081}.st1{fill:#df6b90}</style><path class="st0" d="M75 0C33.6 0 0 33.6 0 75s33.6 75 75 75 75-33.6 75-75S116.4 0 75 0zm0 3.1c39.7 0 71.9 32.2 71.9 71.9s-32.2 71.9-71.9 71.9S3.1 114.7 3.1 75 35.3 3.1 75 3.1z" id="Layer_2"/><path class="st0" d="M72.8 57.7h4.5V125h-4.5zM61.3 68.7C55.7 64.5 52.6 58 52.6 51c0-6.7 2.9-13 8.1-17.3l2.9 3.4c-4.3 3.6-6.5 8.5-6.5 13.9 0 5.6 2.5 10.8 7.2 14.3l-3 3.4zM88.5 68.7l-2.7-3.6c4.5-3.4 7.2-8.5 7.2-14.3 0-5.4-2.2-10.3-6.5-13.7l2.9-3.4c5.2 4.3 8.1 10.5 8.1 17.3-.3 7-3.4 13.5-9 17.7z"/><path class="st1" d="M75 60c-4.9 0-9-4-9-9s4-9 9-9 9 4 9 9-4.1 9-9 9zm0-13.5c-2.5 0-4.5 2-4.5 4.5s2 4.5 4.5 4.5 4.5-2 4.5-4.5-2-4.5-4.5-4.5z"/><g><path class="st1" d="M54.7 77.7c-8.3-6.5-13.2-16.4-13.2-26.9 0-10.1 4.5-19.3 12.1-25.8l2.9 3.4C49.8 34 46 42 46 50.8c0 9.2 4.3 17.7 11.4 23.1l-2.7 3.8zM95.3 77.7l-2.7-3.6C100 68.5 104 60 104 51c0-8.7-3.8-16.8-10.5-22.4l2.9-3.4c7.6 6.5 12.1 15.9 12.1 25.8 0 10.3-4.7 20.2-13.2 26.7z"/></g></svg>