<svg id="Layer_1" xmlns="http://www.w3.org/2000/svg" viewBox="0 0 150 166.8"><style>.st0{fill:#703081}.st1{fill:#9b75a6}</style><path class="st0" d="M75 0C33.6 0 0 33.6 0 75c0 39.2 30.2 71.4 68.6 74.8L56.4 162c-1 1-1 2.8 0 4 .6.6 1.2.8 2 .8s1.4-.2 2-.8L77 149.4c.2-.2.4-.6.6-1 .2-.6.2-1.4 0-2.2-.2-.4-.4-.6-.6-1l-16.6-16.6c-1-1-2.8-1-4 0s-1 2.8 0 4L68 144.2C33 140.6 5.6 111 5.6 75 5.6 36.8 36.8 5.6 75 5.6s69.4 31.2 69.4 69.4c0 18.4-7.2 35.8-20.2 48.8-1 1-1 2.8 0 4 1 1 2.8 1 4 0C142.2 113.6 150 95 150 75c0-41.2-33.6-75-75-75z" id="Layer_2"/><path class="st1" d="M37.5 118.4c-6.9 0-12.5-5.6-12.5-12.5s5.6-12.5 12.5-12.5S50 99 50 105.9s-5.6 12.5-12.5 12.5zm0-16.7c-2.3 0-4.2 1.9-4.2 4.2s1.9 4.2 4.2 4.2 4.2-1.9 4.2-4.2-1.9-4.2-4.2-4.2zM75 118.4c-6.9 0-12.5-5.6-12.5-12.5S68.1 93.4 75 93.4s12.5 5.6 12.5 12.5-5.6 12.5-12.5 12.5zm0-16.7c-2.3 0-4.2 1.9-4.2 4.2s1.9 4.2 4.2 4.2 4.2-1.9 4.2-4.2-1.9-4.2-4.2-4.2zm37.5 16.7c-6.9 0-12.5-5.6-12.5-12.5s5.6-12.5 12.5-12.5S125 99 125 105.9s-5.6 12.5-12.5 12.5zm0-16.7c-2.3 0-4.2 1.9-4.2 4.2s1.9 4.2 4.2 4.2 4.2-1.9 4.2-4.2-1.9-4.2-4.2-4.2zM75 118.4c-6.9 0-12.5-5.6-12.5-12.5S68.1 93.4 75 93.4s12.5 5.6 12.5 12.5-5.6 12.5-12.5 12.5zm0-16.7c-2.3 0-4.2 1.9-4.2 4.2s1.9 4.2 4.2 4.2 4.2-1.9 4.2-4.2-1.9-4.2-4.2-4.2zm0-58.3c-6.9 0-12.5-5.6-12.5-12.5S68.1 18.4 75 18.4 87.5 24 87.5 30.9 81.9 43.4 75 43.4zm0-16.7c-2.3 0-4.2 1.9-4.2 4.2s1.9 4.2 4.2 4.2 4.2-1.9 4.2-4.2-1.9-4.2-4.2-4.2zm0 75c-2.3 0-4.2-1.9-4.2-4.2V39.2c0-2.3 1.9-4.2 4.2-4.2s4.2 1.9 4.2 4.2v58.3c0 2.4-1.9 4.2-4.2 4.2zm37.5 0c-2.3 0-4.2-1.9-4.2-4.2V76.7H41.6v20.8c0 2.3-1.9 4.2-4.2 4.2-2.3 0-4.2-1.9-4.2-4.2V76.7c0-4.6 3.7-8.3 8.3-8.3h66.6c4.6 0 8.3 3.7 8.3 8.3v20.8c.3 2.4-1.6 4.2-3.9 4.2z"/></svg>