<svg id="Layer_1" xmlns="http://www.w3.org/2000/svg" viewBox="0 0 150 104.4"><style>.st0{fill:#df6b90}.st1{fill:#703081}</style><ellipse transform="rotate(-45.017 75.227 66.824)" class="st0" cx="75.2" cy="66.8" rx="7.7" ry="7.7"/><path class="st1" d="M81.8 47.7c-2.1-.6-4.3-1.1-6.4-1.1-5.1 0-10.2 1.9-14.2 5.9-1.1 1.1-1.1 3 0 4.2.6.6 1.3.8 2.1.8s1.6-.3 2.1-.8c2.7-2.7 6.4-4.2 10.1-4.2 1.6 0 3 .3 4.5.8 2.1.6 3.8 1.8 5.4 3.4 1.1 1.1 3 1.1 4.2 0 1.1-1.1 1.1-3 0-4.2-2.4-2.2-4.9-3.8-7.8-4.8z"/><path class="st0" d="M75.2 33.6c-8.5 0-17 3.2-23.4 9.8-1.1 1.1-1.1 3 0 4.2.6.6 1.3.8 2.1.8s1.4-.3 2.1-.8c5.3-5.3 12.2-8 19.2-8s13.9 2.7 19.2 8c1.1 1.1 3 1.1 4.2 0 1.1-1.1 1.1-3 0-4.2-6.4-6.4-14.9-9.8-23.4-9.8z"/><path class="st1" d="M76.7 20.3c-12.2 0-24.5 4.8-34.3 14.1-1.1 1.1-1.3 3-.2 4.2.6.6 1.4 1 2.1 1 .8 0 1.4-.3 2.1-.8 8.6-8.3 19.5-12.5 30.3-12.5 10.1 0 19.9 3.7 27.1 11.2 1.1 1.1 3 1.3 4.2.2 1.1-1.1 1.3-3 .2-4.2-8.6-8.8-20-13.2-31.5-13.2z"/><path class="st1" d="M141.7 87.4h-5.3V5.6c0-3.2-2.6-5.6-5.6-5.6H19.4c-3.2 0-5.6 2.6-5.8 5.6v81.8H8.5c-4.6 0-8.5 3.8-8.5 8.5s3.8 8.5 8.5 8.5h133.2c4.6 0 8.3-3.7 8.3-8.5s-3.7-8.5-8.3-8.5zM19.2 5.6c0-.2.2-.2.2-.2h111.4c.2 0 .2.2.2.2v81.8H19.2V5.6zm68.4 93.7h-25c-1.9 0-3.4-1.4-3.4-3.4s1.4-3.4 3.4-3.4h25c1.9 0 3.4 1.4 3.4 3.4-.1 1.8-1.5 3.4-3.4 3.4z"/></svg>