<svg id="Layer_1" xmlns="http://www.w3.org/2000/svg" viewBox="0 0 150 114"><style>.st0{fill:#df6b90}.st1{fill:#703081}</style><circle class="st0" cx="84.1" cy="102.1" r="2.4"/><circle class="st0" cx="75.1" cy="102.1" r="2.4"/><circle class="st0" cx="66.1" cy="102.1" r="2.4"/><path class="st1" d="M147.4 90.3H141V20.8C141 4.3 127.5 0 120.2 0H29.9C22.6 0 9.1 4.4 9.1 20.8v69.7H2.8c-1.5 0-2.8 1.3-2.8 2.8 0 7.3 4.4 20.8 20.8 20.8h108.5c16.5 0 20.8-13.5 20.8-20.8 0-1.6-1.2-3-2.7-3zM14.5 20.8c0-14.9 13.8-15.4 15.4-15.4h90.4c1.6 0 15.4.5 15.4 15.4v69.7H14.5V20.8zm114.9 87.7H20.8c-11.4 0-14.3-8.1-15.1-12.6h138.7c-.8 4.3-3.7 12.6-15 12.6z"/><g><path class="st0" d="M97.7 57.5c1 0 1.9-.8 1.9-1.9V41.4c0-1-.8-1.9-1.9-1.9s-1.9.8-1.9 1.9v12.3h-2.5V22.6c0-4.6-3.8-8.4-8.4-8.4H65.1c-4.6 0-8.4 3.8-8.4 8.4v31.1h-2.5V41.4c0-1-.8-1.9-1.9-1.9s-1.9.8-1.9 1.9v14.2c0 1 .8 1.9 1.9 1.9H57c.9 3.8 4.3 6.4 8.1 6.5h8.1v6.4l-13 3.5c-1 .3-1.6 1.3-1.3 2.3s1.3 1.6 2.3 1.3l12.1-3.3V76c0 1 .8 1.9 1.9 1.9 1 0 1.9-.8 1.9-1.9v-1.7l11.4 3.1c1 .3 2-.3 2.3-1.3s-.3-2-1.3-2.3L77 70.4V64h8.1c3.9 0 7.3-2.7 8.2-6.5h4.4zm-12.8 2.7H65.1c-2.6.1-4.8-1.8-4.9-4.4-.2-2.6 1.8-4.8 4.4-4.9H85c2.6-.1 4.8 1.8 4.9 4.4.1 2.6-1.8 4.8-4.4 4.9h-.6zm4.7-11.6c-1.4-.9-3-1.4-4.7-1.4H65.1c-1.7 0-3.3.5-4.7 1.4v-26c0-2.6 2.1-4.7 4.7-4.7H85c2.6 0 4.7 2.1 4.7 4.7v26z"/><path class="st1" d="M80.1 26.1H69.3c-1 0-1.9.8-1.9 1.9s.8 1.9 1.9 1.9H80c1 0 1.9-.8 1.9-1.9s-.8-1.9-1.8-1.9zM80.1 35.4H69.3c-1 0-1.9.8-1.9 1.9s.8 1.9 1.9 1.9H80c1 0 1.9-.8 1.9-1.9s-.8-1.9-1.8-1.9z"/><circle class="st1" cx="61" cy="81.7" r="2.5"/><circle class="st1" cx="75.2" cy="81.7" r="2.5"/><circle class="st1" cx="89.3" cy="81.7" r="2.5"/></g></svg>