<svg id="Layer_1" xmlns="http://www.w3.org/2000/svg" viewBox="0 0 110 110.3"><style>.st0{fill:#703081}.st1{fill:#d8427d}</style><path class="st0" d="M93.6 0h-77C7.4 0 0 7.4 0 16.6V75c0 9.2 7.4 16.6 16.6 16.6h36.6v15.1h-16c-1 0-1.8.8-1.8 1.8s.8 1.8 1.8 1.8h35.5c1 0 1.8-.8 1.8-1.8s-.8-1.8-1.8-1.8h-16V91.6h36.6c9.2 0 16.6-7.4 16.6-16.6V16.6C110.2 7.4 102.8 0 93.6 0zm9.2 84.2c-2.4 2.4-5.6 3.8-9.2 3.8h-77c-3.6 0-6.9-1.5-9.2-3.8C5 81.8 3.6 78.6 3.6 75v-4.7h103.1V75c-.1 3.6-1.5 6.8-3.9 9.2zm3.9-17.5H3.5v-50c0-3.7 1.5-7 3.8-9.3 2.4-2.4 5.6-3.8 9.2-3.8h77c3.6 0 6.9 1.5 9.2 3.8 2.4 2.4 3.8 5.6 3.8 9.2l.2 50.1z"/><path class="st1" d="M72.8 33.7H70c-.5-1.8-1.1-3.4-2-4.9l2.4-2.4c.2-.2.3-.5.3-.6 0-.2-.1-.5-.3-.6l-3.3-3.3c-.3-.3-.9-.3-1.3 0l-2.4 2.7c-1.4-.8-2.8-1.5-4.4-1.8v-3c0-.5-.5-.9-.9-.9h-4.4c-.5 0-.9.5-.9.9v3c-1.8.2-3.4.9-4.8 1.8l-2.7-2.7c-.3-.3-.9-.3-1.3 0l-3.3 3.2c-.2.2-.3.5-.3.6s.1.5.3.6l2.6 2.6c-.9 1.5-1.7 3.2-2.1 4.9h-2.8c-.5 0-.9.5-.9.9v4.6c0 .5.5.9.9.9h2.8c.3 1.6.9 3 1.8 4.4l-2.2 2.3c-.2.2-.3.5-.3.6 0 .2.1.5.3.6l3.3 3.3c.2.2.5.3.6.3s.5-.1.6-.3l2.2-2.2c1.5.9 3.2 1.7 5 2.1V54c0 .5.5.9.9.9H58c.5 0 .9-.5.9-.9v-2.7c1.7-.5 3.4-1.1 4.8-2l1.9 1.9c.2.2.5.3.6.3.2 0 .5-.1.6-.3L70 48c.2-.2.3-.5.3-.6 0-.2-.1-.5-.3-.6l-2-2.2c.8-1.4 1.5-2.8 1.8-4.4h2.8c.5 0 .9-.5.9-.9v-4.6c.3-.5-.1-1-.7-1zM55.5 46c-4.9 0-9-4-9-9s4-9 9-9 9 4 9 9-3.8 9-9 9zM24.1 35.2h9.6v3.4h-9.6zM78.2 40.4h8v3.3h-8zM78.1 35h5.8v3.4h-5.8zM28 40.6h5.8V44H28zM28.9 30h5.7v3.3h-5.7zM78.2 30H85v3.3h-6.8z"/></svg>