<svg id="Layer_1" xmlns="http://www.w3.org/2000/svg" viewBox="0 0 150 150"><style>.st0{fill:#703081}.st1{fill:#df6b90}</style><path class="st0" d="M113.4 20H36.6C27.4 20 20 27.4 20 36.6v58.2c0 9.2 7.4 16.6 16.6 16.6h36.6v15.1h-16c-1 0-1.8.8-1.8 1.8s.8 1.8 1.8 1.8h35.5c1 0 1.8-.8 1.8-1.8s-.8-1.8-1.8-1.8h-16v-15.1h36.6c9.2 0 16.6-7.4 16.6-16.6V36.6c.1-9.2-7.3-16.6-16.5-16.6zm9.2 84c-2.4 2.4-5.6 3.8-9.2 3.8H36.6c-3.6 0-6.9-1.5-9.2-3.8-2.4-2.4-3.8-5.6-3.8-9.2v-4.7h102.9v4.7c-.1 3.6-1.5 6.8-3.9 9.2zm3.9-17.5h-103V36.6c0-3.6 1.5-6.9 3.8-9.2 2.4-2.4 5.6-3.8 9.2-3.8h76.8c3.6 0 6.9 1.5 9.2 3.8 2.4 2.4 3.8 5.6 3.8 9.2l.2 49.9z"/><path class="st1" d="M92.6 53.7h-2.8c-.5-1.8-1.1-3.4-2-4.9l2.4-2.4c.2-.2.3-.5.3-.6 0-.2-.1-.5-.3-.6l-3.3-3.3c-.3-.3-.9-.3-1.3 0l-2.4 2.7c-1.4-.8-2.8-1.5-4.4-1.8v-3c0-.5-.5-.9-.9-.9h-4.4c-.5 0-.9.5-.9.9v3c-1.6.2-3.2.9-4.6 1.8l-2.7-2.7c-.3-.3-.9-.3-1.3 0l-3.3 3.2c-.2.2-.3.5-.3.6s.1.5.3.6l2.6 2.6c-.9 1.5-1.7 3.2-2.1 4.9h-2.8c-.5 0-.9.5-.9.9v4.6c0 .5.5.9.9.9h2.8c.3 1.6.9 3 1.8 4.4l-2.2 2.3c-.2.2-.3.5-.3.6 0 .2.1.5.3.6l3.3 3.3c.2.2.5.3.6.3s.5-.1.6-.3l2.2-2.2c1.5.9 3.2 1.7 5 2.1V74c0 .5.5.9.9.9H78c.5 0 .9-.5.9-.9v-2.7c1.7-.5 3.4-1.1 4.8-2l1.9 1.9c.2.2.5.3.6.3.2 0 .5-.1.6-.3L90 68c.2-.2.3-.5.3-.6 0-.2-.1-.5-.3-.6l-2-2.2c.8-1.4 1.5-2.8 1.8-4.4h2.8c.5 0 .9-.5.9-.9v-4.6c.1-.5-.3-1-.9-1zM75.5 66c-4.9 0-9-4-9-9s4-9 9-9 9 4 9 9-4 9-9 9zM44.1 55.2h9.6v3.4h-9.6zM98 60.4h8v3.3h-8zm-.1-5.4h5.8v3.4h-5.8zM48 60.6h5.8V64H48zm.9-10.6h5.7v3.3h-5.7zM98 50h6.8v3.3H98z"/></svg>