<svg id="Layer_1" xmlns="http://www.w3.org/2000/svg" viewBox="0 0 150 114"><style>.st0{fill:#df6b90}.st1{fill:#703081}</style><circle class="st0" cx="84.1" cy="102.1" r="2.4"/><circle class="st0" cx="75.1" cy="102.1" r="2.4"/><circle class="st0" cx="66.1" cy="102.1" r="2.4"/><path class="st1" d="M147.4 90.3H141V20.8C141 4.3 127.5 0 120.2 0H29.9C22.6 0 9.1 4.4 9.1 20.8v69.7H2.8c-1.5 0-2.8 1.3-2.8 2.8 0 7.3 4.4 20.8 20.8 20.8h108.5c16.5 0 20.8-13.5 20.8-20.8 0-1.6-1.2-3-2.7-3zM14.5 20.8c0-14.9 13.8-15.4 15.4-15.4h90.4c1.6 0 15.4.5 15.4 15.4v69.7H14.5V20.8zm114.9 87.7H20.8c-11.4 0-14.3-8.1-15.1-12.6h138.7c-.8 4.3-3.7 12.6-15 12.6z"/><g><path class="st0" d="M51.2 973.6c-.6.1-1.2.6-1.2 1.2v51.2c0 .6.6 1.2 1.2 1.2h47.7c.7 0 1.2-.5 1.2-1.2v-40.5c0-.7-.5-1.2-1.2-1.2H83.3v-9.5c0-.6-.6-1.2-1.2-1.2H51.2zm1.2 2.4H81v48.8h-9.5v-6c0-.6-.6-1.2-1.2-1.2h-7.1c-.7 0-1.2.7-1.2 1.2v6h-9.5c-.1 0-.1-48.8-.1-48.8zm3.6 2.3c-.7 0-1.2.7-1.2 1.2v8.3c0 .6.6 1.2 1.2 1.2h8.3c.6 0 1.2-.6 1.2-1.2v-8.3c0-.6-.6-1.2-1.2-1.2H56zm13 0c-.7 0-1.2.7-1.2 1.2v8.3c0 .6.6 1.2 1.2 1.2h8.3c.6 0 1.2-.6 1.2-1.2v-8.3c0-.6-.6-1.2-1.2-1.2H69zm-11.9 2.4h6v6h-6v-6zm13.1 0h6v6h-6v-6zm13.1 6h14.3v38.1H83.3v-38.1zm3.6 2.4c-.6 0-1.2.7-1.2 1.2v7.1c0 .6.6 1.2 1.2 1.2H94c.6 0 1.2-.6 1.2-1.2v-7.1c0-.6-.6-1.2-1.2-1.2h-7.1zM56 991.4c-.7 0-1.2.7-1.2 1.2v8.3c0 .6.6 1.2 1.2 1.2h8.3c.6 0 1.2-.6 1.2-1.2v-8.3c0-.6-.6-1.2-1.2-1.2H56zm13 0c-.7 0-1.2.7-1.2 1.2v8.3c0 .6.6 1.2 1.2 1.2h8.3c.6 0 1.2-.6 1.2-1.2v-8.3c0-.6-.6-1.2-1.2-1.2H69zm19.1 0h4.8v4.8h-4.8v-4.8zm-31 2.4h6v6h-6v-6zm13.1 0h6v6h-6v-6zm16.7 7.2c-.6 0-1.2.7-1.2 1.2v7.1c0 .6.6 1.2 1.2 1.2H94c.6 0 1.2-.6 1.2-1.2v-7.1c0-.6-.6-1.2-1.2-1.2h-7.1zm1.2 2.3h4.8v4.8h-4.8v-4.8zm-32.1 1.2c-.7 0-1.2.7-1.2 1.2v8.3c0 .6.6 1.2 1.2 1.2h8.3c.6 0 1.2-.6 1.2-1.2v-8.3c0-.6-.6-1.2-1.2-1.2H56zm13 0c-.7 0-1.2.7-1.2 1.2v8.3c0 .6.6 1.2 1.2 1.2h8.3c.6 0 1.2-.6 1.2-1.2v-8.3c0-.6-.6-1.2-1.2-1.2H69zm-11.9 2.4h6v6h-6v-6zm13.1 0h6v6h-6v-6zm16.7 6c-.6 0-1.2.7-1.2 1.2v7.1c0 .6.6 1.2 1.2 1.2H94c.6 0 1.2-.6 1.2-1.2v-7.1c0-.6-.6-1.2-1.2-1.2h-7.1zm1.2 2.3h4.8v4.8h-4.8v-4.8zm-23.8 4.8H69v4.8h-4.8v-4.8z" transform="translate(0 -952.362)"/></g></svg>