<svg id="Layer_1" xmlns="http://www.w3.org/2000/svg" viewBox="0 0 150 150"><style>.st0{fill:#703081}.st1{fill:#f2ba59}.st2{fill:none}</style><g id="Layer_1_1_"><path class="st0" d="M131.1 55.1c.1-.9.1-1.6.1-2.5 0-11.6-9.5-21.1-21.1-21.1-1.5 0-2.9.1-4.4.5-4.6-12.9-17-21.6-30.8-21.6s-26.1 8.8-30.8 21.5c-1.4-.3-2.9-.5-4.4-.5-11.6 0-21.1 9.5-21.1 21.1 0 .7 0 1.6.1 2.5C8.3 56.1 0 65.1 0 76c0 11.6 9.5 21.1 21.1 21.1h18.8v-4.8H21.1c-9 0-16.4-7.4-16.4-16.4s7.4-16.4 16.6-16.4h.4c.7 0 1.5-.3 1.9-.9.5-.6.6-1.4.5-2-.4-1.4-.5-2.8-.5-4.1 0-9 7.4-16.4 16.4-16.4 1.8 0 3.5.3 5.1.9.6.3 1.3.1 1.9-.1.6-.3 1-.8 1.1-1.4 3.3-12 14.4-20.4 26.9-20.4s23.6 8.4 27 20.4c.1.6.6 1.1 1.1 1.4.6.3 1.3.4 1.9.1 1.6-.5 3.4-.9 5.1-.9 9 0 16.4 7.4 16.4 16.4 0 1.4-.1 2.8-.5 4.1-.1.8 0 1.5.5 2 .5.6 1.1.9 1.9.9h.5c9 0 16.4 7.4 16.4 16.4s-7.4 16.4-16.4 16.4h-18.8V97h18.8c11.6 0 21.1-9.5 21.1-21.1 0-10.8-8.2-19.8-18.9-20.8z"/><path class="st1" d="M56.3 43.2h-4.8C51.5 30.4 62 19.7 75 19.7v4.8c-10.4 0-18.7 8.4-18.7 18.7z"/></g><path class="st2" d="M73.4 84.8c-.7 0-1.3.6-1.3 1.3-.1-.8.5-1.3 1.3-1.3s1.3.6 1.3 1.3c-.1-.8-.7-1.3-1.3-1.3zM72 86c0 .7.6 1.3 1.3 1.3-.7.1-1.3-.5-1.3-1.3zM73.4 87.4c.7 0 1.3-.6 1.3-1.3-.1.7-.7 1.3-1.3 1.3z"/><g><path class="st1" d="M83.5 94.3l1.8-2.1c-.2-.4-.4-.7-.7-1.1l-2.6.5c-.3-.4-.6-.7-1-1l.5-2.7c-.4-.2-.7-.4-1.1-.7L78.3 89c-.4-.1-.9-.3-1.3-.4l-.9-2.5h-1.4l-.9 2.5c-.4.1-.9.2-1.3.4l-2.1-1.8c-.4.2-.7.4-1.1.7l.5 2.7c-.4.3-.7.6-1 1l-2.7-.5c-.2.4-.4.7-.7 1.1l1.8 2.1c-.1.4-.3.9-.4 1.3l-2.5.9v1.4l2.5.9c.1.4.2.9.4 1.3l-1.8 2c.2.4.4.7.7 1.1l2.7-.5c.3.4.6.7 1 1l-.5 2.7c.4.2.7.4 1.1.7l2.1-1.8c.4.1.9.3 1.3.4l.9 2.5h1.4l.9-2.5c.4-.1.9-.2 1.3-.4l2.1 1.8c.4-.2.7-.4 1.1-.7l-.5-2.7c.4-.3.7-.6 1-1l2.7.5c.2-.4.4-.7.7-1.1l-1.8-2.1c.1-.4.3-.9.4-1.3l2.5-.9v-.7-.7l-2.5-.9c-.2-.3-.3-.8-.5-1.2zm-8.1 8.6c-3.1 0-5.8-2.5-5.8-5.8 0-3.1 2.5-5.8 5.8-5.8 3.2 0 5.8 2.5 5.8 5.8-.1 3.3-2.7 5.8-5.8 5.8z"/><path class="st0" d="M100.5 98.6c0-.5.1-1 .1-1.5s0-1-.1-1.5l-5.8-2c-.1-1-.4-2-.8-3l4-4.6c-.4-.9-1-1.7-1.5-2.5l-6.1 1.1c-.7-.8-1.4-1.5-2.2-2.2l1.1-6.1c-.8-.5-1.6-1-2.5-1.5l-4.6 4c-1-.4-1.9-.6-3-.8l-2-5.8c-.5 0-1-.1-1.5-.1s-1 0-1.5.1l-2 5.8c-1 .2-2 .4-3 .8l-4.6-4c-.9.4-1.7 1-2.5 1.5l1.1 6.1c-.8.7-1.5 1.4-2.2 2.2l-6.1-1.1c-.5.8-1 1.6-1.5 2.5l4 4.6c-.4 1-.6 2-.8 3l-5.6 2c0 .5-.1 1-.1 1.5s0 1 .1 1.5l5.8 2c.2 1 .4 2 .8 3l-4 4.6c.4.9 1 1.7 1.5 2.5l6.1-1.1c.7.8 1.4 1.5 2.2 2.2l-1.1 6.1c.8.5 1.6 1 2.5 1.5l4.6-4c1 .4 1.9.6 3 .8l2 5.8c.5 0 1 .1 1.5.1s1 0 1.5-.1l2-5.8c1-.1 2-.4 3-.8l4.6 4c.9-.4 1.7-1 2.5-1.5l-1.1-6.1c.8-.7 1.5-1.4 2.2-2.2l6.1 1.1c.5-.8 1-1.6 1.5-2.5l-4-4.6c.4-1 .6-2 .8-3l5.6-2zm-10.2-1.5c0 8.1-6.7 14.8-14.8 14.8s-14.8-6.7-14.8-14.8 6.7-14.8 14.8-14.8S90.3 89 90.3 97.1z"/></g></svg>