<svg id="Layer_1" xmlns="http://www.w3.org/2000/svg" viewBox="0 0 150 150"><style>.st0{fill:#d8427d}</style><path class="st0" d="M104.3 53.9H45.7c-.6 0-1.2.5-1.2 1.2v35.2c0 .6.5 1.2 1.2 1.2h58.6c.6 0 1.2-.5 1.2-1.2V55.1c0-.7-.6-1.2-1.2-1.2zm-1.2 35.2h-8.2V70.3c0-.6-.5-1.2-1.2-1.2s-1.2.5-1.2 1.2v18.8h-7v-5.9c0-.6-.5-1.2-1.2-1.2s-1.2.5-1.2 1.2v5.9h-7V75c0-.6-.5-1.2-1.2-1.2s-1.2.5-1.2 1.2v14.1h-7v-4.7c0-.6-.5-1.2-1.2-1.2s-1.2.5-1.2 1.2v4.7h-7c0-.3-.1-.6-.3-.8s-.5-.3-.8-.3-.6.1-.8.3-.3.5-.3.8h-8.2V56.3h56.3v32.8z"/><path class="st0" d="M111.3 93.8h-1.2V54.6c0-3-2.4-5.4-5.4-5.4H45.2c-3 0-5.4 2.4-5.4 5.4v39.1h-1.2c-.6 0-1.2.5-1.2 1.2v1.2c0 2.6 2.1 4.7 4.7 4.7h65.6c2.6 0 4.7-2.1 4.7-4.7v-1.2c.1-.6-.4-1.1-1.1-1.1zM42.2 54.6c0-1.7 1.4-3 3.1-3h59.5c1.7 0 3.1 1.4 3.1 3v39.1H42.2V54.6zm65.6 43.8H42.2c-1.3 0-2.3-1.1-2.3-2.3h30.5c0 .6.5 1.2 1.2 1.2h7c.6 0 1.2-.5 1.2-1.2h30.5c-.1 1.3-1.2 2.3-2.5 2.3z"/><path class="st0" d="M56.3 85.5c1.9 0 3.5-1.6 3.5-3.5v-.4l3.4-1.7c.6.6 1.5 1 2.4 1 1.9 0 3.5-1.6 3.5-3.5 0-.5-.1-1.1-.3-1.5l4.7-4.7c.5.2 1 .3 1.5.3.6 0 1.2-.2 1.7-.5l4.4 3.8c-.2.4-.3.8-.3 1.3 0 1.9 1.6 3.5 3.5 3.5s3.5-1.6 3.5-3.5c0-.7-.2-1.4-.6-2l5.5-7.5c.3.1.7.1 1 .1 1.9 0 3.5-1.6 3.5-3.5s-1.6-3.5-3.5-3.5-3.5 1.6-3.5 3.5c0 .7.2 1.4.6 2l-5.5 7.5c-.3-.1-.7-.1-1-.1-.6 0-1.2.2-1.7.5l-4.4-3.8c.2-.4.3-.8.3-1.3 0-1.9-1.6-3.5-3.5-3.5S71.5 66 71.5 68c0 .5.1 1.1.3 1.5l-4.7 4.7c-.5-.2-1-.3-1.5-.3-1.9 0-3.5 1.6-3.5 3.5v.4l-3.4 1.7c-.6-.6-1.5-1-2.4-1-1.9 0-3.5 1.6-3.5 3.5s1.5 3.5 3.5 3.5zm37.5-23.4c.6 0 1.2.5 1.2 1.2s-.5 1.2-1.2 1.2-1.2-.5-1.2-1.2.5-1.2 1.2-1.2zM84.4 75c.6 0 1.2.5 1.2 1.2s-.5 1.2-1.2 1.2-1.2-.5-1.2-1.2.5-1.2 1.2-1.2zM75 66.8c.6 0 1.2.5 1.2 1.2s-.5 1.2-1.2 1.2-1.2-.5-1.2-1.2.6-1.2 1.2-1.2zm-9.4 9.4c.6 0 1.2.5 1.2 1.2s-.5 1.2-1.2 1.2-1.2-.5-1.2-1.2.6-1.2 1.2-1.2zm-9.3 4.7c.6 0 1.2.5 1.2 1.2s-.5 1.2-1.2 1.2-1.2-.5-1.2-1.2.5-1.2 1.2-1.2z"/></svg>