<svg id="Layer_1" xmlns="http://www.w3.org/2000/svg" viewBox="0 0 150 150"><style>.st0{fill:#703081}.st1,.st2{fill:#df6b90}.st2{display:none}</style><path class="st0" d="M75 0C33.6 0 0 33.6 0 75s33.6 75 75 75 75-33.6 75-75S116.4 0 75 0zm0 3.1c39.7 0 71.9 32.2 71.9 71.9s-32.2 71.9-71.9 71.9S3.1 114.7 3.1 75 35.3 3.1 75 3.1z" id="Layer_2"/><path class="st1" d="M48.4 112.2H30.6c-1.7 0-3-1.3-3-3s1.3-3 3-3h17.8c1.7 0 3 1.3 3 3-.2 1.7-1.3 3-3 3z"/><path class="st0" d="M111 130H46c-1.7 0-3-1.3-3-3s1.3-3 3-3h65c1.7 0 3 1.3 3 3s-1.3 3-3 3z"/><path class="st1" d="M83.8 112.2H66.1c-1.7 0-3-1.3-3-3s1.3-3 3-3h17.8c1.7 0 3 1.3 3 3-.1 1.7-1.4 3-3.1 3zM119.4 112.2h-17.8c-1.7 0-3-1.3-3-3s1.3-3 3-3h17.8c1.7 0 3 1.3 3 3-.1 1.7-1.4 3-3 3z"/><path class="st2" d="M57.2 65v23.7H33.6V65h23.6m0-6H33.6c-3.3 0-5.9 2.7-5.9 5.9v23.7c0 3.2 2.7 5.9 5.9 5.9h23.7c3.3 0 5.9-2.7 5.9-5.9V65c-.1-3.2-2.8-6-6-6z"/><g><circle class="st1" cx="75" cy="36.3" r="16.3"/><path class="st1" d="M75 59c-10.3 0-19.4 4.8-27.5 13.6-6.4 7-1.5 18.5 7.9 18.5h39c9.4 0 14.8-11.8 7.9-18.5C94.4 63.9 85 59 75 59z"/></g></svg>