<svg id="Layer_1" xmlns="http://www.w3.org/2000/svg" viewBox="0 0 150 150"><style>.st0{fill:#703081}.st1{fill:#d8427d}</style><path class="st0" d="M118.8 38.3H23c-4.4 0-8 3.6-8 8v55.9c0 4.4 3.6 8 8 8h57.9c1.1 0 2-.9 2-2s-.9-2-2-2H23c-2.2 0-4-1.8-4-4V46.3c0-2.2 1.8-4 4-4h95.8c2.2 0 4 1.8 4 4v22c0 1.1.9 2 2 2s2-.9 2-2v-22c0-4.4-3.6-8-8-8z"/><path class="st1" d="M41 86.2H29c-1.1 0-2-.9-2-2s.9-2 2-2h12c1.1 0 2 .9 2 2-.1 1.1-.9 2-2 2z"/><path class="st0" d="M72.9 98.2H29c-1.1 0-2-.9-2-2s.9-2 2-2h43.9c1.1 0 2 .9 2 2s-.9 2-2 2z"/><path class="st1" d="M64.9 86.2h-12c-1.1 0-2-.9-2-2s.9-2 2-2h12c1.1 0 2 .9 2 2s-.9 2-2 2zM88.9 86.2h-12c-1.1 0-2-.9-2-2s.9-2 2-2h12c1.1 0 2 .9 2 2s-.9 2-2 2zM46.9 54.3v16H31v-16h15.9m0-4H31c-2.2 0-4 1.8-4 4v16c0 2.2 1.8 4 4 4h16c2.2 0 4-1.8 4-4v-16c-.1-2.2-1.9-4-4.1-4z"/><g><path class="st0" d="M117.5 76.7c-9.7 0-17.5 7.9-17.5 17.5s7.9 17.5 17.5 17.5 17.5-7.9 17.5-17.5-7.9-17.5-17.5-17.5zm0 33.2c-8.6 0-15.7-7-15.7-15.7s7-15.7 15.7-15.7 15.7 7 15.7 15.7-7.1 15.7-15.7 15.7z"/><circle class="st1" cx="117.5" cy="88.9" r="4.3"/><path class="st1" d="M117.5 94.9c-2.7 0-5.1 1.3-7.3 3.6-1.7 1.8-.4 4.9 2.1 4.9h10.3c2.5 0 3.9-3.1 2.1-4.9-2.1-2.3-4.6-3.6-7.2-3.6z"/></g></svg>