<svg id="Layer_1" xmlns="http://www.w3.org/2000/svg" viewBox="0 0 150 91.8"><style>.st0{fill:#703081}.st1{fill:#df6b90}</style><path class="st0" d="M129.8 0H10C4.5 0 0 4.5 0 10v69.9c0 5.5 4.5 10 10 10h72.4c1.4 0 2.5-1.1 2.5-2.5s-1.1-2.5-2.5-2.5H10c-2.8 0-5-2.3-5-5V10c0-2.8 2.2-5 5-5h119.8c2.8 0 5 2.2 5 5v27.5c0 1.4 1.1 2.5 2.5 2.5s2.5-1.1 2.5-2.5V10c0-5.5-4.5-10-10-10z"/><path class="st1" d="M32.5 59.9h-15c-1.4 0-2.5-1.1-2.5-2.5s1.1-2.5 2.5-2.5h15c1.4 0 2.5 1.1 2.5 2.5-.1 1.4-1.1 2.5-2.5 2.5z"/><path class="st0" d="M72.4 74.9H17.5c-1.4 0-2.5-1.1-2.5-2.5s1.1-2.5 2.5-2.5h54.9c1.4 0 2.5 1.1 2.5 2.5s-1.1 2.5-2.5 2.5z"/><path class="st1" d="M62.4 59.9h-15c-1.4 0-2.5-1.1-2.5-2.5s1.1-2.5 2.5-2.5h15c1.4 0 2.5 1.1 2.5 2.5s-1.1 2.5-2.5 2.5zM92.4 59.9h-15c-1.4 0-2.5-1.1-2.5-2.5s1.1-2.5 2.5-2.5h15c1.4 0 2.5 1.1 2.5 2.5s-1.1 2.5-2.5 2.5zM39.9 20v20H20V20h19.9m0-5H20c-2.8 0-5 2.3-5 5v20c0 2.7 2.3 5 5 5h20c2.8 0 5-2.3 5-5V20c-.1-2.7-2.4-5-5.1-5z"/><g><path class="st0" d="M128.1 48c-12.1 0-21.9 9.9-21.9 21.9s9.9 21.9 21.9 21.9S150 81.9 150 69.9 140.1 48 128.1 48zm0 41.5c-10.8 0-19.6-8.8-19.6-19.6s8.8-19.6 19.6-19.6 19.6 8.8 19.6 19.6-8.8 19.6-19.6 19.6z"/><circle class="st1" cx="128.1" cy="63.3" r="5.4"/><path class="st1" d="M128.1 70.8c-3.4 0-6.4 1.6-9.1 4.5-2.1 2.3-.5 6.1 2.6 6.1h12.9c3.1 0 4.9-3.9 2.6-6.1-2.6-2.9-5.7-4.5-9-4.5z"/></g></svg>