<svg id="Layer_1" xmlns="http://www.w3.org/2000/svg" viewBox="0 0 150 205.4"><style>.st0{fill:#703081}.st1{fill:#f2ba59}</style><path class="st0" d="M148.9 72.3l-10.8-14.2 2.4-17.8c.2-2-.8-4-2.8-4.8l-16.6-6.8-6.8-16.6c-.8-1.8-2.8-3-4.8-2.8l-17.8 2.4L77.5.9a4.5 4.5 0 0 0-5.4 0L57.9 11.7 40.1 9.3c-2-.2-4 .8-4.8 2.8l-6.8 16.6-16.6 6.8c-1.8.8-3 2.8-2.8 4.8l2.4 17.8L.9 72.3a4.5 4.5 0 0 0 0 5.4l10.8 14.2-2.4 17.8c-.2 2 .8 4 2.8 4.8l16.6 6.8 6.8 16.6c.6 1.4 2 2.4 3.4 2.8v60c0 1.6.8 3.2 2.4 4 1.4.8 3.2.8 4.6-.2l29-18.4 29 18.4c.8.4 1.6.8 2.4.8.8 0 1.4-.2 2.2-.6 1.4-.8 2.4-2.4 2.4-4v-60.2c1.4-.2 2.8-1.2 3.4-2.8l6.8-16.6 16.6-6.8c1.8-.8 3-2.8 2.8-4.8l-2.4-17.8 10.8-14.2c1.5-1.4 1.5-3.6 0-5.2zM77.3 176.8c-1.4-1-3.4-1-4.8 0l-24.6 15.6v-52.8l10-1.4L72.1 149c.8.6 1.8 1 2.8 1 1 0 2-.4 2.8-1l14.2-10.8 10 1.4v52.8l-24.6-15.6zm52.4-88.9c-.8 1-1 2.2-.8 3.4l2.2 16.2-15 6.2c-1.2.4-2 1.4-2.4 2.4l-6.2 15-16.2-2.2c-1.2-.2-2.4.2-3.4.8l-13 10-13-9.8c-.8-.6-1.8-1-2.8-1h-.6l-16.2 2.2-6.2-15c-.4-1.2-1.4-2-2.4-2.4l-15-6.2 2.2-16.2c.2-1.2-.2-2.4-.8-3.4l-9.8-13 9.8-13c.8-1 1-2.2.8-3.4l-2.2-16 15-6.2c1.2-.4 2-1.4 2.4-2.4l6.2-15 16.2 2.2c1.2.2 2.4-.2 3.4-.8l13-9.8 13 9.8c1 .8 2.2 1 3.4.8l16.2-2.2 6.2 15c.4 1.2 1.4 2 2.4 2.4l15 6.2-2.2 16.2c-.2 1.2.2 2.4.8 3.4l9.8 13-9.8 12.8z"/><path class="st1" d="M47.3 45.7c1 0 2-.4 2.8-1 7-5.8 15.8-8.8 24.8-8.8 2.4 0 4.6-2 4.6-4.6 0-2.4-2-4.6-4.6-4.6-11 0-22 3.8-30.4 11-2 1.6-2.2 4.4-.6 6.4.8 1.2 2 1.6 3.4 1.6z"/><path class="st1" d="M91.1 29.7c-2.4-.8-5 .4-5.8 2.8-.8 2.4.4 5 2.8 5.8 15.6 5.6 26 20.4 26 36.8 0 21.6-17.6 39-39 39S35.9 96.5 35.9 74.9c0-7.6 2.2-15 6.4-21.4 1.4-2 .8-4.8-1.2-6.2-2-1.4-4.8-.8-6.2 1.2-5.2 7.8-7.8 17-7.8 26.4 0 26.6 21.6 48 48 48s48-21.6 48-48c-.2-20.2-13-38.4-32-45.2z"/></svg>