<svg id="Layer_1" xmlns="http://www.w3.org/2000/svg" viewBox="0 0 50 50"><g fill="#575757"><path d="M19.6 14.7l4.7 3.5c.2.1.4.2.7.2s.5-.1.7-.2l4.7-3.5c.3-.2.5-.5.5-.9v-6c0-.6-.5-1.1-1.1-1.1h-9.4c-.6 0-1.1.5-1.1 1.1v6c-.1.3.1.7.3.9zm1.8-5.8h7.2v4.3L25 15.9l-3.6-2.6V8.9z"/><path d="M42 11.4h-8.3c-.6 0-1.1.5-1.1 1.1s.5 1.1 1.1 1.1H42c1.3 0 2.4 1.1 2.4 2.4v24.6c0 1.3-1.1 2.4-2.4 2.4H8c-1.3 0-2.4-1.1-2.4-2.4V16.1c0-1.3 1.1-2.4 2.4-2.4h8.3c.6 0 1.1-.5 1.1-1.1s-.5-1.1-1.1-1.1H8c-2.6 0-4.7 2.1-4.7 4.7v24.6c0 2.6 2.1 4.7 4.7 4.7h34c2.6 0 4.7-2.1 4.7-4.7V16.1c-.1-2.6-2.2-4.7-4.7-4.7z"/><path d="M11.4 23.1c0 2.1 1.7 3.9 3.9 3.9s3.9-1.7 3.9-3.9-1.7-3.9-3.9-3.9-3.9 1.7-3.9 3.9zm5.6 0c0 .9-.7 1.7-1.7 1.7-.9 0-1.7-.7-1.7-1.7s.7-1.7 1.7-1.7c.9 0 1.7.8 1.7 1.7zM15.3 27.8c-2.2 0-4 1-5.2 3-.8 1.4-1.4 3.3-1.6 5.6-.1.6.4 1.2 1 1.2s1.2-.4 1.2-1c.4-4.3 1.9-6.5 4.5-6.5s4.1 2.2 4.5 6.5c.1.6.5 1 1.1 1h.1c.6-.1 1.1-.6 1-1.2-.2-2.3-.8-4.2-1.6-5.6-1-2-2.8-3-5-3zM38.8 21.3H26.3c-.6 0-1.1.5-1.1 1.1s.5 1.1 1.1 1.1h12.4c.6 0 1.1-.5 1.1-1.1s-.4-1.1-1-1.1zM39.9 30.4c0-.6-.5-1.1-1.1-1.1H26.3c-.6 0-1.1.5-1.1 1.1s.5 1.1 1.1 1.1h12.4c.7 0 1.2-.5 1.2-1.1zM26.3 33.2c-.6 0-1.1.5-1.1 1.1s.5 1.1 1.1 1.1h6.2c.6 0 1.1-.5 1.1-1.1s-.5-1.1-1.1-1.1h-6.2zM38.8 25.2H26.3c-.6 0-1.1.5-1.1 1.1s.5 1.1 1.1 1.1h12.4c.6 0 1.1-.5 1.1-1.1s-.4-1.1-1-1.1z"/></g></svg>