<svg id="Layer_1" xmlns="http://www.w3.org/2000/svg" viewBox="0 0 140 111.6"><style>.st0{fill:#703081}.st1{fill:#df6b90}.st2{fill:#fff}</style><g id="Layer_1_1_"><path class="st0" d="M96.3 37.4H21.9c-4.5 0-8.1 3.4-8.1 7.5v46.4c0 4.1 3.6 7.5 8.1 7.5h74.4c4.5 0 8.1-3.4 8.1-7.5V44.9c0-4.2-3.6-7.5-8.1-7.5zm0 4.8c.2 0 .4 0 .6.2L59.1 71 20.6 42.6c.3-.2.9-.4 1.3-.4h74.4zm0 51.7H21.9c-1.7 0-3-1.1-3-2.6V47.5l40.2 29.7 40.2-30.5v44.5c0 1.6-1.3 2.7-3 2.7z"/><path transform="rotate(-45.001 48.491 13.704)" class="st1" d="M31.9 11.2H65v5.1H31.9z"/><path transform="rotate(-45.001 126.495 13.507)" class="st1" d="M109.9 11H143v5.1h-33.1z"/><path transform="rotate(-45.001 86.574 13.507)" class="st0" d="M70 11h33.1v5.1H70z"/><path transform="rotate(-45.001 126.368 75.657)" class="st1" d="M109.8 73.1h33.1v5.1h-33.1z"/><path transform="rotate(-45.001 126.462 45.62)" class="st0" d="M109.9 43.1H143v5.1h-33.1z"/></g><path class="st1" d="M40 91.6c0 11-9 20-20 20s-20-9-20-20 9-20 20-20c11.1 0 20 9 20 20z"/><path class="st2" d="M29.1 81.9L18.3 97.4l-7.5-6.3c-.9-.6-2-.5-2.8.3-.8.9-.6 2 .2 2.8l9.2 7.5c.3.3.8.5 1.2.5h.3c.5-.2 1.1-.5 1.2-.8l12-17.2c.6-.8.5-2-.5-2.8-.7-.6-1.9-.4-2.5.5z"/></svg>