<svg xmlns="http://www.w3.org/2000/svg" viewBox="0 0 150 165"><style>.st0{fill:#df6b90}.st1{fill:#703081}</style><g id="Layer_1"><path class="st0" d="M28.2 1081.7c-5.1 0-9.4 4.2-9.4 9.4 0 5.1 4.2 9.4 9.4 9.4 5.1 0 9.3-4.2 9.4-9.3l8.1-5.4c1.5 1 3.2 1.5 5 1.5 5.1 0 9.4-4.2 9.4-9.4 0-5.1-4.2-9.4-9.4-9.4-1.8 0-3.5.5-5 1.5l-8.1-5.4c-.1-5.1-4.3-9.2-9.4-9.2-5.1 0-9.4 4.2-9.4 9.4s4.2 9.4 9.4 9.4c2.4 0 4.6-1 6.3-2.5l6.9 4.6c-.1.5-.1 1.1-.1 1.6s0 1.1.1 1.6l-7 4.6c-1.6-1.5-3.8-2.4-6.2-2.4zm0 11.2c-1.1 0-1.9-.8-1.9-1.9 0-1.1.8-1.9 1.9-1.9s1.9.8 1.9 1.9c-.1 1.1-.8 1.9-1.9 1.9zm22.5-16.8c1.1 0 1.9.8 1.9 1.9 0 1.1-.8 1.9-1.9 1.9s-1.9-.8-1.9-1.9c0-1.1.8-1.9 1.9-1.9zm-22.5-9.4c-1.1 0-1.9-.8-1.9-1.9s.8-1.9 1.9-1.9 1.9.8 1.9 1.9c-.1 1.1-.8 1.9-1.9 1.9zM116.3 976.8c0-2.1-1.6-3.8-3.7-3.8H52.1c-2.1.1-3.7 1.9-3.6 3.9.1 2.1 1.9 3.7 3.9 3.6h60c2.2 0 3.9-1.6 3.9-3.7zM107 995.5H57.8c-2.1.1-3.7 1.9-3.6 3.9s1.9 3.7 3.9 3.6h48.7c2.1 0 3.8-1.6 3.8-3.7.1-2.1-1.5-3.8-3.6-3.8zM106.9 1018H57.8c-2.1.1-3.7 1.9-3.6 3.9.1 2.1 1.9 3.7 3.9 3.6h48.7c2.1 0 3.8-1.6 3.8-3.7s-1.6-3.8-3.7-3.8c.1 0 0 0 0 0z" transform="translate(0 -952.362)"/></g><path class="st1" d="M135 974.9h-3.7v-7.5c0-8.2-6.8-15-15-15H48.8c-8.2 0-15 6.8-15 15v71.6c-19 2.7-33.8 19.2-33.8 39 0 21.7 17.7 39.4 39.4 39.4 18.5 0 34-12.8 38.2-30H135c8.2 0 15-6.8 15-15v-82.5c0-8.3-6.8-15-15-15zm-95.6 134.8c-17.6 0-31.8-14.2-31.8-31.8s14.2-31.8 31.8-31.8 31.8 14.2 31.8 31.8c0 17.7-14.1 31.8-31.8 31.8zm35.6-48.6c-2.4-5-5.9-9.5-10.1-13.1h47.6c2.1 0 3.8-1.6 3.8-3.7s-1.6-3.8-3.7-3.8H52.1c-.2 0-.3 0-.5.1-3.3-1.1-6.8-1.8-10.4-1.9v-71.2c0-4.2 3.3-7.5 7.5-7.5h67.5c4.2 0 7.5 3.3 7.5 7.5v86.2c0 4.2-3.3 7.5-7.5 7.5H75zm67.5 11.2c0 4.2-3.3 7.5-7.5 7.5H78.8c0-.6.1-1.3.1-1.9 0-3.2-.4-6.4-1.2-9.4h38.6c8.2 0 15-6.8 15-15v-71.2h3.7c4.2 0 7.5 3.3 7.5 7.5v82.5z" transform="translate(0 -952.362)" id="Layer_1_copy"/></svg>