<svg id="Layer_1" xmlns="http://www.w3.org/2000/svg" viewBox="0 0 150 126.1"><style>.st0{fill:#703081}.st1{fill:#df6b90}</style><path class="st0" d="M141.7 0H63.3C58.8 0 55 3.8 55 8.3v48.3H8.3c-4.5 0-8.3 3.8-8.3 8.3v53c0 4.5 3.8 8.3 8.3 8.3h78.4c4.5 0 8.3-3.8 8.3-8.3V69.5h46.8c4.5 0 8.3-3.8 8.3-8.3v-53c-.1-4.4-3.9-8.2-8.4-8.2zm0 4.9c.4 0 .8 0 1.1.2l-40.2 29.7-41-29.3c.6-.4 1.1-.6 1.7-.6h78.4zm-55 56.6c.4 0 .8 0 1.1.2L47.4 91.4 6.6 62c.6-.4 1.1-.6 1.7-.6l78.4.1zm0 59.6H8.3c-1.9 0-3.4-1.5-3.4-3.4V66.9l42.5 30.5L89.8 66v51.7c.2 1.8-1.5 3.4-3.1 3.4zm55-56.4H94.9c-.2-4.5-3.8-8.1-8.3-8.1H60V10.3l42.5 30.5L145 9.4v51.7c.1 2.1-1.4 3.6-3.3 3.6z"/><path class="st1" d="M39.7 26.1h.8v-4.9h-.8c-10.5 0-19 8.5-19 19h4.9c0-7.7 6.4-14.1 14.1-14.1z"/><g><path class="st0" d="M137.9 115.7c-1.6 0-2.8 1.2-2.8 2.7 0 1.5 1.3 2.7 2.8 2.7 1.6 0 2.8-1.2 2.8-2.7 0-1.5-1.3-2.7-2.8-2.7z"/><path class="st1" d="M145 75.1h-14.3v46H145v-46zm-11.5 7.8h8.8v1.6h-8.8v-1.6zm0 5.2h8.8v1.6h-8.8v-1.6zm0 3.1h8.8v1.6h-8.8v-1.6zm0 3h8.8v1.6h-8.8v-1.6zm0 3.1h8.8v1.6h-8.8v-1.6zm4.4 20.1c-2.5 0-4.5-1.9-4.5-4.3s2-4.3 4.5-4.3 4.5 1.9 4.5 4.3c-.1 2.4-2.1 4.3-4.5 4.3z"/><path class="st0" d="M122 115.7c-1.6 0-2.8 1.2-2.8 2.7 0 1.5 1.3 2.7 2.8 2.7 1.6 0 2.8-1.2 2.8-2.7 0-1.5-1.2-2.7-2.8-2.7z"/><path class="st1" d="M129.1 75.1h-14.3v46h14.3v-46zm-11.5 7.8h8.8v1.6h-8.8v-1.6zm0 5.2h8.8v1.6h-8.8v-1.6zm0 3.1h8.8v1.6h-8.8v-1.6zm0 3h8.8v1.6h-8.8v-1.6zm0 3.1h8.8v1.6h-8.8v-1.6zm4.4 20.1c-2.5 0-4.5-1.9-4.5-4.3s2-4.3 4.5-4.3 4.5 1.9 4.5 4.3-2 4.3-4.5 4.3z"/><path class="st0" d="M106.1 121.1c1.6 0 2.8-1.2 2.8-2.7 0-1.5-1.3-2.7-2.8-2.7-1.6 0-2.8 1.2-2.8 2.7 0 1.5 1.3 2.7 2.8 2.7z"/><path class="st1" d="M99 121.1h14.3v-46H99v46zm2.7-38.2h8.8v1.6h-8.8v-1.6zm0 5.2h8.8v1.6h-8.8v-1.6zm0 3.1h8.8v1.6h-8.8v-1.6zm0 3h8.8v1.6h-8.8v-1.6zm0 3.1h8.8v1.6h-8.8v-1.6zm4.4 11.5c2.5 0 4.5 1.9 4.5 4.3s-2 4.3-4.5 4.3-4.5-1.9-4.5-4.3c.1-2.4 2.1-4.3 4.5-4.3z"/></g></svg>