<svg id="Layer_1" xmlns="http://www.w3.org/2000/svg" viewBox="0 0 150 150"><style>.st0{fill:#703081}.st1{fill:#df6b90}</style><path class="st0" d="M75 135c-33.1 0-60-26.9-60-60s26.9-60 60-60 60 26.9 60 60-26.9 60-60 60zm0-113.8c-29.5 0-53.5 24.1-53.5 53.5s24.1 53.5 53.5 53.5 53.5-23.8 53.5-53.4-24-53.6-53.5-53.6z"/><path class="st1" d="M69.9 96v-3c0-3.8.5-7.3 1.8-10.1.8-2 2-4.3 3.8-6.3 1.3-1.5 3.8-3.8 7.1-6.8 3.5-3 5.6-5.6 6.6-7.3 1-1.8 1.5-3.8 1.5-5.8 0-3.8-1.5-7.3-4.5-10.1-3-3-6.8-4.3-11.1-4.3s-7.8 1.3-10.6 4c-2.8 2.5-4.3 5.8-5.3 11.4H48.7c1-7.6 3.5-13.4 8.1-17.2 4.5-4 10.6-6.1 17.9-6.1 7.8 0 14.1 2.3 18.9 6.3 4.8 4.3 7.1 9.6 7.1 15.7 0 3.5-.8 6.8-2.5 9.8s-4.8 6.6-9.6 10.9c-3.3 2.8-5.3 5.1-6.3 6.3-1 1.3-1.8 3-2.3 4.8s-.8 4.5-.8 8.6h-9.3V96zm-.5 8.5h11.4v11.4H69.4z"/></svg>