<svg id="Layer_1" xmlns="http://www.w3.org/2000/svg" viewBox="0 0 150 150"><style>.st0{fill:#703081}.st1{fill:#df6b90}</style><path class="st0" d="M75 0C33.6 0 0 33.6 0 75s33.6 75 75 75 75-33.6 75-75S116.4 0 75 0zm0 3.1c39.7 0 71.9 32.2 71.9 71.9s-32.2 71.9-71.9 71.9S3.1 114.7 3.1 75 35.3 3.1 75 3.1z" id="Layer_2"/><path class="st0" d="M101.2 1052.4s-.1 0 0 0h-3.5v-18.2h18.2v3.4c0 1.3 1 2.3 2.2 2.3 1.3 0 2.3-1 2.3-2.2v-5.8c0-1.2-.9-2.2-2.1-2.3H95.4c-1.3 0-2.3 1-2.3 2.3v22.7c0 1.3 1 2.3 2.3 2.3h5.7c1.3 0 2.3-1 2.3-2.2 0-1.3-1-2.3-2.2-2.3z" transform="translate(0 -952.362)"/><path class="st1" d="M54.6 1029.6h-23c-1.2.1-2.1 1.1-2.1 2.3v22.7c0 1.3 1 2.3 2.3 2.3h22.7c1.3 0 2.3-1 2.3-2.3v-22.7c0-1.2-1-2.3-2.2-2.3zm-2.3 22.8H34.1v-18.2h18.2v18.2zM95.4 1025.1h22.7c1.3 0 2.3-1 2.3-2.3v-22.7c0-1.2-.9-2.2-2.1-2.3H95.4c-1.3 0-2.3 1-2.3 2.3v22.7c.1 1.3 1.1 2.3 2.3 2.3zm2.3-22.7h18.2v18.2H97.7v-18.2zM54.6 997.8h-23c-1.2.1-2.1 1.1-2.1 2.3v22.7c0 1.3 1 2.3 2.3 2.3h22.7c1.3 0 2.3-1 2.3-2.3v-22.7c0-1.3-1-2.3-2.2-2.3zm-2.3 22.7H34.1v-18.2h18.2v18.2zM86.4 997.8h-23c-1.2.1-2.1 1.1-2.1 2.3v22.7c0 1.3 1 2.3 2.3 2.3h22.7c1.3 0 2.3-1 2.3-2.3v-22.7c0-1.3-1-2.3-2.2-2.3zm-2.3 22.7H65.9v-18.2h18.2v18.2zM86.4 1029.6h-23c-1.2.1-2.1 1.1-2.1 2.3v22.7c0 1.3 1 2.3 2.3 2.3h22.7c1.3 0 2.3-1 2.3-2.3v-22.7c0-1.2-1-2.3-2.2-2.3zm-2.3 22.8H65.9v-18.2h18.2v18.2z" transform="translate(0 -952.362)"/></svg>