<svg id="Layer_1" xmlns="http://www.w3.org/2000/svg" viewBox="0 0 150 150"><style>.st0{fill:#703081}.st1{fill:#f2ba59}</style><g id="Layer_1_1_"><path class="st0" d="M131.1 55.1c.1-.9.1-1.6.1-2.5 0-11.6-9.5-21.1-21.1-21.1-1.5 0-2.9.1-4.4.5-4.6-12.9-17-21.6-30.8-21.6s-26.1 8.8-30.8 21.5c-1.4-.3-2.9-.5-4.4-.5-11.6 0-21.1 9.5-21.1 21.1 0 .7 0 1.6.1 2.5C8.3 56.1 0 65.1 0 76c0 11.6 9.5 21.1 21.1 21.1h18.8v-4.8H21.1c-9 0-16.4-7.4-16.4-16.4s7.4-16.4 16.6-16.4h.4c.7 0 1.5-.3 1.9-.9.5-.6.6-1.4.5-2-.4-1.4-.5-2.8-.5-4.1 0-9 7.4-16.4 16.4-16.4 1.8 0 3.5.3 5.1.9.6.3 1.3.1 1.9-.1.6-.3 1-.8 1.1-1.4 3.3-12 14.4-20.4 26.9-20.4s23.6 8.4 27 20.4c.1.6.6 1.1 1.1 1.4.6.3 1.3.4 1.9.1 1.6-.5 3.4-.9 5.1-.9 9 0 16.4 7.4 16.4 16.4 0 1.4-.1 2.8-.5 4.1-.1.8 0 1.5.5 2 .5.6 1.1.9 1.9.9h.5c9 0 16.4 7.4 16.4 16.4s-7.4 16.4-16.4 16.4h-18.8V97h18.8c11.6 0 21.1-9.5 21.1-21.1 0-10.8-8.2-19.8-18.9-20.8z"/><path class="st1" d="M56.3 43.2h-4.8C51.5 30.4 62 19.7 75 19.7v4.8c-10.4 0-18.7 8.4-18.7 18.7z"/></g><path class="st1" d="M102.1 96.8l-3.2-.6c-1.5-.3-2.7-1.3-3.3-2.7-.6-1.4-.4-3 .6-4.2l2-2.8c.6-.9.6-2.1-.2-2.9l-4.4-4.4c-.8-.8-1.9-.9-2.8-.3l-2.7 1.8c-.7.5-1.6.8-2.5.8-1.9 0-4-1.3-4.4-3.8l-.5-3.4c-.2-1.1-1.1-1.9-2.2-1.9h-6.2c-1.1 0-2 .8-2.2 1.8l-.8 4.2c-.5 2.4-2.6 3.6-4.4 3.6-.9 0-1.7-.3-2.5-.8l-3.5-2.3c-.9-.6-2.1-.5-2.8.3l-4.4 4.4c-.8.8-.9 2-.2 2.9l2 2.8c.9 1.3 1.1 2.8.6 4.2s-1.8 2.4-3.3 2.7l-3.2.6c-1.1.2-1.8 1.1-1.8 2.2v6.2c0 1.1.8 2 1.9 2.2l3.4.5c1.5.2 2.8 1.2 3.4 2.6s.5 3-.4 4.2l-1.8 2.7c-.6.9-.5 2.1.3 2.8l4.4 4.4c.8.8 2 .9 2.9.2l2.8-2c.8-.6 1.7-.9 2.6-.9 1.8 0 3.9 1.2 4.3 3.6l.6 3.2c.2 1.1 1.1 1.8 2.2 1.8h6.2c1.1 0 2-.8 2.2-1.9l.4-2.4c.4-2.5 2.5-3.8 4.4-3.8.9 0 1.8.3 2.6.9l1.9 1.4c.9.6 2.1.6 2.9-.2l4.4-4.4c.8-.8.9-1.9.3-2.8l-1.8-2.7c-.9-1.3-1-2.8-.4-4.2.6-1.4 1.9-2.3 3.4-2.6l3.4-.5c1.1-.2 1.9-1.1 1.9-2.2v-6.2c-.3-1-1.1-1.9-2.1-2.1zm-2.7 6.4l-1.5.2c-3 .5-5.6 2.4-6.8 5.2-1.2 2.8-.9 6 .8 8.5l.8 1.2L91 120l-.4-.3c-1.5-1.1-3.4-1.7-5.2-1.7-4.4 0-8.1 3.2-8.8 7.5v.5h-2.4l-.3-1.4c-.8-4.2-4.5-7.2-8.7-7.2-1.9 0-3.7.6-5.2 1.7l-1.2.9-1.7-1.7.8-1.2c1.7-2.5 2-5.7.8-8.5s-3.8-4.8-6.8-5.2l-1.5-.2v-2.4l1.4-.3c3-.6 5.5-2.6 6.6-5.5s.7-6-1.1-8.5l-.9-1.2 1.7-1.7 2 1.3c1.5 1 3.2 1.5 5 1.5 4.3 0 7.9-3 8.7-7.2l.4-2.3h2.4l.2 1.5c.7 4.4 4.4 7.5 8.8 7.5 1.8 0 3.5-.5 5-1.5l1.2-.8 1.7 1.7-.9 1.2c-1.8 2.5-2.2 5.6-1.1 8.5 1.1 2.8 3.6 4.9 6.6 5.5l1.4.2-.1 2.5z"/><path class="st0" d="M75 90.4c-6.2 0-11.2 5-11.2 11.2s5 11.2 11.2 11.2 11.2-5 11.2-11.2-5-11.2-11.2-11.2zm0 17.8a6.7 6.7 0 1 1 0-13.4 6.7 6.7 0 0 1 0 13.4z"/></svg>