<svg id="Layer_1" xmlns="http://www.w3.org/2000/svg" viewBox="0 0 150 150"><style>.st0{fill:#f2ba59}</style><g id="Layer_1_1_"><path class="st0" d="M53.9 120.6h23.5v4.8H53.9zM53.9 92.5h23.5v4.8H53.9z"/><path class="st0" d="M131.1 55.1c.1-.9.1-1.6.1-2.5 0-11.6-9.5-21.1-21.1-21.1-1.5 0-2.9.1-4.4.5-4.6-12.9-17-21.6-30.8-21.6s-26.1 8.8-30.8 21.5c-1.4-.3-2.9-.5-4.4-.5-11.6 0-21.1 9.5-21.1 21.1 0 .7 0 1.6.1 2.5C8.3 56.1 0 65.1 0 76c0 11.6 9.5 21.1 21.1 21.1h18.8v-4.8H21.1c-9 0-16.4-7.4-16.4-16.4s7.4-16.4 16.6-16.4h.4c.7 0 1.5-.3 1.9-.9.5-.6.6-1.4.5-2-.4-1.4-.5-2.8-.5-4.1 0-9 7.4-16.4 16.4-16.4 1.8 0 3.5.3 5.1.9.6.3 1.3.1 1.9-.1.6-.3 1-.8 1.1-1.4 3.3-12 14.4-20.4 26.9-20.4s23.6 8.4 27 20.4c.1.6.6 1.1 1.1 1.4.6.3 1.3.4 1.9.1 1.6-.5 3.4-.9 5.1-.9 9 0 16.4 7.4 16.4 16.4 0 1.4-.1 2.8-.5 4.1-.1.8 0 1.5.5 2 .5.6 1.1.9 1.9.9h.5c9 0 16.4 7.4 16.4 16.4s-7.4 16.4-16.4 16.4h-18.8V97h18.8c11.6 0 21.1-9.5 21.1-21.1 0-10.8-8.2-19.8-18.9-20.8z"/><path class="st0" d="M53.9 64.4h23.5v4.8H53.9z"/><path class="st0" d="M44.5 78.4h4.7v4.8h-4.7v23.5h4.7v4.8h-4.7V135h4.7v4.8H54V135h42.3v4.8h4.8V135h4.8v-23.5H101v-4.8h4.8V83.1H101v-4.8h4.8V55H44.5v23.4zm56.3 51.6H49.3v-14.1h51.6l-.1 14.1zm-46.9-18.8v-4.8h42.2v4.8H53.9zm46.9-9.3H49.3V87.7h51.6v14.1h-.1v.1zM53.9 83.1v-4.8h42.2v4.8H53.9zm-4.6-23.5h51.6v14.1H49.3V59.6z"/><path class="st0" d="M91.4 64.4h4.8v4.8h-4.8zM91.4 92.5h4.8v4.8h-4.8zM91.4 120.6h4.8v4.8h-4.8zM56.3 43.2h-4.8C51.5 30.4 62 19.7 75 19.7v4.8c-10.4 0-18.7 8.4-18.7 18.7zM35.1 130h4.7v4.8h-4.7zM35.1 120.6h4.7v4.8h-4.7zM35.1 111.2h4.7v4.8h-4.7z"/></g><path class="st0" d="M150 122.7c0 11.4-8.7 19.8-18.9 20.3-5.4.2-10.2-1.3-14.2-4.8-4.5-4-6.8-9.1-6.8-15.1 0-5.2 1.7-9.7 5.3-13.6 4.1-4.5 9.3-6.6 15.5-6.5 10.1.2 18.9 8.7 19.1 19.7zm-10-2.8v-.6c0-.1 0-.2.1-.2.3-1.6.4-3.1-.2-4.7-.7-1.5-1.1-2.9-1.8-4.3-.3-.7-.7-1.5-1.2-2-1.3-1.2-3.1-1.2-4.8-1-1 .1-1.9.4-2.9.3-1.2-.1-2.6-.3-3.8-.4-1.1-.1-2.2.8-2.6 1.8-.4 1.3-.8 2.6-1.1 3.9-.3 1.2-.1 2 1.1 2.7s2.6 1.1 3.9 1.6c1 .3 2 .6 3 1 .7.2 1.1.7 1.1 1.5 0 .6.2 1 .6 1.5.1.2.2.4.3.7 0 .1-.1.1-.1.2-.6 0-1.2 0-1.8-.1-3.1-.9-6.1-2.1-8.7-3.9-.3-.2-.6-.6-.6-.9-.1-.6-.1-1.1 0-1.6.1-.4-.1-.6-.4-.6-1.1.1-2.1.1-3.2.2-1.2.1-2.1.7-2.8 1.7-.3.4-.4 1-.1 1.5.4.7.9 1.3 1.3 1.8 1.1 1 2.2 2.1 3.5 3 1.5 1 2.9 2 4.5 2.8 1.2.7 2.6 1.1 3.8 1.6 1.7.7 3.5 1.1 5.3 1.3.8.1 1.7.2 2.5.2 1.2 0 2.5 0 3.6-.1 1.5-.1 2.8-.9 4.1-1.6 1.7-.9 2.9-2.1 3.4-4 .2-1.2.2-2.4-.9-3.1-1.2-.8-2.5-1.6-3.9-2 .1.7-.2 1.5-1.2 1.8zm-28.3 10.3c3.4 7.4 8.9 11.8 16.9 12.3 6.9.6 12.7-2.1 17-7.7h-1.3c-1.1 0-2.4-.1-3.5-.1-.1 0-.3.2-.2.3.1.4-.1.7-.4.9-1.2.6-2.5 1.3-3.5 2.4-.3.3-.8.6-1.1.7-.2.1-.4 0-.7-.1 0-.2 0-.4.1-.7l2.7-3.6c.1-.2.3-.3.3-.6.2-1.1.6-2.4.8-3.5.1-.2 0-.4-.3-.4h-1.9c-.9 0-1.8-.3-2.7.1-.2.1-.4 0-.7 0-.4-.1-1-.2-1.5-.2-1.1 0-2.2.1-3.4.1-.6 0-1.2-.2-1.7-.6-.8-.7-1.5-1.5-2.2-2.2-.2-.3-.6-.3-.9-.2-.6.2-.9 0-1.2-.4-.4-.6-1-1.1-1.6-1.7-.3-.3-.8-.4-1.2-.2-.6.2-1.1.6-1.1 1.2 0 .7.2 1.2.6 1.8s.9 1.2 1.6 1.7c.1.1.2.4.1.7-.1.2-.3.3-.6.4-.6.1-1 0-1.5-.4s-.9-.9-1.5-1.3c-.2-.2-.4-.3-.8-.3h-4.6c-.7-.1-.6.3 0 1.6z"/><path class="st0" d="M124.2 110.3c.3.2.7.3.9.6.6.6 1.3.6 2 .4.9-.2 1.7.1 2.5.3.1 0 .2.2.2.2 0 .1-.1.3-.2.3l-1.2.3c-.6.1-1.2.1-1.8.2-.2 0-.4.1-.6.2-.8.7-1.3 0-1.9-.3s-.7-1-.6-1.7c.2-.1.5-.3.7-.5zM132.3 108.3c.7-.3 1.3-.3 2-.3.3 0 .6.1.9.2.4.2.7.4.7 1 0 .4-.3.7-.7.7-.6.1-1.1.1-1.6.1-.1 0-.2-.1-.3-.2.3-.2.6-.4.9-.8-.4-.6-1.2-.5-1.9-.7zM133.1 134.1c-.6-.2-1.1-.3-1.6-.6h-.1c-.3 0-.7 0-.6-.4s.6-.7 1-.6c.2.1.6.2.8.3.4.2.8.3 1.1-.1.1-.1.6-.1.6-.1.1.2.2.6.2.8-.4.6-.9.7-1.4.7z"/></svg>