<svg id="Layer_1" xmlns="http://www.w3.org/2000/svg" viewBox="0 0 150 150"><style>.st0{fill:#d8427d}</style><path class="st0" d="M49.6 37.5v33.9H52V49.6h58.1v36.3H83.5v2.4h29V37.5H49.6zm60.5 9.7H52v-7.3h58.1v7.3z"/><path class="st0" d="M54.4 42.3h2.4v2.4h-2.4zM59.3 42.3h2.4v2.4h-2.4zM64.1 42.3h2.4v2.4h-2.4zM75.9 83.5h4V52H54.4v21.3c-1.4.4-2.8 1-4.1 1.7l-3-3-6.8 6.8 3 3c-.7 1.3-1.3 2.7-1.7 4.1h-4.3v9.7h4.3c.4 1.4 1 2.8 1.7 4.1l-3 3 6.8 6.8 3-3c1.3.7 2.7 1.3 4.1 1.7v4.3h9.7v-4.3c1.4-.4 2.8-1 4.1-1.7l3 3 6.8-6.8-3-3c.7-1.3 1.3-2.7 1.7-4.1H81v-9.7h-4.3c-.2-.8-.5-1.6-.8-2.4zm1.5-2.5h-1.6l1.6-1.6V81zM56.9 54.4h20.6V78l-6.2-6.2-3 3c-1.3-.7-2.7-1.3-4.1-1.7V69h-7.3V54.4zm21.7 38.7h-3.8l-.2 1c-.4 1.8-1.1 3.5-2.1 5.1l-.5.8 2.7 2.7-3.4 3.4-2.7-2.7-.8.5c-1.6 1-3.3 1.7-5.1 2.1l-1 .2v3.8h-4.8v-3.8l-1-.2c-1.8-.4-3.5-1.1-5.1-2.1l-.8-.5-2.7 2.7-3.4-3.4 2.7-2.7-.6-.8c-1-1.6-1.7-3.3-2.1-5.1l-.2-1h-3.8v-4.8h3.8l.2-1c.4-1.8 1.1-3.5 2.1-5.1l.5-.8-2.7-2.7 3.4-3.4L50 78l.8-.5c1.6-1 3.3-1.7 5.1-2.1l1-.2v-3.8h4.8v3.8l1 .2c1.8.4 3.5 1.1 5.1 2.1l.8.5 2.7-2.7 3.4 3.4-2.7 2.7.5.8c1 1.6 1.7 3.3 2.1 5.1l.2 1h3.8v4.8z"/><path class="st0" d="M59.3 81c-5.3 0-9.7 4.3-9.7 9.7s4.3 9.7 9.7 9.7 9.7-4.3 9.7-9.7-4.4-9.7-9.7-9.7zm0 17c-4 0-7.3-3.3-7.3-7.3s3.3-7.3 7.3-7.3 7.3 3.3 7.3 7.3-3.3 7.3-7.3 7.3zM107.7 52H82.3v31.5h25.4V52zm-2.5 29H84.7V54.4h20.6V81zM59.3 56.9H75v2.4H59.3zM59.3 61.7H75v2.4H59.3zM66.5 66.5H75v2.4h-8.5z"/><path class="st0" d="M87.1 56.9h15.7v2.4H87.1zM87.1 61.7h15.7v2.4H87.1zM87.1 66.5h15.7v2.4H87.1zM87.1 71.4h15.7v2.4H87.1zM100.4 76.2h2.4v2.4h-2.4zM87.1 76.2H98v2.4H87.1z"/></svg>