<svg id="Layer_1" xmlns="http://www.w3.org/2000/svg" viewBox="0 0 150 126.6"><style>.st0{fill:#703081}.st1{fill:#f2ba59}</style><path class="st0" d="M138 0H11.8C5.4 0 0 5.2 0 11.8v103.1c0 6.4 5.2 11.8 11.8 11.8h126.4c6.4 0 11.8-5.2 11.8-11.8V11.6C149.8 5.2 144.6 0 138 0zm7.2 114.6c0 3.8-3.2 7-7 7H11.8c-3.8 0-7-3.2-7-7v-103c0-3.8 3.2-7 7-7h126.4c3.8 0 7 3.2 7 7v103z"/><path class="st0" d="M53.3 96.6c-4.6 0-8.3 3.7-8.3 8.3 0 4.6 3.7 8.3 8.3 8.3H120c.9 0 1.7-.7 1.7-1.7V98.3c0-.9-.7-1.7-1.7-1.7H53.3zm65 13.4h-65c-2.8 0-5-2.2-5-5s2.2-5 5-5h65v10z"/><path class="st1" d="M55 106.6h58.3c.9 0 1.7-.7 1.7-1.7s-.7-1.7-1.7-1.7H55c-.9 0-1.7.7-1.7 1.7s.8 1.7 1.7 1.7z"/><path class="st0" d="M90.3 52.1l-3.6-.7c-4.2-.8-6.1-5.7-3.6-9.1l2.3-3.1c.5-.7.4-1.6-.2-2.2l-4.9-4.9c-.6-.6-1.5-.6-2.1-.2l-3 2.1c-3.5 2.4-8.3.3-8.9-3.9l-.6-3.8c-.1-.7-.8-1.3-1.7-1.3h-6.9c-.8 0-1.5.6-1.6 1.4l-.9 4.6c-.8 4.1-5.5 6-8.9 3.7L41.8 32c-.7-.4-1.5-.4-2.1.2l-4.9 4.9c-.6.6-.7 1.5-.2 2.2l2.3 3.1c2.5 3.4.6 8.3-3.6 9.1l-3.6.7c-.8.2-1.4.8-1.4 1.6v6.9c0 .8.6 1.5 1.4 1.6l3.8.6c4.2.6 6.3 5.4 3.9 8.9l-2.1 3c-.4.7-.4 1.5.2 2.1l4.9 4.9c.6.6 1.5.7 2.2.2l3.1-2.3c3.4-2.5 8.3-.6 9.1 3.6l.7 3.6c.2.8.8 1.4 1.6 1.4H64c.8 0 1.5-.6 1.6-1.4l.4-2.7c.7-4.3 5.6-6.3 9.1-3.8l2.2 1.6c.7.5 1.6.4 2.2-.2l4.9-4.9c.6-.6.6-1.5.2-2.1l-2.1-3c-2.4-3.5-.3-8.3 3.9-8.9l3.8-.6c.8-.1 1.4-.8 1.4-1.6v-6.9c.1-.9-.5-1.5-1.3-1.7zm-2 7.1l-2.3.4c-6.6 1-9.9 8.6-6.1 14.1l1.3 1.9-2.9 2.9-1-.7c-5.5-4-13.3-.8-14.4 6l-.3 1.2h-4.1l-.4-2.3c-1.3-6.6-8.9-9.6-14.3-5.6l-1.9 1.4-2.9-2.9 1.3-1.9c3.7-5.5.5-13.1-6.1-14.1l-2.4-.4v-4.1l2.3-.4c6.6-1.3 9.6-8.9 5.6-14.3l-1.4-1.9 2.9-2.9 2.8 1.9c5.4 3.7 12.8.6 14-5.8l.6-3.3h4.1l.4 2.4c1 6.6 8.6 9.9 14.1 6.1l1.9-1.3 2.9 2.9-1.4 1.9c-3.9 5.4-.9 13 5.6 14.3l2.3.4v4.1z"/><path class="st1" d="M68.3 56.6c0 4.6-3.7 8.3-8.3 8.3s-8.3-3.7-8.3-8.3 3.7-8.3 8.3-8.3 8.3 3.7 8.3 8.3zm3.4 0C71.7 50.2 66.4 45 60 45s-11.7 5.2-11.7 11.7S53.6 68.3 60 68.3s11.7-5.2 11.7-11.7zM58.5 28.3h4.8c.9 0 1.7-.7 1.7-1.7V15c0-.9-.7-1.7-1.7-1.7h-10c-4.6 0-8.3 3.7-8.3 8.3V37c0 .7.5 1.4 1.2 1.6 5.1 1.6 10.7-1.5 11.7-6.9l.6-3.4zm-10.2-6.7c0-2.8 2.2-5 5-5h8.3V25H57c-.8 0-1.5.6-1.6 1.4l-.8 4.6c-.6 3-3.4 4.9-6.2 4.6v-14zM58.1 82.7c-1.1-5.5-6.8-8.7-11.9-6.9-.7.2-1.1.9-1.1 1.6V105h3.3c0-2.8 2.2-5 5-5h10c.9 0 1.7-.7 1.7-1.7V86.6c0-.9-.7-1.7-1.7-1.7h-4.8l-.5-2.2zM45 105c0 2.2 3.3 2.2 3.3 0v-6.7c-2 1.5-3.3 3.9-3.3 6.7zm16.7-8.4h-8.3c-1.9 0-3.6.6-5 1.7V78.7c2.9-.4 5.9 1.5 6.4 4.6l.7 3.6c.2.8.8 1.4 1.6 1.4h4.6v8.3z"/><path class="st0" d="M62.6 28.3l.4 2.4c1 6.6 8.6 9.9 14.1 6.1l1.9-1.3 2.9 2.9-1.4 1.9c-3.9 5.4-.9 13 5.6 14.3l2.3.4v4.1l-2.4.5c-6.6 1-9.9 8.6-6.1 14.1l1.3 1.9-2.9 2.9-1-.7c-5.5-4-13.3-.8-14.4 6l-.3 1.2h-4.1l-.4-2.3c-1.1-5.5-6.8-8.7-11.9-6.9-.7.2-1.1.9-1.1 1.6V105h3.3c0-2.8 2.2-5 5-5H120c.9 0 1.7-.7 1.7-1.7V15c0-.9-.7-1.7-1.7-1.7H53.3c-4.6 0-8.3 3.7-8.3 8.3V37c0 .7.5 1.4 1.2 1.6 5.1 1.6 10.7-1.5 11.7-6.9l.6-3.3h4.1zM45 105c0 2.2 3.3 2.2 3.3 0v-6.7c-2 1.5-3.3 3.9-3.3 6.7zm73.3-8.4h-65c-1.9 0-3.6.6-5 1.7V78.7c2.9-.4 5.9 1.5 6.5 4.6l.7 3.6c.2.8.8 1.4 1.6 1.4H64c.8 0 1.5-.6 1.6-1.4l.4-2.7c.7-4.3 5.6-6.3 9.1-3.8l2.2 1.6c.7.5 1.6.4 2.2-.2l4.9-4.9c.6-.6.6-1.5.2-2.1l-2.1-3c-2.4-3.5-.3-8.3 3.9-8.9l3.8-.6c.8-.1 1.4-.8 1.4-1.6v-6.9c0-.8-.6-1.5-1.4-1.6l-3.6-.7c-4.2-.8-6.1-5.7-3.6-9.1l2.3-3.1c.5-.7.4-1.6-.2-2.2l-4.9-4.9c-.6-.6-1.5-.6-2.1-.2l-3 2.1c-3.5 2.4-8.3.3-8.9-3.9l-.6-3.8c0-.8-.7-1.4-1.6-1.4h-6.9c-.8 0-1.5.6-1.6 1.4l-.9 4.6c-.6 3-3.4 4.9-6.2 4.6v-14c0-2.8 2.2-5 5-5h65v80z"/></svg>