<svg id="Layer_1" xmlns="http://www.w3.org/2000/svg" viewBox="0 0 150 125"><style>.st0{display:none}.st1{display:inline}.st2{fill:#d8427d}.st3{fill:#df6b90}.st4{fill:#703081}</style><g class="st0 st1" id="Layer_1_1_"><path class="st2" d="M147.8 65.3l-7.3-7.3c-2.9-2.9-7.9-2.9-10.8 0L90.3 97.4l-5.4 19.9-1.3 1.3c-1 1-1 2.6 0 3.6v.1c.5.5 1.1.7 1.8.7s1.3-.3 1.8-.8l1.3-1.3 19.9-5.4 39.4-39.4c2.8-3 2.8-7.8 0-10.8zM96.1 98.7l26.3-26.2 10.9 10.9-26.3 26.2-10.9-10.9zm-2.3 5l8.2 8.2-11.4 3.1 3.2-11.3zm50.3-31.2l-7.3 7.3L126 68.9l7.3-7.3c1-1 2.6-1 3.6 0l7.3 7.3c.9 1 .9 2.6-.1 3.6zM0 5.1v97.2c13.4-10.4 43.5-33.8 57.5-46L0 5.1z"/><path class="st2" d="M107.4 69.4l16.8-16.8c2.9-2.9 6.7-4.5 10.8-4.5s7.9 1.6 10.8 4.5l2.7 2.7V5.1L91.1 56.3l16.3 13.1zM80.1 59.2l64.2-57.3H4.2l64.2 57.3c3.2 2.9 8.5 2.9 11.7 0z"/><path class="st2" d="M103.6 73L87.3 59.8l-3.7 3.3c-2.6 2.2-6 3.4-9.3 3.4s-6.7-1.1-9.3-3.4l-3.6-3.2C47.3 72.2 15.7 96.8 2.5 107H79.7l3.7-13.6L103.6 73z"/></g><g class="st0 st1" id="Layer_2"><path class="st2" d="M147.8 87.6l-3.7-.7c-1.7-.3-3.1-1.5-3.7-3.1-.6-1.6-.4-3.4.6-4.8l2.3-3.1c.7-1 .6-2.4-.3-3.3l-5-5c-.9-.9-2.2-1-3.2-.3l-3.1 2.1c-.8.6-1.8.9-2.8.9-2.1 0-4.5-1.5-5-4.3l-.6-3.9c-.2-1.2-1.3-2.2-2.5-2.2h-7c-1.2 0-2.3.9-2.5 2.1l-.9 4.7c-.5 2.7-2.9 4.1-4.9 4.1-1 0-2-.3-2.8-.9l-4-2.7c-1-.7-2.4-.6-3.2.3l-5 5c-.9.9-1 2.3-.3 3.3l2.3 3.1c1 1.4 1.3 3.2.6 4.8-.6 1.6-2 2.8-3.7 3.1l-3.7.7c-1.2.2-2.1 1.3-2.1 2.5v7c0 1.3.9 2.3 2.2 2.5l3.9.6c1.7.3 3.1 1.3 3.8 2.9s.5 3.4-.4 4.8l-2.1 3.1c-.7 1-.6 2.4.3 3.2l5 5c.9.9 2.3 1 3.3.3l3.1-2.3c.9-.6 1.9-1 2.9-1 2.1 0 4.4 1.4 4.9 4.1l.7 3.7c.2 1.2 1.3 2.1 2.5 2.1h7c1.3 0 2.3-.9 2.5-2.2l.4-2.7c.4-2.8 2.8-4.3 5-4.3 1.1 0 2.1.3 2.9 1l2.2 1.6c1 .7 2.4.6 3.3-.3l5-5c.9-.9 1-2.2.3-3.2l-2.1-3.1c-1-1.5-1.1-3.2-.4-4.8.7-1.6 2.1-2.7 3.8-2.9l3.9-.6c1.2-.2 2.2-1.3 2.2-2.5v-7c.2-1.1-.6-2.2-1.9-2.4zm-3 7.3l-1.7.3c-3.4.5-6.3 2.8-7.7 5.9-1.4 3.2-1.1 6.8.9 9.7l.9 1.4-2 1.9-.5-.3c-1.7-1.3-3.8-2-5.9-2-5 0-9.2 3.6-10 8.6l-.1.6h-2.8l-.3-1.6c-.9-4.7-5.1-8.2-9.9-8.2-2.1 0-4.2.7-5.9 2l-1.4 1-2-2 .9-1.4c2-2.9 2.3-6.5.9-9.7-1.4-3.2-4.3-5.4-7.7-5.9l-1.7-.3v-2.8l1.6-.3c3.4-.7 6.2-3 7.5-6.2s.8-6.9-1.3-9.7l-1-1.4 2-2 2.3 1.5c1.7 1.1 3.6 1.7 5.6 1.7 4.8 0 9-3.4 9.9-8.2l.5-2.7h2.8l.3 1.7c.8 5 5 8.6 10 8.6 2 0 4-.6 5.6-1.7l1.4-.9 2 2-1 1.4c-2.1 2.8-2.5 6.4-1.3 9.7 1.3 3.2 4.1 5.6 7.5 6.2l1.6.3v2.8z"/><path class="st2" d="M116.9 80.3c-7 0-12.7 5.7-12.7 12.7s5.7 12.7 12.7 12.7 12.7-5.7 12.7-12.7c0-7-5.7-12.7-12.7-12.7zm0 20.3c-4.2 0-7.6-3.4-7.6-7.6s3.4-7.6 7.6-7.6 7.6 3.4 7.6 7.6c.1 4.2-3.4 7.6-7.6 7.6zM0 2.1v96.5C13.3 88.3 43.2 65 57 53L0 2.1zM95.6 57.1c.7-.2 1.5-.2 2.2.3l5.9 4 .1-.8 1.2-6.2c.2-1.2 1.3-2.1 2.5-2.1h19.9c1.3 0 2.3.9 2.5 2.2l1 6.2 4.9-3.3c1-.7 2.4-.6 3.2.3l8.3 8.3V2.1l-57 50.8 5.3 4.2zM79.6 55.8l63.8-56.9H4.1l63.8 56.8c3.2 3 8.4 3 11.7.1z"/><path class="st2" d="M80.4 75.1c-.7-1-.6-2.4.3-3.3l11.2-11.3-5.3-4.2-3.6 3.3c-2.5 2.3-5.9 3.4-9.2 3.4-3.3 0-6.7-1.1-9.2-3.4L61 56.4C47 68.6 15.5 93 2.5 103.2h73.8V83.8c0-1.2.9-2.3 2.1-2.5l5.8-1.1-3.8-5.1z"/></g><g class="st0 st1" id="Layer_3"><path class="st2" d="M149.8 88.2c-.3-.9-1.1-1.6-2.1-1.7l-19.8-2.8-8.8-17.2c-.9-1.7-3.7-1.7-4.5 0l-8.8 17.2L86 86.5c-1 .1-1.8.8-2.1 1.7-.3.9 0 2 .7 2.6l14.3 13.4-3.4 18.9c-.2 1 .2 1.9 1 2.5s1.8.7 2.7.2l17.7-9 17.7 9c.4.2.8.3 1.1.3.5 0 1.1-.2 1.5-.5.8-.6 1.2-1.5 1-2.5l-3.4-18.9 14.3-13.4c.7-.7 1-1.7.7-2.6zm-19.4 13.2c-.6.6-.9 1.5-.8 2.3l2.7 15.2-14.3-7.3c-.4-.2-.8-.3-1.1-.3-.3 0-.8.1-1.1.3l-14.3 7.3 2.7-15.2c.2-.8-.1-1.7-.8-2.3L91.9 90.7l15.8-2.2c.8-.1 1.5-.6 1.9-1.4l7.2-14 7.2 14c.4.7 1.1 1.2 1.9 1.4l15.8 2.2-11.3 10.7zM0 2.1v96.5C13.3 88.3 43.2 65 57 53L0 2.1z"/><path class="st2" d="M106.4 65.8l8.2-16.1c.9-1.7 3.7-1.7 4.5 0l13.8 27 14.4 2V2.1l-57 50.8 16.1 12.9zM79.6 55.8l63.8-56.9H4.1l63.8 56.8c3.2 3 8.5 3 11.7.1z"/><path class="st2" d="M67.1 82.8c.3-.9 1.1-1.6 2.1-1.7l31.6-4.4 3.2-6.3-17.4-14.1-3.6 3.3c-2.5 2.3-5.9 3.4-9.2 3.4-3.3 0-6.7-1.1-9.2-3.4L61 56.4C47 68.6 15.5 93 2.5 103.2h84.3L67.9 85.5c-.8-.7-1-1.7-.8-2.7z"/></g><g class="st0 st1" id="Layer_4"><path class="st2" d="M149.1 116.6l-29.6-50.8c-1-1.7-2.8-2.8-4.8-2.8s-3.8 1-4.8 2.8l-29.6 50.8c-1 1.8-1 3.8 0 5.6s2.8 2.8 4.8 2.8h59.2c2 0 3.8-1 4.8-2.8 1.2-1.8 1.2-3.9 0-5.6zm-4.3 3.1c-.1.1-.2.3-.5.3H85.1c-.3 0-.4-.2-.5-.3-.1-.1-.1-.3 0-.6l29.6-50.8c.1-.2.4-.3.5-.3.2 0 .4.1.5.3l29.6 50.8c.3.3.1.5 0 .6z"/><path class="st2" d="M114.9 80c-1.4 0-2.5 1.1-2.5 2.5v20c0 1.4 1.1 2.5 2.5 2.5s2.5-1.1 2.5-2.5v-20c0-1.4-1-2.5-2.5-2.5zM113.1 110.7c-.4.5-.7 1.1-.7 1.8 0 .6.3 1.3.7 1.8.5.4 1.1.7 1.8.7.6 0 1.3-.3 1.8-.7.4-.5.7-1.1.7-1.8 0-.6-.3-1.3-.7-1.8-.9-.9-2.6-.9-3.6 0zM0 3.1V98c13.1-10.1 42.5-33 56-44.9L0 3.1zM102.4 63.9l1.1-1.8c2.3-4 6.7-6.5 11.3-6.5s9 2.5 11.3 6.5L145 94.5V3.1l-56 50 13.4 10.8zM78.1 55.9L140.8 0H4.1l62.7 55.9c3.1 2.8 8.3 2.8 11.3 0z"/><path class="st2" d="M99.9 68.2L85.1 56.4l-3.6 3.2c-2.5 2.2-5.8 3.3-9.1 3.3s-6.6-1.1-9.1-3.3l-3.5-3.1c-13.8 12-44.6 36-57.5 46h77.5l20.1-34.3z"/></g><g class="st0 st1" id="Layer_5"><path class="st2" d="M145.4 93.8c-1.4-.3-2.7.6-2.9 2-2.8 13.8-13.6 23-26.9 23-12.6 0-23.6-8.3-27.4-20h11.7v-5h-20v20h5v-9.6c5.4 11.7 17.3 19.6 30.6 19.6 15.8 0 28.6-10.9 31.8-27 .3-1.4-.5-2.7-1.9-3zM144.9 63.8v10.7c-5.6-11.1-16.8-18.3-29.4-18.3-15.3 0-28.9 10-33 24.3-.4 1.3.4 2.7 1.7 3.1s2.7-.4 3.1-1.7c3.5-12 15.4-20.7 28.2-20.7 11.4 0 21.4 6.9 25.8 17.5h-11.4v5h20v-20l-5 .1zM0 4.3v94.9c13.1-10.1 42.5-33 56.1-44.9L0 4.3z"/><path class="st2" d="M90.8 55.8c6.6-4.4 14.5-7 23-7 12.5 0 23.7 5.6 31.3 14.4V4.3l-56 50 1.7 1.5zM78.1 57.2l62.7-55.9H4.1l62.7 55.9c3.1 2.8 8.3 2.8 11.3 0z"/><path class="st2" d="M86.6 58.9l-1.5-1.2-3.6 3.2c-2.5 2.2-5.8 3.3-9.1 3.3s-6.6-1.1-9.1-3.3l-3.5-3.2c-13.8 12-44.6 36-57.5 46h72.5c-1.5-4.3-2.4-8.9-2.4-13.8 0-12.3 5.5-23.4 14.2-31z"/></g><g class="st0 st1" id="Layer_6"><path class="st2" d="M89.9 63.8v60h60v-60h-60zm55 55h-22.5V87.3L133.1 98l3.5-3.5-16.7-16.8-16.8 16.8 3.5 3.5 10.7-10.7v31.5H94.9v-50h50v50zM0 4.3v94.9c13.1-10.1 42.5-33 56.1-44.9L0 4.3zM144.9 56.3v-52l-56 50 2.5 2zM78.1 57.2l62.7-55.9H4.1l62.7 55.9c3.1 2.8 8.3 2.8 11.3 0z"/><path class="st2" d="M72.4 64.2c-3.3 0-6.6-1.1-9.1-3.3l-3.5-3.2c-13.8 12-44.6 36-57.5 46h80.1V60.1l-.9.8c-2.4 2.2-5.7 3.3-9.1 3.3z"/></g><g id="Layer_7"><path class="st3" d="M117.4 59.9c-18 0-32.6 14.6-32.6 32.6S99.5 125 117.4 125 150 110.5 150 92.5s-14.8-32.6-32.6-32.6zm0 59.9c-15.2 0-27.6-12.4-27.6-27.6s12.4-27.6 27.6-27.6c15.2 0 27.4 12.6 27.4 27.8s-12.4 27.4-27.4 27.4z"/><path class="st3" d="M132.4 89.9h-12.6V77.3c0-1.4-1.2-2.6-2.6-2.6-1.4 0-2.4 1.4-2.4 2.8v12.6h-12.6c-1.4 0-2.6 1.2-2.6 2.6 0 1.4 1.2 2.6 2.6 2.6h12.6v12.6c0 1.4 1.2 2.6 2.6 2.6 1.4 0 2.6-1 2.6-2.6V95.3h12.6c1.4 0 2.6-1 2.6-2.6-.4-1.6-1.6-2.8-2.8-2.8z"/><path class="st4" d="M0 3.2v94.7c13-10 42.5-33 56.1-44.7L0 3.2zM96.1 58.7c6.2-4 13.6-6.4 21.4-6.4 10.6 0 20.4 4.2 27.6 11V3.2l-56 49.9 7 5.6zM78.1 55.9L140.6 0H4l62.7 55.9c3 2.8 8.4 2.8 11.4 0z"/><path class="st4" d="M91.7 61.7l-6.6-5.4-3.6 3.2c-2.6 2.2-5.8 3.4-9.2 3.4-3.2 0-6.6-1.2-9-3.4l-3.6-3c-13.8 12-44.5 36-57.3 45.9h76.3c-.8-3.2-1.4-6.6-1.4-10 .2-12.3 5.8-23.3 14.4-30.7z"/></g></svg>