<svg id="Layer_1" xmlns="http://www.w3.org/2000/svg" viewBox="0 0 140 111.6"><style>.st0{fill:#703081}.st1{fill:#df6b90}.st2{fill:#fff}</style><g id="Layer_1_1_"><path class="st0" d="M96.3 37.4H21.9c-4.5 0-8.1 3.4-8.1 7.5v46.4c0 4.1 3.6 7.5 8.1 7.5h74.4c4.5 0 8.1-3.4 8.1-7.5V44.9c0-4.2-3.6-7.5-8.1-7.5zm0 4.8c.2 0 .4 0 .6.2L59.1 71 20.6 42.6c.3-.2.9-.4 1.3-.4h74.4zm0 51.7H21.9c-1.7 0-3-1.1-3-2.6V47.5l40.2 29.7 40.2-30.5v44.5c0 1.6-1.3 2.7-3 2.7z"/><path transform="rotate(-45.001 48.491 13.704)" class="st1" d="M31.9 11.2H65v5.1H31.9z"/><path transform="rotate(-45.001 126.495 13.507)" class="st1" d="M109.9 11H143v5.1h-33.1z"/><path transform="rotate(-45.001 86.574 13.507)" class="st0" d="M70 11h33.1v5.1H70z"/><path transform="rotate(-45.001 126.368 75.657)" class="st1" d="M109.8 73.1h33.1v5.1h-33.1z"/><path transform="rotate(-45.001 126.462 45.62)" class="st0" d="M109.9 43.1H143v5.1h-33.1z"/></g><path class="st1" d="M40 91.6c0 11-9 20-20 20s-20-9-20-20 9-20 20-20c11.1 0 20 9 20 20z"/><path class="st2" d="M13.3 1033.1c-2.8 0-5 2.2-5 5 0 1.6.8 3 1.9 3.9-3.1 1.2-5.3 4.2-5.3 7.7 0 .5.4.8.8.8h6.5c-.5 1-.7 2.1-.7 3.3 0 .5.4.8.8.8h15c.5 0 .8-.4.8-.8 0-1.2-.3-2.3-.7-3.3h6.5c.5 0 .8-.4.8-.8 0-3.5-2.2-6.5-5.3-7.7 1.2-.9 1.9-2.3 1.9-3.9 0-2.8-2.2-5-5-5-2.6 0-4.7 2-5 4.5-.5-.2-1.1-.3-1.7-.3s-1.2.1-1.7.3c.1-2.5-2-4.5-4.6-4.5zm0 1.7c1.9 0 3.3 1.5 3.3 3.3v.4c-.7.7-1.3 1.5-1.5 2.5H15c-.3.1-1.3.4-1.7.4-1.9 0-3.3-1.5-3.3-3.3 0-1.8 1.5-3.3 3.3-3.3zm13.4 0c1.9 0 3.3 1.5 3.3 3.3 0 1.9-1.5 3.3-3.3 3.3-.4 0-1.4-.2-1.7-.4h-.1c-.2-1-.8-1.8-1.5-2.5v-.4c-.1-1.8 1.4-3.3 3.3-3.3zM20 1039c1.9 0 3.3 1.5 3.3 3.3s-1.5 3.3-3.3 3.3c-1.9 0-3.3-1.5-3.3-3.3s1.4-3.3 3.3-3.3zm-5 3.9c.2 1.3.9 2.5 1.9 3.3-1.4.6-2.7 1.5-3.6 2.7H6.7c.4-3.3 3.2-5.8 6.6-5.8h.2c.5 0 1-.1 1.5-.2zm10 0c.5.1 1.1.2 1.5.2h.1c3.4 0 6.2 2.5 6.6 5.8h-6.6c-.9-1.2-2.1-2.2-3.6-2.7 1.1-.8 1.8-2 2-3.3zm-5 4.4c3.4 0 6.2 2.5 6.6 5.8H13.4c.4-3.3 3.2-5.8 6.6-5.8z" transform="translate(0 -952.362)"/></svg>