<svg id="Layer_1" xmlns="http://www.w3.org/2000/svg" viewBox="0 0 150 166.8"><style>.st0{fill:#703081}.st1{fill:#9b75a6}</style><path class="st0" d="M75 0C33.6 0 0 33.6 0 75c0 39.2 30.2 71.4 68.6 74.8L56.4 162c-1 1-1 2.8 0 4 .6.6 1.2.8 2 .8s1.4-.2 2-.8L77 149.4c.2-.2.4-.6.6-1 .2-.6.2-1.4 0-2.2-.2-.4-.4-.6-.6-1l-16.6-16.6c-1-1-2.8-1-4 0s-1 2.8 0 4L68 144.2C33 140.6 5.6 111 5.6 75 5.6 36.8 36.8 5.6 75 5.6s69.4 31.2 69.4 69.4c0 18.4-7.2 35.8-20.2 48.8-1 1-1 2.8 0 4 1 1 2.8 1 4 0C142.2 113.6 150 95 150 75c0-41.2-33.6-75-75-75z" id="Layer_2"/><path class="st1" d="M107.3 63.4V47.9l-4.6-.9c-.5-1.7-1.2-3.2-1.9-4.7l2.6-3.9-11-11-3.9 2.6c-1.5-.8-3.1-1.4-4.7-1.9l-.9-4.6H67.2l-.9 4.5c-1.7.5-3.2 1.2-4.7 1.9l-3.9-2.6-11 11 2.6 3.9c-.8 1.5-1.4 3.1-1.9 4.7l-4.6.9v15.6l4.6.9c.5 1.7 1.2 3.2 1.9 4.7l-2.6 4 9 9v22.1h4.8v19.3h29V104h4.8V81.9l9-9-2.6-3.9c.8-1.5 1.4-3.1 1.9-4.7l4.7-.9zM90 67.9c-1.1-.6-2.4-1-3.7-1h-5.2L75 78.1 68.9 67h-5.2c-1.3 0-2.6.4-3.7.9-2.8-3.4-4.4-7.7-4.4-12.2 0-10.7 8.7-19.4 19.4-19.4S94.3 45 94.3 55.7c.1 4.4-1.5 8.7-4.3 12.2zm-16.6 52.3h-9.7V104h9.7v16.2zm12.9 0h-9.7V104h9.7v16.2zm4.8-19.4H58.9V75c0-2.7 2.2-4.8 4.8-4.8H67l8 14.7 8-14.7h3.3c2.7 0 4.8 2.2 4.8 4.8v25.8zm9-39.2l-.3 1c-.6 2.1-1.4 4-2.4 5.8l-.5.9 2.2 3.3-4.8 4.8V75c0-1.9-.7-3.7-1.8-5.1 3.2-4.1 5.1-9.2 5.1-14.3C97.6 43.1 87.5 33 75 33S52.4 43.2 52.4 55.7c0 5.3 1.8 10.3 5.1 14.3-1.1 1.4-1.9 3.1-1.9 5.1v2.3l-4.8-4.8 2.2-3.3-.5-.9c-1-1.8-1.9-3.8-2.4-5.8l-.3-1-3.8-.8V50.5l3.9-.8.3-1c.6-2.1 1.4-4 2.4-5.8l.5-.9-2.2-3.3 7.2-7.3 3.3 2.2.9-.5c1.8-1 3.8-1.9 5.8-2.4l1-.3.8-3.9h10.3l.8 3.9 1 .3c2.1.6 4 1.4 5.8 2.4l.9.5 3.3-2.2 7.2 7.2-2.2 3.3.5.9c1 1.8 1.9 3.8 2.4 5.8l.3 1 3.9.8v10.3l-4 .9z"/><path class="st0" d="M75 42.8c-6.2 0-11.3 5.1-11.3 11.3S68.8 65.3 75 65.3s11.3-5 11.3-11.3S81.2 42.8 75 42.8zm0 19.3c-4.4 0-8.1-3.6-8.1-8.1s3.7-8 8.1-8 8.1 3.6 8.1 8.1-3.7 8-8.1 8z"/></svg>