<svg id="Layer_1" xmlns="http://www.w3.org/2000/svg" viewBox="0 0 150 166.8"><style>.st0{fill:#703081}.st1{fill:#9b75a6}</style><path class="st0" d="M75 0C33.6 0 0 33.6 0 75c0 39.2 30.2 71.4 68.6 74.8L56.4 162c-1 1-1 2.8 0 4 .6.6 1.2.8 2 .8s1.4-.2 2-.8L77 149.4c.2-.2.4-.6.6-1 .2-.6.2-1.4 0-2.2-.2-.4-.4-.6-.6-1l-16.6-16.6c-1-1-2.8-1-4 0s-1 2.8 0 4L68 144.2C33 140.6 5.6 111 5.6 75 5.6 36.8 36.8 5.6 75 5.6s69.4 31.2 69.4 69.4c0 18.4-7.2 35.8-20.2 48.8-1 1-1 2.8 0 4 1 1 2.8 1 4 0C142.2 113.6 150 95 150 75c0-41.2-33.6-75-75-75z" id="Layer_2"/><path class="st1" d="M52.8 90.5c-.7-2.7-1.1-5.6-1.1-8.6 0-17.8 14-32.4 31.7-33C78.7 39 68.7 32 56.9 32c-16.1 0-29.2 13-29.2 29.1 0 7.6 2.9 14.6 7.7 19.9L25 90.4l27.8.1z"/><path class="st0" d="M87.9 114.8c-16.9 0-30.6-13.7-30.7-30.6 0-8.2 3.1-15.9 8.9-21.7s13.4-9.1 21.6-9.1c17 0 30.7 13.7 30.7 30.6 0 7-2.3 13.6-6.6 19l13.1 11.7-37 .1zm0-56.6c-7 0-13.5 2.7-18.4 7.6s-7.6 11.4-7.6 18.3c0 14.3 11.7 25.9 25.9 25.9h25l-7.3-6.6 1.7-1.8c4.5-4.8 6.9-11 6.9-17.6-.3-14.2-11.9-25.8-26.2-25.8z"/><path class="st0" d="M88.4 73.1c-3.9 0-7.1 3.1-7.1 7.1h4.1c0-1.7 1.4-3 3-3 1.7 0 3 1.4 3 3 0 1.7-1.4 3-3 3h-2V89h4.1v-2c2.9-.8 5-3.5 5-6.8-.1-3.8-3.2-7.1-7.1-7.1z"/></svg>