<svg id="Layer_1" xmlns="http://www.w3.org/2000/svg" viewBox="0 0 150 166.8"><style>.st0{fill:#9b75a6}.st1{fill:#703081}</style><g id="Layer_2"><path class="st0" d="M91.6 44.6C91.6 35.4 84.2 28 75 28s-16.6 7.4-16.6 16.6v13.8H44.6v52.8h61.2V58.4H92V44.6h-.4zm-27.8 0c0-6.2 5-11.2 11.2-11.2s11.2 5 11.2 11.2v13.8H63.8V44.6zm14 46.8v6c0 1.6-1.2 2.8-2.8 2.8s-2.8-1.2-2.8-2.8v-6c-4.8-1.2-8.4-5.6-8.4-10.8 0-6.2 5-11.2 11.2-11.2s11.2 5 11.2 11.2c0 5.2-3.6 9.4-8.4 10.8z"/><circle class="st0" cx="75" cy="80.6" r="5.6"/><path class="st1" d="M75 0C33.6 0 0 33.6 0 75c0 39.2 30.2 71.4 68.6 74.8L56.4 162c-1 1-1 2.8 0 4 .6.6 1.2.8 2 .8s1.4-.2 2-.8L77 149.4c.2-.2.4-.6.6-1 .2-.6.2-1.4 0-2.2-.2-.4-.4-.6-.6-1l-16.6-16.6c-1-1-2.8-1-4 0s-1 2.8 0 4L68 144.2C33 140.6 5.6 111 5.6 75 5.6 36.8 36.8 5.6 75 5.6s69.4 31.2 69.4 69.4c0 18.4-7.2 35.8-20.2 48.8-1 1-1 2.8 0 4 1 1 2.8 1 4 0C142.2 113.6 150 95 150 75c0-41.2-33.6-75-75-75z"/></g></svg>