<svg id="Layer_1" xmlns="http://www.w3.org/2000/svg" viewBox="0 0 150 150"><style>.st0{fill:#703081}.st1{fill:#df6b90}</style><path class="st0" d="M75 0C33.6 0 0 33.6 0 75s33.6 75 75 75 75-33.6 75-75S116.4 0 75 0zm0 3.1c39.7 0 71.9 32.2 71.9 71.9s-32.2 71.9-71.9 71.9S3.1 114.7 3.1 75 35.3 3.1 75 3.1z" id="Layer_2"/><path class="st1" d="M75 117c-22.8 0-41.3-18.5-41.3-41.3v-13c0-1.2 1-2.2 2.2-2.2h78.3c1.2 0 2.2 1 2.2 2.2v13C116.3 98.4 97.8 117 75 117zM38 64.8v10.9c0 20.4 16.6 37 37 37s37-16.6 37-37V64.8H38z"/><path class="st0" d="M75 108.3c-10.8 0-19.6-8.8-19.6-19.6S64.2 69.1 75 69.1s19.6 8.8 19.6 19.6-8.8 19.6-19.6 19.6zm0-34.8c-8.4 0-15.2 6.8-15.2 15.2s6.8 15.2 15.2 15.2 15.2-6.8 15.2-15.2S83.4 73.5 75 73.5z"/><path class="st1" d="M75 99.6c-6 0-10.9-4.9-10.9-10.9S69 77.8 75 77.8s10.9 4.9 10.9 10.9S81 99.6 75 99.6zm0-17.4c-3.6 0-6.5 2.9-6.5 6.5s2.9 6.5 6.5 6.5 6.5-2.9 6.5-6.5-2.9-6.5-6.5-6.5zM118.5 64.8h-87c-3.6 0-6.5-2.9-6.5-6.5v-13c0-1.2 1-2.2 2.2-2.2h95.7c1.2 0 2.2 1 2.2 2.2v13c-.1 3.6-3 6.5-6.6 6.5zM29.3 47.4v10.9c0 1.2 1 2.2 2.2 2.2h87c1.2 0 2.2-1 2.2-2.2V47.4H29.3z"/><circle class="st1" cx="101.1" cy="75.7" r="2.2"/></svg>