<svg id="Layer_1" xmlns="http://www.w3.org/2000/svg" viewBox="0 0 50 50"><path d="M47.6 33.7H2.4c-.5 0-.9.2-1.2.5-.3.3-.5.8-.5 1.2v6.9c0 .5.2.9.5 1.2.3.3.8.5 1.2.5h45.2c.5 0 .9-.2 1.2-.5.3-.3.5-.8.5-1.2v-6.9c0-.5-.2-.9-.5-1.2-.3-.3-.7-.5-1.2-.5zm-1.7 6.9H28.5v-3.5h17.4v3.5zm1.7-20.8H2.4c-.5 0-.9.2-1.2.5-.3.3-.5.8-.5 1.2v6.9c0 .5.2.9.5 1.2.3.3.8.5 1.2.5h45.2c.5 0 .9-.2 1.2-.5.3-.3.5-.8.5-1.2v-6.9c0-.5-.2-.9-.5-1.2-.3-.3-.7-.5-1.2-.5zm-1.7 6.9H18.1v-3.5h27.8v3.5zm2.9-20.3c-.3-.3-.8-.5-1.2-.5H2.4c-.5 0-.9.2-1.2.5-.4.3-.5.8-.5 1.2v6.9c0 .5.2.9.5 1.2.3.3.8.5 1.2.5h45.2c.5 0 .9-.2 1.2-.5.3-.3.5-.8.5-1.2V7.6c0-.4-.1-.9-.5-1.2zm-2.9 6.4H35.4V9.4h10.4v3.4z" fill="#575757"/></svg>