<svg id="Layer_1" xmlns="http://www.w3.org/2000/svg" viewBox="0 0 150 150"><style>.st0{fill:#703081}.st1{fill:#df6b90}</style><path class="st0" d="M75 0C33.6 0 0 33.6 0 75s33.6 75 75 75 75-33.6 75-75S116.4 0 75 0zm0 3.1c39.7 0 71.9 32.2 71.9 71.9s-32.2 71.9-71.9 71.9S3.1 114.7 3.1 75 35.3 3.1 75 3.1z" id="Layer_2"/><path class="st0" d="M99.1 95.6l-8.2-8.1c3.4-3.8 5-8.5 5-13.3s-1.7-9.5-5-13.3l8.3-8.1c-.4-.3-.8-.6-1.2-1s-.8-.9-1.1-1.3l-8.3 8.1c-3.9-3.3-8.7-4.9-13.5-4.9s-9.7 1.6-13.5 4.9l-8.5-8.4c-.3.5-.7.9-1.1 1.3-.4.3-.7.6-1.2 1l8.5 8.3c-3.3 3.8-5 8.5-5 13.3 0 4.8 1.7 9.4 5 13.3l-7.8 7.7c.2.2.3.2.5.4.6.6 1.1 1.3 1.5 2.1l8.1-7.9c4 3.3 8.9 5 13.7 5s9.7-1.6 13.5-4.9l8.3 8.1c.3-.5.6-.9 1.1-1.3.1-.4.5-.7.9-1zm-11.6-9.2c-3.3 3.3-7.8 5.1-12.5 5.1-4.8 0-9.2-1.8-12.5-5.1-3.3-3.2-5.2-7.6-5.2-12.2s1.9-9 5.2-12.2c3.3-3.3 7.8-5.1 12.5-5.1 4.8 0 9.2 1.8 12.5 5.1 3.3 3.2 5.2 7.6 5.2 12.2s-1.9 8.9-5.2 12.2z"/><path class="st1" d="M87.6 31.7H62.4v18.1h25.2V31.7zm-5.9 3.2L75 41l-6.7-6 13.4-.1zm2.7 11.7H65.6v-9.7l9.4 8.3 9.4-8.3v9.7zM62.4 118.3h25.2V98.6H62.4v19.7zm3.2-16.4h18.7v13.2H65.6v-13.2z"/><path class="st1" d="M71.7 112.2l6.6-3.7-6.6-3.8zM37.3 80.5h12.8V64H25v16.5h3.9v8.8l8.4-8.8zm-9.1-3.2V67.2h18.7v10.1H36l-3.9 4v-4h-3.9zM99.8 64.4V84H125V64.4H99.8zm22 16.4h-18.7V67.6h18.7v13.2z"/><path class="st1" d="M109.5 78.6c.5.2 1 .3 1.6.3h4.8c.5 0 .9-.4.9-.8 0 0 .9-4 .9-4.2 0-.3-.2-.6-.5-.8-.2-.1-.3-.1-.4-.1h-3.5l.1-.5c.2-.7.2-1.5.2-2.3v-.1c0-.3-.2-.6-.4-.9-.2-.2-.4-.2-.6-.2h-.2c-.1 0-.2.1-.2.1l-.3.2v.9c0 .5-.1 1-.2 1.4s-.5.8-.8 1.2l-1.3 1.2v-.8h-2.3v6.3h2.3c-.1-.1-.1-.9-.1-.9zM33.1 72.2c0-.4-.2-.8-.5-1-.3-.2-.5-.2-.8-.2-.7 0-1.3.6-1.3 1.3s.6 1.3 1.3 1.3c.3 0 .6-.1.8-.2.3-.4.5-.8.5-1.2zM37.6 73.5c.6 0 1.1-.4 1.2-1 0-.1.1-.2.1-.3 0-.7-.6-1.3-1.3-1.3-.7 0-1.3.6-1.3 1.3s.6 1.3 1.3 1.3zM42.1 72.2c0 .1 0 .2.1.3.1.3.2.6.5.7s.5.2.8.2c.6 0 1.1-.4 1.2-1 0-.1.1-.2.1-.3 0-.7-.6-1.3-1.3-1.3-.3 0-.6.1-.8.2-.4.5-.6.8-.6 1.2zM80.7 64L63.8 80.2l-1.9.8c-.2.1-.2.2-.2.3l1.8 3.1c0 .1.2.1.2.1s.1 0 .2-.1l1.6-1.3 4.9-1.4c.6 1.9 2.3 3.2 4.3 3.2.4 0 .8-.1 1.2-.2l1.5-.4c1.1-.3 2.1-1 2.7-2.1.6-1 .7-2.3.4-3.4l7.7-2.2L80.7 64zm-3.4 16.6c-.2.3-.4.5-.7.6l-1.5.4c-.6.2-1.4-.2-1.5-.8l3.9-1c-.1.3-.2.6-.2.8z"/><path class="st0" d="M51.2 45.4c0 1.5-.6 2.8-1.6 3.9s-2.5 1.6-4 1.6-2.8-.6-4-1.6c-1-1-1.6-2.4-1.6-3.9s.6-2.8 1.6-3.9c2.2-2.1 5.7-2.1 7.9 0 1.1 1 1.7 2.4 1.7 3.9zM51.2 101.8c0 1.5-.6 2.8-1.6 3.9-1 1-2.5 1.6-4 1.6s-2.8-.6-4-1.6c-1-1-1.6-2.4-1.6-3.9s.6-2.8 1.6-3.9c2.2-2.1 5.7-2.1 7.9 0 1.1 1 1.7 2.3 1.7 3.9zM109.8 102.7c0 1.5-.6 2.8-1.6 3.9-1 1-2.5 1.6-4 1.6s-2.8-.6-4-1.6c-1-1-1.6-2.4-1.6-3.9s.6-2.8 1.6-3.9c2.2-2.1 5.7-2.1 7.9 0 1 1.1 1.7 2.5 1.7 3.9zM109.8 45.6c0 1.5-.6 2.8-1.6 3.9-1 1-2.5 1.6-4 1.6s-2.8-.6-4-1.6c-1-1-1.6-2.4-1.6-3.9s.6-2.8 1.6-3.9c2.2-2.1 5.7-2.1 7.9 0 1 1 1.7 2.4 1.7 3.9z"/></svg>