<svg id="Layer_1" xmlns="http://www.w3.org/2000/svg" viewBox="0 0 150 150"><style>.st0{fill:#703081}.st1{fill:#df6b90}</style><path class="st0" d="M75 0C33.6 0 0 33.6 0 75s33.6 75 75 75 75-33.6 75-75S116.4 0 75 0zm0 3.1c39.7 0 71.9 32.2 71.9 71.9s-32.2 71.9-71.9 71.9S3.1 114.7 3.1 75 35.3 3.1 75 3.1z" id="Layer_2"/><path class="st0" d="M55.6 27.5h64.3v39.8H66.6v3.2h53.5v3.2H66.6V77h55.2c.8 0 1.6-.8 1.6-1.6V25.7c0-.8-.6-1.4-1.6-1.4H54.2c-.8 0-1.6.6-1.6 1.4v6.1h3.2v-4.3h-.2z"/><path class="st1" d="M75.7 64.2c.6 0 1-.2 1.4-.8l10.8-16 4.9 9.7c.2.6.8 1 1.6.8.6 0 1.2-.4 1.4-1l8.1-21.5 7.5 12.4c.4.8 1.4 1 2.2.6.8-.4 1-1.4.6-2.2l-9.1-15.4c-.4-.6-1-.8-1.6-.8-.6 0-1.2.4-1.4 1l-7.9 21.1-4.5-8.9c-.2-.6-.8-.8-1.4-.8-.6 0-1.2.2-1.4.8L74.5 61.6c-.4.8-.2 1.8.4 2.2.2.4.4.4.8.4zM119.7 122.5v-5.3c0-5.5-4.5-10.1-10.1-10.1H97.2c-5.5 0-10.1 4.5-10.1 10.1v5.3h-3.4v-5.3c0-5.5-4.5-10.1-10.1-10.1H61.1c-5.5 0-10.1 4.5-10.1 10.1v5.3H37.6v-23c0-.8-.6-1.6-1.6-1.6h-7.7V77c0-5.9 4.7-10.8 10.5-10.8h12.4C57.1 66.2 62 71.1 62 77v4.3h3.2V77c0-7.7-6.3-14-14-14H38.8C31.1 63 25 69.3 25 77v22.5c0 .8.6 1.6 1.6 1.6h7.5v21.3h-7.5v3.2H125v-3.2h-5.3zm-29.6-5.3c0-3.9 3.2-6.9 6.9-6.9h12.4c3.9 0 6.9 3 6.9 6.9v5.3H90.1v-5.3zm-36.1 0c0-3.9 3.2-6.9 6.9-6.9h12.4c3.9 0 6.9 3 6.9 6.9v5.3H54v-5.3z"/><path class="st1" d="M91.9 94.1c0 6.3 5.1 11.4 11.4 11.4s11.4-5.1 11.4-11.4c0-6.3-5.1-11.4-11.4-11.4-6.3-.2-11.4 4.9-11.4 11.4zm19.7 0c0 4.5-3.7 8.1-8.1 8.1-4.5 0-8.1-3.7-8.1-8.1S99 86 103.5 86c4.3-.2 8.1 3.4 8.1 8.1zM55.6 94.1c0 6.3 5.1 11.4 11.4 11.4 6.3 0 11.4-5.1 11.4-11.4 0-6.3-5.1-11.4-11.4-11.4-6.1-.2-11.4 4.9-11.4 11.4zm19.7 0c0 4.5-3.7 8.1-8.1 8.1s-8.1-3.7-8.1-8.1 3.7-8.1 8.1-8.1c4.5-.2 8.1 3.4 8.1 8.1zM44.9 60.4c7.7 0 14-6.3 14-14s-6.3-14-14-14-14 6.3-14 14c.2 7.7 6.3 14 14 14zm0-24.8c5.9 0 10.8 4.9 10.8 10.8s-4.9 10.8-10.8 10.8-10.5-4.9-10.5-10.8S39 35.6 44.9 35.6z"/></svg>