<svg id="Layer_1" xmlns="http://www.w3.org/2000/svg" viewBox="0 0 150 166.8"><style>.st0{fill:#703081}.st1{fill:#9b75a6}</style><path class="st0" d="M75 0C33.6 0 0 33.6 0 75c0 39.2 30.2 71.4 68.6 74.8L56.4 162c-1 1-1 2.8 0 4 .6.6 1.2.8 2 .8s1.4-.2 2-.8L77 149.4c.2-.2.4-.6.6-1 .2-.6.2-1.4 0-2.2-.2-.4-.4-.6-.6-1l-16.6-16.6c-1-1-2.8-1-4 0s-1 2.8 0 4L68 144.2C33 140.6 5.6 111 5.6 75 5.6 36.8 36.8 5.6 75 5.6s69.4 31.2 69.4 69.4c0 18.4-7.2 35.8-20.2 48.8-1 1-1 2.8 0 4 1 1 2.8 1 4 0C142.2 113.6 150 95 150 75c0-41.2-33.6-75-75-75z" id="Layer_2"/><path class="st1" d="M94 23.4H56c-4.4 0-8.1 3.6-8.1 8.1v83.8c0 4.4 3.6 8.1 8.1 8.1h38c4.4 0 8.1-3.6 8.1-8.1V31.5c0-4.5-3.7-8.1-8.1-8.1zm-27.9 6.4h17.8c.8 0 1.4.6 1.4 1.4s-.6 1.4-1.4 1.4H66.1c-.8 0-1.4-.6-1.4-1.4s.7-1.4 1.4-1.4zM75 120c-2.7 0-4.8-2.2-4.8-4.8s2.2-4.8 4.8-4.8 4.8 2.2 4.8 4.8c0 2.6-2.1 4.8-4.8 4.8zm23.2-13.1H51.8V38.2h46.4v68.7z"/><path class="st0" d="M86.4 70.5v-5.3c0-6.3-5.1-11.4-11.4-11.4s-11.4 5.1-11.4 11.4v5.3c-1.9.6-3.2 2.3-3.2 4.4v13.5c0 2.5 2.1 4.6 4.6 4.6h20c2.5 0 4.6-2.1 4.6-4.6V74.9c0-2.1-1.4-3.8-3.2-4.4zm-6.7 16.7c-.1.2-.3.3-.5.3l-8.4.1c-.2 0-.4-.1-.5-.3-.1-.2-.1-.4 0-.6l2.5-5.6c-.7-.6-1.2-1.6-1.2-2.6 0-1.9 1.5-3.4 3.4-3.4s3.4 1.5 3.4 3.4c0 1-.4 1.9-1.1 2.5l2.4 5.5c.2.3.1.5 0 .7zm2.1-16.9H68.2v-5.1c0-3.7 3-6.8 6.8-6.8 3.7 0 6.8 3 6.8 6.8v5.1z"/></svg>