<svg id="Layer_1" xmlns="http://www.w3.org/2000/svg" viewBox="0 0 150 126.6"><style>.st0{fill:#703081}.st1{fill:#865294}.st2{fill:#9b75a6}</style><path class="st0" d="M138 0H11.8C5.4 0 0 5.2 0 11.8v103.1c0 6.4 5.2 11.8 11.8 11.8h126.4c6.4 0 11.8-5.2 11.8-11.8V11.6C149.8 5.2 144.6 0 138 0zm7.2 114.6c0 3.8-3.2 7-7 7H11.8c-3.8 0-7-3.2-7-7v-103c0-3.8 3.2-7 7-7h126.4c3.8 0 7 3.2 7 7v103z"/><path class="st1" d="M123 27.3H27c-1.1 0-2 .9-2 2v55.6c0 1.1.9 2 2 2h55.6v10.5c0 .8.4 1.5 1.1 1.7.7.3 1.5.3 2.1-.3l5.9-4.7 5.9 4.7c.4.3.8.4 1.2.4.3 0 .5 0 .9-.3.7-.3 1.1-1.1 1.1-1.7V86.7H123c1.1 0 2-.9 2-2V29.3c0-1.2-.9-2-2-2zm-26.1 66L93 90.2c-.7-.5-1.7-.5-2.4 0l-3.9 3.1V81.1c1.6.7 3.3 1.1 5.1 1.1 1.7 0 3.6-.4 5.1-1.1v12.2zm-5.2-15.1c-4.9 0-8.9-4-8.9-8.9s4-8.9 8.9-8.9 8.9 4 8.9 8.9c.1 4.9-4 8.9-8.9 8.9zm0-21.9c-3.9 0-7.5 1.7-9.7 4.5H52c-1.1 0-2 .9-2 2s.9 2 2 2h27.6c-.5 1.3-.8 2.9-.8 4.5 0 2.4.7 4.7 1.9 6.7H44.1c-.8-4.1-4.1-7.5-8.3-8.3V46.5c4.1-.8 7.5-4.1 8.3-8.3H106c.8 4.1 4.1 7.5 8.3 8.3v21.1c-4.1.8-7.5 4.1-8.3 8.3h-3.1c1.2-2 1.9-4.1 1.9-6.7-.2-7.1-5.9-12.9-13.1-12.9zM121 82.9h-20.3V80h6.9c1.1 0 2-.9 2-2 0-3.6 2.9-6.5 6.5-6.5 1.1 0 2-.9 2-2V44.6c0-1.1-.9-2-2-2-3.6 0-6.5-2.9-6.5-6.5 0-1.1-.9-2-2-2H42.2c-1.1 0-2 .9-2 2 0 3.6-2.9 6.5-6.5 6.5-1.1 0-2 .9-2 2v24.8c0 1.1.9 2 2 2 3.6 0 6.5 2.9 6.5 6.5 0 1.1.9 2 2 2h40.4v2.9H29V31.1h92v51.8z"/><path class="st2" d="M98.1 49.3h-.5c-1.1 0-2 .9-2 2s.9 2 2 2h.5c1.1 0 2-.9 2-2s-1-2-2-2zM90.7 49.3H52.1c-1.1 0-2 .9-2 2s.9 2 2 2h38.7c1.1 0 2-.9 2-2s-1-2-2.1-2z"/></svg>