<svg id="Layer_1" xmlns="http://www.w3.org/2000/svg" viewBox="0 0 150 126.6"><style>.st0{fill:#703081}.st1{fill:#9b75a6}</style><path class="st0" d="M138 0H11.8C5.4 0 0 5.2 0 11.8v103.1c0 6.4 5.2 11.8 11.8 11.8h126.4c6.4 0 11.8-5.2 11.8-11.8V11.6C149.8 5.2 144.6 0 138 0zm7.2 114.6c0 3.8-3.2 7-7 7H11.8c-3.8 0-7-3.2-7-7v-103c0-3.8 3.2-7 7-7h126.4c3.8 0 7 3.2 7 7v103z"/><path class="st0" d="M123 81.7H27c-1.1 0-2 .9-2 2v26.9c0 1.1.9 2 2 2h96c1.1 0 2-.9 2-2V83.7c0-1.1-.9-2-2-2zm-21.6 4h8.3v5.1h-8.3v-5.1zm12.8 8.9v5.1h-5.1v-5.1h5.1zm-9.1 0v5.1h-8.3v-5.1h8.3zm-16-8.9h8.3v5.1h-8.3v-5.1zm3.9 8.9v5.1h-8.3v-5.1H93zm-16-8.9h8.3v5.1H77v-5.1zm3.7 8.9v5.1h-8.3v-5.1h8.3zm-16-8.9H73v5.1h-8.3v-5.1zm3.9 8.9v5.1h-8.3v-5.1h8.3zm-16-8.9h8.3v5.1h-8.3v-5.1zm3.7 8.9v5.1H48v-5.1h8.3zm-16-8.9h8.3v5.1h-8.3v-5.1zm3.9 8.9v5.1h-8.3v-5.1h8.3zm-15.3-8.9h7.6v5.1h-7.6v-5.1zm0 8.9H32v5.1h-3.1v-5.1zm7.6 14h-7.6v-5.1h7.6v5.1zm12.1 0h-8.3v-5.1h8.3v5.1zm12.3 0h-8.3v-5.1h8.3v5.1zm24.4 0H64.7v-5.1h20.5c.1.1.1 5.1.1 5.1zm12.1 0h-8.3v-5.1h8.3v5.1zm12.3 0h-8.3v-5.1h8.3v5.1zm11.4 0h-7.6v-5.1h7.6v5.1zm-3-8.9v-5.1h3.1v5.1h-3.1zm3-8.9h-7.6v-5.1h7.6v5.1zM64.7 14H27c-1.1 0-2 .9-2 2v60.3c0 1.1.9 2 2 2h37.9c1.1 0 2-.9 2-2V16c-.2-1.1-1.1-2-2.2-2zm-1.8 60.2h-34V18h33.9l.1 56.2zM123 14H73.7c-1.1 0-2 .9-2 2v60.3c0 1.1.9 2 2 2H123c1.1 0 2-.9 2-2V16c0-1.1-.9-2-2-2zm-1.9 60.2H75.7v-48h45.5v48zm0-51.8H75.7V18h45.5v4.4z"/><path class="st1" d="M56.5 23.8H35.1c-1.1 0-2 .9-2 2s.9 2 2 2h21.3c1.1 0 2-.9 2-2 .1-1.2-.7-2-1.9-2zM45.9 32H35.3c-1.1 0-2 .9-2 2s.9 2 2 2H46c1.1 0 2-.9 2-2-.2-1.2-1-2-2.1-2zM56.5 40.1H35.1c-1.1 0-2 .9-2 2s.9 2 2 2h21.3c1.1 0 2-.9 2-2 .1-1.2-.7-2-1.9-2zM45.9 48.2H35.3c-1.1 0-2 .9-2 2s.9 2 2 2H46c1.1 0 2-.9 2-2-.2-1.2-1-2-2.1-2zM56.5 56.4H35.1c-1.1 0-2 .9-2 2s.9 2 2 2h21.3c1.1 0 2-.9 2-2 .1-1.2-.7-2-1.9-2zM45.9 64.5H35.3c-1.1 0-2 .9-2 2s.9 2 2 2H46c1.1 0 2-.9 2-2-.2-1.2-1-2-2.1-2zM84.3 49.3l6.1-6.1c.8-.8.8-2 0-2.8-.8-.8-2-.8-2.8 0L80.1 48c-.8.8-.8 2 0 2.8l7.6 7.6c.4.4.9.5 1.3.5.5 0 .9-.1 1.3-.5.8-.8.8-2 0-2.8l-6-6.3zM116.6 48l-7.6-7.6c-.8-.8-2-.8-2.8 0-.8.8-.8 2 0 2.8l6.1 6.1-6.1 6.1c-.8.8-.8 2 0 2.8.4.4.9.5 1.3.5s.9-.1 1.3-.5l7.6-7.6c1-.6 1-1.8.2-2.6zM101.1 34.9c-1.1-.3-2.1.4-2.4 1.5L94 54.9c-.3 1.1.4 2.1 1.5 2.4h.5c.9 0 1.7-.5 1.9-1.5l4.7-18.5c.3-1.1-.4-2.1-1.5-2.4z"/></svg>