<svg id="Layer_1" xmlns="http://www.w3.org/2000/svg" viewBox="0 0 150 150"><style>.st0{fill:#d8427d}</style><circle class="st0" cx="65.6" cy="51.8" r="2.1"/><path class="st0" d="M59.3 49.7c-1.1 0-2.1.9-2.1 2.1 0 1.1.9 2.1 2.1 2.1 1.1 0 2.1-.9 2.1-2.1 0-1.1-.9-2.1-2.1-2.1zM71.9 49.7c-1.1 0-2.1.9-2.1 2.1 0 1.1.9 2.1 2.1 2.1 1.1 0 2.1-.9 2.1-2.1 0-1.1-1-2.1-2.1-2.1zM76.9 50.8h29v2.1h-29z"/><path class="st0" d="M108.4 44.2H58.7c-2.3 0-4.1 1.9-4.1 4.1V78h4.1V54.6h49.7v35.2H96c.8 1.7 1.3 3.2 1.3 3.2-.3.3-.6.7-.9 1h12c2.3 0 4.1-1.9 4.1-4.1V48.3c0-2.2-1.9-4.1-4.1-4.1zm-46.6 7.2c-1.1 0-2.1-.9-2.1-2.1 0-1.2.9-2.1 2.1-2.1 1.1 0 2.1.9 2.1 2.1-.1 1.2-1 2.1-2.1 2.1zm6.2 0c-1.1 0-2.1-.9-2.1-2.1 0-1.2.9-2.1 2.1-2.1 1.1 0 2.1.9 2.1 2.1 0 1.2-1 2.1-2.1 2.1zm6.3 0c-1.1 0-2.1-.9-2.1-2.1 0-1.2.9-2.1 2.1-2.1 1.1 0 2.1.9 2.1 2.1 0 1.2-.9 2.1-2.1 2.1z"/><path class="st0" d="M93.5 92.2c-.7-1.5-1.6-3.2-2.6-4.3 0 0-1.1-.9-1.6-1.1-.5-.1-.5-.1-.8-.1-1.4.3-3.2 3.2-6.2 5.4h-15c-.9-.8-1.8-1.8-2.5-2.9h8.3s2.4.2 2.4-1.7v-4.8s.1-2.4-2.4-2.4H49.2v20.3s16.2 5.1 21.9 5.1c0 0 13.3.6 22.8-9.5.3-.3.6-.6.9-1 0 .1-.5-1.3-1.3-3zM37.5 77.9h8.2v27.9h-8.2z"/></svg>