<svg id="Layer_1" xmlns="http://www.w3.org/2000/svg" viewBox="0 0 150 126.6"><style>.st0{fill:#703081}.st1{fill:#f2ba59}</style><path class="st0" d="M138 0H11.8C5.4 0 0 5.2 0 11.8v103.1c0 6.4 5.2 11.8 11.8 11.8h126.4c6.4 0 11.8-5.2 11.8-11.8V11.6C149.8 5.2 144.6 0 138 0zm7.2 114.6c0 3.8-3.2 7-7 7H11.8c-3.8 0-7-3.2-7-7v-103c0-3.8 3.2-7 7-7h126.4c3.8 0 7 3.2 7 7v103z"/><path class="st0" d="M129.3 86.7c-1.4-2-4.3-2.5-8.8-1.8L104.3 88c-1.3.2-2 1.4-1.8 2.5.2 1.3 1.4 2 2.5 1.8l16.2-3.1c1.4-.2 2.5-.4 3.2-.2-13.5 6.1-26.7 12.8-38.4 18.8-4.9 2.5-8.7 3.6-12.3 3.8-2.9.2-5.8-1.1-8.3-2.3-1.1-.5-2.3 0-2.9 1.1-.5 1.1 0 2.3 1.1 2.9 2.9 1.3 6.1 2.7 9.9 2.7h.4c4.1-.2 8.7-1.4 14.1-4.1 11.7-6 25.1-12.8 38.8-18.9 1.6-.7 2.7-1.8 2.9-3.1.5-1.2.3-2.3-.4-3.2z"/><path class="st0" d="M49.8 102.2c-3.8-1.6-7.4-3.2-9.4-4L37.3 97l.2 4.5v.2h-4.1c-4.3-6.7-7-14.1-8.1-21.8-.2-1.4-.4-2.9-.5-4.3l11.7-.4h.2v.2l.2 4.5 2.9-1.3c2.5-1.1 5.4-1.6 8.3-1.6 3.6-.2 7.2.9 11 2.9 1.4.7 2.7 1.8 4.3 2.9 1.4 1.1 2.9 2.2 4.5 3.2 5.6 3.2 11.5 4.1 19.5 3.1 3.8-.5 6.7-.2 7.4.5 0 0 .2.2 0 .5-.2 1.6-4.9 2.3-6.7 2.7l-.8.2c-3.6.5-8.8 1.4-13.7 1.1l-7.2-.5c-1.3-.2-2.3.9-2.3 2-.2 1.3.9 2.3 2 2.3 6.7.5 7.2.5 7.2.5 5.4.4 11-.4 14.8-1.1l.7-.2c3.4-.5 9.6-1.6 10.3-6.3.4-2.2-.5-3.6-1.3-4.3-2.5-2.5-8.1-2.2-11.2-1.8-6.9 1.1-12.1.2-16.6-2.5-1.4-.9-2.7-1.8-4-2.9-1.6-1.3-3.1-2.5-4.9-3.4-4.3-2.3-8.7-3.4-13-3.2-2.5 0-4.9.4-7.2 1.1-.5-1.8-2.2-2.9-4.5-2.9l-13 .4H20l.2 2.2c0 .7.2 1.4.2 2.2.2 1.6.4 3.2.5 4.7 1.3 8.5 4.1 16.6 9 24 .5.9 1.8 1.6 2.9 1.6h4.6c2 0 3.4-1.1 4-2.5 2 .9 4.1 1.8 6.7 2.9.4.2.5.2.9.2.9 0 1.6-.5 2-1.3.4-1.3-.2-2.6-1.2-3.1z"/><circle class="st1" cx="58.6" cy="107.8" r="2.3"/><path class="st1" d="M59.9 48.1c2.7.9 4.9 2.7 6.7 6 1.8 3.1 2.3 6 1.6 9.2-.4 1.8.4 3.2 1.8 4.3 2.2 1.3 4 2.5 6 3.6.5.4 1.3.5 1.8.5.7 0 1.4-.2 2-.5.4-.2.7-.5 1.1-.7.5-.5 1.1-.9 1.6-1.3 2.2-1.1 5.1-1.6 7.9-1.4 2.9.4 5.4 1.3 6.9 2.9.4.4 1.3 1.3 2.9 1.4h.2c.7 0 1.4-.2 2.3-.7s1.8-1.1 2.5-1.4l.2-.2c.7-.4 1.6-.9 2.7-1.4 2-1.1 2.7-2.9 2.2-4.9-.5-2 0-4.7 1.3-7.4s3.2-4.9 5.4-6.1c.7-.4 1.3-.5 2-.7 1.6-.4 2.3-1.4 2.7-2.2.2-.5.4-1.1.4-1.6 0-2.3.2-4.7.2-6.9 0-1.8-.9-3.2-2.5-3.8-3.1-1.1-5.4-3.1-7-6.1-1.6-3.2-2.2-6-1.4-8.8.4-1.8-.2-3.4-1.8-4.5l-2.3-1.4c-1.1-.5-2.2-1.3-3.2-2-1.8-.7-3.4-.5-4.5 0-.4.2-.5.4-.9.5l-.2.2c-.5.4-1.3.9-1.8 1.3h-.9c-2.5.9-4.9 1.3-6.9 1.1-2.7-.2-5.2-1.3-7.4-3.2-1.4-1.3-3.2-1.4-4.9-.5-1.8 1.1-3.8 2.2-5.6 3.1-1.3.7-2.5 2-2.2 4.3.9 5.2-1.1 9.4-6 13.2-.2.2-.4.2-.5.4-.5.4-1.4.5-2 .9h-.2c-.4.2-.7.2-.9.4-.9.5-2.2 1.6-2.2 3.6v3.8-.1 2.5c0 2.6 1.1 4 2.9 4.6zm1.8-6.3v-.4-3.6h.2c.7-.4 1.8-.5 2.7-1.1.4-.2.9-.5 1.1-.7 6-4.9 8.5-10.6 7.6-17.3 1.8-.9 3.6-2 5.4-2.9 3.1 2.5 6.3 4 9.9 4.1 2.7.2 5.6-.4 8.7-1.4.4-.2.9-.4 1.3-.5.9-.5 1.8-1.1 2.3-1.6l.2-.2c1.1.7 2.2 1.3 3.1 1.8l2.2 1.3c-.9 3.8-.2 7.6 2 11.5s5.1 6.7 9 8.1V45c-.9.2-1.8.5-2.7 1.1-2.9 1.6-5.6 4.5-7.2 7.9-1.8 3.4-2.3 7.2-1.6 10.3-1.1.5-2 1.1-2.7 1.4l-.2.2c-.7.4-1.6.9-2.5 1.4-2.2-2.2-5.6-3.8-9.6-4.1-.7 0-1.4-.2-2-.2-3.1 0-6.1.7-8.7 2-.9.5-1.8 1.1-2.3 1.8-1.6-.9-3.2-2-5.2-3.1.9-4.1.2-8.1-2.2-12.1s-5.1-6.5-8.8-7.8c-.2-.6 0-1.3 0-2z"/><path class="st0" d="M88.7 55.1h.9c2.3 0 4.7-.5 6.7-1.8 6.5-3.8 9-11.7 5.6-18.2-1.8-3.4-4.7-6-8.3-7-1.1-.4-2.2-.5-3.2-.5-2.5-.2-5.2.4-7.4 1.8-.7.4-1.3.7-1.8 1.3-.4.4-.5.9-.2 1.3.4.4.9.5 1.3.2.5-.4 1.1-.7 1.6-1.1 2-1.1 4.3-1.6 6.5-1.4.9 0 1.8.2 2.7.5 3.1.9 5.8 3.1 7.2 6.1 2.9 5.8.7 12.6-4.9 15.9-2 1.1-4.3 1.6-6.7 1.4-4-.2-7.6-2.3-9.6-5.8-1.6-2.9-2.2-6.1-1.3-9.4.2-.5-.2-.9-.7-1.1-.5-.2-.9.2-1.1.7-.9 3.6-.4 7.4 1.4 10.8 2.7 3.6 6.6 6.1 11.3 6.3z"/></svg>