<svg id="Layer_1" xmlns="http://www.w3.org/2000/svg" viewBox="0 0 150 126.6"><style>.st0{fill:#703081}.st1{fill:#9b75a6}</style><path class="st0" d="M138 0H11.8C5.4 0 0 5.2 0 11.8v103.1c0 6.4 5.2 11.8 11.8 11.8h126.4c6.4 0 11.8-5.2 11.8-11.8V11.6C149.8 5.2 144.6 0 138 0zm7.2 114.6c0 3.8-3.2 7-7 7H11.8c-3.8 0-7-3.2-7-7v-103c0-3.8 3.2-7 7-7h126.4c3.8 0 7 3.2 7 7v103z"/><circle class="st1" cx="120.2" cy="13.5" r="2.3"/><circle class="st1" cx="107.4" cy="13.5" r="2.3"/><circle class="st1" cx="132.7" cy="13.5" r="2.3"/><path class="st0" d="M75.1 46.2c-9.4 0-17.1 7.7-17.1 17.1s7.7 17.1 17.1 17.1c2.7 0 5.4-.6 7.9-1.9 1.2-.6 1.5-1.9 1-3.1s-1.9-1.5-3.1-1c-1.7 1-3.7 1.3-5.8 1.3-6.9 0-12.5-5.6-12.5-12.5s5.6-12.5 12.5-12.5 12.5 5.6 12.5 12.5c0 1.9-.4 3.9-1.3 5.8-.6 1.2-.2 2.5 1 3.1s2.5.2 3.1-1c1.2-2.3 1.9-5.2 1.9-7.9-.1-9.2-7.8-17-17.2-17z"/><path class="st1" d="M112.8 54.9h-9.6c-.6-1.9-1.3-3.7-2.3-5.4l6.9-6.9c.4-.4.8-1 .8-1.5s-.2-1.2-.8-1.5l-8.7-8.7c-1-1-2.3-1-3.3 0l-6.9 6.9c-1.7-1-3.7-1.7-5.4-2.3v-9.6c0-1.3-1-2.3-2.3-2.3H68.9c-1.3 0-2.3 1-2.3 2.3v9.6c-1.9.6-3.7 1.3-5.4 2.3l-6.9-6.9c-1-1-2.3-1-3.3 0l-8.7 8.5c-.4.4-.8 1-.8 1.5 0 .6.2 1.2.8 1.5l6.9 6.9c-1 1.7-1.7 3.7-2.3 5.6h-9.6c-1.3 0-2.3 1-2.3 2.3v12.3c0 1.3 1 2.3 2.3 2.3h9.6c.6 1.9 1.3 3.7 2.3 5.4L42.3 84c-.4.4-.8 1-.8 1.5s.2 1.2.8 1.5l8.7 8.7c1 1 2.3 1 3.3 0l6.9-6.9c1.7 1 3.7 1.7 5.4 2.3v9.6c0 1.3 1 2.3 2.3 2.3h12.3c1.3 0 2.3-1 2.3-2.3v-9.6c1.9-.6 3.7-1.3 5.4-2.3l6.9 6.9c1 1 2.3 1 3.3 0l8.7-8.7c.4-.4.8-1 .8-1.5s-.2-1.2-.8-1.5l-6.9-6.9c1-1.7 1.7-3.7 2.3-5.4h9.6c1.3 0 2.3-1 2.3-2.3V57c.1-1.1-.9-2.1-2.3-2.1zm-2.3 12.2h-9.2c-1.2 0-1.9.8-2.3 1.7-.6 2.7-1.7 5.2-3.1 7.5-.6 1-.4 2.1.4 2.9l6.6 6.6-5.4 5.4-6.6-6.6c-.8-.8-1.9-1-2.9-.4-2.3 1.3-4.8 2.5-7.5 3.1-.8.4-1.5 1.3-1.5 2.3v9.2h-7.7v-9.2c0-1.2-.8-1.9-1.7-2.3-2.7-.6-5.2-1.7-7.5-3.1-1-.6-2.1-.4-2.9.4l-6.6 6.6-5.4-5.4 6.6-6.6c.8-.8 1-1.9.4-2.9-1.3-2.3-2.5-4.8-3.1-7.5-.2-1-1.2-1.7-2.3-1.7h-9.2v-7.7h9.2c1.2 0 1.9-.8 2.3-1.7.6-2.7 1.7-5.2 3.1-7.5.6-1 .4-2.1-.4-2.9l-6.6-6.6 5.4-5.4 6.6 6.6c.8.8 1.9 1 2.9.4 2.3-1.3 4.8-2.5 7.5-3.1 1-.2 1.7-1.2 1.7-2.3v-9.2H79v9.2c0 1.2.8 1.9 1.7 2.3 2.7.6 5.2 1.7 7.5 3.1 1 .6 2.1.4 2.9-.4l6.6-6.6 5.4 5.4-6.6 6.6c-.8.8-1 1.9-.4 2.9 1.3 2.3 2.5 4.8 3.1 7.5.2 1 1.2 1.7 2.3 1.7h9.2l-.2 7.7z"/></svg>