<svg id="Layer_1" xmlns="http://www.w3.org/2000/svg" viewBox="0 0 150 126.6"><style>.st0{fill:#703081}.st1{fill:#9b75a6}</style><path class="st0" d="M138 0H11.8C5.4 0 0 5.2 0 11.8v103.1c0 6.4 5.2 11.8 11.8 11.8h126.4c6.4 0 11.8-5.2 11.8-11.8V11.6C149.8 5.2 144.6 0 138 0zm7.2 114.6c0 3.8-3.2 7-7 7H11.8c-3.8 0-7-3.2-7-7v-103c0-3.8 3.2-7 7-7h126.4c3.8 0 7 3.2 7 7v103z"/><path class="st1" d="M90 50.2c-7.3 0-13.2 6-13.2 13.2 0 7.3 6 13.2 13.2 13.2s13.2-6 13.2-13.2c-.1-7.4-5.9-13.2-13.2-13.2zm0 23.2c-5.6 0-10.1-4.5-10.1-10.1S84.4 53.2 90 53.2s10.1 4.5 10.1 10.1S95.6 73.4 90 73.4z"/><path class="st1" d="M111.7 58.4h-.8c-.5-2.3-1.5-4.5-2.7-6.5l.5-.5c1.2-1.2 1.2-3.3 0-4.5l-2.4-2.3c-1.2-1.2-3.3-1.2-4.5 0l-.5.5c-2-1.2-4.1-2.1-6.5-2.7v-.7c0-1.7-1.5-3.2-3.2-3.2h-3.3c-1.7 0-3.2 1.5-3.2 3.2v.7c-2.3.5-4.5 1.5-6.5 2.7l-.6-.7c-1.2-1.2-3.3-1.2-4.5 0l-2.4 2.4c-1.2 1.2-1.2 3.3 0 4.5l.5.5c-1.2 2-2.1 4.1-2.7 6.5h-.7c-1.7 0-3.2 1.5-3.2 3.2V65c0 1.7 1.5 3.2 3.2 3.2h.7c.5 2.3 1.5 4.5 2.7 6.5l-.5.5c-1.2 1.2-1.2 3.3 0 4.5l2.4 2.4c.7.7 1.5.9 2.3.9s1.7-.4 2.3-.9l.5-.5c2 1.2 4.1 2.1 6.5 2.7v.7c0 1.7 1.5 3.2 3.2 3.2h3.3c1.7 0 3.2-1.5 3.2-3.2v-.7c2.3-.5 4.5-1.5 6.5-2.7l.5.5c.7.7 1.5.9 2.3.9.8 0 1.7-.4 2.3-.9l2.4-2.4c1.2-1.2 1.2-3.3 0-4.5l-.5-.5c1.2-2 2.1-4.1 2.7-6.5h.7c1.7 0 3.2-1.5 3.2-3.2v-3.3c0-1.9-1.5-3.3-3.2-3.3zm0 6.6l-2.1.1c-.8 0-1.5.5-1.6 1.3-.4 2.8-1.5 5.3-3.2 7.6-.4.7-.4 1.5.1 2l1.3 1.3v.1l-2 2.4h-.1-.1l-1.3-1.3c-.5-.5-1.3-.7-2-.1-2.3 1.6-4.8 2.7-7.6 3.2-.8.1-1.3.8-1.3 1.6v2s0 .1-.1.1h-3.3s-.1 0-.1-.1v-2c0-.8-.5-1.5-1.3-1.6-2.8-.4-5.3-1.5-7.6-3.2-.3-.1-.5-.3-.9-.3s-.8.1-1.1.4L75.8 80h-.1-.1l-2.4-2.4v-.1l1.3-1.3c.5-.5.7-1.3.1-2-1.6-2.3-2.7-4.8-3.2-7.6-.1-.8-.8-1.3-1.6-1.3h-1.6s-.1 0-.1-.1v-3.3s0-.1.1-.1h2c.8 0 1.5-.5 1.6-1.3.4-2.8 1.5-5.3 3.2-7.6.4-.7.4-1.5-.1-2l-1.3-1.3v-.1l2.4-2.4h.1l1.3 1.3c.5.5 1.3.7 2 .1 2.3-1.6 4.8-2.7 7.6-3.2.8-.1 1.3-.8 1.3-1.6v-2s0-.1.1-.1h3.3s.1 0 .1.1v2c0 .8.5 1.5 1.3 1.6 2.8.4 5.3 1.5 7.6 3.2.7.4 1.5.4 2-.1l1.3-1.3h.1l2.4 2.4v.1l-1.3 1.3c-.5.5-.7 1.3-.1 2 1.6 2.3 2.7 4.8 3.2 7.6.1.8.8 1.3 1.6 1.3h2s.1 0 .1.1l-.3 3.1z"/><path class="st0" d="M90 28.4H26.6c-.8 0-1.6.7-1.6 1.6 0 .8.7 1.6 1.6 1.6H90c17.6 0 31.8 14.3 31.8 31.8S107.4 95.1 90 95.1c-15.7 0-28.9-11.3-31.3-26.5l1.3 1.9c.5.7 1.5.8 2.1.3.7-.5.8-1.5.3-2.1l-4.7-6.3c-.3-.4-.8-.7-1.3-.7s-1.1.4-1.2.8l-3.5 7.1c-.4.8-.1 1.7.7 2.1.3.1.4.1.7.1.5 0 1.1-.3 1.5-.9l1.1-2c2.7 16.8 17.2 29.3 34.5 29.3 19.3 0 34.9-15.7 34.9-34.9s-16-34.9-35.1-34.9z"/><path class="st1" d="M76.7 35.1H63.3c-.8 0-1.6.7-1.6 1.6 0 .8.7 1.6 1.6 1.6h13.3c.8 0 1.6-.7 1.6-1.6-.1-.9-.7-1.6-1.5-1.6zM56.5 35.1H26.6c-.8 0-1.6.7-1.6 1.6 0 .8.7 1.6 1.6 1.6h29.9c.8 0 1.6-.7 1.6-1.6 0-.9-.6-1.6-1.6-1.6z"/><path class="st0" d="M64.9 41.8h-8.4c-.8 0-1.6.7-1.6 1.6 0 .9.7 1.6 1.6 1.6h8.4c.8 0 1.6-.7 1.6-1.6 0-1-.8-1.6-1.6-1.6z"/><path class="st1" d="M49.9 41.8H26.6c-.8 0-1.6.7-1.6 1.6 0 .9.7 1.6 1.6 1.6h23.3c.8 0 1.6-.7 1.6-1.6 0-1-.7-1.6-1.6-1.6zM54.9 48.4h-6.6c-.8 0-1.6.7-1.6 1.6 0 .8.7 1.6 1.6 1.6H55c.8 0 1.6-.7 1.6-1.6-.2-.9-.9-1.6-1.7-1.6z"/><path class="st0" d="M41.5 48.4H26.6c-.8 0-1.6.7-1.6 1.6 0 .8.7 1.6 1.6 1.6h15.1c.8 0 1.6-.7 1.6-1.6-.2-.9-.8-1.6-1.8-1.6z"/><path class="st1" d="M46.6 55h-3.3c-.8 0-1.6.7-1.6 1.6 0 .8.7 1.6 1.6 1.6h3.3c.8 0 1.6-.7 1.6-1.6s-.7-1.6-1.6-1.6zM36.6 55h-10c-.8 0-1.6.7-1.6 1.6 0 .8.7 1.6 1.6 1.6h10c.8 0 1.6-.7 1.6-1.6s-.8-1.6-1.6-1.6z"/></svg>