<svg id="Layer_1" xmlns="http://www.w3.org/2000/svg" viewBox="0 0 150 166.8"><style>.st0{fill:#703081}.st1{fill:#fff}.st2{fill:#9b75a6}</style><path class="st0" d="M75 0C33.6 0 0 33.6 0 75c0 39.2 30.2 71.4 68.6 74.8L56.4 162c-1 1-1 2.8 0 4 .6.6 1.2.8 2 .8s1.4-.2 2-.8L77 149.4c.2-.2.4-.6.6-1 .2-.6.2-1.4 0-2.2-.2-.4-.4-.6-.6-1l-16.6-16.6c-1-1-2.8-1-4 0s-1 2.8 0 4L68 144.2C33 140.6 5.6 111 5.6 75 5.6 36.8 36.8 5.6 75 5.6s69.4 31.2 69.4 69.4c0 18.4-7.2 35.8-20.2 48.8-1 1-1 2.8 0 4 1 1 2.8 1 4 0C142.2 113.6 150 95 150 75c0-41.2-33.6-75-75-75z" id="Layer_2"/><g id="Layer_10"><ellipse class="st1" cx="75.6" cy="87" rx="8.9" ry="15.6"/><path class="st2" d="M93.9 60.2V41c0-9.7-8.5-17.6-18.9-17.6S56.1 31.3 56.1 41v19.1c-9.4 6.2-15.5 16.7-15.5 28.8 0 19 15.4 34.5 34.5 34.5s34.5-15.4 34.5-34.5c-.1-12-6.3-22.6-15.7-28.7zm-34.4-2.1V41c0-7.8 7-14.2 15.5-14.2S90.5 33.2 90.5 41v17.1l-1-.5c-.6-.3-1.4-.6-2-.9-.5-.2-.9-.4-1.4-.5-.5-.2-.9-.3-1.4-.5-.7-.2-1.5-.5-2.3-.6-.4-.1-.6-.2-1-.2-.9-.2-1.8-.3-2.8-.5-.2 0-.4 0-.6-.1-1-.1-2.1-.2-3.1-.2s-2.1.1-3.1.2c-.2 0-.5 0-.6.1-.9.1-1.8.3-2.8.5-.4.1-.6.1-1 .2-.7.2-1.6.4-2.3.6-.5.1-.9.3-1.4.5-.5.2-.9.4-1.4.5-.7.3-1.4.6-2 .9-.2.3-.5.4-.8.5zm22.4 34.2c0 3.8-3.1 6.9-6.9 6.9s-6.9-3.1-6.9-6.9V82c0-3.8 3.1-6.9 6.9-6.9s6.9 3.1 6.9 6.9v10.3z"/></g></svg>