<svg id="Layer_1" xmlns="http://www.w3.org/2000/svg" viewBox="0 0 50 50"><path fill="#575757" d="M41.9 19.1v-1.9c0-4.5-1.6-8.8-4.5-11.9-3-3.2-7.1-5-11.6-5h-1.6c-4.5 0-8.6 1.8-11.6 5-2.9 3.1-4.5 7.4-4.5 11.9v1.9c-3.5.2-6.3 3.2-6.3 6.8v3c0 3.7 3 6.8 6.8 6.8h3.8c.7 0 1.2-.6 1.2-1.2V20.3c0-.7-.6-1.2-1.2-1.2h-1.8v-1.9c0-8.2 5.8-14.4 13.6-14.4h1.6c7.8 0 13.6 6.2 13.6 14.4v1.9h-1.8c-.7 0-1.2.6-1.2 1.2v14.1c0 .7.6 1.2 1.2 1.2h1.7c-.5 6.5-5 8-7.1 8.3-.6-1.8-2.2-3-4.2-3h-3c-2.4 0-4.4 2-4.4 4.4s2 4.4 4.4 4.4h3.1c2 0 3.7-1.4 4.2-3.2 1-.1 2.6-.5 4.2-1.4 2.3-1.3 4.9-4 5.3-9.4 3.6-.2 6.4-3.2 6.4-6.8v-3c0-3.6-2.8-6.6-6.3-6.8zm-30.7 14H8.6c-2.4 0-4.3-1.9-4.3-4.3v-3c0-2.4 1.9-4.3 4.3-4.3h2.6v11.6zm16.9 14.1H25c-1 0-1.9-.8-1.9-1.9 0-1 .8-1.9 1.9-1.9h3.1c1 0 1.9.8 1.9 1.9 0 1.1-.8 1.9-1.9 1.9zm17.6-18.4c0 2.4-1.9 4.3-4.3 4.3h-2.6V21.6h2.6c2.4 0 4.3 1.9 4.3 4.3v2.9z"/></svg>