<svg id="Layer_1" xmlns="http://www.w3.org/2000/svg" viewBox="0 0 150 150"><style>.st0{fill:#703081}.st1{fill:#df6b90}</style><path class="st0" d="M75 0C33.6 0 0 33.6 0 75s33.6 75 75 75 75-33.6 75-75S116.4 0 75 0zm0 3.1c39.7 0 71.9 32.2 71.9 71.9s-32.2 71.9-71.9 71.9S3.1 114.7 3.1 75 35.3 3.1 75 3.1z" id="Layer_2"/><path class="st1" d="M123.3 50.8H55c-.9 0-1.7.7-1.7 1.7v50c0 .9.7 1.7 1.7 1.7h31.7v10.1H69.8c-.9 0-1.7.7-1.7 1.7 0 .9.7 1.7 1.7 1.7h37c.9 0 1.7-.7 1.7-1.7 0-.9-.7-1.7-1.7-1.7H90v-10.1h33.3c.9 0 1.7-.7 1.7-1.7v-50c0-1-.7-1.7-1.7-1.7zm-1.6 50h-65V54.1h65v46.7z"/><path class="st0" d="M68.8 70.3c.3.3.8.5 1.2.5s.9-.2 1.2-.5l6.7-6.7c.7-.7.7-1.7 0-2.4s-1.7-.7-2.4 0L70 66.8 66.2 63c-.7-.7-1.7-.7-2.4 0s-.7 1.7 0 2.4l5 4.9zM85 65.8h26.7c.9 0 1.7-.7 1.7-1.7 0-.9-.7-1.7-1.7-1.7H85c-.9 0-1.7.7-1.7 1.7s.8 1.7 1.7 1.7zM68.8 83.6c.3.3.8.5 1.2.5s.9-.2 1.2-.5l6.7-6.7c.7-.7.7-1.7 0-2.4s-1.7-.7-2.4 0L70 80.1l-3.8-3.8c-.7-.7-1.7-.7-2.4 0s-.7 1.7 0 2.4l5 4.9zM85 79.1h26.7c.9 0 1.7-.7 1.7-1.7s-.7-1.7-1.7-1.7H85c-.9 0-1.7.7-1.7 1.7s.8 1.7 1.7 1.7zM85 92.5h26.7c.9 0 1.7-.7 1.7-1.7 0-.9-.7-1.7-1.7-1.7H85c-.9 0-1.7.7-1.7 1.7 0 .9.8 1.7 1.7 1.7z"/><circle class="st0" cx="70" cy="90.8" r="1.7"/><path class="st1" d="M36.7 55.8v-4.3c0-.9-.7-1.7-1.7-1.7s-1.7.7-1.7 1.7v4.3c-4.6 0-8.3 3.7-8.3 8.3v13.3c0 4.6 3.7 8.3 8.3 8.3h3.3c4.6 0 8.3-3.7 8.3-8.3V64.1c.1-4.6-3.6-8.3-8.2-8.3zm-3.4 3.3h3.3c2.8 0 5 2.2 5 5v6.7H28.3v-6.7c0-2.7 2.3-5 5-5zm3.4 23.4h-3.3c-2.8 0-5-2.2-5-5v-3.3h13.3v3.3c0 2.7-2.3 5-5 5z"/><circle class="st0" cx="35" cy="65.8" r="1.7"/><path class="st0" d="M68.8 35.8h5c.9 0 1.7-.7 1.7-1.7 0-.9-.7-1.7-1.7-1.7h-5c-.9 0-1.7.7-1.7 1.7s.8 1.7 1.7 1.7zM82 35.8c1.3.1 2.4.7 3.3 1.6.3.4.8.5 1.2.5.4 0 .8-.1 1.1-.4.7-.6.7-1.7.1-2.4-1.4-1.6-3.4-2.5-5.5-2.6-1-.1-1.7.6-1.8 1.5s.7 1.8 1.6 1.8zM55.5 35.8h5c.9 0 1.7-.7 1.7-1.7 0-.9-.7-1.7-1.7-1.7h-5c-.9 0-1.7.7-1.7 1.7s.7 1.7 1.7 1.7zM47.1 32.5h-5c-.9 0-1.7.7-1.7 1.7 0 .9.7 1.7 1.7 1.7h5c.9 0 1.7-.7 1.7-1.7s-.7-1.7-1.7-1.7zM35 44.9c.9 0 1.7-.7 1.7-1.7v-2.4c0-.7.1-1.3.4-1.9.4-.8-.1-1.8-.9-2.2-.8-.4-1.8 0-2.2.9-.4 1-.6 2.1-.6 3.2v2.4c-.1.9.7 1.7 1.6 1.7zM90 49.1v-5c0-.9-.7-1.7-1.7-1.7-.9 0-1.7.7-1.7 1.7v5c0 .9.7 1.7 1.7 1.7s1.7-.7 1.7-1.7z"/></svg>