<svg xmlns="http://www.w3.org/2000/svg" viewBox="0 0 150 165"><style>.st0{fill:#703081}.st1{fill:#df6b90}</style><g id="Layer_1"><path class="st0" d="M56.5 1099.6c-.8.4-1.6.7-2.5.8h.3c1.1 0 2.1-.5 2.8-1.3-.1.3-.3.4-.6.5z" transform="translate(0 -952.362)"/><path class="st0" d="M135 974.9h-3.7v-7.5c0-8.2-6.8-15-15-15H48.8c-8.2 0-15 6.8-15 15v71.6c-19 2.7-33.8 19.2-33.8 39 0 21.7 17.7 39.4 39.4 39.4 18.5 0 34-12.8 38.2-30H135c8.2 0 15-6.8 15-15v-82.5c0-8.3-6.8-15-15-15zm-95.6 134.8c-17.6 0-31.8-14.2-31.8-31.8s14.2-31.8 31.8-31.8 31.8 14.2 31.8 31.8c0 17.7-14.1 31.8-31.8 31.8zm35.6-48.6c-2.4-5-5.9-9.5-10.1-13.1h47.6c2.1 0 3.8-1.6 3.8-3.7s-1.6-3.8-3.7-3.8H52.1c-.2 0-.3 0-.5.1-3.3-1.1-6.8-1.8-10.4-1.9v-71.2c0-4.2 3.3-7.5 7.5-7.5h67.5c4.2 0 7.5 3.3 7.5 7.5v86.2c0 4.2-3.3 7.5-7.5 7.5H75zm67.5 11.2c0 4.2-3.3 7.5-7.5 7.5H78.8c0-.6.1-1.3.1-1.9 0-3.2-.4-6.4-1.2-9.4h38.6c8.2 0 15-6.8 15-15v-71.2h3.7c4.2 0 7.5 3.3 7.5 7.5v82.5z" transform="translate(0 -952.362)"/></g><g id="Layer_1_copy"><path class="st1" d="M39.4 1100.5c2.1 0 3.8-1.6 3.8-3.7v-18c2.2-1.3 3.7-3.7 3.7-6.4 0-2.8-1.6-5.2-3.9-6.5.1-.3.1-.7.1-1v-5.6c0-2.1-1.6-3.8-3.7-3.8h-.5c-1.9.2-3.4 1.9-3.3 3.8v5.6c0 .3 0 .6.1.9-2.3 1.3-3.9 3.7-3.9 6.6 0 2.8 1.5 5.1 3.7 6.4v17.9c.1 2.1 1.8 3.8 3.9 3.8zM31.9 1083.6c0-2.8-1.5-5.1-3.7-6.4v-17.9c0-2.1-1.6-3.8-3.7-3.8H24c-1.9.2-3.4 1.9-3.3 3.8v17.9c-2.2 1.3-3.7 3.7-3.7 6.4 0 2.8 1.6 5.2 3.9 6.5-.1.3-.1.7-.1 1v5.6c0 2.1 1.6 3.8 3.7 3.8s3.8-1.6 3.8-3.7V1091.1c0-.3 0-.7-.1-1 2.2-1.3 3.7-3.7 3.7-6.5zM61.9 1083.6c0-2.8-1.5-5.1-3.7-6.4v-17.9c0-2.1-1.6-3.8-3.7-3.8H54c-1.9.2-3.4 1.9-3.3 3.8v17.9c-2.2 1.3-3.7 3.7-3.7 6.4 0 2.8 1.6 5.2 3.9 6.5-.1.3-.1.7-.1 1v5.6c0 2.1 1.6 3.8 3.7 3.8s3.8-1.6 3.8-3.7V1091.1c0-.3 0-.7-.1-1 2.1-1.3 3.7-3.7 3.7-6.5zM116.3 976.8c0-2.1-1.6-3.8-3.7-3.8H52.1c-2.1.1-3.7 1.9-3.6 3.9.1 2.1 1.9 3.7 3.9 3.6h60c2.2 0 3.9-1.6 3.9-3.7zM107 995.5H57.8c-2.1.1-3.7 1.9-3.6 3.9s1.9 3.7 3.9 3.6h48.7c2.1 0 3.8-1.6 3.8-3.7.1-2.1-1.5-3.8-3.6-3.8zM106.9 1018H57.8c-2.1.1-3.7 1.9-3.6 3.9.1 2.1 1.9 3.7 3.9 3.6h48.7c2.1 0 3.8-1.6 3.8-3.7s-1.6-3.8-3.7-3.8c.1 0 0 0 0 0z" transform="translate(0 -952.362)"/></g></svg>