<svg id="Layer_1" xmlns="http://www.w3.org/2000/svg" viewBox="0 0 140 111.6"><style>.st0{fill:#703081}.st1{fill:#df6b90}.st2{fill:#fff}</style><g id="Layer_1_1_"><path class="st0" d="M96.3 37.4H21.9c-4.5 0-8.1 3.4-8.1 7.5v46.4c0 4.1 3.6 7.5 8.1 7.5h74.4c4.5 0 8.1-3.4 8.1-7.5V44.9c0-4.2-3.6-7.5-8.1-7.5zm0 4.8c.2 0 .4 0 .6.2L59.1 71 20.6 42.6c.3-.2.9-.4 1.3-.4h74.4zm0 51.7H21.9c-1.7 0-3-1.1-3-2.6V47.5l40.2 29.7 40.2-30.5v44.5c0 1.6-1.3 2.7-3 2.7z"/><path transform="rotate(-45.001 48.491 13.704)" class="st1" d="M31.9 11.2H65v5.1H31.9z"/><path transform="rotate(-45.001 126.495 13.507)" class="st1" d="M109.9 11H143v5.1h-33.1z"/><path transform="rotate(-45.001 86.574 13.507)" class="st0" d="M70 11h33.1v5.1H70z"/><path transform="rotate(-45.001 126.368 75.657)" class="st1" d="M109.8 73.1h33.1v5.1h-33.1z"/><path transform="rotate(-45.001 126.462 45.62)" class="st0" d="M109.9 43.1H143v5.1h-33.1z"/></g><path class="st1" d="M40 91.6c0 11-9 20-20 20s-20-9-20-20 9-20 20-20c11.1 0 20 9 20 20z"/><path class="st2" d="M33.5 93.3c-.6-.2-1.2.3-1.2.9-1.2 6.1-6 10.2-11.9 10.2-5.6 0-10.4-3.7-12.1-8.8h5.1v-2.2H4.6v8.8h2.1V98c2.4 5.2 7.7 8.7 13.5 8.7 7 0 12.7-4.9 14.1-11.9.1-.8-.3-1.4-.8-1.5zM33.2 80.1v4.7c-2.5-5-7.4-8.1-13-8.1-6.8 0-12.8 4.4-14.6 10.8-.2.6.2 1.2.7 1.3.6.2 1.2-.2 1.4-.7 1.6-5.3 6.8-9.1 12.5-9.1 5 0 9.5 3 11.4 7.8h-5V89h8.8v-8.8h-2.2v-.1z"/></svg>