<svg id="Layer_1" xmlns="http://www.w3.org/2000/svg" viewBox="0 0 150 150"><style>.st0{fill:#703081}.st1,.st2{fill:#df6b90}.st2{display:none}</style><path class="st0" d="M75 0C33.6 0 0 33.6 0 75s33.6 75 75 75 75-33.6 75-75S116.4 0 75 0zm0 3.1c39.7 0 71.9 32.2 71.9 71.9s-32.2 71.9-71.9 71.9S3.1 114.7 3.1 75 35.3 3.1 75 3.1z" id="Layer_2"/><path class="st1" d="M48.4 112.2H30.6c-1.7 0-3-1.3-3-3s1.3-3 3-3h17.8c1.7 0 3 1.3 3 3-.2 1.7-1.3 3-3 3z"/><path class="st0" d="M111 130H46c-1.7 0-3-1.3-3-3s1.3-3 3-3h65c1.7 0 3 1.3 3 3s-1.3 3-3 3z"/><path class="st1" d="M83.8 112.2H66.1c-1.7 0-3-1.3-3-3s1.3-3 3-3h17.8c1.7 0 3 1.3 3 3-.1 1.7-1.4 3-3.1 3zM119.4 112.2h-17.8c-1.7 0-3-1.3-3-3s1.3-3 3-3h17.8c1.7 0 3 1.3 3 3-.1 1.7-1.4 3-3 3z"/><path class="st2" d="M57.2 65v23.7H33.6V65h23.6m0-6H33.6c-3.3 0-5.9 2.7-5.9 5.9v23.7c0 3.2 2.7 5.9 5.9 5.9h23.7c3.3 0 5.9-2.7 5.9-5.9V65c-.1-3.2-2.8-6-6-6z"/><g><path class="st0" d="M54.6 1068.9c-6 0-11.8 1.3-17.5 3.6l-2 .9v15.5H75v-15.5l-2-.9c-6.4-2.3-12.4-3.6-18.4-3.6zm0 6.7c4.4 0 8.9.9 13.5 2.6v4.2H41.5v-3.8c4.5-1.7 8.7-2.8 13.1-3zM55.1 1045.8c-5.5 0-10 4.6-10 10 0 5.5 4.6 10 10 10s10-4.6 10-10c-.3-5.5-4.5-10-10-10zm0 6.7c1.8 0 3.5 1.5 3.5 3.5 0 1.8-1.3 3.5-3.5 3.5-1.8 0-3.5-1.5-3.5-3.5s1.3-3.5 3.5-3.5zM94.5 1105.7c-6 0-11.8 1.5-17.5 3.6l-2 .9v15.5h39.9v-15.5l-2-.9c-6.4-2.7-12.6-4-18.4-3.6zm0 6.6c4.4 0 8.9.9 13.5 2.6v4.2H81.4v-3.8c4.4-1.9 8.7-3 13.1-3zM94.9 1082.4c-5.5 0-10 4.6-10 10 0 5.5 4.6 10 10 10 5.5 0 10-4.6 10-10-.2-5.5-4.6-10-10-10zm0 6.5c1.8 0 3.5 1.5 3.5 3.5 0 1.8-1.5 3.5-3.5 3.5s-3.5-1.5-3.5-3.5c.2-2 1.5-3.5 3.5-3.5z" transform="translate(0 -1028.362)"/><path class="st1" d="M51.7 1095.7v23.3h16.6v-6.6h-10v-16.6l-6.6-.1zM74.8 1055.8v6.6h16.6v10H98v-16.6H74.8z" transform="translate(0 -1028.362)"/></g></svg>