<svg id="Layer_1" xmlns="http://www.w3.org/2000/svg" viewBox="0 0 150 150"><style>.st0{fill:#703081}.st1{fill:#df6b90}</style><path class="st0" d="M117.5 38.1H22.9c-4.4 0-7.9 3.5-7.9 7.9v55.2c0 4.4 3.5 7.9 7.9 7.9H80c1.1 0 2-.9 2-2s-.9-2-2-2H22.9c-2.2 0-3.9-1.8-3.9-3.9V46c0-2.2 1.8-3.9 3.9-3.9h94.6c2.2 0 3.9 1.8 3.9 3.9v21.7c0 1.1.9 2 2 2s2-.9 2-2V46c0-4.3-3.6-7.9-7.9-7.9z"/><path class="st1" d="M40.6 85.4H28.8c-1.1 0-2-.9-2-2s.9-2 2-2h11.8c1.1 0 2 .9 2 2s-.9 2-2 2z"/><path class="st0" d="M72.2 97.3H28.8c-1.1 0-2-.9-2-2s.9-2 2-2h43.4c1.1 0 2 .9 2 2-.1 1.1-1 2-2 2z"/><path class="st1" d="M64.3 85.4H52.4c-1.1 0-2-.9-2-2s.9-2 2-2h11.8c1.1 0 2 .9 2 2s-.8 2-1.9 2zM87.9 85.4H76.1c-1.1 0-2-.9-2-2s.9-2 2-2h11.8c1.1 0 2 .9 2 2s-.9 2-2 2zM46.5 53.9v15.8H30.8V53.9h15.7m0-4H30.8c-2.2 0-3.9 1.8-3.9 3.9v15.8c0 2.2 1.8 3.9 3.9 3.9h15.8c2.2 0 3.9-1.8 3.9-3.9V53.9c0-2.2-1.8-4-4-4z"/><g><path class="st0" d="M108.6 1115.4c-2.6 0-5.2.6-7.7 1.6l-.9.4v6.8h17.5v-6.8l-.9-.4c-2.7-1.1-5.4-1.6-8-1.6zm0 2.9c1.9 0 3.9.4 5.9 1.1v1.8h-11.7v-1.7c2-.6 3.9-1.1 5.8-1.2zM108.8 1105.2c-2.4 0-4.4 2-4.4 4.4s2 4.4 4.4 4.4 4.4-2 4.4-4.4c-.1-2.4-2-4.4-4.4-4.4zm0 3c.8 0 1.5.6 1.5 1.5 0 .8-.6 1.5-1.5 1.5-.8 0-1.5-.6-1.5-1.5s.6-1.5 1.5-1.5zM126.1 1131.5c-2.6 0-5.2.6-7.7 1.6l-.9.4v6.8H135v-6.8l-.9-.4c-2.7-1.2-5.4-1.7-8-1.6zm0 2.9c1.9 0 3.9.4 5.9 1.1v1.8h-11.7v-1.7c2-.7 3.9-1.2 5.8-1.2zM126.3 1121.3c-2.4 0-4.4 2-4.4 4.4s2 4.4 4.4 4.4c2.4 0 4.4-2 4.4-4.4-.1-2.4-2-4.4-4.4-4.4zm0 2.9c.8 0 1.5.6 1.5 1.5 0 .8-.6 1.5-1.5 1.5s-1.5-.6-1.5-1.5.6-1.5 1.5-1.5z" transform="translate(0 -1028.362)"/><path class="st1" d="M107.3 1127.1v10.2h7.3v-2.9h-4.4v-7.3h-2.9zM117.5 1109.6v2.9h7.3v4.4h2.9v-7.3h-10.2z" transform="translate(0 -1028.362)"/></g></svg>