<svg id="Layer_1" xmlns="http://www.w3.org/2000/svg" viewBox="0 0 150 92.3"><style>.st0{fill:#703081}.st1{fill:#df6b90}</style><path class="st0" d="M128.1 0H9.9C4.4 0 0 4.4 0 9.9v69c0 5.5 4.4 9.9 9.9 9.9h71.4c1.4 0 2.5-1.1 2.5-2.5s-1.1-2.5-2.5-2.5H9.9c-2.8 0-4.9-2.3-4.9-4.9v-69C5 7.1 7.2 5 9.9 5h118.3c2.8 0 4.9 2.2 4.9 4.9V37c0 1.4 1.1 2.5 2.5 2.5s2.5-1.1 2.5-2.5V9.9c-.1-5.4-4.6-9.9-10-9.9z"/><path class="st1" d="M32 59.1H17.3c-1.4 0-2.5-1.1-2.5-2.5s1.1-2.5 2.5-2.5H32c1.4 0 2.5 1.1 2.5 2.5s-1.1 2.5-2.5 2.5z"/><path class="st0" d="M71.5 74H17.3c-1.4 0-2.5-1.1-2.5-2.5s1.1-2.5 2.5-2.5h54.3c1.4 0 2.5 1.1 2.5 2.5-.2 1.4-1.3 2.5-2.6 2.5z"/><path class="st1" d="M61.6 59.1H46.8c-1.4 0-2.5-1.1-2.5-2.5s1.1-2.5 2.5-2.5h14.8c1.4 0 2.5 1.1 2.5 2.5-.1 1.4-1.1 2.5-2.5 2.5zM91.1 59.1H76.4c-1.4 0-2.5-1.1-2.5-2.5s1.1-2.5 2.5-2.5h14.8c1.4 0 2.5 1.1 2.5 2.5-.1 1.4-1.2 2.5-2.6 2.5zM39.4 19.8v19.8H19.8V19.8h19.6m0-5H19.8c-2.8 0-4.9 2.3-4.9 4.9v19.8c0 2.8 2.2 4.9 4.9 4.9h19.8c2.8 0 4.9-2.3 4.9-4.9V19.8c-.1-2.8-2.4-5-5.1-5z"/><g><path class="st0" d="M117 1089.5c-3.3 0-6.5.7-9.6 2l-1.1.5v8.5h21.9v-8.5l-1.1-.5c-3.5-1.3-6.8-2-10.1-2zm0 3.7c2.4 0 4.9.5 7.4 1.4v2.3h-14.6v-2.1c2.5-.9 4.8-1.5 7.2-1.6zM117.3 1076.8c-3 0-5.5 2.5-5.5 5.5s2.5 5.5 5.5 5.5 5.5-2.5 5.5-5.5c-.2-3-2.5-5.5-5.5-5.5zm0 3.7c1 0 1.9.8 1.9 1.9 0 1-.7 1.9-1.9 1.9-1 0-1.9-.8-1.9-1.9 0-1.1.7-1.9 1.9-1.9zM138.9 1109.7c-3.3 0-6.5.8-9.6 2l-1.1.5v8.5h21.9v-8.5l-1.1-.5c-3.5-1.5-6.9-2.2-10.1-2zm0 3.6c2.4 0 4.9.5 7.4 1.4v2.3h-14.6v-2.1c2.4-1 4.8-1.6 7.2-1.6zM139.1 1096.9c-3 0-5.5 2.5-5.5 5.5s2.5 5.5 5.5 5.5 5.5-2.5 5.5-5.5c-.1-3-2.5-5.5-5.5-5.5zm0 3.6c1 0 1.9.8 1.9 1.9 0 1-.8 1.9-1.9 1.9s-1.9-.8-1.9-1.9c.1-1.1.8-1.9 1.9-1.9z" transform="translate(0 -1028.362)"/><path class="st1" d="M115.4 1104.2v12.8h9.1v-3.6H119v-9.1l-3.6-.1zM128.1 1082.3v3.6h9.1v5.5h3.6v-9.1h-12.7z" transform="translate(0 -1028.362)"/></g></svg>