<svg id="Layer_1" xmlns="http://www.w3.org/2000/svg" viewBox="0 0 50 50"><path fill="#703975" d="M40 14.8H10c-.5 0-1 .4-1 1v15c0 .5.4 1 1 1 .5 0 1-.4 1-1v-14h28v14c0 .5.4 1 1 1s1-.4 1-1v-15c0-.6-.4-1-1-1z"/><path fill="#703975" d="M47.2 34.3h-1.8V13.5c0-1.7-1.3-3-3-3H7.7c-1.7 0-3 1.3-3 3v20.8H2.8c-.5 0-.9.4-.9.9V37c0 2.4 2 4.4 4.4 4.4h37.3c2.4 0 4.4-2 4.4-4.4v-1.8c.1-.5-.3-.9-.8-.9zM6.6 13.5c0-.6.5-1 1-1h34.7c.6 0 1 .5 1 1v20.8H29.7c-.4.1-.7.4-.7.9 0 .8-.6 1.4-1.4 1.4h-5.3c-.8 0-1.4-.6-1.4-1.4 0-.5-.4-.9-.9-.9H6.6V13.5zm39.7 23.4c0 1.4-1.2 2.6-2.6 2.6H6.3c-1.4 0-2.6-1.2-2.6-2.6V36h15.6c.4 1.3 1.6 2.3 3 2.3h5.3c1.4 0 2.6-1 3-2.3h15.6l.1.9z"/><path fill="#703975" d="M26.5 20.5c-.4-.4-1-.4-1.4 0l-6.2 6.2c-.4.4-.4 1 0 1.4.2.2.4.3.7.3.3 0 .5-.1.7-.3l6.2-6.2c.4-.3.4-1 0-1.4zm3.7 3.7c-.4-.4-1-.4-1.4 0l-2.5 2.5c-.4.4-.4 1 0 1.4.2.2.4.3.7.3.3 0 .5-.1.7-.3l2.5-2.5c.4-.4.4-1.1 0-1.4z"/></svg>