<svg id="Layer_1" xmlns="http://www.w3.org/2000/svg" viewBox="0 0 50 50"><path fill="#F4F4F5" d="M38.7 14.8H11.3c-.5 0-.9.4-.9.9v13.7c0 .5.4.9.9.9s.9-.4.9-.9V16.6h25.6v12.8c0 .5.4.9.9.9s.9-.4.9-.9V15.7c0-.5-.4-.9-.9-.9z"/><path fill="#F4F4F5" d="M45.2 32.7h-1.7v-19c0-1.5-1.2-2.7-2.7-2.7H9.2c-1.5 0-2.7 1.2-2.7 2.7v19H4.8c-.5 0-.8.4-.8.8v1.6c0 2.2 1.8 4 4 4h34c2.2 0 4-1.8 4-4v-1.6c.1-.5-.3-.8-.8-.8zm-37-19.1c0-.5.4-.9.9-.9h31.7c.5 0 .9.4.9.9v19H29.3c-.4.1-.7.4-.7.8 0 .7-.6 1.2-1.2 1.2h-4.8c-.7 0-1.2-.6-1.2-1.2 0-.5-.4-.8-.8-.8H8.2v-19zm36.2 21.5c0 1.3-1.1 2.4-2.4 2.4H8c-1.3 0-2.4-1.1-2.4-2.4v-.8h14.3c.4 1.2 1.5 2.1 2.8 2.1h4.8c1.3 0 2.4-.9 2.8-2.1h14.3l-.2.8z"/><path fill="#F4F4F5" d="M26.3 20.1c-.4-.4-.9-.4-1.3 0l-5.7 5.7c-.4.4-.4.9 0 1.3.2.2.4.3.6.3.2 0 .5-.1.6-.3l5.7-5.7c.5-.4.5-.9.1-1.3zM29.7 23.4c-.4-.4-.9-.4-1.3 0l-2.3 2.3c-.4.4-.4.9 0 1.3.2.2.4.3.6.3.2 0 .5-.1.6-.3l2.3-2.3c.5-.4.5-.9.1-1.3z"/></svg>