<svg id="Layer_1" xmlns="http://www.w3.org/2000/svg" viewBox="0 0 150 166.8"><style>.st0{fill:#703081}.st1{display:none}.st1,.st2{fill:#9b75a6}</style><path class="st0" d="M75 0C33.6 0 0 33.6 0 75c0 39.2 30.2 71.4 68.6 74.8L56.4 162c-1 1-1 2.8 0 4 .6.6 1.2.8 2 .8s1.4-.2 2-.8L77 149.4c.2-.2.4-.6.6-1 .2-.6.2-1.4 0-2.2-.2-.4-.4-.6-.6-1l-16.6-16.6c-1-1-2.8-1-4 0s-1 2.8 0 4L68 144.2C33 140.6 5.6 111 5.6 75 5.6 36.8 36.8 5.6 75 5.6s69.4 31.2 69.4 69.4c0 18.4-7.2 35.8-20.2 48.8-1 1-1 2.8 0 4 1 1 2.8 1 4 0C142.2 113.6 150 95 150 75c0-41.2-33.6-75-75-75z" id="Layer_2"/><g id="Layer_6"><g id="vpn"><path class="st1" d="M32 95.7c-3-3.4-2.5-10.3 2.7-11.3-.4-2.1-.6-4.3-.6-6.5 0-2.7.4-5.5.9-8.1l12.5 12.5c7.9-1.5 15.7-2.8 23.6-3 .5-.5 1-.9 1.5-1.3H52.4v-7.6C49.1 75 40 73.8 40.2 66.7c.5-15.3 13.3-30.3 29.7-27.4 7.1 1.2 11.6 4.9 12.2 12.2 0 .1 0 .3.1.4 1.3-1.6 2-3.5 2-5.7V34.6c-4.1-1.3-9.1-2.3-13.6-2.3C45.4 32.4 25 52.9 25 77.9c0 6.8 1.5 13.2 4.1 19 1-.4 2-.8 2.9-1.2z"/><path class="st1" d="M67.2 52.3c-2.6.5-4.5.2-6.9 1.7-4.3 2.7-6.6 7.7-6.7 12.7 0 .8-.2 1.5-.4 2.2h8.3c2.7 0 4.5-1.9 4.5-4.5v-9.1h2.9c0-.3-.1-.6-.1-.9 0-.5 0-1-.1-1.5-.2 0-.8-.2-1.5-.6z"/><path class="st0" d="M97.8 64.2h22.7c2.7 0 4.5-1.9 4.5-4.5V41.4c.1-2.7-1.7-4.5-4.4-4.5v-2.3c0-6.4-5.1-11.3-11.3-11.3-6.3 0-11.5 5.1-11.5 11.3v2.3c-2.7 0-4.5 1.9-4.5 4.5v18.1c-.1 2.8 1.8 4.7 4.5 4.7zm3.7-29.6c0-4.1 3.6-7.7 7.7-7.7s7.7 3.6 7.7 7.7v2.3h-15.5v-2.3z"/><path class="st2" d="M107 73.3c0 1.3.4 3.2.4 4.5 0 9.6-3.6 18.1-9.6 24.5-1.3-3.6-4.5-6.4-8.7-6.4h-4.5V82.5c0-2.7-1.9-4.5-4.5-4.5H52.9v-9.1H62c2.7 0 4.5-1.9 4.5-4.5v-9.1h9.1c5.1 0 9.1-4.1 9.1-9.1V34.6c-4.1-1.3-9.1-2.3-13.6-2.3-25.1 0-45.6 20.4-45.6 45.6s20.4 45.6 45.6 45.6 45.6-20.4 45.6-45.6c0-1.3 0-3.2-.4-4.5-.1-.1-9.3-.1-9.3-.1z"/></g></g></svg>