<svg id="Layer_1" xmlns="http://www.w3.org/2000/svg" viewBox="0 0 150 150"><style>.st0{fill:#f2ba59}.st1{fill:#703081}</style><g id="Layer_1_1_"><path class="st0" d="M53.9 120.6h23.5v4.8H53.9zM53.9 92.5h23.5v4.8H53.9z"/><path class="st1" d="M131.1 55.1c.1-.9.1-1.6.1-2.5 0-11.6-9.5-21.1-21.1-21.1-1.5 0-2.9.1-4.4.5-4.6-12.9-17-21.6-30.8-21.6s-26.1 8.8-30.8 21.5c-1.4-.3-2.9-.5-4.4-.5-11.6 0-21.1 9.5-21.1 21.1 0 .7 0 1.6.1 2.5C8.3 56.1 0 65.1 0 76c0 11.6 9.5 21.1 21.1 21.1h18.8v-4.8H21.1c-9 0-16.4-7.4-16.4-16.4s7.4-16.4 16.6-16.4h.4c.7 0 1.5-.3 1.9-.9.5-.6.6-1.4.5-2-.4-1.4-.5-2.8-.5-4.1 0-9 7.4-16.4 16.4-16.4 1.8 0 3.5.3 5.1.9.6.3 1.3.1 1.9-.1.6-.3 1-.8 1.1-1.4 3.3-12 14.4-20.4 26.9-20.4s23.6 8.4 27 20.4c.1.6.6 1.1 1.1 1.4.6.3 1.3.4 1.9.1 1.6-.5 3.4-.9 5.1-.9 9 0 16.4 7.4 16.4 16.4 0 1.4-.1 2.8-.5 4.1-.1.8 0 1.5.5 2 .5.6 1.1.9 1.9.9h.5c9 0 16.4 7.4 16.4 16.4s-7.4 16.4-16.4 16.4h-18.8V97h18.8c11.6 0 21.1-9.5 21.1-21.1 0-10.8-8.2-19.8-18.9-20.8z"/><path class="st0" d="M53.9 64.4h23.5v4.8H53.9z"/><path class="st1" d="M44.5 78.4h4.7v4.8h-4.7v23.5h4.7v4.8h-4.7V135h4.7v4.8H54V135h42.3v4.8h4.8V135h4.8v-23.5H101v-4.8h4.8V83.1H101v-4.8h4.8V55H44.5v23.4zm56.3 51.6H49.3v-14.1h51.6l-.1 14.1zm-46.9-18.8v-4.8h42.2v4.8H53.9zm46.9-9.3H49.3V87.7h51.6v14.1h-.1v.1zM53.9 83.1v-4.8h42.2v4.8H53.9zm-4.6-23.5h51.6v14.1H49.3V59.6z"/><path class="st0" d="M91.4 64.4h4.8v4.8h-4.8zM91.4 92.5h4.8v4.8h-4.8zM91.4 120.6h4.8v4.8h-4.8zM56.3 43.2h-4.8C51.5 30.4 62 19.7 75 19.7v4.8c-10.4 0-18.7 8.4-18.7 18.7z"/></g><path class="st0" d="M115.9 136.4l32.3 10.8c.9.3 1.8-.4 1.8-1.3v-45.8c0-.9-.9-1.6-1.8-1.3l-32.3 10.8c-.5.2-.9.7-.9 1.3v24.2c0 .6.4 1.1.9 1.3zm1.8-12.7h12.1v14.5l-12.1-4v-10.5zm13.5 14.9v-14.9h16.2V144l-16.2-5.4zm16.1-16.2h-16.2v-15l16.2-5.4v20.4zm-17.5-14.6v14.5h-12.1v-10.4l12.1-4.1z"/></svg>