<svg id="Layer_1" xmlns="http://www.w3.org/2000/svg" viewBox="0 0 150 166.8"><style>.st0{fill:#703081}.st1{fill:#9b75a6}</style><path class="st0" d="M75 0C33.6 0 0 33.6 0 75c0 39.2 30.2 71.4 68.6 74.8L56.4 162c-1 1-1 2.8 0 4 .6.6 1.2.8 2 .8s1.4-.2 2-.8L77 149.4c.2-.2.4-.6.6-1 .2-.6.2-1.4 0-2.2-.2-.4-.4-.6-.6-1l-16.6-16.6c-1-1-2.8-1-4 0s-1 2.8 0 4L68 144.2C33 140.6 5.6 111 5.6 75 5.6 36.8 36.8 5.6 75 5.6s69.4 31.2 69.4 69.4c0 18.4-7.2 35.8-20.2 48.8-1 1-1 2.8 0 4 1 1 2.8 1 4 0C142.2 113.6 150 95 150 75c0-41.2-33.6-75-75-75z" id="Layer_2"/><g id="Layer_7"><path class="st1" d="M102.5 65.5c8.4 0 16 3.6 21.3 9.3-.3-10.4-8.9-18.8-19.5-18.8-1.7-14.9-14.5-26.6-29.9-26.6S46.2 41 44.5 56C33.7 56 25 64.7 25 75.5s8.8 19.3 19.6 19.3h28.6c0-16.1 13.2-29.3 29.3-29.3z"/><path class="st0" d="M102.5 72.3C90.1 72.3 80 82.4 80 94.8s10.1 22.5 22.5 22.5S125 107.2 125 94.8s-10.1-22.5-22.5-22.5zm12.2 30l-4.8 4.8-7.5-7.5-7.5 7.5-4.8-4.8 7.5-7.5-7.4-7.5 4.8-4.8 7.5 7.5 7.5-7.5 4.8 4.8-7.5 7.5 7.4 7.5z"/></g></svg>