<?xml version="1.0" encoding="utf-8"?>
<!-- Generator: Adobe Illustrator 21.0.2, SVG Export Plug-In . SVG Version: 6.00 Build 0)  -->
<svg version="1.1" xmlns="http://www.w3.org/2000/svg" xmlns:xlink="http://www.w3.org/1999/xlink" x="0px" y="0px"
	 viewBox="0 0 150 150.1" style="enable-background:new 0 0 150 150.1;" xml:space="preserve">
<style type="text/css">
	.st0{fill:#DF6B90;}
	.st1{fill:#703081;}
</style>
<g id="Layer_1">
	<path class="st0" d="M57.7,117.1c5.6,2.4,11.5,3.4,17.5,3.4h1.2c5.4-0.2,10.9-1.2,16.1-3.4c23.1-9.7,34.2-36.4,24.7-59.6
		c-7-16.5-22.3-26.8-39-28c-0.6,0-1.4-0.2-2-0.2H76c-6-0.2-12.3,1-18.3,3.4C46.4,37.5,37.8,46.3,33,57.6c-4.6,11.3-4.6,23.5,0,34.8
		C37.6,103.6,46.4,112.3,57.7,117.1z M94.7,108.7c2.6-4,4.6-8.7,6.2-14.1h7.6C105.4,100.2,100.6,105.1,94.7,108.7z M111.6,88h-9.3
		c0.8-4,1.2-8.4,1.2-12.9c0-4.4-0.4-8.7-1-12.7h9.3C114.6,70.9,114.4,79.9,111.6,88z M108.6,55.6H101c-1.4-5.2-3.4-9.9-5.8-13.7
		C100.8,45.3,105.4,49.9,108.6,55.6z M79.4,36.7c6.4,1.8,11.7,9.1,14.7,18.9H79.4V36.7z M79.4,62.4h16.3c0.8,4,1.2,8.2,1.2,12.7
		c0,4.4-0.4,8.7-1.2,12.9H79.4V62.4z M79.4,94.4h14.3c-3,9.9-8.2,16.9-14.3,18.9V94.4z M41.4,94.6h10.1c1.8,6.2,4.4,11.7,7.4,15.9
		C51.5,107.1,45.4,101.4,41.4,94.6z M72.8,113.5c-6-2-11.3-9.3-14.3-18.9h14.3V113.5z M73,87.8H56.9c-1-4-1.4-8.2-1.4-12.7
		c0-4.4,0.4-8.9,1.2-12.9H73V87.8z M72.8,36.7v18.9H58.1C61.1,45.7,66.3,38.5,72.8,36.7z M58.3,40.1c-3,4.2-5.4,9.5-7,15.5h-9.9
		C45.2,48.7,51.1,43.5,58.3,40.1z M38.4,62.2h11.5c-0.6,4-1,8.2-1,12.9c0,4.4,0.4,8.7,1,12.9H38.4C35.4,79.5,35.4,70.7,38.4,62.2z"
		/>
</g>
<g id="Layer_1_copy">
	<path class="st1" d="M26.1,27.2c26.2-26.8,69-27.4,96.2-1.6h-6.8v6.6l18.3-0.2l-0.2-18.3h-6.6v7C97.3-7.6,50.1-6.8,21.3,22.6
		c-9.9,10.3-16.7,22.9-19.7,37c-2.8,13.7-1.8,27.8,2.8,40.8l6.2-2.2C1.8,73.3,7.6,46.1,26.1,27.2z"/>
	<path class="st1" d="M145.6,49.7l-6.2,2.2c8.9,24.9,3,52.1-15.5,71c-26.2,26.8-69.2,27.4-96.2,1.6h6.8v-6.6l-18.3,0.2l0.2,18.3h6.6
		v-7c14.5,13.9,33.2,20.7,51.9,20.7c19.5,0,39-7.4,53.7-22.5c9.9-10.3,16.7-22.9,19.7-37C151.2,76.9,150.2,62.8,145.6,49.7z"/>
</g>
</svg>
