<?xml version="1.0" encoding="utf-8"?>
<!-- Generator: Adobe Illustrator 21.0.2, SVG Export Plug-In . SVG Version: 6.00 Build 0)  -->
<svg version="1.1" id="Layer_1" xmlns="http://www.w3.org/2000/svg" xmlns:xlink="http://www.w3.org/1999/xlink" x="0px" y="0px"
	 viewBox="0 0 140 111.6" style="enable-background:new 0 0 140 111.6;" xml:space="preserve">
<style type="text/css">
	.st0{fill:#703081;}
	.st1{fill:#DF6B90;}
	.st2{fill:#FFFFFF;}
</style>
<g id="Layer_1_copy">
</g>
<g>
	<g id="Layer_1_1_">
		<g>
			<path class="st0" d="M96.3,37.4H21.9c-4.5,0-8.1,3.4-8.1,7.5v46.4c0,4.1,3.6,7.5,8.1,7.5h74.4c4.5,0,8.1-3.4,8.1-7.5V44.9
				C104.4,40.7,100.8,37.4,96.3,37.4z M96.3,42.2c0.2,0,0.4,0,0.6,0.2L59.1,71L20.6,42.6c0.3-0.2,0.9-0.4,1.3-0.4H96.3z M96.3,93.9
				H21.9c-1.7,0-3-1.1-3-2.6V47.5l40.2,29.7l40.2-30.5v44.5C99.3,92.8,98,93.9,96.3,93.9z"/>
			
				<rect x="31.9" y="11.2" transform="matrix(0.7071 -0.7071 0.7071 0.7071 4.5133 38.3021)" class="st1" width="33.1" height="5.1"/>
			
				<rect x="109.9" y="11" transform="matrix(0.7071 -0.7071 0.7071 0.7071 27.4994 93.4007)" class="st1" width="33.1" height="5.1"/>
			<rect x="70" y="11" transform="matrix(0.7071 -0.7071 0.7071 0.7071 15.8069 65.1726)" class="st0" width="33.1" height="5.1"/>
			
				<rect x="109.8" y="73.1" transform="matrix(0.7071 -0.7071 0.7071 0.7071 -16.4838 111.5148)" class="st1" width="33.1" height="5.1"/>
			
				<rect x="109.9" y="43.1" transform="matrix(0.7071 -0.7071 0.7071 0.7071 4.7832 102.7833)" class="st0" width="33.1" height="5.1"/>
		</g>
	</g>
	<g>
		<g>
			<g>
				<path class="st1" d="M40,91.6c0,11-9,20-20,20s-20-9-20-20c0-11,9-20,20-20C31.1,71.6,40,80.6,40,91.6z"/>
			</g>
		</g>
		<path class="st2" d="M33.9,89.1l-1.7-0.4c-0.8-0.2-1.4-0.7-1.7-1.4c-0.3-0.7-0.2-1.5,0.3-2.2l1.1-1.4c0.4-0.4,0.3-1.1-0.2-1.5
			l-2.2-2.2c-0.4-0.4-1-0.4-1.4-0.2l-1.4,1c-0.4,0.3-0.8,0.4-1.3,0.4c-1,0-2.1-0.7-2.2-2l-0.3-1.8c-0.1-0.5-0.6-1-1.2-1h-3.1
			c-0.5,0-1.1,0.4-1.2,1l-0.4,2.2c-0.3,1.3-1.3,1.9-2.2,1.9c-0.4,0-0.9-0.2-1.3-0.4l-1.8-1.3c-0.4-0.4-1.1-0.3-1.4,0.2l-1.9,2.3
			c-0.4,0.4-0.4,1.1-0.2,1.5l1.1,1.4c0.4,0.6,0.6,1.4,0.3,2.2c-0.3,0.7-0.9,1.3-1.7,1.4L6,89.2c-0.5,0.1-1,0.6-1,1.2v3.1
			c0,0.6,0.4,1.1,1,1.2l1.8,0.3c0.8,0.2,1.4,0.6,1.7,1.3c0.4,0.7,0.3,1.5-0.2,2.2l-1,1.4c-0.4,0.4-0.3,1.1,0.2,1.4l2.2,2.2
			c0.4,0.4,1.1,0.4,1.5,0.2l1.4-1.1c0.4-0.3,0.9-0.4,1.3-0.4c1,0,2,0.6,2.2,1.9l0.4,1.7c0.1,0.5,0.6,1,1.2,1h3c0.6,0,1.1-0.4,1.2-1
			l0.2-1.3c0.2-1.3,1.3-2,2.2-2c0.5,0,1,0.2,1.3,0.4l1,0.7c0.4,0.4,1.1,0.3,1.5-0.2l2.2-2.2c0.4-0.4,0.4-1,0.2-1.4l-1-1.4
			c-0.4-0.7-0.5-1.4-0.2-2.2c0.4-0.7,1-1.3,1.7-1.3l1.8-0.3c0.5-0.1,1-0.6,1-1.2v-3.1C34.9,89.6,34.5,89.2,33.9,89.1z M32.6,92.3
			l-0.8,0.2c-1.5,0.3-2.9,1.3-3.5,2.7c-0.6,1.4-0.5,3.1,0.4,4.4l0.4,0.6l-0.9,0.9l-0.3-0.2c-0.8-0.6-1.7-0.9-2.7-0.9
			c-2.2,0-4.1,1.6-4.5,3.9l-0.1,0.3h-1.3l-0.2-0.7c-0.4-2.2-2.3-3.7-4.5-3.7c-1,0-1.9,0.4-2.7,0.9l-0.6,0.4l-0.9-0.9l0.4-0.6
			c0.9-1.3,1.1-3,0.4-4.4s-2-2.4-3.5-2.7l-0.5-0.2v-1.2l0.7-0.2c1.5-0.4,2.8-1.3,3.4-2.8c0.6-1.4,0.4-3.1-0.6-4.4l-0.4-0.5l0.9-0.9
			l1.1,0.7c0.8,0.5,1.6,0.8,2.5,0.8c2.2,0,4-1.5,4.5-3.7l0.3-1.3h1.2l0.2,0.8c0.4,2.2,2.2,3.9,4.5,3.9c0.9,0,1.8-0.3,2.5-0.8
			l0.6-0.4l0.9,0.9l-0.4,0.6c-1,1.3-1.2,2.9-0.6,4.4c0.6,1.4,1.9,2.5,3.4,2.8l0.7,0.2L32.6,92.3L32.6,92.3z"/>
		<path class="st2" d="M20,85.9c-3.1,0-5.7,2.6-5.7,5.7s2.6,5.7,5.7,5.7s5.7-2.6,5.7-5.7S23.2,85.9,20,85.9z M20,95
			c-1.9,0-3.4-1.5-3.4-3.4c0-1.9,1.5-3.4,3.4-3.4s3.4,1.5,3.4,3.4C23.5,93.4,22,95,20,95z"/>
	</g>
</g>
</svg>
