<?xml version="1.0" encoding="utf-8"?>
<!-- Generator: Adobe Illustrator 21.0.2, SVG Export Plug-In . SVG Version: 6.00 Build 0)  -->
<svg version="1.1" id="Layer_1" xmlns="http://www.w3.org/2000/svg" xmlns:xlink="http://www.w3.org/1999/xlink" x="0px" y="0px"
	 viewBox="0 0 145.7 135.6" style="enable-background:new 0 0 145.7 135.6;" xml:space="preserve">
<style type="text/css">
	.st0{fill:#D8427D;}
</style>
<g id="Layer_5">
	<g>
		<path class="st0" d="M116.6,22.3c-1.1,0-2.1-0.6-2.6-1.5c-6-8.1-15.4-12.9-25.7-12.9c-0.6,0-1.3,0-1.9,0c-0.9,0-1.7-0.2-2.4-0.8
			C77.8,2.4,70.3,0,62.4,0C48.3,0,36,8.1,30.1,20.4c-0.6,1.1-1.7,1.9-2.8,2.1C12,24.8,0,38.1,0,54c0,15.4,10.9,28.1,25.3,31.1v-9.4
			c0-1.1,0.2-2.2,0.6-3.4c-7.7-2.6-13.3-9.7-13.3-18.4c0-10.7,8.6-19.3,19.3-19.3c0.6,0,1.1,0,1.5,0c3,0.2,5.8-1.7,6.6-4.7
			c2.6-10.3,11.8-17.6,22.5-17.6c6,0,11.8,2.4,16.1,6.6c1.5,1.5,3.6,2.1,5.6,1.7c1.3-0.2,2.6-0.4,3.9-0.4c7.5,0,14.1,4.1,17.4,10.9
			c1.1,2.4,3.6,3.8,6.2,3.6c0.6,0,1.3-0.2,1.9-0.2c10.7,0,19.3,8.6,19.3,19.3c0,8.6-5.6,15.8-13.3,18.4c0.4,1.1,0.6,2.2,0.6,3.4V85
			c14.8-2.8,25.5-15.6,25.5-30.9C145.6,37.3,132.9,23.6,116.6,22.3z"/>
		<g id="extension">
			<path class="st0" d="M110.8,88.1h-6.4v-17c0-4.7-3.9-8.6-8.6-8.6H78.7v-6.4c0-6-4.7-10.7-10.7-10.7s-10.7,4.7-10.7,10.7v6.4h-17
				c-4.7,0-8.6,3.9-8.6,8.6v16.3h6.4c6.4,0,11.6,5.1,11.6,11.6s-5.1,11.6-11.6,11.6h-6.4v16.3c0,4.7,3.9,8.6,8.6,8.6h16.3v-6.4
				c0-6.4,5.1-11.6,11.6-11.6s11.6,5.1,11.6,11.7v6.4h16.3c4.7,0,8.6-3.9,8.6-8.6v-17.1h6.4c6,0,10.7-4.7,10.7-10.7
				C121.5,92.8,116.8,88.1,110.8,88.1z"/>
		</g>
	</g>
</g>
</svg>
