<svg id="Layer_1" xmlns="http://www.w3.org/2000/svg" viewBox="0 0 150 118.6"><style>.st0{display:none}.st1{fill:#d8427d}</style><g id="Layer_6"><path class="st1" d="M94.5 18.1c-.9 0-1.7-.5-2.1-1.2-4.9-6.5-12.5-10.5-20.8-10.5h-1.5c-.8 0-1.4-.2-2-.6C63.2 2 57.1 0 50.8 0 39.4 0 29.3 6.5 24.6 16.6c-.5.9-1.4 1.5-2.3 1.7C9.7 20 0 30.8 0 43.8c0 12.5 8.8 22.8 20.5 25.3v-7.6c0-.9.2-1.8.5-2.7-6.2-2.3-10.8-8-10.8-15 0-8.7 7-15.7 15.7-15.7h1.2c2.4.2 4.7-1.4 5.3-3.8C34.5 15.9 42 10 50.7 10c4.9 0 9.6 2 13.1 5.3 1.2 1.2 2.9 1.7 4.6 1.4 1.1-.2 2.1-.3 3.2-.3 6.1 0 11.4 3.3 14.1 8.8.9 2 2.9 3 5 2.9.5 0 1.1-.2 1.5-.2 8.7 0 15.7 7 15.7 15.7 0 7-4.6 12.8-10.8 14.9.3.9.5 1.8.5 2.7v7.6c11.7-2.4 20.5-12.9 20.5-25.3.1-13.3-10.4-24.4-23.6-25.4z"/><path class="st1" d="M91.9 71.4h-5.2V57.6c0-3.8-3.2-7-7-7H65.9v-5.2c0-4.9-3.8-8.7-8.7-8.7s-8.7 3.8-8.7 8.7v5.2H34.7c-3.8 0-7 3.2-7 7v13.2h5.2c5.2 0 9.4 4.1 9.4 9.4s-4.1 9.4-9.4 9.4h-5.2v13.2c0 3.8 3.2 7 7 7h13.2v-5c0-5.2 4.1-9.4 9.4-9.4 5.2 0 9.4 4.1 9.4 9.4v5.2H80c3.8 0 7-3.2 7-7V89.2h5.2c4.9 0 8.7-3.8 8.7-8.7-.2-5.2-4.1-9.1-9-9.1z" id="extension"/><path class="st1" d="M110.1 80.1v-5.8c0-.8.6-1.4 1.4-1.4s1.4.6 1.4 1.4v5.8c0 .8-.6 1.4-1.4 1.4s-1.4-.6-1.4-1.4zm24.2 1.4c.8 0 1.4-.6 1.4-1.4v-5.8c0-.8-.6-1.4-1.4-1.4s-1.4.6-1.4 1.4v5.8c.1.8.7 1.4 1.4 1.4zm15.7 25.7c0 6.2-5.2 11.4-11.4 11.4s-11.4-5.2-11.4-11.4 5.2-11.4 11.4-11.4c6.4 0 11.4 5.2 11.4 11.4zm-2.7 0c0-4.7-3.8-8.5-8.5-8.5s-8.5 3.8-8.5 8.5 3.8 8.5 8.5 8.5c4.5 0 8.5-3.8 8.5-8.5zm-31.5-17H110v5.6h5.8v-5.6zm-5.7 14.1h5.8v-5.8h-5.8v5.8zm8.6-8.5h5.8v-5.6h-5.8v5.6zm0 8.5h5.8v-5.8h-5.8v5.8zm-11.4 2.6V87.3h31.3v5.8h2.9V81.9c0-1.7-1.4-3.2-3-3.2h-1.2v1.4c0 1.5-1.2 2.9-2.9 2.9-1.5 0-2.9-1.2-2.9-2.9v-1.3h-17.2v1.4c0 1.5-1.2 2.9-2.9 2.9-1.5 0-2.9-1.2-2.9-2.9v-1.4h-1.2c-1.7 0-3 1.4-3 3.2v25.1c0 1.7 1.4 3.2 3 3.2h16.9v-2.9h-16.6c-.2-.2-.3-.4-.3-.5zM133 95.8v-5.6h-5.6v5.6h5.6zm10 11.4h-4.3v-4.3c0-.8-.6-1.4-1.4-1.4s-1.4.6-1.4 1.4v5.8c0 .8.6 1.4 1.4 1.4h5.8c.8 0 1.4-.6 1.4-1.4-.1-.9-.7-1.5-1.5-1.5z"/></g></svg>