<?xml version="1.0" encoding="utf-8"?>
<!-- Generator: Adobe Illustrator 21.0.2, SVG Export Plug-In . SVG Version: 6.00 Build 0)  -->
<svg version="1.1" id="Layer_1" xmlns="http://www.w3.org/2000/svg" xmlns:xlink="http://www.w3.org/1999/xlink" x="0px" y="0px"
	 viewBox="0 0 150 150" style="enable-background:new 0 0 150 150;" xml:space="preserve">
<style type="text/css">
	.st0{fill:#703081;}
	.st1{fill:#F2BA59;}
</style>
<g id="Layer_1_1_">
	<path class="st0" d="M131.1,55.1c0.1-0.9,0.1-1.6,0.1-2.5c0-11.6-9.5-21.1-21.1-21.1c-1.5,0-2.9,0.1-4.4,0.5
		c-4.6-12.9-17-21.6-30.8-21.6s-26.1,8.8-30.8,21.5c-1.4-0.3-2.9-0.5-4.4-0.5c-11.6,0-21.1,9.5-21.1,21.1c0,0.7,0,1.6,0.1,2.5
		C8.3,56.1,0,65.1,0,76c0,11.6,9.5,21.1,21.1,21.1h18.8v-4.8H21.1c-9,0-16.4-7.4-16.4-16.4s7.4-16.4,16.6-16.4l0,0h0.4
		c0.7,0,1.5-0.3,1.9-0.9c0.5-0.6,0.6-1.4,0.5-2c-0.4-1.4-0.5-2.8-0.5-4.1c0-9,7.4-16.4,16.4-16.4c1.8,0,3.5,0.3,5.1,0.9
		c0.6,0.3,1.3,0.1,1.9-0.1c0.6-0.3,1-0.8,1.1-1.4c3.3-12,14.4-20.4,26.9-20.4s23.6,8.4,27,20.4c0.1,0.6,0.6,1.1,1.1,1.4
		c0.6,0.3,1.3,0.4,1.9,0.1c1.6-0.5,3.4-0.9,5.1-0.9c9,0,16.4,7.4,16.4,16.4c0,1.4-0.1,2.8-0.5,4.1c-0.1,0.8,0,1.5,0.5,2
		c0.5,0.6,1.1,0.9,1.9,0.9h0.5c9,0,16.4,7.4,16.4,16.4s-7.4,16.4-16.4,16.4h-18.8V97h18.8c11.6,0,21.1-9.5,21.1-21.1
		C150,65.1,141.8,56.1,131.1,55.1z"/>
	<path class="st1" d="M56.3,43.2h-4.8C51.5,30.4,62,19.7,75,19.7v4.8C64.6,24.5,56.3,32.9,56.3,43.2z"/>
</g>
<g>
	<path class="st0" d="M29.1,150h38.4v-38.4H29.1V150z M34.8,117.3h27v27h-27C34.8,144.3,34.8,117.3,34.8,117.3z"/>
	<polygon class="st1" points="46.1,107.6 51.7,107.6 51.7,100.8 78.8,100.8 78.8,127.8 72.5,127.8 72.5,133.5 84.5,133.5 84.5,95.1 
		46.1,95.1 	"/>
	<polygon class="st0" points="62.5,79.1 62.5,91.6 68.2,91.6 68.2,84.8 95.3,84.8 95.3,111.9 89,111.9 89,117.6 100.9,117.6 
		100.9,79.1 	"/>
</g>
<g id="Layer_2">
</g>
</svg>
