<?xml version="1.0" encoding="utf-8"?>
<!-- Generator: Adobe Illustrator 21.0.2, SVG Export Plug-In . SVG Version: 6.00 Build 0)  -->
<svg version="1.1" id="Layer_1" xmlns="http://www.w3.org/2000/svg" xmlns:xlink="http://www.w3.org/1999/xlink" x="0px" y="0px"
	 viewBox="0 0 150 112.2" style="enable-background:new 0 0 150 112.2;" xml:space="preserve">
<style type="text/css">
	.st0{display:none;}
	.st1{fill:#D8427D;}
</style>
<g id="Layer_1_1_" class="st0">
</g>
<g id="Layer_5">
	<g>
		<g>
			<g>
				<g>
					<g>
						<g>
							<g>
								<g>
									<g id="_x31_03_65_">
										<g>
											<path class="st1" d="M148.9,97.3c-1.3-1.3-2.5-2.5-3.7-3.7l4.7-4.7L148,87l-4.7,4.7c-1.3-1.3-2.5-2.5-3.7-3.7
												c-0.1-0.1-0.1-0.1-0.3-0.1l-0.7-0.7l-1.9,1.9l4.9,4.9l-4.7,4.7l1.9,1.9l4.7-4.7l4.7,4.7l1.9-1.9l-0.6-0.6
												C149,97.4,148.9,97.4,148.9,97.3z"/>
											<path class="st1" d="M142.1,82.2c0.3,0,0.4,0,0.7,0c0-0.3,0-0.4,0.1-0.7c-0.3-4.7-3.6-8-8.4-8.4
												c-2.7-0.1-5.2,1.3-6.6,3.3c-1.6-2-3.7-3.1-6.6-3.3c-4.7-0.3-8,4-8.4,8.4c0,0.6,0,1.1,0.1,1.6c-0.3,0-0.6,0-1-0.1
												c-5.2-0.3-8.7,4.3-9,9c-0.3,4.9,3.7,8.4,8.2,8.9v0.1h22.4c-1.9-2-3-4.7-3-7.6C130.9,87.2,135.8,82.2,142.1,82.2z"/>
										</g>
									</g>
								</g>
							</g>
						</g>
					</g>
				</g>
			</g>
		</g>
		<g>
			<path class="st1" d="M96.7,18.5c-1,0-1.7-0.4-2.2-1.3c-5-6.7-12.7-10.7-21.2-10.7c-0.4,0-1.1,0-1.6,0c-0.7,0-1.4-0.1-2-0.6
				C64.5,2.1,58.2,0,51.8,0C40.2,0,29.9,6.7,25.1,16.9c-0.4,1-1.4,1.6-2.3,1.7C9.9,20.4,0,31.5,0,44.8c0,12.8,9,23.4,21,25.8v-7.8
				c0-1,0.1-1.9,0.4-2.7c-6.3-2.2-11-8-11-15.2c0-8.9,7.2-16,16-16c0.4,0,1,0,1.3,0c2.5,0.1,4.9-1.4,5.4-3.9
				c2.2-8.6,9.8-14.6,18.6-14.6c5,0,9.8,2,13.3,5.4c1.3,1.3,3,1.7,4.7,1.4c1.1-0.1,2.2-0.3,3.3-0.3c6.2,0,11.6,3.4,14.5,9
				c1,2,3,3.1,5.2,3c0.4,0,1.1-0.1,1.6-0.1c8.9,0,16,7.2,16,16c0,7.2-4.7,13.1-11,15.2c0.3,1,0.4,1.9,0.4,2.7v7.8
				c12.3-2.3,21.2-12.9,21.2-25.7C120.9,31,110.3,19.7,96.7,18.5z"/>
		</g>
		<g>
			<g id="extension">
				<path class="st1" d="M94.1,72.9h-5.3V58.8c0-3.9-3.3-7.2-7.2-7.2H67.4v-5.3c0-5-3.9-8.9-8.9-8.9s-8.9,3.9-8.9,8.9v5.3H35.6
					c-3.9,0-7.2,3.3-7.2,7.2v13.5h5.3c5.3,0,9.6,4.2,9.6,9.6c0,5.4-4.3,9.5-9.6,9.5h-5.3V105c0,3.9,3.3,7.2,7.2,7.2h13.5v-5.3
					c0-5.3,4.2-9.6,9.6-9.6c5.3,0,9.6,4.2,9.6,9.6v5.3h13.5c3.9,0,7.2-3.3,7.2-7.2V90.8h5.3c5,0,8.9-3.9,8.9-8.9
					C103,77,99,72.9,94.1,72.9z"/>
			</g>
		</g>
	</g>
</g>
</svg>
