<?xml version="1.0" encoding="utf-8"?>
<!-- Generator: Adobe Illustrator 21.0.2, SVG Export Plug-In . SVG Version: 6.00 Build 0)  -->
<svg version="1.1" id="Layer_1" xmlns="http://www.w3.org/2000/svg" xmlns:xlink="http://www.w3.org/1999/xlink" x="0px" y="0px"
	 viewBox="0 0 150 118.6" style="enable-background:new 0 0 150 118.6;" xml:space="preserve">
<style type="text/css">
	.st0{display:none;}
	.st1{fill:#D8427D;}
</style>
<g id="Layer_1_1_" class="st0">
</g>
<g id="Layer_6">
	<g>
		<g>
			<path class="st1" d="M94.5,18.1c-0.9,0-1.7-0.5-2.1-1.2C87.5,10.4,79.9,6.4,71.6,6.4c-0.5,0-1.1,0-1.5,0c-0.8,0-1.4-0.2-2-0.6
				C63.2,2,57.1,0,50.8,0C39.4,0,29.3,6.5,24.6,16.6c-0.5,0.9-1.4,1.5-2.3,1.7C9.7,20,0,30.8,0,43.8c0,12.5,8.8,22.8,20.5,25.3v-7.6
				c0-0.9,0.2-1.8,0.5-2.7c-6.2-2.3-10.8-8-10.8-15c0-8.7,7-15.7,15.7-15.7c0.5,0,0.9,0,1.2,0c2.4,0.2,4.7-1.4,5.3-3.8
				C34.5,15.9,42,10,50.7,10c4.9,0,9.6,2,13.1,5.3c1.2,1.2,2.9,1.7,4.6,1.4c1.1-0.2,2.1-0.3,3.2-0.3c6.1,0,11.4,3.3,14.1,8.8
				c0.9,2,2.9,3,5,2.9c0.5,0,1.1-0.2,1.5-0.2c8.7,0,15.7,7,15.7,15.7c0,7-4.6,12.8-10.8,14.9c0.3,0.9,0.5,1.8,0.5,2.7v7.6
				c11.7-2.4,20.5-12.9,20.5-25.3C118.2,30.2,107.7,19.1,94.5,18.1z"/>
		</g>
		<g>
			<g id="extension">
				<path class="st1" d="M91.9,71.4h-5.2V57.6c0-3.8-3.2-7-7-7H65.9v-5.2c0-4.9-3.8-8.7-8.7-8.7s-8.7,3.8-8.7,8.7v5.2H34.7
					c-3.8,0-7,3.2-7,7v13.2h5.2c5.2,0,9.4,4.1,9.4,9.4s-4.1,9.4-9.4,9.4h-5.2v13.2c0,3.8,3.2,7,7,7h13.2v-5c0-5.2,4.1-9.4,9.4-9.4
					c5.2,0,9.4,4.1,9.4,9.4v5.2H80c3.8,0,7-3.2,7-7V89.2h5.2c4.9,0,8.7-3.8,8.7-8.7C100.7,75.3,96.8,71.4,91.9,71.4z"/>
			</g>
		</g>
		<g>
			<path class="st1" d="M110.1,80.1v-5.8c0-0.8,0.6-1.4,1.4-1.4s1.4,0.6,1.4,1.4v5.8c0,0.8-0.6,1.4-1.4,1.4S110.1,80.9,110.1,80.1z
				 M134.3,81.5c0.8,0,1.4-0.6,1.4-1.4v-5.8c0-0.8-0.6-1.4-1.4-1.4s-1.4,0.6-1.4,1.4v5.8C133,80.9,133.6,81.5,134.3,81.5z
				 M150,107.2c0,6.2-5.2,11.4-11.4,11.4s-11.4-5.2-11.4-11.4s5.2-11.4,11.4-11.4C145,95.8,150,101,150,107.2z M147.3,107.2
				c0-4.7-3.8-8.5-8.5-8.5s-8.5,3.8-8.5,8.5s3.8,8.5,8.5,8.5C143.3,115.7,147.3,111.9,147.3,107.2z M115.8,90.2H110v5.6h5.8V90.2z
				 M110.1,104.3h5.8v-5.8h-5.8V104.3z M118.7,95.8h5.8v-5.6h-5.8V95.8z M118.7,104.3h5.8v-5.8h-5.8V104.3z M107.3,106.9V87.3h31.3
				v5.8h2.9V81.9c0-1.7-1.4-3.2-3-3.2h-1.2v1.4c0,1.5-1.2,2.9-2.9,2.9c-1.5,0-2.9-1.2-2.9-2.9v-1.3h-17.2v1.4c0,1.5-1.2,2.9-2.9,2.9
				c-1.5,0-2.9-1.2-2.9-2.9v-1.4h-1.2c-1.7,0-3,1.4-3,3.2v25.1c0,1.7,1.4,3.2,3,3.2h16.9v-2.9h-16.6
				C107.4,107.2,107.3,107,107.3,106.9z M133,95.8v-5.6h-5.6v5.6H133z M143,107.2h-4.3v-4.3c0-0.8-0.6-1.4-1.4-1.4s-1.4,0.6-1.4,1.4
				v5.8c0,0.8,0.6,1.4,1.4,1.4h5.8c0.8,0,1.4-0.6,1.4-1.4C144.4,107.8,143.8,107.2,143,107.2z"/>
		</g>
	</g>
</g>
</svg>
