<svg id="Layer_1" xmlns="http://www.w3.org/2000/svg" viewBox="0 0 145.7 135.6"><style>.st0{fill:#d8427d}</style><g id="Layer_5"><path class="st0" d="M116.6 22.3c-1.1 0-2.1-.6-2.6-1.5-6-8.1-15.4-12.9-25.7-12.9h-1.9c-.9 0-1.7-.2-2.4-.8C77.8 2.4 70.3 0 62.4 0 48.3 0 36 8.1 30.1 20.4c-.6 1.1-1.7 1.9-2.8 2.1C12 24.8 0 38.1 0 54c0 15.4 10.9 28.1 25.3 31.1v-9.4c0-1.1.2-2.2.6-3.4-7.7-2.6-13.3-9.7-13.3-18.4 0-10.7 8.6-19.3 19.3-19.3h1.5c3 .2 5.8-1.7 6.6-4.7 2.6-10.3 11.8-17.6 22.5-17.6 6 0 11.8 2.4 16.1 6.6 1.5 1.5 3.6 2.1 5.6 1.7 1.3-.2 2.6-.4 3.9-.4 7.5 0 14.1 4.1 17.4 10.9 1.1 2.4 3.6 3.8 6.2 3.6.6 0 1.3-.2 1.9-.2 10.7 0 19.3 8.6 19.3 19.3 0 8.6-5.6 15.8-13.3 18.4.4 1.1.6 2.2.6 3.4V85c14.8-2.8 25.5-15.6 25.5-30.9-.1-16.8-12.8-30.5-29.1-31.8z"/><path class="st0" d="M110.8 88.1h-6.4v-17c0-4.7-3.9-8.6-8.6-8.6H78.7v-6.4c0-6-4.7-10.7-10.7-10.7s-10.7 4.7-10.7 10.7v6.4h-17c-4.7 0-8.6 3.9-8.6 8.6v16.3h6.4c6.4 0 11.6 5.1 11.6 11.6s-5.1 11.6-11.6 11.6h-6.4v16.3c0 4.7 3.9 8.6 8.6 8.6h16.3v-6.4c0-6.4 5.1-11.6 11.6-11.6s11.6 5.1 11.6 11.7v6.4h16.3c4.7 0 8.6-3.9 8.6-8.6v-17.1h6.4c6 0 10.7-4.7 10.7-10.7-.3-6.4-5-11.1-11-11.1z" id="extension"/></g></svg>