<?xml version="1.0" encoding="utf-8"?>
<!-- Generator: Adobe Illustrator 21.0.2, SVG Export Plug-In . SVG Version: 6.00 Build 0)  -->
<svg version="1.1" id="Layer_1" xmlns="http://www.w3.org/2000/svg" xmlns:xlink="http://www.w3.org/1999/xlink" x="0px" y="0px"
	 viewBox="0 0 150 115" style="enable-background:new 0 0 150 115;" xml:space="preserve">
<style type="text/css">
	.st0{display:none;fill:#D8427D;}
	.st1{fill:#D8427D;}
</style>
<g id="Layer_5">
	<g>
		<g>
			<path class="st0" d="M88.3,36.9H28.8c-2,0-3.5,1.5-3.5,3.5v11.8c0,2,1.5,3.5,3.5,3.5h59.5c2,0,3.5-1.5,3.5-3.5V40.4
				C91.8,38.4,90.3,36.9,88.3,36.9z M31.7,45.1c-1.2,0-2.1-0.9-2.1-2.1c0-1.2,0.9-2.1,2.1-2.1s2.1,0.9,2.1,2.1
				C33.8,44.2,32.7,45.1,31.7,45.1z M82.8,51.3H67.7v-5h15.1L82.8,51.3L82.8,51.3z"/>
			<path class="st0" d="M88.3,57.4H28.8c-2,0-3.5,1.5-3.5,3.5v11.8c0,2,1.5,3.5,3.5,3.5h59.5c2,0,3.5-1.5,3.5-3.5V60.9
				C91.8,58.9,90.3,57.4,88.3,57.4z M31.7,65.6c-1.2,0-2.1-0.9-2.1-2.1c0-1.2,0.9-2.1,2.1-2.1s2.1,0.9,2.1,2.1
				C33.8,64.7,32.7,65.6,31.7,65.6z M82.8,71.8H67.7v-5h15.1L82.8,71.8L82.8,71.8z"/>
			<path class="st0" d="M88.3,77.9H28.8c-2,0-3.5,1.5-3.5,3.5v11.8c0,2,1.5,3.5,3.5,3.5h59.5c2,0,3.5-1.5,3.5-3.5V81.4
				C91.8,79.4,90.3,77.9,88.3,77.9z M31.7,86.1c-1.2,0-2.1-0.9-2.1-2.1s0.9-2.1,2.1-2.1s2.1,0.9,2.1,2.1S32.7,86.1,31.7,86.1z
				 M82.8,92.3H67.7v-5h15.1L82.8,92.3L82.8,92.3z"/>
			<polygon class="st0" points="68.9,107.8 62.6,107.8 62.6,98.6 54.7,98.6 54.7,107.8 48.4,107.8 48.4,110.4 26.1,110.4 
				26.1,118.2 48.4,118.2 48.4,120.6 68.9,120.6 68.9,118.2 91.1,118.2 91.1,110.4 68.9,110.4 			"/>
			<path class="st1" d="M93.8,17.9c-0.9,0-1.7-0.5-2.1-1.2C86.8,10.2,79.3,6.3,71,6.3c-0.5,0-1.1,0-1.5,0c-0.8,0-1.4-0.2-2-0.6
				c-5-3.8-11-5.7-17.3-5.7C38.9,0,28.9,6.5,24.3,16.4c-0.5,0.9-1.4,1.5-2.3,1.7c-12.4,1.8-22,12.5-22,25.3c0,12.4,8.7,22.6,20.4,25
				v-7.5c0-0.9,0.2-1.8,0.5-2.7c-6.2-2.1-10.7-7.8-10.7-14.8c0-8.6,6.9-15.5,15.5-15.5c0.5,0,0.9,0,1.2,0c2.4,0.2,4.7-1.4,5.3-3.8
				c2.1-8.3,9.5-14.2,18.1-14.2c4.8,0,9.5,2,13,5.3c1.2,1.2,2.9,1.7,4.5,1.4c1.1-0.2,2.1-0.3,3.2-0.3c6,0,11.3,3.3,14,8.7
				c0.9,2,2.9,3,5,2.9c0.5,0,1.1-0.2,1.5-0.2c8.6,0,15.5,6.9,15.5,15.5c0,6.9-4.5,12.7-10.7,14.8c0.3,0.9,0.5,1.8,0.5,2.7v7.6
				c11.9-2.3,20.5-12.5,20.5-24.9C117.1,30,106.9,19,93.8,17.9z"/>
		</g>
		<g>
			<path class="st1" d="M107.2,85.9c0.3,0.8,0.6,1.7,1.1,2.4l-1.2,1.5c-0.5,0.5-0.3,1.2,0.2,1.7l2.1,2.1c0.5,0.5,1.2,0.5,1.7,0.2
				l1.5-1.2c0.8,0.5,1.7,0.8,2.4,1.1l0.2,2c0,0.6,0.6,1.1,1.2,1.1h2.9c0.6,0,1.2-0.5,1.2-1.1l0.2-1.8c0.9-0.3,1.8-0.6,2.6-1.1
				l1.5,1.2c0.5,0.5,1.2,0.3,1.7-0.2l2.1-2.1c0.5-0.5,0.5-1.2,0.2-1.7l-1.2-1.5c0.5-0.8,0.9-1.7,1.1-2.6l1.8-0.2
				c0.6,0,1.1-0.6,1.1-1.2v-2.9c0-0.6-0.5-1.2-1.1-1.2l-1.7-0.2c-0.3-0.9-0.6-1.8-1.1-2.6l1.1-1.4c0.5-0.5,0.3-1.2-0.2-1.7l-2.1-2.1
				c-0.5-0.5-1.2-0.5-1.7-0.2l-1.4,1.1c-0.9-0.5-1.8-0.9-2.7-1.1l-0.2-1.7c0-0.6-0.6-1.1-1.2-1.1h-2.9c-0.6,0-1.2,0.5-1.2,1.1
				l-0.2,1.7c-0.9,0.3-2,0.6-2.7,1.2l-1.5-1.4c-0.5-0.5-1.2-0.3-1.7,0.2l-2.1,2.1c-0.5,0.5-0.5,1.2-0.2,1.7l1.1,1.4
				c-0.5,0.8-0.8,1.7-1.1,2.6l-1.8,0.2c-0.6,0-1.1,0.6-1.1,1.2v2.9c0,0.6,0.5,1.2,1.1,1.2L107.2,85.9z M117.7,78.1
				c2.7,0,4.8,2.1,4.8,4.8c0,2.7-2.1,4.8-4.8,4.8c-2.7,0-4.8-2.1-4.8-4.8S115,78.1,117.7,78.1z"/>
			<path class="st1" d="M146.7,86.7l-1.5-1.4c-0.5-0.5-1.2-0.5-1.7,0l-0.9,0.8c-0.8-0.3-1.5-0.6-2.3-0.8l-0.3-1.2
				c-0.2-0.6-0.8-1.1-1.4-1.1l-2,0.2c-0.6,0-1.1,0.6-1.1,1.2v1.2c-0.8,0.3-1.5,0.6-2.1,1.2l-1.1-0.6c-0.5-0.3-1.2-0.3-1.7,0.3
				l-1.4,1.5c-0.5,0.5-0.5,1.2,0,1.7l0.9,0.9c-0.3,0.8-0.6,1.4-0.6,2.1l-1.2,0.3c-0.6,0.2-1.1,0.8-1.1,1.4l0.2,2.1
				c0,0.6,0.6,1.1,1.2,1.1h1.4c0.3,0.6,0.6,1.2,0.9,1.8l-0.8,1.2c-0.3,0.5-0.3,1.2,0.3,1.7l1.5,1.4c0.5,0.5,1.2,0.5,1.7,0l1.1-0.9
				c0.6,0.3,1.4,0.6,2.1,0.6l0.3,1.4c0.2,0.6,0.8,1.1,1.4,1.1l2-0.2c0.6,0,1.1-0.6,1.1-1.2v-1.4c0.8-0.3,1.4-0.6,2.1-1.1l1.1,0.8
				c0.5,0.3,1.2,0.3,1.7-0.3l1.4-1.5c0.5-0.5,0.5-1.2,0-1.7l-0.9-1c0.3-0.8,0.6-1.4,0.8-2.3l1.2-0.3c0.6-0.2,1.1-0.8,1.1-1.4l-0.2-2
				c0-0.6-0.6-1.1-1.2-1.1h-1.2c-0.3-0.8-0.6-1.4-1.1-2l0.6-1.1C147.3,87.9,147.1,87.1,146.7,86.7z M139,98.4
				c-2.1,0.2-4.1-1.5-4.2-3.6c-0.2-2.1,1.5-4.1,3.6-4.2c2.1-0.2,4.1,1.5,4.2,3.6C142.9,96.3,141.3,98.1,139,98.4z"/>
			<path class="st1" d="M114.1,103.7c-0.6,0-1.1,0.6-1.1,1.2v1.2c0,0.6,0.5,1.2,1.1,1.2l0.9,0.2c0.2,0.6,0.3,1.1,0.6,1.7L115,110
				c-0.5,0.5-0.3,1.2,0,1.7l0.9,0.9c0.5,0.5,1.2,0.5,1.7,0.2l0.8-0.6c0.5,0.3,1.1,0.6,1.7,0.8l0.2,0.9c0,0.6,0.6,1.1,1.2,1.1h1.2
				c0.6,0,1.2-0.5,1.2-1.1l0.2-0.9c0.6-0.2,1.2-0.5,1.8-0.8l0.8,0.6c0.5,0.5,1.2,0.3,1.7,0l0.9-0.9c0.5-0.5,0.5-1.2,0.2-1.7
				l-0.5-0.8c0.3-0.6,0.6-1.1,0.8-1.7l0.8-0.2c0.6,0,1.1-0.6,1.1-1.2v-1.2c0-0.6-0.5-1.2-1.1-1.2l-0.8-0.2c-0.2-0.6-0.5-1.2-0.6-1.7
				l0.5-0.6c0.5-0.5,0.3-1.2,0-1.7l-0.9-0.9c-0.5-0.5-1.2-0.5-1.7-0.2l-0.6,0.5c-0.6-0.3-1.2-0.6-1.8-0.8l-0.2-0.8
				c0-0.6-0.6-1.1-1.2-1.1h-1.2c-0.6,0-1.2,0.5-1.2,1.1l-0.2,0.8c-0.6,0.2-1.2,0.5-1.8,0.8l-0.6-0.5c-0.5-0.5-1.2-0.3-1.7,0
				l-0.9,0.9c-0.5,0.5-0.5,1.2-0.2,1.7l0.5,0.6c-0.3,0.6-0.6,1.1-0.8,1.7L114.1,103.7z M122.1,102.4c1.8,0,3.2,1.5,3.2,3.3
				s-1.5,3.2-3.3,3.2s-3.2-1.5-3.2-3.3C118.9,103.9,120.5,102.4,122.1,102.4z"/>
		</g>
		<g>
			<g id="extension">
				<path class="st1" d="M91.2,70.9h-5.1V57.1c0-3.8-3.2-6.9-6.9-6.9H65.4v-5.1c0-4.8-3.8-8.6-8.6-8.6s-8.6,3.8-8.6,8.6v5.1H34.5
					c-3.8,0-6.9,3.2-6.9,6.9v13.1h5.1c5.1,0,9.3,4.1,9.3,9.3s-4.1,9.3-9.3,9.3h-5.1v13.1c0,3.8,3.2,6.9,6.9,6.9h13.1v-5.1
					c0-5.1,4.1-9.3,9.3-9.3s9.3,4.1,9.3,9.3v5.1h13.1c3.8,0,6.9-3.2,6.9-6.9V88.3h5.1c4.8,0,8.6-3.8,8.6-8.6
					C99.8,74.6,96,70.9,91.2,70.9z"/>
			</g>
		</g>
	</g>
</g>
</svg>
