<?xml version="1.0" encoding="utf-8"?>
<!-- Generator: Adobe Illustrator 21.0.2, SVG Export Plug-In . SVG Version: 6.00 Build 0)  -->
<svg version="1.1" id="Layer_1" xmlns="http://www.w3.org/2000/svg" xmlns:xlink="http://www.w3.org/1999/xlink" x="0px" y="0px"
	 viewBox="0 0 150 150" style="enable-background:new 0 0 150 150;" xml:space="preserve">
<style type="text/css">
	.st0{fill:#703081;}
	.st1{fill:#DF6B90;}
	.st2{display:none;fill:#DF6B90;}
</style>
<g id="Layer_2">
	<path class="st0" d="M75,0C33.6,0,0,33.6,0,75s33.6,75,75,75s75-33.6,75-75S116.4,0,75,0z M75,3.1c39.7,0,71.9,32.2,71.9,71.9
		s-32.2,71.9-71.9,71.9S3.1,114.7,3.1,75S35.3,3.1,75,3.1z"/>
</g>
<g>
	<g>
		<g>
			<g>
				<g>
					<g>
						<g>
							<path class="st1" d="M48.4,112.2H30.6c-1.7,0-3-1.3-3-3l0,0c0-1.7,1.3-3,3-3h17.8c1.7,0,3,1.3,3,3l0,0
								C51.2,110.9,50.1,112.2,48.4,112.2z"/>
							<path class="st0" d="M111,130H46c-1.7,0-3-1.3-3-3l0,0c0-1.7,1.3-3,3-3h65c1.7,0,3,1.3,3,3l0,0C114,128.7,112.7,130,111,130z
								"/>
							<path class="st1" d="M83.8,112.2H66.1c-1.7,0-3-1.3-3-3l0,0c0-1.7,1.3-3,3-3h17.8c1.7,0,3,1.3,3,3l0,0
								C86.8,110.9,85.5,112.2,83.8,112.2z"/>
							<path class="st1" d="M119.4,112.2h-17.8c-1.7,0-3-1.3-3-3l0,0c0-1.7,1.3-3,3-3h17.8c1.7,0,3,1.3,3,3l0,0
								C122.3,110.9,121,112.2,119.4,112.2z"/>
							<path class="st2" d="M57.2,65v23.7H33.6V65H57.2 M57.2,59H33.6c-3.3,0-5.9,2.7-5.9,5.9v23.7c0,3.2,2.7,5.9,5.9,5.9h23.7
								c3.3,0,5.9-2.7,5.9-5.9V65C63.1,61.8,60.4,59,57.2,59L57.2,59z"/>
						</g>
					</g>
				</g>
			</g>
		</g>
	</g>
</g>
<path class="st1" d="M108.7,71.6c-1.1,0-2.1,0.4-3,0.7l-8.2-7.8c4.1-5,6.6-11.4,6.6-18.5c0-16-13-29-29-29S46,30,46,46
	c0,6.9,2.5,13.5,6.6,18.5l-8.2,7.8c-0.9-0.5-2-0.7-3-0.7c-3.6,0-6.4,2.9-6.4,6.4s2.9,6.4,6.4,6.4c3.6,0,6.4-2.9,6.4-6.4
	c0-0.9-0.2-2-0.5-2.7l8.2-7.8c4.6,4.3,10.7,6.9,17.5,7.5v9.4c-2.5,0.9-4.3,3.2-4.3,6.1c0,3.6,2.9,6.4,6.4,6.4c3.6,0,6.4-2.9,6.4-6.4
	c0-2.9-1.8-5.2-4.3-6.1V75c6.8-0.5,12.8-3.2,17.5-7.5l8.2,7.8c-0.4,0.9-0.5,1.8-0.5,2.7c0,3.6,2.9,6.4,6.4,6.4
	c3.6,0,6.4-2.9,6.4-6.4C115.1,74.5,112.2,71.6,108.7,71.6z M93.5,60.1L93.5,60.1c-1.8-1.6-5.3-2.9-7.1-3.7c-1.1-0.5-2.3-0.9-3-1.2
	c-0.7-0.5-0.7-1.6-1.6-2.5c-0.4-0.4-1.4,0-1.4-0.5c-0.2-0.9,0.9-1.6,1.2-2.5c0.4-0.9,0.2-0.7,0.4-2c1.8-0.5,2.7-5,1.4-5
	c0.5-3.2,1.1-8-1.1-9.3c-0.5-0.2-1.1-0.2-1.4-0.4c-0.2-0.2-0.4-0.5-0.7-0.7c-1.1-0.9-3.9-1.4-5.5-1.4c-1.6,0-3.4,0.5-4.5,1.4
	l-2.1,1.1c-2.3,1.2-1.6,6.1-1.1,9.3c-1.2,0.2-0.4,4.5,1.6,5c0.2,1.1,0,0.9,0.4,1.8c0.4,0.9,1.2,1.4,1.2,2.5c0,0.5-1.1,0.2-1.4,0.5
	c-0.9,0.7-0.9,2-1.6,2.5s-2,0.9-3,1.2c-1.8,0.9-5.5,2.1-7.1,3.7l0,0c-3-3.9-4.8-8.7-4.8-14.1c0-12.8,10.5-23.3,23.3-23.3
	c12.8,0,23.3,10.5,23.3,23.3C98.3,51.3,96.4,56.1,93.5,60.1z"/>
</svg>
