<?xml version="1.0" encoding="utf-8"?>
<!-- Generator: Adobe Illustrator 21.0.2, SVG Export Plug-In . SVG Version: 6.00 Build 0)  -->
<svg version="1.1" id="Layer_1" xmlns="http://www.w3.org/2000/svg" xmlns:xlink="http://www.w3.org/1999/xlink" x="0px" y="0px"
	 viewBox="0 0 150 99.4" style="enable-background:new 0 0 150 99.4;" xml:space="preserve">
<style type="text/css">
	.st0{fill:#703081;}
	.st1{fill:#DF6B90;}
</style>
<g>
	<g>
		<g>
			<g>
				<g>
					<g>
						<path class="st0" d="M129.5,0H10C4.5,0,0,4.5,0,10v69.8c0,5.5,4.5,10,10,10h72.3c1.4,0,2.5-1.1,2.5-2.5s-1.1-2.5-2.5-2.5H10
							c-2.8,0-5-2.3-5-5V9.9c0-2.8,2.2-5,5-5h119.6c2.8,0,5,2.2,5,5v27.4c0,1.4,1.1,2.5,2.5,2.5s2.5-1.1,2.5-2.5V9.9
							C139.5,4.4,135,0,129.5,0z"/>
						<path class="st1" d="M32.4,59.8H17.5c-1.4,0-2.5-1.1-2.5-2.5l0,0c0-1.4,1.1-2.5,2.5-2.5h15c1.4,0,2.5,1.1,2.5,2.5l0,0
							C34.9,58.6,33.8,59.8,32.4,59.8z"/>
						<path class="st0" d="M72.3,74.8H17.5c-1.4,0-2.5-1.1-2.5-2.5l0,0c0-1.4,1.1-2.5,2.5-2.5h54.8c1.4,0,2.5,1.1,2.5,2.5l0,0
							C74.8,73.6,73.6,74.8,72.3,74.8z"/>
						<path class="st1" d="M62.3,59.8h-15c-1.4,0-2.5-1.1-2.5-2.5l0,0c0-1.4,1.1-2.5,2.5-2.5h15c1.4,0,2.5,1.1,2.5,2.5l0,0
							C64.8,58.6,63.6,59.8,62.3,59.8z"/>
						<path class="st1" d="M92.1,59.8h-15c-1.4,0-2.5-1.1-2.5-2.5l0,0c0-1.4,1.1-2.5,2.5-2.5h15c1.4,0,2.5,1.1,2.5,2.5l0,0
							C94.6,58.6,93.5,59.8,92.1,59.8z"/>
						<path class="st1" d="M39.9,19.9v19.9h-20V19.9H39.9 M39.9,14.9h-20c-2.8,0-5,2.2-5,5v19.9c0,2.7,2.2,5,5,5h19.9
							c2.8,0,5-2.3,5-5V19.9C44.9,17.1,42.6,14.9,39.9,14.9L39.9,14.9z"/>
					</g>
				</g>
			</g>
		</g>
	</g>
</g>
<path class="st1" d="M146.4,85.2c-0.6,0-1.2,0.2-1.7,0.4l-4.6-4.4c2.3-2.8,3.7-6.4,3.7-10.4c0-9-7.3-16.3-16.3-16.3
	c-9,0-16.3,7.3-16.3,16.3c0,3.9,1.4,7.6,3.7,10.4l-4.6,4.4c-0.5-0.3-1.1-0.4-1.7-0.4c-2,0-3.6,1.6-3.6,3.6c0,2,1.6,3.6,3.6,3.6
	s3.6-1.6,3.6-3.6c0-0.5-0.1-1.1-0.3-1.5l4.6-4.4c2.6,2.4,6,3.9,9.8,4.2v5.3c-1.4,0.5-2.4,1.8-2.4,3.4c0,2,1.6,3.6,3.6,3.6
	c2,0,3.6-1.6,3.6-3.6c0-1.6-1-2.9-2.4-3.4v-5.3c3.8-0.3,7.2-1.8,9.8-4.2l4.6,4.4c-0.2,0.5-0.3,1-0.3,1.5c0,2,1.6,3.6,3.6,3.6
	c2,0,3.6-1.6,3.6-3.6C150,86.8,148.4,85.2,146.4,85.2z M137.9,78.7C137.9,78.7,137.9,78.7,137.9,78.7c-1-0.9-3-1.6-4-2.1
	c-0.6-0.3-1.3-0.5-1.7-0.7c-0.4-0.3-0.4-0.9-0.9-1.4c-0.2-0.2-0.8,0-0.8-0.3c-0.1-0.5,0.5-0.9,0.7-1.4c0.2-0.5,0.1-0.4,0.2-1.1
	c1-0.3,1.5-2.8,0.8-2.8c0.3-1.8,0.6-4.5-0.6-5.2c-0.3-0.1-0.6-0.1-0.8-0.2c-0.1-0.1-0.2-0.3-0.4-0.4c-0.6-0.5-2.2-0.8-3.1-0.8
	c-0.9,0-1.9,0.3-2.5,0.8l-1.2,0.6c-1.3,0.7-0.9,3.4-0.6,5.2c-0.7,0.1-0.2,2.5,0.9,2.8c0.1,0.6,0,0.5,0.2,1c0.2,0.5,0.7,0.8,0.7,1.4
	c0,0.3-0.6,0.1-0.8,0.3c-0.5,0.4-0.5,1.1-0.9,1.4c-0.4,0.3-1.1,0.5-1.7,0.7c-1,0.5-3.1,1.2-4,2.1c0,0,0,0,0,0
	c-1.7-2.2-2.7-4.9-2.7-7.9c0-7.2,5.9-13.1,13.1-13.1c7.2,0,13.1,5.9,13.1,13.1C140.6,73.8,139.5,76.5,137.9,78.7z"/>
</svg>
