<?xml version="1.0" encoding="utf-8"?>
<!-- Generator: Adobe Illustrator 21.0.2, SVG Export Plug-In . SVG Version: 6.00 Build 0)  -->
<svg version="1.1" id="Layer_1" xmlns="http://www.w3.org/2000/svg" xmlns:xlink="http://www.w3.org/1999/xlink" x="0px" y="0px"
	 viewBox="0 0 150 150" style="enable-background:new 0 0 150 150;" xml:space="preserve">
<style type="text/css">
	.st0{fill:#703081;}
	.st1{fill:#D8427D;}
</style>
<g>
	<g>
		<g>
			<g>
				<g>
					<g>
						<path class="st0" d="M118.6,37.2H23c-4.4,0-8,3.6-8,8v55.8c0,4.4,3.6,8,8,8h57.8c1.1,0,2-0.9,2-2c0-1.1-0.9-2-2-2H23
							c-2.2,0-4-1.8-4-4V45.1c0-2.2,1.8-4,4-4h95.7c2.2,0,4,1.8,4,4v21.9c0,1.1,0.9,2,2,2c1.1,0,2-0.9,2-2V45.1
							C126.6,40.7,123,37.2,118.6,37.2z"/>
						<path class="st1" d="M40.9,85H29c-1.1,0-2-0.9-2-2l0,0c0-1.1,0.9-2,2-2h12c1.1,0,2,0.9,2,2l0,0C42.9,84.1,42,85,40.9,85z"/>
						<path class="st0" d="M72.8,97H29c-1.1,0-2-0.9-2-2l0,0c0-1.1,0.9-2,2-2h43.8c1.1,0,2,0.9,2,2l0,0C74.8,96.1,73.9,97,72.8,97z"
							/>
						<path class="st1" d="M64.8,85h-12c-1.1,0-2-0.9-2-2l0,0c0-1.1,0.9-2,2-2h12c1.1,0,2,0.9,2,2l0,0C66.8,84.1,65.9,85,64.8,85z"
							/>
						<path class="st1" d="M88.7,85h-12c-1.1,0-2-0.9-2-2l0,0c0-1.1,0.9-2,2-2h12c1.1,0,2,0.9,2,2l0,0C90.7,84.1,89.8,85,88.7,85z"
							/>
						<path class="st1" d="M46.9,53.1v15.9H30.9V53.1H46.9 M46.9,49.1H30.9c-2.2,0-4,1.8-4,4v15.9c0,2.2,1.8,4,4,4h15.9
							c2.2,0,4-1.8,4-4V53.1C50.9,50.9,49.1,49.1,46.9,49.1L46.9,49.1z"/>
					</g>
				</g>
			</g>
		</g>
	</g>
	<path class="st0" d="M135,81.9l-0.8,0.1c0,0-0.4,0.1-1,0.1c-2.3,0-8.4-0.8-15.3-8.2l-0.5-0.5l-0.5,0.5c-6.9,7.4-13,8.2-15.3,8.2
		c-0.7,0-1-0.1-1-0.1l-0.8-0.2v0.8c0,18.6,12.8,34.1,17.7,34.1S135,101.3,135,82.7L135,81.9z M117.3,115.4c-3.8,0-16-14.7-16.3-32
		c0.1,0,0.3,0,0.5,0c2.4,0,8.7-0.8,15.8-8.1c7.1,7.3,13.4,8.1,15.8,8.1c0.2,0,0.3,0,0.5,0C133.3,100.8,121.1,115.4,117.3,115.4z"/>
	<path class="st1" d="M101.9,84.3c0.2,4,0.9,7.3,2,10.9h0c2.5,8.5,10.1,19.1,13.3,19.1V95.3V76.7C109.5,84.9,101.9,84.3,101.9,84.3z
		"/>
</g>
</svg>
