<?xml version="1.0" encoding="utf-8"?>
<!-- Generator: Adobe Illustrator 21.0.2, SVG Export Plug-In . SVG Version: 6.00 Build 0)  -->
<svg version="1.1" xmlns="http://www.w3.org/2000/svg" xmlns:xlink="http://www.w3.org/1999/xlink" x="0px" y="0px"
	 viewBox="0 0 150 126.6" style="enable-background:new 0 0 150 126.6;" xml:space="preserve">
<style type="text/css">
	.st0{fill:#703081;}
	.st1{fill:#F2BA59;}
</style>
<g id="Layer_1">
	<g>
		<path class="st0" d="M138,0H11.8C5.4,0,0,5.2,0,11.8v103.1c0,6.4,5.2,11.8,11.8,11.8h126.4c6.4,0,11.8-5.2,11.8-11.8V11.6
			C149.8,5.2,144.6,0,138,0z M145.2,114.6c0,3.8-3.2,7-7,7H11.8c-3.8,0-7-3.2-7-7v-103c0-3.8,3.2-7,7-7h126.4c3.8,0,7,3.2,7,7V114.6
			z"/>
	</g>
</g>
<g id="Layer_1_copy">
	<g>
		<path class="st0" d="M138,0H11.8C5.4,0,0,5.2,0,11.8v103.1c0,6.4,5.2,11.8,11.8,11.8h126.4c6.4,0,11.8-5.2,11.8-11.8V11.6
			C149.8,5.2,144.6,0,138,0z M145.2,114.6c0,3.8-3.2,7-7,7H11.8c-3.8,0-7-3.2-7-7v-103c0-3.8,3.2-7,7-7h126.4c3.8,0,7,3.2,7,7V114.6
			z"/>
	</g>
	<g>
		<g transform="translate(0,-952.36218)">
			<path class="st0" d="M95.2,979.3c-0.9-3.8-3.8-6.9-7.7-6.9h-3.9c-1-3.9-4.4-6.8-8.6-6.8s-7.6,2.9-8.6,6.8h-3.9
				c-3.9,0-6.8,3-7.7,6.9c-7.6,0.4-13.9,6.2-13.9,13.6v59.1c0,7.6,6.7,13.6,14.8,13.6h38.6c8,0,14.8-6,14.8-13.6v-59.1
				C109.1,985.6,102.8,979.8,95.2,979.3z M62.5,977h5.7c1.3,0,2.3-1,2.3-2.3c0-2.5,2-4.5,4.5-4.5s4.5,2,4.5,4.5c0,1.3,1,2.3,2.3,2.3
				h5.7c1.7,0,3.4,1.8,3.4,4.5c0,2.8-1.7,4.5-3.4,4.5h-25c-1.7,0-3.4-1.8-3.4-4.5C59.1,978.8,60.8,977,62.5,977z M104.5,1052
				c0,5-4.4,9.1-10.2,9.1H55.7c-5.8,0-10.2-4.1-10.2-9.1v-59.1c0-4.6,3.9-8.5,9.2-9c0.1,0,0.1,0,0.2,0c0.9,3.8,3.8,6.7,7.7,6.7h25
				c3.8,0,6.8-3,7.7-6.7c5.4,0.4,9.4,4.3,9.4,9V1052z"/>
		</g>
		<g transform="translate(0,-952.36218)">
			<path class="st1" d="M62.2,992.4c-1-0.4-2-0.8-2.9-1.3C60.1,991.7,61.1,992.2,62.2,992.4z"/>
			<path class="st1" d="M75,1041.1c8.7,0,15.8-7.1,15.8-15.8c0-8.7-7.1-15.8-15.8-15.8s-15.8,7.1-15.8,15.8
				C59.2,1034,66.3,1041.1,75,1041.1z M75,1013.6c6.4,0,11.6,5.2,11.6,11.6c0,2.4-0.7,4.7-2,6.6l-16.2-16.2
				C70.3,1014.4,72.6,1013.6,75,1013.6z M65.4,1018.6l16.2,16.2c-1.9,1.3-4.1,2-6.6,2c-6.4,0-11.6-5.2-11.6-11.6
				C63.4,1022.8,64.1,1020.5,65.4,1018.6z"/>
		</g>
	</g>
</g>
</svg>
