<?xml version="1.0" encoding="utf-8"?>
<!-- Generator: Adobe Illustrator 21.0.2, SVG Export Plug-In . SVG Version: 6.00 Build 0)  -->
<svg version="1.1" id="Layer_1" xmlns="http://www.w3.org/2000/svg" xmlns:xlink="http://www.w3.org/1999/xlink" x="0px" y="0px"
	 viewBox="0 0 150 150" style="enable-background:new 0 0 150 150;" xml:space="preserve">
<style type="text/css">
	.st0{fill:#D8427D;}
</style>
<g>
	<g>
		<path class="st0" d="M75,37.5c-20.7,0-37.5,16.8-37.5,37.5s16.8,37.5,37.5,37.5s37.5-16.8,37.5-37.5S95.7,37.5,75,37.5z M75,106.6
			c-17.5,0-31.6-14.2-31.6-31.6S57.5,43.4,75,43.4s31.6,14.2,31.6,31.6S92.5,106.6,75,106.6z"/>
		<path class="st0" d="M61.7,61.7c-7.3,7.3-7.3,19.2,0,26.5c7.3,7.3,19.2,7.3,26.5,0c7.3-7.3,7.3-19.2,0-26.5
			C80.9,54.4,69.1,54.4,61.7,61.7z M65.1,65.1c4.9-4.9,12.6-5.4,18.1-1.5L63.6,83.1C59.7,77.6,60.1,70,65.1,65.1z M84.9,84.9
			c-4.9,4.9-12.6,5.4-18.1,1.5l19.6-19.6C90.3,72.4,89.9,80,84.9,84.9z"/>
	</g>
</g>
</svg>
