<?xml version="1.0" encoding="utf-8"?>
<!-- Generator: Adobe Illustrator 20.1.0, SVG Export Plug-In . SVG Version: 6.00 Build 0)  -->
<svg version="1.1" id="Layer_1" xmlns="http://www.w3.org/2000/svg" xmlns:xlink="http://www.w3.org/1999/xlink" x="0px" y="0px"
	 viewBox="0 0 50 50" enable-background="new 0 0 50 50" xml:space="preserve">
<g>
	<g>
		<path fill="#F4F4F5" d="M40.1,26.9c-0.1-0.1-0.2-0.1-0.3-0.1c-0.2,0-0.4,0.1-0.6,0.3l-1.7,1.7c-0.2,0.2-0.2,0.4-0.2,0.6v6.9
			c0,1.2-0.4,2.2-1.3,3.1c-0.8,0.8-1.9,1.3-3.1,1.3H10.3c-1.2,0-2.2-0.4-3.1-1.3C6.4,38.5,6,37.4,6,36.3V13.7c0-1.2,0.4-2.2,1.3-3.1
			c0.8-0.8,1.9-1.3,3.1-1.3h22.5c0.4,0,0.8,0.1,1.2,0.2c0.1,0,0.2,0.1,0.2,0.1c0.2,0,0.4-0.1,0.6-0.3L36.2,8
			c0.2-0.2,0.3-0.5,0.2-0.8C36.4,7,36.2,6.8,36,6.6c-1-0.5-2-0.7-3.2-0.7H10.3c-2.1,0-4,0.8-5.5,2.3c-1.5,1.5-2.3,3.4-2.3,5.5v22.5
			c0,2.1,0.8,4,2.3,5.5c1.5,1.5,3.4,2.3,5.5,2.3h22.5c2.1,0,4-0.8,5.5-2.3c1.5-1.5,2.3-3.4,2.3-5.5v-8.6
			C40.6,27.3,40.4,27,40.1,26.9z"/>
		<path fill="#F4F4F5" d="M46.9,11.3l-3-3c-0.4-0.4-0.9-0.6-1.5-0.6c-0.6,0-1.1,0.2-1.5,0.6L23.3,25.9l-7.1-7.1
			c-0.4-0.4-0.9-0.6-1.5-0.6c-0.6,0-1.1,0.2-1.5,0.6l-3,3c-0.4,0.4-0.6,0.9-0.6,1.5c0,0.6,0.2,1.1,0.6,1.5l11.6,11.6
			c0.4,0.4,0.9,0.6,1.5,0.6s1.1-0.2,1.5-0.6l22-22c0.4-0.4,0.6-0.9,0.6-1.5S47.3,11.8,46.9,11.3z"/>
	</g>
</g>
</svg>
