<svg id="Layer_1" xmlns="http://www.w3.org/2000/svg" viewBox="0 0 50 50"><g fill="#F4F4F5"><path d="M40.1 26.9c-.1-.1-.2-.1-.3-.1-.2 0-.4.1-.6.3l-1.7 1.7c-.2.2-.2.4-.2.6v6.9c0 1.2-.4 2.2-1.3 3.1-.8.8-1.9 1.3-3.1 1.3H10.3c-1.2 0-2.2-.4-3.1-1.3-.8-.9-1.2-2-1.2-3.1V13.7c0-1.2.4-2.2 1.3-3.1.8-.8 1.9-1.3 3.1-1.3h22.5c.4 0 .8.1 1.2.2.1 0 .2.1.2.1.2 0 .4-.1.6-.3L36.2 8c.2-.2.3-.5.2-.8 0-.2-.2-.4-.4-.6-1-.5-2-.7-3.2-.7H10.3c-2.1 0-4 .8-5.5 2.3-1.5 1.5-2.3 3.4-2.3 5.5v22.5c0 2.1.8 4 2.3 5.5 1.5 1.5 3.4 2.3 5.5 2.3h22.5c2.1 0 4-.8 5.5-2.3 1.5-1.5 2.3-3.4 2.3-5.5v-8.6c0-.3-.2-.6-.5-.7z"/><path d="M46.9 11.3l-3-3c-.4-.4-.9-.6-1.5-.6s-1.1.2-1.5.6L23.3 25.9l-7.1-7.1c-.4-.4-.9-.6-1.5-.6s-1.1.2-1.5.6l-3 3c-.4.4-.6.9-.6 1.5s.2 1.1.6 1.5l11.6 11.6c.4.4.9.6 1.5.6s1.1-.2 1.5-.6l22-22c.4-.4.6-.9.6-1.5s-.1-1.1-.5-1.6z"/></g></svg>