<svg id="Layer_1" xmlns="http://www.w3.org/2000/svg" viewBox="0 0 50 50"><g fill="#703975"><path d="M40.6 27.9c-.1-.1-.2-.1-.3-.1-.2 0-.5.1-.6.3l-1.8 1.8c-.2.2-.3.4-.3.6v7.1c0 1.2-.4 2.3-1.3 3.2-.9.9-1.9 1.3-3.2 1.3H9.8c-1.2 0-2.3-.4-3.2-1.3-.9-.9-1.3-1.9-1.3-3.2V14.4c0-1.2.4-2.3 1.3-3.2.9-.9 1.9-1.3 3.2-1.3h23.3c.4 0 .8.1 1.3.2.1 0 .2.1.3.1.2 0 .5-.1.6-.3l1.4-1.4c.2-.2.3-.5.3-.8-.1-.3-.2-.5-.5-.6-1-.5-2.1-.7-3.3-.7H9.8c-2.2 0-4.1.8-5.7 2.4-1.6 1.6-2.4 3.5-2.4 5.7v23.3c0 2.2.8 4.1 2.4 5.7 1.6 1.6 3.5 2.4 5.7 2.4h23.3c2.2 0 4.1-.8 5.7-2.4 1.6-1.6 2.4-3.5 2.4-5.7v-8.9c-.1-.6-.3-.8-.6-1z"/><path d="M47.6 11.9l-3.1-3.1c-.4-.4-1-.7-1.6-.7-.6 0-1.1.2-1.6.7L23.2 26.9l-7.4-7.4c-.4-.4-1-.7-1.6-.7-.6 0-1.1.2-1.6.7l-3.1 3.1c-.4.4-.7 1-.7 1.6 0 .6.2 1.1.7 1.6l12 12c.4.4 1 .7 1.6.7.6 0 1.1-.2 1.6-.7L47.5 15c.4-.4.7-1 .7-1.6s-.2-1.1-.6-1.5z"/></g></svg>