<?xml version="1.0" encoding="utf-8"?>
<!-- Generator: Adobe Illustrator 20.1.0, SVG Export Plug-In . SVG Version: 6.00 Build 0)  -->
<svg version="1.1" id="Layer_1" xmlns="http://www.w3.org/2000/svg" xmlns:xlink="http://www.w3.org/1999/xlink" x="0px" y="0px"
	 viewBox="0 0 50 50" enable-background="new 0 0 50 50" xml:space="preserve">
<g>
	<g>
		<path fill="#703975" d="M40.6,27.9c-0.1-0.1-0.2-0.1-0.3-0.1c-0.2,0-0.5,0.1-0.6,0.3l-1.8,1.8c-0.2,0.2-0.3,0.4-0.3,0.6v7.1
			c0,1.2-0.4,2.3-1.3,3.2c-0.9,0.9-1.9,1.3-3.2,1.3H9.8c-1.2,0-2.3-0.4-3.2-1.3c-0.9-0.9-1.3-1.9-1.3-3.2V14.4
			c0-1.2,0.4-2.3,1.3-3.2c0.9-0.9,1.9-1.3,3.2-1.3h23.3c0.4,0,0.8,0.1,1.3,0.2c0.1,0,0.2,0.1,0.3,0.1c0.2,0,0.5-0.1,0.6-0.3l1.4-1.4
			c0.2-0.2,0.3-0.5,0.3-0.8c-0.1-0.3-0.2-0.5-0.5-0.6c-1-0.5-2.1-0.7-3.3-0.7H9.8c-2.2,0-4.1,0.8-5.7,2.4c-1.6,1.6-2.4,3.5-2.4,5.7
			v23.3c0,2.2,0.8,4.1,2.4,5.7c1.6,1.6,3.5,2.4,5.7,2.4h23.3c2.2,0,4.1-0.8,5.7-2.4c1.6-1.6,2.4-3.5,2.4-5.7v-8.9
			C41.1,28.3,40.9,28.1,40.6,27.9z"/>
		<path fill="#703975" d="M47.6,11.9l-3.1-3.1c-0.4-0.4-1-0.7-1.6-0.7c-0.6,0-1.1,0.2-1.6,0.7L23.2,26.9l-7.4-7.4
			c-0.4-0.4-1-0.7-1.6-0.7c-0.6,0-1.1,0.2-1.6,0.7l-3.1,3.1c-0.4,0.4-0.7,1-0.7,1.6c0,0.6,0.2,1.1,0.7,1.6l12,12
			c0.4,0.4,1,0.7,1.6,0.7c0.6,0,1.1-0.2,1.6-0.7l22.8-22.8c0.4-0.4,0.7-1,0.7-1.6S48,12.3,47.6,11.9z"/>
	</g>
</g>
</svg>
