<?xml version="1.0" encoding="utf-8"?>
<!-- Generator: Adobe Illustrator 21.0.2, SVG Export Plug-In . SVG Version: 6.00 Build 0)  -->
<svg version="1.1" id="Layer_1" xmlns="http://www.w3.org/2000/svg" xmlns:xlink="http://www.w3.org/1999/xlink" x="0px" y="0px"
	 viewBox="0 0 110 83.6" style="enable-background:new 0 0 110 83.6;" xml:space="preserve">
<style type="text/css">
	.st0{fill:#D8427D;}
	.st1{fill:#703081;}
</style>
<g>
	<g>
		<g>
			<circle class="st0" cx="61.6" cy="74.9" r="1.7"/>
			<circle class="st0" cx="55" cy="74.9" r="1.7"/>
			<circle class="st0" cx="48.4" cy="74.9" r="1.7"/>
			<path class="st1" d="M108.1,66.2h-4.7v-51C103.4,3.1,93.5,0,88.2,0H21.9C16.6,0,6.7,3.2,6.7,15.2v51.1H2c-1.1,0-2,0.9-2,2
				c0,5.3,3.2,15.2,15.2,15.2h79.5c12.1,0,15.2-9.9,15.2-15.2C110.1,67.2,109.2,66.2,108.1,66.2z M10.6,15.2
				c0-10.9,10.1-11.3,11.3-11.3h66.3c1.2,0,11.3,0.4,11.3,11.3v51.1H10.6V15.2z M94.9,79.5H15.2c-8.3,0-10.5-6-11.1-9.3h4.5h92.8
				h4.4C105.3,73.5,103.2,79.5,94.9,79.5z"/>
		</g>
		<path class="st0" d="M80,31c-0.8-0.8-2-0.8-2.8,0l-3.6,3.6c-0.3-10-8.5-18.1-18.6-18.1c-10.2,0-18.5,8.3-18.5,18.5
			S44.9,53.7,55,53.7c4.2,0,8.3-1.5,11.7-4.1c0.8-0.6,0.9-2,0.3-2.8c-0.6-0.7-2-0.9-2.8-0.3c-2.5,2-5.9,3.2-9.2,3.2
			c-8.1,0-14.6-6.5-14.6-14.6S47,20.5,55,20.5c7.8,0,14.2,6.2,14.6,14l-3.5-3.5c-0.8-0.8-2-0.8-2.8,0c-0.7,0.8-0.8,2,0,2.8l6.8,6.8
			c0.4,0.4,0.9,0.6,1.5,0.6h0.1h0.1c0.6,0,1.1-0.1,1.5-0.6l6.8-6.8C80.7,33.1,80.7,31.8,80,31z"/>
	</g>
</g>
</svg>
