<?xml version="1.0" encoding="utf-8"?>
<!-- Generator: Adobe Illustrator 21.0.2, SVG Export Plug-In . SVG Version: 6.00 Build 0)  -->
<svg version="1.1" id="Layer_1" xmlns="http://www.w3.org/2000/svg" xmlns:xlink="http://www.w3.org/1999/xlink" x="0px" y="0px"
	 viewBox="0 0 110 83.6" style="enable-background:new 0 0 110 83.6;" xml:space="preserve">
<style type="text/css">
	.st0{fill:#D8427D;}
	.st1{fill:#703081;}
</style>
<g>
	<g>
		<g>
			<circle class="st0" cx="61.6" cy="74.9" r="1.7"/>
			<circle class="st0" cx="55" cy="74.9" r="1.7"/>
			<circle class="st0" cx="48.4" cy="74.9" r="1.7"/>
			<path class="st1" d="M108.1,66.2h-4.7v-51C103.4,3.1,93.5,0,88.2,0H21.9C16.6,0,6.7,3.2,6.7,15.2v51.1H2c-1.1,0-2,0.9-2,2
				c0,5.3,3.2,15.2,15.2,15.2h79.5c12.1,0,15.2-9.9,15.2-15.2C110.1,67.2,109.2,66.2,108.1,66.2z M10.6,15.2
				c0-10.9,10.1-11.3,11.3-11.3h66.3c1.2,0,11.3,0.4,11.3,11.3v51.1H10.6V15.2z M94.9,79.5H15.2c-8.3,0-10.5-6-11.1-9.3h4.5h92.8
				h4.4C105.3,73.5,103.2,79.5,94.9,79.5z"/>
		</g>
	</g>
</g>
<path class="st0" d="M60.8,48.4V25.2c0-0.9-0.7-1.5-1.5-1.5c-0.9,0-1.5,0.7-1.5,1.5v23.2c0,0.9,0.7,1.5,1.5,1.5
	C60,49.9,60.8,49.2,60.8,48.4z M52.3,48.4V25.2c0-0.9-0.7-1.5-1.5-1.5c-0.9,0-1.5,0.7-1.5,1.5v23.2c0,0.9,0.7,1.5,1.5,1.5
	C51.5,49.9,52.3,49.2,52.3,48.4z M69.3,23.6c-0.9,0-1.5,0.7-1.5,1.5v28c0,0.9-0.7,1.7-1.7,1.7H43.8c-0.9,0-1.7-0.7-1.7-1.7V25.2
	c0-0.9-0.7-1.5-1.5-1.5c-0.9,0-1.5,0.7-1.5,1.5v28c0,2.6,2.1,4.8,4.8,4.8h22.3c2.6,0,4.8-2.1,4.8-4.8v-28
	C70.8,24.3,70.1,23.6,69.3,23.6z M73.4,17.9h-8.7v-4.8c0-0.9-0.7-1.5-1.5-1.5H46.8c-0.9,0-1.5,0.7-1.5,1.5v4.8h-8.7
	c-0.9,0-1.5,0.7-1.5,1.5s0.7,1.5,1.5,1.5h36.9c0.9,0,1.5-0.7,1.5-1.5S74.3,17.9,73.4,17.9z M61.5,17.9H48.3v-3.2h13.4L61.5,17.9
	L61.5,17.9z"/>
</svg>
