<?xml version="1.0" encoding="utf-8"?>
<!-- Generator: Adobe Illustrator 21.0.2, SVG Export Plug-In . SVG Version: 6.00 Build 0)  -->
<svg version="1.1" id="Layer_1" xmlns="http://www.w3.org/2000/svg" xmlns:xlink="http://www.w3.org/1999/xlink" x="0px" y="0px"
	 viewBox="0 0 150 150" style="enable-background:new 0 0 150 150;" xml:space="preserve">
<style type="text/css">
	.st0{fill:#D8427D;}
	.st1{fill:#703081;}
</style>
<g>
	<g>
		<g>
			<circle class="st0" cx="82.2" cy="111.1" r="1.9"/>
			<circle class="st0" cx="75" cy="111.1" r="1.9"/>
			<circle class="st0" cx="67.8" cy="111.1" r="1.9"/>
			<path class="st1" d="M132.8,101.7h-5.1V46.1c0-13.2-10.8-16.6-16.6-16.6H38.9c-5.8,0-16.6,3.5-16.6,16.6v55.7h-5.1
				c-1.2,0-2.2,1-2.2,2.2c0,5.8,3.5,16.6,16.6,16.6h86.7c13.2,0,16.6-10.8,16.6-16.6C135,102.8,134,101.7,132.8,101.7z M26.6,46.1
				c0-11.9,11-12.3,12.3-12.3h72.3c1.3,0,12.3,0.4,12.3,12.3v55.7H26.6V46.1z M118.4,116.2H31.6c-9.1,0-11.4-6.5-12.1-10.1h4.9
				h101.2h4.8C129.8,109.6,127.5,116.2,118.4,116.2z"/>
		</g>
	</g>
	<g>
		<path class="st0" d="M95.2,66c-0.1-0.9-0.9-1.6-1.8-1.5c-0.9,0.1-1.5,0.9-1.5,1.7c0.8,9.3-6.1,17.5-15.4,18.3
			c-4.5,0.4-8.9-1-12.4-3.9c-7.2-6-8.1-16.7-2.1-23.9c4.4-5.3,11.6-7.3,18.2-5.2c0.9,0.3,1.8-0.1,2.1-1c0.3-0.9-0.1-1.8-1-2.1
			c0,0-0.1,0-0.1,0c-10.6-3.4-22,2.4-25.5,13C53.2,69.4,55.7,78,62,83.3c3.6,3.1,8.2,4.7,13,4.7c0.6,0,1.2,0,1.8-0.1
			C87.9,87,96.1,77.2,95.2,66z"/>
		<path class="st0" d="M81,59.4l-6,6l-6-6c-0.6-0.6-1.7-0.6-2.3,0s-0.6,1.7,0,2.3l6,6l-6,6c-0.6,0.6-0.6,1.7,0,2.3s1.7,0.6,2.3,0
			l0,0l6-6l6,6c0.6,0.6,1.7,0.6,2.3,0s0.6-1.7,0-2.3l0,0l-6-6l6-6c0.6-0.6,0.6-1.7,0-2.3C82.7,58.8,81.7,58.8,81,59.4L81,59.4z"/>
	</g>
</g>
</svg>
