<?xml version="1.0" encoding="utf-8"?>
<!-- Generator: Adobe Illustrator 21.0.2, SVG Export Plug-In . SVG Version: 6.00 Build 0)  -->
<svg version="1.1" id="Layer_1" xmlns="http://www.w3.org/2000/svg" xmlns:xlink="http://www.w3.org/1999/xlink" x="0px" y="0px"
	 viewBox="0 0 150 114" style="enable-background:new 0 0 150 114;" xml:space="preserve">
<style type="text/css">
	.st0{fill:#DF6B90;}
	.st1{fill:#703081;}
</style>
<g>
	<g>
		<g>
			<circle class="st0" cx="84.1" cy="102.1" r="2.4"/>
			<circle class="st0" cx="75.1" cy="102.1" r="2.4"/>
			<circle class="st0" cx="66.1" cy="102.1" r="2.4"/>
			<path class="st1" d="M147.4,90.3H141V20.8C141,4.3,127.5,0,120.2,0H29.9C22.6,0,9.1,4.4,9.1,20.8v69.7H2.8
				c-1.5,0-2.8,1.3-2.8,2.8c0,7.3,4.4,20.8,20.8,20.8h108.5c16.5,0,20.8-13.5,20.8-20.8C150.1,91.7,148.9,90.3,147.4,90.3z
				 M14.5,20.8c0-14.9,13.8-15.4,15.4-15.4h90.4c1.6,0,15.4,0.5,15.4,15.4v69.7H14.5V20.8z M129.4,108.5H20.8
				c-11.4,0-14.3-8.1-15.1-12.6h6.1h126.6h6C143.6,100.2,140.7,108.5,129.4,108.5z"/>
		</g>
		<path class="st0" d="M109.1,42.3c-1.1-1.1-2.8-1.1-3.8,0l-4.9,4.9c-0.4-13.6-11.6-24.6-25.4-24.6c-13.9,0-25.3,11.4-25.3,25.3
			s11.4,25.4,25.3,25.4c5.8,0,11.4-2,15.9-5.6c1.1-0.9,1.3-2.8,0.4-3.8c-0.9-1-2.8-1.3-3.8-0.4c-3.4,2.8-8,4.4-12.5,4.4
			c-11,0-19.9-8.9-19.9-19.9S64,28,75.1,28c10.6,0,19.4,8.5,19.9,19.1l-4.8-4.8c-1.1-1.1-2.8-1.1-3.8,0c-1,1.1-1.1,2.8,0,3.8
			l9.3,9.3c0.5,0.5,1.3,0.8,2,0.8h0.1H98c0.8,0,1.5-0.1,2-0.8l9.3-9.3C110.1,45.2,110.1,43.4,109.1,42.3z"/>
	</g>
</g>
</svg>
