<?xml version="1.0" encoding="utf-8"?>
<!-- Generator: Adobe Illustrator 21.0.2, SVG Export Plug-In . SVG Version: 6.00 Build 0)  -->
<svg version="1.1" id="Layer_1" xmlns="http://www.w3.org/2000/svg" xmlns:xlink="http://www.w3.org/1999/xlink" x="0px" y="0px"
	 viewBox="0 0 110 83.6" style="enable-background:new 0 0 110 83.6;" xml:space="preserve">
<style type="text/css">
	.st0{fill:#D8427D;}
	.st1{fill:#703081;}
</style>
<g>
	<g>
		<g>
			<circle class="st0" cx="61.6" cy="74.9" r="1.7"/>
			<circle class="st0" cx="55" cy="74.9" r="1.7"/>
			<circle class="st0" cx="48.4" cy="74.9" r="1.7"/>
			<path class="st1" d="M108.1,66.2h-4.7v-51C103.4,3.1,93.5,0,88.2,0H21.9C16.6,0,6.7,3.2,6.7,15.2v51.1H2c-1.1,0-2,0.9-2,2
				c0,5.3,3.2,15.2,15.2,15.2h79.5c12.1,0,15.2-9.9,15.2-15.2C110.1,67.2,109.2,66.2,108.1,66.2z M10.6,15.2
				c0-10.9,10.1-11.3,11.3-11.3h66.3c1.2,0,11.3,0.4,11.3,11.3v51.1H10.6V15.2z M94.9,79.5H15.2c-8.3,0-10.5-6-11.1-9.3h4.5h92.8
				h4.4C105.3,73.5,103.2,79.5,94.9,79.5z"/>
		</g>
	</g>
	<g>
		<path class="st0" d="M73.6,33.5c-0.1-0.8-0.8-1.5-1.7-1.4c-0.8,0.1-1.4,0.8-1.4,1.6c0.7,8.5-5.6,16.1-14.1,16.8
			c-4.1,0.4-8.2-0.9-11.4-3.6c-6.6-5.5-7.4-15.3-1.9-21.9c4-4.9,10.6-6.7,16.7-4.8c0.8,0.3,1.7-0.1,1.9-0.9c0.3-0.8-0.1-1.7-0.9-1.9
			h-0.1c-9.7-3.1-20.2,2.2-23.4,11.9c-2.3,7.3,0,15.2,5.8,20.1c3.3,2.8,7.5,4.3,11.9,4.3c0.6,0,1.1,0,1.7-0.1
			C66.9,52.7,74.4,43.8,73.6,33.5z"/>
		<path class="st0" d="M60.5,27.4L55,32.9l-5.5-5.5c-0.6-0.6-1.6-0.6-2.1,0c-0.6,0.6-0.6,1.6,0,2.1l5.5,5.5l-5.5,5.5
			c-0.6,0.6-0.6,1.6,0,2.1c0.6,0.6,1.6,0.6,2.1,0l0,0l5.5-5.5l5.5,5.5c0.6,0.6,1.6,0.6,2.1,0c0.6-0.6,0.6-1.6,0-2.1l0,0L57.2,35
			l5.5-5.5c0.6-0.6,0.6-1.6,0-2.1C62.1,26.9,61.2,26.9,60.5,27.4L60.5,27.4z"/>
	</g>
</g>
</svg>
