<?xml version="1.0" encoding="utf-8"?>
<!-- Generator: Adobe Illustrator 21.0.2, SVG Export Plug-In . SVG Version: 6.00 Build 0)  -->
<svg version="1.1" id="Layer_1" xmlns="http://www.w3.org/2000/svg" xmlns:xlink="http://www.w3.org/1999/xlink" x="0px" y="0px"
	 viewBox="0 0 150 114" style="enable-background:new 0 0 150 114;" xml:space="preserve">
<style type="text/css">
	.st0{fill:#DF6B90;}
	.st1{fill:#703081;}
</style>
<g>
	<g>
		<g>
			<circle class="st0" cx="84.1" cy="102.1" r="2.4"/>
			<circle class="st0" cx="75.1" cy="102.1" r="2.4"/>
			<circle class="st0" cx="66.1" cy="102.1" r="2.4"/>
			<path class="st1" d="M147.4,90.3H141V20.8C141,4.3,127.5,0,120.2,0H29.9C22.6,0,9.1,4.4,9.1,20.8v69.7H2.8
				c-1.5,0-2.8,1.3-2.8,2.8c0,7.3,4.4,20.8,20.8,20.8h108.5c16.5,0,20.8-13.5,20.8-20.8C150.1,91.7,148.9,90.3,147.4,90.3z
				 M14.5,20.8c0-14.9,13.8-15.4,15.4-15.4h90.4c1.6,0,15.4,0.5,15.4,15.4v69.7H14.5V20.8z M129.4,108.5H20.8
				c-11.4,0-14.3-8.1-15.1-12.6h6.1h126.6h6C143.6,100.2,140.7,108.5,129.4,108.5z"/>
		</g>
	</g>
</g>
<path class="st0" d="M87.5,17c-4.9,0.9-9.6,3.3-13.3,7.1c-0.1,0.1-0.2,0.2-0.3,0.3l-2.6-2.6l-1.6,9.8l9.8-1.6L76.5,27
	c0.1-0.1,0.2-0.2,0.3-0.3c3.8-3.8,8.5-5.9,13.4-6.4L87.5,17z M59.8,22l-4.3,0.7c-1.7,5-1.9,10.4-0.4,15.4l-3.6,1l7.7,6.3l3.5-9.3
	l-4,1.1C57.3,32.2,57.6,26.8,59.8,22z M93.8,30.6l-9.3,3.5l6.3,7.7l1.1-4c3.7,0.9,7.3,2.9,10.2,5.8c0.9,0.9,1.7,1.8,2.3,2.8l1.5-4.1
	c-0.4-0.5-0.8-0.9-1.2-1.4c-3.4-3.4-7.5-5.6-11.9-6.7L93.8,30.6z M45.6,47.6L44,51.6c0.4,0.5,0.8,0.9,1.2,1.3
	c3.4,3.4,7.5,5.7,11.9,6.8l-1,3.6l9.3-3.5l-6.3-7.7l-1.1,4c-3.7-0.9-7.3-2.9-10.2-5.8C47,49.5,46.3,48.5,45.6,47.6z M90.8,48.6
	l-3.5,9.3l4-1.1c1.4,5,1,10.4-1.1,15.2l4.3-0.7c1.7-5,1.9-10.4,0.4-15.4l3.6-1L90.8,48.6z M80.4,62.5l-9.8,1.6l2.9,2.9
	c-0.1,0.1-0.2,0.2-0.2,0.3c-3.8,3.8-8.5,5.9-13.5,6.4l2.7,3.4c4.9-0.9,9.6-3.3,13.3-7.1c0.1-0.1,0.2-0.2,0.3-0.3l2.6,2.6L80.4,62.5z
	"/>
</svg>
