<?xml version="1.0" encoding="utf-8"?>
<!-- Generator: Adobe Illustrator 21.0.2, SVG Export Plug-In . SVG Version: 6.00 Build 0)  -->
<svg version="1.1" id="Layer_1" xmlns="http://www.w3.org/2000/svg" xmlns:xlink="http://www.w3.org/1999/xlink" x="0px" y="0px"
	 viewBox="0 0 150 150" style="enable-background:new 0 0 150 150;" xml:space="preserve">
<style type="text/css">
	.st0{fill:#D8427D;}
	.st1{fill:#703081;}
</style>
<g>
	<g>
		<g>
			<circle class="st0" cx="82.2" cy="111.1" r="1.9"/>
			<circle class="st0" cx="75" cy="111.1" r="1.9"/>
			<circle class="st0" cx="67.8" cy="111.1" r="1.9"/>
			<path class="st1" d="M132.8,101.7h-5.1V46.1c0-13.2-10.8-16.6-16.6-16.6H38.9c-5.8,0-16.6,3.5-16.6,16.6v55.7h-5.1
				c-1.2,0-2.2,1-2.2,2.2c0,5.8,3.5,16.6,16.6,16.6h86.7c13.2,0,16.6-10.8,16.6-16.6C135,102.8,134,101.7,132.8,101.7z M26.6,46.1
				c0-11.9,11-12.3,12.3-12.3h72.3c1.3,0,12.3,0.4,12.3,12.3v55.7H26.6V46.1z M118.4,116.2H31.6c-9.1,0-11.4-6.5-12.1-10.1h4.9
				h101.2h4.8C129.8,109.6,127.5,116.2,118.4,116.2z"/>
		</g>
	</g>
</g>
<path class="st0" d="M80.8,81.2V58c0-0.9-0.7-1.5-1.5-1.5c-0.9,0-1.5,0.7-1.5,1.5v23.2c0,0.9,0.7,1.5,1.5,1.5
	C80.1,82.7,80.8,82,80.8,81.2z M72.3,81.2V58c0-0.9-0.7-1.5-1.5-1.5c-0.9,0-1.5,0.7-1.5,1.5v23.2c0,0.9,0.7,1.5,1.5,1.5
	C71.6,82.7,72.3,82,72.3,81.2z M89.4,56.4c-0.9,0-1.5,0.7-1.5,1.5v28c0,0.9-0.7,1.7-1.7,1.7H63.9c-0.9,0-1.7-0.7-1.7-1.7V58
	c0-0.9-0.7-1.5-1.5-1.5c-0.9,0-1.5,0.7-1.5,1.5v28c0,2.6,2.1,4.8,4.8,4.8h22.3c2.6,0,4.8-2.1,4.8-4.8V58
	C90.9,57.1,90.2,56.4,89.4,56.4z M93.5,50.7h-8.7v-4.8c0-0.9-0.7-1.5-1.5-1.5H66.8c-0.9,0-1.5,0.7-1.5,1.5v4.8h-8.7
	c-0.9,0-1.5,0.7-1.5,1.5s0.7,1.5,1.5,1.5h36.9c0.9,0,1.5-0.7,1.5-1.5S94.3,50.7,93.5,50.7z M81.7,50.7H68.3v-3.2h13.4L81.7,50.7
	L81.7,50.7z"/>
</svg>
