<?xml version="1.0" encoding="utf-8"?>
<!-- Generator: Adobe Illustrator 21.0.2, SVG Export Plug-In . SVG Version: 6.00 Build 0)  -->
<svg version="1.1" id="Layer_1" xmlns="http://www.w3.org/2000/svg" xmlns:xlink="http://www.w3.org/1999/xlink" x="0px" y="0px"
	 viewBox="0 0 150 150" style="enable-background:new 0 0 150 150;" xml:space="preserve">
<style type="text/css">
	.st0{fill:#D8427D;}
	.st1{fill:#703081;}
</style>
<g>
	<g>
		<g>
			<circle class="st0" cx="82.2" cy="111.1" r="1.9"/>
			<circle class="st0" cx="75" cy="111.1" r="1.9"/>
			<circle class="st0" cx="67.8" cy="111.1" r="1.9"/>
			<path class="st1" d="M132.8,101.7h-5.1V46.1c0-13.2-10.8-16.6-16.6-16.6H38.9c-5.8,0-16.6,3.5-16.6,16.6v55.7h-5.1
				c-1.2,0-2.2,1-2.2,2.2c0,5.8,3.5,16.6,16.6,16.6h86.7c13.2,0,16.6-10.8,16.6-16.6C135,102.8,134,101.7,132.8,101.7z M26.6,46.1
				c0-11.9,11-12.3,12.3-12.3h72.3c1.3,0,12.3,0.4,12.3,12.3v55.7H26.6V46.1z M118.4,116.2H31.6c-9.1,0-11.4-6.5-12.1-10.1h4.9
				h101.2h4.8C129.8,109.6,127.5,116.2,118.4,116.2z"/>
		</g>
		<path class="st0" d="M102.2,63.3c-0.9-0.9-2.2-0.9-3,0l-3.9,3.9C95,56.3,86,47.5,75,47.5c-11.1,0-20.2,9.1-20.2,20.2
			S63.9,88,75,88c4.6,0,9.1-1.6,12.7-4.5c0.9-0.7,1-2.2,0.3-3s-2.2-1-3-0.3c-2.7,2.2-6.4,3.5-10,3.5c-8.8,0-15.9-7.1-15.9-15.9
			S66.2,51.9,75,51.9c8.5,0,15.5,6.8,15.9,15.3l-3.8-3.8c-0.9-0.9-2.2-0.9-3,0s-0.9,2.2,0,3l7.4,7.4c0.4,0.4,1,0.6,1.6,0.6h0.1h0.1
			c0.6,0,1.2-0.1,1.6-0.6l7.4-7.4C103,65.6,103,64.2,102.2,63.3z"/>
	</g>
</g>
</svg>
