<?xml version="1.0" encoding="utf-8"?>
<!-- Generator: Adobe Illustrator 20.1.0, SVG Export Plug-In . SVG Version: 6.00 Build 0)  -->
<svg version="1.1" id="Layer_1" xmlns="http://www.w3.org/2000/svg" xmlns:xlink="http://www.w3.org/1999/xlink" x="0px" y="0px"
	 viewBox="0 0 50 50" enable-background="new 0 0 50 50" xml:space="preserve">
<path fill="#787878" d="M43.3,19.1c-0.3-0.3-0.8-0.3-1.1,0L21.3,40c-1.5,1.5-3.6,2.4-5.8,2.4c-2.2,0-4.3-0.8-5.8-2.4
	c-1.5-1.5-2.4-3.6-2.4-5.8c0-2.2,0.8-4.3,2.4-5.8L30.6,7.5c2.2-2.2,5.7-2.1,8.1,0.3c2.4,2.4,2.5,5.9,0.3,8.1L19.4,35.6
	c-1.1,1.1-2.9,1.1-4,0c-1.1-1.1-1.1-2.9,0-4l13.3-13.3c0.3-0.3,0.3-0.8,0-1.1c-0.3-0.3-0.8-0.3-1.1,0L14.3,30.5
	c-1.7,1.7-1.7,4.5,0,6.2c1.7,1.7,4.5,1.7,6.2,0L40.1,17c2.8-2.8,2.7-7.3-0.3-10.3c-3-3-7.4-3.2-10.3-0.3L8.6,27.3
	c-1.8,1.8-2.8,4.3-2.8,6.9c0,2.6,1,5,2.8,6.9c1.8,1.8,4.3,2.8,6.9,2.8c2.6,0,5-1,6.9-2.8l20.9-20.9C43.6,19.9,43.6,19.4,43.3,19.1z"
	/>
</svg>
