<svg id="Layer_1" xmlns="http://www.w3.org/2000/svg" viewBox="0 0 150 131"><style>.st0{display:none}.st1{display:inline}.st2,.st3,.st4{fill:#d8427d}.st3,.st4{display:inline}.st4{display:none}</style><g id="Layer_4"><g class="st0"><g class="st1"><path class="st2" d="M83.4 48.8H43.8c-1.3 0-2.3 1-2.3 2.3v7.8c0 1.3 1 2.3 2.3 2.3h39.5c1.3 0 2.3-1 2.3-2.3v-7.8c.1-1.2-1-2.3-2.2-2.3zm-37.7 5.5c-.8 0-1.4-.6-1.4-1.4 0-.8.6-1.4 1.4-1.4.8 0 1.4.6 1.4 1.4 0 .7-.6 1.4-1.4 1.4zm33.9 4h-10V55h10v3.3zM83.4 62.5H43.8c-1.3 0-2.3 1-2.3 2.3v7.8c0 1.3 1 2.3 2.3 2.3h39.5c1.3 0 2.3-1 2.3-2.3v-7.8c.1-1.3-1-2.3-2.2-2.3zm-37.7 5.4c-.8 0-1.4-.6-1.4-1.4s.6-1.4 1.4-1.4c.8 0 1.4.6 1.4 1.4 0 .8-.6 1.4-1.4 1.4zM79.6 72h-10v-3.3h10V72zM83.4 76.1H43.8c-1.3 0-2.3 1-2.3 2.3v7.8c0 1.3 1 2.3 2.3 2.3h39.5c1.3 0 2.3-1 2.3-2.3v-7.8c.1-1.3-1-2.3-2.2-2.3zm-37.7 5.4c-.8 0-1.4-.6-1.4-1.4s.6-1.4 1.4-1.4c.8 0 1.4.6 1.4 1.4 0 .8-.6 1.4-1.4 1.4zm33.9 4.1h-10v-3.3h10v3.3zM70.4 95.9h-4.2v-6.1H61v6.1h-4.2v1.6H42v5.3h14.8v1.6h13.6v-1.6h14.8v-5.3H70.4z"/><path class="st2" d="M86.9 36.3c-.6 0-1.1-.3-1.4-.8-3.2-4.3-8.2-6.9-13.7-6.9h-1c-.5 0-.9-.1-1.3-.4-3.3-2.5-7.3-3.8-11.5-3.8-7.5 0-14.1 4.3-17.2 10.9-.3.6-.9 1-1.5 1.1-8.2 1.2-14.6 8.3-14.6 16.8 0 8.2 5.8 15 13.5 16.6v-5c0-.6.1-1.2.3-1.8-4.1-1.4-7.1-5.2-7.1-9.8 0-5.7 4.6-10.3 10.3-10.3h.8c1.6.1 3.1-.9 3.5-2.5 1.4-5.5 6.3-9.4 12-9.4 3.2 0 6.3 1.3 8.6 3.5.8.8 1.9 1.1 3 .9.7-.1 1.4-.2 2.1-.2 4 0 7.5 2.2 9.3 5.8.6 1.3 1.9 2 3.3 1.9.3 0 .7-.1 1-.1 5.7 0 10.3 4.6 10.3 10.3 0 4.6-3 8.4-7.1 9.8.2.6.3 1.2.3 1.8v5c7.7-1.6 13.5-8.5 13.5-16.6.2-8.8-6.7-16.1-15.4-16.8z"/><g class="st0"><g class="st1"><path class="st2" d="M125.3 87.6c0 10.2-7.8 17.7-16.9 18.1-4.8.2-9.1-1.2-12.7-4.3-4-3.6-6.1-8.1-6.1-13.5 0-4.6 1.5-8.7 4.7-12.1 3.7-4 8.3-5.9 13.8-5.8 9.2.2 17 7.8 17.2 17.6zm-8.9-2.5v-.5c0-.1 0-.2.1-.2.3-1.4.4-2.8-.2-4.2-.6-1.3-1-2.6-1.6-3.8-.3-.6-.6-1.3-1.1-1.8-1.2-1.1-2.8-1.1-4.3-.9-.9.1-1.7.4-2.6.3-1.1-.1-2.3-.3-3.4-.4-1-.1-2 .7-2.3 1.6-.4 1.2-.7 2.3-1 3.5-.3 1.1-.1 1.8 1 2.4s2.3 1 3.5 1.4c.9.3 1.8.5 2.7.9.6.2 1 .6 1 1.3 0 .5.2.9.5 1.3l.3.6c0 .1-.1.1-.1.2-.5 0-1.1 0-1.6-.1-2.8-.8-5.4-1.9-7.8-3.5-.3-.2-.5-.5-.5-.8-.1-.5-.1-1 0-1.4s-.1-.5-.4-.5c-1 .1-1.9.1-2.9.2-1.1.1-1.9.6-2.5 1.5-.3.4-.4.9-.1 1.3.4.6.8 1.2 1.2 1.6 1 .9 2 1.9 3.1 2.7 1.3.9 2.6 1.8 4 2.5 1.1.6 2.3 1 3.4 1.4 1.5.6 3.1 1 4.7 1.2.7.1 1.5.2 2.2.2 1.1 0 2.2 0 3.2-.1 1.3-.1 2.5-.8 3.7-1.4 1.5-.8 2.6-1.9 3-3.6.2-1.1.2-2.1-.8-2.8-1.1-.7-2.2-1.4-3.5-1.8.2.7 0 1.4-.9 1.7zm-25.3 9.2c3 6.6 7.9 10.5 15.1 11 6.2.5 11.3-1.9 15.2-6.9h-1.2c-1 0-2.1-.1-3.1-.1-.1 0-.3.2-.2.3.1.4-.1.6-.4.8-1.1.5-2.2 1.2-3.1 2.1-.3.3-.7.5-1 .6-.2.1-.4 0-.6-.1 0-.2 0-.4.1-.6.8-1.1 1.6-2.1 2.4-3.2.1-.2.3-.3.3-.5.2-1 .5-2.1.7-3.1.1-.2 0-.4-.3-.4h-1.7c-.8 0-1.6-.3-2.4.1-.2.1-.4 0-.6 0-.4-.1-.9-.2-1.3-.2-1 0-2 .1-3 .1-.5 0-1.1-.2-1.5-.5-.7-.6-1.3-1.3-2-2-.2-.3-.5-.3-.8-.2-.5.2-.8 0-1.1-.4-.4-.5-.9-1-1.4-1.5-.3-.3-.7-.4-1.1-.2-.5.2-1 .5-1 1.1s.2 1.1.5 1.6c.4.5.8 1.1 1.4 1.5.1.1.2.4.1.6s-.3.3-.5.4c-.5.1-.9 0-1.3-.4s-.8-.8-1.3-1.2c-.2-.2-.4-.3-.7-.3h-4.1c-.7.1-.6.4-.1 1.6z"/><path class="st2" d="M102.3 76.5c.3.2.6.3.8.5.5.5 1.2.5 1.8.4.8-.2 1.5.1 2.2.3.1 0 .2.2.2.2 0 .1-.1.3-.2.3-.4.1-.7.2-1.1.3-.5.1-1.1.1-1.6.2-.2 0-.4.1-.5.2-.7.6-1.2 0-1.7-.3s-.6-.9-.5-1.5c.1-.2.4-.4.6-.6zM109.5 74.7c.6-.3 1.2-.3 1.8-.3.3 0 .5.1.8.2.4.2.6.4.6.9 0 .4-.3.6-.6.6-.5.1-1 .1-1.4.1-.1 0-.2-.1-.3-.2.3-.2.5-.4.8-.7-.4-.5-1.1-.4-1.7-.6zM110.2 97.8c-.5-.2-1-.3-1.4-.5h-.1c-.3 0-.6 0-.5-.4s.5-.6.9-.5c.2.1.5.2.7.3.4.2.7.3 1-.1.1-.1.5-.1.5-.1.1.2.2.5.2.7-.4.5-.8.6-1.3.6z"/></g></g><g class="st0"><path class="st3" d="M90.9 86.9H87v9.4l2.8-2.6c2.7 3.8 7.2 6.3 12.2 6.3 7.7 0 14-5.7 14.9-13.1h-3.8c-.9 5.3-5.5 9.4-11.1 9.4-3.9 0-7.4-2-9.4-5.1l4.6-4.3h-6.3zM102 70c-7.7 0-14 5.7-14.9 13.1h3.8c.9-5.3 5.5-9.4 11.1-9.4 4.1 0 7.6 2.2 9.6 5.4l-4 4h9.4v-9.4l-2.7 2.7c-2.7-3.9-7.2-6.4-12.3-6.4z"/></g></g><g class="st1"><path class="st2" d="M88.8 81c.2.5.4 1.1.7 1.6l-.8 1c-.3.3-.2.8.1 1.1l1.4 1.4c.3.3.8.3 1.1.1l1-.8c.5.3 1.1.5 1.6.7l.1 1.3c0 .4.4.7.8.7h1.9c.4 0 .8-.3.8-.7l.1-1.2c.6-.2 1.2-.4 1.7-.7l1 .8c.3.3.8.2 1.1-.1l1.4-1.4c.3-.3.3-.8.1-1.1l-.8-1c.3-.5.6-1.1.7-1.7l1.2-.1c.4 0 .7-.4.7-.8V78c0-.4-.3-.8-.7-.8l-1.1-.1c-.2-.6-.4-1.2-.7-1.7l.7-.9c.3-.3.2-.8-.1-1.1l-1.4-1.4c-.3-.3-.8-.3-1.1-.1l-.9.7c-.6-.3-1.2-.6-1.8-.7l-.1-1.1c0-.4-.4-.7-.8-.7h-1.9c-.4 0-.8.3-.8.7v1c-.6.2-1.3.4-1.8.8l-.9-.7c-.3-.3-.8-.2-1.1.1l-1.4 1.4c-.3.3-.3.8-.1 1.1l.7.9c-.3.5-.5 1.1-.7 1.7l-1.2.1c-.4 0-.7.4-.7.8v2c0 .4.3.8.7.8l1.3.2zm7.1-5.3c1.8 0 3.2 1.4 3.2 3.2 0 1.8-1.4 3.2-3.2 3.2-1.8 0-3.2-1.4-3.2-3.2 0-1.8 1.4-3.2 3.2-3.2z"/><path class="st2" d="M115.1 81.4l-1-.9c-.3-.3-.8-.3-1.1 0l-.6.5c-.5-.2-1-.4-1.5-.5l-.2-.8c-.1-.4-.5-.7-.9-.7l-1.3.1c-.4 0-.7.4-.7.8v.8c-.5.2-1 .4-1.4.8l-.7-.4c-.3-.2-.8-.2-1.1.2l-.9 1c-.3.3-.3.8 0 1.1l.6.6c-.2.5-.4.9-.4 1.4l-.8.2c-.4.1-.7.5-.7.9l.1 1.3c0 .4.4.7.8.7h.9l.6 1.2-.5.8c-.2.3-.2.8.2 1.1l1 .9c.3.3.8.3 1.1 0l.7-.6c.4.2.9.4 1.4.4l.2.9c.1.4.5.7.9.7l1.3-.1c.4 0 .7-.4.7-.8v-.9c.5-.2.9-.4 1.4-.7l.7.5c.3.2.8.2 1.1-.2l.9-1c.3-.3.3-.8 0-1.1l-.6-.6c.2-.5.4-.9.5-1.5l.8-.2c.4-.1.7-.5.7-.9l-.1-1.3c0-.4-.4-.7-.8-.7h-.8c-.2-.5-.4-.9-.7-1.3l.4-.7c.1-.2.1-.7-.2-1zm-5.1 7.8c-1.4.1-2.7-1-2.8-2.4-.1-1.4 1-2.7 2.4-2.8 1.4-.1 2.7 1 2.8 2.4.1 1.4-.9 2.6-2.4 2.8z"/><path class="st2" d="M93.5 92.7c-.4 0-.7.4-.7.8v.8c0 .4.3.8.7.8l.6.1c.1.4.2.7.4 1.1l-.4.5c-.3.3-.2.8 0 1.1l.6.6c.3.3.8.3 1.1.1l.5-.4c.3.2.7.4 1.1.5l.1.6c0 .4.4.7.8.7h.8c.4 0 .8-.3.8-.7l.1-.6c.4-.1.8-.3 1.2-.5l.5.4c.3.3.8.2 1.1 0l.6-.6c.3-.3.3-.8.1-1.1l-.3-.5c.2-.4.4-.7.5-1.1l.5-.1c.4 0 .7-.4.7-.8v-.8c0-.4-.3-.8-.7-.8l-.5-.1c-.1-.4-.3-.8-.4-1.1l.3-.4c.3-.3.2-.8 0-1.1l-.6-.6c-.3-.3-.8-.3-1.1-.1l-.4.3c-.4-.2-.8-.4-1.2-.5l-.1-.5c0-.4-.4-.7-.8-.7h-.8c-.4 0-.8.3-.8.7l-.1.5c-.4.1-.8.3-1.2.5l-.4-.3c-.3-.3-.8-.2-1.1 0l-.6.6c-.3.3-.3.8-.1 1.1l.3.4c-.2.4-.4.7-.5 1.1l-.6.1zm5.3-.9c1.2 0 2.1 1 2.1 2.2s-1 2.1-2.2 2.1-2.1-1-2.1-2.2c.1-1.1 1-2.1 2.2-2.1z"/></g></g><g class="st0"><g id="_x31_03_65_" class="st1"><path class="st2" d="M119.1 82.5l-2.4-2.4 3-3-1.2-1.2-3 3-2.4-2.4c-.1-.1-.1-.1-.2-.1l-.5-.5-1.2 1.2 3.1 3.1-3 3 1.2 1.2 3-3 3 3 1.2-1.2-.4-.4c-.1-.2-.2-.2-.2-.3z"/><path class="st2" d="M114.7 72.9h.5c0-.2 0-.3.1-.5-.2-3-2.3-5.2-5.4-5.4-1.8-.1-3.3.8-4.2 2.1-1-1.3-2.4-2-4.2-2.1-3-.2-5.2 2.6-5.4 5.4 0 .4 0 .7.1 1-.2 0-.4 0-.6-.1-3.3-.2-5.6 2.8-5.8 5.8-.2 3.1 2.4 5.4 5.3 5.7v.2h14.4c-1.2-1.3-1.9-3-1.9-4.9-.1-4 3.1-7.2 7.1-7.2z"/></g></g><path class="st0 st3" d="M92.7 74.7v-3.8c0-.5.4-.9.9-.9s.9.4.9.9v3.8c0 .5-.4.9-.9.9-.4 0-.9-.4-.9-.9zm16 .9c.5 0 .9-.4.9-.9v-3.8c0-.5-.4-.9-.9-.9s-.9.4-.9.9v3.8c-.1.5.4.9.9.9zM119 92.5c0 4.1-3.4 7.5-7.5 7.5s-7.5-3.4-7.5-7.5 3.4-7.5 7.5-7.5 7.5 3.4 7.5 7.5zm-1.9 0c0-3.1-2.5-5.6-5.6-5.6s-5.6 2.5-5.6 5.6 2.5 5.6 5.6 5.6 5.6-2.5 5.6-5.6zM96.5 81.3h-3.8V85h3.8v-3.7zm-3.8 9.3h3.8v-3.8h-3.8v3.8zm5.7-5.6h3.8v-3.7h-3.8V85zm0 5.6h3.8v-3.8h-3.8v3.8zm-7.5 1.7V79.4h20.6v3.8h1.9v-7.3c0-1.1-.9-2.1-2-2.1h-.8v.9c0 1-.8 1.9-1.9 1.9-1 0-1.9-.8-1.9-1.9v-.9H95.6v.9c0 1-.8 1.9-1.9 1.9-1 0-1.9-.8-1.9-1.9v-.9H91c-1.1 0-2 .9-2 2.1v16.5c0 1.1.9 2.1 2 2.1h11.1v-1.9H91c-.1-.1-.1-.2-.1-.3zm16.8-7.3v-3.7H104V85h3.7zm6.6 7.5h-2.8v-2.8c0-.5-.4-.9-.9-.9s-.9.4-.9.9v3.8c0 .5.4.9.9.9h3.8c.5 0 .9-.4.9-.9 0-.6-.5-1-1-1z"/><g class="st0"><path class="st3" d="M114.1 72H89.9c-.8 0-1.4.6-1.4 1.4v13.1h27V73.4c0-.8-.6-1.4-1.4-1.4zm-7.6 7.2c0 1-.8 1.8-1.8 1.8h-5.5c-1 0-1.8-.8-1.8-1.8v-.7c0-.3.2-.5.5-.5s.5.2.5.5v.7c0 .4.3.8.8.8h5.5c.4 0 .8-.3.8-.8v-.7c0-.3.2-.5.5-.5s.5.2.5.5v.7zM88.5 100.6c0 .8.6 1.4 1.4 1.4h24.2c.8 0 1.4-.6 1.4-1.4V87.5h-27v13.1zm9-7.6c0-.3.2-.5.5-.5s.5.2.5.5v.7c0 .4.3.8.8.8h5.5c.4 0 .8-.3.8-.8V93c0-.3.2-.5.5-.5s.5.2.5.5v.7c0 1-.8 1.8-1.8 1.8h-5.5c-1 0-1.8-.8-1.8-1.8V93z"/></g><path class="st4" d="M117.7 83.5H116v-3.6c0-.8-.6-1.4-1.4-1.4H113v-1.2l-7.8-7.3H93v5h-2.6c-.8 0-1.4.6-1.4 1.4V99c0 .2.1.4.2.5.2.3.6.5 1 .5h22.4c.6 0 1.1-.4 1.2-.9l5.1-14V85c.1-.9-.4-1.5-1.2-1.5zm-13.2-12.4c0-.1.1-.1 0 0l7.4 6.8v.1h-7.4v-6.9zM97 72.5h5c.3 0 .5.2.5.5s-.2.5-.5.5h-5c-.3 0-.5-.2-.5-.5s.2-.5.5-.5zm0 3.5h5c.3 0 .5.2.5.5s-.2.5-.5.5h-5c-.3 0-.5-.2-.5-.5s.2-.5.5-.5zm0 3.5h12c.3 0 .5.2.5.5s-.2.5-.5.5H97c-.3 0-.5-.2-.5-.5s.2-.5.5-.5zm-2.9 4.9L90 95.8V76.4c0-.2.2-.4.4-.4H93v9.5l.8-2.1c.1-.3.3-.4.6-.4H113v-3.5h1.6c.2 0 .4.2.4.4v3.6H95.4c-.6 0-1.1.4-1.3.9z"/><g class="st0"><path class="st3" d="M89.7 82v6c0 .5.2.9.4 1.3h29.7c.3-.4.4-.8.4-1.3v-6c0-.5-.2-.9-.4-1.3H90.2c-.3.4-.5.8-.5 1.3zm26.5 3.3c.3 0 .5.2.5.5s-.2.5-.5.5-.5-.2-.5-.5.2-.5.5-.5zm-1-1.6c.3 0 .5.2.5.5s-.2.5-.5.5-.5-.2-.5-.5.2-.5.5-.5zm-1 1.6c.3 0 .5.2.5.5s-.2.5-.5.5-.5-.2-.5-.5.2-.5.5-.5zm-1.1-1.6c.3 0 .5.2.5.5s-.2.5-.5.5-.5-.2-.5-.5.3-.5.5-.5zm-1 1.6c.3 0 .5.2.5.5s-.2.5-.5.5-.5-.2-.5-.5.2-.5.5-.5zm-1-1.6c.3 0 .5.2.5.5s-.2.5-.5.5-.5-.2-.5-.5.2-.5.5-.5zm-1 1.6c.3 0 .5.2.5.5s-.2.5-.5.5-.5-.2-.5-.5.2-.5.5-.5zm-1-1.6c.3 0 .5.2.5.5s-.2.5-.5.5-.5-.2-.5-.5.2-.5.5-.5zm-1 1.6c.3 0 .5.2.5.5s-.2.5-.5.5-.5-.2-.5-.5.2-.5.5-.5zm-1.1-1.6c.3 0 .5.2.5.5s-.2.5-.5.5-.5-.2-.5-.5.3-.5.5-.5zm-11.9-1c1.3 0 2.3 1 2.3 2.3s-1 2.3-2.3 2.3-2.3-1-2.3-2.3c0-1.3 1-2.3 2.3-2.3zM119.8 79.7c.3-.4.4-.8.4-1.3v-6c0-1.3-1.1-2.3-2.3-2.3H92.1c-1.3 0-2.3 1.1-2.3 2.3v6c0 .5.2.9.4 1.3h29.6zm-3.6-4.1c.3 0 .5.2.5.5s-.2.5-.5.5-.5-.2-.5-.5.2-.5.5-.5zm-1-1.5c.3 0 .5.2.5.5s-.2.5-.5.5-.5-.2-.5-.5.2-.5.5-.5zm-1 1.5c.3 0 .5.2.5.5s-.2.5-.5.5-.5-.2-.5-.5.2-.5.5-.5zm-1.1-1.5c.3 0 .5.2.5.5s-.2.5-.5.5-.5-.2-.5-.5.3-.5.5-.5zm-1 1.5c.3 0 .5.2.5.5s-.2.5-.5.5-.5-.2-.5-.5.2-.5.5-.5zm-1-1.5c.3 0 .5.2.5.5s-.2.5-.5.5-.5-.2-.5-.5.2-.5.5-.5zm-1 1.5c.3 0 .5.2.5.5s-.2.5-.5.5-.5-.2-.5-.5.2-.5.5-.5zm-1-1.5c.3 0 .5.2.5.5s-.2.5-.5.5-.5-.2-.5-.5.2-.5.5-.5zm-1 1.5c.3 0 .5.2.5.5s-.2.5-.5.5-.5-.2-.5-.5.2-.5.5-.5zm-1.1-1.5c.3 0 .5.2.5.5s-.2.5-.5.5-.5-.2-.5-.5.3-.5.5-.5zm-11.9-1c1.3 0 2.3 1 2.3 2.3s-1 2.3-2.3 2.3-2.3-1-2.3-2.3 1-2.3 2.3-2.3zM90.2 90.3c-.3.4-.4.8-.4 1.3v6c0 1.3 1.1 2.3 2.3 2.3h25.8c1.3 0 2.3-1.1 2.3-2.3v-6c0-.5-.2-.9-.4-1.3H90.2zm4.9 6.6c-1.3 0-2.3-1-2.3-2.3s1-2.3 2.3-2.3 2.3 1 2.3 2.3-1.1 2.3-2.3 2.3zm11.9-2.5c-.3 0-.5-.2-.5-.5s.2-.5.5-.5.5.2.5.5-.2.5-.5.5zm1.1 1.5c-.3 0-.5-.2-.5-.5s.2-.5.5-.5.5.2.5.5-.3.5-.5.5zm1-1.5c-.3 0-.5-.2-.5-.5s.2-.5.5-.5.5.2.5.5-.3.5-.5.5zm1 1.5c-.3 0-.5-.2-.5-.5s.2-.5.5-.5.5.2.5.5-.2.5-.5.5zm1-1.5c-.3 0-.5-.2-.5-.5s.2-.5.5-.5.5.2.5.5-.2.5-.5.5zm1 1.5c-.3 0-.5-.2-.5-.5s.2-.5.5-.5.5.2.5.5-.2.5-.5.5zm1-1.5c-.3 0-.5-.2-.5-.5s.2-.5.5-.5.5.2.5.5-.2.5-.5.5zm1.1 1.5c-.3 0-.5-.2-.5-.5s.2-.5.5-.5.5.2.5.5-.3.5-.5.5zm1-1.5c-.3 0-.5-.2-.5-.5s.2-.5.5-.5.5.2.5.5-.2.5-.5.5zm1 1.5c-.3 0-.5-.2-.5-.5s.2-.5.5-.5.5.2.5.5-.2.5-.5.5z"/></g><g class="st0"><g class="st1"><path class="st2" d="M105 75.8c-3.4 0-6.2 2.8-6.2 6.2s2.8 6.2 6.2 6.2 6.2-2.8 6.2-6.2-2.8-6.2-6.2-6.2zm-1.8 1.9c-.4.5-.8 1.2-1 2H101c.4-.9 1.2-1.6 2.2-2zm-2.7 5.6c-.1-.4-.2-.9-.2-1.3 0-.5.1-.9.2-1.3h1.4c-.1.4-.1.8-.1 1.3s0 .9.1 1.3h-1.4zm.4 1h1.2c.3.8.6 1.5 1 2-.9-.4-1.7-1.1-2.2-2zm3.6 2.2c-.5-.5-1-1.2-1.4-2.2h1.4v2.2zm0-3.2h-1.6c-.1-.4-.1-.8-.1-1.3s0-.9.1-1.3h1.6v2.6zm0-3.6h-1.4c.4-1 .9-1.7 1.4-2.2v2.2zm4.6 0h-1.2c-.3-.8-.6-1.5-1-2 .9.4 1.7 1.1 2.2 2zm-3.6-2.2c.5.5 1 1.2 1.4 2.2h-1.4v-2.2zm0 3.2h1.6c.1.4.1.8.1 1.3s0 .9-.1 1.3h-1.6v-2.6zm0 3.6h1.4c-.4 1-.9 1.7-1.4 2.2v-2.2zm1.3 2c.4-.5.8-1.2 1-2h1.2c-.4.9-1.2 1.6-2.2 2zm1.3-3c.1-.4.1-.8.1-1.3s0-.9-.1-1.3h1.4c.1.4.2.9.2 1.3 0 .5-.1.9-.2 1.3h-1.4zM95.1 83.1h2.3c0-.3-.1-.7-.1-1.1v-.8h-2.2c-.4-1-1.3-1.7-2.5-1.7-1.4 0-2.6 1.2-2.6 2.6s1.2 2.6 2.6 2.6c1.1.1 2.1-.6 2.5-1.6zM104.1 72.1v2.2c.3 0 .6-.1.9-.1s.6 0 .9.1V72c1-.4 1.7-1.3 1.7-2.5 0-1.4-1.2-2.6-2.6-2.6s-2.6 1.2-2.6 2.6c0 1.2.7 2.2 1.7 2.6zM96.2 75.9c.4 0 .8-.1 1.1-.2l1.6 1.6c.4-.5.8-.9 1.3-1.3l-1.6-1.6c.2-.3.2-.7.2-1.1 0-1.4-1.2-2.6-2.6-2.6s-2.6 1.2-2.6 2.6c0 1.4 1.2 2.6 2.6 2.6zM111.1 77.2l1.6-1.6c1 .4 2.1.3 2.9-.5 1-1 1-2.7 0-3.7s-2.7-1-3.7 0c-.8.8-1 2-.5 2.9l-1.3 1.3-.3.3c.5.4.9.8 1.3 1.3zM117.4 79.4c-1.2 0-2.2.8-2.5 1.9h-2.2v.8c0 .4 0 .7-.1 1.1h2.3c.4.9 1.3 1.6 2.4 1.6 1.4 0 2.6-1.2 2.6-2.6s-1.1-2.8-2.5-2.8zM113.8 88.1c-.4 0-.8.1-1.1.2l-1.6-1.6c-.4.5-.8.9-1.3 1.3l1.6 1.6c-.2.3-.2.7-.2 1.1 0 1.4 1.2 2.6 2.6 2.6s2.6-1.2 2.6-2.6c0-1.4-1.2-2.6-2.6-2.6zM98.9 86.8l-1.6 1.6c-.3-.2-.7-.2-1.1-.2-1.4 0-2.6 1.2-2.6 2.6s1.2 2.6 2.6 2.6 2.6-1.2 2.6-2.6c0-.4-.1-.8-.2-1.1l1.6-1.6c-.5-.4-.9-.8-1.3-1.3zM105.9 91.9v-2.2c-.3 0-.6.1-.9.1s-.6 0-.9-.1v2.2c-1 .4-1.7 1.3-1.7 2.5 0 1.4 1.2 2.6 2.6 2.6s2.6-1.2 2.6-2.6c0-1.1-.7-2.1-1.7-2.5z"/></g></g><g class="st0"><g id="data" class="st1"><path class="st2" d="M108.3 70c-6.3 0-13.1 1.9-13.1 6.1v17.8c0 4.2 6.8 6.1 13.1 6.1s13.1-1.9 13.1-6.1V76.1c0-4.2-6.8-6.1-13.1-6.1zm11.2 23.9c0 2.3-5 4.2-11.3 4.2-6.2 0-11.3-1.9-11.3-4.2v-3.5c1.9 2 6.6 3 11.3 3s9.3-1 11.3-3v3.5zm0-5.6c0 2.3-5 4.2-11.3 4.2S97 90.6 97 88.3v-3.5c1.9 2 6.6 3 11.3 3s9.3-1 11.3-3v3.5h-.1zm0-5.6c0 2.3-5 4.2-11.3 4.2S97 85 97 82.7v-3.2c2.5 1.9 7 2.8 11.3 2.8s8.8-.9 11.3-2.8v3.2h-.1zm-11.2-2.4c-6.2 0-11.3-1.9-11.3-4.2 0-2.3 5-4.2 11.3-4.2 6.2 0 11.3 1.9 11.3 4.2-.1 2.3-5.1 4.2-11.3 4.2z"/><circle class="st2" cx="116.7" cy="94.4" r=".9"/><circle class="st2" cx="116.7" cy="88.7" r=".9"/><circle class="st2" cx="116.7" cy="83.1" r=".9"/></g></g><g id="Settings" class="st0"><path class="st1 st2" d="M92.9 72.5c-.1-.7-.9-1.3-1.6-1.3-2.3 0-4.4-1.4-5.3-3.5-.9-2.2-.3-4.7 1.4-6.3.6-.5.6-1.3.2-1.9-1.2-1.5-2.6-2.9-4.1-4.1-.6-.5-1.4-.4-1.9.2-1.5 1.7-4.3 2.3-6.4 1.4-2.2-.9-3.6-3.2-3.5-5.6 0-.8-.5-1.4-1.3-1.5-1.9-.2-3.8-.2-5.8 0-.7.1-1.3.7-1.3 1.5.1 2.4-1.3 4.6-3.5 5.5-2.1.9-4.8.2-6.3-1.4-.5-.6-1.3-.6-1.9-.2-1.5 1.2-2.9 2.6-4.1 4.1-.5.6-.4 1.4.2 1.9 1.8 1.6 2.4 4.2 1.4 6.4-.9 2.1-3.1 3.5-5.6 3.5-.8 0-1.4.5-1.5 1.3-.2 1.9-.2 3.9 0 5.8.1.7.9 1.3 1.7 1.3 2.2-.1 4.4 1.3 5.3 3.5.9 2.2.3 4.7-1.4 6.3-.5.5-.6 1.3-.2 1.9 1.2 1.5 2.6 2.9 4.1 4.1.6.5 1.4.4 2-.2 1.5-1.7 4.3-2.3 6.4-1.4 2.2.9 3.6 3.2 3.5 5.6 0 .8.5 1.4 1.3 1.5 1 .1 2 .2 3 .2.9 0 1.9-.1 2.8-.2.7-.1 1.3-.7 1.3-1.5-.1-2.4 1.3-4.6 3.5-5.5 2.1-.9 4.8-.2 6.3 1.4.5.6 1.3.6 1.9.2 1.5-1.2 2.9-2.6 4.1-4.1.5-.6.4-1.4-.2-1.9-1.8-1.6-2.4-4.2-1.4-6.4.9-2.1 3-3.5 5.2-3.5h.3c.7.1 1.4-.5 1.5-1.3.1-1.9.1-3.8-.1-5.8zM67.5 84c-4.7 0-8.5-3.8-8.5-8.5s3.8-8.5 8.5-8.5 8.5 3.8 8.5 8.5c.1 4.6-3.8 8.5-8.5 8.5z"/></g><g><path class="st4" d="M91.2 37.6H29.7c-2 0-3.6 1.6-3.6 3.6v12.1c0 2 1.6 3.6 3.6 3.6h61.5c2 0 3.6-1.6 3.6-3.6V41.2c0-2-1.6-3.6-3.6-3.6zM32.5 46c-1.2 0-2.2-.9-2.2-2.2 0-1.2.9-2.2 2.2-2.2 1.2 0 2.2.9 2.2 2.2.2 1.3-.9 2.2-2.2 2.2zm52.9 6.4H69.9v-5.1h15.6l-.1 5.1zM91.2 58.8H29.7c-2 0-3.6 1.6-3.6 3.6v12.1c0 2 1.6 3.6 3.6 3.6h61.5c2 0 3.6-1.6 3.6-3.6V62.4c0-2.1-1.6-3.6-3.6-3.6zm-58.7 8.4c-1.2 0-2.2-.9-2.2-2.2 0-1.2.9-2.2 2.2-2.2 1.2 0 2.2.9 2.2 2.2.2 1.2-.9 2.2-2.2 2.2zm52.9 6.4H69.9v-5.1h15.6l-.1 5.1zM91.2 79.9H29.7c-2 0-3.6 1.6-3.6 3.6v12.1c0 2 1.6 3.6 3.6 3.6h61.5c2 0 3.6-1.6 3.6-3.6V83.5c0-2-1.6-3.6-3.6-3.6zm-58.7 8.4c-1.2 0-2.2-.9-2.2-2.2s.9-2.2 2.2-2.2c1.2 0 2.2.9 2.2 2.2.2 1.3-.9 2.2-2.2 2.2zm52.9 6.4H69.9v-5.1h15.6l-.1 5.1zM71.1 110.7h-6.5v-9.4h-8.1v9.4h-6.7v2.7H26.9v8.1h22.9v2.5h21.3v-2.5H94v-8.1H71.1z"/><path class="st2" d="M96.8 18c-.9 0-1.7-.5-2.2-1.2C89.6 10.1 81.8 6 73.3 6h-1.6c-.8 0-1.4-.2-2-.6C64.6 1.5 58.3-.5 51.8-.5c-11.7 0-21.9 6.7-26.8 17-.5.9-1.4 1.6-2.3 1.7C10 20 0 31.1 0 44.3c0 12.8 9 23.3 21 25.8v-7.8c0-.9.2-1.9.5-2.8-6.4-2.2-11-8.1-11-15.2 0-8.9 7.2-16 16-16h1.2c2.5.2 4.8-1.4 5.4-3.9 2.2-8.6 9.8-14.6 18.7-14.6 5 0 9.8 2 13.4 5.4 1.2 1.2 3 1.7 4.7 1.4 1.1-.2 2.2-.3 3.3-.3 6.2 0 11.7 3.4 14.5 9 .9 2 3 3.1 5.1 3 .5 0 1.1-.2 1.6-.2 8.9 0 16 7.2 16 16 0 7.2-4.7 13.1-11 15.2.3.9.5 1.9.5 2.8V70c12-2.5 21-13.2 21-25.8 0-13.7-10.6-25.1-24.1-26.2z"/><g><path class="st2" d="M64.3 95.3H57c-10.3-.3-18.5-1.7-24.4-3.7-2.8-.9-5.1-2-7-3.3V101.8c4 4.2 17.4 7.9 35 7.9s31-3.9 35-7.9V88.3c-1.9 1.2-4.2 2.3-7 3.3-6 2-14.2 3.4-24.3 3.7z"/><path class="st2" d="M25.5 69.8V83.3c3.7 3.9 15.4 7.5 31.3 7.9h7.6c15.7-.5 27.5-4 31.3-7.9V69.8c-6.8 4.7-21.2 7.2-35 7.2s-28.3-2.5-35.2-7.2z"/><path class="st2" d="M95.4 61c-1.6-6.1-13.7-12-34.9-12s-33.1 5.9-34.9 12c-.2.2-.2.5-.2.6v3.3c4 4.2 17.3 7.9 35 7.9s31.1-3.9 35-7.9v-3.3c.1-.2.1-.5 0-.6zM25.5 106.4v11.5c0 .2 0 .5.2.6 1.7 6.8 16.5 12 34.9 12s33.1-5.1 34.9-12c.2-.2.2-.5.2-.6v-11.5c-5.8 4-17.7 7.3-35 7.3-17.4 0-29.4-3.3-35.2-7.3z"/></g><g><path class="st2" d="M109.4 91.1H103.3v14.6l4.4-4c4.2 5.9 11.2 9.8 19 9.8 11.8 0 21.8-8.9 23.2-20.4H144c-1.4 8.2-8.6 14.6-17.3 14.6-6.1 0-11.5-3.1-14.6-7.9l7.2-6.7h-9.9zM126.7 64.8c-12 0-21.8 8.9-23.2 20.4h5.9c1.4-8.2 8.6-14.6 17.3-14.6 6.4 0 11.8 3.4 14.9 8.4l-6.2 6.2H150V70.6l-4.2 4.2c-4.2-6.1-11.2-10-19.1-10z"/></g></g></g></svg>