<?xml version="1.0" encoding="utf-8"?>
<!-- Generator: Adobe Illustrator 21.0.2, SVG Export Plug-In . SVG Version: 6.00 Build 0)  -->
<svg version="1.1" id="Layer_1" xmlns="http://www.w3.org/2000/svg" xmlns:xlink="http://www.w3.org/1999/xlink" x="0px" y="0px"
	 viewBox="0 0 138.1 150" style="enable-background:new 0 0 138.1 150;" xml:space="preserve">
<style type="text/css">
	.st0{display:none;fill:#D8427D;}
	.st1{fill:#D8427D;}
</style>
<g>
	<path class="st0" d="M104.4,43.6H34c-2.3,0-4.1,1.8-4.1,4.1v13.9c0,2.3,1.8,4.1,4.1,4.1h70.4c2.3,0,4.1-1.8,4.1-4.1V47.7
		C108.3,45.4,106.5,43.6,104.4,43.6z M37,53.3c-1.4,0-2.5-1.1-2.5-2.5s1.1-2.5,2.5-2.5s2.5,1.1,2.5,2.5C39.7,52.2,38.5,53.3,37,53.3
		z M97.6,60.6H79.8v-5.9h17.8V60.6L97.6,60.6z"/>
	<path class="st0" d="M104.4,67.9H34c-2.3,0-4.1,1.8-4.1,4.1v13.9c0,2.3,1.8,4.1,4.1,4.1h70.4c2.3,0,4.1-1.8,4.1-4.1V72
		C108.3,69.7,106.5,67.9,104.4,67.9z M37,77.5c-1.4,0-2.5-1.1-2.5-2.5s1.1-2.5,2.5-2.5s2.5,1.1,2.5,2.5C39.7,76.4,38.5,77.5,37,77.5
		z M97.6,84.8H79.8v-5.9h17.8V84.8L97.6,84.8z"/>
	<path class="st0" d="M104.4,92.1H34c-2.3,0-4.1,1.8-4.1,4.1v13.9c0,2.3,1.8,4.1,4.1,4.1h70.4c2.3,0,4.1-1.8,4.1-4.1V96.2
		C108.3,93.9,106.5,92.1,104.4,92.1z M37,101.7c-1.4,0-2.5-1.1-2.5-2.5s1.1-2.5,2.5-2.5s2.5,1.1,2.5,2.5
		C39.7,100.7,38.5,101.7,37,101.7z M97.6,109H79.8v-5.9h17.8V109L97.6,109z"/>
	<polygon class="st0" points="81.4,127.4 73.9,127.4 73.9,116.5 64.5,116.5 64.5,127.4 57,127.4 57,130.4 30.8,130.4 30.8,139.7 
		57,139.7 57,142.5 81.4,142.5 81.4,139.7 107.6,139.7 107.6,130.4 81.4,130.4 	"/>
	<path class="st1" d="M110.8,21.2c-1.1,0-2-0.5-2.5-1.4c-5.7-7.7-14.6-12.3-24.4-12.3c-0.5,0-1.2,0-1.8,0c-0.9,0-1.6-0.2-2.3-0.7
		C73.9,2.3,66.8,0,59.3,0C45.9,0,34.2,7.7,28.7,19.4c-0.5,1.1-1.6,1.8-2.7,2C11.4,23.5,0,36.2,0,51.3C0,65.9,10.3,78,24,80.9V72
		c0-1.1,0.2-2.1,0.5-3.2c-7.3-2.5-12.6-9.3-12.6-17.5c0-10.1,8.2-18.3,18.4-18.3c0.5,0,1.1,0,1.4,0c2.9,0.2,5.5-1.6,6.2-4.5
		c2.5-9.8,11.2-16.7,21.4-16.7c5.7,0,11.2,2.3,15.3,6.2c1.4,1.4,3.4,2,5.3,1.6c1.2-0.2,2.5-0.4,3.7-0.4c7.1,0,13.4,3.9,16.6,10.3
		c1.1,2.3,3.4,3.6,5.9,3.4c0.5,0,1.2-0.2,1.8-0.2c10.2,0,18.3,8.2,18.3,18.3c0,8.2-5.3,15-12.6,17.5c0.4,1.1,0.5,2.1,0.5,3.2v8.9
		c13.7-2.9,24-15.1,24-29.6C138.4,35.5,126.3,22.4,110.8,21.2z"/>
	<path class="st1" d="M73.4,109.7c-1.4,0-2.9,0-4.1,0c-1.4,0-2.9,0-4.3,0c-11.8-0.4-21.2-2-28-4.3c-3.2-1.1-5.9-2.3-8-3.7v11.4v0.9
		v0.9v2.1c4.6,4.8,20,9.1,40.1,9.1s35.5-4.5,40.1-9.1v-2.1V114v-0.9v-11.4c-2.1,1.4-4.8,2.7-8,3.7C94.4,107.8,85,109.4,73.4,109.7z"
		/>
	<path class="st1" d="M29,80.5v11.4v0.9v0.9v2.1c4.3,4.5,17.6,8.6,35.8,9.1c0.2,0,0.4,0,0.5,0c0.5,0,1.1,0,1.6,0c0.7,0,1.4,0,2.1,0
		s1.4,0,2.1,0c0.5,0,1.1,0,1.6,0c0.2,0,0.4,0,0.5,0c18-0.5,31.5-4.6,35.8-9.1v-2.1v-0.9v-0.9V80.5c-7.8,5.3-24.2,8.2-40.1,8.2
		S36.9,85.9,29,80.5z"/>
	<path class="st1" d="M109,70.4c-1.8-6.9-15.7-13.7-39.9-13.7s-37.9,6.8-39.9,13.7C29,70.6,29,70.9,29,71.1V72v2.9
		c4.6,4.8,19.8,9.1,40.1,9.1s35.6-4.5,40.1-9.1V72v-0.9C109.2,70.9,109.2,70.5,109,70.4z"/>
	<path class="st1" d="M29,122.4v13.2c0,0.2,0,0.5,0.2,0.7c2,7.8,18.9,13.7,39.9,13.7s37.9-5.9,39.9-13.7c0.2-0.2,0.2-0.5,0.2-0.7
		v-13.2c-6.6,4.6-20.3,8.4-40.1,8.4S35.6,127,29,122.4z"/>
</g>
</svg>
