<?xml version="1.0" encoding="utf-8"?>
<!-- Generator: Adobe Illustrator 21.0.2, SVG Export Plug-In . SVG Version: 6.00 Build 0)  -->
<svg version="1.1" id="Layer_1" xmlns="http://www.w3.org/2000/svg" xmlns:xlink="http://www.w3.org/1999/xlink" x="0px" y="0px"
	 viewBox="0 0 150 150" style="enable-background:new 0 0 150 150;" xml:space="preserve">
<style type="text/css">
	.st0{display:none;}
	.st1{display:inline;}
	.st2{fill:#D8427D;}
	.st3{display:inline;fill:#D8427D;}
	.st4{display:none;fill:#D8427D;}
</style>
<g id="Layer_1_1_" class="st0">
</g>
<g id="Layer_3" class="st0">
	<g class="st1">
		<g>
			<polygon class="st2" points="92.4,104.9 104.7,106.6 104.7,94.8 92.4,94.8 			"/>
			<polygon class="st2" points="92.4,93.3 104.7,93.3 104.7,81.4 92.4,83.1 			"/>
			<polygon class="st2" points="106.1,106.7 122.4,109 122.4,94.8 122.4,94.8 106.1,94.8 			"/>
			<polygon class="st2" points="106.1,81.3 106.1,93.3 122.4,93.3 122.4,79 			"/>
		</g>
	</g>
</g>
<g id="Layer_4">
	<g>
		<g>
			<g>
				<g>
					<g>
						<g>
							<g class="st0">
								<g class="st1">
									<g>
										<g>
											<g>
												<g>
													<path class="st2" d="M90,46.1H19.4c-2.3,0-4.1,1.8-4.1,4.1v13.9c0,2.3,1.8,4.1,4.1,4.1h70.4c2.3,0,4.1-1.8,4.1-4.1
														V50.2C94.1,48.1,92.1,46.1,90,46.1z M22.8,55.9c-1.4,0-2.5-1.1-2.5-2.5c0-1.4,1.1-2.5,2.5-2.5c1.4,0,2.5,1.1,2.5,2.5
														C25.3,54.7,24.2,55.9,22.8,55.9z M83.2,63.1H65.4v-5.9h17.8V63.1L83.2,63.1z"/>
													<path class="st2" d="M90,70.5H19.4c-2.3,0-4.1,1.8-4.1,4.1v13.9c0,2.3,1.8,4.1,4.1,4.1h70.4c2.3,0,4.1-1.8,4.1-4.1
														V74.6C94.1,72.3,92.1,70.5,90,70.5z M22.8,80.2c-1.4,0-2.5-1.1-2.5-2.5s1.1-2.5,2.5-2.5c1.4,0,2.5,1.1,2.5,2.5
														C25.3,79.1,24.2,80.2,22.8,80.2z M83.2,87.5H65.4v-5.9h17.8V87.5L83.2,87.5z"/>
													<path class="st2" d="M90,94.8H19.4c-2.3,0-4.1,1.8-4.1,4.1v13.9c0,2.3,1.8,4.1,4.1,4.1h70.4c2.3,0,4.1-1.8,4.1-4.1
														V98.9C94.1,96.6,92.1,94.8,90,94.8z M22.8,104.4c-1.4,0-2.5-1.1-2.5-2.5c0-1.4,1.1-2.5,2.5-2.5c1.4,0,2.5,1.1,2.5,2.5
														C25.3,103.3,24.2,104.4,22.8,104.4z M83.2,111.7H65.4v-5.9h17.8V111.7L83.2,111.7z"/>
													<polygon class="st2" points="66.8,130 59.3,130 59.3,119.2 50.1,119.2 50.1,130 42.6,130 42.6,132.9 16.2,132.9 
														16.2,142.3 42.6,142.3 42.6,145.2 66.8,145.2 66.8,142.3 93.2,142.3 93.2,132.9 66.8,132.9 													"/>
													<path class="st2" d="M96.2,23.9c-1.1,0-2-0.5-2.5-1.4C88,14.8,79.1,10.2,69.3,10.2c-0.5,0-1.2,0-1.8,0
														c-0.9,0-1.6-0.2-2.3-0.7c-5.9-4.5-13-6.8-20.5-6.8c-13.4,0-25.1,7.7-30.6,19.4c-0.5,1.1-1.6,1.8-2.7,2
														c-14.6,2.1-26,14.8-26,29.9c0,14.6,10.3,26.7,24,29.6v-8.9c0-1.1,0.2-2.1,0.5-3.2C2.7,68.9-2.7,62.2-2.7,54
														c0-10.2,8.2-18.3,18.3-18.3c0.5,0,1.1,0,1.4,0c2.9,0.2,5.5-1.6,6.2-4.5c2.5-9.8,11.2-16.7,21.4-16.7
														c5.7,0,11.2,2.3,15.3,6.2c1.4,1.4,3.4,2,5.3,1.6c1.2-0.2,2.5-0.4,3.7-0.4c7.1,0,13.4,3.9,16.6,10.3
														c1.1,2.3,3.4,3.6,5.9,3.4c0.5,0,1.2-0.2,1.8-0.2c10.2,0,18.3,8.2,18.3,18.3c0,8.2-5.3,15-12.6,17.5
														c0.4,1.1,0.5,2.1,0.5,3.2v8.9c13.7-2.9,24-15.1,24-29.6C124,38.1,111.7,25.1,96.2,23.9z"/>
												</g>
											</g>
											<g class="st0">
												<g class="st1">
													<g>
														<path class="st2" d="M164.6,115.3c0,18.2-13.9,31.5-30.1,32.2c-8.6,0.4-16.2-2.1-22.6-7.7c-7.1-6.4-10.9-14.4-10.9-24
															c0-8.2,2.7-15.5,8.4-21.6c6.6-7.1,14.8-10.5,24.6-10.3C150.4,84.3,164.3,97.8,164.6,115.3z M148.8,110.8
															c0-0.4,0-0.7,0-0.9s0-0.4,0.2-0.4c0.5-2.5,0.7-5-0.4-7.5c-1.1-2.3-1.8-4.6-2.9-6.8c-0.5-1.1-1.1-2.3-2-3.2
															c-2.1-2-5-2-7.7-1.6c-1.6,0.2-3,0.7-4.6,0.5c-2-0.2-4.1-0.5-6.1-0.7c-1.8-0.2-3.6,1.2-4.1,2.9
															c-0.7,2.1-1.2,4.1-1.8,6.2c-0.5,2-0.2,3.2,1.8,4.3s4.1,1.8,6.2,2.5c1.6,0.5,3.2,0.9,4.8,1.6c1.1,0.4,1.8,1.1,1.8,2.3
															c0,0.9,0.4,1.6,0.9,2.3c0.2,0.4,0.4,0.7,0.5,1.1c0,0.2-0.2,0.2-0.2,0.4c-0.9,0-2,0-2.9-0.2c-5-1.4-9.6-3.4-13.9-6.2
															c-0.5-0.4-0.9-0.9-0.9-1.4c-0.2-0.9-0.2-1.8,0-2.5c0.2-0.7-0.2-0.9-0.7-0.9c-1.8,0.2-3.4,0.2-5.2,0.4
															c-2,0.2-3.4,1.1-4.5,2.7c-0.5,0.7-0.7,1.6-0.2,2.3c0.7,1.1,1.4,2.1,2.1,2.9c1.8,1.6,3.6,3.4,5.5,4.8
															c2.3,1.6,4.6,3.2,7.1,4.5c2,1.1,4.1,1.8,6.1,2.5c2.7,1.1,5.5,1.8,8.4,2.1c1.2,0.2,2.7,0.4,3.9,0.4c2,0,3.9,0,5.7-0.2
															c2.3-0.2,4.5-1.4,6.6-2.5c2.7-1.4,4.6-3.4,5.3-6.4c0.4-2,0.4-3.7-1.4-5c-2-1.2-3.9-2.5-6.2-3.2
															C150.7,109,150.4,110.3,148.8,110.8z M103.7,127.2c5.3,11.8,14.1,18.7,26.9,19.6c11,0.9,20.1-3.4,27.1-12.3
															c-0.9,0-1.4,0-2.1,0c-1.8,0-3.7-0.2-5.5-0.2c-0.2,0-0.5,0.4-0.4,0.5c0.2,0.7-0.2,1.1-0.7,1.4c-2,0.9-3.9,2.1-5.5,3.7
															c-0.5,0.5-1.2,0.9-1.8,1.1c-0.4,0.2-0.7,0-1.1-0.2c0-0.4,0-0.7,0.2-1.1c1.4-2,2.9-3.7,4.3-5.7
															c0.2-0.4,0.5-0.5,0.5-0.9c0.4-1.8,0.9-3.7,1.2-5.5c0.2-0.4,0-0.7-0.5-0.7c-0.4,0-0.5,0-0.9,0c-0.7,0-1.4,0-2.1,0
															c-1.4,0-2.9-0.5-4.3,0.2c-0.4,0.2-0.7,0-1.1,0c-0.7-0.2-1.6-0.4-2.3-0.4c-1.8,0-3.6,0.2-5.3,0.2c-0.9,0-2-0.4-2.7-0.9
															c-1.2-1.1-2.3-2.3-3.6-3.6c-0.4-0.5-0.9-0.5-1.4-0.4c-0.9,0.4-1.4,0-2-0.7c-0.7-0.9-1.6-1.8-2.5-2.7
															c-0.5-0.5-1.2-0.7-2-0.4c-0.9,0.4-1.8,0.9-1.8,2s0.4,2,0.9,2.9c0.7,0.9,1.4,2,2.5,2.7c0.2,0.2,0.4,0.7,0.2,1.1
															c-0.2,0.4-0.5,0.5-0.9,0.7c-0.9,0.2-1.6,0-2.3-0.7c-0.7-0.7-1.4-1.4-2.3-2.1c-0.4-0.4-0.7-0.5-1.2-0.5
															c-1.2,0-2.7,0-3.9,0c-1.1,0-2.1,0-3.4,0C102.6,124.5,102.8,125.1,103.7,127.2z"/>
														<path class="st2" d="M123.6,95.5c0.5,0.4,1.1,0.5,1.4,0.9c0.9,0.9,2.1,0.9,3.2,0.7c1.4-0.4,2.7,0.2,3.9,0.5
															c0.2,0,0.4,0.4,0.4,0.4c0,0.2-0.2,0.5-0.4,0.5c-0.7,0.2-1.2,0.4-2,0.5c-0.9,0.2-2,0.2-2.9,0.4c-0.4,0-0.7,0.2-0.9,0.4
															c-1.2,1.1-2.1,0-3-0.5s-1.1-1.6-0.9-2.7C122.7,96.2,123.3,95.8,123.6,95.5z"/>
														<path class="st2" d="M136.5,92.3c1.1-0.5,2.1-0.5,3.2-0.5c0.5,0,0.9,0.2,1.4,0.4c0.7,0.4,1.1,0.7,1.1,1.6
															c0,0.7-0.5,1.1-1.1,1.1c-0.9,0.2-1.8,0.2-2.5,0.2c-0.2,0-0.4-0.2-0.5-0.4c0.5-0.4,0.9-0.7,1.4-1.2
															C138.8,92.5,137.5,92.6,136.5,92.3z"/>
														<path class="st2" d="M137.7,133.4c-0.9-0.4-1.8-0.5-2.5-0.9H135c-0.5,0-1.1,0-0.9-0.7c0.2-0.7,0.9-1.1,1.6-0.9
															c0.4,0.2,0.9,0.4,1.2,0.5c0.7,0.4,1.2,0.5,1.8-0.2c0.2-0.2,0.9-0.2,0.9-0.2c0.2,0.4,0.4,0.9,0.4,1.2
															C139.3,133.3,138.6,133.4,137.7,133.4z"/>
													</g>
												</g>
											</g>
										</g>
									</g>
									<g class="st0">
										<path class="st3" d="M103.3,114h-6.8h-0.2v16.7l5-4.6c4.8,6.8,12.8,11.2,21.7,11.2c13.7,0,24.9-10.2,26.5-23.3h-6.8
											c-1.6,9.4-9.8,16.7-19.8,16.7c-6.9,0-13.2-3.6-16.7-9.1l8.2-7.7C114.5,114,103.3,114,103.3,114z"/>
										<path class="st3" d="M123.1,83.9c-13.7,0-24.9,10.2-26.5,23.3h6.8c1.6-9.4,9.8-16.7,19.8-16.7c7.3,0,13.5,3.9,17.1,9.6
											l-7.1,7.1h6.8h3h6.8h0.2V90.5l-4.8,4.8C140.2,88.4,132.2,83.9,123.1,83.9z"/>
									</g>
								</g>
								<g class="st1">
									<path class="st2" d="M99.6,103.5c0.4,0.9,0.7,2,1.2,2.9l-1.4,1.8c-0.5,0.5-0.4,1.4,0.2,2l2.5,2.5c0.5,0.5,1.4,0.5,2,0.2
										l1.8-1.4c0.9,0.5,2,0.9,2.9,1.2l0.2,2.3c0,0.7,0.7,1.2,1.4,1.2h3.4c0.7,0,1.4-0.5,1.4-1.2l0.2-2.1c1.1-0.4,2.1-0.7,3-1.2
										l1.8,1.4c0.5,0.5,1.4,0.4,2-0.2l2.5-2.5c0.5-0.5,0.5-1.4,0.2-2l-1.4-1.8c0.5-0.9,1.1-2,1.2-3l2.1-0.2
										c0.7,0,1.2-0.7,1.2-1.4v-3.7c0-0.7-0.5-1.4-1.2-1.4l-2-0.2c-0.4-1.1-0.7-2.1-1.2-3l1.2-1.6c0.5-0.5,0.4-1.4-0.2-2l-2.5-2.5
										c-0.5-0.5-1.4-0.5-2-0.2l-1.6,1.2c-1.1-0.5-2.1-1.1-3.2-1.2l-0.2-2c0-0.7-0.7-1.2-1.4-1.2h-3.4c-0.7,0-1.4,0.5-1.4,1.2v1.8
										c-1.1,0.4-2.3,0.7-3.2,1.4l-1.6-1.2c-0.5-0.5-1.4-0.4-2,0.2L99.6,90c-0.5,0.5-0.5,1.4-0.2,2l1.2,1.6c-0.5,0.9-0.9,2-1.2,3
										l-2.1,0.2c-0.7,0-1.2,0.7-1.2,1.4v3.6c0,0.7,0.5,1.4,1.2,1.4L99.6,103.5z M112.2,94.1c3.2,0,5.7,2.5,5.7,5.7
										c0,3.2-2.5,5.7-5.7,5.7c-3.2,0-5.7-2.5-5.7-5.7C106.5,96.6,109,94.1,112.2,94.1z"/>
									<path class="st2" d="M146.4,104.2l-1.8-1.6c-0.5-0.5-1.4-0.5-2,0l-1.1,0.9c-0.9-0.4-1.8-0.7-2.7-0.9l-0.4-1.4
										c-0.2-0.7-0.9-1.2-1.6-1.2l-2.3,0.2c-0.7,0-1.2,0.7-1.2,1.4v1.4c-0.9,0.4-1.8,0.7-2.5,1.4l-1.2-0.7c-0.5-0.4-1.4-0.4-2,0.4
										l-1.6,1.8c-0.5,0.5-0.5,1.4,0,2l1.1,1.1c-0.4,0.9-0.7,1.6-0.7,2.5l-1.4,0.4c-0.7,0.2-1.2,0.9-1.2,1.6l0.2,2.3
										c0,0.7,0.7,1.2,1.4,1.2h1.6c0.4,0.7,0.7,1.4,1.1,2.1l-0.9,1.4c-0.4,0.5-0.4,1.4,0.4,2l1.8,1.6c0.5,0.5,1.4,0.5,2,0l1.2-1.1
										c0.7,0.4,1.6,0.7,2.5,0.7l0.4,1.6c0.2,0.7,0.9,1.2,1.6,1.2l2.3-0.2c0.7,0,1.2-0.7,1.2-1.4v-1.6c0.9-0.4,1.6-0.7,2.5-1.2
										l1.2,0.9c0.5,0.4,1.4,0.4,2-0.4l1.6-1.8c0.5-0.5,0.5-1.4,0-2l-1.1-1.1c0.4-0.9,0.7-1.6,0.9-2.7l1.4-0.4
										c0.7-0.2,1.2-0.9,1.2-1.6l-0.2-2.3c0-0.7-0.7-1.2-1.4-1.2h-1.4c-0.4-0.9-0.7-1.6-1.2-2.3l0.7-1.2
										C147,105.6,147,104.8,146.4,104.2z M137.4,118.1c-2.5,0.2-4.8-1.8-5-4.3s1.8-4.8,4.3-5c2.5-0.2,4.8,1.8,5,4.3
										C141.8,115.6,140,117.8,137.4,118.1z"/>
									<path class="st2" d="M108,124.3c-0.7,0-1.2,0.7-1.2,1.4v1.4c0,0.7,0.5,1.4,1.2,1.4l1.1,0.2c0.2,0.7,0.4,1.2,0.7,2l-0.7,0.9
										c-0.5,0.5-0.4,1.4,0,2l1.1,1.1c0.5,0.5,1.4,0.5,2,0.2l0.9-0.7c0.5,0.4,1.2,0.7,2,0.9l0.2,1.1c0,0.7,0.7,1.2,1.4,1.2h1.4
										c0.7,0,1.4-0.5,1.4-1.2l0.2-1.1c0.7-0.2,1.4-0.5,2.1-0.9l0.9,0.7c0.5,0.5,1.4,0.4,2,0l1.1-1.1c0.5-0.5,0.5-1.4,0.2-2
										l-0.5-0.9c0.4-0.7,0.7-1.2,0.9-2l0.9-0.2c0.7,0,1.2-0.7,1.2-1.4V126c0-0.7-0.5-1.4-1.2-1.4l-0.9-0.2
										c-0.2-0.7-0.5-1.4-0.7-2l0.5-0.7c0.5-0.5,0.4-1.4,0-2l-1.1-1.1c-0.5-0.5-1.4-0.5-2-0.2l-0.7,0.5c-0.7-0.4-1.4-0.7-2.1-0.9
										l-0.2-0.9c0-0.7-0.7-1.2-1.4-1.2H117c-0.7,0-1.4,0.5-1.4,1.2l-0.2,0.9c-0.7,0.2-1.4,0.5-2.1,0.9l-0.7-0.5
										c-0.5-0.5-1.4-0.4-2,0l-1.1,1.1c-0.5,0.5-0.5,1.4-0.2,2l0.5,0.7c-0.4,0.7-0.7,1.2-0.9,2L108,124.3z M117.4,122.7
										c2.1,0,3.7,1.8,3.7,3.9s-1.8,3.7-3.9,3.7s-3.7-1.8-3.7-3.9C113.7,124.5,115.3,122.7,117.4,122.7z"/>
								</g>
							</g>
							<g class="st0">
								<g id="_x31_03_65_" class="st1">
									<g>
										<path class="st2" d="M153.6,106.2c-1.4-1.4-2.9-2.9-4.3-4.3l5.3-5.3l-2.1-2.1l-5.3,5.3c-1.4-1.4-2.9-2.9-4.3-4.3
											c-0.2-0.2-0.2-0.2-0.4-0.2l-0.9-0.9l-2.1,2.1l5.5,5.5l-5.3,5.3l2.1,2.1l5.3-5.3l5.3,5.3l2.1-2.1l-0.7-0.7
											C153.7,106.4,153.6,106.4,153.6,106.2z"/>
										<path class="st2" d="M145.7,89.1c0.4,0,0.5,0,0.9,0c0-0.4,0-0.5,0.2-0.9c-0.4-5.3-4.1-9.3-9.6-9.6
											c-3.2-0.2-5.9,1.4-7.5,3.7c-1.8-2.3-4.3-3.6-7.5-3.7c-5.3-0.4-9.3,4.6-9.6,9.6c0,0.7,0,1.2,0.2,1.8c-0.4,0-0.7,0-1.1-0.2
											c-5.9-0.4-10,5-10.3,10.3c-0.4,5.5,4.3,9.6,9.4,10.2v0.4h25.7c-2.1-2.3-3.4-5.3-3.4-8.7C132.9,94.8,138.6,89.1,145.7,89.1
											z"/>
									</g>
								</g>
							</g>
						</g>
						<g class="st0">
							<path class="st3" d="M106.5,92.3v-6.8c0-0.9,0.7-1.6,1.6-1.6c0.9,0,1.6,0.7,1.6,1.6v6.8c0,0.9-0.7,1.6-1.6,1.6
								C107.4,93.9,106.5,93.2,106.5,92.3z M135,93.9c0.9,0,1.6-0.7,1.6-1.6v-6.8c0-0.9-0.7-1.6-1.6-1.6c-0.9,0-1.6,0.7-1.6,1.6v6.8
								C133.3,93.2,134.1,93.9,135,93.9z M153.4,124c0,7.3-6.1,13.4-13.4,13.4c-7.3,0-13.4-6.1-13.4-13.4s6.1-13.4,13.4-13.4
								C147.3,110.6,153.4,116.7,153.4,124z M150,124c0-5.5-4.5-10-10-10c-5.5,0-10,4.5-10,10c0,5.5,4.5,10,10,10
								C145.5,134,150,129.5,150,124z M113.3,104h-6.8v6.6h6.8V104z M106.5,120.6h6.8v-6.8h-6.8V120.6z M116.7,110.6h6.8V104h-6.8
								V110.6z M116.7,120.6h6.8v-6.8h-6.8V120.6z M103.3,123.6v-23H140v6.8h3.4v-13c0-2-1.6-3.7-3.6-3.7h-1.4v1.6
								c0,1.8-1.4,3.4-3.4,3.4c-1.8,0-3.4-1.4-3.4-3.4v-1.6h-20v1.6c0,1.8-1.4,3.4-3.4,3.4c-1.8,0-3.4-1.4-3.4-3.4v-1.6h-1.4
								c-2,0-3.6,1.6-3.6,3.7v29.4c0,2,1.6,3.7,3.6,3.7h19.8v-3.4h-19.8C103.3,124,103.3,123.8,103.3,123.6z M133.3,110.6V104h-6.6
								v6.6H133.3z M145,124h-5v-5c0-0.9-0.7-1.6-1.6-1.6s-1.6,0.7-1.6,1.6v6.8c0,0.9,0.7,1.6,1.6,1.6h6.8c0.9,0,1.6-0.7,1.6-1.6
								C146.8,124.7,145.9,124,145,124z"/>
						</g>
					</g>
					<g class="st0">
						<path class="st3" d="M144.7,87.5h-43.1c-1.4,0-2.5,1.1-2.5,2.5v23.3h48.1V90C147.1,88.5,146.1,87.5,144.7,87.5z M131.1,100.3
							c0,1.8-1.4,3.2-3.2,3.2h-9.8c-1.8,0-3.2-1.4-3.2-3.2V99c0-0.5,0.4-0.9,0.9-0.9s0.9,0.4,0.9,0.9v1.2c0,0.7,0.5,1.4,1.4,1.4h9.8
							c0.7,0,1.4-0.5,1.4-1.4V99c0-0.5,0.4-0.9,0.9-0.9c0.5,0,0.9,0.4,0.9,0.9V100.3z"/>
						<path class="st3" d="M99,138.4c0,1.4,1.1,2.5,2.5,2.5h43.1c1.4,0,2.5-1.1,2.5-2.5v-23.3H99C99,115.1,99,138.4,99,138.4z
							 M115.1,124.9c0-0.5,0.4-0.9,0.9-0.9s0.9,0.4,0.9,0.9v1.2c0,0.7,0.5,1.4,1.4,1.4h9.8c0.7,0,1.4-0.5,1.4-1.4v-1.2
							c0-0.5,0.4-0.9,0.9-0.9c0.5,0,0.9,0.4,0.9,0.9v1.2c0,1.8-1.4,3.2-3.2,3.2h-9.8c-1.8,0-3.2-1.4-3.2-3.2V124.9z"/>
					</g>
				</g>
				<path class="st4" d="M151.1,108h-3v-6.4c0-1.4-1.1-2.5-2.5-2.5h-2.9v-2.1l-13.9-13h-21.7v8.9h-4.6c-1.4,0-2.5,1.1-2.5,2.5v40.3
					l0,0c0,0.4,0.2,0.7,0.4,0.9c0.4,0.5,1.1,0.9,1.8,0.9H142c1.1,0,2-0.7,2.1-1.6l9.1-24.9v-0.2C153.4,109,152.5,108,151.1,108z
					 M127.6,85.9C127.6,85.7,127.7,85.7,127.6,85.9L140.7,98v0.2h-13.2V85.9z M114.2,88.4h8.9c0.5,0,0.9,0.4,0.9,0.9
					s-0.4,0.9-0.9,0.9h-8.9c-0.5,0-0.9-0.4-0.9-0.9S113.7,88.4,114.2,88.4z M114.2,94.6h8.9c0.5,0,0.9,0.4,0.9,0.9s-0.4,0.9-0.9,0.9
					h-8.9c-0.5,0-0.9-0.4-0.9-0.9S113.7,94.6,114.2,94.6z M114.2,100.8h21.4c0.5,0,0.9,0.4,0.9,0.9s-0.4,0.9-0.9,0.9h-21.4
					c-0.5,0-0.9-0.4-0.9-0.9S113.7,100.8,114.2,100.8z M109,109.6l-7.3,20.3V95.3c0-0.4,0.4-0.7,0.7-0.7h4.6v16.9l1.4-3.7
					c0.2-0.5,0.5-0.7,1.1-0.7h31.4h1.8v-6.2h2.9c0.4,0,0.7,0.4,0.7,0.7v6.4h-4.5h-30.5C110.3,108,109.4,108.7,109,109.6z"/>
			</g>
			<g class="st0">
				<path class="st3" d="M101.2,105.3V116c0,0.9,0.4,1.6,0.7,2.3h52.9c0.5-0.7,0.7-1.4,0.7-2.3v-10.7c0-0.9-0.4-1.6-0.7-2.3h-52.7
					C101.5,103.7,101.2,104.4,101.2,105.3z M148.4,111.2c0.5,0,0.9,0.4,0.9,0.9c0,0.5-0.4,0.9-0.9,0.9s-0.9-0.4-0.9-0.9
					C147.5,111.5,147.9,111.2,148.4,111.2z M146.6,108.3c0.5,0,0.9,0.4,0.9,0.9s-0.4,0.9-0.9,0.9c-0.5,0-0.9-0.4-0.9-0.9
					S146.1,108.3,146.6,108.3z M144.8,111.2c0.5,0,0.9,0.4,0.9,0.9c0,0.5-0.4,0.9-0.9,0.9c-0.5,0-0.9-0.4-0.9-0.9
					C143.9,111.5,144.3,111.2,144.8,111.2z M142.9,108.3c0.5,0,0.9,0.4,0.9,0.9s-0.4,0.9-0.9,0.9c-0.5,0-0.9-0.4-0.9-0.9
					S142.5,108.3,142.9,108.3z M141.1,111.2c0.5,0,0.9,0.4,0.9,0.9c0,0.5-0.4,0.9-0.9,0.9c-0.5,0-0.9-0.4-0.9-0.9
					C140.2,111.5,140.6,111.2,141.1,111.2z M139.3,108.3c0.5,0,0.9,0.4,0.9,0.9s-0.4,0.9-0.9,0.9c-0.5,0-0.9-0.4-0.9-0.9
					S138.8,108.3,139.3,108.3z M137.5,111.2c0.5,0,0.9,0.4,0.9,0.9c0,0.5-0.4,0.9-0.9,0.9c-0.5,0-0.9-0.4-0.9-0.9
					C136.6,111.5,137,111.2,137.5,111.2z M135.7,108.3c0.5,0,0.9,0.4,0.9,0.9s-0.4,0.9-0.9,0.9s-0.9-0.4-0.9-0.9
					S135.2,108.3,135.7,108.3z M134,111.2c0.5,0,0.9,0.4,0.9,0.9c0,0.5-0.4,0.9-0.9,0.9c-0.5,0-0.9-0.4-0.9-0.9
					C133.1,111.5,133.4,111.2,134,111.2z M132,108.3c0.5,0,0.9,0.4,0.9,0.9s-0.4,0.9-0.9,0.9c-0.5,0-0.9-0.4-0.9-0.9
					S131.7,108.3,132,108.3z M110.8,106.5c2.3,0,4.1,1.8,4.1,4.1s-1.8,4.1-4.1,4.1c-2.3,0-4.1-1.8-4.1-4.1
					C106.7,108.3,108.5,106.5,110.8,106.5z"/>
				<path class="st3" d="M154.8,101.2c0.5-0.7,0.7-1.4,0.7-2.3V88.2c0-2.3-2-4.1-4.1-4.1h-46c-2.3,0-4.1,2-4.1,4.1v10.7
					c0,0.9,0.4,1.6,0.7,2.3H154.8L154.8,101.2z M148.4,93.9c0.5,0,0.9,0.4,0.9,0.9s-0.4,0.9-0.9,0.9s-0.9-0.4-0.9-0.9
					S147.9,93.9,148.4,93.9z M146.6,91.2c0.5,0,0.9,0.4,0.9,0.9s-0.4,0.9-0.9,0.9c-0.5,0-0.9-0.4-0.9-0.9S146.1,91.2,146.6,91.2z
					 M144.8,93.9c0.5,0,0.9,0.4,0.9,0.9s-0.4,0.9-0.9,0.9c-0.5,0-0.9-0.4-0.9-0.9S144.3,93.9,144.8,93.9z M142.9,91.2
					c0.5,0,0.9,0.4,0.9,0.9s-0.4,0.9-0.9,0.9c-0.5,0-0.9-0.4-0.9-0.9S142.5,91.2,142.9,91.2z M141.1,93.9c0.5,0,0.9,0.4,0.9,0.9
					s-0.4,0.9-0.9,0.9c-0.5,0-0.9-0.4-0.9-0.9S140.6,93.9,141.1,93.9z M139.3,91.2c0.5,0,0.9,0.4,0.9,0.9s-0.4,0.9-0.9,0.9
					c-0.5,0-0.9-0.4-0.9-0.9S138.8,91.2,139.3,91.2z M137.5,93.9c0.5,0,0.9,0.4,0.9,0.9s-0.4,0.9-0.9,0.9c-0.5,0-0.9-0.4-0.9-0.9
					S137,93.9,137.5,93.9z M135.7,91.2c0.5,0,0.9,0.4,0.9,0.9s-0.4,0.9-0.9,0.9s-0.9-0.4-0.9-0.9S135.2,91.2,135.7,91.2z M134,93.9
					c0.5,0,0.9,0.4,0.9,0.9s-0.4,0.9-0.9,0.9c-0.5,0-0.9-0.4-0.9-0.9S133.4,93.9,134,93.9z M132,91.2c0.5,0,0.9,0.4,0.9,0.9
					S132.5,93,132,93c-0.5,0-0.9-0.4-0.9-0.9S131.7,91.2,132,91.2z M110.8,89.4c2.3,0,4.1,1.8,4.1,4.1s-1.8,4.1-4.1,4.1
					c-2.3,0-4.1-1.8-4.1-4.1S108.5,89.4,110.8,89.4z"/>
				<path class="st3" d="M102.1,120.1c-0.5,0.7-0.7,1.4-0.7,2.3v10.7c0,2.3,2,4.1,4.1,4.1h46c2.3,0,4.1-2,4.1-4.1v-10.7
					c0-0.9-0.4-1.6-0.7-2.3H102.1z M110.8,131.8c-2.3,0-4.1-1.8-4.1-4.1c0-2.3,1.8-4.1,4.1-4.1c2.3,0,4.1,1.8,4.1,4.1
					C114.9,130,112.9,131.8,110.8,131.8z M132,127.4c-0.5,0-0.9-0.4-0.9-0.9s0.4-0.9,0.9-0.9c0.5,0,0.9,0.4,0.9,0.9
					S132.5,127.4,132,127.4z M134,130c-0.5,0-0.9-0.4-0.9-0.9c0-0.5,0.4-0.9,0.9-0.9c0.5,0,0.9,0.4,0.9,0.9
					C134.9,129.7,134.3,130,134,130z M135.7,127.4c-0.5,0-0.9-0.4-0.9-0.9s0.4-0.9,0.9-0.9s0.9,0.4,0.9,0.9S136.1,127.4,135.7,127.4
					z M137.5,130c-0.5,0-0.9-0.4-0.9-0.9c0-0.5,0.4-0.9,0.9-0.9c0.5,0,0.9,0.4,0.9,0.9C138.4,129.7,138.1,130,137.5,130z
					 M139.3,127.4c-0.5,0-0.9-0.4-0.9-0.9s0.4-0.9,0.9-0.9c0.5,0,0.9,0.4,0.9,0.9S139.8,127.4,139.3,127.4z M141.1,130
					c-0.5,0-0.9-0.4-0.9-0.9c0-0.5,0.4-0.9,0.9-0.9c0.5,0,0.9,0.4,0.9,0.9C142,129.7,141.6,130,141.1,130z M142.9,127.4
					c-0.5,0-0.9-0.4-0.9-0.9s0.4-0.9,0.9-0.9c0.5,0,0.9,0.4,0.9,0.9S143.4,127.4,142.9,127.4z M144.8,130c-0.5,0-0.9-0.4-0.9-0.9
					c0-0.5,0.4-0.9,0.9-0.9c0.5,0,0.9,0.4,0.9,0.9C145.7,129.7,145.2,130,144.8,130z M146.6,127.4c-0.5,0-0.9-0.4-0.9-0.9
					s0.4-0.9,0.9-0.9c0.5,0,0.9,0.4,0.9,0.9S147.1,127.4,146.6,127.4z M148.4,130c-0.5,0-0.9-0.4-0.9-0.9c0-0.5,0.4-0.9,0.9-0.9
					s0.9,0.4,0.9,0.9C149.3,129.7,148.9,130,148.4,130z"/>
			</g>
		</g>
		<g class="st0">
			<g class="st1">
				<path class="st2" d="M128.4,94.2c-6.1,0-11,5-11,11c0,6.1,5,11,11,11c6.1,0,11-5,11-11C139.5,99.2,134.5,94.2,128.4,94.2z
					 M125.2,97.6c-0.7,0.9-1.4,2.1-1.8,3.6h-2.1C122,99.6,123.5,98.3,125.2,97.6z M120.4,107.6c-0.2-0.7-0.4-1.6-0.4-2.3
					c0-0.9,0.2-1.6,0.4-2.3h2.5c-0.2,0.7-0.2,1.4-0.2,2.3c0,0.9,0,1.6,0.2,2.3H120.4z M121.1,109.4h2.1c0.5,1.4,1.1,2.7,1.8,3.6
					C123.5,112.2,122,111,121.1,109.4z M127.6,113.3c-0.9-0.9-1.8-2.1-2.5-3.9h2.5V113.3z M127.6,107.6h-2.9
					c-0.2-0.7-0.2-1.4-0.2-2.3c0-0.9,0-1.6,0.2-2.3h2.9V107.6z M127.6,101.2h-2.5c0.7-1.8,1.6-3,2.5-3.9V101.2z M135.7,101.2h-2.1
					c-0.5-1.4-1.1-2.7-1.8-3.6C133.4,98.3,134.9,99.6,135.7,101.2z M129.3,97.3c0.9,0.9,1.8,2.1,2.5,3.9h-2.5V97.3z M129.3,103h2.9
					c0.2,0.7,0.2,1.4,0.2,2.3c0,0.9,0,1.6-0.2,2.3h-2.9V103z M129.3,109.4h2.5c-0.7,1.8-1.6,3-2.5,3.9V109.4z M131.7,112.9
					c0.7-0.9,1.4-2.1,1.8-3.6h2.1C134.9,111,133.4,112.2,131.7,112.9z M134,107.6c0.2-0.7,0.2-1.4,0.2-2.3c0-0.9,0-1.6-0.2-2.3h2.5
					c0.2,0.7,0.4,1.6,0.4,2.3c0,0.9-0.2,1.6-0.4,2.3H134z"/>
				<path class="st2" d="M110.8,107.2h4.1c0-0.5-0.2-1.2-0.2-2c0-0.5,0-0.9,0-1.4h-3.9c-0.7-1.8-2.3-3-4.5-3c-2.5,0-4.6,2.1-4.6,4.6
					s2.1,4.6,4.6,4.6C108.3,110.3,110.1,109,110.8,107.2z"/>
				<path class="st2" d="M126.8,87.6v3.9c0.5,0,1.1-0.2,1.6-0.2c0.5,0,1.1,0,1.6,0.2v-4.1c1.8-0.7,3-2.3,3-4.5
					c0-2.5-2.1-4.6-4.6-4.6c-2.5,0-4.6,2.1-4.6,4.6C123.8,85.2,125.1,86.9,126.8,87.6z"/>
				<path class="st2" d="M112.8,94.4c0.7,0,1.4-0.2,2-0.4l2.9,2.9c0.7-0.9,1.4-1.6,2.3-2.3l-2.9-2.9c0.4-0.5,0.4-1.2,0.4-2
					c0-2.5-2.1-4.6-4.6-4.6s-4.6,2.1-4.6,4.6C108.1,92.3,110.3,94.4,112.8,94.4z"/>
				<path class="st2" d="M139.3,96.7l2.9-2.9c1.8,0.7,3.7,0.5,5.2-0.9c1.8-1.8,1.8-4.8,0-6.6c-1.8-1.8-4.8-1.8-6.6,0
					c-1.4,1.4-1.8,3.6-0.9,5.2l-2.3,2.3l0,0l-0.5,0.5C137.9,95.1,138.6,95.8,139.3,96.7z"/>
				<path class="st2" d="M150.5,100.7c-2.1,0-3.9,1.4-4.5,3.4h-3.9c0,0.4,0,0.9,0,1.4c0,0.7,0,1.2-0.2,2h4.1
					c0.7,1.6,2.3,2.9,4.3,2.9c2.5,0,4.6-2.1,4.6-4.6S153,100.7,150.5,100.7z"/>
				<path class="st2" d="M144.1,116.2c-0.7,0-1.4,0.2-2,0.4l-2.9-2.9c-0.7,0.9-1.4,1.6-2.3,2.3l2.9,2.9c-0.4,0.5-0.4,1.2-0.4,2
					c0,2.5,2.1,4.6,4.6,4.6s4.6-2.1,4.6-4.6C148.8,118.3,146.6,116.2,144.1,116.2z"/>
				<path class="st2" d="M117.6,113.8l-2.9,2.9c-0.5-0.4-1.2-0.4-2-0.4c-2.5,0-4.6,2.1-4.6,4.6c0,2.5,2.1,4.6,4.6,4.6
					s4.6-2.1,4.6-4.6c0-0.7-0.2-1.4-0.4-2l2.9-2.9C119,115.4,118.3,114.7,117.6,113.8z"/>
				<path class="st2" d="M130,122.9v-3.2V119c-0.5,0-1.1,0.2-1.6,0.2c-0.5,0-1.1,0-1.6-0.2v0.7v3.2c-1.8,0.7-3,2.3-3,4.5
					c0,2.5,2.1,4.6,4.6,4.6c2.5,0,4.6-2.1,4.6-4.6C133.1,125.4,131.8,123.6,130,122.9z"/>
			</g>
		</g>
	</g>
	<g class="st0">
		<g id="data" class="st1">
			<path class="st2" d="M134.3,83.9c-11.2,0-23.3,3.4-23.3,10.9v31.7c0,7.5,12.1,10.9,23.3,10.9c11.2,0,23.3-3.4,23.3-10.9V94.8
				C157.7,87.3,145.5,83.9,134.3,83.9z M154.3,126.5c0,4.1-8.9,7.5-20.1,7.5c-11,0-20.1-3.4-20.1-7.5v-6.2
				c3.4,3.6,11.8,5.3,20.1,5.3c8.4,0,16.6-1.8,20.1-5.3V126.5z M154.3,116.5L154.3,116.5L154.3,116.5c0,4.1-8.9,7.5-20.1,7.5
				s-20-3.4-20-7.5l0,0l0,0v-6.2c3.4,3.6,11.8,5.3,20.1,5.3s16.6-1.8,20.1-5.3v6.2H154.3z M154.3,106.5L154.3,106.5L154.3,106.5
				c0,4.1-8.9,7.5-20.1,7.5s-20-3.4-20-7.5l0,0l0,0v-5.7c4.5,3.4,12.5,5,20.1,5s15.7-1.6,20.1-5v5.7H154.3z M134.3,102.3
				c-11,0-20.1-3.4-20.1-7.5c0-4.1,8.9-7.5,20.1-7.5c11,0,20.1,3.4,20.1,7.5C154.3,98.9,145.4,102.3,134.3,102.3z"/>
			<circle class="st2" cx="149.3" cy="127.4" r="1.6"/>
			<circle class="st2" cx="149.3" cy="117.2" r="1.6"/>
			<circle class="st2" cx="149.3" cy="107.2" r="1.6"/>
		</g>
	</g>
	<g id="Settings" class="st0">
		<g class="st1">
			<path class="st2" d="M106.9,88.4c-0.2-1.2-1.6-2.3-2.9-2.3c-4.1,0-7.8-2.5-9.4-6.2c-1.6-3.9-0.5-8.4,2.5-11.2
				c1.1-0.9,1.1-2.3,0.4-3.4c-2.1-2.7-4.6-5.2-7.3-7.3c-1.1-0.9-2.5-0.7-3.4,0.4c-2.7,3-7.7,4.1-11.4,2.5c-3.9-1.6-6.4-5.7-6.2-10
				c0-1.4-0.9-2.5-2.3-2.7c-3.4-0.4-6.8-0.4-10.3,0c-1.2,0.2-2.3,1.2-2.3,2.7c0.2,4.3-2.3,8.2-6.2,9.8c-3.7,1.6-8.6,0.4-11.2-2.5
				c-0.9-1.1-2.3-1.1-3.4-0.4c-2.7,2.1-5.2,4.6-7.3,7.3c-0.9,1.1-0.7,2.5,0.4,3.4c3.2,2.9,4.3,7.5,2.5,11.4c-1.6,3.7-5.5,6.2-10,6.2
				c-1.4,0-2.5,0.9-2.7,2.3c-0.4,3.4-0.4,6.9,0,10.3c0.2,1.2,1.6,2.3,3,2.3c3.9-0.2,7.8,2.3,9.4,6.2c1.6,3.9,0.5,8.4-2.5,11.2
				c-0.9,0.9-1.1,2.3-0.4,3.4c2.1,2.7,4.6,5.2,7.3,7.3c1.1,0.9,2.5,0.7,3.6-0.4c2.7-3,7.7-4.1,11.4-2.5c3.9,1.6,6.4,5.7,6.2,10
				c0,1.4,0.9,2.5,2.3,2.7c1.8,0.2,3.6,0.4,5.3,0.4c1.6,0,3.4-0.2,5-0.4c1.2-0.2,2.3-1.2,2.3-2.7c-0.2-4.3,2.3-8.2,6.2-9.8
				c3.7-1.6,8.6-0.4,11.2,2.5c0.9,1.1,2.3,1.1,3.4,0.4c2.7-2.1,5.2-4.6,7.3-7.3c0.9-1.1,0.7-2.5-0.4-3.4c-3.2-2.9-4.3-7.5-2.5-11.4
				c1.6-3.7,5.3-6.2,9.3-6.2h0.5c1.2,0.2,2.5-0.9,2.7-2.3C107.2,95.3,107.2,91.9,106.9,88.4z M61.6,108.8c-8.4,0-15.1-6.8-15.1-15.1
				s6.8-15.1,15.1-15.1s15.1,6.8,15.1,15.1C77,101.9,70,108.8,61.6,108.8z"/>
		</g>
	</g>
	<g>
		<path class="st4" d="M110.3,43.6H39.9c-2.3,0-4.1,1.8-4.1,4.1v13.9c0,2.3,1.8,4.1,4.1,4.1h70.4c2.3,0,4.1-1.8,4.1-4.1V47.7
			C114.2,45.4,112.4,43.6,110.3,43.6z M42.9,53.3c-1.4,0-2.5-1.1-2.5-2.5c0-1.4,1.1-2.5,2.5-2.5c1.4,0,2.5,1.1,2.5,2.5
			C45.6,52.2,44.4,53.3,42.9,53.3z M103.5,60.6H85.7v-5.9h17.8V60.6L103.5,60.6z"/>
		<path class="st4" d="M110.3,67.9H39.9c-2.3,0-4.1,1.8-4.1,4.1v13.9c0,2.3,1.8,4.1,4.1,4.1h70.4c2.3,0,4.1-1.8,4.1-4.1V72
			C114.2,69.7,112.4,67.9,110.3,67.9z M42.9,77.5c-1.4,0-2.5-1.1-2.5-2.5c0-1.4,1.1-2.5,2.5-2.5c1.4,0,2.5,1.1,2.5,2.5
			C45.6,76.4,44.4,77.5,42.9,77.5z M103.5,84.8H85.7v-5.9h17.8V84.8L103.5,84.8z"/>
		<path class="st4" d="M110.3,92.1H39.9c-2.3,0-4.1,1.8-4.1,4.1v13.9c0,2.3,1.8,4.1,4.1,4.1h70.4c2.3,0,4.1-1.8,4.1-4.1V96.2
			C114.2,93.9,112.4,92.1,110.3,92.1z M42.9,101.7c-1.4,0-2.5-1.1-2.5-2.5c0-1.4,1.1-2.5,2.5-2.5c1.4,0,2.5,1.1,2.5,2.5
			C45.6,100.7,44.4,101.7,42.9,101.7z M103.5,109H85.7v-5.9h17.8V109L103.5,109z"/>
		<polygon class="st4" points="87.3,127.4 79.8,127.4 79.8,116.5 70.4,116.5 70.4,127.4 62.9,127.4 62.9,130.4 36.7,130.4 
			36.7,139.7 62.9,139.7 62.9,142.5 87.3,142.5 87.3,139.7 113.5,139.7 113.5,130.4 87.3,130.4 		"/>
		<path class="st2" d="M116.7,21.2c-1.1,0-2-0.5-2.5-1.4c-5.7-7.7-14.6-12.3-24.4-12.3c-0.5,0-1.2,0-1.8,0c-0.9,0-1.6-0.2-2.3-0.7
			C79.8,2.3,72.7,0,65.2,0C51.8,0,40.1,7.7,34.6,19.4c-0.5,1.1-1.6,1.8-2.7,2c-14.6,2.1-26,14.8-26,29.9c0,14.6,10.3,26.7,24,29.6
			V72c0-1.1,0.2-2.1,0.5-3.2c-7.3-2.5-12.6-9.3-12.6-17.5C17.8,41.2,26,33,36.2,33c0.5,0,1.1,0,1.4,0c2.9,0.2,5.5-1.6,6.2-4.5
			c2.5-9.8,11.2-16.7,21.4-16.7c5.7,0,11.2,2.3,15.3,6.2c1.4,1.4,3.4,2,5.3,1.6c1.2-0.2,2.5-0.4,3.7-0.4c7.1,0,13.4,3.9,16.6,10.3
			c1.1,2.3,3.4,3.6,5.9,3.4c0.5,0,1.2-0.2,1.8-0.2c10.2,0,18.3,8.2,18.3,18.3c0,8.2-5.3,15-12.6,17.5c0.4,1.1,0.5,2.1,0.5,3.2v8.9
			c13.7-2.9,24-15.1,24-29.6C144.3,35.5,132.2,22.4,116.7,21.2z"/>
		<path class="st2" d="M79.3,109.7c-1.4,0-2.9,0-4.1,0c-1.4,0-2.9,0-4.3,0c-11.8-0.4-21.2-2-28-4.3c-3.2-1.1-5.9-2.3-8-3.7v11.4v0.9
			v0.9v2.1c4.6,4.8,20,9.1,40.1,9.1s35.5-4.5,40.1-9.1v-2.1V114v-0.9v-11.4c-2.1,1.4-4.8,2.7-8,3.7
			C100.3,107.8,90.9,109.4,79.3,109.7z"/>
		<path class="st2" d="M34.9,80.5v11.4v0.9v0.9v2.1c4.3,4.5,17.6,8.6,35.8,9.1c0.2,0,0.4,0,0.5,0c0.5,0,1.1,0,1.6,0
			c0.7,0,1.4,0,2.1,0s1.4,0,2.1,0c0.5,0,1.1,0,1.6,0c0.2,0,0.4,0,0.5,0c18-0.5,31.5-4.6,35.8-9.1v-2.1v-0.9v-0.9V80.5
			c-7.8,5.3-24.2,8.2-40.1,8.2S42.8,85.9,34.9,80.5z"/>
		<path class="st2" d="M114.9,70.4c-1.8-6.9-15.7-13.7-39.9-13.7s-37.9,6.8-39.9,13.7c-0.2,0.2-0.2,0.5-0.2,0.7V72v2.9
			c4.6,4.8,19.8,9.1,40.1,9.1s35.6-4.5,40.1-9.1V72v-0.9C115.1,70.9,115.1,70.5,114.9,70.4z"/>
		<path class="st2" d="M34.9,122.4v13.2c0,0.2,0,0.5,0.2,0.7C37.1,144.1,54,150,75,150s37.9-5.9,39.9-13.7c0.2-0.2,0.2-0.5,0.2-0.7
			v-13.2c-6.6,4.6-20.3,8.4-40.1,8.4C55.2,130.8,41.5,127,34.9,122.4z"/>
	</g>
</g>
</svg>
