<?xml version="1.0" encoding="utf-8"?>
<!-- Generator: Adobe Illustrator 21.0.2, SVG Export Plug-In . SVG Version: 6.00 Build 0)  -->
<svg version="1.1" id="Layer_1" xmlns="http://www.w3.org/2000/svg" xmlns:xlink="http://www.w3.org/1999/xlink" x="0px" y="0px"
	 viewBox="0 0 150 150" style="enable-background:new 0 0 150 150;" xml:space="preserve">
<style type="text/css">
	.st0{display:none;}
	.st1{display:inline;}
	.st2{fill:#D8427D;}
	.st3{display:inline;fill:#D8427D;}
	.st4{display:none;fill:#D8427D;}
</style>
<g id="Layer_1_1_" class="st0">
</g>
<g id="Layer_3" class="st0">
	<g class="st1">
		<g>
			<polygon class="st2" points="92.4,104.9 104.7,106.6 104.7,94.8 92.4,94.8 			"/>
			<polygon class="st2" points="92.4,93.3 104.7,93.3 104.7,81.4 92.4,83.1 			"/>
			<polygon class="st2" points="106.1,106.7 122.4,109 122.4,94.8 122.4,94.8 106.1,94.8 			"/>
			<polygon class="st2" points="106.1,81.3 106.1,93.3 122.4,93.3 122.4,79 			"/>
		</g>
	</g>
</g>
<g id="Layer_4">
	<g>
		<g>
			<g>
				<g>
					<g>
						<g>
							<g class="st0">
								<g class="st1">
									<g>
										<g>
											<g>
												<g>
													<path class="st2" d="M83.4,58.8H43.8c-1.3,0-2.3,1-2.3,2.3v7.8c0,1.3,1,2.3,2.3,2.3h39.5c1.3,0,2.3-1,2.3-2.3v-7.8
														C85.7,59.9,84.6,58.8,83.4,58.8z M45.7,64.3c-0.8,0-1.4-0.6-1.4-1.4c0-0.8,0.6-1.4,1.4-1.4c0.8,0,1.4,0.6,1.4,1.4
														C47.1,63.6,46.5,64.3,45.7,64.3z M79.6,68.3h-10V65h10V68.3L79.6,68.3z"/>
													<path class="st2" d="M83.4,72.5H43.8c-1.3,0-2.3,1-2.3,2.3v7.8c0,1.3,1,2.3,2.3,2.3h39.5c1.3,0,2.3-1,2.3-2.3v-7.8
														C85.7,73.5,84.6,72.5,83.4,72.5z M45.7,77.9c-0.8,0-1.4-0.6-1.4-1.4s0.6-1.4,1.4-1.4c0.8,0,1.4,0.6,1.4,1.4
														C47.1,77.3,46.5,77.9,45.7,77.9z M79.6,82h-10v-3.3h10V82L79.6,82z"/>
													<path class="st2" d="M83.4,86.1H43.8c-1.3,0-2.3,1-2.3,2.3v7.8c0,1.3,1,2.3,2.3,2.3h39.5c1.3,0,2.3-1,2.3-2.3v-7.8
														C85.7,87.1,84.6,86.1,83.4,86.1z M45.7,91.5c-0.8,0-1.4-0.6-1.4-1.4s0.6-1.4,1.4-1.4c0.8,0,1.4,0.6,1.4,1.4
														C47.1,90.9,46.5,91.5,45.7,91.5z M79.6,95.6h-10v-3.3h10V95.6L79.6,95.6z"/>
													<polygon class="st2" points="70.4,105.9 66.2,105.9 66.2,99.8 61,99.8 61,105.9 56.8,105.9 56.8,107.5 42,107.5 
														42,112.8 56.8,112.8 56.8,114.4 70.4,114.4 70.4,112.8 85.2,112.8 85.2,107.5 70.4,107.5 													"/>
													<path class="st2" d="M86.9,46.3c-0.6,0-1.1-0.3-1.4-0.8c-3.2-4.3-8.2-6.9-13.7-6.9c-0.3,0-0.7,0-1,0
														c-0.5,0-0.9-0.1-1.3-0.4c-3.3-2.5-7.3-3.8-11.5-3.8c-7.5,0-14.1,4.3-17.2,10.9c-0.3,0.6-0.9,1-1.5,1.1
														c-8.2,1.2-14.6,8.3-14.6,16.8c0,8.2,5.8,15,13.5,16.6v-5c0-0.6,0.1-1.2,0.3-1.8c-4.1-1.4-7.1-5.2-7.1-9.8
														c0-5.7,4.6-10.3,10.3-10.3c0.3,0,0.6,0,0.8,0c1.6,0.1,3.1-0.9,3.5-2.5c1.4-5.5,6.3-9.4,12-9.4c3.2,0,6.3,1.3,8.6,3.5
														c0.8,0.8,1.9,1.1,3,0.9c0.7-0.1,1.4-0.2,2.1-0.2c4,0,7.5,2.2,9.3,5.8c0.6,1.3,1.9,2,3.3,1.9c0.3,0,0.7-0.1,1-0.1
														c5.7,0,10.3,4.6,10.3,10.3c0,4.6-3,8.4-7.1,9.8c0.2,0.6,0.3,1.2,0.3,1.8v5c7.7-1.6,13.5-8.5,13.5-16.6
														C102.5,54.3,95.6,47,86.9,46.3z"/>
												</g>
											</g>
											<g class="st0">
												<g class="st1">
													<g>
														<path class="st2" d="M125.3,97.6c0,10.2-7.8,17.7-16.9,18.1c-4.8,0.2-9.1-1.2-12.7-4.3c-4-3.6-6.1-8.1-6.1-13.5
															c0-4.6,1.5-8.7,4.7-12.1c3.7-4,8.3-5.9,13.8-5.8C117.3,80.2,125.1,87.8,125.3,97.6z M116.4,95.1c0-0.2,0-0.4,0-0.5
															s0-0.2,0.1-0.2c0.3-1.4,0.4-2.8-0.2-4.2c-0.6-1.3-1-2.6-1.6-3.8c-0.3-0.6-0.6-1.3-1.1-1.8c-1.2-1.1-2.8-1.1-4.3-0.9
															c-0.9,0.1-1.7,0.4-2.6,0.3c-1.1-0.1-2.3-0.3-3.4-0.4c-1-0.1-2,0.7-2.3,1.6c-0.4,1.2-0.7,2.3-1,3.5
															c-0.3,1.1-0.1,1.8,1,2.4s2.3,1,3.5,1.4c0.9,0.3,1.8,0.5,2.7,0.9c0.6,0.2,1,0.6,1,1.3c0,0.5,0.2,0.9,0.5,1.3
															c0.1,0.2,0.2,0.4,0.3,0.6c0,0.1-0.1,0.1-0.1,0.2c-0.5,0-1.1,0-1.6-0.1c-2.8-0.8-5.4-1.9-7.8-3.5
															C99.2,93,99,92.7,99,92.4c-0.1-0.5-0.1-1,0-1.4s-0.1-0.5-0.4-0.5c-1,0.1-1.9,0.1-2.9,0.2c-1.1,0.1-1.9,0.6-2.5,1.5
															c-0.3,0.4-0.4,0.9-0.1,1.3c0.4,0.6,0.8,1.2,1.2,1.6c1,0.9,2,1.9,3.1,2.7c1.3,0.9,2.6,1.8,4,2.5c1.1,0.6,2.3,1,3.4,1.4
															c1.5,0.6,3.1,1,4.7,1.2c0.7,0.1,1.5,0.2,2.2,0.2c1.1,0,2.2,0,3.2-0.1c1.3-0.1,2.5-0.8,3.7-1.4c1.5-0.8,2.6-1.9,3-3.6
															c0.2-1.1,0.2-2.1-0.8-2.8c-1.1-0.7-2.2-1.4-3.5-1.8C117.5,94.1,117.3,94.8,116.4,95.1z M91.1,104.3
															c3,6.6,7.9,10.5,15.1,11c6.2,0.5,11.3-1.9,15.2-6.9c-0.5,0-0.8,0-1.2,0c-1,0-2.1-0.1-3.1-0.1c-0.1,0-0.3,0.2-0.2,0.3
															c0.1,0.4-0.1,0.6-0.4,0.8c-1.1,0.5-2.2,1.2-3.1,2.1c-0.3,0.3-0.7,0.5-1,0.6c-0.2,0.1-0.4,0-0.6-0.1
															c0-0.2,0-0.4,0.1-0.6c0.8-1.1,1.6-2.1,2.4-3.2c0.1-0.2,0.3-0.3,0.3-0.5c0.2-1,0.5-2.1,0.7-3.1c0.1-0.2,0-0.4-0.3-0.4
															c-0.2,0-0.3,0-0.5,0c-0.4,0-0.8,0-1.2,0c-0.8,0-1.6-0.3-2.4,0.1c-0.2,0.1-0.4,0-0.6,0c-0.4-0.1-0.9-0.2-1.3-0.2
															c-1,0-2,0.1-3,0.1c-0.5,0-1.1-0.2-1.5-0.5c-0.7-0.6-1.3-1.3-2-2c-0.2-0.3-0.5-0.3-0.8-0.2c-0.5,0.2-0.8,0-1.1-0.4
															c-0.4-0.5-0.9-1-1.4-1.5c-0.3-0.3-0.7-0.4-1.1-0.2c-0.5,0.2-1,0.5-1,1.1s0.2,1.1,0.5,1.6c0.4,0.5,0.8,1.1,1.4,1.5
															c0.1,0.1,0.2,0.4,0.1,0.6s-0.3,0.3-0.5,0.4c-0.5,0.1-0.9,0-1.3-0.4s-0.8-0.8-1.3-1.2c-0.2-0.2-0.4-0.3-0.7-0.3
															c-0.7,0-1.5,0-2.2,0c-0.6,0-1.2,0-1.9,0C90.5,102.8,90.6,103.1,91.1,104.3z"/>
														<path class="st2" d="M102.3,86.5c0.3,0.2,0.6,0.3,0.8,0.5c0.5,0.5,1.2,0.5,1.8,0.4c0.8-0.2,1.5,0.1,2.2,0.3
															c0.1,0,0.2,0.2,0.2,0.2c0,0.1-0.1,0.3-0.2,0.3c-0.4,0.1-0.7,0.2-1.1,0.3c-0.5,0.1-1.1,0.1-1.6,0.2
															c-0.2,0-0.4,0.1-0.5,0.2c-0.7,0.6-1.2,0-1.7-0.3s-0.6-0.9-0.5-1.5C101.8,86.9,102.1,86.7,102.3,86.5z"/>
														<path class="st2" d="M109.5,84.7c0.6-0.3,1.2-0.3,1.8-0.3c0.3,0,0.5,0.1,0.8,0.2c0.4,0.2,0.6,0.4,0.6,0.9
															c0,0.4-0.3,0.6-0.6,0.6c-0.5,0.1-1,0.1-1.4,0.1c-0.1,0-0.2-0.1-0.3-0.2c0.3-0.2,0.5-0.4,0.8-0.7
															C110.8,84.8,110.1,84.9,109.5,84.7z"/>
														<path class="st2" d="M110.2,107.8c-0.5-0.2-1-0.3-1.4-0.5h-0.1c-0.3,0-0.6,0-0.5-0.4s0.5-0.6,0.9-0.5
															c0.2,0.1,0.5,0.2,0.7,0.3c0.4,0.2,0.7,0.3,1-0.1c0.1-0.1,0.5-0.1,0.5-0.1c0.1,0.2,0.2,0.5,0.2,0.7
															C111.1,107.7,110.7,107.8,110.2,107.8z"/>
													</g>
												</g>
											</g>
										</g>
									</g>
									<g class="st0">
										<path class="st3" d="M90.9,96.9h-3.8H87v9.4l2.8-2.6c2.7,3.8,7.2,6.3,12.2,6.3c7.7,0,14-5.7,14.9-13.1h-3.8
											c-0.9,5.3-5.5,9.4-11.1,9.4c-3.9,0-7.4-2-9.4-5.1l4.6-4.3C97.2,96.9,90.9,96.9,90.9,96.9z"/>
										<path class="st3" d="M102,80c-7.7,0-14,5.7-14.9,13.1h3.8c0.9-5.3,5.5-9.4,11.1-9.4c4.1,0,7.6,2.2,9.6,5.4l-4,4h3.8h1.7
											h3.8h0.1v-9.4l-2.7,2.7C111.6,82.5,107.1,80,102,80z"/>
									</g>
								</g>
								<g class="st1">
									<path class="st2" d="M88.8,91c0.2,0.5,0.4,1.1,0.7,1.6l-0.8,1c-0.3,0.3-0.2,0.8,0.1,1.1l1.4,1.4c0.3,0.3,0.8,0.3,1.1,0.1
										l1-0.8c0.5,0.3,1.1,0.5,1.6,0.7l0.1,1.3c0,0.4,0.4,0.7,0.8,0.7h1.9c0.4,0,0.8-0.3,0.8-0.7l0.1-1.2c0.6-0.2,1.2-0.4,1.7-0.7
										l1,0.8c0.3,0.3,0.8,0.2,1.1-0.1l1.4-1.4c0.3-0.3,0.3-0.8,0.1-1.1l-0.8-1c0.3-0.5,0.6-1.1,0.7-1.7l1.2-0.1
										c0.4,0,0.7-0.4,0.7-0.8V88c0-0.4-0.3-0.8-0.7-0.8l-1.1-0.1c-0.2-0.6-0.4-1.2-0.7-1.7l0.7-0.9c0.3-0.3,0.2-0.8-0.1-1.1
										l-1.4-1.4c-0.3-0.3-0.8-0.3-1.1-0.1l-0.9,0.7c-0.6-0.3-1.2-0.6-1.8-0.7l-0.1-1.1c0-0.4-0.4-0.7-0.8-0.7h-1.9
										c-0.4,0-0.8,0.3-0.8,0.7l0,1c-0.6,0.2-1.3,0.4-1.8,0.8l-0.9-0.7c-0.3-0.3-0.8-0.2-1.1,0.1l-1.4,1.4
										c-0.3,0.3-0.3,0.8-0.1,1.1l0.7,0.9c-0.3,0.5-0.5,1.1-0.7,1.7l-1.2,0.1c-0.4,0-0.7,0.4-0.7,0.8v2c0,0.4,0.3,0.8,0.7,0.8
										L88.8,91z M95.9,85.7c1.8,0,3.2,1.4,3.2,3.2c0,1.8-1.4,3.2-3.2,3.2c-1.8,0-3.2-1.4-3.2-3.2C92.7,87.1,94.1,85.7,95.9,85.7z
										"/>
									<path class="st2" d="M115.1,91.4l-1-0.9c-0.3-0.3-0.8-0.3-1.1,0l-0.6,0.5c-0.5-0.2-1-0.4-1.5-0.5l-0.2-0.8
										c-0.1-0.4-0.5-0.7-0.9-0.7l-1.3,0.1c-0.4,0-0.7,0.4-0.7,0.8v0.8c-0.5,0.2-1,0.4-1.4,0.8l-0.7-0.4c-0.3-0.2-0.8-0.2-1.1,0.2
										l-0.9,1c-0.3,0.3-0.3,0.8,0,1.1l0.6,0.6c-0.2,0.5-0.4,0.9-0.4,1.4l-0.8,0.2c-0.4,0.1-0.7,0.5-0.7,0.9l0.1,1.3
										c0,0.4,0.4,0.7,0.8,0.7h0.9c0.2,0.4,0.4,0.8,0.6,1.2l-0.5,0.8c-0.2,0.3-0.2,0.8,0.2,1.1l1,0.9c0.3,0.3,0.8,0.3,1.1,0
										l0.7-0.6c0.4,0.2,0.9,0.4,1.4,0.4l0.2,0.9c0.1,0.4,0.5,0.7,0.9,0.7l1.3-0.1c0.4,0,0.7-0.4,0.7-0.8v-0.9
										c0.5-0.2,0.9-0.4,1.4-0.7l0.7,0.5c0.3,0.2,0.8,0.2,1.1-0.2l0.9-1c0.3-0.3,0.3-0.8,0-1.1l-0.6-0.6c0.2-0.5,0.4-0.9,0.5-1.5
										l0.8-0.2c0.4-0.1,0.7-0.5,0.7-0.9l-0.1-1.3c0-0.4-0.4-0.7-0.8-0.7h-0.8c-0.2-0.5-0.4-0.9-0.7-1.3l0.4-0.7
										C115.4,92.2,115.4,91.7,115.1,91.4z M110,99.2c-1.4,0.1-2.7-1-2.8-2.4c-0.1-1.4,1-2.7,2.4-2.8c1.4-0.1,2.7,1,2.8,2.4
										C112.5,97.8,111.5,99,110,99.2z"/>
									<path class="st2" d="M93.5,102.7c-0.4,0-0.7,0.4-0.7,0.8v0.8c0,0.4,0.3,0.8,0.7,0.8l0.6,0.1c0.1,0.4,0.2,0.7,0.4,1.1
										l-0.4,0.5c-0.3,0.3-0.2,0.8,0,1.1l0.6,0.6c0.3,0.3,0.8,0.3,1.1,0.1l0.5-0.4c0.3,0.2,0.7,0.4,1.1,0.5l0.1,0.6
										c0,0.4,0.4,0.7,0.8,0.7h0.8c0.4,0,0.8-0.3,0.8-0.7l0.1-0.6c0.4-0.1,0.8-0.3,1.2-0.5l0.5,0.4c0.3,0.3,0.8,0.2,1.1,0l0.6-0.6
										c0.3-0.3,0.3-0.8,0.1-1.1l-0.3-0.5c0.2-0.4,0.4-0.7,0.5-1.1l0.5-0.1c0.4,0,0.7-0.4,0.7-0.8v-0.8c0-0.4-0.3-0.8-0.7-0.8
										l-0.5-0.1c-0.1-0.4-0.3-0.8-0.4-1.1l0.3-0.4c0.3-0.3,0.2-0.8,0-1.1l-0.6-0.6c-0.3-0.3-0.8-0.3-1.1-0.1l-0.4,0.3
										c-0.4-0.2-0.8-0.4-1.2-0.5l-0.1-0.5c0-0.4-0.4-0.7-0.8-0.7h-0.8c-0.4,0-0.8,0.3-0.8,0.7l-0.1,0.5c-0.4,0.1-0.8,0.3-1.2,0.5
										l-0.4-0.3c-0.3-0.3-0.8-0.2-1.1,0l-0.6,0.6c-0.3,0.3-0.3,0.8-0.1,1.1l0.3,0.4c-0.2,0.4-0.4,0.7-0.5,1.1L93.5,102.7z
										 M98.8,101.8c1.2,0,2.1,1,2.1,2.2s-1,2.1-2.2,2.1s-2.1-1-2.1-2.2C96.7,102.8,97.6,101.8,98.8,101.8z"/>
								</g>
							</g>
							<g class="st0">
								<g id="_x31_03_65_" class="st1">
									<g>
										<path class="st2" d="M119.1,92.5c-0.8-0.8-1.6-1.6-2.4-2.4l3-3l-1.2-1.2l-3,3c-0.8-0.8-1.6-1.6-2.4-2.4
											c-0.1-0.1-0.1-0.1-0.2-0.1l-0.5-0.5l-1.2,1.2l3.1,3.1l-3,3l1.2,1.2l3-3l3,3l1.2-1.2l-0.4-0.4
											C119.2,92.6,119.1,92.6,119.1,92.5z"/>
										<path class="st2" d="M114.7,82.9c0.2,0,0.3,0,0.5,0c0-0.2,0-0.3,0.1-0.5c-0.2-3-2.3-5.2-5.4-5.4c-1.8-0.1-3.3,0.8-4.2,2.1
											c-1-1.3-2.4-2-4.2-2.1c-3-0.2-5.2,2.6-5.4,5.4c0,0.4,0,0.7,0.1,1c-0.2,0-0.4,0-0.6-0.1c-3.3-0.2-5.6,2.8-5.8,5.8
											c-0.2,3.1,2.4,5.4,5.3,5.7V95h14.4c-1.2-1.3-1.9-3-1.9-4.9C107.5,86.1,110.7,82.9,114.7,82.9z"/>
									</g>
								</g>
							</g>
						</g>
						<g class="st0">
							<path class="st3" d="M92.7,84.7v-3.8c0-0.5,0.4-0.9,0.9-0.9s0.9,0.4,0.9,0.9v3.8c0,0.5-0.4,0.9-0.9,0.9
								C93.2,85.6,92.7,85.2,92.7,84.7z M108.7,85.6c0.5,0,0.9-0.4,0.9-0.9v-3.8c0-0.5-0.4-0.9-0.9-0.9s-0.9,0.4-0.9,0.9v3.8
								C107.7,85.2,108.2,85.6,108.7,85.6z M119,102.5c0,4.1-3.4,7.5-7.5,7.5s-7.5-3.4-7.5-7.5s3.4-7.5,7.5-7.5S119,98.4,119,102.5z
								 M117.1,102.5c0-3.1-2.5-5.6-5.6-5.6s-5.6,2.5-5.6,5.6s2.5,5.6,5.6,5.6S117.1,105.6,117.1,102.5z M96.5,91.3h-3.8V95h3.8
								V91.3z M92.7,100.6h3.8v-3.8h-3.8V100.6z M98.4,95h3.8v-3.7h-3.8V95z M98.4,100.6h3.8v-3.8h-3.8V100.6z M90.9,102.3V89.4
								h20.6v3.8h1.9v-7.3c0-1.1-0.9-2.1-2-2.1h-0.8v0.9c0,1-0.8,1.9-1.9,1.9c-1,0-1.9-0.8-1.9-1.9v-0.9H95.6v0.9
								c0,1-0.8,1.9-1.9,1.9c-1,0-1.9-0.8-1.9-1.9v-0.9H91c-1.1,0-2,0.9-2,2.1v16.5c0,1.1,0.9,2.1,2,2.1h11.1v-1.9H91
								C90.9,102.5,90.9,102.4,90.9,102.3z M107.7,95v-3.7H104V95H107.7z M114.3,102.5h-2.8v-2.8c0-0.5-0.4-0.9-0.9-0.9
								s-0.9,0.4-0.9,0.9v3.8c0,0.5,0.4,0.9,0.9,0.9h3.8c0.5,0,0.9-0.4,0.9-0.9C115.3,102.9,114.8,102.5,114.3,102.5z"/>
						</g>
					</g>
					<g class="st0">
						<path class="st3" d="M114.1,82H89.9c-0.8,0-1.4,0.6-1.4,1.4v13.1h27V83.4C115.5,82.6,114.9,82,114.1,82z M106.5,89.2
							c0,1-0.8,1.8-1.8,1.8h-5.5c-1,0-1.8-0.8-1.8-1.8v-0.7c0-0.3,0.2-0.5,0.5-0.5s0.5,0.2,0.5,0.5v0.7c0,0.4,0.3,0.8,0.8,0.8h5.5
							c0.4,0,0.8-0.3,0.8-0.8v-0.7c0-0.3,0.2-0.5,0.5-0.5s0.5,0.2,0.5,0.5V89.2z"/>
						<path class="st3" d="M88.5,110.6c0,0.8,0.6,1.4,1.4,1.4h24.2c0.8,0,1.4-0.6,1.4-1.4V97.5h-27C88.5,97.5,88.5,110.6,88.5,110.6
							z M97.5,103c0-0.3,0.2-0.5,0.5-0.5s0.5,0.2,0.5,0.5v0.7c0,0.4,0.3,0.8,0.8,0.8h5.5c0.4,0,0.8-0.3,0.8-0.8V103
							c0-0.3,0.2-0.5,0.5-0.5s0.5,0.2,0.5,0.5v0.7c0,1-0.8,1.8-1.8,1.8h-5.5c-1,0-1.8-0.8-1.8-1.8V103z"/>
					</g>
				</g>
				<path class="st4" d="M117.7,93.5H116v-3.6c0-0.8-0.6-1.4-1.4-1.4H113v-1.2l-7.8-7.3H93v5h-2.6c-0.8,0-1.4,0.6-1.4,1.4V109l0,0
					c0,0.2,0.1,0.4,0.2,0.5c0.2,0.3,0.6,0.5,1,0.5h22.4c0.6,0,1.1-0.4,1.2-0.9l5.1-14V95C119,94.1,118.5,93.5,117.7,93.5z
					 M104.5,81.1C104.5,81,104.6,81,104.5,81.1l7.4,6.8V88h-7.4V81.1z M97,82.5h5c0.3,0,0.5,0.2,0.5,0.5s-0.2,0.5-0.5,0.5h-5
					c-0.3,0-0.5-0.2-0.5-0.5S96.7,82.5,97,82.5z M97,86h5c0.3,0,0.5,0.2,0.5,0.5S102.3,87,102,87h-5c-0.3,0-0.5-0.2-0.5-0.5
					S96.7,86,97,86z M97,89.5h12c0.3,0,0.5,0.2,0.5,0.5s-0.2,0.5-0.5,0.5H97c-0.3,0-0.5-0.2-0.5-0.5S96.7,89.5,97,89.5z M94.1,94.4
					L90,105.8V86.4c0-0.2,0.2-0.4,0.4-0.4H93v9.5l0.8-2.1c0.1-0.3,0.3-0.4,0.6-0.4H112h1v-3.5h1.6c0.2,0,0.4,0.2,0.4,0.4v3.6h-2.5
					H95.4C94.8,93.5,94.3,93.9,94.1,94.4z"/>
			</g>
			<g class="st0">
				<path class="st3" d="M89.7,92v6c0,0.5,0.2,0.9,0.4,1.3h29.7c0.3-0.4,0.4-0.8,0.4-1.3v-6c0-0.5-0.2-0.9-0.4-1.3H90.2
					C89.9,91.1,89.7,91.5,89.7,92z M116.2,95.3c0.3,0,0.5,0.2,0.5,0.5s-0.2,0.5-0.5,0.5s-0.5-0.2-0.5-0.5S115.9,95.3,116.2,95.3z
					 M115.2,93.7c0.3,0,0.5,0.2,0.5,0.5s-0.2,0.5-0.5,0.5s-0.5-0.2-0.5-0.5S114.9,93.7,115.2,93.7z M114.2,95.3
					c0.3,0,0.5,0.2,0.5,0.5s-0.2,0.5-0.5,0.5s-0.5-0.2-0.5-0.5S113.9,95.3,114.2,95.3z M113.1,93.7c0.3,0,0.5,0.2,0.5,0.5
					s-0.2,0.5-0.5,0.5s-0.5-0.2-0.5-0.5S112.9,93.7,113.1,93.7z M112.1,95.3c0.3,0,0.5,0.2,0.5,0.5s-0.2,0.5-0.5,0.5
					s-0.5-0.2-0.5-0.5S111.8,95.3,112.1,95.3z M111.1,93.7c0.3,0,0.5,0.2,0.5,0.5s-0.2,0.5-0.5,0.5s-0.5-0.2-0.5-0.5
					S110.8,93.7,111.1,93.7z M110.1,95.3c0.3,0,0.5,0.2,0.5,0.5s-0.2,0.5-0.5,0.5s-0.5-0.2-0.5-0.5S109.8,95.3,110.1,95.3z
					 M109.1,93.7c0.3,0,0.5,0.2,0.5,0.5s-0.2,0.5-0.5,0.5s-0.5-0.2-0.5-0.5S108.8,93.7,109.1,93.7z M108.1,95.3
					c0.3,0,0.5,0.2,0.5,0.5s-0.2,0.5-0.5,0.5s-0.5-0.2-0.5-0.5S107.8,95.3,108.1,95.3z M107,93.7c0.3,0,0.5,0.2,0.5,0.5
					s-0.2,0.5-0.5,0.5s-0.5-0.2-0.5-0.5S106.8,93.7,107,93.7z M95.1,92.7c1.3,0,2.3,1,2.3,2.3s-1,2.3-2.3,2.3s-2.3-1-2.3-2.3
					C92.8,93.7,93.8,92.7,95.1,92.7z"/>
				<path class="st3" d="M119.8,89.7c0.3-0.4,0.4-0.8,0.4-1.3v-6c0-1.3-1.1-2.3-2.3-2.3H92.1c-1.3,0-2.3,1.1-2.3,2.3v6
					c0,0.5,0.2,0.9,0.4,1.3H119.8L119.8,89.7z M116.2,85.6c0.3,0,0.5,0.2,0.5,0.5s-0.2,0.5-0.5,0.5s-0.5-0.2-0.5-0.5
					S115.9,85.6,116.2,85.6z M115.2,84.1c0.3,0,0.5,0.2,0.5,0.5s-0.2,0.5-0.5,0.5s-0.5-0.2-0.5-0.5S114.9,84.1,115.2,84.1z
					 M114.2,85.6c0.3,0,0.5,0.2,0.5,0.5s-0.2,0.5-0.5,0.5s-0.5-0.2-0.5-0.5S113.9,85.6,114.2,85.6z M113.1,84.1
					c0.3,0,0.5,0.2,0.5,0.5s-0.2,0.5-0.5,0.5s-0.5-0.2-0.5-0.5S112.9,84.1,113.1,84.1z M112.1,85.6c0.3,0,0.5,0.2,0.5,0.5
					s-0.2,0.5-0.5,0.5s-0.5-0.2-0.5-0.5S111.8,85.6,112.1,85.6z M111.1,84.1c0.3,0,0.5,0.2,0.5,0.5s-0.2,0.5-0.5,0.5
					s-0.5-0.2-0.5-0.5S110.8,84.1,111.1,84.1z M110.1,85.6c0.3,0,0.5,0.2,0.5,0.5s-0.2,0.5-0.5,0.5s-0.5-0.2-0.5-0.5
					S109.8,85.6,110.1,85.6z M109.1,84.1c0.3,0,0.5,0.2,0.5,0.5s-0.2,0.5-0.5,0.5s-0.5-0.2-0.5-0.5S108.8,84.1,109.1,84.1z
					 M108.1,85.6c0.3,0,0.5,0.2,0.5,0.5s-0.2,0.5-0.5,0.5s-0.5-0.2-0.5-0.5S107.8,85.6,108.1,85.6z M107,84.1c0.3,0,0.5,0.2,0.5,0.5
					s-0.2,0.5-0.5,0.5s-0.5-0.2-0.5-0.5S106.8,84.1,107,84.1z M95.1,83.1c1.3,0,2.3,1,2.3,2.3s-1,2.3-2.3,2.3s-2.3-1-2.3-2.3
					S93.8,83.1,95.1,83.1z"/>
				<path class="st3" d="M90.2,100.3c-0.3,0.4-0.4,0.8-0.4,1.3v6c0,1.3,1.1,2.3,2.3,2.3h25.8c1.3,0,2.3-1.1,2.3-2.3v-6
					c0-0.5-0.2-0.9-0.4-1.3H90.2z M95.1,106.9c-1.3,0-2.3-1-2.3-2.3s1-2.3,2.3-2.3s2.3,1,2.3,2.3S96.3,106.9,95.1,106.9z M107,104.4
					c-0.3,0-0.5-0.2-0.5-0.5s0.2-0.5,0.5-0.5s0.5,0.2,0.5,0.5S107.3,104.4,107,104.4z M108.1,105.9c-0.3,0-0.5-0.2-0.5-0.5
					s0.2-0.5,0.5-0.5s0.5,0.2,0.5,0.5S108.3,105.9,108.1,105.9z M109.1,104.4c-0.3,0-0.5-0.2-0.5-0.5s0.2-0.5,0.5-0.5
					s0.5,0.2,0.5,0.5S109.3,104.4,109.1,104.4z M110.1,105.9c-0.3,0-0.5-0.2-0.5-0.5s0.2-0.5,0.5-0.5s0.5,0.2,0.5,0.5
					S110.4,105.9,110.1,105.9z M111.1,104.4c-0.3,0-0.5-0.2-0.5-0.5s0.2-0.5,0.5-0.5s0.5,0.2,0.5,0.5S111.4,104.4,111.1,104.4z
					 M112.1,105.9c-0.3,0-0.5-0.2-0.5-0.5s0.2-0.5,0.5-0.5s0.5,0.2,0.5,0.5S112.4,105.9,112.1,105.9z M113.1,104.4
					c-0.3,0-0.5-0.2-0.5-0.5s0.2-0.5,0.5-0.5s0.5,0.2,0.5,0.5S113.4,104.4,113.1,104.4z M114.2,105.9c-0.3,0-0.5-0.2-0.5-0.5
					s0.2-0.5,0.5-0.5s0.5,0.2,0.5,0.5S114.4,105.9,114.2,105.9z M115.2,104.4c-0.3,0-0.5-0.2-0.5-0.5s0.2-0.5,0.5-0.5
					s0.5,0.2,0.5,0.5S115.5,104.4,115.2,104.4z M116.2,105.9c-0.3,0-0.5-0.2-0.5-0.5s0.2-0.5,0.5-0.5s0.5,0.2,0.5,0.5
					S116.5,105.9,116.2,105.9z"/>
			</g>
		</g>
		<g class="st0">
			<g class="st1">
				<path class="st2" d="M105,85.8c-3.4,0-6.2,2.8-6.2,6.2s2.8,6.2,6.2,6.2s6.2-2.8,6.2-6.2S108.4,85.8,105,85.8z M103.2,87.7
					c-0.4,0.5-0.8,1.2-1,2H101C101.4,88.8,102.2,88.1,103.2,87.7z M100.5,93.3c-0.1-0.4-0.2-0.9-0.2-1.3c0-0.5,0.1-0.9,0.2-1.3h1.4
					c-0.1,0.4-0.1,0.8-0.1,1.3s0,0.9,0.1,1.3H100.5z M100.9,94.3h1.2c0.3,0.8,0.6,1.5,1,2C102.2,95.9,101.4,95.2,100.9,94.3z
					 M104.5,96.5c-0.5-0.5-1-1.2-1.4-2.2h1.4V96.5z M104.5,93.3h-1.6c-0.1-0.4-0.1-0.8-0.1-1.3s0-0.9,0.1-1.3h1.6V93.3z M104.5,89.7
					h-1.4c0.4-1,0.9-1.7,1.4-2.2V89.7z M109.1,89.7h-1.2c-0.3-0.8-0.6-1.5-1-2C107.8,88.1,108.6,88.8,109.1,89.7z M105.5,87.5
					c0.5,0.5,1,1.2,1.4,2.2h-1.4V87.5z M105.5,90.7h1.6c0.1,0.4,0.1,0.8,0.1,1.3s0,0.9-0.1,1.3h-1.6V90.7z M105.5,94.3h1.4
					c-0.4,1-0.9,1.7-1.4,2.2V94.3z M106.8,96.3c0.4-0.5,0.8-1.2,1-2h1.2C108.6,95.2,107.8,95.9,106.8,96.3z M108.1,93.3
					c0.1-0.4,0.1-0.8,0.1-1.3s0-0.9-0.1-1.3h1.4c0.1,0.4,0.2,0.9,0.2,1.3c0,0.5-0.1,0.9-0.2,1.3H108.1z"/>
				<path class="st2" d="M95.1,93.1h2.3c0-0.3-0.1-0.7-0.1-1.1c0-0.3,0-0.5,0-0.8h-2.2c-0.4-1-1.3-1.7-2.5-1.7
					c-1.4,0-2.6,1.2-2.6,2.6s1.2,2.6,2.6,2.6C93.7,94.8,94.7,94.1,95.1,93.1z"/>
				<path class="st2" d="M104.1,82.1v2.2c0.3,0,0.6-0.1,0.9-0.1s0.6,0,0.9,0.1V82c1-0.4,1.7-1.3,1.7-2.5c0-1.4-1.2-2.6-2.6-2.6
					s-2.6,1.2-2.6,2.6C102.4,80.7,103.1,81.7,104.1,82.1z"/>
				<path class="st2" d="M96.2,85.9c0.4,0,0.8-0.1,1.1-0.2l1.6,1.6c0.4-0.5,0.8-0.9,1.3-1.3l-1.6-1.6c0.2-0.3,0.2-0.7,0.2-1.1
					c0-1.4-1.2-2.6-2.6-2.6s-2.6,1.2-2.6,2.6C93.6,84.7,94.8,85.9,96.2,85.9z"/>
				<path class="st2" d="M111.1,87.2l1.6-1.6c1,0.4,2.1,0.3,2.9-0.5c1-1,1-2.7,0-3.7s-2.7-1-3.7,0c-0.8,0.8-1,2-0.5,2.9l-1.3,1.3
					l0,0l-0.3,0.3C110.3,86.3,110.7,86.7,111.1,87.2z"/>
				<path class="st2" d="M117.4,89.4c-1.2,0-2.2,0.8-2.5,1.9h-2.2c0,0.2,0,0.5,0,0.8c0,0.4,0,0.7-0.1,1.1h2.3
					c0.4,0.9,1.3,1.6,2.4,1.6c1.4,0,2.6-1.2,2.6-2.6S118.8,89.4,117.4,89.4z"/>
				<path class="st2" d="M113.8,98.1c-0.4,0-0.8,0.1-1.1,0.2l-1.6-1.6c-0.4,0.5-0.8,0.9-1.3,1.3l1.6,1.6c-0.2,0.3-0.2,0.7-0.2,1.1
					c0,1.4,1.2,2.6,2.6,2.6s2.6-1.2,2.6-2.6C116.4,99.3,115.2,98.1,113.8,98.1z"/>
				<path class="st2" d="M98.9,96.8l-1.6,1.6c-0.3-0.2-0.7-0.2-1.1-0.2c-1.4,0-2.6,1.2-2.6,2.6s1.2,2.6,2.6,2.6s2.6-1.2,2.6-2.6
					c0-0.4-0.1-0.8-0.2-1.1l1.6-1.6C99.7,97.7,99.3,97.3,98.9,96.8z"/>
				<path class="st2" d="M105.9,101.9v-1.8v-0.4c-0.3,0-0.6,0.1-0.9,0.1s-0.6,0-0.9-0.1v0.4v1.8c-1,0.4-1.7,1.3-1.7,2.5
					c0,1.4,1.2,2.6,2.6,2.6s2.6-1.2,2.6-2.6C107.6,103.3,106.9,102.3,105.9,101.9z"/>
			</g>
		</g>
	</g>
	<g class="st0">
		<g id="data" class="st1">
			<path class="st2" d="M108.3,80c-6.3,0-13.1,1.9-13.1,6.1v17.8c0,4.2,6.8,6.1,13.1,6.1c6.3,0,13.1-1.9,13.1-6.1V86.1
				C121.4,81.9,114.6,80,108.3,80z M119.5,103.9c0,2.3-5,4.2-11.3,4.2c-6.2,0-11.3-1.9-11.3-4.2v-3.5c1.9,2,6.6,3,11.3,3
				s9.3-1,11.3-3V103.9z M119.5,98.3L119.5,98.3L119.5,98.3c0,2.3-5,4.2-11.3,4.2S97,100.6,97,98.3l0,0l0,0v-3.5c1.9,2,6.6,3,11.3,3
				s9.3-1,11.3-3v3.5H119.5z M119.5,92.7L119.5,92.7L119.5,92.7c0,2.3-5,4.2-11.3,4.2S97,95,97,92.7l0,0l0,0v-3.2
				c2.5,1.9,7,2.8,11.3,2.8s8.8-0.9,11.3-2.8v3.2H119.5z M108.3,90.3c-6.2,0-11.3-1.9-11.3-4.2c0-2.3,5-4.2,11.3-4.2
				c6.2,0,11.3,1.9,11.3,4.2C119.5,88.4,114.5,90.3,108.3,90.3z"/>
			<circle class="st2" cx="116.7" cy="104.4" r="0.9"/>
			<circle class="st2" cx="116.7" cy="98.7" r="0.9"/>
			<circle class="st2" cx="116.7" cy="93.1" r="0.9"/>
		</g>
	</g>
	<g id="Settings" class="st0">
		<g class="st1">
			<path class="st2" d="M92.9,82.5c-0.1-0.7-0.9-1.3-1.6-1.3c-2.3,0-4.4-1.4-5.3-3.5c-0.9-2.2-0.3-4.7,1.4-6.3
				c0.6-0.5,0.6-1.3,0.2-1.9c-1.2-1.5-2.6-2.9-4.1-4.1c-0.6-0.5-1.4-0.4-1.9,0.2c-1.5,1.7-4.3,2.3-6.4,1.4c-2.2-0.9-3.6-3.2-3.5-5.6
				c0-0.8-0.5-1.4-1.3-1.5c-1.9-0.2-3.8-0.2-5.8,0c-0.7,0.1-1.3,0.7-1.3,1.5c0.1,2.4-1.3,4.6-3.5,5.5c-2.1,0.9-4.8,0.2-6.3-1.4
				c-0.5-0.6-1.3-0.6-1.9-0.2c-1.5,1.2-2.9,2.6-4.1,4.1c-0.5,0.6-0.4,1.4,0.2,1.9c1.8,1.6,2.4,4.2,1.4,6.4c-0.9,2.1-3.1,3.5-5.6,3.5
				c-0.8,0-1.4,0.5-1.5,1.3c-0.2,1.9-0.2,3.9,0,5.8c0.1,0.7,0.9,1.3,1.7,1.3c2.2-0.1,4.4,1.3,5.3,3.5c0.9,2.2,0.3,4.7-1.4,6.3
				c-0.5,0.5-0.6,1.3-0.2,1.9c1.2,1.5,2.6,2.9,4.1,4.1c0.6,0.5,1.4,0.4,2-0.2c1.5-1.7,4.3-2.3,6.4-1.4c2.2,0.9,3.6,3.2,3.5,5.6
				c0,0.8,0.5,1.4,1.3,1.5c1,0.1,2,0.2,3,0.2c0.9,0,1.9-0.1,2.8-0.2c0.7-0.1,1.3-0.7,1.3-1.5c-0.1-2.4,1.3-4.6,3.5-5.5
				c2.1-0.9,4.8-0.2,6.3,1.4c0.5,0.6,1.3,0.6,1.9,0.2c1.5-1.2,2.9-2.6,4.1-4.1c0.5-0.6,0.4-1.4-0.2-1.9c-1.8-1.6-2.4-4.2-1.4-6.4
				c0.9-2.1,3-3.5,5.2-3.5h0.3c0.7,0.1,1.4-0.5,1.5-1.3C93.1,86.4,93.1,84.5,92.9,82.5z M67.5,94c-4.7,0-8.5-3.8-8.5-8.5
				s3.8-8.5,8.5-8.5s8.5,3.8,8.5,8.5C76.1,90.1,72.2,94,67.5,94z"/>
		</g>
	</g>
	<g>
		<g>
			<path class="st4" d="M91.2,47.6H29.7c-2,0-3.6,1.6-3.6,3.6v12.1c0,2,1.6,3.6,3.6,3.6h61.5c2,0,3.6-1.6,3.6-3.6V51.2
				C94.8,49.2,93.2,47.6,91.2,47.6z M32.5,56c-1.2,0-2.2-0.9-2.2-2.2c0-1.2,0.9-2.2,2.2-2.2c1.2,0,2.2,0.9,2.2,2.2
				C34.9,55.1,33.8,56,32.5,56z M85.4,62.4H69.9v-5.1h15.6V62.4L85.4,62.4z"/>
			<path class="st4" d="M91.2,68.8H29.7c-2,0-3.6,1.6-3.6,3.6v12.1c0,2,1.6,3.6,3.6,3.6h61.5c2,0,3.6-1.6,3.6-3.6V72.4
				C94.8,70.3,93.2,68.8,91.2,68.8z M32.5,77.2c-1.2,0-2.2-0.9-2.2-2.2c0-1.2,0.9-2.2,2.2-2.2c1.2,0,2.2,0.9,2.2,2.2
				C34.9,76.2,33.8,77.2,32.5,77.2z M85.4,83.6H69.9v-5.1h15.6V83.6L85.4,83.6z"/>
			<path class="st4" d="M91.2,89.9H29.7c-2,0-3.6,1.6-3.6,3.6v12.1c0,2,1.6,3.6,3.6,3.6h61.5c2,0,3.6-1.6,3.6-3.6V93.5
				C94.8,91.5,93.2,89.9,91.2,89.9z M32.5,98.3c-1.2,0-2.2-0.9-2.2-2.2s0.9-2.2,2.2-2.2c1.2,0,2.2,0.9,2.2,2.2
				C34.9,97.4,33.8,98.3,32.5,98.3z M85.4,104.7H69.9v-5.1h15.6V104.7L85.4,104.7z"/>
			<polygon class="st4" points="71.1,120.7 64.6,120.7 64.6,111.3 56.5,111.3 56.5,120.7 49.8,120.7 49.8,123.4 26.9,123.4 
				26.9,131.5 49.8,131.5 49.8,134 71.1,134 71.1,131.5 94,131.5 94,123.4 71.1,123.4 			"/>
			<path class="st2" d="M96.8,28c-0.9,0-1.7-0.5-2.2-1.2C89.6,20.1,81.8,16,73.3,16c-0.5,0-1.1,0-1.6,0c-0.8,0-1.4-0.2-2-0.6
				c-5.1-3.9-11.4-5.9-17.9-5.9c-11.7,0-21.9,6.7-26.8,17c-0.5,0.9-1.4,1.6-2.3,1.7C10,30,0,41.1,0,54.3c0,12.8,9,23.3,21,25.8v-7.8
				c0-0.9,0.2-1.9,0.5-2.8c-6.4-2.2-11-8.1-11-15.2c0-8.9,7.2-16,16-16c0.5,0,0.9,0,1.2,0c2.5,0.2,4.8-1.4,5.4-3.9
				c2.2-8.6,9.8-14.6,18.7-14.6c5,0,9.8,2,13.4,5.4c1.2,1.2,3,1.7,4.7,1.4c1.1-0.2,2.2-0.3,3.3-0.3c6.2,0,11.7,3.4,14.5,9
				c0.9,2,3,3.1,5.1,3c0.5,0,1.1-0.2,1.6-0.2c8.9,0,16,7.2,16,16c0,7.2-4.7,13.1-11,15.2c0.3,0.9,0.5,1.9,0.5,2.8V80
				c12-2.5,21-13.2,21-25.8C120.9,40.5,110.3,29.1,96.8,28z"/>
		</g>
		<g>
			<path class="st2" d="M64.3,105.3c-1.2,0-2.5,0-3.6,0c-1.2,0-2.5,0-3.7,0c-10.3-0.3-18.5-1.7-24.4-3.7c-2.8-0.9-5.1-2-7-3.3v10
				v0.8v0.8v1.9c4,4.2,17.4,7.9,35,7.9s31-3.9,35-7.9v-1.9v-0.8v-0.8v-10c-1.9,1.2-4.2,2.3-7,3.3C82.6,103.6,74.4,105,64.3,105.3z"
				/>
			<path class="st2" d="M25.5,79.8v10v0.8v0.8v1.9c3.7,3.9,15.4,7.5,31.3,7.9c0.2,0,0.3,0,0.5,0c0.5,0,0.9,0,1.4,0
				c0.6,0,1.2,0,1.9,0s1.2,0,1.9,0c0.5,0,0.9,0,1.4,0c0.2,0,0.3,0,0.5,0c15.7-0.5,27.5-4,31.3-7.9v-1.9v-0.8v-0.8v-10
				c-6.8,4.7-21.2,7.2-35,7.2S32.4,84.5,25.5,79.8z"/>
			<path class="st2" d="M95.4,71c-1.6-6.1-13.7-12-34.9-12s-33.1,5.9-34.9,12c-0.2,0.2-0.2,0.5-0.2,0.6v0.8v2.5
				c4,4.2,17.3,7.9,35,7.9s31.1-3.9,35-7.9v-2.5v-0.8C95.5,71.4,95.5,71.1,95.4,71z"/>
			<path class="st2" d="M25.5,116.4v11.5c0,0.2,0,0.5,0.2,0.6c1.7,6.8,16.5,12,34.9,12s33.1-5.1,34.9-12c0.2-0.2,0.2-0.5,0.2-0.6
				v-11.5c-5.8,4-17.7,7.3-35,7.3C43.3,123.7,31.3,120.4,25.5,116.4z"/>
		</g>
		<g>
			<path class="st2" d="M109.4,101.1h-5.9h-0.2v14.6l4.4-4c4.2,5.9,11.2,9.8,19,9.8c11.8,0,21.8-8.9,23.2-20.4h-5.9
				c-1.4,8.2-8.6,14.6-17.3,14.6c-6.1,0-11.5-3.1-14.6-7.9l7.2-6.7C119.2,101.1,109.4,101.1,109.4,101.1z"/>
			<path class="st2" d="M126.7,74.8c-12,0-21.8,8.9-23.2,20.4h5.9c1.4-8.2,8.6-14.6,17.3-14.6c6.4,0,11.8,3.4,14.9,8.4l-6.2,6.2h5.9
				h2.6h5.9h0.2V80.6l-4.2,4.2C141.6,78.7,134.6,74.8,126.7,74.8z"/>
		</g>
	</g>
</g>
</svg>
