<?xml version="1.0" encoding="utf-8"?>
<!-- Generator: Adobe Illustrator 21.0.2, SVG Export Plug-In . SVG Version: 6.00 Build 0)  -->
<svg version="1.1" id="Layer_1" xmlns="http://www.w3.org/2000/svg" xmlns:xlink="http://www.w3.org/1999/xlink" x="0px" y="0px"
	 viewBox="0 0 150 126.1" style="enable-background:new 0 0 150 126.1;" xml:space="preserve">
<style type="text/css">
	.st0{fill:#703081;}
	.st1{fill:#DF6B90;}
</style>
<g>
	<path class="st0" d="M141.7,0H63.3C58.8,0,55,3.8,55,8.3v48.3H8.3c-4.5,0-8.3,3.8-8.3,8.3v53c0,4.5,3.8,8.3,8.3,8.3h78.4
		c4.5,0,8.3-3.8,8.3-8.3V69.5h46.8c4.5,0,8.3-3.8,8.3-8.3v-53C150,3.8,146.2,0,141.7,0z M141.7,4.9c0.4,0,0.8,0,1.1,0.2l-40.2,29.7
		l-41-29.3c0.6-0.4,1.1-0.6,1.7-0.6H141.7z M86.7,61.5c0.4,0,0.8,0,1.1,0.2L47.4,91.4L6.6,62c0.6-0.4,1.1-0.6,1.7-0.6L86.7,61.5
		L86.7,61.5z M86.7,121.1H8.3c-1.9,0-3.4-1.5-3.4-3.4V66.9l42.5,30.5L89.8,66v51.7C90,119.5,88.3,121.1,86.7,121.1z M141.7,64.7
		H94.9c-0.2-4.5-3.8-8.1-8.3-8.1H60V10.3l42.5,30.5L145,9.4v51.7C145.1,63.2,143.6,64.7,141.7,64.7z"/>
	<path class="st1" d="M39.7,26.1h0.8v-4.9h-0.8c-10.5,0-19,8.5-19,19h4.9C25.6,32.5,32,26.1,39.7,26.1z"/>
</g>
<path class="st1" d="M137.2,103.9h1.6v3.4h-1.6h-7.3l3,3l-2.4,2.4l-5-5l-2.1-2.2l0,0l0,0l0.7-0.6l1.8-1.8l0,0l2.6-2.6l2.2-2.2
	l2.4,2.4l-2.2,2.2l-0.8,0.8H137.2z M105.4,107.5h3.2V105v-1.3v-7.1c0-4.5,3.7-8.1,8.1-8.1h21v-2.9c0-3-2.4-5.4-5.4-5.4h-17.5
	l-6.1-6.1c-0.2-0.2-0.7-0.5-1-0.6c-1.3-0.2-2.5,0.7-2.5,2v4.7l0,0c-2.9,0.1-5.2,2.5-5.2,5.4l0,0v1.7v14.6
	C100,105,102.4,107.5,105.4,107.5z M150,97.5v16.4c0,2.6-1.8,4.8-4.3,5.3v4.8c0,0.6-0.2,1.1-0.7,1.5c-0.4,0.3-0.8,0.6-1.4,0.6
	c-0.6,0-1.1-0.2-1.4-0.6l-6.1-6.1h-18.4c-3,0-5.4-2.4-5.4-5.4V97.5c0-3,2.4-5.4,5.4-5.4h27C147.6,92,150,94.5,150,97.5z M146.3,97.5
	c0-0.9-0.7-1.7-1.7-1.7h-27c-0.9,0-1.7,0.7-1.7,1.7v16.4c0,0.9,0.7,1.7,1.7,1.7h20.1l4.2,4.2v-4.2h2.7c0.9,0,1.7-0.7,1.7-1.7V97.5z"
	/>
</svg>
