<svg id="Layer_1" xmlns="http://www.w3.org/2000/svg" viewBox="0 0 50 50"><path fill="#F4F4F5" d="M14.8 33h25.3c2.9 0 5.2-2.3 5.2-5.2V17.2v-.1-.1-.1-.1-.1-.1-.1-.1-.1-.1h-.1-.1-.2-.1-.1-.1-.1l-32-4.4V7v-.1-.1-.1-.1-.1-.1-.1l-.1-.1-.1-.1h-.1-.1s-.1 0-.1-.1L4.5 2.9c-.7-.3-1.4 0-1.7.7s0 1.4.7 1.7l6.2 2.6v27.9c0 2.6 2 4.8 4.5 5.2-.5.8-.7 1.7-.7 2.6 0 2.8 2.3 5.1 5.1 5.1s5.1-2.3 5.1-5.1c0-.9-.3-1.8-.7-2.6h11.4c-.5.8-.7 1.7-.7 2.6 0 2.8 2.3 5.1 5.1 5.1s5.1-2.3 5.1-5.1-2.3-5.1-5.1-5.1h-24c-1.5 0-2.7-1.2-2.7-2.7v-3.5c.8.4 1.8.7 2.7.7zm6.4 10.5c0 1.4-1.2 2.6-2.6 2.6-1.4 0-2.6-1.2-2.6-2.6 0-1.4 1.2-2.6 2.6-2.6 1.4 0 2.6 1.2 2.6 2.6zm20.3 0c0 1.4-1.2 2.6-2.6 2.6-1.4 0-2.6-1.2-2.6-2.6 0-1.4 1.2-2.6 2.6-2.6 1.4 0 2.6 1.2 2.6 2.6zm-1.4-13H14.8c-1.5 0-2.7-1.2-2.7-2.7V14l30.6 4.2v9.5c.1 1.6-1.1 2.8-2.6 2.8z"/></svg>