<?xml version="1.0" encoding="utf-8"?>
<!-- Generator: Adobe Illustrator 20.1.0, SVG Export Plug-In . SVG Version: 6.00 Build 0)  -->
<svg version="1.1" id="Layer_1" xmlns="http://www.w3.org/2000/svg" xmlns:xlink="http://www.w3.org/1999/xlink" x="0px" y="0px"
	 viewBox="0 0 50 50" enable-background="new 0 0 50 50" xml:space="preserve">
<g>
	<path fill="#565656" d="M14.7,32.4h25.7c2.9,0,5.3-2.4,5.3-5.3V16.3c0,0,0,0,0,0c0,0,0,0,0-0.1c0,0,0,0,0-0.1c0,0,0,0,0-0.1
		s0,0,0-0.1c0,0,0,0,0-0.1c0,0,0,0,0-0.1c0,0,0,0,0-0.1c0,0,0,0,0-0.1c0,0,0,0,0,0c0,0,0,0,0-0.1c0,0,0,0,0,0c0,0,0,0,0-0.1
		c0,0,0,0,0,0c0,0,0,0,0,0s0,0,0,0c0,0,0,0,0,0c0,0,0,0,0,0c0,0,0,0,0,0c0,0,0,0-0.1,0c0,0,0,0,0,0c0,0,0,0-0.1,0c0,0,0,0-0.1,0
		c0,0,0,0-0.1,0c0,0,0,0-0.1,0s0,0-0.1,0c0,0,0,0-0.1,0s0,0,0,0c0,0,0,0-0.1,0c0,0,0,0,0,0L12,10.5V6c0,0,0-0.1,0-0.1c0,0,0,0,0,0
		c0,0,0-0.1,0-0.1c0,0,0,0,0-0.1c0,0,0,0,0,0c0,0,0-0.1,0-0.1c0,0,0,0,0,0c0,0,0,0,0-0.1c0,0,0,0,0,0c0,0,0,0,0-0.1c0,0,0,0,0,0
		s0,0,0,0c0,0,0,0,0-0.1c0,0,0,0,0,0c0,0,0,0-0.1-0.1c0,0,0,0,0,0c0,0,0,0-0.1-0.1c0,0,0,0,0,0c0,0,0,0-0.1,0c0,0-0.1,0-0.1,0
		c0,0,0,0,0,0c0,0-0.1,0-0.1-0.1l-7.1-3c-0.7-0.3-1.4,0-1.7,0.7s0,1.4,0.7,1.7l6.3,2.6v5.9v0.9v7.1v6.4v8.1c0,2.7,2,4.9,4.6,5.2
		c-0.5,0.8-0.7,1.7-0.7,2.7c0,2.9,2.3,5.2,5.2,5.2s5.2-2.3,5.2-5.2c0-1-0.3-1.9-0.7-2.6h11.6c-0.5,0.8-0.7,1.7-0.7,2.6
		c0,2.9,2.3,5.2,5.2,5.2s5.2-2.3,5.2-5.2s-2.3-5.2-5.2-5.2H14.7c-1.5,0-2.7-1.2-2.7-2.7v-3.5C12.8,32.1,13.7,32.4,14.7,32.4z
		 M21.1,43.1c0,1.5-1.2,2.6-2.6,2.6s-2.6-1.2-2.6-2.6c0-1.4,1.2-2.6,2.6-2.6S21.1,41.6,21.1,43.1z M41.8,43.1c0,1.5-1.2,2.6-2.6,2.6
		c-1.4,0-2.6-1.2-2.6-2.6c0-1.4,1.2-2.6,2.6-2.6C40.6,40.4,41.8,41.6,41.8,43.1z M40.4,29.8H14.7c-1.5,0-2.7-1.2-2.7-2.7v-6.4v-7.1
		v-0.5l31.1,4.3v9.7C43.1,28.6,41.9,29.8,40.4,29.8z"/>
</g>
</svg>
