<?xml version="1.0" encoding="utf-8"?>
<!-- Generator: Adobe Illustrator 20.1.0, SVG Export Plug-In . SVG Version: 6.00 Build 0)  -->
<svg version="1.1" id="Layer_1" xmlns="http://www.w3.org/2000/svg" xmlns:xlink="http://www.w3.org/1999/xlink" x="0px" y="0px"
	 viewBox="0 0 50 50" enable-background="new 0 0 50 50" xml:space="preserve">
<g>
	<path fill="#F4F4F5" d="M14.8,33h25.3c2.9,0,5.2-2.3,5.2-5.2V17.2c0,0,0,0,0,0c0,0,0,0,0-0.1c0,0,0,0,0-0.1c0,0,0,0,0-0.1
		s0,0,0-0.1c0,0,0,0,0-0.1c0,0,0,0,0-0.1c0,0,0,0,0-0.1c0,0,0,0,0-0.1c0,0,0,0,0,0c0,0,0,0,0-0.1c0,0,0,0,0,0c0,0,0,0,0-0.1
		c0,0,0,0,0,0c0,0,0,0,0,0s0,0,0,0c0,0,0,0,0,0c0,0,0,0,0,0c0,0,0,0,0,0c0,0,0,0-0.1,0c0,0,0,0,0,0c0,0,0,0-0.1,0c0,0,0,0-0.1,0
		s0,0-0.1,0c0,0,0,0-0.1,0c0,0,0,0-0.1,0c0,0,0,0-0.1,0c0,0,0,0,0,0c0,0,0,0-0.1,0c0,0,0,0,0,0l-32-4.4V7c0,0,0-0.1,0-0.1
		c0,0,0,0,0,0c0,0,0-0.1,0-0.1c0,0,0,0,0-0.1c0,0,0,0,0,0c0,0,0-0.1,0-0.1c0,0,0,0,0,0c0,0,0,0,0-0.1c0,0,0,0,0,0c0,0,0,0,0-0.1
		c0,0,0,0,0,0c0,0,0,0,0,0c0,0,0,0,0-0.1c0,0,0,0,0,0c0,0,0,0-0.1-0.1c0,0,0,0,0,0c0,0,0,0-0.1-0.1c0,0,0,0,0,0c0,0,0,0-0.1,0
		c0,0-0.1,0-0.1,0c0,0,0,0,0,0c0,0-0.1,0-0.1-0.1L4.5,2.9c-0.7-0.3-1.4,0-1.7,0.7s0,1.4,0.7,1.7l6.2,2.6v5.8v0.9v7v6.3v7.9
		c0,2.6,2,4.8,4.5,5.2c-0.5,0.8-0.7,1.7-0.7,2.6c0,2.8,2.3,5.1,5.1,5.1s5.1-2.3,5.1-5.1c0-0.9-0.3-1.8-0.7-2.6h11.4
		c-0.5,0.8-0.7,1.7-0.7,2.6c0,2.8,2.3,5.1,5.1,5.1s5.1-2.3,5.1-5.1s-2.3-5.1-5.1-5.1h-24c-1.5,0-2.7-1.2-2.7-2.7v-3.5
		C12.9,32.7,13.9,33,14.8,33z M21.2,43.5c0,1.4-1.2,2.6-2.6,2.6c-1.4,0-2.6-1.2-2.6-2.6c0-1.4,1.2-2.6,2.6-2.6
		C20,40.9,21.2,42.1,21.2,43.5z M41.5,43.5c0,1.4-1.2,2.6-2.6,2.6c-1.4,0-2.6-1.2-2.6-2.6c0-1.4,1.2-2.6,2.6-2.6
		C40.3,40.9,41.5,42.1,41.5,43.5z M40.1,30.5H14.8c-1.5,0-2.7-1.2-2.7-2.7v-6.3v-7V14l30.6,4.2v9.5C42.8,29.3,41.6,30.5,40.1,30.5z"
		/>
</g>
</svg>
