<?xml version="1.0" encoding="utf-8"?>
<!-- Generator: Adobe Illustrator 21.0.2, SVG Export Plug-In . SVG Version: 6.00 Build 0)  -->
<svg version="1.1" id="Layer_1" xmlns="http://www.w3.org/2000/svg" xmlns:xlink="http://www.w3.org/1999/xlink" x="0px" y="0px"
	 viewBox="0 0 150 150" style="enable-background:new 0 0 150 150;" xml:space="preserve">
<style type="text/css">
	.st0{fill:#703081;}
	.st1{fill:#F2BA59;}
	.st2{fill:none;}
</style>
<g id="Layer_1_1_">
	<path class="st0" d="M131.1,55.1c0.1-0.9,0.1-1.6,0.1-2.5c0-11.6-9.5-21.1-21.1-21.1c-1.5,0-2.9,0.1-4.4,0.5
		c-4.6-12.9-17-21.6-30.8-21.6s-26.1,8.8-30.8,21.5c-1.4-0.3-2.9-0.5-4.4-0.5c-11.6,0-21.1,9.5-21.1,21.1c0,0.7,0,1.6,0.1,2.5
		C8.3,56.1,0,65.1,0,76c0,11.6,9.5,21.1,21.1,21.1h18.8v-4.8H21.1c-9,0-16.4-7.4-16.4-16.4s7.4-16.4,16.6-16.4l0,0h0.4
		c0.7,0,1.5-0.3,1.9-0.9c0.5-0.6,0.6-1.4,0.5-2c-0.4-1.4-0.5-2.8-0.5-4.1c0-9,7.4-16.4,16.4-16.4c1.8,0,3.5,0.3,5.1,0.9
		c0.6,0.3,1.3,0.1,1.9-0.1c0.6-0.3,1-0.8,1.1-1.4c3.3-12,14.4-20.4,26.9-20.4s23.6,8.4,27,20.4c0.1,0.6,0.6,1.1,1.1,1.4
		c0.6,0.3,1.3,0.4,1.9,0.1c1.6-0.5,3.4-0.9,5.1-0.9c9,0,16.4,7.4,16.4,16.4c0,1.4-0.1,2.8-0.5,4.1c-0.1,0.8,0,1.5,0.5,2
		c0.5,0.6,1.1,0.9,1.9,0.9h0.5c9,0,16.4,7.4,16.4,16.4s-7.4,16.4-16.4,16.4h-18.8V97h18.8c11.6,0,21.1-9.5,21.1-21.1
		C150,65.1,141.8,56.1,131.1,55.1z"/>
	<path class="st1" d="M56.3,43.2h-4.8C51.5,30.4,62,19.7,75,19.7v4.8C64.6,24.5,56.3,32.9,56.3,43.2z"/>
</g>
<g id="Layer_2">
</g>
<g id="Layer_2_1_">
</g>
<g>
	<g>
		<polygon class="st2" points="93.6,87.3 89.5,87.3 89.5,84.5 60.7,84.5 60.7,87.3 56.6,87.3 56.6,84.5 50.1,84.5 50.1,93.3 
			100.1,93.3 100.1,84.5 93.6,84.5 		"/>
		<path class="st2" d="M50.1,128.4h50v-31h-50V128.4z M90.9,122.3c-1.7,0-3.1-1.4-3.1-3.1s1.4-3.1,3.1-3.1s3.1,1.4,3.1,3.1
			S92.6,122.3,90.9,122.3z M90.9,102.5c1.7,0,3.1,1.4,3.1,3.1s-1.4,3.1-3.1,3.1s-3.1-1.4-3.1-3.1C87.8,103.9,89.2,102.5,90.9,102.5z
			 M74.9,122.3c-1.7,0-3.1-1.4-3.1-3.1s1.4-3.1,3.1-3.1s3.1,1.4,3.1,3.1C77.9,120.9,76.6,122.3,74.9,122.3z M74.8,102.5
			c1.7,0,3.1,1.4,3.1,3.1s-1.4,3.1-3.1,3.1s-3.1-1.4-3.1-3.1S73.1,102.5,74.8,102.5z M58.8,122.3c-1.7,0-3.1-1.4-3.1-3.1
			s1.4-3.1,3.1-3.1c1.7,0,3.1,1.4,3.1,3.1S60.5,122.3,58.8,122.3z M58.8,102.5c1.7,0,3.1,1.4,3.1,3.1s-1.4,3.1-3.1,3.1
			s-3.1-1.4-3.1-3.1S57.1,102.5,58.8,102.5z"/>
		<path class="st0" d="M101.2,80.4h-7.7v-4.6h-4.1v4.6H60.7v-4.6h-4.1v4.6h-7.7c-1.6,0-3,1.3-3,3v46.1c0,1.6,1.3,3,3,3h52.3
			c1.6,0,3-1.3,3-3V83.4C104.2,81.7,102.9,80.4,101.2,80.4z M100.1,128.4h-50v-31h50C100.1,97.4,100.1,128.4,100.1,128.4z
			 M100.1,93.3h-50v-8.7h6.5v2.8h4.1v-2.8h28.7v2.8h4.1v-2.8h6.5L100.1,93.3L100.1,93.3z"/>
		<path class="st1" d="M58.8,108.6c1.7,0,3.1-1.4,3.1-3.1s-1.4-3.1-3.1-3.1s-3.1,1.4-3.1,3.1C55.7,107.3,57.1,108.6,58.8,108.6z"/>
		<path class="st1" d="M90.9,108.6c1.7,0,3.1-1.4,3.1-3.1s-1.4-3.1-3.1-3.1s-3.1,1.4-3.1,3.1C87.8,107.3,89.2,108.6,90.9,108.6z"/>
		<path class="st1" d="M74.8,108.6c1.7,0,3.1-1.4,3.1-3.1s-1.4-3.1-3.1-3.1s-3.1,1.4-3.1,3.1C71.7,107.3,73.1,108.6,74.8,108.6z"/>
		<path class="st1" d="M58.8,116.1c-1.7,0-3.1,1.4-3.1,3.1s1.4,3.1,3.1,3.1c1.7,0,3.1-1.4,3.1-3.1S60.5,116.1,58.8,116.1z"/>
		<path class="st1" d="M74.9,116.1c-1.7,0-3.1,1.4-3.1,3.1s1.4,3.1,3.1,3.1s3.1-1.4,3.1-3.1C77.9,117.5,76.6,116.1,74.9,116.1z"/>
		<path class="st1" d="M90.9,116.1c-1.7,0-3.1,1.4-3.1,3.1s1.4,3.1,3.1,3.1s3.1-1.4,3.1-3.1S92.6,116.1,90.9,116.1z"/>
	</g>
</g>
</svg>
