<?xml version="1.0" encoding="utf-8"?>
<!-- Generator: Adobe Illustrator 21.0.2, SVG Export Plug-In . SVG Version: 6.00 Build 0)  -->
<svg version="1.1" id="Layer_1" xmlns="http://www.w3.org/2000/svg" xmlns:xlink="http://www.w3.org/1999/xlink" x="0px" y="0px"
	 viewBox="0 0 150 126.6" style="enable-background:new 0 0 150 126.6;" xml:space="preserve">
<style type="text/css">
	.st0{fill:#703081;}
	.st1{fill:none;stroke:#F2BA59;stroke-width:4;stroke-linecap:round;stroke-linejoin:round;stroke-miterlimit:10;}
	.st2{fill:none;stroke:#F2BA59;stroke-width:4;stroke-miterlimit:10;}
	.st3{fill:none;stroke:#703081;stroke-width:4;stroke-miterlimit:10;}
	.st4{fill:none;stroke:#703081;stroke-width:4;stroke-linecap:round;stroke-linejoin:round;stroke-miterlimit:10;}
</style>
<g>
	<path class="st0" d="M138,0H11.8C5.4,0,0,5.2,0,11.8v103.1c0,6.4,5.2,11.8,11.8,11.8h126.4c6.4,0,11.8-5.2,11.8-11.8V11.6
		C149.8,5.2,144.6,0,138,0z M145.2,114.6c0,3.8-3.2,7-7,7H11.8c-3.8,0-7-3.2-7-7v-103c0-3.8,3.2-7,7-7h126.4c3.8,0,7,3.2,7,7V114.6z
		"/>
</g>
<g>
	<path class="st1" d="M56.6,88C55.1,79.5,53.5,71,52,62.6c-1.8-8.4,2.9-15.6,11.2-19.1"/>
	<path class="st1" d="M86.3,43.5c8.3,3.5,13,10.7,11.2,19.1C96,71,94.4,79.5,92.9,88"/>
	<path class="st2" d="M89.8,33.9c0,3.6-1.3,6.9-3.4,9.5c-2.8,3.3-6.9,5.5-11.6,5.5c-4.7,0-8.8-2.1-11.6-5.5
		c-2.1-2.6-3.4-5.9-3.4-9.5c0-8.3,6.7-15,15-15S89.8,25.7,89.8,33.9z"/>
	<circle class="st3" cx="36.1" cy="44.2" r="12.4"/>
	<circle class="st3" cx="113.9" cy="43.3" r="12.4"/>
	<path class="st4" d="M121,53.5c6.5,2.9,10.2,8.8,8.7,15.6c-1.3,7-2.5,14-3.8,21c-1.9,9.7-7.7,9.9-15,9.9l0,0
		c-4.7,0-8.8-0.1-11.6-2.8l-0.1-0.1l0,0c0,5.8-4.7,10.5-10.5,10.5H61.3c-5.8,0-10.5-4.7-10.5-10.5l0,0l0,0.1
		c-2.8,2.7-6.9,2.8-11.6,2.8l0,0c-7.3,0-13.1-0.2-15-9.9c-1.3-7-2.5-14-3.8-21c-1.4-6.5,1.9-12.2,8-15.2"/>
</g>
</svg>
