<?xml version="1.0" encoding="utf-8"?>
<!-- Generator: Adobe Illustrator 21.0.2, SVG Export Plug-In . SVG Version: 6.00 Build 0)  -->
<svg version="1.1" id="Layer_1" xmlns="http://www.w3.org/2000/svg" xmlns:xlink="http://www.w3.org/1999/xlink" x="0px" y="0px"
	 viewBox="0 0 150 150" style="enable-background:new 0 0 150 150;" xml:space="preserve">
<style type="text/css">
	.st0{fill:#D8427D;}
</style>
<g>
	<g>
		<g>
			<path class="st0" d="M100.8,84.7c-3-2.4-6.2-4.1-6.8-4.4c-0.1,0-0.1-0.1-0.1-0.2v-4.6c0.6-0.4,1-1,1-1.8v-4.8
				c0-2.4-1.9-4.3-4.3-4.3H90h-0.5c-2.4,0-4.3,1.9-4.3,4.3v4.8c0,0.8,0.4,1.4,1,1.8v4.6c0,0,0,0.1,0,0.1c0.9,0.6,1.9,1.3,2.8,2.1
				c1.1,0.9,1.7,2.2,1.7,3.6v3.9h11v-3.3C101.7,85.8,101.3,85.1,100.8,84.7z"/>
		</g>
		<g>
			<path class="st0" d="M87.7,83.8c-3.5-2.9-7.2-4.8-8-5.1c-0.1,0-0.1-0.1-0.1-0.2V73c0.7-0.5,1.1-1.2,1.1-2.1v-5.6
				c0-2.8-2.3-5.1-5.1-5.1H75h-0.6c-2.8,0-5.1,2.3-5.1,5.1v5.6c0,0.9,0.4,1.7,1.1,2.1v5.4c0,0.1-0.1,0.2-0.1,0.2
				c-0.8,0.4-4.5,2.3-8,5.1c-0.6,0.5-1,1.3-1,2.1v3.9H75h13.7v-3.9C88.7,85.1,88.3,84.3,87.7,83.8z"/>
		</g>
		<g>
			<path class="st0" d="M63.8,80.1v-4.6c0.6-0.4,1-1,1-1.8v-4.8c0-2.4-1.9-4.3-4.3-4.3H60h-0.5c-2.4,0-4.3,1.9-4.3,4.3v4.8
				c0,0.8,0.4,1.4,1,1.8v4.6c0,0.1,0,0.2-0.1,0.2c-0.6,0.3-3.8,1.9-6.8,4.4c-0.5,0.4-0.8,1.1-0.8,1.8v3.3h11v-3.9
				c0-1.4,0.6-2.7,1.7-3.6C62,81.5,62.9,80.8,63.8,80.1C63.9,80.2,63.8,80.1,63.8,80.1z"/>
		</g>
		<g>
			<path class="st0" d="M111.8,85.7c-2.4-2-4.9-3.2-5.5-3.5c-0.1,0-0.1-0.1-0.1-0.2v-3.7c0.5-0.3,0.8-0.8,0.8-1.4V73
				c0-1.9-1.6-3.5-3.5-3.5h-0.4h-0.4c-1.9,0-3.5,1.6-3.5,3.5v3.8c0,0.6,0.3,1.1,0.8,1.4v3.3c0.7,0.5,1.3,1,2,1.5
				c1,0.8,1.6,2,1.6,3.3v3.3h8.8v-2.6C112.5,86.6,112.3,86,111.8,85.7z"/>
		</g>
		<g>
			<path class="st0" d="M49.9,78.3c0.5-0.3,0.8-0.8,0.8-1.4v-3.8c0-1.9-1.6-3.5-3.5-3.5h-0.4h-0.4c-1.9,0-3.5,1.6-3.5,3.5v3.8
				c0,0.6,0.3,1.1,0.8,1.4V82c0,0.1,0,0.1-0.1,0.2c-0.5,0.3-3.1,1.6-5.5,3.5c-0.4,0.4-0.7,0.9-0.7,1.4v2.6h8.8v-3.3
				c0-1.3,0.6-2.5,1.6-3.3c0.7-0.6,1.4-1.1,2-1.5C49.9,81.6,49.9,78.3,49.9,78.3z"/>
		</g>
	</g>
</g>
</svg>
