<svg id="Layer_1" xmlns="http://www.w3.org/2000/svg" viewBox="0 0 50 50"><path fill="#D9BBD9" d="M46.3 13.1c-2.2-3.7-5.1-6.7-8.8-8.8C33.7 2.1 29.7 1 25.3 1c-4.4 0-8.5 1.1-12.2 3.3-3.7 2.2-6.7 5.1-8.8 8.8C2.1 16.8 1 20.9 1 25.3c0 4.4 1.1 8.5 3.3 12.2 2.2 3.7 5.1 6.7 8.8 8.8 3.7 2.2 7.8 3.3 12.2 3.3s8.5-1.1 12.2-3.3c3.7-2.2 6.7-5.1 8.8-8.8 2.2-3.7 3.3-7.8 3.3-12.2-.1-4.4-1.2-8.5-3.3-12.2zM36.7 31c.4.4.6.9.6 1.4 0 .6-.2 1.1-.6 1.5l-2.8 2.8c-.4.4-.9.6-1.5.6-.5 0-1-.2-1.4-.6L25.3 31l-5.7 5.7c-.4.4-.9.6-1.4.6-.6 0-1.1-.2-1.5-.6l-2.8-2.8c-.4-.4-.6-.9-.6-1.5 0-.5.2-1 .6-1.4l5.7-5.7-5.7-5.7c-.4-.4-.6-.9-.6-1.4 0-.6.2-1.1.6-1.5l2.8-2.8c.4-.4.9-.6 1.5-.6.5 0 1 .2 1.4.6l5.7 5.7 5.7-5.7c.4-.4.9-.6 1.4-.6.6 0 1.1.2 1.5.6l2.8 2.8c.4.4.6.9.6 1.5 0 .5-.2 1-.6 1.4L31 25.3l5.7 5.7z"/></svg>