<?xml version="1.0" encoding="utf-8"?>
<!-- Generator: Adobe Illustrator 20.1.0, SVG Export Plug-In . SVG Version: 6.00 Build 0)  -->
<svg version="1.1" id="Layer_1" xmlns="http://www.w3.org/2000/svg" xmlns:xlink="http://www.w3.org/1999/xlink" x="0px" y="0px"
	 viewBox="0 0 50 50" enable-background="new 0 0 50 50" xml:space="preserve">
<g>
	<path fill="#D9BBD9" d="M46.3,13.1c-2.2-3.7-5.1-6.7-8.8-8.8C33.7,2.1,29.7,1,25.3,1c-4.4,0-8.5,1.1-12.2,3.3
		c-3.7,2.2-6.7,5.1-8.8,8.8C2.1,16.8,1,20.9,1,25.3c0,4.4,1.1,8.5,3.3,12.2c2.2,3.7,5.1,6.7,8.8,8.8c3.7,2.2,7.8,3.3,12.2,3.3
		s8.5-1.1,12.2-3.3c3.7-2.2,6.7-5.1,8.8-8.8c2.2-3.7,3.3-7.8,3.3-12.2C49.5,20.9,48.4,16.8,46.3,13.1z M36.7,31
		c0.4,0.4,0.6,0.9,0.6,1.4c0,0.6-0.2,1.1-0.6,1.5l-2.8,2.8c-0.4,0.4-0.9,0.6-1.5,0.6c-0.5,0-1-0.2-1.4-0.6L25.3,31l-5.7,5.7
		c-0.4,0.4-0.9,0.6-1.4,0.6c-0.6,0-1.1-0.2-1.5-0.6l-2.8-2.8c-0.4-0.4-0.6-0.9-0.6-1.5c0-0.5,0.2-1,0.6-1.4l5.7-5.7l-5.7-5.7
		c-0.4-0.4-0.6-0.9-0.6-1.4c0-0.6,0.2-1.1,0.6-1.5l2.8-2.8c0.4-0.4,0.9-0.6,1.5-0.6c0.5,0,1,0.2,1.4,0.6l5.7,5.7l5.7-5.7
		c0.4-0.4,0.9-0.6,1.4-0.6c0.6,0,1.1,0.2,1.5,0.6l2.8,2.8c0.4,0.4,0.6,0.9,0.6,1.5c0,0.5-0.2,1-0.6,1.4L31,25.3L36.7,31z"/>
</g>
</svg>
