<?xml version="1.0" encoding="utf-8"?>
<!-- Generator: Adobe Illustrator 20.1.0, SVG Export Plug-In . SVG Version: 6.00 Build 0)  -->
<svg version="1.1" id="Layer_1" xmlns="http://www.w3.org/2000/svg" xmlns:xlink="http://www.w3.org/1999/xlink" x="0px" y="0px"
	 viewBox="0 0 50 50" enable-background="new 0 0 50 50" xml:space="preserve">
<g>
	<path fill="#F4F4F5" d="M41.9,19.7c-0.4-7.2-6.4-13-13.6-13c-4.4,0-8.6,2.1-11.2,5.6c-0.1,0-0.1-0.1-0.2-0.1
		c-0.2-0.1-0.3-0.2-0.5-0.2c-0.1,0-0.2-0.1-0.3-0.1c-0.2-0.1-0.3-0.1-0.5-0.2c-0.1,0-0.2-0.1-0.3-0.1c-0.2,0-0.4-0.1-0.6-0.1
		c-0.1,0-0.2,0-0.2,0c-0.3,0-0.5,0-0.8,0c-4,0-7.2,3.2-7.2,7.2c0,0.1,0,0.2,0,0.3c-3.3,1.8-5.6,5.6-5.6,9.5
		c0,5.7,4.6,10.3,10.3,10.3h2.5c0.4,0,0.8-0.4,0.8-0.8s-0.4-0.8-0.8-0.8h-2.5c-4.8,0-8.7-3.9-8.7-8.7c0-3.3,2.2-6.8,5.2-8.2L8.1,20
		v-0.5c0-0.1,0-0.2,0-0.3l0-0.1l0-0.2c0-0.1,0-0.1,0-0.2c0-3.1,2.5-5.6,5.6-5.6c0.2,0,0.5,0,0.7,0.1c0.1,0,0.1,0,0.2,0
		c0.2,0,0.4,0.1,0.6,0.1c0,0,0.1,0,0.1,0c0.2,0.1,0.5,0.2,0.7,0.3c0.1,0,0.1,0.1,0.2,0.1c0.2,0.1,0.4,0.2,0.6,0.3
		c1.5,1,2.6,2.7,2.6,4.7c0,0.4,0.4,0.8,0.8,0.8c0.4,0,0.8-0.4,0.8-0.8c0-2.2-1-4.2-2.6-5.5c2.3-3,6.1-4.9,9.9-4.9
		c6.2,0,11.4,4.9,11.9,11.2c-0.8-0.1-2.1-0.1-3.3,0.1c-0.4,0.1-0.7,0.5-0.7,0.9c0.1,0.4,0.4,0.7,0.8,0.7c0,0,0.1,0,0.1,0
		c1.8-0.3,3.7,0,3.8,0c3.7,0.7,6.6,4.2,6.6,8c0,4.4-3.6,8.1-8.1,8.1H13.7c-0.4,0-0.8,0.4-0.8,0.8s0.4,0.8,0.8,0.8h25.7
		c5.3,0,9.7-4.3,9.7-9.7C49.1,24.7,46,20.8,41.9,19.7z"/>
</g>
</svg>
