<?xml version="1.0" encoding="utf-8"?>
<!-- Generator: Adobe Illustrator 21.0.2, SVG Export Plug-In . SVG Version: 6.00 Build 0)  -->
<svg version="1.1" id="Layer_1" xmlns="http://www.w3.org/2000/svg" xmlns:xlink="http://www.w3.org/1999/xlink" x="0px" y="0px"
	 viewBox="0 0 120 131.7" style="enable-background:new 0 0 120 131.7;" xml:space="preserve">
<style type="text/css">
	.st0{fill:#703081;}
	.st1{fill:#F2BA59;}
</style>
<g>
	<path class="st0" d="M119.2,48.2C116.6,39,108.6,33,99,33h-1.7c0.2-7.7-1.3-14.2-5.1-19.6C87.7,6.8,81.3,2.6,73.4,0.6
		c-2-0.4-3.8-0.6-6-0.6c-7.9,0-18.7,3.6-25.6,13.4c-2.6-1-5.5-1.7-8.6-1.7c-11.3,0-20.5,8.7-21.5,19.8c-0.9,0.4-1.9,1.3-3.2,2.3
		c-3,2.3-5.5,5.8-7,9.4c-2.4,6.2-2.2,13,1,18.7c4.1,7.7,10.2,11.8,19,12.4l13.8,0.2h9c3.4,0,6.4,2.8,6.4,6.4v9.4L44.4,84
		c-1-1-2.8-1-3.6,0c-1,1-1,2.8,0,3.6l9.4,9.4c0.9,0.9,2.2,1.3,3.4,1.3s2.3-0.4,3.4-1.3l9.4-9.4c1-1,1-2.8,0-3.6c-1-1-2.8-1-3.6,0
		l-6.4,6.4v-9.6c0-6.4-5.1-11.5-11.5-11.5H21.6c-6.6-0.4-11.5-3.6-14.5-9.6c-2.3-4.5-2.6-9.6-0.9-14.3c1.3-3,3-5.5,5.4-7.3
		c1.3-1,2.6-1.7,3.8-2.3l1.7-0.9V33c0.2-8.7,7.4-16,16.2-16c2.8,0,5.4,0.6,7.7,1.9l2.6,1.5l1.7-2.8c0.2-0.4,0.4-0.6,0.6-1
		C51.4,8.3,60.6,5.4,67.2,5.4c1.7,0,3.4,0.2,4.9,0.4c6.6,1.5,11.9,5.1,15.5,10.6c3.4,4.9,4.7,11.1,4.1,18.7v3h7
		c7,0,13.2,4.7,15.1,11.5c1.3,4.5,0.4,9.4-2.3,13.2c-2.8,3.8-7.3,6.2-11.9,6.4c-1.5,0-2.6,1.3-2.6,2.8s1.3,2.6,2.8,2.6
		c6.4-0.2,12.2-3.2,16-8.6C119.8,60.6,121,54.2,119.2,48.2z"/>
	<path class="st1" d="M84.5,69.3H73.8c-3.4,0-6.4-2.8-6.4-6.4V45.4l6.4,6.4c0.4,0.4,1.3,0.9,1.9,0.9c0.6,0,1.3-0.2,1.9-0.9
		c1-1,1-2.8,0-3.6l-9.4-9.4c-1.7-1.7-4.9-1.7-6.6,0l-9.4,9.4c-1,1-1,2.8,0,3.6c1,1,2.8,1,3.6,0l6.4-6.4v17.4
		c0,6.4,5.1,11.5,11.5,11.5h10.6c1.7,0,3.2,1.5,3.2,3.2v37.3c0,1.7-1.5,3.2-3.2,3.2H35.3c-1.7,0-3.2-1.5-3.2-3.2V83.7
		c0-1.5-1-2.6-2.6-2.6s-2.6,1-2.6,2.6v31.1c0,4.7,3.8,8.6,8.6,8.6H85c4.7,0,8.3-3.8,8.3-8.6v-37C93,73.1,89.4,69.3,84.5,69.3z"/>
	<path class="st0" d="M70.8,126.5H48.6c-1.5,0-2.6,1-2.6,2.6c0,1.5,1,2.6,2.6,2.6h21.9c1.5,0,2.6-1,2.6-2.6
		C73.1,127.6,72.1,126.5,70.8,126.5z"/>
</g>
</svg>
