<?xml version="1.0" encoding="utf-8"?>
<!-- Generator: Adobe Illustrator 21.0.2, SVG Export Plug-In . SVG Version: 6.00 Build 0)  -->
<svg version="1.1" id="Layer_1" xmlns="http://www.w3.org/2000/svg" xmlns:xlink="http://www.w3.org/1999/xlink" x="0px" y="0px"
	 viewBox="0 0 150 164.6" style="enable-background:new 0 0 150 164.6;" xml:space="preserve">
<style type="text/css">
	.st0{fill:#F2BA59;}
</style>
<g>
	<path class="st0" d="M99.3,67.6C97.2,59.9,90.5,55,82.5,55h-1.4c0.2-6.4-1.1-11.9-4.3-16.3c-3.7-5.5-9.1-9.1-15.6-10.7
		c-1.7-0.3-3.2-0.5-5-0.5c-6.6,0-15.6,3-21.3,11.2c-2.1-0.9-4.6-1.4-7.1-1.4c-9.4,0-17.1,7.3-17.9,16.5c-0.7,0.3-1.6,1.1-2.7,1.9
		c-2.5,1.9-4.6,4.8-5.8,7.8c-2,5.1-1.8,10.8,0.9,15.6c3.4,6.4,8.5,9.8,15.8,10.3l11.5,0.2H37c2.9,0,5.3,2.3,5.3,5.3v7.8L37,97.4
		c-0.9-0.9-2.3-0.9-3,0c-0.9,0.9-0.9,2.3,0,3l7.8,7.8c0.7,0.7,1.8,1.1,2.9,1.1s1.9-0.3,2.9-1.1l7.8-7.8c0.9-0.9,0.9-2.3,0-3
		c-0.9-0.9-2.3-0.9-3,0l-5.3,5.3v-8c0-5.3-4.3-9.6-9.6-9.6H18c-5.5-0.3-9.6-3-12.1-8c-1.9-3.7-2.1-8-0.7-11.9
		c1.1-2.5,2.5-4.6,4.5-6.1c1.1-0.9,2.1-1.4,3.2-1.9l1.4-0.7v-1.6c0.2-7.3,6.2-13.3,13.5-13.3c2.3,0,4.5,0.5,6.4,1.6l2.1,1.3l1.4-2.3
		c0.2-0.3,0.3-0.5,0.5-0.9c4.7-6.9,12.3-9.3,17.8-9.3c1.4,0,2.9,0.2,4.1,0.3c5.5,1.3,9.9,4.3,12.9,8.9c2.9,4.1,3.9,9.3,3.4,15.6v2.5
		h5.9c5.9,0,11,3.9,12.6,9.6c1.1,3.7,0.3,7.8-1.9,11c-2.3,3.2-6.1,5.1-9.9,5.3c-1.3,0-2.1,1.1-2.1,2.3s1.1,2.1,2.3,2.1
		c5.3-0.2,10.1-2.7,13.3-7.1C99.9,77.9,100.8,72.6,99.3,67.6z"/>
	<path class="st0" d="M70.4,85.2h-8.9c-2.9,0-5.3-2.3-5.3-5.3V65.2l5.3,5.3c0.3,0.3,1.1,0.7,1.6,0.7s1.1-0.2,1.6-0.7
		c0.9-0.9,0.9-2.3,0-3l-7.8-7.8c-1.4-1.4-4.1-1.4-5.5,0l-7.8,7.8c-0.9,0.9-0.9,2.3,0,3c0.9,0.9,2.3,0.9,3,0l5.3-5.3v14.5
		c0,5.3,4.3,9.6,9.6,9.6h8.9c1.4,0,2.7,1.3,2.7,2.7v31.1c0,1.4-1.3,2.7-2.7,2.7h-41c-1.4,0-2.7-1.3-2.7-2.7V97.2
		c0-1.3-0.9-2.1-2.1-2.1c-1.3,0-2.1,0.9-2.1,2.1v25.9c0,3.9,3.2,7.1,7.1,7.1h41.2c3.9,0,6.9-3.2,6.9-7.1V92.2
		C77.5,88.4,74.5,85.2,70.4,85.2z"/>
	<path class="st0" d="M59,132.9H40.5c-1.3,0-2.1,0.9-2.1,2.1c0,1.3,0.9,2.1,2.1,2.1h18.3c1.3,0,2.1-0.9,2.1-2.1
		C60.9,133.8,60.1,132.9,59,132.9z"/>
</g>
<g>
	<path class="st0" d="M122.5,147.1c-15.2,0-27.5-12.3-27.5-27.5s12.3-27.5,27.5-27.5s27.5,12.3,27.5,27.5S137.7,147.1,122.5,147.1z
		 M122.5,95C109,95,98,106,98,119.5s11,24.5,24.5,24.5s24.5-10.9,24.5-24.4S136,95,122.5,95z"/>
</g>
<path class="st0" d="M120.6,127.3c0-0.5,0-0.8,0-1.1c0-1.4,0.2-2.7,0.6-3.7c0.3-0.7,0.7-1.6,1.4-2.3c0.5-0.6,1.4-1.4,2.6-2.5
	c1.3-1.1,2-2,2.4-2.7s0.6-1.4,0.6-2.1c0-1.4-0.6-2.7-1.7-3.7c-1.1-1.1-2.5-1.6-4.1-1.6s-2.9,0.5-3.9,1.5c-1,0.9-1.6,2.1-1.9,4.2
	h-3.8c0.4-2.8,1.3-4.9,3-6.3c1.7-1.5,3.9-2.2,6.6-2.2c2.9,0,5.2,0.8,6.9,2.3c1.8,1.6,2.6,3.5,2.6,5.7c0,1.3-0.3,2.5-0.9,3.6
	c-0.6,1.1-1.8,2.4-3.5,4c-1.2,1-1.9,1.9-2.3,2.3c-0.4,0.5-0.6,1.1-0.8,1.8c-0.2,0.6-0.3,1.7-0.3,3.1h-3.4V127.3z"/>
<rect x="120.5" y="130.4" class="st0" width="4.2" height="4.2"/>
</svg>
