<?xml version="1.0" encoding="utf-8"?>
<!-- Generator: Adobe Illustrator 21.0.2, SVG Export Plug-In . SVG Version: 6.00 Build 0)  -->
<svg version="1.1" id="Layer_1" xmlns="http://www.w3.org/2000/svg" xmlns:xlink="http://www.w3.org/1999/xlink" x="0px" y="0px"
	 viewBox="0 0 150 126.6" style="enable-background:new 0 0 150 126.6;" xml:space="preserve">
<style type="text/css">
	.st0{fill:#703081;}
	.st1{fill:#F2BA59;}
</style>
<g>
	<path class="st0" d="M138,0H11.8C5.4,0,0,5.2,0,11.8v103.1c0,6.4,5.2,11.8,11.8,11.8h126.4c6.4,0,11.8-5.2,11.8-11.8V11.6
		C149.8,5.2,144.6,0,138,0z M145.2,114.6c0,3.8-3.2,7-7,7H11.8c-3.8,0-7-3.2-7-7v-103c0-3.8,3.2-7,7-7h126.4c3.8,0,7,3.2,7,7V114.6z
		"/>
</g>
<g>
	<path class="st1" d="M66.1,62c-8.1,0-14.7,6.5-14.7,14.7s6.5,14.7,14.7,14.7s14.7-6.5,14.7-14.7S74.2,62,66.1,62z M66.1,86
		c-5.2,0-9.3-4.1-9.3-9.3s4.1-9.3,9.3-9.3s9.3,4.1,9.3,9.3S71.3,86,66.1,86z"/>
	<path class="st0" d="M112.9,9H79.8c-6.7,0-12.1,5.5-12.1,12.1v14.5h-7.1c-1.5,0-2.7,1.2-2.7,2.7V43c-3.5,0.8-6.8,2.3-9.9,4.1
		l-3.3-3.3c-1.1-1.1-2.8-1.1-3.9,0l-7.7,7.7c-0.5,0.5-0.8,1.2-0.8,1.9s0.3,1.3,0.8,1.9l3.3,3.3c-1.9,3.1-3.2,6.4-4.1,9.9h-4.7
		c-1.5,0-2.7,1.2-2.7,2.7V82c0,1.5,1.2,2.7,2.7,2.7h4.7c0.8,3.5,2.3,6.8,4.1,9.9l-3.3,3.3c-1.1,1.1-1.1,2.8,0,3.9l7.7,7.7
		c1.1,1.1,2.8,1.1,3.9,0l3.3-3.3c3.1,1.9,6.4,3.2,9.9,4.1v4.7c0,1.5,1.2,2.7,2.7,2.7h10.9c1.5,0,2.7-1.2,2.7-2.7v-4.7
		c3.5-0.8,6.8-2.3,9.9-4.1l3.3,3.3c1.1,1.1,2.8,1.1,3.9,0l7.7-7.7c0.5-0.5,0.8-1.2,0.8-1.9S99.5,98.6,99,98l-3.3-3.3
		c1.9-3.1,3.2-6.4,4.1-9.9h4.7c1.5,0,2.7-1.2,2.7-2.7V71.2c0-1.5-1.2-2.7-2.7-2.7h-4.7c-0.3-1.2-0.7-2.5-1.1-3.7l5.1-3.7h9.1
		c6.7,0,12.1-5.5,12.1-12.1V21C125,14.4,119.5,9,112.9,9z M95,71.6c0.3,1.3,1.3,2.3,2.7,2.3h4.1v5.6h-4.1c-1.3,0-2.4,0.9-2.7,2.3
		c-0.8,4.3-2.4,8.3-4.9,11.9c-0.8,1.1-0.7,2.5,0.3,3.5l2.9,2.9l-4,4l-2.9-2.9c-0.9-0.9-2.4-1.1-3.5-0.3c-3.6,2.5-7.6,4.1-11.9,4.9
		c-1.3,0.3-2.3,1.3-2.3,2.7v4.1h-5.6v-4.1c0-1.3-0.9-2.4-2.3-2.7c-4.3-0.8-8.3-2.4-11.9-4.9c-1.1-0.8-2.5-0.7-3.5,0.3l-2.9,2.9l-4-4
		l2.9-2.9c0.9-0.9,1.1-2.4,0.3-3.5c-2.5-3.6-4.1-7.6-4.9-11.9c-0.3-1.3-1.3-2.3-2.7-2.3H30v-5.6h4.1c1.3,0,2.4-0.9,2.7-2.3
		c0.8-4.3,2.4-8.3,4.9-11.9c0.8-1.1,0.7-2.5-0.3-3.5l-2.9-2.9l4-4l2.9,2.9c0.9,0.9,2.4,1.1,3.5,0.3c3.6-2.5,7.6-4.1,11.9-4.9
		c1.3-0.3,2.3-1.3,2.3-2.7v-4.1h4.4V49c0,6.7,5.5,12.1,12.1,12.1h2.7v10.1c0,1.1,0.5,1.9,1.5,2.4c0.4,0.1,0.8,0.3,1.2,0.3
		c0.5,0,1.1-0.1,1.6-0.5l7.5-5.3C94.5,69.2,94.7,70.4,95,71.6z M119.7,49.1c0,3.7-3.1,6.8-6.8,6.8h-10c-0.5,0-1.1,0.1-1.6,0.5
		L87.8,66v-7.6c0-1.5-1.2-2.7-2.7-2.7h-5.3c-3.7,0-6.8-3.1-6.8-6.8V21c0-3.7,3.1-6.8,6.8-6.8h33.1c3.7,0,6.8,3.1,6.8,6.8
		C119.7,21,119.7,49.1,119.7,49.1z"/>
	<path class="st1" d="M96.1,17.8c-6.1,0-11.2,5.1-11.2,11.2c0,1.5,1.2,2.7,2.7,2.7s2.7-1.2,2.7-2.7c0-3.2,2.7-5.9,5.9-5.9
		c3.2,0,5.9,2.7,5.9,5.9s-4.1,7.3-6.9,10.1c-0.3,0.3-0.5,0.5-0.8,0.8c-1.1,1.1-1.1,2.8,0,3.9c0.5,0.5,1.2,0.8,1.9,0.8
		c0.7,0,1.3-0.3,1.9-0.8c0.3-0.3,0.5-0.5,0.8-0.8c3.6-3.6,8.5-8.4,8.5-13.9C107.3,22.8,102.2,17.8,96.1,17.8z"/>
	<path class="st1" d="M95.3,46.8c-0.8,0-1.7,0.4-2.3,0.9c-0.7,0.5-0.9,1.5-0.9,2.3s0.4,1.7,0.9,2.3c0.5,0.5,1.5,0.9,2.3,0.9
		s1.7-0.4,2.3-0.9c0.5-0.7,0.9-1.5,0.9-2.3s-0.4-1.7-0.9-2.3C96.9,47.2,96.1,46.8,95.3,46.8z"/>
</g>
</svg>
