<?xml version="1.0" encoding="utf-8"?>
<!-- Generator: Adobe Illustrator 21.0.2, SVG Export Plug-In . SVG Version: 6.00 Build 0)  -->
<svg version="1.1" id="Layer_1" xmlns="http://www.w3.org/2000/svg" xmlns:xlink="http://www.w3.org/1999/xlink" x="0px" y="0px"
	 viewBox="0 0 150 164.6" style="enable-background:new 0 0 150 164.6;" xml:space="preserve">
<style type="text/css">
	.st0{fill:#F2BA59;}
</style>
<g>
	<path class="st0" d="M149,60.2c-3.2-11.5-13.3-18.9-25.3-18.9h-2.1c0.3-9.6-1.6-17.8-6.4-24.5c-5.6-8.3-13.6-13.6-23.4-16
		C89.3,0.3,87,0,84.3,0c-9.9,0-23.4,4.5-32,16.8c-3.2-1.3-6.9-2.1-10.7-2.1c-14.1,0-25.6,10.9-26.9,24.8c-1.1,0.5-2.4,1.6-4,2.9
		C7,45.3,3.8,49.6,2,54.1c-3,7.7-2.7,16.2,1.3,23.4C8.4,87.1,16.1,92.2,27,93l17.3,0.3h11.2c4.3,0,8,3.5,8,8V113l-8-8
		c-1.3-1.3-3.5-1.3-4.5,0c-1.3,1.3-1.3,3.5,0,4.5l11.7,11.7c1.1,1.1,2.7,1.6,4.3,1.6s2.9-0.5,4.3-1.6L83,109.5
		c1.3-1.3,1.3-3.5,0-4.5c-1.3-1.3-3.5-1.3-4.5,0l-8,8v-12c0-8-6.4-14.4-14.4-14.4H27c-8.3-0.5-14.4-4.5-18.1-12
		C6,69,5.7,62.6,7.8,56.7c1.6-3.7,3.7-6.9,6.7-9.1c1.6-1.3,3.2-2.1,4.8-2.9l2.1-1.1v-2.4c0.3-10.9,9.3-20,20.2-20
		c3.5,0,6.7,0.8,9.6,2.4l3.2,1.9l2.1-3.5c0.3-0.5,0.5-0.8,0.8-1.3c7-10.3,18.5-14,26.7-14c2.1,0,4.3,0.3,6.1,0.5
		c8.3,1.9,14.9,6.4,19.4,13.3c4.3,6.1,5.9,13.9,5.1,23.4v3.7h8.8c8.8,0,16.5,5.9,18.9,14.4c1.6,5.6,0.5,11.7-2.9,16.5
		c-3.5,4.8-9.1,7.7-14.9,8c-1.9,0-3.2,1.6-3.2,3.5s1.6,3.2,3.5,3.2c8-0.3,15.2-4,20-10.7C149.8,75.7,151.2,67.7,149,60.2z"/>
	<path class="st0" d="M105.6,86.6H92.3c-4.3,0-8-3.5-8-8V56.7l8,8c0.5,0.5,1.6,1.1,2.4,1.1s1.6-0.3,2.4-1.1c1.3-1.3,1.3-3.5,0-4.5
		L85.4,48.5c-2.1-2.1-6.1-2.1-8.3,0L65.4,60.2c-1.3,1.3-1.3,3.5,0,4.5c1.3,1.3,3.5,1.3,4.5,0l8-8v21.8c0,8,6.4,14.4,14.4,14.4h13.3
		c2.1,0,4,1.9,4,4v46.6c0,2.1-1.9,4-4,4H44.1c-2.1,0-4-1.9-4-4v-38.9c0-1.9-1.3-3.2-3.2-3.2s-3.2,1.3-3.2,3.2v38.9
		c0,5.9,4.8,10.7,10.7,10.7h61.8c5.9,0,10.4-4.8,10.4-10.7V97.2C116.3,91.4,111.7,86.6,105.6,86.6z"/>
	<path class="st0" d="M88.5,158.2H60.8c-1.9,0-3.2,1.3-3.2,3.2s1.3,3.2,3.2,3.2h27.4c1.9,0,3.2-1.3,3.2-3.2S90.1,158.2,88.5,158.2z"
		/>
</g>
</svg>
