<?xml version="1.0" encoding="utf-8"?>
<!-- Generator: Adobe Illustrator 21.0.2, SVG Export Plug-In . SVG Version: 6.00 Build 0)  -->
<svg version="1.1" id="Layer_1" xmlns="http://www.w3.org/2000/svg" xmlns:xlink="http://www.w3.org/1999/xlink" x="0px" y="0px"
	 viewBox="0 0 150 150" style="enable-background:new 0 0 150 150;" xml:space="preserve">
<style type="text/css">
	.st0{fill:#703081;}
	.st1{fill:#F2BA59;}
</style>
<path class="st0" d="M149,54.9c-3.1-10.5-13.2-17.3-25.3-17.3h-2.2c0.3-8.7-1.6-16.2-6.4-22.3c-5.6-7.5-13.6-12.4-23.3-14.6
	C89.4,0.2,87.1,0,84.4,0c-9.9,0-23.3,4.1-32,15.3c-3.1-1.2-6.8-2-10.8-2c-14,0-25.5,10-26.8,22.7c-1.2,0.5-2.3,1.5-4.1,2.6
	C7,41.2,3.9,45.2,2,49.3C-1,56.4-0.7,64,3.4,70.6C8.4,79.3,16,84,26.9,84.6l17.3,0.2h11.2c4.4,0,8,3.2,8,7.3v10.7l-8-7.3
	c-1.4-1.2-3.5-1.2-4.5,0c-1.4,1.2-1.4,3.2,0,4.1l11.7,10.7c1.2,1.1,2.7,1.5,4.4,1.5c1.6,0,2.9-0.5,4.4-1.5L83,99.7
	c1.4-1.2,1.4-3.2,0-4.1c-1.4-1.2-3.5-1.2-4.5,0l-8,7.3V92.1c0-7.3-6.4-13.2-14.4-13.2H27.3c-8.2-0.5-14.4-4.1-18.1-10.8
	C6.4,63,6.1,57.3,8.1,51.8c1.6-3.4,3.7-6.2,6.7-8.2c1.6-1.2,3.1-2,4.9-2.6l2.2-1.1v-2.1c0.3-10,9.3-18.2,20.1-18.2
	c3.5,0,6.7,0.7,9.5,2.1l3.1,1.7l2.2-3.2c0.3-0.5,0.5-0.7,0.8-1.2C64.6,9.5,76.1,6.1,84.2,6.1c2.2,0,4.4,0.2,6,0.5
	c8.2,1.7,14.8,5.9,19.5,12.1c4.4,5.5,5.9,12.7,5,21.3v3.4h8.7c8.7,0,16.3,5.4,18.9,13.2c1.6,5.1,0.5,10.7-2.9,14.9
	c-3.5,4.5-9,7.1-14.8,7.3c-1.9,0-3.1,1.5-3.1,3.2c0,1.7,1.6,2.9,3.5,2.9c8-0.2,15.1-3.7,19.9-9.8C149.7,69.2,151.2,61.9,149,54.9z"
	/>
<path class="st1" d="M105.6,79.2H92.4c-4.4,0-8-3.2-8-7.3V51.9l8,7.3c0.5,0.5,1.6,1.1,2.3,1.1c0.8,0,1.6-0.2,2.3-1.1
	c1.4-1.2,1.4-3.2,0-4.1L85.3,44.4c-2.2-2-6-2-8.2,0L65.4,55.1c-1.4,1.2-1.4,3.2,0,4.1c1.4,1.2,3.5,1.2,4.5,0l8-7.3v19.9
	C78,79.2,84.4,85,92.4,85h13.2c2.2,0,4.1,1.7,4.1,3.7v42.4c0,2-1.9,3.7-4.1,3.7H44.3c-2.2,0-4.1-1.7-4.1-3.7V95.5
	c0-1.7-1.4-2.9-3.1-2.9c-1.9,0-3.1,1.2-3.1,2.9V131c0,5.4,4.9,9.8,10.8,9.8h61.5c5.9,0,10.3-4.5,10.3-9.8V88.8
	C116.4,83.4,111.9,79.2,105.6,79.2z"/>
<path class="st0" d="M88.6,144.3H61c-1.9,0-3.1,1.2-3.1,2.9c0,1.7,1.4,2.9,3.1,2.9h27.2c1.9,0,3.1-1.2,3.1-2.9
	C91.6,145.5,90.2,144.3,88.6,144.3z"/>
</svg>
