<?xml version="1.0" encoding="utf-8"?>
<!-- Generator: Adobe Illustrator 21.0.2, SVG Export Plug-In . SVG Version: 6.00 Build 0)  -->
<svg version="1.1" id="Layer_1" xmlns="http://www.w3.org/2000/svg" xmlns:xlink="http://www.w3.org/1999/xlink" x="0px" y="0px"
	 viewBox="0 0 150 150" style="enable-background:new 0 0 150 150;" xml:space="preserve">
<style type="text/css">
	.st0{fill:#703081;}
	.st1{fill:#D8427D;}
</style>
<g>
	<g>
		<g>
			<path class="st0" d="M117.5,38.4H22.9c-4.4,0-7.9,3.5-7.9,7.9v55.2c0,4.4,3.5,7.9,7.9,7.9h57.2c1.1,0,2-0.9,2-2c0-1.1-0.9-2-2-2
				H22.9c-2.2,0-3.9-1.8-3.9-3.9V46.3c0-2.2,1.8-3.9,3.9-3.9h94.6c2.2,0,3.9,1.8,3.9,3.9V68c0,1.1,0.9,2,2,2c1.1,0,2-0.9,2-2V46.3
				C125.4,41.9,121.9,38.4,117.5,38.4z"/>
			<path class="st1" d="M40.6,85.7H28.8c-1.1,0-2-0.9-2-2l0,0c0-1.1,0.9-2,2-2h11.8c1.1,0,2,0.9,2,2l0,0
				C42.6,84.8,41.7,85.7,40.6,85.7z"/>
			<path class="st0" d="M72.2,97.5H28.8c-1.1,0-2-0.9-2-2l0,0c0-1.1,0.9-2,2-2h43.4c1.1,0,2,0.9,2,2l0,0
				C74.1,96.6,73.3,97.5,72.2,97.5z"/>
			<path class="st1" d="M64.3,85.7H52.5c-1.1,0-2-0.9-2-2l0,0c0-1.1,0.9-2,2-2h11.8c1.1,0,2,0.9,2,2l0,0
				C66.3,84.8,65.4,85.7,64.3,85.7z"/>
			<path class="st1" d="M87.9,85.7H76.1c-1.1,0-2-0.9-2-2l0,0c0-1.1,0.9-2,2-2h11.8c1.1,0,2,0.9,2,2l0,0
				C89.9,84.8,89,85.7,87.9,85.7z"/>
			<path class="st1" d="M46.5,54.2v15.8H30.8V54.2H46.5 M46.5,50.2H30.8c-2.2,0-3.9,1.8-3.9,3.9v15.8c0,2.2,1.8,3.9,3.9,3.9h15.8
				c2.2,0,3.9-1.8,3.9-3.9V54.2C50.5,52,48.7,50.2,46.5,50.2L46.5,50.2z"/>
		</g>
	</g>
	<g>
		<path class="st1" d="M134.9,96.1l-1.9-5.4c-0.1-5.4-3.5-10-8.3-11.8c2.9,2.3,4.8,5.9,4.8,9.8l1.9,5.4c0.3,0.8-0.1,1.6-0.9,1.9
			l-1.8,0.6v4.4c0,1.6-1.3,3-3,3H122v6l3.5,1.6v-5.6h3.8c1.6,0,3-1.3,3-3v-4.4L134,98C134.8,97.8,135.2,96.9,134.9,96.1z"/>
		<path class="st0" d="M125.3,99.1v-4.4l1.8-0.6c0.8-0.3,1.2-1.1,0.9-1.9l-1.9-5.4c-0.1-4-2-7.5-4.9-9.8c-2.2-1.7-4.9-2.8-7.8-2.9
			c-0.3-1.3-1.5-2.2-2.9-2.2c-1.6,0-3,1.3-3,3v0.5c-4.4,2.1-7.5,6.6-7.5,11.8c0,4.2,2,7.9,5,10.3v5l13.5,6.1V102h3.8
			C124,102,125.3,100.7,125.3,99.1z M120.7,98.4c-0.2,0.2-0.5,0.3-0.8,0.3s-0.6-0.1-0.8-0.3l-5.4-5.4c-0.8,0.8-1.9,1.2-3.1,1.2
			c-2.5,0-4.5-2-4.5-4.5c0-2,1.3-3.6,3-4.3v-9.6v-1.1c0-0.8,0.7-1.5,1.5-1.5c0.8,0,1.5,0.7,1.5,1.5v0.5v10.2c1.8,0.6,3,2.3,3,4.3
			c0,0.4-0.1,0.8-0.2,1.1l5.8,5.8C121.2,97.2,121.2,97.9,120.7,98.4z"/>
	</g>
</g>
</svg>
