<svg id="Layer_1" xmlns="http://www.w3.org/2000/svg" viewBox="0 0 150 150"><style>.st0{fill:#703081}.st1{fill:#df6b90}</style><path class="st0" d="M117.6 37.5H22.9c-4.4 0-7.9 3.5-7.9 7.9v55.2c0 4.4 3.5 7.9 7.9 7.9h57.2c1.1 0 2-.9 2-2s-.9-2-2-2H22.9c-2.2 0-3.9-1.8-3.9-3.9V45.4c0-2.2 1.8-3.9 3.9-3.9h94.7c2.2 0 3.9 1.8 3.9 3.9v21.7c0 1.1.9 2 2 2s2-.9 2-2V45.4c0-4.3-3.6-7.9-7.9-7.9z"/><path class="st1" d="M40.6 84.9H28.8c-1.1 0-2-.9-2-2s.9-2 2-2h11.8c1.1 0 2 .9 2 2s-.9 2-2 2z"/><path class="st0" d="M72.2 96.7H28.8c-1.1 0-2-.9-2-2s.9-2 2-2h43.4c1.1 0 2 .9 2 2s-.9 2-2 2z"/><path class="st1" d="M64.3 84.9H52.5c-1.1 0-2-.9-2-2s.9-2 2-2h11.8c1.1 0 2 .9 2 2s-.9 2-2 2zM88 84.9H76.2c-1.1 0-2-.9-2-2s.9-2 2-2H88c1.1 0 2 .9 2 2s-.9 2-2 2zM46.6 53.3v15.8H30.8V53.3h15.8m0-3.9H30.8c-2.2 0-3.9 1.8-3.9 3.9v15.8c0 2.2 1.8 3.9 3.9 3.9h15.8c2.2 0 3.9-1.8 3.9-3.9V53.3c0-2.2-1.8-3.9-3.9-3.9z"/><g><path class="st1" d="M115.9 88.4h4.8v13.8h-4.8zM109.9 91.6h4.8v10.7h-4.8zM122 96.3h4.8v5.9H122z"/><g><path class="st0" d="M127.3 103.3c-2 2.4-4.8 3.9-8.1 4.2v5c5.1-.3 9.6-2.9 12.5-6.7l-4.4-2.5zM130 83.9l-3.7 3.4c2.2 2.1 3.6 5.1 3.6 8.5 0 2.2-.6 4.3-1.7 6.1l4.4 2.4c1.5-2.5 2.3-5.4 2.3-8.5.1-4.7-1.8-8.9-4.9-11.9zM128.8 82.8c-2.6-2.1-5.9-3.5-9.5-3.7v5c2.2.2 4.1.9 5.8 2.1l3.7-3.4zM117.6 107.5c-6.1-.4-11-5.5-11-11.7s4.8-11.3 11-11.7v-5c-8.9.4-15.9 7.7-15.9 16.7s7.1 16.3 15.9 16.7v-5z"/></g></g></svg>