<?xml version="1.0" encoding="utf-8"?>
<!-- Generator: Adobe Illustrator 21.0.2, SVG Export Plug-In . SVG Version: 6.00 Build 0)  -->
<svg version="1.1" id="Layer_1" xmlns="http://www.w3.org/2000/svg" xmlns:xlink="http://www.w3.org/1999/xlink" x="0px" y="0px"
	 viewBox="0 0 150 150" style="enable-background:new 0 0 150 150;" xml:space="preserve">
<style type="text/css">
	.st0{fill:#703081;}
	.st1{fill:#DF6B90;}
</style>
<g>
	<g>
		<path class="st0" d="M117.6,37.5H22.9c-4.4,0-7.9,3.5-7.9,7.9v55.2c0,4.4,3.5,7.9,7.9,7.9h57.2c1.1,0,2-0.9,2-2s-0.9-2-2-2H22.9
			c-2.2,0-3.9-1.8-3.9-3.9V45.4c0-2.2,1.8-3.9,3.9-3.9h94.7c2.2,0,3.9,1.8,3.9,3.9v21.7c0,1.1,0.9,2,2,2s2-0.9,2-2V45.4
			C125.5,41.1,121.9,37.5,117.6,37.5z"/>
		<path class="st1" d="M40.6,84.9H28.8c-1.1,0-2-0.9-2-2l0,0c0-1.1,0.9-2,2-2h11.8c1.1,0,2,0.9,2,2l0,0C42.6,84,41.7,84.9,40.6,84.9
			z"/>
		<path class="st0" d="M72.2,96.7H28.8c-1.1,0-2-0.9-2-2l0,0c0-1.1,0.9-2,2-2h43.4c1.1,0,2,0.9,2,2l0,0
			C74.2,95.8,73.3,96.7,72.2,96.7z"/>
		<path class="st1" d="M64.3,84.9H52.5c-1.1,0-2-0.9-2-2l0,0c0-1.1,0.9-2,2-2h11.8c1.1,0,2,0.9,2,2l0,0C66.3,84,65.4,84.9,64.3,84.9
			z"/>
		<path class="st1" d="M88,84.9H76.2c-1.1,0-2-0.9-2-2l0,0c0-1.1,0.9-2,2-2H88c1.1,0,2,0.9,2,2l0,0C90,84,89.1,84.9,88,84.9z"/>
		<path class="st1" d="M46.6,53.3v15.8H30.8V53.3H46.6 M46.6,49.4H30.8c-2.2,0-3.9,1.8-3.9,3.9v15.8c0,2.2,1.8,3.9,3.9,3.9h15.8
			c2.2,0,3.9-1.8,3.9-3.9V53.3C50.5,51.1,48.7,49.4,46.6,49.4L46.6,49.4z"/>
	</g>
	<g>
		<g>
			<rect x="115.9" y="88.4" class="st1" width="4.8" height="13.8"/>
			<rect x="109.9" y="91.6" class="st1" width="4.8" height="10.7"/>
			<rect x="122" y="96.3" class="st1" width="4.8" height="5.9"/>
		</g>
		<g>
			<path class="st0" d="M127.3,103.3c-2,2.4-4.8,3.9-8.1,4.2v5c5.1-0.3,9.6-2.9,12.5-6.7L127.3,103.3z"/>
			<path class="st0" d="M130,83.9l-3.7,3.4c2.2,2.1,3.6,5.1,3.6,8.5c0,2.2-0.6,4.3-1.7,6.1l4.4,2.4c1.5-2.5,2.3-5.4,2.3-8.5
				C135,91.1,133.1,86.9,130,83.9z"/>
			<path class="st0" d="M128.8,82.8c-2.6-2.1-5.9-3.5-9.5-3.7v5c2.2,0.2,4.1,0.9,5.8,2.1L128.8,82.8z"/>
			<path class="st0" d="M117.6,107.5c-6.1-0.4-11-5.5-11-11.7s4.8-11.3,11-11.7v-5c-8.9,0.4-15.9,7.7-15.9,16.7s7.1,16.3,15.9,16.7
				V107.5z"/>
		</g>
	</g>
</g>
</svg>
