<?xml version="1.0" encoding="utf-8"?>
<!-- Generator: Adobe Illustrator 21.0.2, SVG Export Plug-In . SVG Version: 6.00 Build 0)  -->
<svg version="1.1" id="Layer_1" xmlns="http://www.w3.org/2000/svg" xmlns:xlink="http://www.w3.org/1999/xlink" x="0px" y="0px"
	 viewBox="0 0 150 93.8" style="enable-background:new 0 0 150 93.8;" xml:space="preserve">
<style type="text/css">
	.st0{fill:#703081;}
	.st1{fill:#DF6B90;}
</style>
<g>
	<g>
		<path class="st0" d="M128.4,0H9.9C4.4,0,0,4.4,0,9.9V79c0,5.5,4.4,9.9,9.9,9.9h71.6c1.4,0,2.5-1.1,2.5-2.5s-1.1-2.5-2.5-2.5H9.9
			C7.1,83.9,5,81.6,5,79V9.9C5,7.1,7.3,5,9.9,5h118.5c2.8,0,4.9,2.3,4.9,4.9V37c0,1.4,1.1,2.5,2.5,2.5s2.5-1.1,2.5-2.5V9.9
			C138.2,4.5,133.7,0,128.4,0z"/>
		<path class="st1" d="M32,59.3H17.3c-1.4,0-2.5-1.1-2.5-2.5l0,0c0-1.4,1.1-2.5,2.5-2.5H32c1.4,0,2.5,1.1,2.5,2.5l0,0
			C34.5,58.2,33.4,59.3,32,59.3z"/>
		<path class="st0" d="M71.6,74.1H17.3c-1.4,0-2.5-1.1-2.5-2.5l0,0c0-1.4,1.1-2.5,2.5-2.5h54.3c1.4,0,2.5,1.1,2.5,2.5l0,0
			C74.1,72.9,72.9,74.1,71.6,74.1z"/>
		<path class="st1" d="M61.7,59.3H46.9c-1.4,0-2.5-1.1-2.5-2.5l0,0c0-1.4,1.1-2.5,2.5-2.5h14.8c1.4,0,2.5,1.1,2.5,2.5l0,0
			C64.2,58.2,63.1,59.3,61.7,59.3z"/>
		<path class="st1" d="M91.3,59.3H76.6c-1.4,0-2.5-1.1-2.5-2.5l0,0c0-1.4,1.1-2.5,2.5-2.5h14.8c1.4,0,2.5,1.1,2.5,2.5l0,0
			C93.8,58.2,92.7,59.3,91.3,59.3z"/>
		<path class="st1" d="M39.5,19.8v19.8H19.8V19.8H39.5 M39.5,14.9H19.8c-2.8,0-4.9,2.3-4.9,4.9v19.8c0,2.8,2.3,4.9,4.9,4.9h19.8
			c2.8,0,4.9-2.3,4.9-4.9V19.8C44.4,17,42.2,14.9,39.5,14.9L39.5,14.9z"/>
	</g>
</g>
<path class="st1" d="M148.1,63.8h-5.6v-5.5c0-1-0.7-1.9-1.8-1.9H135v-5.5c0-1-0.7-1.9-1.8-1.9h-26.2c-1,0-1.9,0.9-1.9,1.9V77
	c0,1,0.9,1.8,1.9,1.8h5.5v5.7c0,1,0.9,1.8,1.9,1.8h5.5v5.6c0,1,0.8,1.9,1.9,1.9h26.2c1,0,1.9-0.8,1.9-1.9V65.7
	C150,64.7,149.1,63.8,148.1,63.8z M108.7,75.1V52.6h22.5v22.5H108.7z M116.2,82.6v-3.7h16.9c1,0,1.8-0.7,1.8-1.8V60.1h3.7v22.5
	H116.2z M146.2,90.1h-22.5v-3.7h16.9c1,0,1.8-0.7,1.8-1.8V67.6h3.7V90.1z"/>
</svg>
