<?xml version="1.0" encoding="utf-8"?>
<!-- Generator: Adobe Illustrator 21.0.2, SVG Export Plug-In . SVG Version: 6.00 Build 0)  -->
<svg version="1.1" id="Layer_1" xmlns="http://www.w3.org/2000/svg" xmlns:xlink="http://www.w3.org/1999/xlink" x="0px" y="0px"
	 viewBox="0 0 150 91.5" style="enable-background:new 0 0 150 91.5;" xml:space="preserve">
<style type="text/css">
	.st0{fill:#703081;}
	.st1{fill:#DF6B90;}
</style>
<g>
	<g>
		<g>
			<path class="st0" d="M128.1,0H9.9C4.4,0,0,4.4,0,9.9v69c0,5.5,4.4,9.9,9.9,9.9h71.5c1.4,0,2.5-1.1,2.5-2.5c0-1.4-1.1-2.5-2.5-2.5
				H9.9c-2.8,0-4.9-2.3-4.9-4.9v-69C5,7.1,7.3,5,9.9,5h118.3c2.8,0,4.9,2.3,4.9,4.9V37c0,1.4,1.1,2.5,2.5,2.5c1.4,0,2.5-1.1,2.5-2.5
				V9.9C138,4.4,133.6,0,128.1,0z"/>
			<path class="st1" d="M32,59.1H17.3c-1.4,0-2.5-1.1-2.5-2.5l0,0c0-1.4,1.1-2.5,2.5-2.5H32c1.4,0,2.5,1.1,2.5,2.5l0,0
				C34.5,58,33.4,59.1,32,59.1z"/>
			<path class="st0" d="M71.5,73.9H17.3c-1.4,0-2.5-1.1-2.5-2.5l0,0c0-1.4,1.1-2.5,2.5-2.5h54.3c1.4,0,2.5,1.1,2.5,2.5l0,0
				C73.9,72.8,72.9,73.9,71.5,73.9z"/>
			<path class="st1" d="M61.6,59.1H46.9c-1.4,0-2.5-1.1-2.5-2.5l0,0c0-1.4,1.1-2.5,2.5-2.5h14.8c1.4,0,2.5,1.1,2.5,2.5l0,0
				C64.1,58,63,59.1,61.6,59.1z"/>
			<path class="st1" d="M91.1,59.1H76.4c-1.4,0-2.5-1.1-2.5-2.5l0,0c0-1.4,1.1-2.5,2.5-2.5h14.8c1.4,0,2.5,1.1,2.5,2.5l0,0
				C93.6,58,92.5,59.1,91.1,59.1z"/>
			<path class="st1" d="M39.4,19.8v19.8H19.8V19.8H39.4 M39.4,14.8H19.8c-2.8,0-4.9,2.3-4.9,4.9v19.8c0,2.8,2.3,4.9,4.9,4.9h19.8
				c2.8,0,4.9-2.3,4.9-4.9V19.8C44.4,17,42.1,14.8,39.4,14.8L39.4,14.8z"/>
		</g>
	</g>
	<g>
		<path class="st1" d="M149.9,72.1l-2.4-6.8c-0.1-6.8-4.4-12.5-10.4-14.8c3.6,2.9,6,7.4,6,12.3l2.4,6.8c0.4,1-0.1,2-1.1,2.4
			l-2.3,0.8v5.5c0,2-1.6,3.8-3.8,3.8h-4.6v7.5l4.4,2v-7h4.8c2,0,3.8-1.6,3.8-3.8v-5.5l2.1-0.8C149.8,74.3,150.3,73.1,149.9,72.1z"/>
		<path class="st0" d="M137.9,75.9v-5.5l2.3-0.8c1-0.4,1.5-1.4,1.1-2.4l-2.4-6.8c-0.1-5-2.5-9.4-6.1-12.3c-2.8-2.1-6.1-3.5-9.8-3.6
			c-0.4-1.6-1.9-2.8-3.6-2.8c-2,0-3.8,1.6-3.8,3.8v0.6c-5.5,2.6-9.4,8.3-9.4,14.8c0,5.3,2.5,9.9,6.3,12.9v6.3l16.9,7.6v-8.3h4.8
			C136.3,79.5,137.9,77.9,137.9,75.9z M132.1,75c-0.3,0.2-0.6,0.4-1,0.4s-0.8-0.1-1-0.4l-6.8-6.8c-1,1-2.4,1.5-3.9,1.5
			c-3.1,0-5.6-2.5-5.6-5.6c0-2.5,1.6-4.5,3.8-5.4v-12v-1.4c0-1,0.9-1.9,1.9-1.9s1.9,0.9,1.9,1.9V46v12.8c2.3,0.8,3.8,2.9,3.8,5.4
			c0,0.5-0.1,1-0.3,1.4l7.3,7.3C132.8,73.5,132.8,74.4,132.1,75z"/>
	</g>
</g>
</svg>
