<?xml version="1.0" encoding="utf-8"?>
<!-- Generator: Adobe Illustrator 21.0.2, SVG Export Plug-In . SVG Version: 6.00 Build 0)  -->
<svg version="1.1" id="Layer_1" xmlns="http://www.w3.org/2000/svg" xmlns:xlink="http://www.w3.org/1999/xlink" x="0px" y="0px"
	 viewBox="0 0 150 150" style="enable-background:new 0 0 150 150;" xml:space="preserve">
<style type="text/css">
	.st0{fill:#703081;}
	.st1{fill:#DF6B90;}
	.st2{display:none;fill:#DF6B90;}
</style>
<g id="Layer_2">
	<path class="st0" d="M75,0C33.6,0,0,33.6,0,75s33.6,75,75,75s75-33.6,75-75S116.4,0,75,0z M75,3.1c39.7,0,71.9,32.2,71.9,71.9
		s-32.2,71.9-71.9,71.9S3.1,114.7,3.1,75S35.3,3.1,75,3.1z"/>
</g>
<g>
	<g>
		<g>
			<g>
				<g>
					<g>
						<g>
							<path class="st1" d="M48.4,112.2H30.6c-1.7,0-3-1.3-3-3l0,0c0-1.7,1.3-3,3-3h17.8c1.7,0,3,1.3,3,3l0,0
								C51.2,110.9,50.1,112.2,48.4,112.2z"/>
							<path class="st0" d="M111,130H46c-1.7,0-3-1.3-3-3l0,0c0-1.7,1.3-3,3-3h65c1.7,0,3,1.3,3,3l0,0C114,128.7,112.7,130,111,130z
								"/>
							<path class="st1" d="M83.8,112.2H66.1c-1.7,0-3-1.3-3-3l0,0c0-1.7,1.3-3,3-3h17.8c1.7,0,3,1.3,3,3l0,0
								C86.8,110.9,85.5,112.2,83.8,112.2z"/>
							<path class="st1" d="M119.4,112.2h-17.8c-1.7,0-3-1.3-3-3l0,0c0-1.7,1.3-3,3-3h17.8c1.7,0,3,1.3,3,3l0,0
								C122.3,110.9,121,112.2,119.4,112.2z"/>
							<path class="st2" d="M57.2,65v23.7H33.6V65H57.2 M57.2,59H33.6c-3.3,0-5.9,2.7-5.9,5.9v23.7c0,3.2,2.7,5.9,5.9,5.9h23.7
								c3.3,0,5.9-2.7,5.9-5.9V65C63.1,61.8,60.4,59,57.2,59L57.2,59z"/>
						</g>
					</g>
				</g>
			</g>
		</g>
	</g>
</g>
<g>
	<path class="st1" d="M109.9,67.1l-3.8-10.9c-0.2-10.9-7.1-20-16.7-23.7c5.8,4.6,9.6,11.9,9.6,19.7l3.8,10.9
		c0.6,1.6-0.2,3.2-1.8,3.8l-3.7,1.3V77c0,3.2-2.6,6.1-6.1,6.1h-7.4v12l7.1,3.2V87.1h7.7c3.2,0,6.1-2.6,6.1-6.1v-8.8l3.4-1.3
		C109.8,70.6,110.6,68.7,109.9,67.1z"/>
	<path class="st0" d="M90.7,73.1v-8.8l3.7-1.3c1.6-0.6,2.4-2.2,1.8-3.8l-3.8-10.9c-0.2-8-4-15.1-9.8-19.7c-4.5-3.4-9.8-5.6-15.7-5.8
		c-0.6-2.6-3-4.5-5.8-4.5c-3.2,0-6.1,2.6-6.1,6.1v1c-8.8,4.2-15.1,13.3-15.1,23.7c0,8.5,4,15.9,10.1,20.7v10.1l27.1,12.2V78.8h7.7
		C88.1,78.9,90.7,76.4,90.7,73.1z M81.4,71.7c-0.5,0.3-1,0.6-1.6,0.6s-1.3-0.2-1.6-0.6L67.3,60.8c-1.6,1.6-3.8,2.4-6.3,2.4
		c-5,0-9-4-9-9c0-4,2.6-7.2,6.1-8.7V26.3v-2.2c0-1.6,1.4-3,3-3c1.6,0,3,1.4,3,3v1.1v20.5c3.7,1.3,6.1,4.6,6.1,8.7
		c0,0.8-0.2,1.6-0.5,2.2l11.7,11.7C82.5,69.3,82.5,70.7,81.4,71.7z"/>
</g>
</svg>
