<?xml version="1.0" encoding="utf-8"?>
<!-- Generator: Adobe Illustrator 21.0.2, SVG Export Plug-In . SVG Version: 6.00 Build 0)  -->
<svg version="1.1" id="Layer_1" xmlns="http://www.w3.org/2000/svg" xmlns:xlink="http://www.w3.org/1999/xlink" x="0px" y="0px"
	 viewBox="0 0 150 150" style="enable-background:new 0 0 150 150;" xml:space="preserve">
<style type="text/css">
	.st0{fill:#703081;}
	.st1{fill:#DF6B90;}
	.st2{display:none;fill:#DF6B90;}
</style>
<g id="Layer_2">
	<path class="st0" d="M75,0C33.6,0,0,33.6,0,75s33.6,75,75,75s75-33.6,75-75S116.4,0,75,0z M75,3.1c39.7,0,71.9,32.2,71.9,71.9
		s-32.2,71.9-71.9,71.9S3.1,114.7,3.1,75S35.3,3.1,75,3.1z"/>
</g>
<g>
	<g>
		<g>
			<g>
				<g>
					<g>
						<g>
							<path class="st1" d="M48.4,112.2H30.6c-1.7,0-3-1.3-3-3l0,0c0-1.7,1.3-3,3-3h17.8c1.7,0,3,1.3,3,3l0,0
								C51.2,110.9,50.1,112.2,48.4,112.2z"/>
							<path class="st0" d="M111,130H46c-1.7,0-3-1.3-3-3l0,0c0-1.7,1.3-3,3-3h65c1.7,0,3,1.3,3,3l0,0C114,128.7,112.7,130,111,130z
								"/>
							<path class="st1" d="M83.8,112.2H66.1c-1.7,0-3-1.3-3-3l0,0c0-1.7,1.3-3,3-3h17.8c1.7,0,3,1.3,3,3l0,0
								C86.8,110.9,85.5,112.2,83.8,112.2z"/>
							<path class="st1" d="M119.4,112.2h-17.8c-1.7,0-3-1.3-3-3l0,0c0-1.7,1.3-3,3-3h17.8c1.7,0,3,1.3,3,3l0,0
								C122.3,110.9,121,112.2,119.4,112.2z"/>
							<path class="st2" d="M57.2,65v23.7H33.6V65H57.2 M57.2,59H33.6c-3.3,0-5.9,2.7-5.9,5.9v23.7c0,3.2,2.7,5.9,5.9,5.9h23.7
								c3.3,0,5.9-2.7,5.9-5.9V65C63.1,61.8,60.4,59,57.2,59L57.2,59z"/>
						</g>
					</g>
				</g>
			</g>
		</g>
	</g>
</g>
<path class="st1" d="M107.2,44.5h-8.8v-8.6c0-1.6-1.1-3-2.8-3h-8.9v-8.6c0-1.6-1.1-3-2.8-3H43c-1.6,0-3,1.4-3,3v40.8
	c0,1.6,1.4,2.8,3,2.8h8.6v8.9c0,1.6,1.4,2.8,3,2.8h8.6v8.7c0,1.6,1.3,3,3,3H107c1.6,0,3-1.3,3-3V47.5
	C110.2,45.9,108.7,44.5,107.2,44.5z M45.6,62.2V27h35.2v35.2H45.6z M57.3,73.9v-5.8h26.4c1.6,0,2.8-1.1,2.8-2.8V38.7h5.8v35.2H57.3z
	 M104.2,85.6H69.1v-5.8h26.4c1.6,0,2.8-1.1,2.8-2.8V50.5h5.8v35.2H104.2z"/>
</svg>
