<?xml version="1.0" encoding="utf-8"?>
<!-- Generator: Adobe Illustrator 21.0.2, SVG Export Plug-In . SVG Version: 6.00 Build 0)  -->
<svg version="1.1" id="Layer_1" xmlns="http://www.w3.org/2000/svg" xmlns:xlink="http://www.w3.org/1999/xlink" x="0px" y="0px"
	 viewBox="0 0 150 150" style="enable-background:new 0 0 150 150;" xml:space="preserve">
<style type="text/css">
	.st0{fill:#703081;}
	.st1{fill:#F2BA59;}
</style>
<g id="Layer_1_1_">
	<path class="st0" d="M131.1,55.1c0.1-0.9,0.1-1.6,0.1-2.5c0-11.6-9.5-21.1-21.1-21.1c-1.5,0-2.9,0.1-4.4,0.5
		c-4.6-12.9-17-21.6-30.8-21.6s-26.1,8.8-30.8,21.5c-1.4-0.3-2.9-0.5-4.4-0.5c-11.6,0-21.1,9.5-21.1,21.1c0,0.7,0,1.6,0.1,2.5
		C8.3,56.1,0,65.1,0,76c0,11.6,9.5,21.1,21.1,21.1h18.8v-4.8H21.1c-9,0-16.4-7.4-16.4-16.4s7.4-16.4,16.6-16.4l0,0h0.4
		c0.7,0,1.5-0.3,1.9-0.9c0.5-0.6,0.6-1.4,0.5-2c-0.4-1.4-0.5-2.8-0.5-4.1c0-9,7.4-16.4,16.4-16.4c1.8,0,3.5,0.3,5.1,0.9
		c0.6,0.3,1.3,0.1,1.9-0.1c0.6-0.3,1-0.8,1.1-1.4c3.3-12,14.4-20.4,26.9-20.4s23.6,8.4,27,20.4c0.1,0.6,0.6,1.1,1.1,1.4
		c0.6,0.3,1.3,0.4,1.9,0.1c1.6-0.5,3.4-0.9,5.1-0.9c9,0,16.4,7.4,16.4,16.4c0,1.4-0.1,2.8-0.5,4.1c-0.1,0.8,0,1.5,0.5,2
		c0.5,0.6,1.1,0.9,1.9,0.9h0.5c9,0,16.4,7.4,16.4,16.4s-7.4,16.4-16.4,16.4h-18.8V97h18.8c11.6,0,21.1-9.5,21.1-21.1
		C150,65.1,141.8,56.1,131.1,55.1z"/>
	<path class="st1" d="M56.3,43.2h-4.8C51.5,30.4,62,19.7,75,19.7v4.8C64.6,24.5,56.3,32.9,56.3,43.2z"/>
</g>
<g id="Layer_2">
</g>
<g id="Layer_2_1_">
</g>
<g>
	<g>
		<path class="st0" d="M74.9,68.1c-3.5,0-6.4,2.9-6.4,6.4c0,3,2.2,5.7,5.1,6.2v9.2c-1.4,0.2-2.6,0.7-3.6,1.5l-6.2-6.2
			c0.6-0.9,0.9-1.9,0.9-3c0-3.1-2.6-5.7-5.7-5.7c-3.1,0-5.7,2.6-5.7,5.7c0,3.1,2.6,5.7,5.7,5.7c1.1,0,2.2-0.3,3-0.9l6.2,6.2
			c-0.8,1-1.3,2.2-1.5,3.6h-9.1c-0.6-2.9-3.2-5.1-6.2-5.1c-3.5,0-6.4,2.9-6.4,6.4c0,3.5,2.9,6.4,6.4,6.4c3,0,5.7-2.2,6.2-5.1h9.2
			c0.2,1.4,0.7,2.6,1.5,3.6l-6.2,6.2c-0.9-0.6-1.9-0.9-3-0.9c-3.1,0-5.7,2.6-5.7,5.7c0,3.1,2.6,5.7,5.7,5.7c3.1,0,5.7-2.6,5.7-5.7
			c0-1.1-0.3-2.2-0.9-3l6.2-6.2c1,0.8,2.2,1.3,3.6,1.5v9.2c-2.9,0.6-5.1,3.2-5.1,6.2c0,3.5,2.9,6.4,6.4,6.4c3.5,0,6.4-2.9,6.4-6.4
			c0-3-2.2-5.7-5.1-6.2v-9.2c1.4-0.2,2.6-0.7,3.6-1.5l6.2,6.2c-0.6,0.9-0.9,1.9-0.9,3c0,3.1,2.6,5.7,5.7,5.7c3.1,0,5.7-2.6,5.7-5.7
			c0-3.1-2.6-5.7-5.7-5.7c-1.1,0-2.2,0.3-3,0.9l-6.2-6.2c0.8-1,1.3-2.2,1.5-3.6h9.2c0.6,2.9,3.2,5.1,6.2,5.1c3.5,0,6.4-2.9,6.4-6.4
			c0-3.5-2.9-6.4-6.4-6.4c-3,0-5.7,2.2-6.2,5.1h-9.3c-0.2-1.4-0.7-2.6-1.5-3.6l6.2-6.2c0.9,0.6,1.9,0.9,3,0.9c3.1,0,5.7-2.6,5.7-5.7
			c0-3.1-2.6-5.7-5.7-5.7c-3.1,0-5.7,2.6-5.7,5.7c0,1.1,0.3,2.2,0.9,3l-6.2,6.2c-1-0.8-2.2-1.3-3.6-1.5v-9.2
			c2.9-0.6,5.1-3.2,5.1-6.2C81.3,71,78.4,68.1,74.9,68.1z"/>
	</g>
	<path class="st1" d="M74.9,70.7c2.2,0,3.8,1.7,3.8,3.8c0,2.2-1.7,3.8-3.8,3.8c-2.2,0-3.8-1.7-3.8-3.8S72.8,70.7,74.9,70.7z M59,79
		c1.8,0,3.2,1.4,3.2,3.2s-1.4,3.2-3.2,3.2c-1.8,0-3.2-1.4-3.2-3.2C55.9,80.3,57.2,79,59,79z M90.8,79c1.8,0,3.2,1.4,3.2,3.2
		s-1.4,3.2-3.2,3.2c-1.8,0-3.2-1.4-3.2-3.2C87.7,80.3,89,79,90.8,79z M74.9,92.3c3.2,0,5.7,2.6,5.7,5.7s-2.6,5.7-5.7,5.7
		s-5.7-2.6-5.7-5.7S71.7,92.3,74.9,92.3z M51.4,94.2c2.2,0,3.8,1.7,3.8,3.8c0,2.2-1.7,3.8-3.8,3.8c-2.2,0-3.8-1.7-3.8-3.8
		S49.2,94.2,51.4,94.2z M98.5,94.2c2.2,0,3.8,1.7,3.8,3.8c0,2.2-1.7,3.8-3.8,3.8c-2.2,0-3.8-1.7-3.8-3.8S96.4,94.2,98.5,94.2z
		 M59,110.8c1.8,0,3.2,1.4,3.2,3.2s-1.4,3.2-3.2,3.2c-1.8,0-3.2-1.4-3.2-3.2C55.9,112.1,57.2,110.8,59,110.8L59,110.8z M90.8,110.8
		c1.8,0,3.2,1.4,3.2,3.2s-1.4,3.2-3.2,3.2c-1.8,0-3.2-1.4-3.2-3.2C87.7,112.1,89,110.8,90.8,110.8L90.8,110.8z M74.9,117.7
		c2.2,0,3.8,1.7,3.8,3.8c0,2.2-1.7,3.8-3.8,3.8c-2.2,0-3.8-1.7-3.8-3.8C71.1,119.5,72.8,117.7,74.9,117.7z"/>
</g>
</svg>
