<?xml version="1.0" encoding="utf-8"?>
<!-- Generator: Adobe Illustrator 20.1.0, SVG Export Plug-In . SVG Version: 6.00 Build 0)  -->
<svg version="1.1" id="Layer_1" xmlns="http://www.w3.org/2000/svg" xmlns:xlink="http://www.w3.org/1999/xlink" x="0px" y="0px"
	 viewBox="0 0 50 50" enable-background="new 0 0 50 50" xml:space="preserve">
<g>
	<g>
		<path fill="#D81F2A" d="M39.8,8.4h-6V4.5c0-0.8-0.6-1.4-1.4-1.4c-0.1,0-0.1,0-0.2,0.1c0,0-0.1-0.1-0.1-0.1h-14H18h-0.1
			c-0.8,0-1.4,0.6-1.4,1.4v3.9h-6c-1.7,0-3.1,1.3-3.1,3.1v2.2v2.8h2.6v28.4c0,1.7,1.3,3,3,3h24c1.7,0,3.1-1.3,3.1-3V16.4h2.6v-2.8
			v-2.2C42.8,9.7,41.5,8.4,39.8,8.4z M19.3,5.9H31v2.5H19.3V5.9z M37.4,44.9c0,0.2-0.1,0.3-0.3,0.3h-24c-0.2,0-0.3-0.1-0.3-0.3V16.4
			h24.5V44.9z M40,13.7H10.2v-2.2c0-0.2,0.1-0.3,0.3-0.3h29.3c0.2,0,0.3,0.1,0.3,0.3L40,13.7L40,13.7z"/>
		<rect x="30.2" y="19.7" fill="#D81F2A" width="2.8" height="22.9"/>
		<rect x="23.8" y="19.7" fill="#D81F2A" width="2.8" height="22.9"/>
		<rect x="17.3" y="19.7" fill="#D81F2A" width="2.8" height="22.9"/>
	</g>
</g>
</svg>
