<?xml version="1.0" encoding="utf-8"?>
<!-- Generator: Adobe Illustrator 21.0.2, SVG Export Plug-In . SVG Version: 6.00 Build 0)  -->
<svg version="1.1" id="Layer_1" xmlns="http://www.w3.org/2000/svg" xmlns:xlink="http://www.w3.org/1999/xlink" x="0px" y="0px"
	 viewBox="0 0 150 150" style="enable-background:new 0 0 150 150;" xml:space="preserve">
<style type="text/css">
	.st0{fill:#DF6B90;}
</style>
<g>
	<path class="st0" d="M64,96V63.4c0-3.4-2.8-6.2-6.2-6.2H6.2C2.8,57.2,0,60,0,63.4V96c0,3.4,2.8,6.2,6.2,6.2h51.4
		C61.1,102.2,64,99.4,64,96z M3.1,96V63.4c0-1.7,1.3-3.1,3.1-3.1h51.4c1.7,0,3.1,1.3,3.1,3.1V96c0,1.7-1.3,3.1-3.1,3.1H6.2
		C4.5,99.1,3.1,97.7,3.1,96z"/>
	<rect x="20.2" y="107.8" class="st0" width="23.4" height="3.1"/>
	<path class="st0" d="M83.9,38.3H57.1c-3.4,0-6.2,2.8-6.2,6.2v7.3H54v-7.3c0-1.7,1.3-3.1,3.1-3.1H84c1.7,0,3.1,1.3,3.1,3.1v61.1
		c0,1.7-1.3,3.1-3.1,3.1H57.1c-1.7,0-3.1-1.3-3.1-3.1v-0.2h-3.1v0.2c0,3.4,2.8,6.2,6.2,6.2h26.8c3.4,0,6.2-2.8,6.2-6.2v-61
		C90.1,41,87.3,38.3,83.9,38.3z"/>
	<rect x="59.7" y="48.2" class="st0" width="20.6" height="3.1"/>
	<rect x="67.7" y="96.6" class="st0" width="4.5" height="3.1"/>
</g>
<g>
	<path class="st0" d="M122.5,137.1c-15.2,0-27.5-12.3-27.5-27.5s12.3-27.5,27.5-27.5S150,94.4,150,109.6S137.7,137.1,122.5,137.1z
		 M122.5,85C109,85,98,96,98,109.5s11,24.5,24.5,24.5s24.5-10.9,24.5-24.4S136,85,122.5,85z"/>
</g>
<path class="st0" d="M120.6,117.3c0-0.5,0-0.8,0-1.1c0-1.4,0.2-2.7,0.6-3.7c0.3-0.7,0.7-1.6,1.4-2.3c0.5-0.6,1.4-1.4,2.6-2.5
	c1.3-1.1,2-2,2.4-2.7s0.6-1.4,0.6-2.1c0-1.4-0.6-2.7-1.7-3.7c-1.1-1.1-2.5-1.6-4.1-1.6s-2.9,0.5-3.9,1.5c-1,0.9-1.6,2.1-1.9,4.2
	h-3.8c0.4-2.8,1.3-4.9,3-6.3c1.7-1.5,3.9-2.2,6.6-2.2c2.9,0,5.2,0.8,6.9,2.3c1.8,1.6,2.6,3.5,2.6,5.7c0,1.3-0.3,2.5-0.9,3.6
	c-0.6,1.1-1.8,2.4-3.5,4c-1.2,1-1.9,1.9-2.3,2.3c-0.4,0.5-0.6,1.1-0.8,1.8c-0.2,0.6-0.3,1.7-0.3,3.1h-3.4V117.3z"/>
<rect x="120.5" y="120.4" class="st0" width="4.2" height="4.2"/>
</svg>
