<?xml version="1.0" encoding="utf-8"?>
<!-- Generator: Adobe Illustrator 21.0.2, SVG Export Plug-In . SVG Version: 6.00 Build 0)  -->
<svg version="1.1" id="Layer_1" xmlns="http://www.w3.org/2000/svg" xmlns:xlink="http://www.w3.org/1999/xlink" x="0px" y="0px"
	 viewBox="0 0 150 122.5" style="enable-background:new 0 0 150 122.5;" xml:space="preserve">
<style type="text/css">
	.st0{fill:#DF6B90;}
</style>
<g>
	<path class="st0" d="M106.6,96.2V41.9c0-5.6-4.7-10.4-10.4-10.4H10.4C4.7,31.5,0,36.2,0,41.9v54.4c0,5.6,4.7,10.4,10.4,10.4h85.7
		C101.9,106.6,106.6,101.9,106.6,96.2z M5.2,96.2V41.9c0-2.9,2.2-5.2,5.2-5.2h85.7c2.9,0,5.2,2.2,5.2,5.2v54.4
		c0,2.9-2.2,5.2-5.2,5.2H10.4C7.5,101.5,5.2,99.1,5.2,96.2z"/>
	<rect x="33.7" y="116" class="st0" width="39" height="5.2"/>
	<path class="st0" d="M139.9,0H95.1c-5.6,0-10.4,4.7-10.4,10.4v12.1H90V10.2C90,7.4,92.2,5,95.2,5H140c2.9,0,5.2,2.2,5.2,5.2v101.9
		c0,2.9-2.2,5.2-5.2,5.2H95.1c-2.9,0-5.2-2.2-5.2-5.2v-0.4h-5.2v0.4c0,5.6,4.7,10.4,10.4,10.4h44.6c5.6,0,10.4-4.7,10.4-10.4V10.5
		C150.1,4.5,145.5,0,139.9,0z"/>
	<rect x="99.5" y="16.6" class="st0" width="34.4" height="5.2"/>
	<rect x="112.9" y="97.2" class="st0" width="7.5" height="5.2"/>
</g>
</svg>
