<svg id="Layer_1" xmlns="http://www.w3.org/2000/svg" viewBox="0 0 110 89.8"><style>.st0{fill:#703081}.st1{fill:#d8427d}</style><path class="st0" d="M78.2 70.6V30.7c0-4.1-3.5-7.6-7.6-7.6h-63c-4.1 0-7.6 3.5-7.6 7.6v39.9c0 4.1 3.5 7.6 7.6 7.6h62.9c4.2 0 7.7-3.5 7.7-7.6zm-74.4 0V30.7c0-2.1 1.6-3.8 3.8-3.8h62.9c2.1 0 3.8 1.6 3.8 3.8v39.9c0 2.1-1.6 3.8-3.8 3.8h-63c-2 0-3.7-1.7-3.7-3.8z"/><path class="st1" d="M24.7 85.1h28.6v3.8H24.7z"/><path class="st0" d="M102.6 0H69.8c-4.1 0-7.6 3.5-7.6 7.6v8.9H66v-9c0-2.1 1.6-3.8 3.8-3.8h32.8c2.1 0 3.8 1.6 3.8 3.8v74.7c0 2.1-1.6 3.8-3.8 3.8H69.8c-2.1 0-3.8-1.6-3.8-3.8v-.3h-3.8v.3c0 4.1 3.5 7.6 7.6 7.6h32.7c4.1 0 7.6-3.5 7.6-7.6V7.7c0-4.4-3.4-7.7-7.5-7.7z"/><path class="st1" d="M73 12.2h25.2V16H73zM82.8 71.3h5.5v3.8h-5.5z"/></svg>