<?xml version="1.0" encoding="utf-8"?>
<!-- Generator: Adobe Illustrator 21.0.2, SVG Export Plug-In . SVG Version: 6.00 Build 0)  -->
<svg version="1.1" id="Layer_1" xmlns="http://www.w3.org/2000/svg" xmlns:xlink="http://www.w3.org/1999/xlink" x="0px" y="0px"
	 viewBox="0 0 110 89.8" style="enable-background:new 0 0 110 89.8;" xml:space="preserve">
<style type="text/css">
	.st0{fill:#703081;}
	.st1{fill:#D8427D;}
</style>
<g>
	<path class="st0" d="M78.2,70.6V30.7c0-4.1-3.5-7.6-7.6-7.6h-63c-4.1,0-7.6,3.5-7.6,7.6v39.9c0,4.1,3.5,7.6,7.6,7.6h62.9
		C74.7,78.2,78.2,74.7,78.2,70.6z M3.8,70.6V30.7c0-2.1,1.6-3.8,3.8-3.8h62.9c2.1,0,3.8,1.6,3.8,3.8v39.9c0,2.1-1.6,3.8-3.8,3.8h-63
		C5.5,74.4,3.8,72.7,3.8,70.6z"/>
	<rect x="24.7" y="85.1" class="st1" width="28.6" height="3.8"/>
	<path class="st0" d="M102.6,0H69.8c-4.1,0-7.6,3.5-7.6,7.6v8.9H66v-9c0-2.1,1.6-3.8,3.8-3.8h32.8c2.1,0,3.8,1.6,3.8,3.8v74.7
		c0,2.1-1.6,3.8-3.8,3.8H69.8c-2.1,0-3.8-1.6-3.8-3.8v-0.3h-3.8v0.3c0,4.1,3.5,7.6,7.6,7.6h32.7c4.1,0,7.6-3.5,7.6-7.6V7.7
		C110.1,3.3,106.7,0,102.6,0z"/>
	<rect x="73" y="12.2" class="st1" width="25.2" height="3.8"/>
	<rect x="82.8" y="71.3" class="st1" width="5.5" height="3.8"/>
</g>
</svg>
