<?xml version="1.0" encoding="utf-8"?>
<!-- Generator: Adobe Illustrator 21.0.2, SVG Export Plug-In . SVG Version: 6.00 Build 0)  -->
<svg version="1.1" id="Layer_1" xmlns="http://www.w3.org/2000/svg" xmlns:xlink="http://www.w3.org/1999/xlink" x="0px" y="0px"
	 viewBox="0 0 150 150" style="enable-background:new 0 0 150 150;" xml:space="preserve">
<style type="text/css">
	.st0{fill:#703081;}
	.st1{fill:#F2BA59;}
</style>
<g id="Layer_1_1_">
	<path class="st0" d="M131.1,55.1c0.1-0.9,0.1-1.6,0.1-2.5c0-11.6-9.5-21.1-21.1-21.1c-1.5,0-2.9,0.1-4.4,0.5
		c-4.6-12.9-17-21.6-30.8-21.6s-26.1,8.8-30.8,21.5c-1.4-0.3-2.9-0.5-4.4-0.5c-11.6,0-21.1,9.5-21.1,21.1c0,0.7,0,1.6,0.1,2.5
		C8.3,56.1,0,65.1,0,76c0,11.6,9.5,21.1,21.1,21.1h18.8v-4.8H21.1c-9,0-16.4-7.4-16.4-16.4s7.4-16.4,16.6-16.4l0,0h0.4
		c0.7,0,1.5-0.3,1.9-0.9c0.5-0.6,0.6-1.4,0.5-2c-0.4-1.4-0.5-2.8-0.5-4.1c0-9,7.4-16.4,16.4-16.4c1.8,0,3.5,0.3,5.1,0.9
		c0.6,0.3,1.3,0.1,1.9-0.1c0.6-0.3,1-0.8,1.1-1.4c3.3-12,14.4-20.4,26.9-20.4s23.6,8.4,27,20.4c0.1,0.6,0.6,1.1,1.1,1.4
		c0.6,0.3,1.3,0.4,1.9,0.1c1.6-0.5,3.4-0.9,5.1-0.9c9,0,16.4,7.4,16.4,16.4c0,1.4-0.1,2.8-0.5,4.1c-0.1,0.8,0,1.5,0.5,2
		c0.5,0.6,1.1,0.9,1.9,0.9h0.5c9,0,16.4,7.4,16.4,16.4s-7.4,16.4-16.4,16.4h-18.8V97h18.8c11.6,0,21.1-9.5,21.1-21.1
		C150,65.1,141.8,56.1,131.1,55.1z"/>
	<path class="st1" d="M56.3,43.2h-4.8C51.5,30.4,62,19.7,75,19.7v4.8C64.6,24.5,56.3,32.9,56.3,43.2z"/>
</g>
<g id="Layer_2">
</g>
<g id="Layer_2_1_">
</g>
<g>
	<path class="st0" d="M56.3,130.5L56.3,130.5c1.1,1.7,8.9,3,18.3,3s17.1-1.3,18.2-3h0.1l5.7-40H50.2L56.3,130.5z M84.6,127.3l3-30.9
		c0.1-0.8,0.6-1.4,1.1-1.4l2.3,0.2c0.6,0,1,0.7,0.9,1.5l-3,30.9c-0.1,0.8-0.6,1.4-1.1,1.4l-2.3-0.2
		C84.9,128.8,84.5,128.1,84.6,127.3z M72.5,95.9c0-0.8,0.5-1.5,1.1-1.5h2.6c0.6,0,1.1,0.7,1.1,1.5v32.7c0,0.8-0.5,1.5-1.1,1.5h-2.6
		c-0.6,0-1.1-0.7-1.1-1.5V95.9z M58,95.1l2.4-0.2c0.6,0,1.1,0.6,1.2,1.4l3.1,30.8c0.1,0.8-0.3,1.5-0.9,1.5l-2.4,0.2
		c-0.6,0-1.1-0.6-1.2-1.4l-3.1-30.8C57,95.8,57.4,95.1,58,95.1z"/>
	<path class="st1" d="M100.6,80.3h-1.1l-3.3-4.7H84.9l-4.5-7.3l-0.3,0.2v-0.2H69v0.2l-4.4,7.1H52.5l-3,4.7h-0.1
		c-1.9,0-3.5,1.6-3.5,3.5s1.6,3.5,3.5,3.5h51.2c1.9,0,3.5-1.6,3.5-3.5C104.1,81.9,102.6,80.3,100.6,80.3z M71.7,71.6h6.2l2.5,4.1
		H69.2L71.7,71.6z"/>
</g>
</svg>
