<?xml version="1.0" encoding="utf-8"?>
<!-- Generator: Adobe Illustrator 21.0.2, SVG Export Plug-In . SVG Version: 6.00 Build 0)  -->
<svg version="1.1" id="Layer_1" xmlns="http://www.w3.org/2000/svg" xmlns:xlink="http://www.w3.org/1999/xlink" x="0px" y="0px"
	 viewBox="0 0 150 150" style="enable-background:new 0 0 150 150;" xml:space="preserve">
<style type="text/css">
	.st0{fill:#703081;}
	.st1{fill:#DF6B90;}
</style>
<g id="Layer_2">
	<path class="st0" d="M75,0C33.6,0,0,33.6,0,75s33.6,75,75,75s75-33.6,75-75S116.4,0,75,0z M75,3.1c39.7,0,71.9,32.2,71.9,71.9
		s-32.2,71.9-71.9,71.9S3.1,114.7,3.1,75S35.3,3.1,75,3.1z"/>
</g>
<path class="st1" d="M115.7,56.7v6C115.9,60.8,115.8,58.8,115.7,56.7z"/>
<path class="st1" d="M119.7,78.4H86.3c-2.8,0-5.3,2.3-5.3,5.3v24c0,2.8,2.3,5.3,5.3,5.3h14.9v5.1h-5c-1,0-1.8,0.8-1.8,1.8
	s0.8,1.8,1.8,1.8h13.5c1,0,1.8-0.8,1.8-1.8s-0.8-1.8-1.8-1.8h-5v-5.1h15v-0.1c2.8,0,5.3-2.3,5.3-5.3V83.7
	C125,80.8,122.7,78.4,119.7,78.4z M121.5,107.6c0,0.9-0.7,1.7-1.7,1.7H86.3c-0.9-0.1-1.6-0.8-1.6-1.7v-24c0-0.9,0.7-1.7,1.7-1.7
	h33.3c0.9,0,1.7,0.7,1.7,1.7V107.6z"/>
<path class="st1" d="M58.3,62.9h14.9V68h-4.9v-0.1c-1,0-1.8,0.8-1.8,1.8s0.8,1.8,1.8,1.8h13.5c1,0,1.8-0.8,1.8-1.8s-0.9-1.8-1.9-1.8
	h-5v-5.1h14.9c2.8,0,5.3-2.3,5.3-5.3V33.7c0-2.8-2.3-5.3-5.3-5.3H58.3c-2.8,0-5.3,2.3-5.3,5.3v24C53,60.5,55.4,62.9,58.3,62.9z
	 M56.7,33.7c0-0.9,0.7-1.7,1.7-1.7h33.3c0.9,0,1.7,0.7,1.7,1.7v24c0,0.9-0.7,1.7-1.7,1.7H58.3c-0.9-0.1-1.6-0.8-1.6-1.8V33.7z"/>
<path class="st1" d="M63.6,78.4H30.3c-2.8,0-5.3,2.3-5.3,5.3v24c0,2.8,2.3,5.3,5.3,5.3h14.9v5.1h-5c-1,0-1.8,0.8-1.8,1.8
	s0.8,1.8,1.8,1.8h13.5c1-0.1,1.8-0.9,1.8-1.9s-0.8-1.8-1.8-1.8h-5v-5.1h14.9c2.8,0,5.3-2.3,5.3-5.3V83.7
	C68.8,80.8,66.5,78.4,63.6,78.4z M65.4,107.6c0,0.9-0.7,1.7-1.7,1.7H30.3c-0.9-0.1-1.6-0.8-1.6-1.7v-24c0-0.9,0.7-1.7,1.7-1.7h33.3
	c0.9,0,1.7,0.7,1.7,1.7V107.6z"/>
<path class="st0" d="M32.5,71.6c1,0,1.8-0.8,1.8-1.8V44.3h11.1c1,0,1.8-0.8,1.8-1.8s-0.8-1.8-1.8-1.8v-0.1h-13c-1,0-1.8,0.8-1.8,1.8
	v27.4C30.7,70.8,31.5,71.6,32.5,71.6z"/>
<path class="st0" d="M104.6,44.2h11.1v25.5c0,1,0.8,1.8,1.8,1.8s1.8-0.8,1.8-1.8V42.5c0-1-0.8-1.8-1.8-1.8h-13c-1,0-1.8,0.7-1.8,1.7
	S103.5,44.2,104.6,44.2z"/>
</svg>
