<?xml version="1.0" encoding="utf-8"?>
<!-- Generator: Adobe Illustrator 21.0.2, SVG Export Plug-In . SVG Version: 6.00 Build 0)  -->
<svg version="1.1" id="Layer_1" xmlns="http://www.w3.org/2000/svg" xmlns:xlink="http://www.w3.org/1999/xlink" x="0px" y="0px"
	 viewBox="0 0 150 121.6" style="enable-background:new 0 0 150 121.6;" xml:space="preserve">
<style type="text/css">
	.st0{fill:#703081;}
	.st1{fill:#DF6B90;}
</style>
<g id="Layer_1_copy">
</g>
<g id="Layer_1_1_">
	<g>
		<path class="st0" d="M82.5,60.2H8.1c-4.5,0-8.1,3.4-8.1,7.5v46.4c0,4.1,3.6,7.5,8.1,7.5h74.4c4.5,0,8.1-3.4,8.1-7.5V67.7
			C90.6,63.5,87,60.2,82.5,60.2z M82.5,65c0.2,0,0.4,0,0.6,0.2L45.3,93.8L6.8,65.4C7.1,65.2,7.7,65,8.1,65H82.5z M82.5,116.7H8.1
			c-1.7,0-3-1.1-3-2.6V70.3L45.3,100l40.2-30.5V114C85.5,115.6,84.2,116.7,82.5,116.7z"/>
		<path class="st0" d="M141.5,0H66c-4.5,0-8.1,3.4-8.1,7.7V13H63V7.7c0-1.5,1.5-2.6,3.2-2.6H142c1.7,0,3.2,1.3,3.2,2.6v47.2
			c0,1.5-1.5,2.6-3.2,2.6h-6v5.1h6c4.5,0,8.1-3.4,8.1-7.7V7.7C149.6,3.6,146.1,0,141.5,0z"/>
		
			<rect x="18.1" y="34" transform="matrix(0.7071 -0.7071 0.7071 0.7071 -15.6603 35.2075)" class="st1" width="33.1" height="5.1"/>
		
			<rect x="96.1" y="33.8" transform="matrix(0.7071 -0.7071 0.7071 0.7071 7.3259 90.3061)" class="st1" width="33.1" height="5.1"/>
		
			<rect x="56.2" y="33.8" transform="matrix(0.7071 -0.7071 0.7071 0.7071 -4.3666 62.078)" class="st0" width="33.1" height="5.1"/>
		
			<rect x="96" y="95.9" transform="matrix(0.7071 -0.7071 0.7071 0.7071 -36.6574 108.4202)" class="st1" width="33.1" height="5.1"/>
		
			<rect x="96.1" y="65.9" transform="matrix(0.7071 -0.7071 0.7071 0.7071 -15.3904 99.6887)" class="st0" width="33.1" height="5.1"/>
	</g>
</g>
</svg>
