<?xml version="1.0" encoding="utf-8"?>
<!-- Generator: Adobe Illustrator 21.0.2, SVG Export Plug-In . SVG Version: 6.00 Build 0)  -->
<svg version="1.1" id="Layer_1" xmlns="http://www.w3.org/2000/svg" xmlns:xlink="http://www.w3.org/1999/xlink" x="0px" y="0px"
	 viewBox="0 0 150 126.1" style="enable-background:new 0 0 150 126.1;" xml:space="preserve">
<style type="text/css">
	.st0{fill:#703081;}
	.st1{fill:#DF6B90;}
</style>
<g>
	<path class="st0" d="M141.7,0H63.3c-4.5,0-8.3,3.8-8.3,8.3v48.3H8.3c-4.5,0-8.3,3.8-8.3,8.3v53c0,4.5,3.8,8.3,8.3,8.3h78.4
		c4.5,0,8.3-3.8,8.3-8.3V69.5h46.8c4.5,0,8.3-3.8,8.3-8.3v-53C150,3.8,146.2,0,141.7,0z M141.7,4.9c0.4,0,0.8,0,1.1,0.2l-40.2,29.7
		l-41-29.3c0.6-0.4,1.1-0.6,1.7-0.6H141.7z M86.7,61.5c0.4,0,0.8,0,1.1,0.2L47.4,91.4L6.6,62c0.6-0.4,1.1-0.6,1.7-0.6H86.7z
		 M86.7,121.1H8.3c-1.9,0-3.4-1.5-3.4-3.4V66.9l42.5,30.5L89.8,66v51.7C90,119.5,88.3,121.1,86.7,121.1z M141.7,64.7H94.9
		c-0.2-4.5-3.8-8.1-8.3-8.1H60V10.3l42.5,30.5l42.5-31.4v51.7C145.1,63.2,143.6,64.7,141.7,64.7z"/>
	<path class="st1" d="M39.7,26.1h0.8v-4.9h-0.8c-10.5,0-19,8.5-19,19h4.9C25.6,32.5,32,26.1,39.7,26.1z"/>
	<path class="st1" d="M110.7,98.5H110v4.9h0.8c10.5,0,19-8.6,19-19h-4.9C124.8,92.1,118.4,98.5,110.7,98.5z"/>
</g>
</svg>
