<?xml version="1.0" encoding="utf-8"?>
<!-- Generator: Adobe Illustrator 21.0.2, SVG Export Plug-In . SVG Version: 6.00 Build 0)  -->
<svg version="1.1" xmlns="http://www.w3.org/2000/svg" xmlns:xlink="http://www.w3.org/1999/xlink" x="0px" y="0px"
	 viewBox="0 0 150 165" style="enable-background:new 0 0 150 165;" xml:space="preserve">
<style type="text/css">
	.st0{fill:#DF6B90;}
	.st1{fill:#703081;}
</style>
<g id="Layer_1">
	<g transform="translate(0,-952.36218)">
		<path class="st0" d="M116.3,976.8c0-2.1-1.6-3.8-3.7-3.8c0,0-0.1,0-0.1,0h-60c-0.1,0-0.2,0-0.4,0c-2.1,0.1-3.7,1.9-3.6,3.9
			c0.1,2.1,1.9,3.7,3.9,3.6h60C114.6,980.5,116.3,978.9,116.3,976.8z"/>
		<path class="st0" d="M106.9,1018H58.2c-0.1,0-0.2,0-0.4,0c-2.1,0.1-3.7,1.9-3.6,3.9c0.1,2.1,1.9,3.7,3.9,3.6h48.7
			c2.1,0,3.8-1.6,3.8-3.7c0-2.1-1.6-3.8-3.7-3.8C107,1018,106.9,1018,106.9,1018z"/>
		<path class="st0" d="M107,995.5c0,0-0.1,0-0.1,0H58.2c-0.1,0-0.2,0-0.4,0c-2.1,0.1-3.7,1.9-3.6,3.9s1.9,3.7,3.9,3.6h48.7
			c2.1,0,3.8-1.6,3.8-3.7C110.7,997.2,109.1,995.5,107,995.5z"/>
		<path class="st0" d="M18.7,1068l15.8,9.4c1.8,1,4.1,0.4,5.1-1.4c0.3-0.6,0.5-1.2,0.5-1.8h14.1v-0.1c2.4,0,4-1,5.2-2.2
			c1.3-1.3,2.5-2.7,2.5-5.2v-3.7c0-2.5-1.2-4-2.5-5.2c-1.3-1.2-2.8-2.3-5.2-2.3H40.2c0-2.1-1.6-3.8-3.7-3.8c-0.2,0-0.3,0-0.5,0v0
			c-0.5,0.1-1,0.3-1.4,0.5l-15.8,9.4c-1.8,1.1-2.4,3.4-1.3,5.1C17.8,1067.3,18.2,1067.7,18.7,1068z M33.6,1061.5L33.6,1061.5
			c0.7,0.9,1.8,1.4,2.9,1.4h17.5c0,0,0.2,0.1,0.3,0.2c0.1,0.1,0.2,0.3,0.2,0.4v3.2c-0.1,0-0.1,0-0.2,0H36.4c-1.1,0-2.2,0.5-2.9,1.4
			l-5.5-3.3L33.6,1061.5z"/>
		<path class="st0" d="M61.4,1089.1c-0.3-0.5-0.8-1-1.3-1.3l-15.8-9.4c-0.8-0.5-1.6-0.7-2.5-0.5v0c-1.8,0.3-3.1,1.9-3.1,3.7H24.6
			v0.1c-2.4,0-4,1-5.2,2.2c-1.3,1.3-2.5,2.7-2.5,5.2v3.7c0,2.5,1.2,3.9,2.5,5.2c1.3,1.2,2.8,2.3,5.2,2.3h14.1c0,2.1,1.7,3.7,3.8,3.7
			c0.6,0,1.3-0.2,1.8-0.5l15.8-9.4C61.9,1093.2,62.5,1090.9,61.4,1089.1z M45.3,1094.3c-0.7-0.9-1.8-1.4-2.9-1.4H24.9
			c0,0-0.2-0.1-0.3-0.2c-0.1-0.1-0.2-0.2-0.2-0.2v-3.3c0,0,0.1-0.1,0-0.1c0.1,0,0.1,0,0.2,0.1h17.8c1.1,0,2.2-0.5,2.9-1.4v0l5.6,3.3
			L45.3,1094.3z"/>
	</g>
</g>
<g id="Layer_1_copy">
	<g transform="translate(0,-952.36218)">
		<path class="st1" d="M135,974.9h-3.7v-7.5c0-8.2-6.8-15-15-15H48.8v0c-8.2,0-15,6.8-15,15v71.6c-19,2.7-33.8,19.2-33.8,39
			c0,21.7,17.7,39.4,39.4,39.4c18.5,0,34-12.8,38.2-30H135c8.2,0,15-6.8,15-15v-82.5C150,981.6,143.2,974.9,135,974.9z M39.4,1109.7
			c-17.6,0-31.8-14.2-31.8-31.8c0-17.6,14.2-31.8,31.8-31.8v0c17.6,0,31.8,14.2,31.8,31.8C71.2,1095.6,57.1,1109.7,39.4,1109.7z
			 M75,1061.1c-2.4-5-5.9-9.5-10.1-13.1h47.6c2.1,0,3.8-1.6,3.8-3.7c0-2.1-1.6-3.8-3.7-3.8c0,0-0.1,0-0.1,0h-60c-0.1,0-0.2,0-0.4,0
			c-0.2,0-0.3,0-0.5,0.1c-3.3-1.1-6.8-1.8-10.4-1.9v-71.2c0-4.2,3.3-7.5,7.5-7.5v0h67.5c4.2,0,7.5,3.3,7.5,7.5v86.2
			c0,4.2-3.3,7.5-7.5,7.5H75z M142.5,1072.3c0,4.2-3.3,7.5-7.5,7.5H78.8c0-0.6,0.1-1.3,0.1-1.9c0-3.2-0.4-6.4-1.2-9.4h38.6
			c8.2,0,15-6.8,15-15v-71.2h3.7c4.2,0,7.5,3.3,7.5,7.5V1072.3z"/>
		<path class="st1" d="M71.5,1018H68C69.1,1018,70.3,1018,71.5,1018z"/>
	</g>
</g>
</svg>
