<?xml version="1.0" encoding="utf-8"?>
<!-- Generator: Adobe Illustrator 21.0.2, SVG Export Plug-In . SVG Version: 6.00 Build 0)  -->
<svg version="1.1" id="Layer_1" xmlns="http://www.w3.org/2000/svg" xmlns:xlink="http://www.w3.org/1999/xlink" x="0px" y="0px"
	 viewBox="0 0 150 126.6" style="enable-background:new 0 0 150 126.6;" xml:space="preserve">
<style type="text/css">
	.st0{fill:#703081;}
	.st1{fill:#9B75A6;}
	.st2{fill:#865294;}
</style>
<g>
	<path class="st0" d="M138,0H11.8C5.4,0,0,5.2,0,11.8v103.1c0,6.4,5.2,11.8,11.8,11.8h126.4c6.4,0,11.8-5.2,11.8-11.8V11.6
		C149.8,5.2,144.6,0,138,0z M145.2,114.6c0,3.8-3.2,7-7,7H11.8c-3.8,0-7-3.2-7-7V11.6c0-3.8,3.2-7,7-7h126.4c3.8,0,7,3.2,7,7V114.6z
		"/>
	<path class="st0" d="M30.4,46.7h-4.6c-3.8,0-7,3.2-7,7v4.6c0,3.8,3.2,7,7,7h4.6c3.8,0,7-3.2,7-7v-4.6
		C37.5,49.9,34.4,46.7,30.4,46.7z M32.8,58.5c0,1.2-1,2.4-2.4,2.4h-4.6c-1.2,0-2.4-1-2.4-2.4v-4.6c0-1.2,1-2.4,2.4-2.4h4.6
		c1.2,0,2.4,1,2.4,2.4V58.5z"/>
	<path class="st1" d="M53.9,46.7h-4.6c-3.8,0-7,3.2-7,7v4.6c0,3.8,3.2,7,7,7h4.6c3.8,0,7-3.2,7-7v-4.6
		C60.9,49.9,57.7,46.7,53.9,46.7z M56.1,58.5c0,1.2-1,2.4-2.4,2.4h-4.6c-1.2,0-2.4-1-2.4-2.4v-4.6c0-1.2,1-2.4,2.4-2.4h4.6
		c1.2,0,2.4,1,2.4,2.4V58.5z"/>
	<path class="st0" d="M77.3,46.7h-4.6c-3.8,0-7,3.2-7,7v4.6c0,3.8,3.2,7,7,7h4.6c3.8,0,7-3.2,7-7v-4.6
		C84.3,49.9,81.1,46.7,77.3,46.7z M79.5,58.5c0,1.2-1,2.4-2.4,2.4h-4.6c-1.2,0-2.4-1-2.4-2.4v-4.6c0-1.2,1-2.4,2.4-2.4h4.6
		c1.2,0,2.4,1,2.4,2.4V58.5z"/>
	<path class="st1" d="M100.7,46.7h-4.6c-3.8,0-7,3.2-7,7v4.6c0,3.8,3.2,7,7,7h4.6c3.8,0,7-3.2,7-7v-4.6
		C107.7,49.9,104.5,46.7,100.7,46.7z M95.9,51.3h3.8l-6,6v-3.8C93.7,52.5,94.7,51.3,95.9,51.3z M100.7,60.7h-3.8l6-6v3.8
		C103.1,59.7,101.9,60.7,100.7,60.7z"/>
	<path class="st0" d="M124,46.7h-4.6c-3.8,0-7,3.2-7,7v4.6c0,3.8,3.2,7,7,7h4.6c3.8,0,7-3.2,7-7v-4.6C131,49.9,127.8,46.7,124,46.7z
		 M119.4,51.3h3.8l-6,6v-3.8C117,52.5,118,51.3,119.4,51.3z M124,60.7h-3.8l6-6v3.8C126.4,59.7,125.4,60.7,124,60.7z"/>
	<path class="st1" d="M30.4,70.1h-4.6c-3.8,0-7,3.2-7,7v4.6c0,3.8,3.2,7,7,7h4.6c3.8,0,7-3.2,7-7v-4.6
		C37.5,73.3,34.4,70.1,30.4,70.1z M32.8,81.9c0,1.2-1,2.4-2.4,2.4h-4.6c-1.2,0-2.4-1-2.4-2.4v-4.8c0-1.2,1-2.4,2.4-2.4h4.6
		c1.2,0,2.4,1,2.4,2.4V81.9z"/>
	<path class="st0" d="M53.9,70.1h-4.6c-3.8,0-7,3.2-7,7v4.6c0,3.8,3.2,7,7,7h4.6c3.8,0,7-3.2,7-7v-4.6
		C60.9,73.3,57.7,70.1,53.9,70.1z M56.1,81.9c0,1.2-1,2.4-2.4,2.4h-4.6c-1.2,0-2.4-1-2.4-2.4v-4.8c0-1.2,1-2.4,2.4-2.4h4.6
		c1.2,0,2.4,1,2.4,2.4V81.9z"/>
	<path class="st1" d="M77.3,70.1h-4.6c-3.8,0-7,3.2-7,7v4.6c0,3.8,3.2,7,7,7h4.6c3.8,0,7-3.2,7-7v-4.6
		C84.3,73.3,81.1,70.1,77.3,70.1z M79.5,81.9c0,1.2-1,2.4-2.4,2.4h-4.6c-1.2,0-2.4-1-2.4-2.4v-4.8c0-1.2,1-2.4,2.4-2.4h4.6
		c1.2,0,2.4,1,2.4,2.4V81.9z"/>
	<path class="st0" d="M100.7,70.1h-4.6c-3.8,0-7,3.2-7,7v4.6c0,3.8,3.2,7,7,7h4.6c3.8,0,7-3.2,7-7v-4.6
		C107.7,73.3,104.5,70.1,100.7,70.1z M95.9,74.9h3.8l-6,6v-3.8C93.7,75.9,94.7,74.9,95.9,74.9z M100.7,84.1h-3.8l6-6v3.8
		C103.1,83.1,101.9,84.1,100.7,84.1z"/>
	<path class="st1" d="M124,70.1h-4.6c-3.8,0-7,3.2-7,7v4.6c0,3.8,3.2,7,7,7h4.6c3.8,0,7-3.2,7-7v-4.6C131,73.3,127.8,70.1,124,70.1z
		 M119.4,74.9h3.8l-6,6v-3.8C117,75.9,118,74.9,119.4,74.9z M124,84.1h-3.8l6-6v3.8C126.4,83.1,125.4,84.1,124,84.1z"/>
	<path class="st0" d="M30.4,93.5h-4.6c-3.8,0-7,3.2-7,7v4.6c0,3.8,3.2,7,7,7h4.6c3.8,0,7-3.2,7-7v-4.6
		C37.5,96.7,34.4,93.5,30.4,93.5z M32.8,105.3c0,1.2-1,2.4-2.4,2.4h-4.6c-1.2,0-2.4-1-2.4-2.4v-4.6c0-1.2,1-2.4,2.4-2.4h4.6
		c1.2,0,2.4,1,2.4,2.4V105.3z"/>
	<path class="st1" d="M53.9,93.5h-4.6c-3.8,0-7,3.2-7,7v4.6c0,3.8,3.2,7,7,7h4.6c3.8,0,7-3.2,7-7v-4.6
		C60.9,96.7,57.7,93.5,53.9,93.5z M56.1,105.3c0,1.2-1,2.4-2.4,2.4h-4.6c-1.2,0-2.4-1-2.4-2.4v-4.6c0-1.2,1-2.4,2.4-2.4h4.6
		c1.2,0,2.4,1,2.4,2.4V105.3z"/>
	<path class="st0" d="M77.3,93.5h-4.6c-3.8,0-7,3.2-7,7v4.6c0,3.8,3.2,7,7,7h4.6c3.8,0,7-3.2,7-7v-4.6
		C84.3,96.7,81.1,93.5,77.3,93.5z M79.5,105.3c0,1.2-1,2.4-2.4,2.4h-4.6c-1.2,0-2.4-1-2.4-2.4v-4.6c0-1.2,1-2.4,2.4-2.4h4.6
		c1.2,0,2.4,1,2.4,2.4V105.3z"/>
	<path class="st1" d="M100.7,93.5h-4.6c-3.8,0-7,3.2-7,7v4.6c0,3.8,3.2,7,7,7h4.6c3.8,0,7-3.2,7-7v-4.6
		C107.7,96.7,104.5,93.5,100.7,93.5z M95.9,98.3h3.8l-6,6v-3.8C93.7,99.3,94.7,98.3,95.9,98.3z M100.7,107.7h-3.8l6-6v3.8
		C103.1,106.5,101.9,107.7,100.7,107.7z"/>
	<path class="st0" d="M124,93.5h-4.6c-3.8,0-7,3.2-7,7v4.6c0,3.8,3.2,7,7,7h4.6c3.8,0,7-3.2,7-7v-4.6C131,96.7,127.8,93.5,124,93.5z
		 M119.4,98.3h3.8l-6,6v-3.8C117,99.3,118,98.3,119.4,98.3z M124,107.7h-3.8l6-6v3.8C126.4,106.5,125.4,107.7,124,107.7z"/>
	<path class="st1" d="M124,14H25.8c-3.8,0-7,3.2-7,7v9.4c0,3.8,3.2,7,7,7H124c3.8,0,7-3.2,7-7V21C131,17.2,127.8,14,124,14z
		 M126.4,30.4c0,1.2-1,2.4-2.4,2.4H25.8c-1.2,0-2.4-1-2.4-2.4V21c0-1.2,1-2.4,2.4-2.4H124c1.2,0,2.4,1,2.4,2.4V30.4z"/>
	<path class="st2" d="M30.4,21c-1.2,0-2.4,1-2.4,2.4V28c0,1.2,1,2.4,2.4,2.4c1.4,0,2.4-1,2.4-2.4v-4.6C32.8,22,31.8,21,30.4,21z"/>
	<path class="st0" d="M39.7,21c-1.2,0-2.4,1-2.4,2.4V28c0,1.2,1,2.4,2.4,2.4c1.4,0,2.4-1,2.4-2.4v-4.6C42.1,22,41.1,21,39.7,21z"/>
	<path class="st2" d="M49.1,21c-1.2,0-2.4,1-2.4,2.4V28c0,1.2,1,2.4,2.4,2.4c1.4,0,2.4-1,2.4-2.4v-4.6C51.5,22,50.5,21,49.1,21z"/>
	<path class="st0" d="M58.5,21c-1.2,0-2.4,1-2.4,2.4V28c0,1.2,1,2.4,2.4,2.4c1.4,0,2.4-1,2.4-2.4v-4.6C60.9,22,59.7,21,58.5,21z"/>
	<path class="st2" d="M67.9,21c-1.2,0-2.4,1-2.4,2.4V28c0,1.2,1,2.4,2.4,2.4s2.4-1,2.4-2.4v-4.6C70.3,22,69.1,21,67.9,21z"/>
</g>
</svg>
