<?xml version="1.0" encoding="utf-8"?>
<!-- Generator: Adobe Illustrator 21.0.2, SVG Export Plug-In . SVG Version: 6.00 Build 0)  -->
<svg version="1.1" id="Layer_1" xmlns="http://www.w3.org/2000/svg" xmlns:xlink="http://www.w3.org/1999/xlink" x="0px" y="0px"
	 viewBox="0 0 150 166.8" style="enable-background:new 0 0 150 166.8;" xml:space="preserve">
<style type="text/css">
	.st0{fill:#703081;}
	.st1{fill:#9B75A6;}
</style>
<g id="Layer_2">
	<g>
		<path class="st0" d="M75,0C33.6,0,0,33.6,0,75c0,39.2,30.2,71.4,68.6,74.8L56.4,162c-1,1-1,2.8,0,4c0.6,0.6,1.2,0.8,2,0.8
			s1.4-0.2,2-0.8L77,149.4c0.2-0.2,0.4-0.6,0.6-1c0.2-0.6,0.2-1.4,0-2.2c-0.2-0.4-0.4-0.6-0.6-1l-16.6-16.6c-1-1-2.8-1-4,0
			s-1,2.8,0,4L68,144.2C33,140.6,5.6,111,5.6,75C5.6,36.8,36.8,5.6,75,5.6s69.4,31.2,69.4,69.4c0,18.4-7.2,35.8-20.2,48.8
			c-1,1-1,2.8,0,4c1,1,2.8,1,4,0C142.2,113.6,150,95,150,75C150,33.8,116.4,0,75,0z"/>
	</g>
</g>
<g>
	<g>
		<path class="st1" d="M113.3,99.3l-6.9-62.4c-0.2-1.9-2.1-3.5-4.3-3.5H48c-2.1,0-4.1,1.5-4.3,3.5l-6.9,62.4c0,0.1,0,0.1,0,0.2v6.9
			c0,3.9,3.2,6.9,6.9,6.9h62.7c3.9,0,6.9-3.2,6.9-6.9v-6.9C113.3,99.4,113.3,99.3,113.3,99.3z M68.2,57.7c0-3.8,3.1-6.8,6.8-6.8
			c3.8,0,6.8,3.1,6.8,6.8V60h-2.6v-2.3c0-2.3-1.9-4.3-4.3-4.3c-2.3,0-4.3,1.9-4.3,4.3V60h-2.6V57.7L68.2,57.7z M65.4,62
			c0-0.7,0.6-1.2,1.3-1.2h16.5c0.7,0,1.2,0.6,1.2,1.2v12.8c0,0.7-0.6,1.3-1.2,1.3H66.7c-0.7,0-1.3-0.6-1.3-1.3V62L65.4,62z
			 M109.8,106.5c0,1.9-1.5,3.5-3.5,3.5H43.7c-1.9,0-3.5-1.5-3.5-3.5v-6.9c0-1.9,1.5-3.5,3.5-3.5h62.7c1.9,0,3.5,1.5,3.5,3.5
			L109.8,106.5L109.8,106.5z"/>
		<path class="st0" d="M47.8,100.4c1.4,0,2.6,1.1,2.6,2.4c0,1.4-1.1,2.6-2.6,2.6c-1.4,0-2.6-1.1-2.6-2.6
			C45.2,101.6,46.3,100.4,47.8,100.4z"/>
	</g>
</g>
</svg>
