<?xml version="1.0" encoding="utf-8"?>
<!-- Generator: Adobe Illustrator 21.0.2, SVG Export Plug-In . SVG Version: 6.00 Build 0)  -->
<svg version="1.1" id="Layer_1" xmlns="http://www.w3.org/2000/svg" xmlns:xlink="http://www.w3.org/1999/xlink" x="0px" y="0px"
	 viewBox="0 0 150 150" style="enable-background:new 0 0 150 150;" xml:space="preserve">
<style type="text/css">
	.st0{fill:#703081;}
	.st1{fill:#DF6B90;}
</style>
<g id="Layer_2">
	<path class="st0" d="M75,0C33.6,0,0,33.6,0,75s33.6,75,75,75s75-33.6,75-75S116.4,0,75,0z M75,3.1c39.7,0,71.9,32.2,71.9,71.9
		s-32.2,71.9-71.9,71.9S3.1,114.7,3.1,75S35.3,3.1,75,3.1z"/>
</g>
<g>
	<g>
		<path class="st0" d="M58.3,60H68l4.5,10.4c0.4,0.9,1.3,1.5,2.2,1.5c0,0,0,0,0.1,0c1,0,1.9-0.6,2.2-1.6L80.9,60h8.8
			c5.7,0,10.3-4.6,10.3-10.3V28.2c0-5.7-4.6-10.3-10.3-10.3H58.3c-5.7,0-10.3,4.6-10.3,10.3v21.5C48,55.4,52.6,60,58.3,60z
			 M52.8,28.2c0-3,2.4-5.5,5.5-5.5h31.4c3,0,5.5,2.4,5.5,5.5v21.5c0,3-2.4,5.5-5.5,5.5H79.2c-1,0-1.9,0.6-2.3,1.6L74.6,63l-2.8-6.4
			c-0.4-0.9-1.3-1.5-2.2-1.5H58.3c-3,0-5.5-2.4-5.5-5.5V28.2z"/>
		<path class="st1" d="M115.9,94.7c0.7-1.7,1-3.4,1-4.8c0-5.3-4.3-9.5-9.5-9.5c-5.3,0-9.5,4.3-9.5,9.5c0,1.5,0.4,3.1,1,4.8
			c-4.2,1.2-7.5,4.4-8.8,8.6c-0.8-0.4-1.7-0.8-2.5-1.2c2.1-3.6,3.3-7.7,3.3-11.3c0-8.8-7.1-15.9-15.9-15.9S59,81.9,59,90.7
			c0,3.9,1.4,8.4,3.7,12.1c-0.9,0.4-1.7,0.9-2.5,1.4c-1-4.6-4.5-8.3-9.1-9.6c0.7-1.6,1-3.3,1-4.8c0-5.3-4.3-9.5-9.5-9.5
			s-9.5,4.3-9.5,9.5c0,1.5,0.4,3.2,1,4.8c-5.3,1.6-9.1,6.5-9.1,12.3v1.8c0,1.3,1.1,2.4,2.4,2.4s2.4-1.1,2.4-2.4v-1.8
			c0-4.1,3.1-7.4,7.1-7.9c1.5,1.6,3.5,2.7,5.7,2.7c0,0,0,0,0,0c2.2,0,4.2-1.1,5.7-2.7c4.1,0.3,7.3,3.7,7.3,7.9
			c0,0.4,0.1,0.8,0.3,1.2c-3,3.6-4.9,8.3-4.9,13.4v8.2c0,1.3,1.1,2.4,2.4,2.4s2.4-1.1,2.4-2.4v-8.2c0-8.9,7.2-16.1,16.1-16.1h7.9
			c8.9,0,16.1,7.2,16.1,16.1v8.2c0,1.3,1.1,2.4,2.4,2.4c1.3,0,2.4-1.1,2.4-2.4v-8.2c0-5.9-2.5-11.3-6.4-15.1
			c0.3-3.9,3.3-7.1,7.3-7.4c1.5,1.6,3.5,2.7,5.7,2.7c2.2,0,4.2-1.1,5.7-2.7c4,0.4,7.1,3.8,7.1,7.9v1.8c0,1.3,1.1,2.4,2.4,2.4
			c1.3,0,2.4-1.1,2.4-2.4v-1.8C125,101.1,121.1,96.2,115.9,94.7z M42.6,96.9c-2.2,0-4.7-4.2-4.7-7.1c0-2.6,2.1-4.7,4.7-4.7
			s4.7,2.1,4.7,4.7C47.3,92.7,44.9,96.9,42.6,96.9z M72,100.6c-1.6,0-3.1,0.2-4.6,0.5c-2.2-3.1-3.6-7.2-3.6-10.4
			c0-6.1,5-11.1,11.1-11.1S86,84.6,86,90.7c0,3.2-1.3,7-3.4,10.1c-0.9-0.1-1.8-0.2-2.7-0.2H72z M107.4,96.9c-2.2,0-4.7-4.2-4.7-7.1
			c0-2.6,2.1-4.7,4.7-4.7c2.6,0,4.7,2.1,4.7,4.7C112,92.7,109.6,96.9,107.4,96.9z"/>
	</g>
</g>
</svg>
