<?xml version="1.0" encoding="utf-8"?>
<!-- Generator: Adobe Illustrator 20.1.0, SVG Export Plug-In . SVG Version: 6.00 Build 0)  -->
<svg version="1.1" id="Layer_1" xmlns="http://www.w3.org/2000/svg" xmlns:xlink="http://www.w3.org/1999/xlink" x="0px" y="0px"
	 viewBox="0 0 50 50" enable-background="new 0 0 50 50" xml:space="preserve">
<g>
	<path fill="#868686" d="M42,21.9c-0.4-7.3-6.5-13.1-13.7-13.1c-4.4,0-8.7,2.2-11.3,5.7c-0.1,0-0.1-0.1-0.2-0.1
		c-0.2-0.1-0.3-0.2-0.5-0.2c-0.1,0-0.2-0.1-0.3-0.1c-0.2-0.1-0.3-0.1-0.5-0.2c-0.1,0-0.2-0.1-0.3-0.1c-0.2,0-0.4-0.1-0.6-0.1
		c-0.1,0-0.2,0-0.2,0c-0.3,0-0.5,0-0.8,0c-4,0-7.3,3.3-7.3,7.3c0,0.1,0,0.2,0,0.3c-3.4,1.8-5.7,5.7-5.7,9.6
		c0,5.8,4.7,10.4,10.4,10.4h2.6c0.4,0,0.8-0.4,0.8-0.8c0-0.4-0.4-0.8-0.8-0.8h-2.6c-4.9,0-8.8-4-8.8-8.8c0-3.4,2.2-6.9,5.2-8.3
		l0.5-0.2v-0.5c0-0.1,0-0.2,0-0.3l0-0.2l0-0.2c0-0.1,0-0.1,0-0.2c0-3.1,2.6-5.7,5.7-5.7c0.3,0,0.5,0,0.7,0.1c0.1,0,0.1,0,0.2,0
		c0.2,0,0.4,0.1,0.6,0.1c0,0,0.1,0,0.1,0c0.2,0.1,0.5,0.2,0.7,0.3c0.1,0,0.1,0.1,0.2,0.1c0.2,0.1,0.4,0.2,0.6,0.3
		c1.6,1,2.6,2.8,2.6,4.8c0,0.4,0.4,0.8,0.8,0.8c0.4,0,0.8-0.4,0.8-0.8c0-2.2-1-4.2-2.6-5.6c2.3-3,6.2-5,10-5c6.3,0,11.5,5,12.1,11.3
		c-0.8-0.1-2.1-0.1-3.3,0.1c-0.4,0.1-0.7,0.5-0.7,0.9c0.1,0.4,0.4,0.7,0.8,0.7c0,0,0.1,0,0.1,0c1.8-0.3,3.7,0,3.8,0
		c3.8,0.7,6.6,4.2,6.6,8.1c0,4.5-3.7,8.1-8.1,8.1h-26c-0.4,0-0.8,0.4-0.8,0.8c0,0.4,0.4,0.8,0.8,0.8h26c5.4,0,9.8-4.4,9.8-9.8
		C49.4,27,46.3,23,42,21.9z"/>
</g>
</svg>
