<?xml version="1.0" encoding="utf-8"?>
<!-- Generator: Adobe Illustrator 21.0.2, SVG Export Plug-In . SVG Version: 6.00 Build 0)  -->
<svg version="1.1" id="Layer_1" xmlns="http://www.w3.org/2000/svg" xmlns:xlink="http://www.w3.org/1999/xlink" x="0px" y="0px"
	 viewBox="0 0 145.5 150" style="enable-background:new 0 0 145.5 150;" xml:space="preserve">
<style type="text/css">
	.st0{display:none;}
	.st1{fill:#D8427D;}
</style>
<g id="Layer_1_1_" class="st0">
</g>
<g id="Layer_4">
	<g>
		<g>
			<g>
				<path class="st1" d="M110.1,45.8H35.9c-2.4,0-4.3,1.9-4.3,4.3v14.6c0,2.4,1.9,4.3,4.3,4.3H110c2.4,0,4.3-1.9,4.3-4.3V50.1
					C114.4,47.8,112.4,45.8,110.1,45.8z M39.4,56.1c-1.5,0-2.6-1.1-2.6-2.6s1.1-2.6,2.6-2.6S42,52,42,53.5
					C42,54.7,40.9,56.1,39.4,56.1z M103,63.6H84.2v-6.2H103V63.6L103,63.6z"/>
				<path class="st1" d="M110.1,71.4H35.9c-2.4,0-4.3,1.9-4.3,4.3v14.6c0,2.4,1.9,4.3,4.3,4.3H110c2.4,0,4.3-1.9,4.3-4.3V75.8
					C114.4,73.3,112.4,71.4,110.1,71.4z M39.4,81.6c-1.5,0-2.6-1.1-2.6-2.6s1.1-2.6,2.6-2.6S42,77.5,42,79
					C42,80.4,40.9,81.6,39.4,81.6z M103,89.3H84.2v-6.2H103V89.3L103,89.3z"/>
				<path class="st1" d="M110.1,96.9H35.9c-2.4,0-4.3,1.9-4.3,4.3v14.6c0,2.4,1.9,4.3,4.3,4.3H110c2.4,0,4.3-1.9,4.3-4.3v-14.6
					C114.4,98.8,112.4,96.9,110.1,96.9z M39.4,107.1c-1.5,0-2.6-1.1-2.6-2.6s1.1-2.6,2.6-2.6s2.6,1.1,2.6,2.6
					C42,105.9,40.9,107.1,39.4,107.1z M103,114.7H84.2v-6.2H103V114.7L103,114.7z"/>
				<polygon class="st1" points="85.7,134.1 77.9,134.1 77.9,122.6 68.1,122.6 68.1,134.1 60.2,134.1 60.2,137.1 32.5,137.1 
					32.5,147 60.2,147 60.2,150 85.7,150 85.7,147 113.5,147 113.5,137.1 85.7,137.1 				"/>
				<path class="st1" d="M116.7,22.3c-1.1,0-2.1-0.6-2.6-1.5c-6-8.1-15.4-12.9-25.7-12.9c-0.6,0-1.3,0-1.9,0c-0.9,0-1.7-0.2-2.4-0.8
					C77.9,2.4,70.4,0,62.5,0C48.4,0,36,8.1,30.2,20.4c-0.6,1.1-1.7,1.9-2.8,2.1C12,24.8,0,38.1,0,54c0,15.4,10.9,28.1,25.3,31.1
					v-9.4c0-1.1,0.2-2.2,0.6-3.4c-7.7-2.6-13.3-9.7-13.3-18.4c0-10.7,8.6-19.3,19.3-19.3c0.6,0,1.1,0,1.5,0c3,0.2,5.8-1.7,6.6-4.7
					c2.6-10.2,11.8-17.5,22.5-17.5c6,0,11.8,2.4,16.1,6.6c1.5,1.5,3.6,2.1,5.6,1.7c1.3-0.2,2.6-0.4,3.9-0.4
					c7.5,0,14.1,4.1,17.4,10.9c1.1,2.4,3.6,3.8,6.2,3.6c0.6,0,1.3-0.2,1.9-0.2c10.7,0,19.3,8.6,19.3,19.3c0,8.6-5.6,15.8-13.3,18.4
					c0.4,1.1,0.6,2.2,0.6,3.4v9.4c14.4-3,25.3-15.9,25.3-31.1C145.9,37.3,133,23.6,116.7,22.3z"/>
			</g>
		</g>
	</g>
</g>
</svg>
