<svg id="Layer_1" xmlns="http://www.w3.org/2000/svg" viewBox="0 0 150 121.3"><style>.st0{fill:#d8427d}</style><g id="Layer_4"><path class="st0" d="M87.5 36.5h-59c-1.9 0-3.4 1.5-3.4 3.4v11.6c0 1.9 1.5 3.4 3.4 3.4h58.9c1.9 0 3.4-1.5 3.4-3.4V39.9c.2-1.8-1.5-3.4-3.3-3.4zm-56.2 8.2c-1.2 0-2.1-.9-2.1-2.1 0-1.2.9-2.1 2.1-2.1s2.1.9 2.1 2.1c0 1-.9 2.1-2.1 2.1zm50.6 5.9h-15v-4.9h14.9l.1 4.9zM87.5 56.9h-59c-1.9 0-3.4 1.5-3.4 3.4v11.6c0 1.9 1.5 3.4 3.4 3.4h58.9c1.9 0 3.4-1.5 3.4-3.4V60.3c.2-1.9-1.5-3.4-3.3-3.4zm-56.2 8c-1.2 0-2.1-.9-2.1-2.1s.9-2.1 2.1-2.1 2.1.9 2.1 2.1c0 1.2-.9 2.1-2.1 2.1zM81.9 71h-15v-4.9h14.9l.1 4.9zM87.5 77.2h-59c-1.9 0-3.4 1.5-3.4 3.4v11.6c0 1.9 1.5 3.4 3.4 3.4h58.9c1.9 0 3.4-1.5 3.4-3.4V80.6c.2-1.9-1.5-3.4-3.3-3.4zm-56.2 8c-1.2 0-2.1-.9-2.1-2.1s.9-2.1 2.1-2.1 2.1.9 2.1 2.1c0 1.2-.9 2.1-2.1 2.1zm50.6 6.1h-15v-4.9h14.9l.1 4.9zM68.1 106.7h-6.2v-9.1h-7.8v9.1h-6.2v2.4H25.8v7.9h22.1v2.4h20.2V117h22.1v-7.9H68.1z"/><path class="st0" d="M92.7 17.8c-.9 0-1.6-.4-2.1-1.2-4.8-6.4-12.2-10.3-20.4-10.3h-1.5c-.7 0-1.3-.1-1.9-.6C61.9 2 55.9 0 49.7 0c-11.2 0-21 6.4-25.6 16.3-.4.9-1.3 1.5-2.2 1.6C9.5 19.8 0 30.3 0 43c0 12.2 8.6 22.4 20.1 24.8v-7.5c0-.9.1-1.8.4-2.7C14.5 55.5 10 49.9 10 43c0-8.5 6.8-15.3 15.3-15.3h1.2c2.4.1 4.6-1.3 5.2-3.7 2.1-8.2 9.4-14 17.9-14 4.8 0 9.4 1.9 12.8 5.2 1.2 1.2 2.8 1.6 4.5 1.3 1-.1 2.1-.3 3.1-.3 6 0 11.2 3.3 13.9 8.6.9 1.9 2.8 3 4.9 2.8.4 0 1-.1 1.5-.1 8.5 0 15.4 6.9 15.4 15.4 0 6.9-4.5 12.5-10.6 14.6.3.9.4 1.8.4 2.7v7.5c11.5-2.4 20.1-12.7 20.1-24.8.4-13.2-9.9-24-22.9-25.1z"/><g><path class="st0" d="M150 94.3c0 15.2-11.6 26.4-25.2 27-7.2.3-13.6-1.8-18.9-6.4-6-5.4-9.1-12.1-9.1-20.1 0-6.9 2.2-13 7-18 5.5-6 12.4-8.8 20.6-8.6 13.7.2 25.3 11.5 25.6 26.1zm-13.3-3.7v-.7c0-.1 0-.3.1-.3.4-2.1.6-4.2-.3-6.3-.9-1.9-1.5-3.9-2.4-5.7-.4-.9-.9-1.9-1.6-2.7-1.8-1.6-4.2-1.6-6.4-1.3-1.3.1-2.5.6-3.9.4-1.6-.1-3.4-.4-5.1-.6-1.5-.1-3 1-3.4 2.4-.6 1.8-1 3.4-1.5 5.2-.4 1.6-.1 2.7 1.5 3.6s3.4 1.5 5.2 2.1c1.3.4 2.7.7 4 1.3.9.3 1.5.9 1.5 1.9 0 .7.3 1.3.7 1.9.1.3.3.6.4.9 0 .1-.1.1-.1.3-.7 0-1.6 0-2.4-.1-4.2-1.2-8.1-2.8-11.6-5.2-.4-.3-.7-.7-.7-1.2-.1-.7-.1-1.5 0-2.1s-.1-.7-.6-.7c-1.5.1-2.8.1-4.3.3-1.6.1-2.8.9-3.7 2.2-.4.6-.6 1.3-.1 1.9.6.9 1.2 1.8 1.8 2.4 1.5 1.3 3 2.8 4.6 4 1.9 1.3 3.9 2.7 6 3.7 1.6.9 3.4 1.5 5.1 2.1 2.2.9 4.6 1.5 7 1.8 1 .1 2.2.3 3.3.3 1.6 0 3.3 0 4.8-.1 1.9-.1 3.7-1.2 5.5-2.1 2.2-1.2 3.9-2.8 4.5-5.4.3-1.6.3-3.1-1.2-4.2-1.6-1-3.3-2.1-5.2-2.7.2 1.2-.1 2.2-1.5 2.7zM99 104.3c4.5 9.8 11.8 15.7 22.5 16.4 9.2.7 16.8-2.8 22.7-10.3h-1.8c-1.5 0-3.1-.1-4.6-.1-.1 0-.4.3-.3.4.1.6-.1.9-.6 1.2-1.6.7-3.3 1.8-4.6 3.1-.4.4-1 .7-1.5.9-.3.1-.6 0-.9-.1 0-.3 0-.6.1-.9 1.2-1.6 2.4-3.1 3.6-4.8.1-.3.4-.4.4-.7.3-1.5.7-3.1 1-4.6.1-.3 0-.6-.4-.6h-2.5c-1.2 0-2.4-.4-3.6.1-.3.1-.6 0-.9 0-.6-.1-1.3-.3-1.9-.3-1.5 0-3 .1-4.5.1-.7 0-1.6-.3-2.2-.7-1-.9-1.9-1.9-3-3-.3-.4-.7-.4-1.2-.3-.7.3-1.2 0-1.6-.6-.6-.7-1.3-1.5-2.1-2.2-.4-.4-1-.6-1.6-.3-.7.3-1.5.7-1.5 1.6s.3 1.6.7 2.4c.6.7 1.2 1.6 2.1 2.2.1.1.3.6.1.9-.1.3-.4.4-.7.6-.7.1-1.3 0-1.9-.6s-1.2-1.2-1.9-1.8c-.3-.3-.6-.4-1-.4h-6.1c-1.2.2-1 .6-.3 2.4z"/><path class="st0" d="M115.7 77.8c.4.3.9.4 1.2.7.7.7 1.8.7 2.7.6 1.2-.3 2.2.1 3.3.4.1 0 .3.3.3.3 0 .1-.1.4-.3.4-.6.1-1 .3-1.6.4-.7.1-1.6.1-2.4.3-.3 0-.6.1-.7.3-1 .9-1.8 0-2.5-.4s-.9-1.3-.7-2.2c0-.2.4-.5.7-.8zM126.4 75.1c.9-.4 1.8-.4 2.7-.4.4 0 .7.1 1.2.3.6.3.9.6.9 1.3 0 .6-.4.9-.9.9-.7.1-1.5.1-2.1.1-.1 0-.3-.1-.4-.3.4-.3.7-.6 1.2-1-.6-.8-1.7-.6-2.6-.9zM127.5 109.5c-.7-.3-1.5-.4-2.1-.7h-.1c-.4 0-.9 0-.7-.6.1-.6.7-.9 1.3-.7.3.1.7.3 1 .4.6.3 1 .4 1.5-.1.1-.1.7-.1.7-.1.1.3.3.7.3 1-.6.7-1.2.8-1.9.8z"/></g></g></svg>