<?xml version="1.0" encoding="utf-8"?>
<!-- Generator: Adobe Illustrator 21.0.2, SVG Export Plug-In . SVG Version: 6.00 Build 0)  -->
<svg version="1.1" id="Layer_1" xmlns="http://www.w3.org/2000/svg" xmlns:xlink="http://www.w3.org/1999/xlink" x="0px" y="0px"
	 viewBox="0 0 150 126.6" style="enable-background:new 0 0 150 126.6;" xml:space="preserve">
<style type="text/css">
	.st0{fill:#D8427D;}
</style>
<g id="Layer_3">
	<g>
		<g>
			<path class="st0" d="M92.7,38.8H30.2c-2.1,0-3.6,1.6-3.6,3.6v12.3c0,2.1,1.6,3.6,3.6,3.6h62.5c2.1,0,3.6-1.6,3.6-3.6V42.4
				C96.4,40.4,94.6,38.8,92.7,38.8z M33.1,47.3c-1.3,0-2.2-0.9-2.2-2.2s0.9-2.2,2.2-2.2c1.3,0,2.2,0.9,2.2,2.2S34.3,47.3,33.1,47.3z
				 M86.9,53.8H71v-5.2h15.8L86.9,53.8L86.9,53.8z"/>
			<path class="st0" d="M92.7,60.3H30.2c-2.1,0-3.6,1.6-3.6,3.6v12.4c0,2.1,1.6,3.6,3.6,3.6h62.5c2.1,0,3.6-1.6,3.6-3.6V63.9
				C96.4,61.9,94.6,60.3,92.7,60.3z M33.1,68.8c-1.3,0-2.2-0.9-2.2-2.2c0-1.3,0.9-2.2,2.2-2.2c1.3,0,2.2,0.9,2.2,2.2
				C35.3,67.9,34.3,68.8,33.1,68.8z M86.9,75.3H71v-5.2h15.8L86.9,75.3L86.9,75.3z"/>
			<path class="st0" d="M92.7,81.8H30.2c-2.1,0-3.6,1.6-3.6,3.6v12.3c0,2.1,1.6,3.6,3.6,3.6h62.5c2.1,0,3.6-1.6,3.6-3.6V85.5
				C96.4,83.4,94.6,81.8,92.7,81.8z M33.1,90.4c-1.3,0-2.2-0.9-2.2-2.2s0.9-2.2,2.2-2.2c1.3,0,2.2,0.9,2.2,2.2
				C35.3,89.4,34.3,90.4,33.1,90.4z M86.9,96.8H71v-5.2h15.8L86.9,96.8L86.9,96.8z"/>
			<polygon class="st0" points="72.3,113.1 65.5,113.1 65.5,103.5 57.3,103.5 57.3,113.1 50.6,113.1 50.6,115.8 27.4,115.8 
				27.4,124.1 50.6,124.1 50.6,126.6 72.3,126.6 72.3,124.1 95.6,124.1 95.6,115.8 72.3,115.8 			"/>
			<path class="st0" d="M98.4,18.8c-0.9,0-1.7-0.5-2.2-1.3c-5.1-6.8-13-10.9-21.7-10.9c-0.5,0-1.1,0-1.6,0c-0.8,0-1.4-0.2-2.1-0.6
				c-5.2-4-11.6-6-18.2-6C40.7,0,30.3,6.8,25.4,17.2c-0.5,0.9-1.4,1.6-2.4,1.7c-12.9,2-23,13.2-23,26.7c0,13,9.2,23.7,21.4,26.3V64
				c0-0.9,0.2-1.9,0.5-2.8C15.4,59,10.7,53,10.7,45.7c0-9,7.3-16.3,16.3-16.3c0.5,0,0.9,0,1.3,0c2.5,0.2,4.9-1.4,5.5-4
				c2.2-8.7,10-14.9,19-14.9c5.1,0,10,2.1,13.6,5.5c1.3,1.3,3,1.7,4.7,1.4c1.1-0.2,2.2-0.3,3.3-0.3c6.3,0,11.9,3.5,14.7,9.2
				c0.9,2.1,3,3.2,5.2,3c0.5,0,1.1-0.2,1.6-0.2c9,0,16.3,7.3,16.3,16.3c0,7.3-4.7,13.3-11.2,15.5c0.3,0.9,0.5,1.9,0.5,2.8v7.9
				c12.2-2.5,21.4-13.4,21.4-26.3C122.9,31.5,112,19.9,98.4,18.8z"/>
		</g>
	</g>
	<g>
		<g>
			<polygon class="st0" points="102.5,110.6 122,113.3 122,94.6 102.5,94.6 			"/>
			<polygon class="st0" points="102.5,92.3 122,92.3 122,73.4 102.5,76.1 			"/>
			<polygon class="st0" points="124.2,113.5 150,117.1 150,94.6 150,94.6 124.2,94.6 			"/>
			<polygon class="st0" points="124.2,73.3 124.2,92.3 150,92.3 150,69.6 			"/>
		</g>
	</g>
</g>
</svg>
