<?xml version="1.0" encoding="utf-8"?>
<!-- Generator: Adobe Illustrator 21.0.2, SVG Export Plug-In . SVG Version: 6.00 Build 0)  -->
<svg version="1.1" id="Layer_1" xmlns="http://www.w3.org/2000/svg" xmlns:xlink="http://www.w3.org/1999/xlink" x="0px" y="0px"
	 viewBox="0 0 150 121.3" style="enable-background:new 0 0 150 121.3;" xml:space="preserve">
<style type="text/css">
	.st0{fill:#D8427D;}
</style>
<g id="Layer_4">
	<g>
		<g>
			<g>
				<path class="st0" d="M87.5,36.5h-59c-1.9,0-3.4,1.5-3.4,3.4v11.6c0,1.9,1.5,3.4,3.4,3.4h58.9c1.9,0,3.4-1.5,3.4-3.4V39.9
					C91,38.1,89.3,36.5,87.5,36.5z M31.3,44.7c-1.2,0-2.1-0.9-2.1-2.1c0-1.2,0.9-2.1,2.1-2.1s2.1,0.9,2.1,2.1
					C33.4,43.6,32.5,44.7,31.3,44.7z M81.9,50.6h-15v-4.9h14.9L81.9,50.6L81.9,50.6z"/>
				<path class="st0" d="M87.5,56.9h-59c-1.9,0-3.4,1.5-3.4,3.4v11.6c0,1.9,1.5,3.4,3.4,3.4h58.9c1.9,0,3.4-1.5,3.4-3.4V60.3
					C91,58.4,89.3,56.9,87.5,56.9z M31.3,64.9c-1.2,0-2.1-0.9-2.1-2.1s0.9-2.1,2.1-2.1s2.1,0.9,2.1,2.1C33.4,64,32.5,64.9,31.3,64.9
					z M81.9,71h-15v-4.9h14.9L81.9,71L81.9,71z"/>
				<path class="st0" d="M87.5,77.2h-59c-1.9,0-3.4,1.5-3.4,3.4v11.6c0,1.9,1.5,3.4,3.4,3.4h58.9c1.9,0,3.4-1.5,3.4-3.4V80.6
					C91,78.7,89.3,77.2,87.5,77.2z M31.3,85.2c-1.2,0-2.1-0.9-2.1-2.1s0.9-2.1,2.1-2.1s2.1,0.9,2.1,2.1
					C33.4,84.3,32.5,85.2,31.3,85.2z M81.9,91.3h-15v-4.9h14.9L81.9,91.3L81.9,91.3z"/>
				<polygon class="st0" points="68.1,106.7 61.9,106.7 61.9,97.6 54.1,97.6 54.1,106.7 47.9,106.7 47.9,109.1 25.8,109.1 25.8,117 
					47.9,117 47.9,119.4 68.1,119.4 68.1,117 90.2,117 90.2,109.1 68.1,109.1 				"/>
				<path class="st0" d="M92.7,17.8c-0.9,0-1.6-0.4-2.1-1.2C85.8,10.2,78.4,6.3,70.2,6.3c-0.4,0-1,0-1.5,0c-0.7,0-1.3-0.1-1.9-0.6
					C61.9,2,55.9,0,49.7,0c-11.2,0-21,6.4-25.6,16.3c-0.4,0.9-1.3,1.5-2.2,1.6C9.5,19.8,0,30.3,0,43c0,12.2,8.6,22.4,20.1,24.8v-7.5
					c0-0.9,0.1-1.8,0.4-2.7C14.5,55.5,10,49.9,10,43c0-8.5,6.8-15.3,15.3-15.3c0.4,0,0.9,0,1.2,0c2.4,0.1,4.6-1.3,5.2-3.7
					c2.1-8.2,9.4-14,17.9-14c4.8,0,9.4,1.9,12.8,5.2c1.2,1.2,2.8,1.6,4.5,1.3c1-0.1,2.1-0.3,3.1-0.3c6,0,11.2,3.3,13.9,8.6
					c0.9,1.9,2.8,3,4.9,2.8c0.4,0,1-0.1,1.5-0.1c8.5,0,15.4,6.9,15.4,15.4c0,6.9-4.5,12.5-10.6,14.6c0.3,0.9,0.4,1.8,0.4,2.7v7.5
					c11.5-2.4,20.1-12.7,20.1-24.8C116,29.7,105.7,18.9,92.7,17.8z"/>
			</g>
		</g>
		<g>
			<g>
				<g>
					<path class="st0" d="M150,94.3c0,15.2-11.6,26.4-25.2,27c-7.2,0.3-13.6-1.8-18.9-6.4c-6-5.4-9.1-12.1-9.1-20.1
						c0-6.9,2.2-13,7-18c5.5-6,12.4-8.8,20.6-8.6C138.1,68.4,149.7,79.7,150,94.3z M136.7,90.6c0-0.3,0-0.6,0-0.7s0-0.3,0.1-0.3
						c0.4-2.1,0.6-4.2-0.3-6.3c-0.9-1.9-1.5-3.9-2.4-5.7c-0.4-0.9-0.9-1.9-1.6-2.7c-1.8-1.6-4.2-1.6-6.4-1.3
						c-1.3,0.1-2.5,0.6-3.9,0.4c-1.6-0.1-3.4-0.4-5.1-0.6c-1.5-0.1-3,1-3.4,2.4c-0.6,1.8-1,3.4-1.5,5.2c-0.4,1.6-0.1,2.7,1.5,3.6
						s3.4,1.5,5.2,2.1c1.3,0.4,2.7,0.7,4,1.3c0.9,0.3,1.5,0.9,1.5,1.9c0,0.7,0.3,1.3,0.7,1.9c0.1,0.3,0.3,0.6,0.4,0.9
						c0,0.1-0.1,0.1-0.1,0.3c-0.7,0-1.6,0-2.4-0.1c-4.2-1.2-8.1-2.8-11.6-5.2c-0.4-0.3-0.7-0.7-0.7-1.2c-0.1-0.7-0.1-1.5,0-2.1
						s-0.1-0.7-0.6-0.7c-1.5,0.1-2.8,0.1-4.3,0.3c-1.6,0.1-2.8,0.9-3.7,2.2c-0.4,0.6-0.6,1.3-0.1,1.9c0.6,0.9,1.2,1.8,1.8,2.4
						c1.5,1.3,3,2.8,4.6,4c1.9,1.3,3.9,2.7,6,3.7c1.6,0.9,3.4,1.5,5.1,2.1c2.2,0.9,4.6,1.5,7,1.8c1,0.1,2.2,0.3,3.3,0.3
						c1.6,0,3.3,0,4.8-0.1c1.9-0.1,3.7-1.2,5.5-2.1c2.2-1.2,3.9-2.8,4.5-5.4c0.3-1.6,0.3-3.1-1.2-4.2c-1.6-1-3.3-2.1-5.2-2.7
						C138.4,89.1,138.1,90.1,136.7,90.6z M99,104.3c4.5,9.8,11.8,15.7,22.5,16.4c9.2,0.7,16.8-2.8,22.7-10.3c-0.7,0-1.2,0-1.8,0
						c-1.5,0-3.1-0.1-4.6-0.1c-0.1,0-0.4,0.3-0.3,0.4c0.1,0.6-0.1,0.9-0.6,1.2c-1.6,0.7-3.3,1.8-4.6,3.1c-0.4,0.4-1,0.7-1.5,0.9
						c-0.3,0.1-0.6,0-0.9-0.1c0-0.3,0-0.6,0.1-0.9c1.2-1.6,2.4-3.1,3.6-4.8c0.1-0.3,0.4-0.4,0.4-0.7c0.3-1.5,0.7-3.1,1-4.6
						c0.1-0.3,0-0.6-0.4-0.6c-0.3,0-0.4,0-0.7,0c-0.6,0-1.2,0-1.8,0c-1.2,0-2.4-0.4-3.6,0.1c-0.3,0.1-0.6,0-0.9,0
						c-0.6-0.1-1.3-0.3-1.9-0.3c-1.5,0-3,0.1-4.5,0.1c-0.7,0-1.6-0.3-2.2-0.7c-1-0.9-1.9-1.9-3-3c-0.3-0.4-0.7-0.4-1.2-0.3
						c-0.7,0.3-1.2,0-1.6-0.6c-0.6-0.7-1.3-1.5-2.1-2.2c-0.4-0.4-1-0.6-1.6-0.3c-0.7,0.3-1.5,0.7-1.5,1.6s0.3,1.6,0.7,2.4
						c0.6,0.7,1.2,1.6,2.1,2.2c0.1,0.1,0.3,0.6,0.1,0.9c-0.1,0.3-0.4,0.4-0.7,0.6c-0.7,0.1-1.3,0-1.9-0.6s-1.2-1.2-1.9-1.8
						c-0.3-0.3-0.6-0.4-1-0.4c-1,0-2.2,0-3.3,0c-0.9,0-1.8,0-2.8,0C98.1,102.1,98.3,102.5,99,104.3z"/>
					<path class="st0" d="M115.7,77.8c0.4,0.3,0.9,0.4,1.2,0.7c0.7,0.7,1.8,0.7,2.7,0.6c1.2-0.3,2.2,0.1,3.3,0.4
						c0.1,0,0.3,0.3,0.3,0.3c0,0.1-0.1,0.4-0.3,0.4c-0.6,0.1-1,0.3-1.6,0.4c-0.7,0.1-1.6,0.1-2.4,0.3c-0.3,0-0.6,0.1-0.7,0.3
						c-1,0.9-1.8,0-2.5-0.4s-0.9-1.3-0.7-2.2C115,78.4,115.4,78.1,115.7,77.8z"/>
					<path class="st0" d="M126.4,75.1c0.9-0.4,1.8-0.4,2.7-0.4c0.4,0,0.7,0.1,1.2,0.3c0.6,0.3,0.9,0.6,0.9,1.3
						c0,0.6-0.4,0.9-0.9,0.9c-0.7,0.1-1.5,0.1-2.1,0.1c-0.1,0-0.3-0.1-0.4-0.3c0.4-0.3,0.7-0.6,1.2-1
						C128.4,75.2,127.3,75.4,126.4,75.1z"/>
					<path class="st0" d="M127.5,109.5c-0.7-0.3-1.5-0.4-2.1-0.7h-0.1c-0.4,0-0.9,0-0.7-0.6c0.1-0.6,0.7-0.9,1.3-0.7
						c0.3,0.1,0.7,0.3,1,0.4c0.6,0.3,1,0.4,1.5-0.1c0.1-0.1,0.7-0.1,0.7-0.1c0.1,0.3,0.3,0.7,0.3,1
						C128.8,109.4,128.2,109.5,127.5,109.5z"/>
				</g>
			</g>
		</g>
	</g>
</g>
</svg>
