<?xml version="1.0" encoding="utf-8"?>
<!-- Generator: Adobe Illustrator 21.0.2, SVG Export Plug-In . SVG Version: 6.00 Build 0)  -->
<svg version="1.1" id="Layer_1" xmlns="http://www.w3.org/2000/svg" xmlns:xlink="http://www.w3.org/1999/xlink" x="0px" y="0px"
	 viewBox="0 0 150 126.6" style="enable-background:new 0 0 150 126.6;" xml:space="preserve">
<style type="text/css">
	.st0{fill:#703081;}
	.st1{fill:#F2BA59;}
</style>
<g>
	<path class="st0" d="M138,0H11.8C5.4,0,0,5.2,0,11.8v103.1c0,6.4,5.2,11.8,11.8,11.8h126.4c6.4,0,11.8-5.2,11.8-11.8V11.6
		C149.8,5.2,144.6,0,138,0z M145.2,114.6c0,3.8-3.2,7-7,7H11.8c-3.8,0-7-3.2-7-7v-103c0-3.8,3.2-7,7-7h126.4c3.8,0,7,3.2,7,7V114.6z
		"/>
</g>
<g>
	<path class="st0" d="M127.8,25.5H22.2c-1.2,0-2.2,1-2.2,2.2v71.1c0,0.1,0,0.3,0,0.4c0,0.1,0,0.1,0.1,0.2c0,0.1,0,0.2,0.1,0.2
		c0,0.1,0.1,0.1,0.1,0.2c0,0.1,0.1,0.1,0.1,0.2c0.2,0.2,0.4,0.5,0.6,0.6c0.1,0,0.1,0.1,0.2,0.1c0.1,0,0.1,0.1,0.2,0.1
		c0.1,0,0.1,0,0.2,0.1c0.1,0,0.1,0,0.2,0.1c0.1,0,0.3,0,0.4,0h105.5c0.1,0,0.3,0,0.4,0c0.1,0,0.1,0,0.2-0.1c0.1,0,0.2,0,0.2-0.1
		s0.1-0.1,0.2-0.1c0.1,0,0.1-0.1,0.2-0.1c0.2-0.2,0.5-0.4,0.6-0.6c0-0.1,0.1-0.1,0.1-0.2c0-0.1,0.1-0.1,0.1-0.2c0-0.1,0-0.2,0.1-0.2
		c0-0.1,0-0.1,0.1-0.2c0-0.1,0-0.3,0-0.4V27.8C130,26.5,129,25.5,127.8,25.5z M27.7,96.6l25.2-25.2l6.3,6.3c0.9,0.9,2.3,0.9,3.2,0
		l20.6-20.6l39.4,39.4H27.7z M125.5,93.4l-41-41c-0.9-0.9-2.3-0.9-3.2,0L60.8,73l-6.3-6.3c-0.8-0.8-2.3-0.8-3.2,0L24.5,93.4V30h101
		V93.4z"/>
	<path class="st1" d="M79.1,66.7L69.7,76c-0.9,0.9-0.9,2.3,0,3.2c0.4,0.4,1,0.7,1.6,0.7s1.1-0.2,1.6-0.7l9.3-9.3
		c0.9-0.9,0.9-2.3,0-3.2C81.4,65.8,80,65.8,79.1,66.7z"/>
	<path class="st1" d="M49.7,80.2L40.9,89c-0.9,0.9-0.9,2.3,0,3.2c0.4,0.4,1,0.7,1.6,0.7s1.1-0.2,1.6-0.7l8.8-8.8
		c0.9-0.9,0.9-2.3,0-3.2C52,79.4,50.5,79.4,49.7,80.2z"/>
	<path class="st1" d="M39.5,55.8c5.4,0,9.7-4.4,9.7-9.7s-4.4-9.7-9.7-9.7c-5.4,0-9.7,4.4-9.7,9.7S34.1,55.8,39.5,55.8z M39.5,40.8
		c2.9,0,5.2,2.3,5.2,5.2s-2.3,5.2-5.2,5.2c-2.9,0-5.2-2.3-5.2-5.2C34.3,43.2,36.6,40.8,39.5,40.8z"/>
</g>
</svg>
