<?xml version="1.0" encoding="utf-8"?>
<!-- Generator: Adobe Illustrator 21.0.2, SVG Export Plug-In . SVG Version: 6.00 Build 0)  -->
<svg version="1.1" id="Layer_1" xmlns="http://www.w3.org/2000/svg" xmlns:xlink="http://www.w3.org/1999/xlink" x="0px" y="0px"
	 viewBox="0 0 150 150" style="enable-background:new 0 0 150 150;" xml:space="preserve">
<style type="text/css">
	.st0{fill:#D8427D;}
</style>
<g>
	<g>
		<g>
			<path class="st0" d="M112.5,38h-75v56.2h44.2c7.4,7.4,15.3,15.3,15.3,15.3c3.5,3.3,9,3.3,12.4-0.1c1.7-1.7,2.5-3.9,2.5-6.2
				c0-2.2-0.8-4.4-2.5-6.1c0,0-1.2-1.2-3-3h6.1L112.5,38L112.5,38z M106.7,99.8L106.7,99.8c1.8,2,1.8,5-0.1,6.9
				c-1.9,1.9-5,1.9-6.9,0l0,0L71,78l0.1-0.1l-13.1,0l-3.7-13.8l1.5-1.5l7.3,7.3l7.2-7.2l-7.3-7.3l1.5-1.5l13.8,3.7l0,13.5
				L106.7,99.8z M108.7,90.4c-0.6,0-2.8,0-6.1,0c-1.4-1.4-3-3-4.6-4.6h5.1V46.4H46.4v39.4h26.9c1.3,1.3,2.9,2.9,4.6,4.6
				c-16.9,0-34.7,0-36.5,0c0-3.4,0-45.1,0-48.6c3.5,0,63.8,0,67.3,0C108.7,45.2,108.7,86.9,108.7,90.4z"/>
			<path class="st0" d="M104.8,105c0.9-0.9,0.8-2.2,0-3.1c-0.9-0.8-2.2-0.8-3.1,0c-0.8,0.9-0.8,2.2,0,3.1
				C102.5,105.8,103.9,105.8,104.8,105z"/>
		</g>
	</g>
</g>
</svg>
