<?xml version="1.0" encoding="utf-8"?>
<!-- Generator: Adobe Illustrator 20.1.0, SVG Export Plug-In . SVG Version: 6.00 Build 0)  -->
<svg version="1.1" id="Layer_1" xmlns="http://www.w3.org/2000/svg" xmlns:xlink="http://www.w3.org/1999/xlink" x="0px" y="0px"
	 viewBox="0 0 50 50" enable-background="new 0 0 50 50" xml:space="preserve">
<circle fill="#E89F2B" cx="25" cy="24.8" r="22"/>
<path fill="#C97B29" d="M22.9,26.2l-0.6-9.3c-0.1-1.8-0.2-3.1-0.2-3.9c0-1.1,0.3-1.9,0.8-2.5c0.6-0.6,1.3-0.9,2.2-0.9
	c1.1,0,1.9,0.4,2.2,1.2c0.4,0.8,0.6,1.9,0.6,3.3c0,0.9,0,1.7-0.1,2.6L27,26.3c-0.1,1.1-0.3,2-0.6,2.6c-0.3,0.6-0.8,0.9-1.5,0.9
	c-0.7,0-1.2-0.3-1.5-0.9C23.2,28.3,23,27.4,22.9,26.2z M25.1,39c-0.8,0-1.5-0.3-2.1-0.8c-0.6-0.5-0.9-1.2-0.9-2.1
	c0-0.8,0.3-1.5,0.8-2c0.6-0.6,1.3-0.8,2.1-0.8c0.8,0,1.5,0.3,2.1,0.8c0.6,0.6,0.9,1.2,0.9,2c0,0.9-0.3,1.6-0.9,2.1
	C26.5,38.7,25.8,39,25.1,39z"/>
</svg>
