<?xml version="1.0" encoding="utf-8"?>
<!-- Generator: Adobe Illustrator 21.0.2, SVG Export Plug-In . SVG Version: 6.00 Build 0)  -->
<svg version="1.1" id="Layer_1" xmlns="http://www.w3.org/2000/svg" xmlns:xlink="http://www.w3.org/1999/xlink" x="0px" y="0px"
	 viewBox="0 0 150 150" style="enable-background:new 0 0 150 150;" xml:space="preserve">
<style type="text/css">
	.st0{fill:#703081;}
	.st1{fill:#F2BA59;}
</style>
<g id="Layer_1_1_">
	<path class="st0" d="M131.1,55.1c0.1-0.9,0.1-1.6,0.1-2.5c0-11.6-9.5-21.1-21.1-21.1c-1.5,0-2.9,0.1-4.4,0.5
		c-4.6-12.9-17-21.6-30.8-21.6s-26.1,8.8-30.8,21.5c-1.4-0.3-2.9-0.5-4.4-0.5c-11.6,0-21.1,9.5-21.1,21.1c0,0.7,0,1.6,0.1,2.5
		C8.3,56.1,0,65.1,0,76c0,11.6,9.5,21.1,21.1,21.1h18.8v-4.8H21.1c-9,0-16.4-7.4-16.4-16.4s7.4-16.4,16.6-16.4l0,0h0.4
		c0.7,0,1.5-0.3,1.9-0.9c0.5-0.6,0.6-1.4,0.5-2c-0.4-1.4-0.5-2.8-0.5-4.1c0-9,7.4-16.4,16.4-16.4c1.8,0,3.5,0.3,5.1,0.9
		c0.6,0.3,1.3,0.1,1.9-0.1c0.6-0.3,1-0.8,1.1-1.4c3.3-12,14.4-20.4,26.9-20.4s23.6,8.4,27,20.4c0.1,0.6,0.6,1.1,1.1,1.4
		c0.6,0.3,1.3,0.4,1.9,0.1c1.6-0.5,3.4-0.9,5.1-0.9c9,0,16.4,7.4,16.4,16.4c0,1.4-0.1,2.8-0.5,4.1c-0.1,0.8,0,1.5,0.5,2
		c0.5,0.6,1.1,0.9,1.9,0.9h0.5c9,0,16.4,7.4,16.4,16.4s-7.4,16.4-16.4,16.4h-18.8V97h18.8c11.6,0,21.1-9.5,21.1-21.1
		C150,65.1,141.8,56.1,131.1,55.1z"/>
	<path class="st1" d="M56.3,43.2h-4.8C51.5,30.4,62,19.7,75,19.7v4.8C64.6,24.5,56.3,32.9,56.3,43.2z"/>
</g>
<g id="Layer_2">
</g>
<path class="st1" d="M115,129.1c-1.8-1.1-3.9-1.8-6-1.8c-3.5,0-6.7,1.6-8.8,4.3L79,119.2c0-0.1,0-0.2,0-0.4c0-4-1.6-7.6-4.2-10.3
	l10.5-15.1c1.8,1.1,3.9,1.8,6,1.8c3.5,0,6.7-1.6,8.8-4.3c3.9-4.9,3-12-1.8-15.8c-2-1.6-4.5-2.4-7-2.4c-3.5,0-6.7,1.6-8.8,4.3
	c-1.9,2.4-2.7,5.3-2.4,8.3c0.3,2.6,1.5,4.9,3.4,6.7L73,107c-2.5-1.8-5.5-2.9-8.8-2.9c-1.4,0-2.7,0.2-4,0.6l-10-29.3
	c5.1-2.4,7.8-8.3,5.9-13.8c-1.6-4.5-5.8-7.6-10.6-7.6c-1.2,0-2.5,0.2-3.7,0.6c-5.9,2-9,8.4-7,14.3c1.6,4.5,5.8,7.6,10.6,7.6
	c0.9,0,1.7-0.1,2.5-0.3L58,105.4c-5,2.3-8.5,7.4-8.5,13.4c0,1.4,0.2,2.8,0.6,4.2l-19.3,8.6c-1.9-3.6-5.7-5.9-9.9-5.9
	c-1.5,0-2.9,0.3-4.2,0.8c-2.8,1.1-5,3.3-6.1,6.1c-1.1,2.8-1.2,5.8-0.1,8.6c1.7,4.3,5.8,7,10.4,7c1.5,0,2.9-0.3,4.2-0.8
	c5.4-2.2,8.1-8.1,6.5-13.6l19.3-8.6c2.4,5,7.4,8.4,13.3,8.4c7.1,0,13.1-5.1,14.5-11.8l20.2,11.9c-2.5,5.1-0.9,11.4,4,14.5
	c1.8,1.1,3.9,1.8,6,1.8c3.9,0,7.4-2,9.5-5.2C121.8,139.4,120.2,132.4,115,129.1z M40.4,67c-0.5-1.4-0.4-2.8,0.3-4.1
	c0.6-1.3,1.7-2.3,3.1-2.7c0.6-0.2,1.2-0.3,1.7-0.3c2.3,0,4.3,1.5,5.1,3.6c0.5,1.4,0.4,2.8-0.3,4.1c-0.6,1.3-1.7,2.3-3.1,2.7
	C44.4,71.3,41.3,69.7,40.4,67z M22.9,141.9c-2.7,1.1-5.9-0.3-7-2.9c-0.5-1.3-0.5-2.8,0-4.1c0.6-1.3,1.6-2.3,2.9-2.9
	c0.6-0.3,1.3-0.4,2-0.4c2.2,0,4.1,1.3,5,3.3C27,137.6,25.6,140.7,22.9,141.9z M87.1,80.6c1-1.3,2.6-2,4.2-2c1.2,0,2.4,0.4,3.3,1.2
	c2.3,1.8,2.7,5.2,0.9,7.5c-1.8,2.2-5.3,2.7-7.5,0.9c-1.1-0.9-1.8-2.2-2-3.6C85.8,83.1,86.2,81.7,87.1,80.6z M64.2,127.7
	c-3.5,0-6.4-2-7.9-4.9l0.2-0.1l-1-2.2h-0.1c-0.1-0.6-0.2-1.1-0.2-1.7c0-4.9,4-8.9,8.9-8.9s8.9,4,8.9,8.9S69.1,127.7,64.2,127.7z
	 M113.5,141.5c-1.5,2.4-5,3.2-7.4,1.7c-2.5-1.6-3.2-4.9-1.7-7.4c1-1.6,2.7-2.5,4.5-2.5c1,0,2,0.3,2.9,0.8
	C114.3,135.7,115.1,139,113.5,141.5z"/>
</svg>
