<?xml version="1.0" encoding="utf-8"?>
<!-- Generator: Adobe Illustrator 21.0.2, SVG Export Plug-In . SVG Version: 6.00 Build 0)  -->
<svg version="1.1" id="Layer_1" xmlns="http://www.w3.org/2000/svg" xmlns:xlink="http://www.w3.org/1999/xlink" x="0px" y="0px"
	 viewBox="0 0 150 166.8" style="enable-background:new 0 0 150 166.8;" xml:space="preserve">
<style type="text/css">
	.st0{fill:#703081;}
	.st1{fill:#9B75A6;}
</style>
<g id="Layer_2">
	<g>
		<path class="st0" d="M75,0C33.6,0,0,33.6,0,75c0,39.2,30.2,71.4,68.6,74.8L56.4,162c-1,1-1,2.8,0,4c0.6,0.6,1.2,0.8,2,0.8
			s1.4-0.2,2-0.8L77,149.4c0.2-0.2,0.4-0.6,0.6-1c0.2-0.6,0.2-1.4,0-2.2c-0.2-0.4-0.4-0.6-0.6-1l-16.6-16.6c-1-1-2.8-1-4,0
			s-1,2.8,0,4L68,144.2C33,140.6,5.6,111,5.6,75C5.6,36.8,36.8,5.6,75,5.6s69.4,31.2,69.4,69.4c0,18.4-7.2,35.8-20.2,48.8
			c-1,1-1,2.8,0,4c1,1,2.8,1,4,0C142.2,113.6,150,95,150,75C150,33.8,116.4,0,75,0z"/>
	</g>
</g>
<g transform="translate(0,-952.36218)">
	<path class="st1" d="M39.8,990.5c-4.4,0-8,3.6-8,8v46.6h-4.5c-0.1,0-0.1,0-0.2,0c-1.2,0.1-2.1,1.1-2.1,2.3v4.5c0,5,4.1,9.1,9.1,9.1
		h81.8c5,0,9.1-4.1,9.1-9.1v-4.5c0-1.3-1-2.3-2.3-2.3h-4.5v-46.6c0-4.4-3.6-8-8-8C110.2,990.5,39.8,990.5,39.8,990.5z M39.8,995.1
		h70.5c1.9,0,3.4,1.5,3.4,3.4v46.6H36.4v-46.6C36.4,996.6,37.8,995.1,39.8,995.1z M75,1000.8c-6.3,0-11.4,5.1-11.4,11.4v4.5
		c-0.8,0-1.7,0-2.5,0c-1.1,0.1-2.1,1.2-2.1,2.3v18.2c0,1.2,1.1,2.3,2.3,2.3h27.3c1.2,0,2.3-1.1,2.3-2.3v-18.2c0-1.2-1.1-2.3-2.3-2.3
		h-2.3v-4.5C86.4,1005.9,81.3,1000.8,75,1000.8z M75,1005.3c3.8,0,6.8,3,6.8,6.8v4.5H68.2v-4.5C68.2,1008.3,71.2,1005.3,75,1005.3z
		 M63.6,1021.2h22.7v13.6H63.6V1021.2z M29.5,1049.6h90.9v2.3c0,2.6-2,4.5-4.5,4.5H34.1c-2.6,0-4.5-2-4.5-4.5V1049.6z"/>
</g>
</svg>
