<?xml version="1.0" encoding="utf-8"?>
<!-- Generator: Adobe Illustrator 21.0.2, SVG Export Plug-In . SVG Version: 6.00 Build 0)  -->
<svg version="1.1" id="Layer_1" xmlns="http://www.w3.org/2000/svg" xmlns:xlink="http://www.w3.org/1999/xlink" x="0px" y="0px"
	 viewBox="0 0 150 138.2" style="enable-background:new 0 0 150 138.2;" xml:space="preserve">
<style type="text/css">
	.st0{fill:#F2BA59;}
	.st1{fill:#703081;}
</style>
<path class="st0" d="M31.9,69.2c-1.8,0-3.2,1.4-3.2,3.2s1.4,3.2,3.2,3.2h14.6c1.8,0,3.2-1.4,3.2-3.2s-1.4-3.2-3.2-3.2H31.9z"/>
<path class="st0" d="M53,42.4H25.3c-1.8,0-3.2,1.4-3.2,3.2c0,1.8,1.4,3.2,3.2,3.2H53c1.8,0,3.2-1.4,3.2-3.2
	C56.2,44,54.8,42.4,53,42.4z"/>
<path class="st0" d="M56.2,59c0-1.8-1.4-3.2-3.2-3.2H25.3c-1.8,0-3.2,1.4-3.2,3.2s1.4,3.2,3.2,3.2H53C54.8,62.2,56.2,60.8,56.2,59z"
	/>
<path class="st0" d="M93.8,45.6c0,1.8,1.4,3.2,3.2,3.2h27.8c1.8,0,3.2-1.4,3.2-3.2s-1.4-3.2-3.2-3.2H97C95.2,42.4,93.8,44,93.8,45.6
	z"/>
<path class="st0" d="M144.6,111c-3.4,3.4-10.6,3-20,2.4c-13.2-0.8-31-2-49.6,7.6c-18.8-9.4-36.6-8.4-49.6-7.6
	c-9.4,0.6-16.8,1.2-20-2.4c-1.2-1.4-3.2-1.4-4.4-0.2c-1.4,1.2-1.4,3.2-0.2,4.4c5.4,5.8,14,5.2,25,4.6V135c0,1.2,0.6,2.2,1.6,2.8
	c0.4,0.2,1,0.4,1.6,0.4s1.2-0.2,1.6-0.4l8.6-4.8l8.6,4.8c1,0.6,2.2,0.6,3.2,0s1.6-1.6,1.6-2.8v-14.6c6.6,1.2,13.8,3.2,21,7.2
	c1,0.6,2,0.6,3,0c17.6-9.6,34.2-8.6,47.6-7.8c11,0.6,19.8,1.2,25-4.6c1.2-1.2,1-3.2-0.2-4.4C147.6,109.6,145.6,109.6,144.6,111z
	 M45.9,129.4l-5.4-3c-0.8-0.6-2-0.6-3,0l-5.4,3v-10c4.4-0.2,9.2-0.2,14,0.2L45.9,129.4z"/>
<path class="st0" d="M118.2,69.2h-14.6c-1.8,0-3.2,1.4-3.2,3.2s1.4,3.2,3.2,3.2h14.6c1.8,0,3.2-1.4,3.2-3.2S120,69.2,118.2,69.2z"/>
<path class="st0" d="M124.8,55.8H97c-1.8,0-3.2,1.4-3.2,3.2s1.4,3.2,3.2,3.2h27.8c1.8,0,3.2-1.4,3.2-3.2S126.6,55.8,124.8,55.8z"/>
<path class="st1" d="M148.4,0.4c-1-0.6-2.2-0.6-3.2,0C127.6,10,111,9,97.6,8.2c-9.4-0.6-17.2-1-22.6,2.6c-5.4-3.6-13-3.2-22.6-2.6
	C39.2,9,22.4,10,4.8,0.4c-1-0.6-2.2-0.6-3.2,0S0,2,0,3.2V100c0,0.8,0.2,1.6,0.8,2.2c5.4,5.8,14,5.2,25,4.6c13.4-1,30-1.8,47.6,7.6
	c0.8,0.4,1.4,0.4,1.6,0.4c0.4,0,1-0.2,1.4-0.4c0.2,0,0.2,0,0.2,0c17.6-9.6,34.2-8.6,47.6-7.8c11,0.6,19.8,1.2,25-4.6
	c0.4-0.6,0.8-1.4,0.8-2.2V3.2C150,2,149.4,1,148.4,0.4z M71.8,106c-12-5.4-23.6-6.6-33.6-6.6c-4.6,0-8.8,0.4-12.8,0.6
	c-8.6,0.4-15.4,0.8-19-1.8v-90c17.6,8,34,7,46.4,6.2c8.6-0.4,15.4-0.8,19,1.8V106z M143.6,98.2c-3.6,2.8-10.4,2.4-19,1.8
	c-12.4-0.8-28.8-1.8-46.4,6.2v-90c3.6-2.8,10.4-2.4,19-1.8c12.4,0.8,28.8,1.8,46.4-6.2V98.2z"/>
</svg>
