<?xml version="1.0" encoding="utf-8"?>
<!-- Generator: Adobe Illustrator 21.0.2, SVG Export Plug-In . SVG Version: 6.00 Build 0)  -->
<svg version="1.1" id="Layer_1" xmlns="http://www.w3.org/2000/svg" xmlns:xlink="http://www.w3.org/1999/xlink" x="0px" y="0px"
	 viewBox="0 0 140 111.6" style="enable-background:new 0 0 140 111.6;" xml:space="preserve">
<style type="text/css">
	.st0{fill:#703081;}
	.st1{fill:#DF6B90;}
	.st2{fill:#FFFFFF;}
</style>
<g id="Layer_1_copy">
</g>
<g>
	<g id="Layer_1_1_">
		<g>
			<path class="st0" d="M96.3,37.4H21.9c-4.5,0-8.1,3.4-8.1,7.5v46.4c0,4.1,3.6,7.5,8.1,7.5h74.4c4.5,0,8.1-3.4,8.1-7.5V44.9
				C104.4,40.7,100.8,37.4,96.3,37.4z M96.3,42.2c0.2,0,0.4,0,0.6,0.2L59.1,71L20.6,42.6c0.3-0.2,0.9-0.4,1.3-0.4H96.3z M96.3,93.9
				H21.9c-1.7,0-3-1.1-3-2.6V47.5l40.2,29.7l40.2-30.5v44.5C99.3,92.8,98,93.9,96.3,93.9z"/>
			
				<rect x="31.9" y="11.2" transform="matrix(0.7071 -0.7071 0.7071 0.7071 4.5133 38.3021)" class="st1" width="33.1" height="5.1"/>
			
				<rect x="109.9" y="11" transform="matrix(0.7071 -0.7071 0.7071 0.7071 27.4994 93.4007)" class="st1" width="33.1" height="5.1"/>
			<rect x="70" y="11" transform="matrix(0.7071 -0.7071 0.7071 0.7071 15.8069 65.1726)" class="st0" width="33.1" height="5.1"/>
			
				<rect x="109.8" y="73.1" transform="matrix(0.7071 -0.7071 0.7071 0.7071 -16.4838 111.5148)" class="st1" width="33.1" height="5.1"/>
			
				<rect x="109.9" y="43.1" transform="matrix(0.7071 -0.7071 0.7071 0.7071 4.7832 102.7833)" class="st0" width="33.1" height="5.1"/>
		</g>
	</g>
	<g>
		<g>
			<g>
				<g>
					<path class="st1" d="M40,91.6c0,11-9,20-20,20s-20-9-20-20c0-11,9-20,20-20C31.1,71.6,40,80.6,40,91.6z"/>
				</g>
			</g>
		</g>
		<path class="st2" d="M36.3,88c-0.1-0.4-0.5-0.8-1-0.8l-9.8-1.4L21,77.2c-0.4-0.8-1.8-0.8-2.2,0l-4.3,8.5l-9.8,1.4
			c-0.5,0-0.9,0.4-1,0.8c-0.1,0.4,0,1,0.3,1.3l7,6.6l-1.7,9.3c-0.1,0.5,0.1,0.9,0.5,1.2c0.4,0.3,0.9,0.3,1.3,0.1l8.7-4.5l8.7,4.5
			c0.2,0.1,0.4,0.1,0.5,0.1c0.2,0,0.5-0.1,0.7-0.2c0.4-0.3,0.6-0.7,0.5-1.2l-1.7-9.3l7-6.6C36.3,88.9,36.4,88.4,36.3,88z M26.7,94.6
			c-0.3,0.3-0.4,0.7-0.4,1.1l1.3,7.5l-7-3.6c-0.2-0.1-0.4-0.1-0.5-0.1s-0.4,0-0.5,0.1l-7,3.6l1.3-7.5c0.1-0.4,0-0.8-0.4-1.1
			l-5.6-5.3l7.8-1.1c0.4,0,0.7-0.3,0.9-0.7l3.6-6.9l3.6,6.9c0.2,0.3,0.5,0.6,0.9,0.7l7.8,1.1L26.7,94.6z"/>
	</g>
</g>
</svg>
