<?xml version="1.0" encoding="utf-8"?>
<!-- Generator: Adobe Illustrator 21.0.2, SVG Export Plug-In . SVG Version: 6.00 Build 0)  -->
<svg version="1.1" id="Layer_1" xmlns="http://www.w3.org/2000/svg" xmlns:xlink="http://www.w3.org/1999/xlink" x="0px" y="0px"
	 viewBox="0 0 150 166.8" style="enable-background:new 0 0 150 166.8;" xml:space="preserve">
<style type="text/css">
	.st0{fill:#703081;}
	.st1{fill:#9B75A6;}
</style>
<g id="Layer_2">
	<g>
		<path class="st0" d="M75,0C33.6,0,0,33.6,0,75c0,39.2,30.2,71.4,68.6,74.8L56.4,162c-1,1-1,2.8,0,4c0.6,0.6,1.2,0.8,2,0.8
			s1.4-0.2,2-0.8L77,149.4c0.2-0.2,0.4-0.6,0.6-1c0.2-0.6,0.2-1.4,0-2.2c-0.2-0.4-0.4-0.6-0.6-1l-16.6-16.6c-1-1-2.8-1-4,0
			s-1,2.8,0,4L68,144.2C33,140.6,5.6,111,5.6,75C5.6,36.8,36.8,5.6,75,5.6s69.4,31.2,69.4,69.4c0,18.4-7.2,35.8-20.2,48.8
			c-1,1-1,2.8,0,4c1,1,2.8,1,4,0C142.2,113.6,150,95,150,75C150,33.8,116.4,0,75,0z"/>
	</g>
</g>
<g id="Layer_11">
	<g>
		<g id="_x31_86_50_">
			<g>
				<path class="st0" d="M56.4,65.9c0,0-0.1-1.4-0.2-2.2c0.3-0.2,0.7-0.4,1-0.6c0.5,0.3,1.6,0.9,1.6,0.9l1.8-0.5l2.1-3.5l-0.5-1.8
					c0,0-1.4-0.8-2.1-1.2c0-0.4-0.1-0.8-0.1-1.2c0.5-0.5,1.6-1.4,1.6-1.4v-1.9l-2.6-3.1h-1.9c0,0-0.9,0.8-1.3,1.2
					c-0.5-0.2-1-0.4-1.5-0.6c0-0.5-0.1-1.6-0.1-1.6l-1.3-1.3l-4,0.3L47.4,49c0,0,0.1,1.4,0.2,2.1c-0.4,0.2-0.8,0.5-1.1,0.8
					c-0.6-0.3-1.7-0.8-1.7-0.8l-1.8,0.5l-1.6,3.8l-0.1,0.3l0.5,1.6c0,0,1.4,0.6,2,0.9c0,0.4,0.1,0.9,0.2,1.3
					c-0.5,0.4-1.5,1.3-1.5,1.3v1.9l2.6,3.1c0,0,1.6,0.2,1.6,0.1c0.1,0,0.3-0.1,0.3-0.1s1-0.8,1.5-1.2c0.4,0.2,0.8,0.3,1.3,0.5
					c0,0.6,0.2,1.7,0.2,1.7l1.3,1.3l4-0.4L56.4,65.9z M51.7,61.6c-2.2,0-4.1-1.9-4.1-4.1c0-2.2,1.9-4.1,4.1-4.1s4.1,1.9,4.1,4.1
					C55.8,59.7,54,61.6,51.7,61.6z"/>
				<path class="st1" d="M67.6,79.1c0,0-0.1-1.1-0.1-1.6c0.3-0.1,0.5-0.3,0.7-0.5c0.4,0.2,1.2,0.7,1.2,0.7l1.4-0.4l1.6-2.6l-0.4-1.4
					c0,0-1-0.6-1.6-0.9c0-0.3,0-0.6-0.1-0.9c0.4-0.4,1.2-1.1,1.2-1.1v-1.4l-2-2.3H68c0,0-0.7,0.6-1,0.9c-0.4-0.2-0.8-0.3-1.2-0.4
					c0-0.4-0.1-1.2-0.1-1.2l-1-1l-3,0.3l-1,1c0,0,0.1,1.1,0.1,1.6c-0.3,0.2-0.6,0.4-0.9,0.6c-0.4-0.2-1.3-0.6-1.3-0.6l-1.4,0.4
					l-1.3,2.8v0.1l0.4,1.2c0,0,1,0.5,1.5,0.7c0,0.3,0.1,0.7,0.2,1c-0.4,0.3-1.2,1-1.2,1v1.4l2,2.3l1.2,0.1l0.2-0.1
					c0,0,0.7-0.6,1.1-0.9c0.3,0.1,0.6,0.3,1,0.3c0,0.4,0.1,1.3,0.1,1.3l1,1l3-0.3L67.6,79.1z M64.1,75.8c-1.7,0-3.1-1.4-3.1-3.1
					c0-1.7,1.4-3.1,3.1-3.1c1.7,0,3.1,1.4,3.1,3.1S65.7,75.8,64.1,75.8z"/>
				<path class="st0" d="M95.6,40.8c-13,0-25.8,0-38.8,0c-3.2,0-3.2,5.1,0,5.1c13,0,25.8,0,38.8,0C98.9,45.9,98.9,40.8,95.6,40.8z"
					/>
				<path class="st1" d="M95.6,52.6c-13,0-5.8,0-18.6,0c-3.2,0-3.2,5.1,0,5.1c13,0,5.8,0,18.6,0C98.9,57.7,98.9,52.6,95.6,52.6z"/>
				<polygon class="st0" points="44.4,34.5 102.9,34.5 102.9,66.4 109,66.4 109,28.4 38.4,28.4 38.4,48.1 44.4,48.1 				"/>
				<path class="st1" d="M98.2,100.5c0-0.7-0.1-1.3-0.2-1.9c0.9-0.7,2.7-2.2,2.7-2.2l0.1-3l-4.2-5.2l-3-0.1c0,0-1.5,1.2-2.2,1.8
					c-0.8-0.4-1.6-0.8-2.4-1c0-0.9-0.1-2.6-0.1-2.6L86.8,84l-6.6,0.3L78,86.4c0,0,0.1,2.2,0.2,3.4c-0.7,0.4-1.3,0.8-1.9,1.2
					c-0.9-0.5-2.7-1.4-2.7-1.4l-2.9,0.7l-2.9,6l-0.3,0.5l0.8,2.5c0,0,2.2,1.1,3.2,1.6c0,0.7,0.1,1.5,0.3,2.2
					c-0.9,0.7-2.5,2.1-2.5,2.1l-0.1,3l4.2,5.3c0,0,2.5,0.4,2.6,0.3c0.1-0.1,0.4-0.2,0.4-0.2s1.7-1.3,2.4-2c0.7,0.3,1.4,0.6,2.1,0.8
					c0.1,0.9,0.2,2.7,0.2,2.7l2.1,2.2l6.6-0.4l2.2-2.1c0,0-0.1-2.3-0.2-3.5c0.6-0.3,1.1-0.6,1.6-1c0.9,0.5,2.5,1.6,2.5,1.6l2.9-0.7
					l3.5-5.7l-0.7-3C101.6,102.5,99.4,101.1,98.2,100.5z M84.2,107.3c-3.7-0.1-6.6-3.2-6.5-6.9c0.1-3.7,3.2-6.6,6.9-6.5
					c3.7,0.1,6.6,3.2,6.5,6.9C91.1,104.6,88,107.4,84.2,107.3z"/>
				<path class="st0" d="M110.6,86.2c0,0-2.3-1.5-3.5-2.2c0-0.7-0.1-1.4-0.2-2.1c1-0.8,2.9-2.3,2.9-2.3l0.1-3.3l-4.5-5.7l-3.3-0.1
					c0,0-1.6,1.3-2.4,2c-0.9-0.4-1.8-0.8-2.6-1.1c0-1-0.1-2.8-0.1-2.8l-2.2-2.4l-7.2,0.4L85,68.8c0,0,0.1,2.4,0.2,3.6
					c-0.7,0.4-1.4,0.8-2.1,1.3c-1-0.5-3-1.5-3-1.5L76.9,73l-3.2,6.4l0.1,0.5l0.9,2.7c0,0,1.5,0.8,2.7,1.4l1.4-1.3l0.6-0.5h0.8
					l5.4-0.3c1-3,3.8-5.2,7.1-5.1c4,0.1,7.1,3.5,7,7.4c0,1.1-0.3,2.1-0.8,3l3.8,4.7l0.5,0.6v0.8l-0.1,2c0.8,0.5,1.6,1,1.6,1l3.2-0.8
					l3.8-6.1L110.6,86.2z"/>
				<path class="st1" d="M41.9,79.1c0.6,0,1.1-0.2,1.5-0.5c0.4-0.3,0.7-0.8,0.9-1.4s0.3-1.4,0.3-2.3c0-0.8-0.1-1.5-0.2-2
					c-0.1-0.5-0.3-0.9-0.5-1.2c-0.2-0.3-0.5-0.6-0.8-0.8c-0.3-0.2-0.7-0.3-1.2-0.3c-0.6,0-1.1,0.2-1.5,0.5c-0.4,0.3-0.7,0.8-0.9,1.4
					c-0.2,0.6-0.3,1.4-0.3,2.3c0,1.6,0.3,2.6,0.8,3.3C40.4,78.9,41.1,79.1,41.9,79.1z M40.7,72.2c0.3-0.4,0.7-0.6,1.1-0.6
					c0.5,0,0.9,0.2,1.2,0.7c0.3,0.5,0.5,1.4,0.5,2.6c0,1.4-0.2,2.2-0.5,2.6c-0.3,0.5-0.7,0.7-1.2,0.7s-0.9-0.2-1.2-0.7
					c-0.3-0.5-0.5-1.4-0.5-2.6C40.2,73.7,40.4,72.7,40.7,72.2z"/>
				<path class="st1" d="M47.7,71.9c-0.4,0.4-0.9,0.7-1.5,1v1c0.3-0.1,0.7-0.3,1.1-0.5c0.4-0.2,0.7-0.5,1-0.7V79h1v-8.1h-0.7
					C48.4,71.2,48.1,71.5,47.7,71.9z"/>
				<path class="st1" d="M44,83.9c-0.2-0.3-0.5-0.6-0.8-0.8s-0.7-0.3-1.2-0.3c-0.6,0-1.1,0.2-1.5,0.5c-0.4,0.3-0.7,0.8-0.9,1.4
					c-0.2,0.6-0.3,1.4-0.3,2.3c0,1.6,0.3,2.6,0.8,3.3c0.5,0.6,1.1,0.9,1.9,0.9c0.6,0,1.1-0.2,1.5-0.5c0.4-0.3,0.7-0.8,0.9-1.4
					s0.3-1.4,0.3-2.3c0-0.8-0.1-1.5-0.2-2C44.4,84.7,44.2,84.3,44,83.9z M43.2,89.8c-0.3,0.5-0.7,0.7-1.2,0.7s-0.9-0.2-1.2-0.7
					s-0.5-1.4-0.5-2.6c0-1.4,0.2-2.2,0.5-2.7c0.3-0.4,0.7-0.6,1.1-0.6c0.5,0,0.9,0.2,1.2,0.7c0.3,0.5,0.5,1.4,0.5,2.6
					C43.6,88.4,43.5,89.3,43.2,89.8z"/>
				<path class="st1" d="M49.5,91.1V83h-0.7c-0.2,0.4-0.5,0.7-0.9,1.1c-0.4,0.4-0.9,0.7-1.5,1v1c0.3-0.1,0.7-0.3,1.1-0.5
					c0.4-0.2,0.7-0.5,1-0.7v6.3H49.5L49.5,91.1z"/>
				<path class="st1" d="M54.9,91.1V83h-0.7c-0.2,0.4-0.5,0.7-0.9,1.1c-0.4,0.4-0.9,0.7-1.5,1v1c0.3-0.1,0.7-0.3,1.1-0.5
					c0.4-0.2,0.7-0.5,1-0.7v6.3H54.9L54.9,91.1z"/>
				<path class="st1" d="M62,83.9c-0.2-0.3-0.5-0.6-0.8-0.8c-0.3-0.2-0.7-0.3-1.2-0.3c-0.6,0-1.1,0.2-1.5,0.5
					c-0.4,0.3-0.7,0.8-0.9,1.4c-0.2,0.6-0.3,1.4-0.3,2.3c0,1.6,0.3,2.6,0.8,3.3c0.5,0.6,1.1,0.9,1.9,0.9c0.6,0,1.1-0.2,1.5-0.5
					c0.4-0.3,0.7-0.8,0.9-1.4s0.3-1.4,0.3-2.3c0-0.8-0.1-1.5-0.2-2C62.4,84.7,62.2,84.3,62,83.9z M61.2,89.8
					c-0.3,0.5-0.7,0.7-1.2,0.7s-0.9-0.2-1.2-0.7s-0.5-1.4-0.5-2.6c0-1.4,0.2-2.2,0.5-2.7c0.3-0.4,0.7-0.6,1.1-0.6
					c0.5,0,0.9,0.2,1.2,0.7c0.3,0.5,0.5,1.4,0.5,2.6C61.7,88.4,61.5,89.3,61.2,89.8z"/>
				<path class="st1" d="M44,97.5c-0.2-0.3-0.5-0.6-0.8-0.8c-0.3-0.2-0.7-0.3-1.2-0.3c-0.6,0-1.1,0.2-1.5,0.5s-0.7,0.8-0.9,1.4
					c-0.2,0.6-0.3,1.4-0.3,2.3c0,1.6,0.3,2.6,0.8,3.3c0.5,0.6,1.1,0.9,1.9,0.9c0.6,0,1.1-0.2,1.5-0.5c0.4-0.3,0.7-0.8,0.9-1.4
					s0.3-1.4,0.3-2.3c0-0.8-0.1-1.5-0.2-2C44.4,98.2,44.2,97.8,44,97.5z M43.2,103.3c-0.3,0.5-0.7,0.7-1.2,0.7s-0.9-0.2-1.2-0.7
					c-0.3-0.5-0.5-1.4-0.5-2.6c0-1.4,0.2-2.2,0.5-2.7c0.3-0.4,0.7-0.6,1.1-0.6c0.5,0,0.9,0.2,1.2,0.7c0.3,0.5,0.5,1.4,0.5,2.6
					C43.6,102,43.5,102.9,43.2,103.3z"/>
				<path class="st1" d="M50.2,97.5c-0.2-0.3-0.5-0.6-0.8-0.8c-0.3-0.2-0.7-0.3-1.2-0.3c-0.6,0-1.1,0.2-1.5,0.5
					c-0.4,0.3-0.7,0.8-0.9,1.4c-0.2,0.6-0.3,1.4-0.3,2.3c0,1.6,0.3,2.6,0.8,3.3c0.5,0.6,1.1,0.9,1.9,0.9c0.6,0,1.1-0.2,1.5-0.5
					c0.4-0.3,0.7-0.8,0.9-1.4s0.3-1.4,0.3-2.3c0-0.8-0.1-1.5-0.2-2C50.6,98.2,50.5,97.8,50.2,97.5z M49.5,103.3
					c-0.3,0.5-0.7,0.7-1.2,0.7s-0.9-0.2-1.2-0.7c-0.3-0.5-0.5-1.4-0.5-2.6c0-1.4,0.2-2.2,0.5-2.7c0.3-0.4,0.7-0.6,1.1-0.6
					c0.5,0,0.9,0.2,1.2,0.7c0.3,0.5,0.5,1.4,0.5,2.6C49.9,102,49.8,102.9,49.5,103.3z"/>
				<path class="st1" d="M56.6,97.5c-0.2-0.3-0.5-0.6-0.8-0.8c-0.3-0.2-0.7-0.3-1.2-0.3c-0.6,0-1.1,0.2-1.5,0.5s-0.7,0.8-0.9,1.4
					c-0.2,0.6-0.3,1.4-0.3,2.3c0,1.6,0.3,2.6,0.8,3.3c0.5,0.6,1.1,0.9,1.9,0.9c0.6,0,1.1-0.2,1.5-0.5c0.4-0.3,0.7-0.8,0.9-1.4
					s0.3-1.4,0.3-2.3c0-0.8-0.1-1.5-0.2-2C57,98.2,56.7,97.8,56.6,97.5z M55.8,103.3c-0.3,0.5-0.7,0.7-1.2,0.7s-0.9-0.2-1.2-0.7
					c-0.3-0.5-0.5-1.4-0.5-2.6c0-1.4,0.2-2.2,0.5-2.7c0.3-0.4,0.7-0.6,1.1-0.6c0.5,0,0.9,0.2,1.2,0.7c0.3,0.5,0.5,1.4,0.5,2.6
					C56.3,102,56.1,102.9,55.8,103.3z"/>
				<path class="st1" d="M62,104.7v-8.1h-0.7c-0.2,0.4-0.5,0.7-0.9,1.1c-0.4,0.4-0.9,0.7-1.5,1v1c0.3-0.1,0.7-0.3,1.1-0.5
					s0.7-0.5,1-0.7v6.3L62,104.7L62,104.7z"/>
				<path class="st1" d="M67.4,110.8c-0.4,0.4-0.9,0.7-1.5,1v1c0.3-0.1,0.7-0.3,1.1-0.5c0.4-0.2,0.7-0.5,1-0.7v6.3h1v-8.2h-0.7
					C68.1,110,67.8,110.4,67.4,110.8z"/>
				<path class="st1" d="M44,111.1c-0.2-0.3-0.5-0.6-0.8-0.8c-0.3-0.2-0.7-0.3-1.2-0.3c-0.6,0-1.1,0.2-1.5,0.5
					c-0.4,0.3-0.7,0.8-0.9,1.4c-0.2,0.6-0.3,1.4-0.3,2.3c0,1.6,0.3,2.6,0.8,3.3c0.5,0.6,1.1,0.9,1.9,0.9c0.6,0,1.1-0.2,1.5-0.5
					c0.4-0.3,0.7-0.8,0.9-1.4c0.2-0.6,0.3-1.4,0.3-2.3c0-0.8-0.1-1.5-0.2-2C44.4,111.8,44.2,111.5,44,111.1z M43.2,116.9
					c-0.3,0.5-0.7,0.7-1.2,0.7s-0.9-0.2-1.2-0.7c-0.3-0.5-0.5-1.4-0.5-2.6c0-1.4,0.2-2.2,0.5-2.7c0.3-0.4,0.7-0.6,1.1-0.6
					c0.5,0,0.9,0.2,1.2,0.7c0.3,0.4,0.5,1.4,0.5,2.6C43.6,115.6,43.5,116.4,43.2,116.9z"/>
				<path class="st1" d="M47.9,111.2c-0.4,0.4-0.9,0.7-1.5,1v1c0.3-0.1,0.7-0.3,1.1-0.5c0.4-0.2,0.7-0.5,1-0.7v6.3h1v-8.2h-0.7
					C48.6,110.4,48.3,110.8,47.9,111.2z"/>
				<path class="st1" d="M53.4,111.2c-0.4,0.4-0.9,0.7-1.5,1v1c0.3-0.1,0.7-0.3,1.1-0.5c0.4-0.2,0.7-0.5,1-0.7v6.3h1v-8.2h-0.7
					C54.1,110.4,53.8,110.8,53.4,111.2z"/>
				<path class="st1" d="M62,111.1c-0.2-0.3-0.5-0.6-0.8-0.8c-0.3-0.2-0.7-0.3-1.2-0.3c-0.6,0-1.1,0.2-1.5,0.5
					c-0.4,0.3-0.7,0.8-0.9,1.4c-0.2,0.6-0.3,1.4-0.3,2.3c0,1.6,0.3,2.6,0.8,3.3c0.5,0.6,1.1,0.9,1.9,0.9c0.6,0,1.1-0.2,1.5-0.5
					c0.4-0.3,0.7-0.8,0.9-1.4c0.2-0.6,0.3-1.4,0.3-2.3c0-0.8-0.1-1.5-0.2-2C62.4,111.8,62.2,111.5,62,111.1z M61.2,116.9
					c-0.3,0.5-0.7,0.7-1.2,0.7s-0.9-0.2-1.2-0.7c-0.3-0.5-0.5-1.4-0.5-2.6c0-1.4,0.2-2.2,0.5-2.7c0.3-0.4,0.7-0.6,1.1-0.6
					c0.5,0,0.9,0.2,1.2,0.7c0.3,0.4,0.5,1.4,0.5,2.6C61.7,115.6,61.5,116.4,61.2,116.9z"/>
			</g>
		</g>
	</g>
</g>
</svg>
