<?xml version="1.0" encoding="utf-8"?>
<!-- Generator: Adobe Illustrator 21.0.2, SVG Export Plug-In . SVG Version: 6.00 Build 0)  -->
<svg version="1.1" id="Layer_1" xmlns="http://www.w3.org/2000/svg" xmlns:xlink="http://www.w3.org/1999/xlink" x="0px" y="0px"
	 viewBox="0 0 150 150" style="enable-background:new 0 0 150 150;" xml:space="preserve">
<style type="text/css">
	.st0{fill:#703081;}
	.st1{fill:#DF6B90;stroke:#DF6B90;stroke-miterlimit:10;}
</style>
<g id="Layer_2">
	<path class="st0" d="M75,0C33.6,0,0,33.6,0,75s33.6,75,75,75s75-33.6,75-75S116.4,0,75,0z M75,3.1c39.7,0,71.9,32.2,71.9,71.9
		s-32.2,71.9-71.9,71.9S3.1,114.7,3.1,75S35.3,3.1,75,3.1z"/>
</g>
<g>
	<g>
		<g>
			<path class="st1" d="M43.2,58.8c0,2.3-1.2,4.4-3.2,5.7c-2,1.2-4.6,1.3-6.6,0.1c-2-1.1-3.3-3.2-3.4-5.5s1-4.5,2.9-5.8
				c2-1.4,4.7-1.5,6.8-0.3C41.9,54.1,43.2,56.4,43.2,58.8c0,1.5,2.4,1.5,2.4,0c0-2.7-1.2-5.2-3.3-6.9c-2.2-1.8-5-2.4-7.7-1.8
				c-2.6,0.5-4.8,2.3-6,4.7c-1.3,2.5-1.3,5.4-0.1,7.9c1.7,3.8,6.1,5.8,10.1,4.9c4.1-0.9,6.9-4.7,7-8.8
				C45.6,57.3,43.2,57.3,43.2,58.8z"/>
		</g>
	</g>
	<g>
		<g>
			<path class="st1" d="M46.9,89.5c-5.6,0-11.2,0-16.8,0c-1.3,0-2.6,0-3.8,0c0.4,0.4,0.8,0.8,1.2,1.2c0-2.8,0-5.6,0-8.4
				c0-1.5,0.1-3,0.7-4.5c1-2.2,2.7-3.9,4.9-4.9s4.8-0.9,7-0.1s3.9,2.6,4.9,4.7c0.7,1.4,0.8,3,0.8,4.6c0,1.7,0,3.3,0,5
				c0,1.2,0,2.3,0,3.5c0,1.5,2.4,1.5,2.4,0c0-2.8,0-5.6,0-8.4c0-1.7-0.1-3.4-0.7-5c-0.9-2.5-2.7-4.5-5-5.9
				c-4.7-2.8-10.9-1.7-14.5,2.3c-1.8,2-2.8,4.6-2.9,7.3c0,1.1,0,2.3,0,3.4c0,2.1,0,4.1,0,6.2c0,0.6,0.5,1.2,1.2,1.2
				c5.6,0,11.2,0,16.8,0c1.3,0,2.6,0,3.8,0C48.4,91.9,48.4,89.5,46.9,89.5z"/>
		</g>
	</g>
	<g>
		<g>
			<path class="st0" d="M101.3,105.7c-1.3-4.5-2.5-9-3.8-13.6c-1.6-5.9-3.3-11.8-4.9-17.7c-0.1-0.3-0.2-0.7-0.3-1
				c-0.1-0.5-0.6-0.9-1.1-0.9c-4.8,0-9.6,0-14.4,0c-5.8,0-11.7,0-17.5,0c-0.2,0-0.4,0-0.5,0c-0.5,0-1,0.4-1.1,0.9
				c-1.3,4.5-2.5,9-3.8,13.6c-1.6,5.9-3.3,11.8-4.9,17.7c-0.1,0.3-0.2,0.7-0.3,1c-0.4,1.5,1.9,2.1,2.3,0.6c1.3-4.5,2.5-9,3.8-13.6
				c1.6-5.9,3.3-11.8,4.9-17.7c0.1-0.3,0.2-0.7,0.3-1c-0.4,0.3-0.8,0.6-1.1,0.9c4.8,0,9.6,0,14.4,0c5.8,0,11.7,0,17.5,0
				c0.2,0,0.4,0,0.5,0c-0.4-0.3-0.8-0.6-1.1-0.9c1.3,4.5,2.5,9,3.8,13.6c1.6,5.9,3.3,11.8,4.9,17.7c0.1,0.3,0.2,0.7,0.3,1
				C99.5,107.8,101.7,107.1,101.3,105.7L101.3,105.7z"/>
		</g>
	</g>
	<g>
		<g>
			<path class="st1" d="M81.3,40.9c0,2.2-1,4.6-2.4,6.4c-0.7,0.8-1.6,1.6-2.5,2c-1,0.4-1.8,0.4-2.8,0c-1.9-0.7-3.5-3-4.3-4.9
				c-0.9-2.2-1.1-4.5,0.1-6.6c1.4-2.5,4.4-3.7,7.2-3C79.4,35.5,81.3,38.1,81.3,40.9c0,1.5,2.4,1.5,2.4,0c0-2.8-1.3-5.3-3.5-7
				c-2.2-1.6-5-2.1-7.6-1.4c-2.6,0.7-4.6,2.7-5.7,5.2c-1,2.4-0.6,5.2,0.3,7.5c1.5,3.8,5.4,8,9.9,6.2c2.1-0.8,3.6-2.5,4.7-4.3
				c1.1-1.9,1.8-4.1,1.9-6.3C83.7,39.4,81.3,39.4,81.3,40.9z"/>
		</g>
	</g>
	<g>
		<g>
			<path class="st1" d="M88.9,61.2c0,2,0,4,0,6c0.4-0.4,0.8-0.8,1.2-1.2c-5,0-10,0-15,0C70,66,65,66,59.9,66l0,0
				c0.4,0.4,0.8,0.8,1.2,1.2c0-1.2,0-2.3,0-3.5c0-1.2-0.1-2.6,0.1-3.7c0.4-2.1,1.8-3.8,3.6-4.7c1.4-0.7,3-0.6,4.6-0.6
				c-0.3-0.2-0.7-0.4-1-0.6c1.9,2.5,3.7,5.1,5.6,7.6c0.6,0.8,1.5,0.8,2,0c1.8-2.5,3.7-5.1,5.5-7.6c-0.3,0.2-0.7,0.4-1,0.6
				c0.6,0,1.2,0,1.8,0c1.2,0,2.3,0.3,3.3,0.9C87.7,56.7,88.9,58.9,88.9,61.2c0,1.5,2.4,1.5,2.4,0c0-2.7-1.2-5.3-3.3-6.9
				c-1.1-0.8-2.3-1.4-3.6-1.8c-1-0.2-2-0.2-3-0.2c-0.3,0-0.6,0-0.8,0c-0.5,0-0.8,0.3-1.1,0.7c-0.3,0.4-0.6,0.8-0.9,1.3
				c-1,1.4-2.1,2.8-3.1,4.3c-0.5,0.7-1,1.3-1.4,2c0.7,0,1.4,0,2,0c-1.7-2.3-3.3-4.5-5-6.8c-0.2-0.3-0.4-0.6-0.6-0.8
				c-0.6-0.8-1.7-0.6-2.6-0.6c-2.5,0-4.9,0.9-6.6,2.8c-1.1,1.1-1.9,2.6-2.2,4.1c-0.2,0.9-0.2,1.9-0.2,2.8c0,1.7,0,3.5,0,5.2
				c0,0.6,0.5,1.2,1.2,1.2c5,0,10,0,15,0c5.1,0,10.1,0,15.2,0l0,0c0.6,0,1.2-0.5,1.2-1.2c0-2,0-4,0-6C91.2,59.6,88.9,59.6,88.9,61.2
				z"/>
		</g>
	</g>
	<g>
		<g>
			<path class="st1" d="M120.1,58.8c0,2.3-1.2,4.4-3.2,5.7c-2,1.2-4.6,1.3-6.6,0.1c-2-1.1-3.3-3.2-3.4-5.5s1-4.5,2.9-5.8
				c2-1.4,4.7-1.5,6.8-0.3C118.8,54.1,120.1,56.4,120.1,58.8c0,1.5,2.4,1.5,2.4,0c0-2.7-1.2-5.2-3.3-6.9c-2.2-1.8-5-2.4-7.7-1.8
				c-2.6,0.5-4.8,2.3-6,4.7c-1.3,2.5-1.3,5.4-0.1,7.9c1.7,3.8,6.1,5.8,10.1,4.9c4.1-0.9,6.9-4.7,7-8.8
				C122.5,57.3,120.1,57.3,120.1,58.8z"/>
		</g>
	</g>
	<g>
		<g>
			<path class="st1" d="M123.8,89.5c-5.6,0-11.2,0-16.8,0c-1.3,0-2.6,0-3.8,0c0.4,0.4,0.8,0.8,1.2,1.2c0-2.8,0-5.6,0-8.4
				c0-1.5,0.1-3,0.7-4.5c1-2.2,2.7-3.9,4.9-4.9c2.2-1,4.8-0.9,7-0.1s3.9,2.6,4.9,4.7c0.7,1.4,0.8,3,0.8,4.6c0,1.7,0,3.3,0,5
				c0,1.2,0,2.3,0,3.5c0,1.5,2.4,1.5,2.4,0c0-2.8,0-5.6,0-8.4c0-1.7-0.1-3.4-0.7-5c-0.9-2.5-2.7-4.5-5-5.9
				c-4.7-2.8-10.9-1.7-14.5,2.3c-1.8,2-2.8,4.6-2.9,7.3c0,1.1,0,2.3,0,3.4c0,2.1,0,4.1,0,6.2c0,0.6,0.5,1.2,1.2,1.2
				c5.6,0,11.2,0,16.8,0c1.3,0,2.6,0,3.8,0C125.3,91.9,125.3,89.5,123.8,89.5z"/>
		</g>
	</g>
	<g>
		<g>
			<path class="st0" d="M81.3,88.1c0,2.2-1,4.6-2.4,6.4c-0.7,0.8-1.6,1.6-2.5,2c-1,0.4-1.8,0.4-2.8,0c-1.9-0.7-3.5-3-4.3-4.9
				c-0.9-2.2-1.1-4.5,0.1-6.6c1.4-2.5,4.4-3.7,7.2-3C79.4,82.7,81.3,85.3,81.3,88.1c0,1.5,2.4,1.5,2.4,0c0-2.8-1.3-5.3-3.5-7
				c-2.2-1.6-5-2.1-7.6-1.4s-4.6,2.7-5.7,5.2c-1,2.4-0.6,5.2,0.3,7.5c1.5,3.8,5.4,8,9.9,6.2c2.1-0.8,3.6-2.5,4.7-4.3
				c1.1-1.9,1.8-4.1,1.9-6.3C83.7,86.5,81.3,86.6,81.3,88.1z"/>
		</g>
	</g>
	<g>
		<g>
			<path class="st0" d="M88.9,110.6c0,2,0,4,0,6c0.4-0.4,0.8-0.8,1.2-1.2c-5,0-10,0-15,0c-5.1,0-10.1,0-15.2,0l0,0
				c0.4,0.4,0.8,0.8,1.2,1.2c0-1.3,0-2.7,0-4c0-1.5-0.1-3.1,0.5-4.5c0.9-2.1,2.9-3.7,5.1-4c0.9-0.1,1.9-0.1,2.8-0.1
				c3.4,0,6.8,0,10.2,0c0.9,0,1.7,0,2.6,0c2.2,0,4.2,1.1,5.4,2.9C88.5,108,88.9,109.2,88.9,110.6c0,1.5,2.4,1.5,2.4,0
				c0-2.7-1.2-5.3-3.3-6.9c-1.7-1.3-3.7-2-5.8-2c-2.9,0-5.9,0-8.8,0c-1.5,0-3.1,0-4.6,0c-1.3,0-2.5,0-3.7,0.4
				c-2.6,0.8-4.7,2.8-5.7,5.2c-0.7,1.6-0.6,3.3-0.6,5c0,1.4,0,2.8,0,4.3c0,0.6,0.5,1.2,1.2,1.2c5,0,10,0,15,0c5.1,0,10.1,0,15.2,0
				l0,0c0.6,0,1.2-0.5,1.2-1.2c0-2,0-4,0-6C91.2,109,88.9,109,88.9,110.6z"/>
		</g>
	</g>
</g>
</svg>
