<?xml version="1.0" encoding="utf-8"?>
<!-- Generator: Adobe Illustrator 21.0.2, SVG Export Plug-In . SVG Version: 6.00 Build 0)  -->
<svg version="1.1" id="Layer_1" xmlns="http://www.w3.org/2000/svg" xmlns:xlink="http://www.w3.org/1999/xlink" x="0px" y="0px"
	 viewBox="0 0 150 150" style="enable-background:new 0 0 150 150;" xml:space="preserve">
<style type="text/css">
	.st0{fill:#703081;}
	.st1{fill:#DF6B90;}
</style>
<g id="Layer_2">
	<path class="st0" d="M75,0C33.6,0,0,33.6,0,75s33.6,75,75,75s75-33.6,75-75S116.4,0,75,0z M75,3.1c39.7,0,71.9,32.2,71.9,71.9
		s-32.2,71.9-71.9,71.9S3.1,114.7,3.1,75S35.3,3.1,75,3.1z"/>
</g>
<g>
	<g>
		<rect x="72.8" y="57.7" class="st0" width="4.5" height="67.3"/>
	</g>
	<g>
		<g>
			<path class="st0" d="M61.3,68.7C55.7,64.5,52.6,58,52.6,51c0-6.7,2.9-13,8.1-17.3l2.9,3.4c-4.3,3.6-6.5,8.5-6.5,13.9
				c0,5.6,2.5,10.8,7.2,14.3L61.3,68.7z"/>
		</g>
		<g>
			<path class="st0" d="M88.5,68.7l-2.7-3.6c4.5-3.4,7.2-8.5,7.2-14.3c0-5.4-2.2-10.3-6.5-13.7l2.9-3.4c5.2,4.3,8.1,10.5,8.1,17.3
				C97.2,58,94.1,64.5,88.5,68.7z"/>
		</g>
	</g>
	<g>
		<path class="st1" d="M75,60c-4.9,0-9-4-9-9s4-9,9-9s9,4,9,9S79.9,60,75,60z M75,46.5c-2.5,0-4.5,2-4.5,4.5c0,2.5,2,4.5,4.5,4.5
			s4.5-2,4.5-4.5C79.5,48.5,77.5,46.5,75,46.5z"/>
	</g>
	<g>
		<g>
			<path class="st1" d="M54.7,77.7c-8.3-6.5-13.2-16.4-13.2-26.9c0-10.1,4.5-19.3,12.1-25.8l2.9,3.4C49.8,34,46,42,46,50.8
				c0,9.2,4.3,17.7,11.4,23.1L54.7,77.7z"/>
		</g>
		<g>
			<path class="st1" d="M95.3,77.7l-2.7-3.6C100,68.5,104,60,104,51c0-8.7-3.8-16.8-10.5-22.4l2.9-3.4c7.6,6.5,12.1,15.9,12.1,25.8
				C108.5,61.3,103.8,71.2,95.3,77.7z"/>
		</g>
	</g>
</g>
</svg>
