<?xml version="1.0" encoding="utf-8"?>
<!-- Generator: Adobe Illustrator 21.0.2, SVG Export Plug-In . SVG Version: 6.00 Build 0)  -->
<svg version="1.1" id="Layer_1" xmlns="http://www.w3.org/2000/svg" xmlns:xlink="http://www.w3.org/1999/xlink" x="0px" y="0px"
	 viewBox="0 0 150 166.8" style="enable-background:new 0 0 150 166.8;" xml:space="preserve">
<style type="text/css">
	.st0{fill:#703081;}
	.st1{fill:#9B75A6;}
</style>
<g id="Layer_2">
	<g>
		<path class="st0" d="M75,0C33.6,0,0,33.6,0,75c0,39.2,30.2,71.4,68.6,74.8L56.4,162c-1,1-1,2.8,0,4c0.6,0.6,1.2,0.8,2,0.8
			s1.4-0.2,2-0.8L77,149.4c0.2-0.2,0.4-0.6,0.6-1c0.2-0.6,0.2-1.4,0-2.2c-0.2-0.4-0.4-0.6-0.6-1l-16.6-16.6c-1-1-2.8-1-4,0
			s-1,2.8,0,4L68,144.2C33,140.6,5.6,111,5.6,75C5.6,36.8,36.8,5.6,75,5.6s69.4,31.2,69.4,69.4c0,18.4-7.2,35.8-20.2,48.8
			c-1,1-1,2.8,0,4c1,1,2.8,1,4,0C142.2,113.6,150,95,150,75C150,33.8,116.4,0,75,0z"/>
	</g>
</g>
<g>
	<path class="st1" d="M37.5,118.4c-6.9,0-12.5-5.6-12.5-12.5s5.6-12.5,12.5-12.5S50,99,50,105.9S44.4,118.4,37.5,118.4z M37.5,101.7
		c-2.3,0-4.2,1.9-4.2,4.2s1.9,4.2,4.2,4.2s4.2-1.9,4.2-4.2S39.8,101.7,37.5,101.7z M75,118.4c-6.9,0-12.5-5.6-12.5-12.5
		S68.1,93.4,75,93.4s12.5,5.6,12.5,12.5S81.9,118.4,75,118.4z M75,101.7c-2.3,0-4.2,1.9-4.2,4.2s1.9,4.2,4.2,4.2s4.2-1.9,4.2-4.2
		S77.3,101.7,75,101.7z M112.5,118.4c-6.9,0-12.5-5.6-12.5-12.5s5.6-12.5,12.5-12.5S125,99,125,105.9S119.4,118.4,112.5,118.4z
		 M112.5,101.7c-2.3,0-4.2,1.9-4.2,4.2s1.9,4.2,4.2,4.2s4.2-1.9,4.2-4.2S114.8,101.7,112.5,101.7z M75,118.4
		c-6.9,0-12.5-5.6-12.5-12.5S68.1,93.4,75,93.4s12.5,5.6,12.5,12.5S81.9,118.4,75,118.4z M75,101.7c-2.3,0-4.2,1.9-4.2,4.2
		s1.9,4.2,4.2,4.2s4.2-1.9,4.2-4.2S77.3,101.7,75,101.7z M75,43.4c-6.9,0-12.5-5.6-12.5-12.5S68.1,18.4,75,18.4S87.5,24,87.5,30.9
		S81.9,43.4,75,43.4z M75,26.7c-2.3,0-4.2,1.9-4.2,4.2s1.9,4.2,4.2,4.2s4.2-1.9,4.2-4.2S77.3,26.7,75,26.7z M75,101.7
		c-2.3,0-4.2-1.9-4.2-4.2V39.2c0-2.3,1.9-4.2,4.2-4.2s4.2,1.9,4.2,4.2v58.3C79.2,99.9,77.3,101.7,75,101.7z M112.5,101.7
		c-2.3,0-4.2-1.9-4.2-4.2V76.7H41.6v20.8c0,2.3-1.9,4.2-4.2,4.2l0,0c-2.3,0-4.2-1.9-4.2-4.2V76.7c0-4.6,3.7-8.3,8.3-8.3h66.6
		c4.6,0,8.3,3.7,8.3,8.3v20.8C116.7,99.9,114.8,101.7,112.5,101.7z"/>
</g>
</svg>
