<?xml version="1.0" encoding="utf-8"?>
<!-- Generator: Adobe Illustrator 21.0.2, SVG Export Plug-In . SVG Version: 6.00 Build 0)  -->
<svg version="1.1" id="Layer_1" xmlns="http://www.w3.org/2000/svg" xmlns:xlink="http://www.w3.org/1999/xlink" x="0px" y="0px"
	 viewBox="0 0 150 104.4" style="enable-background:new 0 0 150 104.4;" xml:space="preserve">
<style type="text/css">
	.st0{fill:#DF6B90;}
	.st1{fill:#703081;}
</style>
<g>
	<ellipse transform="matrix(0.7069 -0.7073 0.7073 0.7069 -25.2154 72.7943)" class="st0" cx="75.2" cy="66.8" rx="7.7" ry="7.7"/>
	<path class="st1" d="M81.8,47.7c-2.1-0.6-4.3-1.1-6.4-1.1c-5.1,0-10.2,1.9-14.2,5.9c-1.1,1.1-1.1,3,0,4.2c0.6,0.6,1.3,0.8,2.1,0.8
		s1.6-0.3,2.1-0.8c2.7-2.7,6.4-4.2,10.1-4.2c1.6,0,3,0.3,4.5,0.8c2.1,0.6,3.8,1.8,5.4,3.4c1.1,1.1,3,1.1,4.2,0c1.1-1.1,1.1-3,0-4.2
		C87.2,50.3,84.7,48.7,81.8,47.7z"/>
	<path class="st0" d="M75.2,33.6c-8.5,0-17,3.2-23.4,9.8c-1.1,1.1-1.1,3,0,4.2c0.6,0.6,1.3,0.8,2.1,0.8c0.8,0,1.4-0.3,2.1-0.8
		c5.3-5.3,12.2-8,19.2-8c7,0,13.9,2.7,19.2,8c1.1,1.1,3,1.1,4.2,0c1.1-1.1,1.1-3,0-4.2C92.2,37,83.7,33.6,75.2,33.6z"/>
	<path class="st1" d="M76.7,20.3c-12.2,0-24.5,4.8-34.3,14.1c-1.1,1.1-1.3,3-0.2,4.2c0.6,0.6,1.4,1,2.1,1c0.8,0,1.4-0.3,2.1-0.8
		c8.6-8.3,19.5-12.5,30.3-12.5c10.1,0,19.9,3.7,27.1,11.2c1.1,1.1,3,1.3,4.2,0.2c1.1-1.1,1.3-3,0.2-4.2
		C99.6,24.7,88.2,20.3,76.7,20.3z"/>
	<path class="st1" d="M141.7,87.4h-5.3V5.6c0-3.2-2.6-5.6-5.6-5.6H19.4c-3.2,0-5.6,2.6-5.8,5.6v81.8H8.5c-4.6,0-8.5,3.8-8.5,8.5
		s3.8,8.5,8.5,8.5h133.2c4.6,0,8.3-3.7,8.3-8.5C150,91.1,146.3,87.4,141.7,87.4z M19.2,5.6c0-0.2,0.2-0.2,0.2-0.2h111.4
		c0.2,0,0.2,0.2,0.2,0.2v81.8H19.2V5.6z M87.6,99.3h-25c-1.9,0-3.4-1.4-3.4-3.4s1.4-3.4,3.4-3.4h25c1.9,0,3.4,1.4,3.4,3.4
		C90.9,97.7,89.5,99.3,87.6,99.3z"/>
</g>
</svg>
