<?xml version="1.0" encoding="utf-8"?>
<!-- Generator: Adobe Illustrator 21.0.2, SVG Export Plug-In . SVG Version: 6.00 Build 0)  -->
<svg version="1.1" id="Layer_1" xmlns="http://www.w3.org/2000/svg" xmlns:xlink="http://www.w3.org/1999/xlink" x="0px" y="0px"
	 viewBox="0 0 150 114" style="enable-background:new 0 0 150 114;" xml:space="preserve">
<style type="text/css">
	.st0{fill:#DF6B90;}
	.st1{fill:#703081;}
</style>
<g>
	<g>
		<g>
			<circle class="st0" cx="84.1" cy="102.1" r="2.4"/>
			<circle class="st0" cx="75.1" cy="102.1" r="2.4"/>
			<circle class="st0" cx="66.1" cy="102.1" r="2.4"/>
			<path class="st1" d="M147.4,90.3H141V20.8C141,4.3,127.5,0,120.2,0H29.9C22.6,0,9.1,4.4,9.1,20.8v69.7H2.8
				c-1.5,0-2.8,1.3-2.8,2.8c0,7.3,4.4,20.8,20.8,20.8h108.5c16.5,0,20.8-13.5,20.8-20.8C150.1,91.7,148.9,90.3,147.4,90.3z
				 M14.5,20.8c0-14.9,13.8-15.4,15.4-15.4h90.4c1.6,0,15.4,0.5,15.4,15.4v69.7H14.5V20.8z M129.4,108.5H20.8
				c-11.4,0-14.3-8.1-15.1-12.6h6.1h126.6h6C143.6,100.2,140.7,108.5,129.4,108.5z"/>
		</g>
	</g>
</g>
<g>
	<path class="st0" d="M97.7,57.5c1,0,1.9-0.8,1.9-1.9V41.4c0-1-0.8-1.9-1.9-1.9s-1.9,0.8-1.9,1.9v12.3h-2.5V22.6
		c0-4.6-3.8-8.4-8.4-8.4l0,0H65.1c-4.6,0-8.4,3.8-8.4,8.4v31.1h-2.5V41.4c0-1-0.8-1.9-1.9-1.9s-1.9,0.8-1.9,1.9v14.2
		c0,1,0.8,1.9,1.9,1.9h4.7c0.9,3.8,4.3,6.4,8.1,6.5h8.1v6.4l-13,3.5c-1,0.3-1.6,1.3-1.3,2.3s1.3,1.6,2.3,1.3l12.1-3.3v1.8
		c0,1,0.8,1.9,1.9,1.9c1,0,1.9-0.8,1.9-1.9v-1.7l11.4,3.1c1,0.3,2-0.3,2.3-1.3s-0.3-2-1.3-2.3l-12.5-3.4V64h8.1
		c3.9,0,7.3-2.7,8.2-6.5L97.7,57.5z M84.9,60.2H65.1c-2.6,0.1-4.8-1.8-4.9-4.4C60,53.2,62,51,64.6,50.9c0.2,0,0.3,0,0.5,0h19.9
		c2.6-0.1,4.8,1.8,4.9,4.4c0.1,2.6-1.8,4.8-4.4,4.9C85.2,60.2,85.1,60.2,84.9,60.2z M89.6,48.6c-1.4-0.9-3-1.4-4.7-1.4H65.1
		c-1.7,0-3.3,0.5-4.7,1.4V22.6c0-2.6,2.1-4.7,4.7-4.7l0,0h19.9c2.6,0,4.7,2.1,4.7,4.7l0,0V48.6z"/>
	<path class="st1" d="M80.1,26.1H69.3c-1,0-1.9,0.8-1.9,1.9s0.8,1.9,1.9,1.9h10.7c1,0,1.9-0.8,1.9-1.9S81.1,26.1,80.1,26.1z"/>
	<path class="st1" d="M80.1,35.4H69.3c-1,0-1.9,0.8-1.9,1.9s0.8,1.9,1.9,1.9h10.7c1,0,1.9-0.8,1.9-1.9S81.1,35.4,80.1,35.4z"/>
	<circle class="st1" cx="61" cy="81.7" r="2.5"/>
	<circle class="st1" cx="75.2" cy="81.7" r="2.5"/>
	<circle class="st1" cx="89.3" cy="81.7" r="2.5"/>
</g>
</svg>
