<?xml version="1.0" encoding="utf-8"?>
<!-- Generator: Adobe Illustrator 21.0.2, SVG Export Plug-In . SVG Version: 6.00 Build 0)  -->
<svg version="1.1" id="Layer_1" xmlns="http://www.w3.org/2000/svg" xmlns:xlink="http://www.w3.org/1999/xlink" x="0px" y="0px"
	 viewBox="0 0 110 110.3" style="enable-background:new 0 0 110 110.3;" xml:space="preserve">
<style type="text/css">
	.st0{fill:#703081;}
	.st1{fill:#D8427D;}
</style>
<g>
	<path class="st0" d="M93.6,0h-77C7.4,0,0,7.4,0,16.6V75c0,9.2,7.4,16.6,16.6,16.6h36.6v15.1h-16c-1,0-1.8,0.8-1.8,1.8
		c0,1,0.8,1.8,1.8,1.8h35.5c1,0,1.8-0.8,1.8-1.8c0-1-0.8-1.8-1.8-1.8h-16V91.6h36.6c9.2,0,16.6-7.4,16.6-16.6V16.6
		C110.2,7.4,102.8,0,93.6,0z M102.8,84.2c-2.4,2.4-5.6,3.8-9.2,3.8h-77c-3.6,0-6.9-1.5-9.2-3.8C5,81.8,3.6,78.6,3.6,75v-4.7h103.1
		V75C106.6,78.6,105.2,81.8,102.8,84.2z M106.7,66.7H3.5v-50C3.5,13,5,9.7,7.3,7.4c2.4-2.4,5.6-3.8,9.2-3.8h77
		c3.6,0,6.9,1.5,9.2,3.8c2.4,2.4,3.8,5.6,3.8,9.2L106.7,66.7L106.7,66.7z"/>
	<g>
		<path class="st1" d="M72.8,33.7H70c-0.5-1.8-1.1-3.4-2-4.9l2.4-2.4c0.2-0.2,0.3-0.5,0.3-0.6c0-0.2-0.1-0.5-0.3-0.6l-3.3-3.3
			c-0.3-0.3-0.9-0.3-1.3,0l-2.4,2.7c-1.4-0.8-2.8-1.5-4.4-1.8v-3c0-0.5-0.5-0.9-0.9-0.9h-4.4c-0.5,0-0.9,0.5-0.9,0.9v3
			C51,23,49.4,23.7,48,24.6l-2.7-2.7c-0.3-0.3-0.9-0.3-1.3,0l-3.3,3.2c-0.2,0.2-0.3,0.5-0.3,0.6s0.1,0.5,0.3,0.6l2.6,2.6
			c-0.9,1.5-1.7,3.2-2.1,4.9h-2.8c-0.5,0-0.9,0.5-0.9,0.9v4.6c0,0.5,0.5,0.9,0.9,0.9h2.8c0.3,1.6,0.9,3,1.8,4.4l-2.2,2.3
			c-0.2,0.2-0.3,0.5-0.3,0.6c0,0.2,0.1,0.5,0.3,0.6l3.3,3.3c0.2,0.2,0.5,0.3,0.6,0.3s0.5-0.1,0.6-0.3l2.2-2.2c1.5,0.9,3.2,1.7,5,2.1
			V54c0,0.5,0.5,0.9,0.9,0.9h4.6c0.5,0,0.9-0.5,0.9-0.9v-2.7c1.7-0.5,3.4-1.1,4.8-2l1.9,1.9c0.2,0.2,0.5,0.3,0.6,0.3
			c0.2,0,0.5-0.1,0.6-0.3l3.2-3.2c0.2-0.2,0.3-0.5,0.3-0.6c0-0.2-0.1-0.5-0.3-0.6l-2-2.2c0.8-1.4,1.5-2.8,1.8-4.4h2.8
			c0.5,0,0.9-0.5,0.9-0.9v-4.6C73.8,34.2,73.4,33.7,72.8,33.7z M55.5,46c-4.9,0-9-4-9-9s4-9,9-9s9,4,9,9S60.7,46,55.5,46z"/>
		<rect x="24.1" y="35.2" class="st1" width="9.6" height="3.4"/>
		<rect x="78.2" y="40.4" class="st1" width="8" height="3.3"/>
		<rect x="78.1" y="35" class="st1" width="5.8" height="3.4"/>
		<rect x="28" y="40.6" class="st1" width="5.8" height="3.4"/>
		<rect x="28.9" y="30" class="st1" width="5.7" height="3.3"/>
		<rect x="78.2" y="30" class="st1" width="6.8" height="3.3"/>
	</g>
</g>
</svg>
