<?xml version="1.0" encoding="utf-8"?>
<!-- Generator: Adobe Illustrator 21.0.2, SVG Export Plug-In . SVG Version: 6.00 Build 0)  -->
<svg version="1.1" id="Layer_1" xmlns="http://www.w3.org/2000/svg" xmlns:xlink="http://www.w3.org/1999/xlink" x="0px" y="0px"
	 viewBox="0 0 150 150" style="enable-background:new 0 0 150 150;" xml:space="preserve">
<style type="text/css">
	.st0{fill:#703081;}
	.st1{fill:#D8427D;}
</style>
<g>
	<path class="st0" d="M113.4,20H36.6C27.4,20,20,27.4,20,36.6v58.2c0,9.2,7.4,16.6,16.6,16.6h36.6v15.1h-16c-1,0-1.8,0.8-1.8,1.8
		c0,1,0.8,1.8,1.8,1.8h35.5c1,0,1.8-0.8,1.8-1.8c0-1-0.8-1.8-1.8-1.8h-16v-15.1h36.6c9.2,0,16.6-7.4,16.6-16.6V36.6
		C130,27.4,122.6,20,113.4,20z M122.6,104c-2.4,2.4-5.6,3.8-9.2,3.8H36.6c-3.6,0-6.9-1.5-9.2-3.8c-2.4-2.4-3.8-5.6-3.8-9.2v-4.7
		h102.9v4.7C126.4,98.4,125,101.6,122.6,104z M126.5,86.5H23.5V36.6c0-3.6,1.5-6.9,3.8-9.2c2.4-2.4,5.6-3.8,9.2-3.8h76.8
		c3.6,0,6.9,1.5,9.2,3.8c2.4,2.4,3.8,5.6,3.8,9.2L126.5,86.5L126.5,86.5z"/>
	<g>
		<path class="st1" d="M92.6,53.7h-2.8c-0.5-1.8-1.1-3.4-2-4.9l2.4-2.4c0.2-0.2,0.3-0.5,0.3-0.6c0-0.2-0.1-0.5-0.3-0.6l-3.3-3.3
			c-0.3-0.3-0.9-0.3-1.3,0l-2.4,2.7c-1.4-0.8-2.8-1.5-4.4-1.8v-3c0-0.5-0.5-0.9-0.9-0.9h-4.4c-0.5,0-0.9,0.5-0.9,0.9v3
			C71,43,69.4,43.7,68,44.6l-2.7-2.7c-0.3-0.3-0.9-0.3-1.3,0l-3.3,3.2c-0.2,0.2-0.3,0.5-0.3,0.6s0.1,0.5,0.3,0.6l2.6,2.6
			c-0.9,1.5-1.7,3.2-2.1,4.9h-2.8c-0.5,0-0.9,0.5-0.9,0.9v4.6c0,0.5,0.5,0.9,0.9,0.9h2.8c0.3,1.6,0.9,3,1.8,4.4l-2.2,2.3
			c-0.2,0.2-0.3,0.5-0.3,0.6c0,0.2,0.1,0.5,0.3,0.6l3.3,3.3c0.2,0.2,0.5,0.3,0.6,0.3s0.5-0.1,0.6-0.3l2.2-2.2c1.5,0.9,3.2,1.7,5,2.1
			v2.7c0,0.5,0.5,0.9,0.9,0.9h4.6c0.5,0,0.9-0.5,0.9-0.9v-2.7c1.7-0.5,3.4-1.1,4.8-2l1.9,1.9c0.2,0.2,0.5,0.3,0.6,0.3
			c0.2,0,0.5-0.1,0.6-0.3l3.2-3.2c0.2-0.2,0.3-0.5,0.3-0.6c0-0.2-0.1-0.5-0.3-0.6l-2-2.2c0.8-1.4,1.5-2.8,1.8-4.4h2.8
			c0.5,0,0.9-0.5,0.9-0.9v-4.6C93.6,54.2,93.2,53.7,92.6,53.7z M75.5,66c-4.9,0-9-4-9-9s4-9,9-9c5,0,9,4,9,9S80.5,66,75.5,66z"/>
		<rect x="44.1" y="55.2" class="st1" width="9.6" height="3.4"/>
		<rect x="98" y="60.4" class="st1" width="8" height="3.3"/>
		<rect x="97.9" y="55" class="st1" width="5.8" height="3.4"/>
		<rect x="48" y="60.6" class="st1" width="5.8" height="3.4"/>
		<rect x="48.9" y="50" class="st1" width="5.7" height="3.3"/>
		<rect x="98" y="50" class="st1" width="6.8" height="3.3"/>
	</g>
</g>
</svg>
