<?xml version="1.0" encoding="utf-8"?>
<!-- Generator: Adobe Illustrator 21.0.2, SVG Export Plug-In . SVG Version: 6.00 Build 0)  -->
<svg version="1.1" id="Layer_1" xmlns="http://www.w3.org/2000/svg" xmlns:xlink="http://www.w3.org/1999/xlink" x="0px" y="0px"
	 viewBox="0 0 150 114" style="enable-background:new 0 0 150 114;" xml:space="preserve">
<style type="text/css">
	.st0{fill:#DF6B90;}
	.st1{fill:#703081;}
</style>
<g>
	<g>
		<g>
			<circle class="st0" cx="84.1" cy="102.1" r="2.4"/>
			<circle class="st0" cx="75.1" cy="102.1" r="2.4"/>
			<circle class="st0" cx="66.1" cy="102.1" r="2.4"/>
			<path class="st1" d="M147.4,90.3H141V20.8C141,4.3,127.5,0,120.2,0H29.9C22.6,0,9.1,4.4,9.1,20.8v69.7H2.8
				c-1.5,0-2.8,1.3-2.8,2.8c0,7.3,4.4,20.8,20.8,20.8h108.5c16.5,0,20.8-13.5,20.8-20.8C150.1,91.7,148.9,90.3,147.4,90.3z
				 M14.5,20.8c0-14.9,13.8-15.4,15.4-15.4h90.4c1.6,0,15.4,0.5,15.4,15.4v69.7H14.5V20.8z M129.4,108.5H20.8
				c-11.4,0-14.3-8.1-15.1-12.6h6.1h126.6h6C143.6,100.2,140.7,108.5,129.4,108.5z"/>
		</g>
	</g>
</g>
<g transform="translate(0,-952.36218)">
	<path class="st0" d="M51.2,973.6c-0.6,0.1-1.2,0.6-1.2,1.2v51.2c0,0.6,0.6,1.2,1.2,1.2h31h16.7c0.7,0,1.2-0.5,1.2-1.2v-40.5
		c0-0.7-0.5-1.2-1.2-1.2H83.3v-9.5c0-0.6-0.6-1.2-1.2-1.2C82.1,973.6,51.2,973.6,51.2,973.6z M52.4,976H81v48.8h-9.5v-6
		c0-0.6-0.6-1.2-1.2-1.2h-7.1c-0.7,0-1.2,0.7-1.2,1.2v6h-9.5C52.4,1024.8,52.4,976,52.4,976z M56,978.3c-0.7,0-1.2,0.7-1.2,1.2v8.3
		c0,0.6,0.6,1.2,1.2,1.2h8.3c0.6,0,1.2-0.6,1.2-1.2v-8.3c0-0.6-0.6-1.2-1.2-1.2C64.3,978.3,56,978.3,56,978.3z M69,978.3
		c-0.7,0-1.2,0.7-1.2,1.2v8.3c0,0.6,0.6,1.2,1.2,1.2h8.3c0.6,0,1.2-0.6,1.2-1.2v-8.3c0-0.6-0.6-1.2-1.2-1.2H69z M57.1,980.7h6v6h-6
		V980.7z M70.2,980.7h6v6h-6V980.7z M83.3,986.7h14.3v38.1H83.3C83.3,1024.8,83.3,986.7,83.3,986.7z M86.9,989.1
		c-0.6,0-1.2,0.7-1.2,1.2v7.1c0,0.6,0.6,1.2,1.2,1.2H94c0.6,0,1.2-0.6,1.2-1.2v-7.1c0-0.6-0.6-1.2-1.2-1.2H86.9z M56,991.4
		c-0.7,0-1.2,0.7-1.2,1.2v8.3c0,0.6,0.6,1.2,1.2,1.2h8.3c0.6,0,1.2-0.6,1.2-1.2v-8.3c0-0.6-0.6-1.2-1.2-1.2H56z M69,991.4
		c-0.7,0-1.2,0.7-1.2,1.2v8.3c0,0.6,0.6,1.2,1.2,1.2h8.3c0.6,0,1.2-0.6,1.2-1.2v-8.3c0-0.6-0.6-1.2-1.2-1.2H69z M88.1,991.4h4.8v4.8
		h-4.8V991.4z M57.1,993.8h6v6h-6V993.8z M70.2,993.8h6v6h-6V993.8z M86.9,1001c-0.6,0-1.2,0.7-1.2,1.2v7.1c0,0.6,0.6,1.2,1.2,1.2
		H94c0.6,0,1.2-0.6,1.2-1.2v-7.1c0-0.6-0.6-1.2-1.2-1.2H86.9z M88.1,1003.3h4.8v4.8h-4.8V1003.3z M56,1004.5c-0.7,0-1.2,0.7-1.2,1.2
		v8.3c0,0.6,0.6,1.2,1.2,1.2h8.3c0.6,0,1.2-0.6,1.2-1.2v-8.3c0-0.6-0.6-1.2-1.2-1.2L56,1004.5L56,1004.5z M69,1004.5
		c-0.7,0-1.2,0.7-1.2,1.2v8.3c0,0.6,0.6,1.2,1.2,1.2h8.3c0.6,0,1.2-0.6,1.2-1.2v-8.3c0-0.6-0.6-1.2-1.2-1.2L69,1004.5L69,1004.5z
		 M57.1,1006.9h6v6h-6V1006.9z M70.2,1006.9h6v6h-6V1006.9z M86.9,1012.9c-0.6,0-1.2,0.7-1.2,1.2v7.1c0,0.6,0.6,1.2,1.2,1.2H94
		c0.6,0,1.2-0.6,1.2-1.2v-7.1c0-0.6-0.6-1.2-1.2-1.2H86.9L86.9,1012.9z M88.1,1015.2h4.8v4.8h-4.8V1015.2z M64.3,1020H69v4.8h-4.8
		V1020z"/>
</g>
</svg>
