<?xml version="1.0" encoding="utf-8"?>
<!-- Generator: Adobe Illustrator 21.0.2, SVG Export Plug-In . SVG Version: 6.00 Build 0)  -->
<svg version="1.1" id="Layer_1" xmlns="http://www.w3.org/2000/svg" xmlns:xlink="http://www.w3.org/1999/xlink" x="0px" y="0px"
	 viewBox="0 0 150 150" style="enable-background:new 0 0 150 150;" xml:space="preserve">
<style type="text/css">
	.st0{fill:#703081;}
	.st1{fill:none;}
	.st2{fill:#F2BA59;}
</style>
<g>
	<g>
		<path class="st0" d="M117.4,54.6c-0.5,0-1,0-1.5,0c-1-11.8-11-21.2-23.1-21.2c-2.3,0-4.5,0.3-6.6,1C78.7,25,67.3,19.5,55.3,19.5
			c-21.9,0-39.6,17.8-39.6,39.6c0,3.1,0.4,6.2,1.1,9.2C6.7,72.4,0,82.1,0,93c0,6.4,2.3,12.6,6.5,17.4c4.1,4.7,9.7,7.9,15.9,8.8
			c1.4,0.4,2.8,0.6,4.2,0.6H36v-6.3h-9.5c-0.9,0-1.7-0.1-2.6-0.4c-0.1,0-0.3-0.1-0.4-0.1c-9.8-1.4-17.2-10-17.2-20
			c0-9.2,6.2-17.2,15-19.6c0.8-0.2,1.5-0.8,1.9-1.5c0.4-0.8,0.5-1.6,0.2-2.5c-1.1-3.3-1.6-6.7-1.6-10.2c0-18.4,15-33.3,33.3-33.3
			c10.8,0,21,5.3,27.2,14.1c0.9,1.2,2.4,1.7,3.8,1.1c2.1-0.9,4.3-1.3,6.5-1.3c9.3,0,16.9,7.6,16.9,16.9c0,0.4,0,0.7,0,1.2
			c-0.1,1,0.3,1.9,1,2.5s1.7,0.9,2.6,0.8c1.4-0.2,2.8-0.3,4.1-0.3c14.5,0,26.3,11.8,26.3,26.3s-11.8,26.3-26.3,26.3
			c-0.1,0-0.2,0-0.3,0h-0.3c-0.2,0-0.3,0-0.5,0c-0.4,0.1-0.8,0.1-1.1,0.1h-2.7v6.3h2.7c0.6,0,1.1,0,1.7-0.1c0.2,0,0.3,0,0.5,0
			c18,0,32.6-14.6,32.6-32.6C150,69.2,135.4,54.6,117.4,54.6z"/>
	</g>
	<g>
		<g>
			<path class="st1" d="M71.4,83.4c-1,0-1.7,0.8-1.7,1.7C69.6,84.2,70.4,83.4,71.4,83.4s1.7,0.8,1.7,1.7
				C73.1,84.2,72.3,83.4,71.4,83.4z"/>
			<path class="st1" d="M69.6,85.2c0,1,0.8,1.7,1.8,1.7C70.4,86.9,69.6,86.1,69.6,85.2z"/>
			<path class="st1" d="M71.4,86.9c1,0,1.7-0.8,1.7-1.7C73.1,86.1,72.3,86.9,71.4,86.9z"/>
		</g>
	</g>
	<g>
		<path class="st2" d="M94.9,79.9c0,0-4,4.2-12.5,4.2v8.4c0,0,16.7-0.3,16.7-8.4C99,79.9,94.9,79.9,94.9,79.9z"/>
		<path class="st2" d="M94.9,94.7c0,0-4,4.2-12.5,4.2v8.4c0,0,16.7-0.3,16.7-8.4C99,94.7,94.9,94.7,94.9,94.7z"/>
		<path class="st2" d="M94.9,109.6c0,0-4,4.2-12.5,4.2v8.4c0,0,16.7-0.3,16.7-8.4C99,109.6,94.9,109.6,94.9,109.6z"/>
		<ellipse class="st2" cx="82.3" cy="69.3" rx="16.7" ry="8.4"/>
		<path class="st0" d="M74,103.1c0,0-4,4.2-12.5,4.2S49,103.1,49,103.1s-4.2,0-4.2,4.2c0,8.1,16.7,8.4,16.7,8.4s16.7-0.3,16.7-8.4
			C78.2,103.1,74,103.1,74,103.1z"/>
		<path class="st0" d="M74,117.9c0,0-4,4.2-12.5,4.2S49,117.9,49,117.9s-4.2,0-4.2,4.2c0,8.1,16.7,8.4,16.7,8.4s16.7-0.3,16.7-8.4
			C78.2,117.9,74,117.9,74,117.9z"/>
		<ellipse class="st0" cx="61.4" cy="92.4" rx="16.7" ry="8.4"/>
	</g>
</g>
</svg>
