<?xml version="1.0" encoding="utf-8"?>
<!-- Generator: Adobe Illustrator 21.0.2, SVG Export Plug-In . SVG Version: 6.00 Build 0)  -->
<svg version="1.1" id="Layer_1" xmlns="http://www.w3.org/2000/svg" xmlns:xlink="http://www.w3.org/1999/xlink" x="0px" y="0px"
	 viewBox="0 0 150 150" style="enable-background:new 0 0 150 150;" xml:space="preserve">
<style type="text/css">
	.st0{fill:#703081;}
	.st1{fill:#F2BA59;}
	.st2{fill:none;}
</style>
<g id="Layer_1_1_">
	<path class="st0" d="M131.1,55.1c0.1-0.9,0.1-1.6,0.1-2.5c0-11.6-9.5-21.1-21.1-21.1c-1.5,0-2.9,0.1-4.4,0.5
		c-4.6-12.9-17-21.6-30.8-21.6s-26.1,8.8-30.8,21.5c-1.4-0.3-2.9-0.5-4.4-0.5c-11.6,0-21.1,9.5-21.1,21.1c0,0.7,0,1.6,0.1,2.5
		C8.3,56.1,0,65.1,0,76c0,11.6,9.5,21.1,21.1,21.1h18.8v-4.8H21.1c-9,0-16.4-7.4-16.4-16.4s7.4-16.4,16.6-16.4l0,0h0.4
		c0.7,0,1.5-0.3,1.9-0.9c0.5-0.6,0.6-1.4,0.5-2c-0.4-1.4-0.5-2.8-0.5-4.1c0-9,7.4-16.4,16.4-16.4c1.8,0,3.5,0.3,5.1,0.9
		c0.6,0.3,1.3,0.1,1.9-0.1c0.6-0.3,1-0.8,1.1-1.4c3.3-12,14.4-20.4,26.9-20.4s23.6,8.4,27,20.4c0.1,0.6,0.6,1.1,1.1,1.4
		c0.6,0.3,1.3,0.4,1.9,0.1c1.6-0.5,3.4-0.9,5.1-0.9c9,0,16.4,7.4,16.4,16.4c0,1.4-0.1,2.8-0.5,4.1c-0.1,0.8,0,1.5,0.5,2
		c0.5,0.6,1.1,0.9,1.9,0.9h0.5c9,0,16.4,7.4,16.4,16.4s-7.4,16.4-16.4,16.4h-18.8V97h18.8c11.6,0,21.1-9.5,21.1-21.1
		C150,65.1,141.8,56.1,131.1,55.1z"/>
	<path class="st1" d="M56.3,43.2h-4.8C51.5,30.4,62,19.7,75,19.7v4.8C64.6,24.5,56.3,32.9,56.3,43.2z"/>
</g>
<g id="Layer_2">
</g>
<g>
	<g id="Layer_2_1_">
	</g>
	<g>
		<g>
			<path class="st2" d="M73.4,84.8c-0.7,0-1.3,0.6-1.3,1.3C72,85.3,72.6,84.8,73.4,84.8s1.3,0.6,1.3,1.3
				C74.6,85.3,74,84.8,73.4,84.8z"/>
			<path class="st2" d="M72,86c0,0.7,0.6,1.3,1.3,1.3C72.6,87.4,72,86.8,72,86z"/>
			<path class="st2" d="M73.4,87.4c0.7,0,1.3-0.6,1.3-1.3C74.6,86.8,74,87.4,73.4,87.4z"/>
		</g>
	</g>
	<g>
		<path class="st1" d="M83.5,94.3l1.8-2.1c-0.2-0.4-0.4-0.7-0.7-1.1L82,91.6c-0.3-0.4-0.6-0.7-1-1l0.5-2.7c-0.4-0.2-0.7-0.4-1.1-0.7
			l-2.1,1.8c-0.4-0.1-0.9-0.3-1.3-0.4l-0.9-2.5c-0.2,0-0.4,0-0.7,0c-0.2,0-0.4,0-0.7,0l-0.9,2.5c-0.4,0.1-0.9,0.2-1.3,0.4l-2.1-1.8
			c-0.4,0.2-0.7,0.4-1.1,0.7l0.5,2.7c-0.4,0.3-0.7,0.6-1,1l-2.7-0.5c-0.2,0.4-0.4,0.7-0.7,1.1l1.8,2.1c-0.1,0.4-0.3,0.9-0.4,1.3
			l-2.5,0.9c0,0.2,0,0.4,0,0.7c0,0.2,0,0.4,0,0.7l2.5,0.9c0.1,0.4,0.2,0.9,0.4,1.3l-1.8,2c0.2,0.4,0.4,0.7,0.7,1.1l2.7-0.5
			c0.3,0.4,0.6,0.7,1,1l-0.5,2.7c0.4,0.2,0.7,0.4,1.1,0.7l2.1-1.8c0.4,0.1,0.9,0.3,1.3,0.4l0.9,2.5c0.2,0,0.4,0,0.7,0s0.4,0,0.7,0
			l0.9-2.5c0.4-0.1,0.9-0.2,1.3-0.4l2.1,1.8c0.4-0.2,0.7-0.4,1.1-0.7l-0.5-2.7c0.4-0.3,0.7-0.6,1-1l2.7,0.5c0.2-0.4,0.4-0.7,0.7-1.1
			l-1.8-2.1c0.1-0.4,0.3-0.9,0.4-1.3l2.5-0.9c0-0.2,0-0.4,0-0.7c0-0.2,0-0.4,0-0.7l-2.5-0.9C83.8,95.2,83.7,94.7,83.5,94.3z
			 M75.4,102.9c-3.1,0-5.8-2.5-5.8-5.8c0-3.1,2.5-5.8,5.8-5.8c3.2,0,5.8,2.5,5.8,5.8C81.1,100.4,78.5,102.9,75.4,102.9z"/>
		<path class="st0" d="M100.5,98.6c0-0.5,0.1-1,0.1-1.5c0-0.5,0-1-0.1-1.5l-5.8-2c-0.1-1-0.4-2-0.8-3l4-4.6c-0.4-0.9-1-1.7-1.5-2.5
			l-6.1,1.1c-0.7-0.8-1.4-1.5-2.2-2.2l1.1-6.1c-0.8-0.5-1.6-1-2.5-1.5l-4.6,4c-1-0.4-1.9-0.6-3-0.8l-2-5.8c-0.5,0-1-0.1-1.5-0.1
			c-0.5,0-1,0-1.5,0.1l-2,5.8c-1,0.2-2,0.4-3,0.8l-4.6-4c-0.9,0.4-1.7,1-2.5,1.5l1.1,6.1c-0.8,0.7-1.5,1.4-2.2,2.2l-6.1-1.1
			c-0.5,0.8-1,1.6-1.5,2.5l4,4.6c-0.4,1-0.6,2-0.8,3l-5.6,2c0,0.5-0.1,1-0.1,1.5c0,0.5,0,1,0.1,1.5l5.8,2c0.2,1,0.4,2,0.8,3l-4,4.6
			c0.4,0.9,1,1.7,1.5,2.5l6.1-1.1c0.7,0.8,1.4,1.5,2.2,2.2l-1.1,6.1c0.8,0.5,1.6,1,2.5,1.5l4.6-4c1,0.4,1.9,0.6,3,0.8l2,5.8
			c0.5,0,1,0.1,1.5,0.1c0.5,0,1,0,1.5-0.1l2-5.8c1-0.1,2-0.4,3-0.8l4.6,4c0.9-0.4,1.7-1,2.5-1.5l-1.1-6.1c0.8-0.7,1.5-1.4,2.2-2.2
			l6.1,1.1c0.5-0.8,1-1.6,1.5-2.5l-4-4.6c0.4-1,0.6-2,0.8-3L100.5,98.6z M90.3,97.1c0,8.1-6.7,14.8-14.8,14.8s-14.8-6.7-14.8-14.8
			s6.7-14.8,14.8-14.8S90.3,89,90.3,97.1z"/>
	</g>
</g>
</svg>
