<?xml version="1.0" encoding="utf-8"?>
<!-- Generator: Adobe Illustrator 21.0.2, SVG Export Plug-In . SVG Version: 6.00 Build 0)  -->
<svg version="1.1" id="Layer_1" xmlns="http://www.w3.org/2000/svg" xmlns:xlink="http://www.w3.org/1999/xlink" x="0px" y="0px"
	 viewBox="0 0 150 122.8" style="enable-background:new 0 0 150 122.8;" xml:space="preserve">
<style type="text/css">
	.st0{fill:#D8427D;}
</style>
<g id="Layer_4">
	<g>
		<g>
			<g id="data">
				<path class="st0" d="M128.9,72.8c-10.2,0-21.1,3-21.1,9.9v28.7c0,6.8,10.9,9.9,21.1,9.9c10.2,0,21.1-3,21.1-9.9V82.7
					C150,75.9,138.9,72.8,128.9,72.8z M147,111.4c0,3.7-8.1,6.8-18.2,6.8c-10,0-18.2-3-18.2-6.8v-5.6c3,3.3,10.6,4.9,18.2,4.9
					c7.6,0,15.1-1.6,18.2-4.9V111.4z M147,102.3L147,102.3L147,102.3c0,3.7-8.1,6.8-18.2,6.8s-18.1-3-18.1-6.8l0,0l0,0v-5.6
					c3,3.3,10.6,4.9,18.2,4.9c7.6,0,15.1-1.6,18.2-4.9v5.6H147z M147,93.3L147,93.3L147,93.3c0,3.7-8.1,6.8-18.2,6.8
					s-18.1-3-18.1-6.8l0,0l0,0v-5.2c4,3,11.3,4.6,18.2,4.6c6.9,0,14.2-1.4,18.2-4.6v5.2H147z M128.9,89.4c-10,0-18.2-3-18.2-6.8
					c0-3.7,8.1-6.8,18.2-6.8c10,0,18.2,3,18.2,6.8C147,86.4,138.8,89.4,128.9,89.4z"/>
				<circle class="st0" cx="142.4" cy="112.2" r="1.4"/>
				<circle class="st0" cx="142.4" cy="103" r="1.4"/>
				<circle class="st0" cx="142.4" cy="94" r="1.4"/>
			</g>
		</g>
		<g>
			<path class="st0" d="M100.6,19.3c-1,0-1.7-0.4-2.3-1.3C93.1,11.1,85,6.8,76.1,6.8c-0.4,0-1.1,0-1.6,0c-0.8,0-1.4-0.1-2.1-0.7
				C67.1,2.2,60.6,0,53.9,0C41.7,0,31.1,6.9,26.1,17.7c-0.4,1-1.4,1.6-2.4,1.7C10.4,21.4,0,32.8,0,46.6c0,13.2,9.3,24.3,21.8,26.9
				v-8.1c0-1,0.1-2,0.4-2.9c-6.6-2.3-11.5-8.5-11.5-15.8c0-9.2,7.5-16.7,16.7-16.7c0.4,0,1,0,1.3,0c2.6,0.1,5-1.4,5.6-4
				c2.3-8.9,10.2-15.2,19.4-15.2c5.2,0,10.2,2.1,13.9,5.6c1.3,1.3,3,1.7,4.9,1.4c1.1-0.1,2.3-0.3,3.4-0.3c6.5,0,12.1,3.6,15.1,9.3
				c1,2.1,3,3.3,5.3,3c0.4,0,1.1-0.1,1.6-0.1c9.2,0,16.7,7.5,16.7,16.7c0,7.5-4.9,13.5-11.5,15.8c0.3,1,0.4,2,0.4,2.9v8.1
				c12.5-2.6,21.8-13.8,21.8-26.9C125.6,32.2,114.6,20.4,100.6,19.3z"/>
		</g>
		<g id="Settings">
			<g>
				<path class="st0" d="M103.9,76.8c-0.1-1.1-1.4-2.1-2.6-2.1c-3.7,0-7.2-2.3-8.6-5.6c-1.4-3.6-0.4-7.6,2.3-10.2c1-0.8,1-2.1,0.3-3
					c-2-2.4-4.2-4.7-6.6-6.6c-1-0.8-2.3-0.7-3,0.3c-2.4,2.7-6.9,3.7-10.3,2.3c-3.6-1.4-5.9-5.2-5.6-9c0-1.3-0.8-2.3-2.1-2.4
					c-3-0.3-6.2-0.3-9.3,0c-1.1,0.1-2.1,1.1-2.1,2.4c0.1,3.9-2.1,7.5-5.6,8.9c-3.4,1.4-7.8,0.3-10.2-2.3c-0.8-1-2.1-1-3-0.3
					c-2.4,2-4.7,4.2-6.6,6.6c-0.8,1-0.7,2.3,0.3,3c2.9,2.6,3.9,6.8,2.3,10.3c-1.4,3.4-5,5.6-9,5.6c-1.3,0-2.3,0.8-2.4,2.1
					c-0.3,3-0.3,6.3,0,9.3c0.1,1.1,1.4,2.1,2.7,2.1c3.6-0.1,7.2,2.1,8.6,5.6c1.4,3.6,0.4,7.6-2.3,10.2c-0.8,0.8-1,2.1-0.3,3
					c2,2.4,4.2,4.7,6.6,6.6c1,0.8,2.3,0.7,3.3-0.3c2.4-2.7,6.9-3.7,10.3-2.3c3.6,1.4,5.9,5.2,5.6,9c0,1.3,0.8,2.3,2.1,2.4
					c1.6,0.1,3.3,0.3,4.9,0.3c1.4,0,3-0.1,4.6-0.3c1.1-0.1,2.1-1.1,2.1-2.4c-0.1-3.9,2.1-7.5,5.6-8.9c3.4-1.4,7.8-0.3,10.2,2.3
					c0.8,1,2.1,1,3,0.3c2.4-2,4.7-4.2,6.6-6.6c0.8-1,0.7-2.3-0.3-3c-2.9-2.6-3.9-6.8-2.3-10.3c1.4-3.4,4.9-5.6,8.5-5.6h0.4
					c1.1,0.1,2.3-0.8,2.4-2.1C104.3,83.1,104.3,80.1,103.9,76.8z M62.9,95.4c-7.6,0-13.8-6.2-13.8-13.8c0-7.6,6.2-13.8,13.8-13.8
					c7.6,0,13.8,6.2,13.8,13.8C76.7,89.1,70.4,95.4,62.9,95.4z"/>
			</g>
		</g>
	</g>
</g>
</svg>
