<?xml version="1.0" encoding="utf-8"?>
<!-- Generator: Adobe Illustrator 21.0.2, SVG Export Plug-In . SVG Version: 6.00 Build 0)  -->
<svg version="1.1" id="Layer_1" xmlns="http://www.w3.org/2000/svg" xmlns:xlink="http://www.w3.org/1999/xlink" x="0px" y="0px"
	 viewBox="0 0 150 147.4" style="enable-background:new 0 0 150 147.4;" xml:space="preserve">
<style type="text/css">
	.st0{fill:#D8427D;}
</style>
<g>
	<path class="st0" d="M120.1,23.2c-1.2,0-2.1-0.6-2.7-1.5c-6.2-8.5-15.8-13.5-26.5-13.5l-1.9,0c-1,0-1.9-0.3-2.6-0.9
		C80,2.5,72.4,0,64.4,0C49.9,0,37.1,8.4,31.2,21.3c-0.6,1.2-1.7,1.9-2.9,2.1C12.4,25.7,0,39.6,0,56.2c0,16,11.2,29.3,26.1,32.4v-9.8
		c0-1.2,0.2-2.3,0.6-3.5c-9-3.1-15.3-12.3-13.3-23.1c1.8-9.4,10.3-16.1,19.9-16.1h1.1c3.1,0.2,6-1.7,6.8-4.8
		c2.7-10.7,12.2-18.4,23.2-18.4c6.2,0,12.2,2.5,16.6,6.9c1.5,1.5,3.7,2.1,5.8,1.7c1.4-0.2,2.7-0.4,4.1-0.4c7.7,0,14.5,4.3,18,11.3
		c1.2,2.5,3.7,3.9,6.4,3.7c0.6,0,1.4-0.2,1.9-0.2c11,0,19.9,9,19.9,20.1c0,9-5.8,16.3-13.7,19.1c0.4,1.2,0.6,2.3,0.6,3.5v9.8
		C138.8,85.3,150,71.8,150,56C150.1,38.9,136.9,24.6,120.1,23.2z"/>
	<g>
		<path class="st0" d="M124,92.1c-0.2-1.4-1.7-2.5-3.1-2.5c-4.4,0-8.5-2.7-10.2-6.8c-1.7-4.3-0.6-9.1,2.7-12.2
			c1.2-1,1.2-2.5,0.4-3.7c-2.3-2.9-5-5.6-7.9-7.9c-1.2-1-2.7-0.8-3.7,0.4c-2.9,3.3-8.3,4.4-12.4,2.7c-4.3-1.7-7-6.2-6.8-10.8
			c0-1.5-1-2.7-2.5-2.9c-3.7-0.4-7.3-0.4-11.2,0c-1.4,0.2-2.5,1.4-2.5,2.9c0.2,4.6-2.5,8.9-6.8,10.6c-4.1,1.7-9.3,0.4-12.2-2.7
			c-1-1.2-2.5-1.2-3.7-0.4c-2.9,2.3-5.6,5-7.9,7.9c-1,1.2-0.8,2.7,0.4,3.7c3.5,3.1,4.6,8.1,2.7,12.4c-1.7,4.1-6,6.8-10.8,6.8
			c-1.5,0-2.7,1-2.9,2.5c-0.4,3.7-0.4,7.5,0,11.2c0.2,1.4,1.7,2.5,3.3,2.5c4.3-0.2,8.5,2.5,10.2,6.8c1.7,4.3,0.6,9.1-2.7,12.2
			c-1,1-1.2,2.5-0.4,3.7c2.3,2.9,5,5.6,7.9,7.9c1.2,1,2.7,0.8,3.9-0.4c2.9-3.3,8.3-4.4,12.4-2.7c4.3,1.7,7,6.2,6.8,10.8
			c0,1.5,1,2.7,2.5,2.9c1.9,0.2,3.9,0.4,5.8,0.4c1.7,0,3.7-0.2,5.4-0.4c1.4-0.2,2.5-1.4,2.5-2.9c-0.2-4.6,2.5-8.9,6.8-10.6
			c4.1-1.7,9.3-0.4,12.2,2.7c1,1.2,2.5,1.2,3.7,0.4c2.9-2.3,5.6-5,7.9-7.9c1-1.2,0.8-2.7-0.4-3.7c-3.5-3.1-4.6-8.1-2.7-12.4
			c1.7-4.1,5.8-6.8,10.1-6.8h0.6c1.4,0.2,2.7-1,2.9-2.5C124.4,99.7,124.4,96,124,92.1z M75,114.2c-9.1,0-16.4-7.3-16.4-16.4
			S65.9,81.5,75,81.5s16.4,7.3,16.4,16.4C91.6,106.7,84.1,114.2,75,114.2z"/>
	</g>
</g>
</svg>
