<svg id="Layer_1" xmlns="http://www.w3.org/2000/svg" viewBox="0 0 150 147.4"><style>.st0{fill:#d8427d}</style><path class="st0" d="M120.1 23.2c-1.2 0-2.1-.6-2.7-1.5-6.2-8.5-15.8-13.5-26.5-13.5H89c-1 0-1.9-.3-2.6-.9C80 2.5 72.4 0 64.4 0 49.9 0 37.1 8.4 31.2 21.3c-.6 1.2-1.7 1.9-2.9 2.1C12.4 25.7 0 39.6 0 56.2c0 16 11.2 29.3 26.1 32.4v-9.8c0-1.2.2-2.3.6-3.5-9-3.1-15.3-12.3-13.3-23.1 1.8-9.4 10.3-16.1 19.9-16.1h1.1c3.1.2 6-1.7 6.8-4.8 2.7-10.7 12.2-18.4 23.2-18.4 6.2 0 12.2 2.5 16.6 6.9 1.5 1.5 3.7 2.1 5.8 1.7 1.4-.2 2.7-.4 4.1-.4 7.7 0 14.5 4.3 18 11.3 1.2 2.5 3.7 3.9 6.4 3.7.6 0 1.4-.2 1.9-.2 11 0 19.9 9 19.9 20.1 0 9-5.8 16.3-13.7 19.1.4 1.2.6 2.3.6 3.5v9.8c14.8-3.1 26-16.6 26-32.4.1-17.1-13.1-31.4-29.9-32.8z"/><path class="st0" d="M124 92.1c-.2-1.4-1.7-2.5-3.1-2.5-4.4 0-8.5-2.7-10.2-6.8-1.7-4.3-.6-9.1 2.7-12.2 1.2-1 1.2-2.5.4-3.7-2.3-2.9-5-5.6-7.9-7.9-1.2-1-2.7-.8-3.7.4-2.9 3.3-8.3 4.4-12.4 2.7-4.3-1.7-7-6.2-6.8-10.8 0-1.5-1-2.7-2.5-2.9-3.7-.4-7.3-.4-11.2 0-1.4.2-2.5 1.4-2.5 2.9.2 4.6-2.5 8.9-6.8 10.6-4.1 1.7-9.3.4-12.2-2.7-1-1.2-2.5-1.2-3.7-.4-2.9 2.3-5.6 5-7.9 7.9-1 1.2-.8 2.7.4 3.7 3.5 3.1 4.6 8.1 2.7 12.4-1.7 4.1-6 6.8-10.8 6.8-1.5 0-2.7 1-2.9 2.5-.4 3.7-.4 7.5 0 11.2.2 1.4 1.7 2.5 3.3 2.5 4.3-.2 8.5 2.5 10.2 6.8 1.7 4.3.6 9.1-2.7 12.2-1 1-1.2 2.5-.4 3.7 2.3 2.9 5 5.6 7.9 7.9 1.2 1 2.7.8 3.9-.4 2.9-3.3 8.3-4.4 12.4-2.7 4.3 1.7 7 6.2 6.8 10.8 0 1.5 1 2.7 2.5 2.9 1.9.2 3.9.4 5.8.4 1.7 0 3.7-.2 5.4-.4 1.4-.2 2.5-1.4 2.5-2.9-.2-4.6 2.5-8.9 6.8-10.6 4.1-1.7 9.3-.4 12.2 2.7 1 1.2 2.5 1.2 3.7.4 2.9-2.3 5.6-5 7.9-7.9 1-1.2.8-2.7-.4-3.7-3.5-3.1-4.6-8.1-2.7-12.4 1.7-4.1 5.8-6.8 10.1-6.8h.6c1.4.2 2.7-1 2.9-2.5.1-3.6.1-7.3-.3-11.2zm-49 22.1c-9.1 0-16.4-7.3-16.4-16.4S65.9 81.5 75 81.5s16.4 7.3 16.4 16.4c.2 8.8-7.3 16.3-16.4 16.3z"/></svg>