<svg id="Layer_1" xmlns="http://www.w3.org/2000/svg" viewBox="0 0 150 122.8"><style>.st0{fill:#d8427d}</style><g id="Layer_4"><g id="data"><path class="st0" d="M128.9 72.8c-10.2 0-21.1 3-21.1 9.9v28.7c0 6.8 10.9 9.9 21.1 9.9 10.2 0 21.1-3 21.1-9.9V82.7c0-6.8-11.1-9.9-21.1-9.9zm18.1 38.6c0 3.7-8.1 6.8-18.2 6.8-10 0-18.2-3-18.2-6.8v-5.6c3 3.3 10.6 4.9 18.2 4.9s15.1-1.6 18.2-4.9v5.6zm0-9.1c0 3.7-8.1 6.8-18.2 6.8s-18.1-3-18.1-6.8v-5.6c3 3.3 10.6 4.9 18.2 4.9s15.1-1.6 18.2-4.9v5.6h-.1zm0-9c0 3.7-8.1 6.8-18.2 6.8s-18.1-3-18.1-6.8v-5.2c4 3 11.3 4.6 18.2 4.6 6.9 0 14.2-1.4 18.2-4.6v5.2h-.1zm-18.1-3.9c-10 0-18.2-3-18.2-6.8 0-3.7 8.1-6.8 18.2-6.8 10 0 18.2 3 18.2 6.8-.1 3.8-8.3 6.8-18.2 6.8z"/><circle class="st0" cx="142.4" cy="112.2" r="1.4"/><circle class="st0" cx="142.4" cy="103" r="1.4"/><circle class="st0" cx="142.4" cy="94" r="1.4"/></g><path class="st0" d="M100.6 19.3c-1 0-1.7-.4-2.3-1.3C93.1 11.1 85 6.8 76.1 6.8h-1.6c-.8 0-1.4-.1-2.1-.7C67.1 2.2 60.6 0 53.9 0 41.7 0 31.1 6.9 26.1 17.7c-.4 1-1.4 1.6-2.4 1.7C10.4 21.4 0 32.8 0 46.6c0 13.2 9.3 24.3 21.8 26.9v-8.1c0-1 .1-2 .4-2.9-6.6-2.3-11.5-8.5-11.5-15.8 0-9.2 7.5-16.7 16.7-16.7h1.3c2.6.1 5-1.4 5.6-4 2.3-8.9 10.2-15.2 19.4-15.2 5.2 0 10.2 2.1 13.9 5.6 1.3 1.3 3 1.7 4.9 1.4 1.1-.1 2.3-.3 3.4-.3 6.5 0 12.1 3.6 15.1 9.3 1 2.1 3 3.3 5.3 3 .4 0 1.1-.1 1.6-.1 9.2 0 16.7 7.5 16.7 16.7 0 7.5-4.9 13.5-11.5 15.8.3 1 .4 2 .4 2.9v8.1c12.5-2.6 21.8-13.8 21.8-26.9.3-14.1-10.7-25.9-24.7-27z"/><path class="st0" d="M103.9 76.8c-.1-1.1-1.4-2.1-2.6-2.1-3.7 0-7.2-2.3-8.6-5.6-1.4-3.6-.4-7.6 2.3-10.2 1-.8 1-2.1.3-3-2-2.4-4.2-4.7-6.6-6.6-1-.8-2.3-.7-3 .3-2.4 2.7-6.9 3.7-10.3 2.3-3.6-1.4-5.9-5.2-5.6-9 0-1.3-.8-2.3-2.1-2.4-3-.3-6.2-.3-9.3 0-1.1.1-2.1 1.1-2.1 2.4.1 3.9-2.1 7.5-5.6 8.9-3.4 1.4-7.8.3-10.2-2.3-.8-1-2.1-1-3-.3-2.4 2-4.7 4.2-6.6 6.6-.8 1-.7 2.3.3 3 2.9 2.6 3.9 6.8 2.3 10.3-1.4 3.4-5 5.6-9 5.6-1.3 0-2.3.8-2.4 2.1-.3 3-.3 6.3 0 9.3.1 1.1 1.4 2.1 2.7 2.1 3.6-.1 7.2 2.1 8.6 5.6 1.4 3.6.4 7.6-2.3 10.2-.8.8-1 2.1-.3 3 2 2.4 4.2 4.7 6.6 6.6 1 .8 2.3.7 3.3-.3 2.4-2.7 6.9-3.7 10.3-2.3 3.6 1.4 5.9 5.2 5.6 9 0 1.3.8 2.3 2.1 2.4 1.6.1 3.3.3 4.9.3 1.4 0 3-.1 4.6-.3 1.1-.1 2.1-1.1 2.1-2.4-.1-3.9 2.1-7.5 5.6-8.9 3.4-1.4 7.8-.3 10.2 2.3.8 1 2.1 1 3 .3 2.4-2 4.7-4.2 6.6-6.6.8-1 .7-2.3-.3-3-2.9-2.6-3.9-6.8-2.3-10.3 1.4-3.4 4.9-5.6 8.5-5.6h.4c1.1.1 2.3-.8 2.4-2.1-.1-3-.1-6-.5-9.3zm-41 18.6c-7.6 0-13.8-6.2-13.8-13.8 0-7.6 6.2-13.8 13.8-13.8 7.6 0 13.8 6.2 13.8 13.8 0 7.5-6.3 13.8-13.8 13.8z" id="Settings"/></g></svg>