<?xml version="1.0" encoding="utf-8"?>
<!-- Generator: Adobe Illustrator 21.0.2, SVG Export Plug-In . SVG Version: 6.00 Build 0)  -->
<svg version="1.1" id="Layer_1" xmlns="http://www.w3.org/2000/svg" xmlns:xlink="http://www.w3.org/1999/xlink" x="0px" y="0px"
	 viewBox="0 0 150 182.5" style="enable-background:new 0 0 150 182.5;" xml:space="preserve">
<style type="text/css">
	.st0{fill:#703081;}
	.st1{fill:#F2BA59;}
</style>
<path class="st0" d="M109.5,129.6c-1.7-1.7-4.1-2.5-6.5-2.1c-2.4,0.4-4.5,2-5.6,4.2c-0.7,1.5-1.6,2.8-2.7,4c-2.1,2.8-6,3.4-8.8,1.4
	c-2.8-2.1-3.4-6-1.4-8.8c0.4-0.5,0.8-1,1.4-1.4c1.2-1.1,2.5-2,4-2.7c2.2-1.1,3.8-3.2,4.2-5.6c0.4-2.4-0.3-4.9-2.1-6.6l-5-5
	c-2.1-2.2-5.1-3.4-8.1-3.3h-0.1c0-3-1.2-5.8-3.3-7.9l-5.2-5.1C70,90.4,70,90.2,70,90c0.1-0.2,0.3-0.4,0.5-0.5c2.2-1,4.1-2.4,5.9-4
	c2.6-2.5,4.1-5.9,4.3-9.6c0.5-6.8-4.7-12.7-11.5-13.2c-0.6,0-1.1,0-1.7,0c-3.6,0.2-7,1.6-9.6,4.2c-1.7,1.7-3,3.7-4,5.9
	c-0.1,0.3-0.4,0.5-0.6,0.5c-0.2,0-0.5,0-0.6-0.2l-5.2-5.2c-4.5-4.5-11.7-4.5-16.2,0l-27.9,28c-4.5,4.5-4.5,11.7,0,16.2l27.9,27.9
	c2.1,2.1,5.1,3.3,8.1,3.3h0.1c0,3,1.2,5.8,3.3,7.9l27.9,27.9c4.5,4.5,11.7,4.5,16.2,0l27.9-27.9c4.5-4.5,4.5-11.7,0-16.2
	L109.5,129.6z M42.7,135.1c-1.8,1.8-4.8,1.8-6.6,0L8.1,107.2c-1.8-1.8-1.8-4.8,0-6.6l27.9-28c1.8-1.8,4.8-1.8,6.6,0l5.3,5.2
	c1.7,1.7,4.1,2.5,6.5,2.1c2.4-0.4,4.5-2,5.6-4.2c0.7-1.5,1.6-2.8,2.7-4c2.4-2.8,6.7-3.2,9.6-0.7c0,0,0,0,0,0
	c1.2,1.2,1.7,2.9,1.6,4.5c-0.1,1.9-0.9,3.7-2.3,5.1c-1.2,1.1-2.5,2-4,2.7c-2.2,1.1-3.8,3.2-4.2,5.6c-0.4,2.4,0.4,4.8,2.1,6.5l5,5.1
	c1.8,1.8,1.8,4.8,0,6.6l-5,5c-0.2,0.2-0.4,0.3-0.6,0.2c-0.3,0-0.5-0.2-0.6-0.5c-1-2.2-2.4-4.2-4-5.9c-2.5-2.6-5.9-4.1-9.6-4.3
	c-3.5-0.2-7,1.1-9.5,3.5c-0.1,0.1-0.2,0.3-0.4,0.5c-0.4,0.4-0.7,0.9-1.1,1.3l-0.3,0.5c-1.4,2.2-2.1,4.8-1.9,7.5
	c0.2,3.6,1.8,7,4.3,9.6c1.7,1.7,3.7,3,5.9,4c0.3,0.1,0.5,0.4,0.5,0.6c0,0.1,0,0.2,0,0.4l-0.1,0.2L42.7,135.1z M110.1,146.4
	l-27.9,27.9c-1.8,1.8-4.8,1.8-6.6,0l-27.9-27.9c-1.8-1.8-1.8-4.8,0-6.6l5.2-5.2c1.7-1.7,2.5-4.2,2.1-6.6c-0.4-2.4-2-4.5-4.2-5.6
	c-1.5-0.7-2.8-1.6-4-2.7c-2-1.9-2.8-4.6-2.1-7.2c0,0,0-0.1,0-0.2V112c0.3-0.7,0.7-1.3,1.2-1.8c1.1-1.1,2.6-1.7,4.1-1.6
	c2,0,4,0.8,5.4,2.3c1.1,1.2,2,2.5,2.7,4c1.1,2.3,3.2,3.9,5.7,4.3c2.4,0.4,4.8-0.4,6.5-2.1l5.2-5.2c1.8-1.8,4.8-1.8,6.6,0l5,5
	c0.2,0.2,0.2,0.4,0.2,0.6c0,0.3-0.2,0.5-0.5,0.6c-2.2,1-4.2,2.4-5.9,4c-2.6,2.5-4.1,5.9-4.3,9.6c-0.2,3.6,1.1,7.1,3.7,9.6
	c5.5,5.1,14,4.7,19.1-0.7c1.7-1.8,3-3.8,4-6c0.1-0.3,0.4-0.5,0.6-0.5c0.2,0,0.5,0,0.6,0.2l5.4,5.4C112,141.5,112,144.5,110.1,146.4
	C110.2,146.4,110.1,146.4,110.1,146.4z"/>
<path class="st1" d="M145.6,58c-1.7-1.7-3.7-3-5.9-4c-0.3-0.1-0.5-0.4-0.5-0.6c0-0.2,0-0.5,0.2-0.6l5.2-5.2c4.5-4.5,4.5-11.7,0-16.2
	L116.7,3.4c-4.5-4.5-11.7-4.5-16.2,0L72.6,31.3c-4.5,4.5-4.5,11.7,0,16.2l5.4,5.4c1.7,1.7,4.1,2.5,6.5,2.1c2.4-0.4,4.5-2,5.6-4.2
	c0.7-1.5,1.6-2.8,2.7-4c2.4-2.8,6.7-3.2,9.6-0.7c0,0,0,0,0,0c2.4,2.8,2.1,7.1-0.7,9.6c0,0,0,0,0,0c-1.2,1.1-2.5,2-4,2.7
	c-2.2,1.1-3.8,3.2-4.2,5.6c-0.4,2.4,0.4,4.8,2.1,6.5l5,5c4.5,4.5,11.7,4.5,16.2,0l5.2-5.2c0.2-0.2,0.4-0.2,0.6-0.2
	c0.3,0,0.5,0.2,0.6,0.5c1,2.2,2.4,4.2,4,5.9c2.7,2.7,6.4,4.3,10.2,4.3c6.8,0.1,12.4-5.3,12.5-12.1c0-0.3,0-0.7,0-1
	C149.7,63.9,148.2,60.5,145.6,58z M141.5,72.3c-2.8,2.4-7.1,2.1-9.6-0.7c0,0,0,0,0,0c-1.1-1.2-2-2.5-2.7-4c-1.2-2.6-3.9-4.3-6.8-4.3
	c-2,0-3.9,0.8-5.3,2.3l-5.2,5.2c-1.8,1.8-4.8,1.8-6.6,0l-5-5c-0.2-0.2-0.2-0.4-0.2-0.6c0-0.3,0.2-0.5,0.5-0.6c2.2-1,4.1-2.4,5.9-4
	c5.5-5.1,5.8-13.6,0.7-19.1c-5.5-5.1-14-4.7-19.1,0.7c-1.7,1.7-3,3.7-4.1,5.8c-0.1,0.3-0.4,0.5-0.6,0.5c-0.2,0-0.5,0-0.6-0.2
	l-5.5-5.4c-1.8-1.8-1.8-4.8,0-6.6l28-28c1.8-1.8,4.7-1.8,6.6,0l27.9,28c1.8,1.8,1.8,4.8,0,6.6l-5.2,5.2c-1.7,1.7-2.5,4.1-2.1,6.5
	c0.4,2.5,2,4.6,4.2,5.7c1.5,0.7,2.8,1.6,4,2.7c1.4,1.4,2.2,3.2,2.3,5.1C143.2,69.5,142.6,71.1,141.5,72.3L141.5,72.3z"/>
</svg>
