<?xml version="1.0" encoding="utf-8"?>
<!-- Generator: Adobe Illustrator 21.0.2, SVG Export Plug-In . SVG Version: 6.00 Build 0)  -->
<svg version="1.1" id="Layer_1" xmlns="http://www.w3.org/2000/svg" xmlns:xlink="http://www.w3.org/1999/xlink" x="0px" y="0px"
	 viewBox="0 0 150 150" style="enable-background:new 0 0 150 150;" xml:space="preserve">
<style type="text/css">
	.st0{fill:#D8427D;}
</style>
<g>
	<path class="st0" d="M104.3,53.9H45.7c-0.6,0-1.2,0.5-1.2,1.2v35.2c0,0.6,0.5,1.2,1.2,1.2h58.6c0.6,0,1.2-0.5,1.2-1.2V55.1
		C105.5,54.4,104.9,53.9,104.3,53.9z M103.1,89.1h-8.2V70.3c0-0.6-0.5-1.2-1.2-1.2s-1.2,0.5-1.2,1.2v18.8h-7v-5.9
		c0-0.6-0.5-1.2-1.2-1.2s-1.2,0.5-1.2,1.2v5.9h-7V75c0-0.6-0.5-1.2-1.2-1.2s-1.2,0.5-1.2,1.2v14.1h-7v-4.7c0-0.6-0.5-1.2-1.2-1.2
		s-1.2,0.5-1.2,1.2v4.7h-7c0-0.3-0.1-0.6-0.3-0.8s-0.5-0.3-0.8-0.3s-0.6,0.1-0.8,0.3s-0.3,0.5-0.3,0.8h-8.2V56.3h56.3V89.1z"/>
	<path class="st0" d="M111.3,93.8h-1.2V54.6c0-3-2.4-5.4-5.4-5.4H45.2c-3,0-5.4,2.4-5.4,5.4v39.1h-1.2c-0.6,0-1.2,0.5-1.2,1.2v1.2
		c0,2.6,2.1,4.7,4.7,4.7h65.6c2.6,0,4.7-2.1,4.7-4.7v-1.2C112.5,94.3,112,93.8,111.3,93.8z M42.2,54.6c0-1.7,1.4-3,3.1-3h59.5
		c1.7,0,3.1,1.4,3.1,3v39.1H42.2V54.6z M107.8,98.4H42.2c-1.3,0-2.3-1.1-2.3-2.3h30.5c0,0.6,0.5,1.2,1.2,1.2h7
		c0.6,0,1.2-0.5,1.2-1.2h30.5C110.2,97.4,109.1,98.4,107.8,98.4z"/>
	<path class="st0" d="M56.3,85.5c1.9,0,3.5-1.6,3.5-3.5c0-0.1,0-0.3,0-0.4l3.4-1.7c0.6,0.6,1.5,1,2.4,1c1.9,0,3.5-1.6,3.5-3.5
		c0-0.5-0.1-1.1-0.3-1.5c0,0,0,0,0,0l4.7-4.7c0,0,0,0,0,0c0.5,0.2,1,0.3,1.5,0.3c0.6,0,1.2-0.2,1.7-0.5l4.4,3.8
		c-0.2,0.4-0.3,0.8-0.3,1.3c0,1.9,1.6,3.5,3.5,3.5s3.5-1.6,3.5-3.5c0-0.7-0.2-1.4-0.6-2l5.5-7.5c0.3,0.1,0.7,0.1,1,0.1
		c1.9,0,3.5-1.6,3.5-3.5c0-1.9-1.6-3.5-3.5-3.5s-3.5,1.6-3.5,3.5c0,0.7,0.2,1.4,0.6,2l-5.5,7.5c-0.3-0.1-0.7-0.1-1-0.1
		c-0.6,0-1.2,0.2-1.7,0.5l-4.4-3.8c0.2-0.4,0.3-0.8,0.3-1.3c0-1.9-1.6-3.5-3.5-3.5S71.5,66,71.5,68c0,0.5,0.1,1.1,0.3,1.5
		c0,0,0,0,0,0l-4.7,4.7c0,0,0,0,0,0c-0.5-0.2-1-0.3-1.5-0.3c-1.9,0-3.5,1.6-3.5,3.5c0,0.1,0,0.3,0,0.4l-3.4,1.7
		c-0.6-0.6-1.5-1-2.4-1c-1.9,0-3.5,1.6-3.5,3.5S54.3,85.5,56.3,85.5z M93.8,62.1c0.6,0,1.2,0.5,1.2,1.2s-0.5,1.2-1.2,1.2
		s-1.2-0.5-1.2-1.2S93.1,62.1,93.8,62.1z M84.4,75c0.6,0,1.2,0.5,1.2,1.2s-0.5,1.2-1.2,1.2s-1.2-0.5-1.2-1.2S83.7,75,84.4,75z
		 M75,66.8c0.6,0,1.2,0.5,1.2,1.2s-0.5,1.2-1.2,1.2s-1.2-0.5-1.2-1.2S74.4,66.8,75,66.8z M65.6,76.2c0.6,0,1.2,0.5,1.2,1.2
		s-0.5,1.2-1.2,1.2s-1.2-0.5-1.2-1.2S65,76.2,65.6,76.2z M56.3,80.9c0.6,0,1.2,0.5,1.2,1.2s-0.5,1.2-1.2,1.2s-1.2-0.5-1.2-1.2
		S55.6,80.9,56.3,80.9z"/>
</g>
</svg>
