<?xml version="1.0" encoding="utf-8"?>
<!-- Generator: Adobe Illustrator 21.0.2, SVG Export Plug-In . SVG Version: 6.00 Build 0)  -->
<svg version="1.1" id="Layer_1" xmlns="http://www.w3.org/2000/svg" xmlns:xlink="http://www.w3.org/1999/xlink" x="0px" y="0px"
	 viewBox="0 0 150 91.8" style="enable-background:new 0 0 150 91.8;" xml:space="preserve">
<style type="text/css">
	.st0{fill:#703081;}
	.st1{fill:#DF6B90;}
</style>
<g>
	<g>
		<g>
			<g>
				<g>
					<g>
						<g>
							<path class="st0" d="M129.8,0H10C4.5,0,0,4.5,0,10v69.9c0,5.5,4.5,10,10,10h72.4c1.4,0,2.5-1.1,2.5-2.5
								c0-1.4-1.1-2.5-2.5-2.5H10c-2.8,0-5-2.3-5-5V10c0-2.8,2.2-5,5-5h119.8c2.8,0,5,2.2,5,5v27.5c0,1.4,1.1,2.5,2.5,2.5
								s2.5-1.1,2.5-2.5V10C139.8,4.5,135.3,0,129.8,0z"/>
							<path class="st1" d="M32.5,59.9h-15c-1.4,0-2.5-1.1-2.5-2.5l0,0c0-1.4,1.1-2.5,2.5-2.5h15c1.4,0,2.5,1.1,2.5,2.5l0,0
								C34.9,58.8,33.9,59.9,32.5,59.9z"/>
							<path class="st0" d="M72.4,74.9H17.5c-1.4,0-2.5-1.1-2.5-2.5l0,0c0-1.4,1.1-2.5,2.5-2.5h54.9c1.4,0,2.5,1.1,2.5,2.5l0,0
								C74.9,73.8,73.8,74.9,72.4,74.9z"/>
							<path class="st1" d="M62.4,59.9h-15c-1.4,0-2.5-1.1-2.5-2.5l0,0c0-1.4,1.1-2.5,2.5-2.5h15c1.4,0,2.5,1.1,2.5,2.5l0,0
								C64.9,58.8,63.8,59.9,62.4,59.9z"/>
							<path class="st1" d="M92.4,59.9h-15c-1.4,0-2.5-1.1-2.5-2.5l0,0c0-1.4,1.1-2.5,2.5-2.5h15c1.4,0,2.5,1.1,2.5,2.5l0,0
								C94.9,58.8,93.8,59.9,92.4,59.9z"/>
							<path class="st1" d="M39.9,20v20H20V20L39.9,20 M39.9,15H20c-2.8,0-5,2.3-5,5v20c0,2.7,2.3,5,5,5h20c2.8,0,5-2.3,5-5V20
								C44.9,17.3,42.6,15,39.9,15L39.9,15z"/>
						</g>
					</g>
				</g>
			</g>
		</g>
	</g>
	<g>
		<g>
			<path class="st0" d="M128.1,48c-12.1,0-21.9,9.9-21.9,21.9s9.9,21.9,21.9,21.9S150,81.9,150,69.9S140.1,48,128.1,48z M128.1,89.5
				c-10.8,0-19.6-8.8-19.6-19.6s8.8-19.6,19.6-19.6s19.6,8.8,19.6,19.6S138.9,89.5,128.1,89.5z"/>
		</g>
		<g>
			<circle class="st1" cx="128.1" cy="63.3" r="5.4"/>
		</g>
		<g>
			<path class="st1" d="M128.1,70.8c-3.4,0-6.4,1.6-9.1,4.5c-2.1,2.3-0.5,6.1,2.6,6.1h12.9c3.1,0,4.9-3.9,2.6-6.1
				C134.5,72.4,131.4,70.8,128.1,70.8z"/>
		</g>
	</g>
</g>
</svg>
