<?xml version="1.0" encoding="utf-8"?>
<!-- Generator: Adobe Illustrator 21.0.2, SVG Export Plug-In . SVG Version: 6.00 Build 0)  -->
<svg version="1.1" id="Layer_1" xmlns="http://www.w3.org/2000/svg" xmlns:xlink="http://www.w3.org/1999/xlink" x="0px" y="0px"
	 viewBox="0 0 150 150" style="enable-background:new 0 0 150 150;" xml:space="preserve">
<style type="text/css">
	.st0{fill:#703081;}
	.st1{fill:#DF6B90;}
</style>
<g>
	<g>
		<g>
			<g>
				<g>
					<g>
						<g>
							<path class="st0" d="M118.8,38.3H23c-4.4,0-8,3.6-8,8v55.9c0,4.4,3.6,8,8,8h57.9c1.1,0,2-0.9,2-2s-0.9-2-2-2H23
								c-2.2,0-4-1.8-4-4V46.3c0-2.2,1.8-4,4-4h95.8c2.2,0,4,1.8,4,4v22c0,1.1,0.9,2,2,2s2-0.9,2-2v-22
								C126.8,41.9,123.2,38.3,118.8,38.3z"/>
							<path class="st1" d="M41,86.2H29c-1.1,0-2-0.9-2-2l0,0c0-1.1,0.9-2,2-2h12c1.1,0,2,0.9,2,2l0,0C42.9,85.3,42.1,86.2,41,86.2z
								"/>
							<path class="st0" d="M72.9,98.2H29c-1.1,0-2-0.9-2-2l0,0c0-1.1,0.9-2,2-2h43.9c1.1,0,2,0.9,2,2l0,0
								C74.9,97.3,74,98.2,72.9,98.2z"/>
							<path class="st1" d="M64.9,86.2h-12c-1.1,0-2-0.9-2-2l0,0c0-1.1,0.9-2,2-2h12c1.1,0,2,0.9,2,2l0,0
								C66.9,85.3,66,86.2,64.9,86.2z"/>
							<path class="st1" d="M88.9,86.2h-12c-1.1,0-2-0.9-2-2l0,0c0-1.1,0.9-2,2-2h12c1.1,0,2,0.9,2,2l0,0
								C90.9,85.3,90,86.2,88.9,86.2z"/>
							<path class="st1" d="M46.9,54.3v16H31v-16L46.9,54.3 M46.9,50.3H31c-2.2,0-4,1.8-4,4v16c0,2.2,1.8,4,4,4h16c2.2,0,4-1.8,4-4
								v-16C50.9,52.1,49.1,50.3,46.9,50.3L46.9,50.3z"/>
						</g>
					</g>
				</g>
			</g>
		</g>
	</g>
	<g>
		<g>
			<path class="st0" d="M117.5,76.7c-9.7,0-17.5,7.9-17.5,17.5s7.9,17.5,17.5,17.5s17.5-7.9,17.5-17.5S127.1,76.7,117.5,76.7z
				 M117.5,109.9c-8.6,0-15.7-7-15.7-15.7s7-15.7,15.7-15.7s15.7,7,15.7,15.7S126.1,109.9,117.5,109.9z"/>
		</g>
		<g>
			<circle class="st1" cx="117.5" cy="88.9" r="4.3"/>
		</g>
		<g>
			<path class="st1" d="M117.5,94.9c-2.7,0-5.1,1.3-7.3,3.6c-1.7,1.8-0.4,4.9,2.1,4.9h10.3c2.5,0,3.9-3.1,2.1-4.9
				C122.6,96.2,120.1,94.9,117.5,94.9z"/>
		</g>
	</g>
</g>
</svg>
