<?xml version="1.0" encoding="utf-8"?>
<!-- Generator: Adobe Illustrator 21.0.2, SVG Export Plug-In . SVG Version: 6.00 Build 0)  -->
<svg version="1.1" id="Layer_1" xmlns="http://www.w3.org/2000/svg" xmlns:xlink="http://www.w3.org/1999/xlink" x="0px" y="0px"
	 viewBox="0 0 150 205.4" style="enable-background:new 0 0 150 205.4;" xml:space="preserve">
<style type="text/css">
	.st0{fill:#703081;}
	.st1{fill:#F2BA59;}
</style>
<g>
	<path class="st0" d="M148.9,72.3l-10.8-14.2l2.4-17.8c0.2-2-0.8-4-2.8-4.8l-16.6-6.8l-6.8-16.6c-0.8-1.8-2.8-3-4.8-2.8l-17.8,2.4
		L77.5,0.9c-1.6-1.2-3.8-1.2-5.4,0L57.9,11.7L40.1,9.3c-2-0.2-4,0.8-4.8,2.8l-6.8,16.6l-16.6,6.8c-1.8,0.8-3,2.8-2.8,4.8l2.4,17.8
		L0.9,72.3c-1.2,1.6-1.2,3.8,0,5.4l10.8,14.2l-2.4,17.8c-0.2,2,0.8,4,2.8,4.8l16.6,6.8l6.8,16.6c0.6,1.4,2,2.4,3.4,2.8v60
		c0,1.6,0.8,3.2,2.4,4c1.4,0.8,3.2,0.8,4.6-0.2l29-18.4l29,18.4c0.8,0.4,1.6,0.8,2.4,0.8c0.8,0,1.4-0.2,2.2-0.6
		c1.4-0.8,2.4-2.4,2.4-4v-60.2c1.4-0.2,2.8-1.2,3.4-2.8l6.8-16.6l16.6-6.8c1.8-0.8,3-2.8,2.8-4.8l-2.4-17.8l10.8-14.2
		C150.4,76.1,150.4,73.9,148.9,72.3z M77.3,176.8c-1.4-1-3.4-1-4.8,0l-24.6,15.6v-52.8l10-1.4l14.2,10.8c0.8,0.6,1.8,1,2.8,1
		c1,0,2-0.4,2.8-1l14.2-10.8l10,1.4v52.8L77.3,176.8z M129.7,87.9c-0.8,1-1,2.2-0.8,3.4l2.2,16.2l-15,6.2c-1.2,0.4-2,1.4-2.4,2.4
		l-6.2,15l-16.2-2.2c-1.2-0.2-2.4,0.2-3.4,0.8l-13,10l-13-9.8c-0.8-0.6-1.8-1-2.8-1c-0.2,0-0.4,0-0.6,0l-16.2,2.2l-6.2-15
		c-0.4-1.2-1.4-2-2.4-2.4l-15-6.2l2.2-16.2c0.2-1.2-0.2-2.4-0.8-3.4l-9.8-13l9.8-13c0.8-1,1-2.2,0.8-3.4l-2.2-16l15-6.2
		c1.2-0.4,2-1.4,2.4-2.4l6.2-15l16.2,2.2c1.2,0.2,2.4-0.2,3.4-0.8l13-9.8l13,9.8c1,0.8,2.2,1,3.4,0.8l16.2-2.2l6.2,15
		c0.4,1.2,1.4,2,2.4,2.4l15,6.2l-2.2,16.2c-0.2,1.2,0.2,2.4,0.8,3.4l9.8,13L129.7,87.9z"/>
	<path class="st1" d="M47.3,45.7c1,0,2-0.4,2.8-1c7-5.8,15.8-8.8,24.8-8.8c2.4,0,4.6-2,4.6-4.6c0-2.4-2-4.6-4.6-4.6
		c-11,0-22,3.8-30.4,11c-2,1.6-2.2,4.4-0.6,6.4C44.7,45.3,45.9,45.7,47.3,45.7z"/>
	<path class="st1" d="M91.1,29.7c-2.4-0.8-5,0.4-5.8,2.8c-0.8,2.4,0.4,5,2.8,5.8c15.6,5.6,26,20.4,26,36.8c0,21.6-17.6,39-39,39
		S35.9,96.5,35.9,74.9c0-7.6,2.2-15,6.4-21.4c1.4-2,0.8-4.8-1.2-6.2c-2-1.4-4.8-0.8-6.2,1.2c-5.2,7.8-7.8,17-7.8,26.4
		c0,26.6,21.6,48,48,48s48-21.6,48-48C122.9,54.7,110.1,36.5,91.1,29.7z"/>
</g>
</svg>
