<?xml version="1.0" encoding="utf-8"?>
<!-- Generator: Adobe Illustrator 20.1.0, SVG Export Plug-In . SVG Version: 6.00 Build 0)  -->
<svg version="1.1" id="Layer_1" xmlns="http://www.w3.org/2000/svg" xmlns:xlink="http://www.w3.org/1999/xlink" x="0px" y="0px"
	 viewBox="0 0 50 50" enable-background="new 0 0 50 50" xml:space="preserve">
<g>
	<g>
		<path fill="#575757" d="M19.6,14.7l4.7,3.5c0.2,0.1,0.4,0.2,0.7,0.2s0.5-0.1,0.7-0.2l4.7-3.5c0.3-0.2,0.5-0.5,0.5-0.9v-6
			c0-0.6-0.5-1.1-1.1-1.1h-9.4c-0.6,0-1.1,0.5-1.1,1.1v6C19.2,14.1,19.4,14.5,19.6,14.7z M21.4,8.9h7.2v4.3L25,15.9l-3.6-2.6V8.9z"
			/>
		<path fill="#575757" d="M42,11.4h-8.3c-0.6,0-1.1,0.5-1.1,1.1s0.5,1.1,1.1,1.1H42c1.3,0,2.4,1.1,2.4,2.4v24.6
			c0,1.3-1.1,2.4-2.4,2.4H8c-1.3,0-2.4-1.1-2.4-2.4V16.1c0-1.3,1.1-2.4,2.4-2.4h8.3c0.6,0,1.1-0.5,1.1-1.1s-0.5-1.1-1.1-1.1H8
			c-2.6,0-4.7,2.1-4.7,4.7v24.6c0,2.6,2.1,4.7,4.7,4.7H42c2.6,0,4.7-2.1,4.7-4.7V16.1C46.6,13.5,44.5,11.4,42,11.4z"/>
		<path fill="#575757" d="M11.4,23.1c0,2.1,1.7,3.9,3.9,3.9s3.9-1.7,3.9-3.9s-1.7-3.9-3.9-3.9S11.4,20.9,11.4,23.1z M17,23.1
			c0,0.9-0.7,1.7-1.7,1.7c-0.9,0-1.7-0.7-1.7-1.7s0.7-1.7,1.7-1.7C16.2,21.4,17,22.2,17,23.1z"/>
		<path fill="#575757" d="M15.3,27.8c-2.2,0-4,1-5.2,3c-0.8,1.4-1.4,3.3-1.6,5.6c-0.1,0.6,0.4,1.2,1,1.2s1.2-0.4,1.2-1
			c0.4-4.3,1.9-6.5,4.5-6.5s4.1,2.2,4.5,6.5c0.1,0.6,0.5,1,1.1,1c0,0,0.1,0,0.1,0c0.6-0.1,1.1-0.6,1-1.2c-0.2-2.3-0.8-4.2-1.6-5.6
			C19.3,28.8,17.5,27.8,15.3,27.8z"/>
		<path fill="#575757" d="M38.8,21.3H26.3c-0.6,0-1.1,0.5-1.1,1.1s0.5,1.1,1.1,1.1h12.4c0.6,0,1.1-0.5,1.1-1.1S39.4,21.3,38.8,21.3z
			"/>
		<path fill="#575757" d="M39.9,30.4c0-0.6-0.5-1.1-1.1-1.1H26.3c-0.6,0-1.1,0.5-1.1,1.1s0.5,1.1,1.1,1.1h12.4
			C39.4,31.5,39.9,31,39.9,30.4z"/>
		<path fill="#575757" d="M26.3,33.2c-0.6,0-1.1,0.5-1.1,1.1s0.5,1.1,1.1,1.1h6.2c0.6,0,1.1-0.5,1.1-1.1s-0.5-1.1-1.1-1.1H26.3z"/>
		<path fill="#575757" d="M38.8,25.2H26.3c-0.6,0-1.1,0.5-1.1,1.1s0.5,1.1,1.1,1.1h12.4c0.6,0,1.1-0.5,1.1-1.1S39.4,25.2,38.8,25.2z
			"/>
	</g>
</g>
</svg>
