<?xml version="1.0" encoding="utf-8"?>
<!-- Generator: Adobe Illustrator 21.0.2, SVG Export Plug-In . SVG Version: 6.00 Build 0)  -->
<svg version="1.1" xmlns="http://www.w3.org/2000/svg" xmlns:xlink="http://www.w3.org/1999/xlink" x="0px" y="0px"
	 viewBox="0 0 150 165" style="enable-background:new 0 0 150 165;" xml:space="preserve">
<style type="text/css">
	.st0{fill:#DF6B90;}
	.st1{fill:#703081;}
</style>
<g id="Layer_1">
	<g transform="translate(0,-952.36218)">
		<path class="st0" d="M28.2,1081.7c-5.1,0-9.4,4.2-9.4,9.4c0,5.1,4.2,9.4,9.4,9.4c5.1,0,9.3-4.2,9.4-9.3l8.1-5.4
			c1.5,1,3.2,1.5,5,1.5c5.1,0,9.4-4.2,9.4-9.4c0-5.1-4.2-9.4-9.4-9.4c-1.8,0-3.5,0.5-5,1.5l-8.1-5.4c-0.1-5.1-4.3-9.2-9.4-9.2v0
			c-5.1,0-9.4,4.2-9.4,9.4s4.2,9.4,9.4,9.4c2.4,0,4.6-1,6.3-2.5l6.9,4.6c-0.1,0.5-0.1,1.1-0.1,1.6c0,0.5,0,1.1,0.1,1.6l-7,4.6
			C32.8,1082.6,30.6,1081.7,28.2,1081.7z M28.2,1092.9c-1.1,0-1.9-0.8-1.9-1.9c0-1.1,0.8-1.9,1.9-1.9s1.9,0.8,1.9,1.9
			C30,1092.1,29.3,1092.9,28.2,1092.9z M50.7,1076.1c1.1,0,1.9,0.8,1.9,1.9c0,1.1-0.8,1.9-1.9,1.9s-1.9-0.8-1.9-1.9
			C48.8,1076.9,49.6,1076.1,50.7,1076.1z M28.2,1066.7c-1.1,0-1.9-0.8-1.9-1.9s0.8-1.9,1.9-1.9s1.9,0.8,1.9,1.9
			C30,1065.9,29.3,1066.7,28.2,1066.7z"/>
		<path class="st0" d="M116.3,976.8c0-2.1-1.6-3.8-3.7-3.8c0,0-0.1,0-0.1,0h-60c-0.1,0-0.2,0-0.4,0c-2.1,0.1-3.7,1.9-3.6,3.9
			c0.1,2.1,1.9,3.7,3.9,3.6h60C114.6,980.5,116.3,978.9,116.3,976.8z"/>
		<path class="st0" d="M107,995.5c0,0-0.1,0-0.1,0H58.2c-0.1,0-0.2,0-0.4,0c-2.1,0.1-3.7,1.9-3.6,3.9s1.9,3.7,3.9,3.6h48.7
			c2.1,0,3.8-1.6,3.8-3.7C110.7,997.2,109.1,995.5,107,995.5z"/>
		<path class="st0" d="M106.9,1018H58.2c-0.1,0-0.2,0-0.4,0c-2.1,0.1-3.7,1.9-3.6,3.9c0.1,2.1,1.9,3.7,3.9,3.6h48.7
			c2.1,0,3.8-1.6,3.8-3.7c0-2.1-1.6-3.8-3.7-3.8C107,1018,106.9,1018,106.9,1018z"/>
	</g>
</g>
<g id="Layer_1_copy">
	<g transform="translate(0,-952.36218)">
		<path class="st1" d="M135,974.9h-3.7v-7.5c0-8.2-6.8-15-15-15H48.8v0c-8.2,0-15,6.8-15,15v71.6c-19,2.7-33.8,19.2-33.8,39
			c0,21.7,17.7,39.4,39.4,39.4c18.5,0,34-12.8,38.2-30H135c8.2,0,15-6.8,15-15v-82.5C150,981.6,143.2,974.9,135,974.9z M39.4,1109.7
			c-17.6,0-31.8-14.2-31.8-31.8c0-17.6,14.2-31.8,31.8-31.8v0c17.6,0,31.8,14.2,31.8,31.8C71.2,1095.6,57.1,1109.7,39.4,1109.7z
			 M75,1061.1c-2.4-5-5.9-9.5-10.1-13.1h47.6c2.1,0,3.8-1.6,3.8-3.7c0-2.1-1.6-3.8-3.7-3.8c0,0-0.1,0-0.1,0h-60c-0.1,0-0.2,0-0.4,0
			c-0.2,0-0.3,0-0.5,0.1c-3.3-1.1-6.8-1.8-10.4-1.9v-71.2c0-4.2,3.3-7.5,7.5-7.5v0h67.5c4.2,0,7.5,3.3,7.5,7.5v86.2
			c0,4.2-3.3,7.5-7.5,7.5H75z M142.5,1072.3c0,4.2-3.3,7.5-7.5,7.5H78.8c0-0.6,0.1-1.3,0.1-1.9c0-3.2-0.4-6.4-1.2-9.4h38.6
			c8.2,0,15-6.8,15-15v-71.2h3.7c4.2,0,7.5,3.3,7.5,7.5V1072.3z"/>
	</g>
</g>
</svg>
