<?xml version="1.0" encoding="utf-8"?>
<!-- Generator: Adobe Illustrator 21.0.2, SVG Export Plug-In . SVG Version: 6.00 Build 0)  -->
<svg version="1.1" id="Layer_1" xmlns="http://www.w3.org/2000/svg" xmlns:xlink="http://www.w3.org/1999/xlink" x="0px" y="0px"
	 viewBox="0 0 150 126.1" style="enable-background:new 0 0 150 126.1;" xml:space="preserve">
<style type="text/css">
	.st0{fill:#703081;}
	.st1{fill:#DF6B90;}
</style>
<g>
	<path class="st0" d="M141.7,0H63.3C58.8,0,55,3.8,55,8.3v48.3H8.3c-4.5,0-8.3,3.8-8.3,8.3v53c0,4.5,3.8,8.3,8.3,8.3h78.4
		c4.5,0,8.3-3.8,8.3-8.3V69.5h46.8c4.5,0,8.3-3.8,8.3-8.3v-53C150,3.8,146.2,0,141.7,0z M141.7,4.9c0.4,0,0.8,0,1.1,0.2l-40.2,29.7
		l-41-29.3c0.6-0.4,1.1-0.6,1.7-0.6H141.7z M86.7,61.5c0.4,0,0.8,0,1.1,0.2L47.4,91.4L6.6,62c0.6-0.4,1.1-0.6,1.7-0.6L86.7,61.5
		L86.7,61.5z M86.7,121.1H8.3c-1.9,0-3.4-1.5-3.4-3.4V66.9l42.5,30.5L89.8,66v51.7C90,119.5,88.3,121.1,86.7,121.1z M141.7,64.7
		H94.9c-0.2-4.5-3.8-8.1-8.3-8.1H60V10.3l42.5,30.5L145,9.4v51.7C145.1,63.2,143.6,64.7,141.7,64.7z"/>
	<path class="st1" d="M39.7,26.1h0.8v-4.9h-0.8c-10.5,0-19,8.5-19,19h4.9C25.6,32.5,32,26.1,39.7,26.1z"/>
</g>
<g>
	<path class="st0" d="M137.9,115.7c-1.6,0-2.8,1.2-2.8,2.7c0,1.5,1.3,2.7,2.8,2.7c1.6,0,2.8-1.2,2.8-2.7
		C140.7,116.9,139.4,115.7,137.9,115.7z"/>
	<path class="st1" d="M145,75.1h-14.3v46H145V75.1z M133.5,82.9h8.8v1.6h-8.8V82.9z M133.5,88.1h8.8v1.6h-8.8V88.1z M133.5,91.2h8.8
		v1.6h-8.8V91.2z M133.5,94.2h8.8v1.6h-8.8V94.2z M133.5,97.3h8.8v1.6h-8.8V97.3z M137.9,117.4c-2.5,0-4.5-1.9-4.5-4.3
		c0-2.4,2-4.3,4.5-4.3c2.5,0,4.5,1.9,4.5,4.3C142.3,115.5,140.3,117.4,137.9,117.4z"/>
	<path class="st0" d="M122,115.7c-1.6,0-2.8,1.2-2.8,2.7c0,1.5,1.3,2.7,2.8,2.7c1.6,0,2.8-1.2,2.8-2.7
		C124.8,116.9,123.6,115.7,122,115.7z"/>
	<path class="st1" d="M129.1,75.1h-14.3v46h14.3V75.1z M117.6,82.9h8.8v1.6h-8.8V82.9z M117.6,88.1h8.8v1.6h-8.8V88.1z M117.6,91.2
		h8.8v1.6h-8.8V91.2z M117.6,94.2h8.8v1.6h-8.8V94.2z M117.6,97.3h8.8v1.6h-8.8V97.3z M122,117.4c-2.5,0-4.5-1.9-4.5-4.3
		c0-2.4,2-4.3,4.5-4.3c2.5,0,4.5,1.9,4.5,4.3C126.5,115.5,124.5,117.4,122,117.4z"/>
	<path class="st0" d="M106.1,121.1c1.6,0,2.8-1.2,2.8-2.7c0-1.5-1.3-2.7-2.8-2.7c-1.6,0-2.8,1.2-2.8,2.7
		C103.3,119.9,104.6,121.1,106.1,121.1z"/>
	<path class="st1" d="M99,121.1h14.3v-46H99V121.1z M101.7,82.9h8.8v1.6h-8.8V82.9z M101.7,88.1h8.8v1.6h-8.8V88.1z M101.7,91.2h8.8
		v1.6h-8.8V91.2z M101.7,94.2h8.8v1.6h-8.8V94.2z M101.7,97.3h8.8v1.6h-8.8V97.3z M106.1,108.8c2.5,0,4.5,1.9,4.5,4.3
		c0,2.4-2,4.3-4.5,4.3c-2.5,0-4.5-1.9-4.5-4.3C101.7,110.7,103.7,108.8,106.1,108.8z"/>
</g>
</svg>
