<?xml version="1.0" encoding="utf-8"?>
<!-- Generator: Adobe Illustrator 21.0.2, SVG Export Plug-In . SVG Version: 6.00 Build 0)  -->
<svg version="1.1" id="Layer_1" xmlns="http://www.w3.org/2000/svg" xmlns:xlink="http://www.w3.org/1999/xlink" x="0px" y="0px"
	 viewBox="0 0 150 150" style="enable-background:new 0 0 150 150;" xml:space="preserve">
<style type="text/css">
	.st0{fill:#712B81;}
</style>
<g>
	<path class="st0" d="M75,150c-41.4,0-75-33.6-75-75S33.6,0,75,0s75,33.6,75,75S116.4,150,75,150z M75,7.8
		C38.1,7.8,8.1,37.9,8.1,74.7s30.1,66.9,66.9,66.9s66.9-29.8,66.9-66.7S111.9,7.8,75,7.8z"/>
</g>
<path class="st0" d="M69.9,96c0-1.3,0-2.3,0-3c0-3.8,0.5-7.3,1.8-10.1c0.8-2,2-4.3,3.8-6.3c1.3-1.5,3.8-3.8,7.1-6.8
	c3.5-3,5.6-5.6,6.6-7.3c1-1.8,1.5-3.8,1.5-5.8c0-3.8-1.5-7.3-4.5-10.1c-3-3-6.8-4.3-11.1-4.3s-7.8,1.3-10.6,4
	c-2.8,2.5-4.3,5.8-5.3,11.4H48.7c1-7.6,3.5-13.4,8.1-17.2c4.5-4,10.6-6.1,17.9-6.1c7.8,0,14.1,2.3,18.9,6.3
	c4.8,4.3,7.1,9.6,7.1,15.7c0,3.5-0.8,6.8-2.5,9.8s-4.8,6.6-9.6,10.9c-3.3,2.8-5.3,5.1-6.3,6.3c-1,1.3-1.8,3-2.3,4.8
	s-0.8,4.5-0.8,8.6h-9.3V96z"/>
<rect x="69.4" y="104.5" class="st0" width="11.4" height="11.4"/>
</svg>
