<?xml version="1.0" encoding="utf-8"?>
<!-- Generator: Adobe Illustrator 21.0.2, SVG Export Plug-In . SVG Version: 6.00 Build 0)  -->
<svg version="1.1" id="Layer_1" xmlns="http://www.w3.org/2000/svg" xmlns:xlink="http://www.w3.org/1999/xlink" x="0px" y="0px"
	 viewBox="0 0 150 150" style="enable-background:new 0 0 150 150;" xml:space="preserve">
<style type="text/css">
	.st0{fill:#703081;}
	.st1{fill:#DF6B90;}
</style>
<g id="Layer_2">
	<path class="st0" d="M75,0C33.6,0,0,33.6,0,75s33.6,75,75,75s75-33.6,75-75S116.4,0,75,0z M75,3.1c39.7,0,71.9,32.2,71.9,71.9
		s-32.2,71.9-71.9,71.9S3.1,114.7,3.1,75S35.3,3.1,75,3.1z"/>
</g>
<g transform="translate(0,-952.36218)">
	<path class="st0" d="M101.2,1052.4C101.2,1052.4,101.1,1052.4,101.2,1052.4h-3.5v-18.2h18.2v3.4c0,1.3,1,2.3,2.2,2.3
		c1.3,0,2.3-1,2.3-2.2c0,0,0,0,0-0.1v-5.7c0-1.2-0.9-2.2-2.1-2.3c-0.1,0-0.1,0-0.2,0H95.4c-1.3,0-2.3,1-2.3,2.3v22.7
		c0,1.3,1,2.3,2.3,2.3h5.7c1.3,0,2.3-1,2.3-2.2C103.4,1053.4,102.4,1052.4,101.2,1052.4z"/>
	<path class="st1" d="M54.6,1029.6H31.8c-0.1,0-0.1,0-0.2,0c-1.2,0.1-2.1,1.1-2.1,2.3v22.7c0,1.3,1,2.3,2.3,2.3h22.7
		c1.3,0,2.3-1,2.3-2.3v-22.7C56.8,1030.7,55.8,1029.6,54.6,1029.6z M52.3,1052.4H34.1v-18.2h18.2V1052.4z"/>
	<path class="st1" d="M95.4,1025.1h22.7c1.3,0,2.3-1,2.3-2.3v-22.7c0-1.2-0.9-2.2-2.1-2.3c-0.1,0-0.1,0-0.2,0H95.4
		c-1.3,0-2.3,1-2.3,2.3v22.7C93.2,1024.1,94.2,1025.1,95.4,1025.1z M97.7,1002.4h18.2v18.2H97.7V1002.4z"/>
	<path class="st1" d="M54.6,997.8H31.8c-0.1,0-0.1,0-0.2,0c-1.2,0.1-2.1,1.1-2.1,2.3v22.7c0,1.3,1,2.3,2.3,2.3h22.7
		c1.3,0,2.3-1,2.3-2.3v-22.7C56.8,998.8,55.8,997.8,54.6,997.8z M52.3,1020.5H34.1v-18.2h18.2V1020.5z"/>
	<path class="st1" d="M86.4,997.8H63.6c-0.1,0-0.1,0-0.2,0c-1.2,0.1-2.1,1.1-2.1,2.3v22.7c0,1.3,1,2.3,2.3,2.3h22.7
		c1.3,0,2.3-1,2.3-2.3v-22.7C88.6,998.8,87.6,997.8,86.4,997.8z M84.1,1020.5H65.9v-18.2h18.2V1020.5z"/>
	<path class="st1" d="M86.4,1029.6H63.6c-0.1,0-0.1,0-0.2,0c-1.2,0.1-2.1,1.1-2.1,2.3v22.7c0,1.3,1,2.3,2.3,2.3h22.7
		c1.3,0,2.3-1,2.3-2.3v-22.7C88.6,1030.7,87.6,1029.6,86.4,1029.6z M84.1,1052.4H65.9v-18.2h18.2V1052.4z"/>
</g>
</svg>
