<?xml version="1.0" encoding="utf-8"?>
<!-- Generator: Adobe Illustrator 21.0.2, SVG Export Plug-In . SVG Version: 6.00 Build 0)  -->
<svg version="1.1" id="Layer_1" xmlns="http://www.w3.org/2000/svg" xmlns:xlink="http://www.w3.org/1999/xlink" x="0px" y="0px"
	 viewBox="0 0 150 150" style="enable-background:new 0 0 150 150;" xml:space="preserve">
<style type="text/css">
	.st0{fill:#703081;}
	.st1{fill:#F2BA59;}
</style>
<g id="Layer_1_1_">
	<path class="st0" d="M131.1,55.1c0.1-0.9,0.1-1.6,0.1-2.5c0-11.6-9.5-21.1-21.1-21.1c-1.5,0-2.9,0.1-4.4,0.5
		c-4.6-12.9-17-21.6-30.8-21.6s-26.1,8.8-30.8,21.5c-1.4-0.3-2.9-0.5-4.4-0.5c-11.6,0-21.1,9.5-21.1,21.1c0,0.7,0,1.6,0.1,2.5
		C8.3,56.1,0,65.1,0,76c0,11.6,9.5,21.1,21.1,21.1h18.8v-4.8H21.1c-9,0-16.4-7.4-16.4-16.4s7.4-16.4,16.6-16.4l0,0h0.4
		c0.7,0,1.5-0.3,1.9-0.9c0.5-0.6,0.6-1.4,0.5-2c-0.4-1.4-0.5-2.8-0.5-4.1c0-9,7.4-16.4,16.4-16.4c1.8,0,3.5,0.3,5.1,0.9
		c0.6,0.3,1.3,0.1,1.9-0.1c0.6-0.3,1-0.8,1.1-1.4c3.3-12,14.4-20.4,26.9-20.4s23.6,8.4,27,20.4c0.1,0.6,0.6,1.1,1.1,1.4
		c0.6,0.3,1.3,0.4,1.9,0.1c1.6-0.5,3.4-0.9,5.1-0.9c9,0,16.4,7.4,16.4,16.4c0,1.4-0.1,2.8-0.5,4.1c-0.1,0.8,0,1.5,0.5,2
		c0.5,0.6,1.1,0.9,1.9,0.9h0.5c9,0,16.4,7.4,16.4,16.4s-7.4,16.4-16.4,16.4h-18.8V97h18.8c11.6,0,21.1-9.5,21.1-21.1
		C150,65.1,141.8,56.1,131.1,55.1z"/>
	<path class="st1" d="M56.3,43.2h-4.8C51.5,30.4,62,19.7,75,19.7v4.8C64.6,24.5,56.3,32.9,56.3,43.2z"/>
</g>
<g id="Layer_2">
</g>
<g id="Layer_2_1_">
</g>
<path class="st1" d="M102.1,96.8l-3.2-0.6c-1.5-0.3-2.7-1.3-3.3-2.7c-0.6-1.4-0.4-3,0.6-4.2l2-2.8c0.6-0.9,0.6-2.1-0.2-2.9l-4.4-4.4
	c-0.8-0.8-1.9-0.9-2.8-0.3l-2.7,1.8c-0.7,0.5-1.6,0.8-2.5,0.8c-1.9,0-4-1.3-4.4-3.8l-0.5-3.4c-0.2-1.1-1.1-1.9-2.2-1.9h-6.2
	c-1.1,0-2,0.8-2.2,1.8l-0.8,4.2c-0.5,2.4-2.6,3.6-4.4,3.6c-0.9,0-1.7-0.3-2.5-0.8l-3.5-2.3c-0.9-0.6-2.1-0.5-2.8,0.3l-4.4,4.4
	c-0.8,0.8-0.9,2-0.2,2.9l2,2.8c0.9,1.3,1.1,2.8,0.6,4.2s-1.8,2.4-3.3,2.7l-3.2,0.6c-1.1,0.2-1.8,1.1-1.8,2.2v6.2
	c0,1.1,0.8,2,1.9,2.2l3.4,0.5c1.5,0.2,2.8,1.2,3.4,2.6s0.5,3-0.4,4.2l-1.8,2.7c-0.6,0.9-0.5,2.1,0.3,2.8l4.4,4.4
	c0.8,0.8,2,0.9,2.9,0.2l2.8-2c0.8-0.6,1.7-0.9,2.6-0.9c1.8,0,3.9,1.2,4.3,3.6l0.6,3.2c0.2,1.1,1.1,1.8,2.2,1.8h6.2
	c1.1,0,2-0.8,2.2-1.9l0.4-2.4c0.4-2.5,2.5-3.8,4.4-3.8c0.9,0,1.8,0.3,2.6,0.9l1.9,1.4c0.9,0.6,2.1,0.6,2.9-0.2l4.4-4.4
	c0.8-0.8,0.9-1.9,0.3-2.8l-1.8-2.7c-0.9-1.3-1-2.8-0.4-4.2c0.6-1.4,1.9-2.3,3.4-2.6l3.4-0.5c1.1-0.2,1.9-1.1,1.9-2.2v-6.2
	C103.9,97.9,103.1,97,102.1,96.8z M99.4,103.2l-1.5,0.2c-3,0.5-5.6,2.4-6.8,5.2c-1.2,2.8-0.9,6,0.8,8.5l0.8,1.2L91,120l-0.4-0.3
	c-1.5-1.1-3.4-1.7-5.2-1.7c-4.4,0-8.1,3.2-8.8,7.5v0.5h-2.4l-0.3-1.4c-0.8-4.2-4.5-7.2-8.7-7.2c-1.9,0-3.7,0.6-5.2,1.7l-1.2,0.9
	l-1.7-1.7l0.8-1.2c1.7-2.5,2-5.7,0.8-8.5c-1.2-2.8-3.8-4.8-6.8-5.2l-1.5-0.2v-2.4l1.4-0.3c3-0.6,5.5-2.6,6.6-5.5s0.7-6-1.1-8.5
	l-0.9-1.2l1.7-1.7l2,1.3c1.5,1,3.2,1.5,5,1.5c4.3,0,7.9-3,8.7-7.2l0.4-2.3h2.4l0.2,1.5c0.7,4.4,4.4,7.5,8.8,7.5c1.8,0,3.5-0.5,5-1.5
	l1.2-0.8l1.7,1.7l-0.9,1.2c-1.8,2.5-2.2,5.6-1.1,8.5c1.1,2.8,3.6,4.9,6.6,5.5l1.4,0.2L99.4,103.2L99.4,103.2z"/>
<path class="st0" d="M75,90.4c-6.2,0-11.2,5-11.2,11.2s5,11.2,11.2,11.2s11.2-5,11.2-11.2S81.2,90.4,75,90.4z M75,108.2
	c-3.7,0-6.7-3-6.7-6.7s3-6.7,6.7-6.7s6.7,3,6.7,6.7S78.7,108.2,75,108.2z"/>
</svg>
