<?xml version="1.0" encoding="utf-8"?>
<!-- Generator: Adobe Illustrator 21.0.2, SVG Export Plug-In . SVG Version: 6.00 Build 0)  -->
<svg version="1.1" id="Layer_1" xmlns="http://www.w3.org/2000/svg" xmlns:xlink="http://www.w3.org/1999/xlink" x="0px" y="0px"
	 viewBox="0 0 150 150" style="enable-background:new 0 0 150 150;" xml:space="preserve">
<style type="text/css">
	.st0{fill:#F2BA59;}
</style>
<g id="Layer_1_1_">
	<rect x="53.9" y="120.6" class="st0" width="23.5" height="4.8"/>
	<rect x="53.9" y="92.5" class="st0" width="23.5" height="4.8"/>
	<path class="st0" d="M131.1,55.1c0.1-0.9,0.1-1.6,0.1-2.5c0-11.6-9.5-21.1-21.1-21.1c-1.5,0-2.9,0.1-4.4,0.5
		c-4.6-12.9-17-21.6-30.8-21.6s-26.1,8.8-30.8,21.5c-1.4-0.3-2.9-0.5-4.4-0.5c-11.6,0-21.1,9.5-21.1,21.1c0,0.7,0,1.6,0.1,2.5
		C8.3,56.1,0,65.1,0,76c0,11.6,9.5,21.1,21.1,21.1h18.8v-4.8H21.1c-9,0-16.4-7.4-16.4-16.4s7.4-16.4,16.6-16.4l0,0h0.4
		c0.7,0,1.5-0.3,1.9-0.9c0.5-0.6,0.6-1.4,0.5-2c-0.4-1.4-0.5-2.8-0.5-4.1c0-9,7.4-16.4,16.4-16.4c1.8,0,3.5,0.3,5.1,0.9
		c0.6,0.3,1.3,0.1,1.9-0.1c0.6-0.3,1-0.8,1.1-1.4c3.3-12,14.4-20.4,26.9-20.4s23.6,8.4,27,20.4c0.1,0.6,0.6,1.1,1.1,1.4
		c0.6,0.3,1.3,0.4,1.9,0.1c1.6-0.5,3.4-0.9,5.1-0.9c9,0,16.4,7.4,16.4,16.4c0,1.4-0.1,2.8-0.5,4.1c-0.1,0.8,0,1.5,0.5,2
		c0.5,0.6,1.1,0.9,1.9,0.9h0.5c9,0,16.4,7.4,16.4,16.4s-7.4,16.4-16.4,16.4h-18.8V97h18.8c11.6,0,21.1-9.5,21.1-21.1
		C150,65.1,141.8,56.1,131.1,55.1z"/>
	<rect x="53.9" y="64.4" class="st0" width="23.5" height="4.8"/>
	<path class="st0" d="M44.5,78.4h4.7v4.8h-4.7v23.5h4.7v4.8h-4.7V135h4.7v4.8H54V135h42.3v4.8h4.8V135h4.8v-23.5H101v-4.8h4.8V83.1
		H101v-4.8h4.8V55H44.5V78.4z M100.8,130H49.3v-14.1h51.6L100.8,130L100.8,130z M53.9,111.2v-4.8h42.2v4.8H53.9z M100.8,101.9H49.3
		V87.7h51.6v14.1h-0.1C100.8,101.8,100.8,101.9,100.8,101.9z M53.9,83.1v-4.8h42.2v4.8H53.9z M49.3,59.6h51.6v14.1H49.3V59.6z"/>
	<rect x="91.4" y="64.4" class="st0" width="4.8" height="4.8"/>
	<rect x="91.4" y="92.5" class="st0" width="4.8" height="4.8"/>
	<rect x="91.4" y="120.6" class="st0" width="4.8" height="4.8"/>
	<path class="st0" d="M56.3,43.2h-4.8C51.5,30.4,62,19.7,75,19.7v4.8C64.6,24.5,56.3,32.9,56.3,43.2z"/>
	<rect x="35.1" y="130" class="st0" width="4.7" height="4.8"/>
	<rect x="35.1" y="120.6" class="st0" width="4.7" height="4.8"/>
	<rect x="35.1" y="111.2" class="st0" width="4.7" height="4.8"/>
</g>
<g id="Layer_2">
</g>
<g>
	<g>
		<g>
			<path class="st0" d="M150,122.7c0,11.4-8.7,19.8-18.9,20.3c-5.4,0.2-10.2-1.3-14.2-4.8c-4.5-4-6.8-9.1-6.8-15.1
				c0-5.2,1.7-9.7,5.3-13.6c4.1-4.5,9.3-6.6,15.5-6.5C141,103.2,149.8,111.7,150,122.7z M140,119.9c0-0.2,0-0.4,0-0.6
				c0-0.1,0-0.2,0.1-0.2c0.3-1.6,0.4-3.1-0.2-4.7c-0.7-1.5-1.1-2.9-1.8-4.3c-0.3-0.7-0.7-1.5-1.2-2c-1.3-1.2-3.1-1.2-4.8-1
				c-1,0.1-1.9,0.4-2.9,0.3c-1.2-0.1-2.6-0.3-3.8-0.4c-1.1-0.1-2.2,0.8-2.6,1.8c-0.4,1.3-0.8,2.6-1.1,3.9c-0.3,1.2-0.1,2,1.1,2.7
				s2.6,1.1,3.9,1.6c1,0.3,2,0.6,3,1c0.7,0.2,1.1,0.7,1.1,1.5c0,0.6,0.2,1,0.6,1.5c0.1,0.2,0.2,0.4,0.3,0.7c0,0.1-0.1,0.1-0.1,0.2
				c-0.6,0-1.2,0-1.8-0.1c-3.1-0.9-6.1-2.1-8.7-3.9c-0.3-0.2-0.6-0.6-0.6-0.9c-0.1-0.6-0.1-1.1,0-1.6c0.1-0.4-0.1-0.6-0.4-0.6
				c-1.1,0.1-2.1,0.1-3.2,0.2c-1.2,0.1-2.1,0.7-2.8,1.7c-0.3,0.4-0.4,1-0.1,1.5c0.4,0.7,0.9,1.3,1.3,1.8c1.1,1,2.2,2.1,3.5,3
				c1.5,1,2.9,2,4.5,2.8c1.2,0.7,2.6,1.1,3.8,1.6c1.7,0.7,3.5,1.1,5.3,1.3c0.8,0.1,1.7,0.2,2.5,0.2c1.2,0,2.5,0,3.6-0.1
				c1.5-0.1,2.8-0.9,4.1-1.6c1.7-0.9,2.9-2.1,3.4-4c0.2-1.2,0.2-2.4-0.9-3.1c-1.2-0.8-2.5-1.6-3.9-2
				C141.3,118.8,141,119.6,140,119.9z M111.7,130.2c3.4,7.4,8.9,11.8,16.9,12.3c6.9,0.6,12.7-2.1,17-7.7c-0.6,0-0.9,0-1.3,0
				c-1.1,0-2.4-0.1-3.5-0.1c-0.1,0-0.3,0.2-0.2,0.3c0.1,0.4-0.1,0.7-0.4,0.9c-1.2,0.6-2.5,1.3-3.5,2.4c-0.3,0.3-0.8,0.6-1.1,0.7
				c-0.2,0.1-0.4,0-0.7-0.1c0-0.2,0-0.4,0.1-0.7c0.9-1.2,1.8-2.4,2.7-3.6c0.1-0.2,0.3-0.3,0.3-0.6c0.2-1.1,0.6-2.4,0.8-3.5
				c0.1-0.2,0-0.4-0.3-0.4c-0.2,0-0.3,0-0.6,0c-0.4,0-0.9,0-1.3,0c-0.9,0-1.8-0.3-2.7,0.1c-0.2,0.1-0.4,0-0.7,0
				c-0.4-0.1-1-0.2-1.5-0.2c-1.1,0-2.2,0.1-3.4,0.1c-0.6,0-1.2-0.2-1.7-0.6c-0.8-0.7-1.5-1.5-2.2-2.2c-0.2-0.3-0.6-0.3-0.9-0.2
				c-0.6,0.2-0.9,0-1.2-0.4c-0.4-0.6-1-1.1-1.6-1.7c-0.3-0.3-0.8-0.4-1.2-0.2c-0.6,0.2-1.1,0.6-1.1,1.2c0,0.7,0.2,1.2,0.6,1.8
				s0.9,1.2,1.6,1.7c0.1,0.1,0.2,0.4,0.1,0.7c-0.1,0.2-0.3,0.3-0.6,0.4c-0.6,0.1-1,0-1.5-0.4s-0.9-0.9-1.5-1.3
				c-0.2-0.2-0.4-0.3-0.8-0.3c-0.8,0-1.7,0-2.5,0c-0.7,0-1.3,0-2.1,0C111,128.5,111.1,128.9,111.7,130.2z"/>
			<path class="st0" d="M124.2,110.3c0.3,0.2,0.7,0.3,0.9,0.6c0.6,0.6,1.3,0.6,2,0.4c0.9-0.2,1.7,0.1,2.5,0.3c0.1,0,0.2,0.2,0.2,0.2
				c0,0.1-0.1,0.3-0.2,0.3c-0.4,0.1-0.8,0.2-1.2,0.3c-0.6,0.1-1.2,0.1-1.8,0.2c-0.2,0-0.4,0.1-0.6,0.2c-0.8,0.7-1.3,0-1.9-0.3
				s-0.7-1-0.6-1.7C123.7,110.7,124,110.5,124.2,110.3z"/>
			<path class="st0" d="M132.3,108.3c0.7-0.3,1.3-0.3,2-0.3c0.3,0,0.6,0.1,0.9,0.2c0.4,0.2,0.7,0.4,0.7,1c0,0.4-0.3,0.7-0.7,0.7
				c-0.6,0.1-1.1,0.1-1.6,0.1c-0.1,0-0.2-0.1-0.3-0.2c0.3-0.2,0.6-0.4,0.9-0.8C133.8,108.4,133,108.5,132.3,108.3z"/>
			<path class="st0" d="M133.1,134.1c-0.6-0.2-1.1-0.3-1.6-0.6h-0.1c-0.3,0-0.7,0-0.6-0.4s0.6-0.7,1-0.6c0.2,0.1,0.6,0.2,0.8,0.3
				c0.4,0.2,0.8,0.3,1.1-0.1c0.1-0.1,0.6-0.1,0.6-0.1c0.1,0.2,0.2,0.6,0.2,0.8C134.1,134,133.6,134.1,133.1,134.1z"/>
		</g>
	</g>
</g>
</svg>
