<?xml version="1.0" encoding="utf-8"?>
<!-- Generator: Adobe Illustrator 21.0.2, SVG Export Plug-In . SVG Version: 6.00 Build 0)  -->
<svg version="1.1" id="Layer_1" xmlns="http://www.w3.org/2000/svg" xmlns:xlink="http://www.w3.org/1999/xlink" x="0px" y="0px"
	 viewBox="0 0 150 150" style="enable-background:new 0 0 150 150;" xml:space="preserve">
<style type="text/css">
	.st0{fill:#D8427D;}
</style>
<g>
	<g>
		<g>
			<path class="st0" d="M49.6,37.5v33.9H52V49.6h58.1v36.3H83.5v2.4h29V37.5H49.6z M110.1,47.2H52v-7.3h58.1V47.2z"/>
			<rect x="54.4" y="42.3" class="st0" width="2.4" height="2.4"/>
			<rect x="59.3" y="42.3" class="st0" width="2.4" height="2.4"/>
			<rect x="64.1" y="42.3" class="st0" width="2.4" height="2.4"/>
			<path class="st0" d="M75.9,83.5h4V52H54.4V69v1.2v3.1c-1.4,0.4-2.8,1-4.1,1.7l-3-3l-6.8,6.8l3,3c-0.7,1.3-1.3,2.7-1.7,4.1h-4.3
				v9.7h4.3c0.4,1.4,1,2.8,1.7,4.1l-3,3l6.8,6.8l3-3c1.3,0.7,2.7,1.3,4.1,1.7v4.3h9.7v-4.3c1.4-0.4,2.8-1,4.1-1.7l3,3l6.8-6.8l-3-3
				c0.7-1.3,1.3-2.7,1.7-4.1H81v-9.7h-4.3C76.5,85.1,76.2,84.3,75.9,83.5z M77.4,81h-1.6l1.6-1.6V81z M56.9,54.4h20.6v23.6l-6.2-6.2
				l-3,3c-1.3-0.7-2.7-1.3-4.1-1.7V69h-7.3V54.4z M78.6,93.1h-3.8l-0.2,1c-0.4,1.8-1.1,3.5-2.1,5.1L72,100l2.7,2.7l-3.4,3.4
				l-2.7-2.7l-0.8,0.5c-1.6,1-3.3,1.7-5.1,2.1l-1,0.2v3.8h-4.8v-3.8l-1-0.2c-1.8-0.4-3.5-1.1-5.1-2.1l-0.8-0.5l-2.7,2.7l-3.4-3.4
				l2.7-2.7L46,99.2c-1-1.6-1.7-3.3-2.1-5.1l-0.2-1h-3.8v-4.8h3.8l0.2-1c0.4-1.8,1.1-3.5,2.1-5.1l0.5-0.8l-2.7-2.7l3.4-3.4L50,78
				l0.8-0.5c1.6-1,3.3-1.7,5.1-2.1l1-0.2v-3.8h4.8v3.8l1,0.2c1.8,0.4,3.5,1.1,5.1,2.1l0.8,0.5l2.7-2.7l3.4,3.4L72,81.4l0.5,0.8
				c1,1.6,1.7,3.3,2.1,5.1l0.2,1h3.8V93.1z"/>
			<path class="st0" d="M59.3,81c-5.3,0-9.7,4.3-9.7,9.7s4.3,9.7,9.7,9.7s9.7-4.3,9.7-9.7S64.6,81,59.3,81z M59.3,98
				c-4,0-7.3-3.3-7.3-7.3s3.3-7.3,7.3-7.3s7.3,3.3,7.3,7.3S63.3,98,59.3,98z"/>
			<path class="st0" d="M107.7,52H82.3v31.5h25.4V52z M105.2,81H84.7V54.4h20.6V81z"/>
			<rect x="59.3" y="56.9" class="st0" width="15.7" height="2.4"/>
			<rect x="59.3" y="61.7" class="st0" width="15.7" height="2.4"/>
			<rect x="66.5" y="66.5" class="st0" width="8.5" height="2.4"/>
			<rect x="87.1" y="56.9" class="st0" width="15.7" height="2.4"/>
			<rect x="87.1" y="61.7" class="st0" width="15.7" height="2.4"/>
			<rect x="87.1" y="66.5" class="st0" width="15.7" height="2.4"/>
			<rect x="87.1" y="71.4" class="st0" width="15.7" height="2.4"/>
			<rect x="100.4" y="76.2" class="st0" width="2.4" height="2.4"/>
			<rect x="87.1" y="76.2" class="st0" width="10.9" height="2.4"/>
		</g>
	</g>
</g>
</svg>
