<?xml version="1.0" encoding="utf-8"?>
<!-- Generator: Adobe Illustrator 21.0.2, SVG Export Plug-In . SVG Version: 6.00 Build 0)  -->
<svg version="1.1" id="Layer_1" xmlns="http://www.w3.org/2000/svg" xmlns:xlink="http://www.w3.org/1999/xlink" x="0px" y="0px"
	 viewBox="0 0 150 126.6" style="enable-background:new 0 0 150 126.6;" xml:space="preserve">
<style type="text/css">
	.st0{fill:#703081;}
	.st1{fill:#F2BA59;}
</style>
<g>
	<path class="st0" d="M138,0H11.8C5.4,0,0,5.2,0,11.8v103.1c0,6.4,5.2,11.8,11.8,11.8h126.4c6.4,0,11.8-5.2,11.8-11.8V11.6
		C149.8,5.2,144.6,0,138,0z M145.2,114.6c0,3.8-3.2,7-7,7H11.8c-3.8,0-7-3.2-7-7v-103c0-3.8,3.2-7,7-7h126.4c3.8,0,7,3.2,7,7V114.6z
		"/>
</g>
<g>
	<g transform="translate(-960.000000, -469.000000)">
		<g transform="translate(960.000000, 469.000000)">
			<path class="st0" d="M53.3,96.6c-4.6,0-8.3,3.7-8.3,8.3c0,4.6,3.7,8.3,8.3,8.3H120c0.9,0,1.7-0.7,1.7-1.7V98.3
				c0-0.9-0.7-1.7-1.7-1.7H53.3z M118.3,110h-65c-2.8,0-5-2.2-5-5s2.2-5,5-5h65V110z"/>
			<path class="st1" d="M55,106.6h58.3c0.9,0,1.7-0.7,1.7-1.7s-0.7-1.7-1.7-1.7H55c-0.9,0-1.7,0.7-1.7,1.7S54.1,106.6,55,106.6z"/>
			<path class="st0" d="M90.3,52.1l-3.6-0.7c-4.2-0.8-6.1-5.7-3.6-9.1l2.3-3.1c0.5-0.7,0.4-1.6-0.2-2.2l-4.9-4.9
				c-0.6-0.6-1.5-0.6-2.1-0.2l-3,2.1c-3.5,2.4-8.3,0.3-8.9-3.9l-0.6-3.8C65.6,25.6,64.9,25,64,25h-6.9c-0.8,0-1.5,0.6-1.6,1.4
				L54.6,31c-0.8,4.1-5.5,6-8.9,3.7L41.8,32c-0.7-0.4-1.5-0.4-2.1,0.2l-4.9,4.9c-0.6,0.6-0.7,1.5-0.2,2.2l2.3,3.1
				c2.5,3.4,0.6,8.3-3.6,9.1l-3.6,0.7c-0.8,0.2-1.4,0.8-1.4,1.6v6.9c0,0.8,0.6,1.5,1.4,1.6l3.8,0.6c4.2,0.6,6.3,5.4,3.9,8.9l-2.1,3
				c-0.4,0.7-0.4,1.5,0.2,2.1l4.9,4.9c0.6,0.6,1.5,0.7,2.2,0.2l3.1-2.3c3.4-2.5,8.3-0.6,9.1,3.6l0.7,3.6c0.2,0.8,0.8,1.4,1.6,1.4H64
				c0.8,0,1.5-0.6,1.6-1.4l0.4-2.7c0.7-4.3,5.6-6.3,9.1-3.8l2.2,1.6c0.7,0.5,1.6,0.4,2.2-0.2l4.9-4.9c0.6-0.6,0.6-1.5,0.2-2.1
				l-2.1-3c-2.4-3.5-0.3-8.3,3.9-8.9l3.8-0.6c0.8-0.1,1.4-0.8,1.4-1.6v-6.9C91.7,52.9,91.1,52.3,90.3,52.1z M88.3,59.2L86,59.6
				c-6.6,1-9.9,8.6-6.1,14.1l1.3,1.9l-2.9,2.9l-1-0.7c-5.5-4-13.3-0.8-14.4,6L62.6,85h-4.1l-0.4-2.3c-1.3-6.6-8.9-9.6-14.3-5.6
				l-1.9,1.4l-2.9-2.9l1.3-1.9c3.7-5.5,0.5-13.1-6.1-14.1l-2.4-0.4v-4.1l2.3-0.4c6.6-1.3,9.6-8.9,5.6-14.3l-1.4-1.9l2.9-2.9l2.8,1.9
				c5.4,3.7,12.8,0.6,14-5.8l0.6-3.3h4.1l0.4,2.4c1,6.6,8.6,9.9,14.1,6.1l1.9-1.3l2.9,2.9l-1.4,1.9c-3.9,5.4-0.9,13,5.6,14.3
				l2.3,0.4V59.2z"/>
			<path class="st1" d="M68.3,56.6c0,4.6-3.7,8.3-8.3,8.3s-8.3-3.7-8.3-8.3s3.7-8.3,8.3-8.3S68.3,52,68.3,56.6z M71.7,56.6
				C71.7,50.2,66.4,45,60,45s-11.7,5.2-11.7,11.7S53.6,68.3,60,68.3S71.7,63.1,71.7,56.6z"/>
			<path class="st1" d="M58.5,28.3h4.8c0.9,0,1.7-0.7,1.7-1.7V15c0-0.9-0.7-1.7-1.7-1.7h-10c-4.6,0-8.3,3.7-8.3,8.3V37
				c0,0.7,0.5,1.4,1.2,1.6c5.1,1.6,10.7-1.5,11.7-6.9L58.5,28.3z M48.3,21.6c0-2.8,2.2-5,5-5h8.3V25h-4.6c-0.8,0-1.5,0.6-1.6,1.4
				L54.6,31c-0.6,3-3.4,4.9-6.2,4.6V21.6z"/>
			<path class="st1" d="M58.1,82.7c-1.1-5.5-6.8-8.7-11.9-6.9c-0.7,0.2-1.1,0.9-1.1,1.6V105h3.3c0-2.8,2.2-5,5-5h10
				c0.9,0,1.7-0.7,1.7-1.7V86.6c0-0.9-0.7-1.7-1.7-1.7h-4.8L58.1,82.7z M45,105c0,2.2,3.3,2.2,3.3,0v-6.7C46.3,99.8,45,102.2,45,105
				z M61.7,96.6h-8.3c-1.9,0-3.6,0.6-5,1.7V78.7c2.9-0.4,5.9,1.5,6.4,4.6l0.7,3.6c0.2,0.8,0.8,1.4,1.6,1.4h4.6V96.6z"/>
			<path class="st0" d="M62.6,28.3l0.4,2.4c1,6.6,8.6,9.9,14.1,6.1l1.9-1.3l2.9,2.9l-1.4,1.9c-3.9,5.4-0.9,13,5.6,14.3l2.3,0.4v4.1
				L86,59.6c-6.6,1-9.9,8.6-6.1,14.1l1.3,1.9l-2.9,2.9l-1-0.7c-5.5-4-13.3-0.8-14.4,6L62.6,85h-4.1l-0.4-2.3
				c-1.1-5.5-6.8-8.7-11.9-6.9c-0.7,0.2-1.1,0.9-1.1,1.6V105h3.3c0-2.8,2.2-5,5-5H120c0.9,0,1.7-0.7,1.7-1.7V15
				c0-0.9-0.7-1.7-1.7-1.7H53.3c-4.6,0-8.3,3.7-8.3,8.3V37c0,0.7,0.5,1.4,1.2,1.6c5.1,1.6,10.7-1.5,11.7-6.9l0.6-3.3H62.6z M45,105
				c0,2.2,3.3,2.2,3.3,0v-6.7C46.3,99.8,45,102.2,45,105z M118.3,96.6h-65c-1.9,0-3.6,0.6-5,1.7V78.7c2.9-0.4,5.9,1.5,6.5,4.6
				l0.7,3.6c0.2,0.8,0.8,1.4,1.6,1.4H64c0.8,0,1.5-0.6,1.6-1.4l0.4-2.7c0.7-4.3,5.6-6.3,9.1-3.8l2.2,1.6c0.7,0.5,1.6,0.4,2.2-0.2
				l4.9-4.9c0.6-0.6,0.6-1.5,0.2-2.1l-2.1-3c-2.4-3.5-0.3-8.3,3.9-8.9l3.8-0.6c0.8-0.1,1.4-0.8,1.4-1.6v-6.9c0-0.8-0.6-1.5-1.4-1.6
				l-3.6-0.7c-4.2-0.8-6.1-5.7-3.6-9.1l2.3-3.1c0.5-0.7,0.4-1.6-0.2-2.2l-4.9-4.9c-0.6-0.6-1.5-0.6-2.1-0.2l-3,2.1
				c-3.5,2.4-8.3,0.3-8.9-3.9l-0.6-3.8C65.6,25.6,64.9,25,64,25h-6.9c-0.8,0-1.5,0.6-1.6,1.4L54.6,31c-0.6,3-3.4,4.9-6.2,4.6v-14
				c0-2.8,2.2-5,5-5h65V96.6z"/>
		</g>
	</g>
</g>
</svg>
