<svg id="Layer_1" xmlns="http://www.w3.org/2000/svg" viewBox="0 0 50 50"><g fill="#F4F4F5"><path d="M37.6 25.6v-6.8c0-5.2-3.5-8.7-6.5-10-.9-.4-1.8-.7-2.7-.9v-.5c0-2.1-1.7-3.8-3.8-3.8s-3.8 1.7-3.8 3.8v.5c-.8.2-1.6.5-2.4.9-3.3 1.5-6.7 5.2-6.7 10v6.8c0 4.9-1.7 9-5.1 12.4-.2.2-.3.5-.2.8.1.3.3.5.6.5l7.2 1.2c1.3.2 2.6.4 3.8.6 1.3 2.6 3.9 4.3 6.8 4.3 2.8 0 5.5-1.7 6.8-4.3 1.2-.2 2.4-.3 3.7-.6l7.2-1.2c.3 0 .5-.2.6-.5.1-.3 0-.6-.2-.8-3.5-3.5-5.3-7.7-5.3-12.4zM22.4 7.4c0-1.3 1-2.3 2.3-2.3s2.3 1 2.3 2.3v.1c-1.5-.2-3.1-.2-4.6 0v-.1zm2.4 36.5c-1.9 0-3.7-1-4.9-2.5 1.7.2 3.3.3 4.9.3 1.6 0 3.2-.1 4.9-.3-1.1 1.5-2.9 2.5-4.9 2.5zm10.3-4.8c-1.5.3-2.8.5-4.1.6-.6.1-1.1.1-1.6.2-.5 0-1 .1-1.4.1h-.3c-.4 0-.8 0-1.2.1h-3.3c-.4 0-.8 0-1.2-.1h-.3c-.5 0-.9-.1-1.4-.1h-.1c-.5-.1-1.1-.1-1.6-.2-1.3-.2-2.6-.4-4.1-.6l-5.8-1c3-3.5 4.6-7.6 4.6-12.4v-6.8c0-4.1 3-7.3 5.8-8.7.9-.4 1.8-.7 2.7-.9 1.9-.4 3.9-.4 5.8-.1 1 .2 2 .5 2.9.9 2.8 1.3 5.6 4.5 5.6 8.7v6.8c0 4.6 1.7 8.8 4.8 12.4l-5.8 1.1z"/><path d="M29.6 12.2c-2.9-1.3-6.6-1.3-9.5 0-1.7.8-4.5 3-4.5 6.6 0 .4.3.8.8.8.4 0 .8-.3.8-.8 0-2.8 2.3-4.6 3.6-5.2 2.5-1.2 5.7-1.2 8.2 0 .4.2.8 0 1-.4.1-.4 0-.8-.4-1zM5.5 19c-.3-.3-.8-.3-1.1 0-1.7 1.7-2.6 3.9-2.6 6.2 0 2.4.9 4.6 2.6 6.2.1.1.3.2.5.2s.4-.1.5-.2c.3-.3.3-.8 0-1.1-1.4-1.4-2.1-3.2-2.1-5.1s.8-3.8 2.1-5.1c.4-.3.4-.8.1-1.1z"/><path d="M8.2 30c.2 0 .4-.1.5-.2.3-.4.3-.8 0-1.1-1.9-1.9-1.9-5.1 0-7 .3-.3.3-.8 0-1.1s-.8-.3-1.1 0c-2.5 2.5-2.5 6.7 0 9.2.2.1.4.2.6.2zM44.9 19c-.3-.3-.8-.3-1.1 0-.3.3-.3.8 0 1.1 1.4 1.4 2.1 3.2 2.1 5.1s-.8 3.8-2.1 5.1c-.3.3-.3.8 0 1.1.1.1.3.2.5.2s.4-.1.5-.2c1.7-1.7 2.6-3.9 2.6-6.2s-.8-4.5-2.5-6.2z"/><path d="M40.6 20.5c-.3.3-.3.8 0 1.1 1.9 1.9 1.9 5.1 0 7-.3.3-.3.8 0 1.1.1.1.3.2.5.2s.4-.1.5-.2c2.5-2.5 2.5-6.7 0-9.2-.2-.3-.7-.3-1 0z"/></g></svg>