<?xml version="1.0" encoding="utf-8"?>
<!-- Generator: Adobe Illustrator 20.1.0, SVG Export Plug-In . SVG Version: 6.00 Build 0)  -->
<svg version="1.1" id="Layer_1" xmlns="http://www.w3.org/2000/svg" xmlns:xlink="http://www.w3.org/1999/xlink" x="0px" y="0px"
	 viewBox="0 0 50 50" enable-background="new 0 0 50 50" xml:space="preserve">
<g>
	<g>
		<path fill="#6E3B73" d="M12.2,2H5C3.4,2,2,3.4,2,5v7.2c0,1.7,1.4,3,3,3h7.2c1.7,0,3-1.4,3-3V5C15.2,3.4,13.9,2,12.2,2z M12.9,12.2
			c0,0.4-0.3,0.7-0.7,0.7H5c-0.4,0-0.7-0.3-0.7-0.7V5c0-0.4,0.3-0.7,0.7-0.7h7.2c0.4,0,0.7,0.3,0.7,0.7L12.9,12.2z"/>
		<path fill="#6E3B73" d="M2,28.6c0,1.7,1.4,3,3,3h7.2c1.7,0,3-1.4,3-3v-7.2c0-1.7-1.4-3-3-3H5c-1.7,0-3,1.4-3,3L2,28.6L2,28.6z
			 M4.3,21.4c0-0.4,0.3-0.7,0.7-0.7h7.2c0.4,0,0.7,0.3,0.7,0.7v7.2c0,0.4-0.3,0.7-0.7,0.7H5c-0.4,0-0.7-0.3-0.7-0.7L4.3,21.4
			L4.3,21.4z"/>
		<path fill="#6E3B73" d="M2,45c0,1.7,1.4,3,3,3h7.2c1.7,0,3-1.4,3-3v-7.2c0-1.7-1.4-3-3-3H5c-1.7,0-3,1.4-3,3L2,45L2,45z M4.3,37.8
			C4.3,37.4,4.6,37,5,37h7.2c0.4,0,0.7,0.3,0.7,0.7V45c0,0.4-0.3,0.7-0.7,0.7H5c-0.4,0-0.7-0.3-0.7-0.7L4.3,37.8L4.3,37.8L4.3,37.8z
			"/>
		<path fill="#6E3B73" d="M21,9.8h25.9c0.6,0,1.2-0.5,1.2-1.2c0-0.6-0.5-1.2-1.2-1.2H21c-0.6,0-1.2,0.5-1.2,1.2S20.4,9.8,21,9.8z"/>
		<path fill="#6E3B73" d="M21,26.2h25.9c0.6,0,1.2-0.5,1.2-1.2s-0.5-1.2-1.2-1.2H21c-0.6,0-1.2,0.5-1.2,1.2S20.4,26.2,21,26.2z"/>
		<path fill="#6E3B73" d="M21,42.5h25.9c0.6,0,1.2-0.5,1.2-1.2c0-0.6-0.5-1.2-1.2-1.2H21c-0.6,0-1.2,0.5-1.2,1.2
			C19.8,42,20.4,42.5,21,42.5z"/>
	</g>
</g>
</svg>
