<?xml version="1.0" encoding="utf-8"?>
<!-- Generator: Adobe Illustrator 20.1.0, SVG Export Plug-In . SVG Version: 6.00 Build 0)  -->
<svg version="1.1" id="Layer_1" xmlns="http://www.w3.org/2000/svg" xmlns:xlink="http://www.w3.org/1999/xlink" x="0px" y="0px"
	 viewBox="0 0 50 50" enable-background="new 0 0 50 50" xml:space="preserve">
<g>
	<g>
		<path fill="#F4F4F5" d="M11.9,1.4H4.5c-1.7,0-3.1,1.4-3.1,3.1v7.4c0,1.7,1.4,3.1,3.1,3.1h7.4c1.7,0,3.1-1.4,3.1-3.1V4.5
			C15,2.8,13.6,1.4,11.9,1.4z M12.6,11.9c0,0.4-0.3,0.7-0.7,0.7H4.5c-0.4,0-0.7-0.3-0.7-0.7V4.5c0-0.4,0.3-0.7,0.7-0.7h7.4
			c0.4,0,0.7,0.3,0.7,0.7L12.6,11.9z"/>
		<path fill="#F4F4F5" d="M1.3,28.7c0,1.7,1.4,3.1,3.1,3.1h7.4c1.7,0,3.1-1.4,3.1-3.1v-7.4c0-1.7-1.4-3.1-3.1-3.1H4.5
			c-1.7,0-3.1,1.4-3.1,3.1L1.3,28.7L1.3,28.7z M3.7,21.3c0-0.4,0.3-0.7,0.7-0.7h7.4c0.4,0,0.7,0.3,0.7,0.7v7.4
			c0,0.4-0.3,0.7-0.7,0.7H4.5c-0.4,0-0.7-0.3-0.7-0.7L3.7,21.3L3.7,21.3z"/>
		<path fill="#F4F4F5" d="M1.3,45.5c0,1.7,1.4,3.1,3.1,3.1h7.4c1.7,0,3.1-1.4,3.1-3.1v-7.4c0-1.7-1.4-3.1-3.1-3.1H4.5
			c-1.7,0-3.1,1.4-3.1,3.1L1.3,45.5L1.3,45.5z M3.7,38.1c0-0.4,0.3-0.7,0.7-0.7h7.4c0.4,0,0.7,0.3,0.7,0.7v7.4
			c0,0.4-0.3,0.7-0.7,0.7H4.5c-0.4,0-0.7-0.3-0.7-0.7L3.7,38.1L3.7,38.1L3.7,38.1z"/>
		<path fill="#F4F4F5" d="M20.9,9.4h26.6c0.7,0,1.2-0.5,1.2-1.2S48.1,7,47.5,7H20.9c-0.7,0-1.2,0.5-1.2,1.2
			C19.7,8.8,20.2,9.4,20.9,9.4z"/>
		<path fill="#F4F4F5" d="M20.9,26.2h26.6c0.7,0,1.2-0.5,1.2-1.2c0-0.7-0.5-1.2-1.2-1.2H20.9c-0.7,0-1.2,0.5-1.2,1.2
			C19.7,25.7,20.2,26.2,20.9,26.2z"/>
		<path fill="#F4F4F5" d="M20.9,43h26.6c0.7,0,1.2-0.5,1.2-1.2c0-0.7-0.5-1.2-1.2-1.2H20.9c-0.7,0-1.2,0.5-1.2,1.2
			C19.7,42.5,20.2,43,20.9,43z"/>
	</g>
</g>
</svg>
