<?xml version="1.0" encoding="utf-8"?>
<!-- Generator: Adobe Illustrator 21.0.2, SVG Export Plug-In . SVG Version: 6.00 Build 0)  -->
<svg version="1.1" id="Layer_1" xmlns="http://www.w3.org/2000/svg" xmlns:xlink="http://www.w3.org/1999/xlink" x="0px" y="0px"
	 viewBox="0 0 140 111.6" style="enable-background:new 0 0 140 111.6;" xml:space="preserve">
<style type="text/css">
	.st0{fill:#703081;}
	.st1{fill:#DF6B90;}
	.st2{fill:#FFFFFF;}
</style>
<g id="Layer_1_copy">
</g>
<g id="Layer_1_1_">
	<g>
		<path class="st0" d="M96.3,37.4H21.9c-4.5,0-8.1,3.4-8.1,7.5v46.4c0,4.1,3.6,7.5,8.1,7.5h74.4c4.5,0,8.1-3.4,8.1-7.5V44.9
			C104.4,40.7,100.8,37.4,96.3,37.4z M96.3,42.2c0.2,0,0.4,0,0.6,0.2L59.1,71L20.6,42.6c0.3-0.2,0.9-0.4,1.3-0.4H96.3z M96.3,93.9
			H21.9c-1.7,0-3-1.1-3-2.6V47.5l40.2,29.7l40.2-30.5v44.5C99.3,92.8,98,93.9,96.3,93.9z"/>
		
			<rect x="31.9" y="11.2" transform="matrix(0.7071 -0.7071 0.7071 0.7071 4.5133 38.3021)" class="st1" width="33.1" height="5.1"/>
		
			<rect x="109.9" y="11" transform="matrix(0.7071 -0.7071 0.7071 0.7071 27.4994 93.4007)" class="st1" width="33.1" height="5.1"/>
		<rect x="70" y="11" transform="matrix(0.7071 -0.7071 0.7071 0.7071 15.8069 65.1726)" class="st0" width="33.1" height="5.1"/>
		
			<rect x="109.8" y="73.1" transform="matrix(0.7071 -0.7071 0.7071 0.7071 -16.4838 111.5148)" class="st1" width="33.1" height="5.1"/>
		
			<rect x="109.9" y="43.1" transform="matrix(0.7071 -0.7071 0.7071 0.7071 4.7832 102.7833)" class="st0" width="33.1" height="5.1"/>
	</g>
</g>
<g>
	<g>
		<g>
			<g>
				<g>
					<g>
						<g>
							<g>
								<g>
									<path class="st1" d="M40,91.6c0,11-9,20-20,20s-20-9-20-20c0-11,9-20,20-20C31.1,71.6,40,80.6,40,91.6z"/>
								</g>
							</g>
						</g>
					</g>
				</g>
			</g>
		</g>
	</g>
	<path class="st2" d="M32.6,89.3H22V78.8c0-1.2-1-2.2-2.2-2.2s-2,1.2-2,2.3v10.6H7.3c-1.2,0-2.2,1-2.2,2.2s1,2.2,2.2,2.2h10.6v10.6
		c0,1.2,1,2.2,2.2,2.2c1.2,0,2.2-0.8,2.2-2.2V93.9h10.6c1.2,0,2.2-0.8,2.2-2.2C34.6,90.3,33.6,89.3,32.6,89.3z"/>
</g>
</svg>
