<svg id="Layer_1" xmlns="http://www.w3.org/2000/svg" viewBox="0 0 50 50"><g fill="#6E3B73"><path d="M12.2 2H5C3.4 2 2 3.4 2 5v7.2c0 1.7 1.4 3 3 3h7.2c1.7 0 3-1.4 3-3V5c0-1.6-1.3-3-3-3zm.7 10.2c0 .4-.3.7-.7.7H5c-.4 0-.7-.3-.7-.7V5c0-.4.3-.7.7-.7h7.2c.4 0 .7.3.7.7v7.2zM2 28.6c0 1.7 1.4 3 3 3h7.2c1.7 0 3-1.4 3-3v-7.2c0-1.7-1.4-3-3-3H5c-1.7 0-3 1.4-3 3v7.2zm2.3-7.2c0-.4.3-.7.7-.7h7.2c.4 0 .7.3.7.7v7.2c0 .4-.3.7-.7.7H5c-.4 0-.7-.3-.7-.7v-7.2zM2 45c0 1.7 1.4 3 3 3h7.2c1.7 0 3-1.4 3-3v-7.2c0-1.7-1.4-3-3-3H5c-1.7 0-3 1.4-3 3V45zm2.3-7.2c0-.4.3-.8.7-.8h7.2c.4 0 .7.3.7.7V45c0 .4-.3.7-.7.7H5c-.4 0-.7-.3-.7-.7v-7.2zM21 9.8h25.9c.6 0 1.2-.5 1.2-1.2 0-.6-.5-1.2-1.2-1.2H21c-.6 0-1.2.5-1.2 1.2s.6 1.2 1.2 1.2zM21 26.2h25.9c.6 0 1.2-.5 1.2-1.2s-.5-1.2-1.2-1.2H21c-.6 0-1.2.5-1.2 1.2s.6 1.2 1.2 1.2zM21 42.5h25.9c.6 0 1.2-.5 1.2-1.2 0-.6-.5-1.2-1.2-1.2H21c-.6 0-1.2.5-1.2 1.2s.6 1.2 1.2 1.2z"/></g></svg>