<?xml version="1.0" encoding="utf-8"?>
<!-- Generator: Adobe Illustrator 21.0.2, SVG Export Plug-In . SVG Version: 6.00 Build 0)  -->
<svg version="1.1" id="Layer_1" xmlns="http://www.w3.org/2000/svg" xmlns:xlink="http://www.w3.org/1999/xlink" x="0px" y="0px"
	 viewBox="0 0 140 111.6" style="enable-background:new 0 0 140 111.6;" xml:space="preserve">
<style type="text/css">
	.st0{fill:#703081;}
	.st1{fill:#DF6B90;}
	.st2{fill:#FFFFFF;}
</style>
<g id="Layer_1_copy">
</g>
<g id="Layer_1_1_">
	<g>
		<path class="st0" d="M96.3,37.4H21.9c-4.5,0-8.1,3.4-8.1,7.5v46.4c0,4.1,3.6,7.5,8.1,7.5h74.4c4.5,0,8.1-3.4,8.1-7.5V44.9
			C104.4,40.7,100.8,37.4,96.3,37.4z M96.3,42.2c0.2,0,0.4,0,0.6,0.2L59.1,71L20.6,42.6c0.3-0.2,0.9-0.4,1.3-0.4H96.3z M96.3,93.9
			H21.9c-1.7,0-3-1.1-3-2.6V47.5l40.2,29.7l40.2-30.5v44.5C99.3,92.8,98,93.9,96.3,93.9z"/>
		
			<rect x="31.9" y="11.2" transform="matrix(0.7071 -0.7071 0.7071 0.7071 4.5133 38.3021)" class="st1" width="33.1" height="5.1"/>
		
			<rect x="109.9" y="11" transform="matrix(0.7071 -0.7071 0.7071 0.7071 27.4994 93.4007)" class="st1" width="33.1" height="5.1"/>
		<rect x="70" y="11" transform="matrix(0.7071 -0.7071 0.7071 0.7071 15.8069 65.1726)" class="st0" width="33.1" height="5.1"/>
		
			<rect x="109.8" y="73.1" transform="matrix(0.7071 -0.7071 0.7071 0.7071 -16.4838 111.5148)" class="st1" width="33.1" height="5.1"/>
		
			<rect x="109.9" y="43.1" transform="matrix(0.7071 -0.7071 0.7071 0.7071 4.7832 102.7833)" class="st0" width="33.1" height="5.1"/>
	</g>
</g>
<g>
	<g>
		<g>
			<g>
				<g>
					<g>
						<g>
							<g>
								<g>
									<g>
										<path class="st1" d="M40,91.6c0,11-9,20-20,20s-20-9-20-20c0-11,9-20,20-20C31.1,71.6,40,80.6,40,91.6z"/>
									</g>
								</g>
							</g>
						</g>
					</g>
				</g>
			</g>
		</g>
	</g>
	<g transform="translate(0,-952.36218)">
		<path class="st2" d="M13.3,1033.1c-2.8,0-5,2.2-5,5c0,1.6,0.8,3,1.9,3.9c-3.1,1.2-5.3,4.2-5.3,7.7c0,0.5,0.4,0.8,0.8,0.8h6.5
			c-0.5,1-0.7,2.1-0.7,3.3c0,0.5,0.4,0.8,0.8,0.8h15c0.5,0,0.8-0.4,0.8-0.8c0-1.2-0.3-2.3-0.7-3.3h6.5c0.5,0,0.8-0.4,0.8-0.8
			c0-3.5-2.2-6.5-5.3-7.7c1.2-0.9,1.9-2.3,1.9-3.9c0-2.8-2.2-5-5-5c-2.6,0-4.7,2-5,4.5c-0.5-0.2-1.1-0.3-1.7-0.3s-1.2,0.1-1.7,0.3
			C18,1035.1,15.9,1033.1,13.3,1033.1z M13.3,1034.8c1.9,0,3.3,1.5,3.3,3.3v0.4c0,0,0,0,0,0c-0.7,0.7-1.3,1.5-1.5,2.5
			c0,0-0.1,0-0.1,0c-0.3,0.1-1.3,0.4-1.7,0.4c-1.9,0-3.3-1.5-3.3-3.3C10,1036.3,11.5,1034.8,13.3,1034.8z M26.7,1034.8
			c1.9,0,3.3,1.5,3.3,3.3c0,1.9-1.5,3.3-3.3,3.3c-0.4,0-1.4-0.2-1.7-0.4c0,0-0.1,0-0.1,0c-0.2-1-0.8-1.8-1.5-2.5c0,0,0,0,0,0v-0.4
			C23.3,1036.3,24.8,1034.8,26.7,1034.8z M20,1039c1.9,0,3.3,1.5,3.3,3.3s-1.5,3.3-3.3,3.3c-1.9,0-3.3-1.5-3.3-3.3
			S18.1,1039,20,1039z M15,1042.9c0.2,1.3,0.9,2.5,1.9,3.3c-1.4,0.6-2.7,1.5-3.6,2.7c0,0,0,0,0,0H6.7c0.4-3.3,3.2-5.8,6.6-5.8
			c0,0,0.1,0,0.1,0c0,0,0.1,0,0.1,0C14,1043.1,14.5,1043,15,1042.9z M25,1042.9c0.5,0.1,1.1,0.2,1.5,0.2c0,0,0,0,0,0
			c0,0,0.1,0,0.1,0c3.4,0,6.2,2.5,6.6,5.8h-6.6c0,0,0,0,0,0c-0.9-1.2-2.1-2.2-3.6-2.7C24.1,1045.4,24.8,1044.2,25,1042.9z
			 M20,1047.3c3.4,0,6.2,2.5,6.6,5.8H13.4C13.8,1049.8,16.6,1047.3,20,1047.3z"/>
	</g>
</g>
</svg>
