<svg id="Layer_1" xmlns="http://www.w3.org/2000/svg" viewBox="0 0 50 50"><g fill="#F4F4F5"><path d="M11.9 1.4H4.5c-1.7 0-3.1 1.4-3.1 3.1v7.4c0 1.7 1.4 3.1 3.1 3.1h7.4c1.7 0 3.1-1.4 3.1-3.1V4.5c0-1.7-1.4-3.1-3.1-3.1zm.7 10.5c0 .4-.3.7-.7.7H4.5c-.4 0-.7-.3-.7-.7V4.5c0-.4.3-.7.7-.7h7.4c.4 0 .7.3.7.7v7.4zM1.3 28.7c0 1.7 1.4 3.1 3.1 3.1h7.4c1.7 0 3.1-1.4 3.1-3.1v-7.4c0-1.7-1.4-3.1-3.1-3.1H4.5c-1.7 0-3.1 1.4-3.1 3.1l-.1 7.4zm2.4-7.4c0-.4.3-.7.7-.7h7.4c.4 0 .7.3.7.7v7.4c0 .4-.3.7-.7.7H4.5c-.4 0-.7-.3-.7-.7l-.1-7.4zM1.3 45.5c0 1.7 1.4 3.1 3.1 3.1h7.4c1.7 0 3.1-1.4 3.1-3.1v-7.4c0-1.7-1.4-3.1-3.1-3.1H4.5c-1.7 0-3.1 1.4-3.1 3.1l-.1 7.4zm2.4-7.4c0-.4.3-.7.7-.7h7.4c.4 0 .7.3.7.7v7.4c0 .4-.3.7-.7.7H4.5c-.4 0-.7-.3-.7-.7l-.1-7.4zM20.9 9.4h26.6c.7 0 1.2-.5 1.2-1.2S48.1 7 47.5 7H20.9c-.7 0-1.2.5-1.2 1.2 0 .6.5 1.2 1.2 1.2zM20.9 26.2h26.6c.7 0 1.2-.5 1.2-1.2s-.5-1.2-1.2-1.2H20.9c-.7 0-1.2.5-1.2 1.2s.5 1.2 1.2 1.2zM20.9 43h26.6c.7 0 1.2-.5 1.2-1.2s-.5-1.2-1.2-1.2H20.9c-.7 0-1.2.5-1.2 1.2s.5 1.2 1.2 1.2z"/></g></svg>