<?xml version="1.0" encoding="utf-8"?>
<!-- Generator: Adobe Illustrator 21.0.2, SVG Export Plug-In . SVG Version: 6.00 Build 0)  -->
<svg version="1.1" id="Layer_1" xmlns="http://www.w3.org/2000/svg" xmlns:xlink="http://www.w3.org/1999/xlink" x="0px" y="0px"
	 viewBox="0 0 150 125" style="enable-background:new 0 0 150 125;" xml:space="preserve">
<style type="text/css">
	.st0{display:none;}
	.st1{display:inline;}
	.st2{fill:#D8427D;}
	.st3{fill:#DF6B90;}
	.st4{fill:#703081;}
</style>
<g id="Layer_1_1_" class="st0">
	<g class="st1">
		<path class="st2" d="M147.8,65.3l-7.3-7.3c-2.9-2.9-7.9-2.9-10.8,0L90.3,97.4l-5.4,19.9l-1.3,1.3c-1,1-1,2.6,0,3.6v0.1l0,0
			c0.5,0.5,1.1,0.7,1.8,0.7s1.3-0.3,1.8-0.8l1.3-1.3l19.9-5.4l39.4-39.4C150.6,73.1,150.6,68.3,147.8,65.3z M96.1,98.7l26.3-26.2
			l10.9,10.9l-26.3,26.2L96.1,98.7z M93.8,103.7l8.2,8.2L90.6,115L93.8,103.7z M144.1,72.5l-7.3,7.3l-10.8-10.9l7.3-7.3
			c1-1,2.6-1,3.6,0l7.3,7.3C145.1,69.9,145.1,71.5,144.1,72.5z"/>
		<path class="st2" d="M0,5.1v97.2c13.4-10.4,43.5-33.8,57.5-46L0,5.1z"/>
		<path class="st2" d="M107.4,69.4l16.8-16.8c2.9-2.9,6.7-4.5,10.8-4.5s7.9,1.6,10.8,4.5l2.7,2.7V5.1L91.1,56.3L107.4,69.4z"/>
		<path class="st2" d="M80.1,59.2l64.2-57.3H4.2l64.2,57.3C71.6,62.1,76.9,62.1,80.1,59.2z"/>
		<path class="st2" d="M103.6,73L87.3,59.8l-3.7,3.3c-2.6,2.2-6,3.4-9.3,3.4s-6.7-1.1-9.3-3.4l-3.6-3.2C47.3,72.2,15.7,96.8,2.5,107
			h0.1h77.1l3.7-13.6L103.6,73z"/>
	</g>
</g>
<g id="Layer_2" class="st0">
	<g class="st1">
		<path class="st2" d="M147.8,87.6l-3.7-0.7c-1.7-0.3-3.1-1.5-3.7-3.1c-0.6-1.6-0.4-3.4,0.6-4.8l2.3-3.1c0.7-1,0.6-2.4-0.3-3.3l-5-5
			c-0.9-0.9-2.2-1-3.2-0.3l-3.1,2.1c-0.8,0.6-1.8,0.9-2.8,0.9c-2.1,0-4.5-1.5-5-4.3l-0.6-3.9c-0.2-1.2-1.3-2.2-2.5-2.2h-7
			c-1.2,0-2.3,0.9-2.5,2.1l-0.9,4.7c-0.5,2.7-2.9,4.1-4.9,4.1c-1,0-2-0.3-2.8-0.9l-4-2.7c-1-0.7-2.4-0.6-3.2,0.3l-5,5
			c-0.9,0.9-1,2.3-0.3,3.3l2.3,3.1c1,1.4,1.3,3.2,0.6,4.8c-0.6,1.6-2,2.8-3.7,3.1l-3.7,0.7c-1.2,0.2-2.1,1.3-2.1,2.5v7
			c0,1.3,0.9,2.3,2.2,2.5l3.9,0.6c1.7,0.3,3.1,1.3,3.8,2.9s0.5,3.4-0.4,4.8l-2.1,3.1c-0.7,1-0.6,2.4,0.3,3.2l5,5
			c0.9,0.9,2.3,1,3.3,0.3l3.1-2.3c0.9-0.6,1.9-1,2.9-1c2.1,0,4.4,1.4,4.9,4.1l0.7,3.7c0.2,1.2,1.3,2.1,2.5,2.1h7
			c1.3,0,2.3-0.9,2.5-2.2l0.4-2.7c0.4-2.8,2.8-4.3,5-4.3c1.1,0,2.1,0.3,2.9,1l2.2,1.6c1,0.7,2.4,0.6,3.3-0.3l5-5
			c0.9-0.9,1-2.2,0.3-3.2l-2.1-3.1c-1-1.5-1.1-3.2-0.4-4.8c0.7-1.6,2.1-2.7,3.8-2.9l3.9-0.6c1.2-0.2,2.2-1.3,2.2-2.5v-7
			C149.9,88.9,149.1,87.8,147.8,87.6z M144.8,94.9l-1.7,0.3c-3.4,0.5-6.3,2.8-7.7,5.9c-1.4,3.2-1.1,6.8,0.9,9.7l0.9,1.4l-2,1.9
			l-0.5-0.3c-1.7-1.3-3.8-2-5.9-2c-5,0-9.2,3.6-10,8.6l-0.1,0.6h-2.8l-0.3-1.6c-0.9-4.7-5.1-8.2-9.9-8.2c-2.1,0-4.2,0.7-5.9,2
			l-1.4,1l-2-2l0.9-1.4c2-2.9,2.3-6.5,0.9-9.7c-1.4-3.2-4.3-5.4-7.7-5.9l-1.7-0.3v-2.8l1.6-0.3c3.4-0.7,6.2-3,7.5-6.2
			s0.8-6.9-1.3-9.7l-1-1.4l2-2l2.3,1.5c1.7,1.1,3.6,1.7,5.6,1.7c4.8,0,9-3.4,9.9-8.2l0.5-2.7h2.8l0.3,1.7c0.8,5,5,8.6,10,8.6
			c2,0,4-0.6,5.6-1.7l1.4-0.9l2,2l-1,1.4c-2.1,2.8-2.5,6.4-1.3,9.7c1.3,3.2,4.1,5.6,7.5,6.2l1.6,0.3L144.8,94.9L144.8,94.9z"/>
		<path class="st2" d="M116.9,80.3c-7,0-12.7,5.7-12.7,12.7s5.7,12.7,12.7,12.7s12.7-5.7,12.7-12.7C129.6,86,123.9,80.3,116.9,80.3z
			 M116.9,100.6c-4.2,0-7.6-3.4-7.6-7.6s3.4-7.6,7.6-7.6s7.6,3.4,7.6,7.6C124.6,97.2,121.1,100.6,116.9,100.6z"/>
		<path class="st2" d="M0,2.1v96.5C13.3,88.3,43.2,65,57,53L0,2.1z"/>
		<path class="st2" d="M95.6,57.1c0.7-0.2,1.5-0.2,2.2,0.3l5.9,4l0.1-0.8l1.2-6.2c0.2-1.2,1.3-2.1,2.5-2.1h19.9
			c1.3,0,2.3,0.9,2.5,2.2l1,6.2l4.9-3.3c1-0.7,2.4-0.6,3.2,0.3l8.3,8.3V2.1l-57,50.8L95.6,57.1z"/>
		<path class="st2" d="M79.6,55.8l63.8-56.9H4.1l63.8,56.8C71.1,58.7,76.3,58.7,79.6,55.8z"/>
		<path class="st2" d="M80.4,75.1c-0.7-1-0.6-2.4,0.3-3.3l11.2-11.3l-5.3-4.2l-3.6,3.3c-2.5,2.3-5.9,3.4-9.2,3.4
			c-3.3,0-6.7-1.1-9.2-3.4L61,56.4C47,68.6,15.5,93,2.5,103.2h0.1h73.7V83.8c0-1.2,0.9-2.3,2.1-2.5l5.8-1.1L80.4,75.1z"/>
	</g>
</g>
<g id="Layer_3" class="st0">
	<g class="st1">
		<path class="st2" d="M149.8,88.2c-0.3-0.9-1.1-1.6-2.1-1.7l-19.8-2.8l-8.8-17.2c-0.9-1.7-3.7-1.7-4.5,0l-8.8,17.2l-19.8,2.8
			c-1,0.1-1.8,0.8-2.1,1.7c-0.3,0.9,0,2,0.7,2.6l14.3,13.4l-3.4,18.9c-0.2,1,0.2,1.9,1,2.5s1.8,0.7,2.7,0.2l17.7-9l17.7,9
			c0.4,0.2,0.8,0.3,1.1,0.3c0.5,0,1.1-0.2,1.5-0.5c0.8-0.6,1.2-1.5,1-2.5l-3.4-18.9l14.3-13.4C149.8,90.1,150.1,89.1,149.8,88.2z
			 M130.4,101.4c-0.6,0.6-0.9,1.5-0.8,2.3l2.7,15.2l-14.3-7.3c-0.4-0.2-0.8-0.3-1.1-0.3c-0.3,0-0.8,0.1-1.1,0.3l-14.3,7.3l2.7-15.2
			c0.2-0.8-0.1-1.7-0.8-2.3L91.9,90.7l15.8-2.2c0.8-0.1,1.5-0.6,1.9-1.4l7.2-14l7.2,14c0.4,0.7,1.1,1.2,1.9,1.4l15.8,2.2
			L130.4,101.4z"/>
		<path class="st2" d="M0,2.1v96.5C13.3,88.3,43.2,65,57,53L0,2.1z"/>
		<path class="st2" d="M106.4,65.8l8.2-16.1c0.9-1.7,3.7-1.7,4.5,0l13.8,27l14.4,2V2.1l-57,50.8L106.4,65.8z"/>
		<path class="st2" d="M79.6,55.8l63.8-56.9H4.1l63.8,56.8C71.1,58.7,76.4,58.7,79.6,55.8z"/>
		<path class="st2" d="M67.1,82.8c0.3-0.9,1.1-1.6,2.1-1.7l31.6-4.4l3.2-6.3L86.6,56.3l-3.6,3.3c-2.5,2.3-5.9,3.4-9.2,3.4
			c-3.3,0-6.7-1.1-9.2-3.4L61,56.4C47,68.6,15.5,93,2.5,103.2h0.1h84.2L67.9,85.5C67.1,84.8,66.9,83.8,67.1,82.8z"/>
	</g>
</g>
<g id="Layer_4" class="st0">
	<g class="st1">
		<path class="st2" d="M149.1,116.6l-29.6-50.8c-1-1.7-2.8-2.8-4.8-2.8s-3.8,1-4.8,2.8l-29.6,50.8c-1,1.8-1,3.8,0,5.6
			s2.8,2.8,4.8,2.8h59.2c2,0,3.8-1,4.8-2.8C150.3,120.4,150.3,118.3,149.1,116.6z M144.8,119.7c-0.1,0.1-0.2,0.3-0.5,0.3H85.1
			c-0.3,0-0.4-0.2-0.5-0.3c-0.1-0.1-0.1-0.3,0-0.6l29.6-50.8c0.1-0.2,0.4-0.3,0.5-0.3c0.2,0,0.4,0.1,0.5,0.3l29.6,50.8
			C145.1,119.4,144.9,119.6,144.8,119.7z"/>
		<path class="st2" d="M114.9,80c-1.4,0-2.5,1.1-2.5,2.5v20c0,1.4,1.1,2.5,2.5,2.5c1.4,0,2.5-1.1,2.5-2.5v-20
			C117.4,81.1,116.4,80,114.9,80z"/>
		<path class="st2" d="M113.1,110.7c-0.4,0.5-0.7,1.1-0.7,1.8c0,0.6,0.3,1.3,0.7,1.8c0.5,0.4,1.1,0.7,1.8,0.7c0.6,0,1.3-0.3,1.8-0.7
			c0.4-0.5,0.7-1.1,0.7-1.8c0-0.6-0.3-1.3-0.7-1.8C115.8,109.8,114.1,109.8,113.1,110.7z"/>
		<path class="st2" d="M0,3.1V98C13.1,87.9,42.5,65,56,53.1L0,3.1z"/>
		<path class="st2" d="M102.4,63.9l1.1-1.8c2.3-4,6.7-6.5,11.3-6.5s9,2.5,11.3,6.5l18.9,32.4V3.1l-56,50L102.4,63.9z"/>
		<path class="st2" d="M78.1,55.9L140.8,0H4.1l62.7,55.9C69.9,58.7,75.1,58.7,78.1,55.9z"/>
		<path class="st2" d="M99.9,68.2L85.1,56.4l-3.6,3.2c-2.5,2.2-5.8,3.3-9.1,3.3s-6.6-1.1-9.1-3.3l-3.5-3.1c-13.8,12-44.6,36-57.5,46
			h0.1h77.4L99.9,68.2z"/>
	</g>
</g>
<g id="Layer_5" class="st0">
	<g class="st1">
		<path class="st2" d="M145.4,93.8c-1.4-0.3-2.7,0.6-2.9,2c-2.8,13.8-13.6,23-26.9,23c-12.6,0-23.6-8.3-27.4-20h11.7v-5h-20v20h5
			v-9.6c5.4,11.7,17.3,19.6,30.6,19.6c15.8,0,28.6-10.9,31.8-27C147.6,95.4,146.8,94.1,145.4,93.8z"/>
		<path class="st2" d="M144.9,63.8v10.7c-5.6-11.1-16.8-18.3-29.4-18.3c-15.3,0-28.9,10-33,24.3c-0.4,1.3,0.4,2.7,1.7,3.1
			s2.7-0.4,3.1-1.7c3.5-12,15.4-20.7,28.2-20.7c11.4,0,21.4,6.9,25.8,17.5h-11.4v5h20v-20L144.9,63.8L144.9,63.8z"/>
		<path class="st2" d="M0,4.3v94.9c13.1-10.1,42.5-33,56.1-44.9L0,4.3z"/>
		<path class="st2" d="M90.8,55.8c6.6-4.4,14.5-7,23-7c12.5,0,23.7,5.6,31.3,14.4V4.3l-56,50L90.8,55.8z"/>
		<path class="st2" d="M78.1,57.2l62.7-55.9H4.1l62.7,55.9C69.9,60,75.1,60,78.1,57.2z"/>
		<path class="st2" d="M86.6,58.9l-1.5-1.2l-3.6,3.2c-2.5,2.2-5.8,3.3-9.1,3.3c-3.3,0-6.6-1.1-9.1-3.3l-3.5-3.2
			c-13.8,12-44.6,36-57.5,46h0.1h72.4c-1.5-4.3-2.4-8.9-2.4-13.8C72.4,77.6,77.9,66.5,86.6,58.9z"/>
	</g>
</g>
<g id="Layer_6" class="st0">
	<g class="st1">
		<path class="st2" d="M89.9,63.8v60h60v-60H89.9z M144.9,118.8h-22.5V87.3L133.1,98l3.5-3.5l-16.7-16.8l-16.8,16.8l3.5,3.5
			l10.7-10.7v31.5H94.9v-50h50V118.8z"/>
		<path class="st2" d="M0,4.3v94.9c13.1-10.1,42.5-33,56.1-44.9L0,4.3z"/>
		<polygon class="st2" points="144.9,56.3 144.9,4.3 88.9,54.3 91.4,56.3 		"/>
		<path class="st2" d="M78.1,57.2l62.7-55.9H4.1l62.7,55.9C69.9,60,75.1,60,78.1,57.2z"/>
		<path class="st2" d="M72.4,64.2c-3.3,0-6.6-1.1-9.1-3.3l-3.5-3.2c-13.8,12-44.6,36-57.5,46h0.1h80V60.1l-0.9,0.8
			C79.1,63.1,75.8,64.2,72.4,64.2z"/>
	</g>
</g>
<g id="Layer_7">
	<g>
		<path class="st3" d="M117.4,59.9c-18,0-32.6,14.6-32.6,32.6S99.5,125,117.4,125S150,110.5,150,92.5S135.2,59.9,117.4,59.9z
			 M117.4,119.8c-15.2,0-27.6-12.4-27.6-27.6s12.4-27.6,27.6-27.6c15.2,0,27.4,12.6,27.4,27.8S132.4,119.8,117.4,119.8z"/>
		<path class="st3" d="M132.4,89.9h-12.6V77.3c0-1.4-1.2-2.6-2.6-2.6c-1.4,0-2.4,1.4-2.4,2.8v12.6h-12.6c-1.4,0-2.6,1.2-2.6,2.6
			c0,1.4,1.2,2.6,2.6,2.6h12.6v12.6c0,1.4,1.2,2.6,2.6,2.6c1.4,0,2.6-1,2.6-2.6V95.3h12.6c1.4,0,2.6-1,2.6-2.6
			C134.8,91.1,133.6,89.9,132.4,89.9z"/>
		<path class="st4" d="M0,3.2v94.7c13-10,42.5-33,56.1-44.7L0,3.2z"/>
		<path class="st4" d="M96.1,58.7c6.2-4,13.6-6.4,21.4-6.4c10.6,0,20.4,4.2,27.6,11V3.2L89.1,53.1L96.1,58.7z"/>
		<path class="st4" d="M78.1,55.9L140.6,0H4l62.7,55.9C69.7,58.7,75.1,58.7,78.1,55.9z"/>
		<path class="st4" d="M91.7,61.7l-6.6-5.4l-3.6,3.2c-2.6,2.2-5.8,3.4-9.2,3.4c-3.2,0-6.6-1.2-9-3.4l-3.6-3
			c-13.8,12-44.5,36-57.3,45.9l0,0h76.3c-0.8-3.2-1.4-6.6-1.4-10C77.5,80.1,83.1,69.1,91.7,61.7z"/>
	</g>
</g>
</svg>
