<?xml version="1.0" encoding="utf-8"?>
<!-- Generator: Adobe Illustrator 20.1.0, SVG Export Plug-In . SVG Version: 6.00 Build 0)  -->
<svg version="1.1" id="Layer_1" xmlns="http://www.w3.org/2000/svg" xmlns:xlink="http://www.w3.org/1999/xlink" x="0px" y="0px"
	 viewBox="0 0 50 50" enable-background="new 0 0 50 50" xml:space="preserve">
<g>
	<path fill="#F4F4F5" d="M37.6,25.6v-6.8c0-5.2-3.5-8.7-6.5-10c-0.9-0.4-1.8-0.7-2.7-0.9V7.4c0-2.1-1.7-3.8-3.8-3.8
		s-3.8,1.7-3.8,3.8v0.5c-0.8,0.2-1.6,0.5-2.4,0.9c-3.3,1.5-6.7,5.2-6.7,10v6.8c0,4.9-1.7,9-5.1,12.4c-0.2,0.2-0.3,0.5-0.2,0.8
		c0.1,0.3,0.3,0.5,0.6,0.5l7.2,1.2c1.3,0.2,2.6,0.4,3.8,0.6c1.3,2.6,3.9,4.3,6.8,4.3c2.8,0,5.5-1.7,6.8-4.3c1.2-0.2,2.4-0.3,3.7-0.6
		l7.2-1.2c0.3,0,0.5-0.2,0.6-0.5c0.1-0.3,0-0.6-0.2-0.8C39.4,34.5,37.6,30.3,37.6,25.6z M22.4,7.4c0-1.3,1-2.3,2.3-2.3
		s2.3,1,2.3,2.3v0.1c-1.5-0.2-3.1-0.2-4.6,0V7.4z M24.8,43.9c-1.9,0-3.7-1-4.9-2.5c1.7,0.2,3.3,0.3,4.9,0.3c1.6,0,3.2-0.1,4.9-0.3
		C28.6,42.9,26.8,43.9,24.8,43.9z M35.1,39.1c-1.5,0.3-2.8,0.5-4.1,0.6c0,0,0,0,0,0c-0.6,0.1-1.1,0.1-1.6,0.2c0,0,0,0,0,0
		c-0.5,0-1,0.1-1.4,0.1c-0.1,0-0.2,0-0.3,0c-0.4,0-0.8,0-1.2,0.1c-0.1,0-0.2,0-0.2,0c-0.9,0-1.9,0-2.8,0c-0.1,0-0.2,0-0.3,0
		c-0.4,0-0.8,0-1.2-0.1c-0.1,0-0.2,0-0.3,0c-0.5,0-0.9-0.1-1.4-0.1c0,0,0,0-0.1,0c-0.5-0.1-1.1-0.1-1.6-0.2c0,0,0,0,0,0
		c-1.3-0.2-2.6-0.4-4.1-0.6l-5.8-1c3-3.5,4.6-7.6,4.6-12.4v-6.8c0-4.1,3-7.3,5.8-8.7c0.9-0.4,1.8-0.7,2.7-0.9c0,0,0,0,0,0
		c1.9-0.4,3.9-0.4,5.8-0.1c0,0,0,0,0,0c1,0.2,2,0.5,2.9,0.9c2.8,1.3,5.6,4.5,5.6,8.7v6.8c0,4.6,1.7,8.8,4.8,12.4L35.1,39.1z"/>
	<path fill="#F4F4F5" d="M29.6,12.2c-2.9-1.3-6.6-1.3-9.5,0c-1.7,0.8-4.5,3-4.5,6.6c0,0.4,0.3,0.8,0.8,0.8c0,0,0,0,0,0
		c0.4,0,0.8-0.3,0.8-0.8c0-2.8,2.3-4.6,3.6-5.2c2.5-1.2,5.7-1.2,8.2,0c0.4,0.2,0.8,0,1-0.4C30.1,12.8,30,12.4,29.6,12.2z"/>
	<path fill="#F4F4F5" d="M5.5,19c-0.3-0.3-0.8-0.3-1.1,0c-1.7,1.7-2.6,3.9-2.6,6.2c0,2.4,0.9,4.6,2.6,6.2c0.1,0.1,0.3,0.2,0.5,0.2
		s0.4-0.1,0.5-0.2c0.3-0.3,0.3-0.8,0-1.1c-1.4-1.4-2.1-3.2-2.1-5.1s0.8-3.8,2.1-5.1C5.8,19.8,5.8,19.3,5.5,19z"/>
	<path fill="#F4F4F5" d="M8.2,30c0.2,0,0.4-0.1,0.5-0.2C9,29.4,9,29,8.7,28.7c-1.9-1.9-1.9-5.1,0-7c0.3-0.3,0.3-0.8,0-1.1
		s-0.8-0.3-1.1,0c-2.5,2.5-2.5,6.7,0,9.2C7.8,29.9,8,30,8.2,30z"/>
	<path fill="#F4F4F5" d="M44.9,19c-0.3-0.3-0.8-0.3-1.1,0c-0.3,0.3-0.3,0.8,0,1.1c1.4,1.4,2.1,3.2,2.1,5.1s-0.8,3.8-2.1,5.1
		c-0.3,0.3-0.3,0.8,0,1.1c0.1,0.1,0.3,0.2,0.5,0.2s0.4-0.1,0.5-0.2c1.7-1.7,2.6-3.9,2.6-6.2S46.6,20.7,44.9,19z"/>
	<path fill="#F4F4F5" d="M40.6,20.5c-0.3,0.3-0.3,0.8,0,1.1c1.9,1.9,1.9,5.1,0,7c-0.3,0.3-0.3,0.8,0,1.1c0.1,0.1,0.3,0.2,0.5,0.2
		c0.2,0,0.4-0.1,0.5-0.2c2.5-2.5,2.5-6.7,0-9.2C41.4,20.2,40.9,20.2,40.6,20.5z"/>
</g>
</svg>
