<?xml version="1.0" encoding="utf-8"?>
<!-- Generator: Adobe Illustrator 21.0.2, SVG Export Plug-In . SVG Version: 6.00 Build 0)  -->
<svg version="1.1" id="Layer_1" xmlns="http://www.w3.org/2000/svg" xmlns:xlink="http://www.w3.org/1999/xlink" x="0px" y="0px"
	 viewBox="0 0 150 166.8" style="enable-background:new 0 0 150 166.8;" xml:space="preserve">
<style type="text/css">
	.st0{fill:#703081;}
	.st1{fill:#9B75A6;}
</style>
<g id="Layer_2">
	<g>
		<path class="st0" d="M75,0C33.6,0,0,33.6,0,75c0,39.2,30.2,71.4,68.6,74.8L56.4,162c-1,1-1,2.8,0,4c0.6,0.6,1.2,0.8,2,0.8
			s1.4-0.2,2-0.8L77,149.4c0.2-0.2,0.4-0.6,0.6-1c0.2-0.6,0.2-1.4,0-2.2c-0.2-0.4-0.4-0.6-0.6-1l-16.6-16.6c-1-1-2.8-1-4,0
			s-1,2.8,0,4L68,144.2C33,140.6,5.6,111,5.6,75C5.6,36.8,36.8,5.6,75,5.6s69.4,31.2,69.4,69.4c0,18.4-7.2,35.8-20.2,48.8
			c-1,1-1,2.8,0,4c1,1,2.8,1,4,0C142.2,113.6,150,95,150,75C150,33.8,116.4,0,75,0z"/>
	</g>
</g>
<g>
	<path class="st1" d="M107.3,63.4V47.9l-4.6-0.9c-0.5-1.7-1.2-3.2-1.9-4.7l2.6-3.9l-11-11l-3.9,2.6c-1.5-0.8-3.1-1.4-4.7-1.9
		l-0.9-4.6H67.2L66.3,28c-1.7,0.5-3.2,1.2-4.7,1.9l-3.9-2.6l-11,11l2.6,3.9c-0.8,1.5-1.4,3.1-1.9,4.7l-4.6,0.9v15.6l4.6,0.9
		c0.5,1.7,1.2,3.2,1.9,4.7L46.7,73l9,9v22.1h4.8v19.3h12.9h3.2h12.9V104h4.8V81.9l9-9l-2.6-3.9c0.8-1.5,1.4-3.1,1.9-4.7L107.3,63.4z
		 M90,67.9c-1.1-0.6-2.4-1-3.7-1h-5.2L75,78.1L68.9,67h-5.2c-1.3,0-2.6,0.4-3.7,0.9c-2.8-3.4-4.4-7.7-4.4-12.2
		c0-10.7,8.7-19.4,19.4-19.4S94.3,45,94.3,55.7C94.4,60.1,92.8,64.4,90,67.9z M73.4,120.2h-9.7V104h9.7V120.2z M86.3,120.2h-9.7V104
		h9.7V120.2z M91.1,100.8h-1.6H76.6h-3.2H60.5h-1.6V75c0-2.7,2.2-4.8,4.8-4.8H67l8,14.7l8-14.7h3.3c2.7,0,4.8,2.2,4.8,4.8
		L91.1,100.8L91.1,100.8z M100.1,61.6l-0.3,1c-0.6,2.1-1.4,4-2.4,5.8l-0.5,0.9l2.2,3.3l-4.8,4.8V75c0-1.9-0.7-3.7-1.8-5.1
		c3.2-4.1,5.1-9.2,5.1-14.3c0-12.5-10.1-22.6-22.6-22.6S52.4,43.2,52.4,55.7c0,5.3,1.8,10.3,5.1,14.3c-1.1,1.4-1.9,3.1-1.9,5.1v2.3
		l-4.8-4.8l2.2-3.3l-0.5-0.9c-1-1.8-1.9-3.8-2.4-5.8l-0.3-1L46,60.8V50.5l3.9-0.8l0.3-1c0.6-2.1,1.4-4,2.4-5.8l0.5-0.9l-2.2-3.3
		l7.2-7.3l3.3,2.2l0.9-0.5c1.8-1,3.8-1.9,5.8-2.4l1-0.3l0.8-3.9h10.3l0.8,3.9l1,0.3c2.1,0.6,4,1.4,5.8,2.4l0.9,0.5l3.3-2.2l7.2,7.2
		l-2.2,3.3l0.5,0.9c1,1.8,1.9,3.8,2.4,5.8l0.3,1l3.9,0.8v10.3L100.1,61.6z"/>
	<path class="st0" d="M75,42.8c-6.2,0-11.3,5.1-11.3,11.3S68.8,65.3,75,65.3S86.3,60.3,86.3,54S81.2,42.8,75,42.8z M75,62.1
		c-4.4,0-8.1-3.6-8.1-8.1S70.6,46,75,46s8.1,3.6,8.1,8.1S79.4,62.1,75,62.1z"/>
</g>
</svg>
