<?xml version="1.0" encoding="utf-8"?>
<!-- Generator: Adobe Illustrator 21.0.2, SVG Export Plug-In . SVG Version: 6.00 Build 0)  -->
<svg version="1.1" id="Layer_1" xmlns="http://www.w3.org/2000/svg" xmlns:xlink="http://www.w3.org/1999/xlink" x="0px" y="0px"
	 viewBox="0 0 150 166.8" style="enable-background:new 0 0 150 166.8;" xml:space="preserve">
<style type="text/css">
	.st0{fill:#703081;}
	.st1{fill:#9B75A6;}
</style>
<g id="Layer_2">
	<g>
		<path class="st0" d="M75,0C33.6,0,0,33.6,0,75c0,39.2,30.2,71.4,68.6,74.8L56.4,162c-1,1-1,2.8,0,4c0.6,0.6,1.2,0.8,2,0.8
			s1.4-0.2,2-0.8L77,149.4c0.2-0.2,0.4-0.6,0.6-1c0.2-0.6,0.2-1.4,0-2.2c-0.2-0.4-0.4-0.6-0.6-1l-16.6-16.6c-1-1-2.8-1-4,0
			s-1,2.8,0,4L68,144.2C33,140.6,5.6,111,5.6,75C5.6,36.8,36.8,5.6,75,5.6s69.4,31.2,69.4,69.4c0,18.4-7.2,35.8-20.2,48.8
			c-1,1-1,2.8,0,4c1,1,2.8,1,4,0C142.2,113.6,150,95,150,75C150,33.8,116.4,0,75,0z"/>
	</g>
</g>
<g>
	<path class="st1" d="M52.8,90.5c-0.7-2.7-1.1-5.6-1.1-8.6c0-17.8,14-32.4,31.7-33C78.7,39,68.7,32,56.9,32
		c-16.1,0-29.2,13-29.2,29.1c0,7.6,2.9,14.6,7.7,19.9L25,90.4L52.8,90.5z"/>
	<path class="st0" d="M87.9,114.8c-16.9,0-30.6-13.7-30.7-30.6c0-8.2,3.1-15.9,8.9-21.7s13.4-9.1,21.6-9.1c17,0,30.7,13.7,30.7,30.6
		c0,7-2.3,13.6-6.6,19l13.1,11.7L87.9,114.8z M87.9,58.2c-7,0-13.5,2.7-18.4,7.6s-7.6,11.4-7.6,18.3c0,14.3,11.7,25.9,25.9,25.9h0.1
		h24.9l-7.3-6.6l1.7-1.8c4.5-4.8,6.9-11,6.9-17.6C113.8,69.8,102.2,58.2,87.9,58.2z"/>
	<path class="st0" d="M88.4,73.1c-3.9,0-7.1,3.1-7.1,7.1h4.1c0-1.7,1.4-3,3-3c1.7,0,3,1.4,3,3c0,1.7-1.4,3-3,3h-2V89h4.1v-2
		c2.9-0.8,5-3.5,5-6.8C95.4,76.4,92.3,73.1,88.4,73.1z"/>
</g>
</svg>
