<?xml version="1.0" encoding="utf-8"?>
<!-- Generator: Adobe Illustrator 20.1.0, SVG Export Plug-In . SVG Version: 6.00 Build 0)  -->
<svg version="1.1" id="Layer_1" xmlns="http://www.w3.org/2000/svg" xmlns:xlink="http://www.w3.org/1999/xlink" x="0px" y="0px"
	 viewBox="0 0 50 50" enable-background="new 0 0 50 50" xml:space="preserve">
<g>
	<path fill="#575757" d="M46.6,45.8L35.9,35.1c2.9-3.3,4.6-7.6,4.6-12.3C40.5,12.4,32.1,4,21.8,4C11.4,4,3,12.4,3,22.8
		s8.4,18.8,18.8,18.8c4.7,0,9-1.7,12.3-4.6l10.7,10.7c0.3,0.3,0.6,0.4,0.9,0.4c0.3,0,0.7-0.1,0.9-0.4C47.1,47.1,47.1,46.3,46.6,45.8
		z M5.6,22.8c0-8.9,7.2-16.1,16.1-16.1c8.9,0,16.1,7.2,16.1,16.1s-7.2,16.1-16.1,16.1C12.9,38.9,5.6,31.7,5.6,22.8z"/>
</g>
</svg>
