<?xml version="1.0" encoding="utf-8"?>
<!-- Generator: Adobe Illustrator 21.0.2, SVG Export Plug-In . SVG Version: 6.00 Build 0)  -->
<svg version="1.1" id="Layer_1" xmlns="http://www.w3.org/2000/svg" xmlns:xlink="http://www.w3.org/1999/xlink" x="0px" y="0px"
	 viewBox="0 0 150 166.8" style="enable-background:new 0 0 150 166.8;" xml:space="preserve">
<style type="text/css">
	.st0{fill:#9B75A6;}
	.st1{fill:#703081;}
</style>
<g id="Layer_2">
	<g>
		<path class="st0" d="M91.6,44.6C91.6,35.4,84.2,28,75,28s-16.6,7.4-16.6,16.6v13.8H44.6v52.8h61.2V58.4H92V44.6H91.6z M63.8,44.6
			c0-6.2,5-11.2,11.2-11.2s11.2,5,11.2,11.2v13.8H63.8V44.6z M77.8,91.4v6c0,1.6-1.2,2.8-2.8,2.8s-2.8-1.2-2.8-2.8v-6
			c-4.8-1.2-8.4-5.6-8.4-10.8c0-6.2,5-11.2,11.2-11.2s11.2,5,11.2,11.2C86.2,85.8,82.6,90,77.8,91.4z"/>
		<circle class="st0" cx="75" cy="80.6" r="5.6"/>
		<path class="st1" d="M75,0C33.6,0,0,33.6,0,75c0,39.2,30.2,71.4,68.6,74.8L56.4,162c-1,1-1,2.8,0,4c0.6,0.6,1.2,0.8,2,0.8
			s1.4-0.2,2-0.8L77,149.4c0.2-0.2,0.4-0.6,0.6-1c0.2-0.6,0.2-1.4,0-2.2c-0.2-0.4-0.4-0.6-0.6-1l-16.6-16.6c-1-1-2.8-1-4,0
			s-1,2.8,0,4L68,144.2C33,140.6,5.6,111,5.6,75C5.6,36.8,36.8,5.6,75,5.6s69.4,31.2,69.4,69.4c0,18.4-7.2,35.8-20.2,48.8
			c-1,1-1,2.8,0,4c1,1,2.8,1,4,0C142.2,113.6,150,95,150,75C150,33.8,116.4,0,75,0z"/>
	</g>
</g>
</svg>
