<?xml version="1.0" encoding="utf-8"?>
<!-- Generator: Adobe Illustrator 21.0.2, SVG Export Plug-In . SVG Version: 6.00 Build 0)  -->
<svg version="1.1" id="Layer_1" xmlns="http://www.w3.org/2000/svg" xmlns:xlink="http://www.w3.org/1999/xlink" x="0px" y="0px"
	 viewBox="0 0 150 150" style="enable-background:new 0 0 150 150;" xml:space="preserve">
<style type="text/css">
	.st0{fill:#703081;}
	.st1{fill:#DF6B90;}
</style>
<g id="Layer_2">
	<path class="st0" d="M75,0C33.6,0,0,33.6,0,75s33.6,75,75,75s75-33.6,75-75S116.4,0,75,0z M75,3.1c39.7,0,71.9,32.2,71.9,71.9
		s-32.2,71.9-71.9,71.9S3.1,114.7,3.1,75S35.3,3.1,75,3.1z"/>
</g>
<g>
	<g>
		<path class="st1" d="M75,117c-22.8,0-41.3-18.5-41.3-41.3v-13c0-1.2,1-2.2,2.2-2.2h78.3c1.2,0,2.2,1,2.2,2.2v13
			C116.3,98.4,97.8,117,75,117z M38,64.8v10.9c0,20.4,16.6,37,37,37s37-16.6,37-37V64.8H38z"/>
	</g>
	<g>
		<path class="st0" d="M75,108.3c-10.8,0-19.6-8.8-19.6-19.6S64.2,69.1,75,69.1s19.6,8.8,19.6,19.6S85.8,108.3,75,108.3z M75,73.5
			c-8.4,0-15.2,6.8-15.2,15.2s6.8,15.2,15.2,15.2s15.2-6.8,15.2-15.2S83.4,73.5,75,73.5z"/>
	</g>
	<g>
		<path class="st1" d="M75,99.6c-6,0-10.9-4.9-10.9-10.9S69,77.8,75,77.8s10.9,4.9,10.9,10.9S81,99.6,75,99.6z M75,82.2
			c-3.6,0-6.5,2.9-6.5,6.5s2.9,6.5,6.5,6.5s6.5-2.9,6.5-6.5S78.6,82.2,75,82.2z"/>
	</g>
	<g>
		<path class="st1" d="M118.5,64.8h-87c-3.6,0-6.5-2.9-6.5-6.5v-13c0-1.2,1-2.2,2.2-2.2h95.7c1.2,0,2.2,1,2.2,2.2v13
			C125,61.9,122.1,64.8,118.5,64.8z M29.3,47.4v10.9c0,1.2,1,2.2,2.2,2.2h87c1.2,0,2.2-1,2.2-2.2V47.4H29.3z"/>
	</g>
	<g>
		<circle class="st1" cx="101.1" cy="75.7" r="2.2"/>
	</g>
</g>
</svg>
