<?xml version="1.0" encoding="utf-8"?>
<!-- Generator: Adobe Illustrator 20.1.0, SVG Export Plug-In . SVG Version: 6.00 Build 0)  -->
<svg version="1.1" id="Layer_1" xmlns="http://www.w3.org/2000/svg" xmlns:xlink="http://www.w3.org/1999/xlink" x="0px" y="0px"
	 viewBox="0 0 50 50" enable-background="new 0 0 50 50" xml:space="preserve">
<g>
	<g>
		<path fill="#575757" d="M47.6,33.7H2.4c-0.5,0-0.9,0.2-1.2,0.5c-0.3,0.3-0.5,0.8-0.5,1.2v6.9c0,0.5,0.2,0.9,0.5,1.2
			c0.3,0.3,0.8,0.5,1.2,0.5h45.2c0.5,0,0.9-0.2,1.2-0.5c0.3-0.3,0.5-0.8,0.5-1.2v-6.9c0-0.5-0.2-0.9-0.5-1.2
			C48.5,33.9,48.1,33.7,47.6,33.7z M45.9,40.6H28.5v-3.5h17.4L45.9,40.6L45.9,40.6z"/>
		<path fill="#575757" d="M47.6,19.8H2.4c-0.5,0-0.9,0.2-1.2,0.5c-0.3,0.3-0.5,0.8-0.5,1.2v6.9c0,0.5,0.2,0.9,0.5,1.2
			c0.3,0.3,0.8,0.5,1.2,0.5h45.2c0.5,0,0.9-0.2,1.2-0.5c0.3-0.3,0.5-0.8,0.5-1.2v-6.9c0-0.5-0.2-0.9-0.5-1.2
			C48.5,20,48.1,19.8,47.6,19.8z M45.9,26.7H18.1v-3.5h27.8V26.7z"/>
		<path fill="#575757" d="M48.8,6.4c-0.3-0.3-0.8-0.5-1.2-0.5H2.4c-0.5,0-0.9,0.2-1.2,0.5C0.8,6.7,0.7,7.2,0.7,7.6v6.9
			c0,0.5,0.2,0.9,0.5,1.2c0.3,0.3,0.8,0.5,1.2,0.5h45.2c0.5,0,0.9-0.2,1.2-0.5c0.3-0.3,0.5-0.8,0.5-1.2V7.6
			C49.3,7.2,49.2,6.7,48.8,6.4z M45.9,12.8H35.4V9.4h10.4V12.8z"/>
	</g>
</g>
</svg>
