<?xml version="1.0" encoding="utf-8"?>
<!-- Generator: Adobe Illustrator 21.0.2, SVG Export Plug-In . SVG Version: 6.00 Build 0)  -->
<svg version="1.1" id="Layer_1" xmlns="http://www.w3.org/2000/svg" xmlns:xlink="http://www.w3.org/1999/xlink" x="0px" y="0px"
	 viewBox="0 0 150 166.8" style="enable-background:new 0 0 150 166.8;" xml:space="preserve">
<style type="text/css">
	.st0{fill:#703081;}
	.st1{fill:#9B75A6;}
</style>
<g id="Layer_2">
	<g>
		<path class="st0" d="M75,0C33.6,0,0,33.6,0,75c0,39.2,30.2,71.4,68.6,74.8L56.4,162c-1,1-1,2.8,0,4c0.6,0.6,1.2,0.8,2,0.8
			s1.4-0.2,2-0.8L77,149.4c0.2-0.2,0.4-0.6,0.6-1c0.2-0.6,0.2-1.4,0-2.2c-0.2-0.4-0.4-0.6-0.6-1l-16.6-16.6c-1-1-2.8-1-4,0
			s-1,2.8,0,4L68,144.2C33,140.6,5.6,111,5.6,75C5.6,36.8,36.8,5.6,75,5.6s69.4,31.2,69.4,69.4c0,18.4-7.2,35.8-20.2,48.8
			c-1,1-1,2.8,0,4c1,1,2.8,1,4,0C142.2,113.6,150,95,150,75C150,33.8,116.4,0,75,0z"/>
	</g>
</g>
<path class="st1" d="M94,23.4H56c-4.4,0-8.1,3.6-8.1,8.1v83.8c0,4.4,3.6,8.1,8.1,8.1H94c4.4,0,8.1-3.6,8.1-8.1V31.5
	C102.1,27,98.4,23.4,94,23.4z M66.1,29.8h17.8c0.8,0,1.4,0.6,1.4,1.4s-0.6,1.4-1.4,1.4H66.1c-0.8,0-1.4-0.6-1.4-1.4
	S65.4,29.8,66.1,29.8z M75,120c-2.7,0-4.8-2.2-4.8-4.8s2.2-4.8,4.8-4.8s4.8,2.2,4.8,4.8C79.8,117.8,77.7,120,75,120z M98.2,106.9
	H51.8V38.2h46.4V106.9z"/>
<path class="st0" d="M86.4,70.5v-5.3c0-6.3-5.1-11.4-11.4-11.4s-11.4,5.1-11.4,11.4v5.3c-1.9,0.6-3.2,2.3-3.2,4.4v13.5
	c0,2.5,2.1,4.6,4.6,4.6h20c2.5,0,4.6-2.1,4.6-4.6V74.9C89.6,72.8,88.2,71.1,86.4,70.5z M79.7,87.2c-0.1,0.2-0.3,0.3-0.5,0.3
	l-8.4,0.1c0,0,0,0,0,0c-0.2,0-0.4-0.1-0.5-0.3c-0.1-0.2-0.1-0.4,0-0.6l2.5-5.6c-0.7-0.6-1.2-1.6-1.2-2.6c0-1.9,1.5-3.4,3.4-3.4
	c1.9,0,3.4,1.5,3.4,3.4c0,1-0.4,1.9-1.1,2.5l2.4,5.5C79.9,86.8,79.8,87,79.7,87.2z M81.8,70.3H68.2v-5.1c0-3.7,3-6.8,6.8-6.8
	c3.7,0,6.8,3,6.8,6.8L81.8,70.3L81.8,70.3z"/>
</svg>
