<?xml version="1.0" encoding="utf-8"?>
<!-- Generator: Adobe Illustrator 21.0.2, SVG Export Plug-In . SVG Version: 6.00 Build 0)  -->
<svg version="1.1" id="Layer_1" xmlns="http://www.w3.org/2000/svg" xmlns:xlink="http://www.w3.org/1999/xlink" x="0px" y="0px"
	 viewBox="0 0 150 150" style="enable-background:new 0 0 150 150;" xml:space="preserve">
<style type="text/css">
	.st0{fill:#703081;}
	.st1{fill:#DF6B90;}
</style>
<g id="Layer_2">
	<path class="st0" d="M75,0C33.6,0,0,33.6,0,75s33.6,75,75,75s75-33.6,75-75S116.4,0,75,0z M75,3.1c39.7,0,71.9,32.2,71.9,71.9
		s-32.2,71.9-71.9,71.9S3.1,114.7,3.1,75S35.3,3.1,75,3.1z"/>
</g>
<g>
	<path class="st0" d="M55.6,27.5h64.3v39.8H66.6v3.2h53.5v3.2H66.6V77h55.2c0.8,0,1.6-0.8,1.6-1.6V25.7c0-0.8-0.6-1.4-1.6-1.4H54.2
		c-0.8,0-1.6,0.6-1.6,1.4v6.1h3.2v-4.3H55.6z"/>
	<path class="st1" d="M75.7,64.2c0.6,0,1-0.2,1.4-0.8l10.8-16l4.9,9.7c0.2,0.6,0.8,1,1.6,0.8c0.6,0,1.2-0.4,1.4-1l8.1-21.5l7.5,12.4
		c0.4,0.8,1.4,1,2.2,0.6c0.8-0.4,1-1.4,0.6-2.2l-9.1-15.4c-0.4-0.6-1-0.8-1.6-0.8c-0.6,0-1.2,0.4-1.4,1l-7.9,21.1l-4.5-8.9
		c-0.2-0.6-0.8-0.8-1.4-0.8c-0.6,0-1.2,0.2-1.4,0.8L74.5,61.6c-0.4,0.8-0.2,1.8,0.4,2.2C75.1,64.2,75.3,64.2,75.7,64.2z"/>
	<path class="st1" d="M119.7,122.5v-5.3c0-5.5-4.5-10.1-10.1-10.1H97.2c-5.5,0-10.1,4.5-10.1,10.1v5.3h-3.4v-5.3
		c0-5.5-4.5-10.1-10.1-10.1H61.1c-5.5,0-10.1,4.5-10.1,10.1v5.3H37.6V99.5c0-0.8-0.6-1.6-1.6-1.6h-7.7V77c0-5.9,4.7-10.8,10.5-10.8
		h12.4c5.9,0,10.8,4.9,10.8,10.8v4.3h3.2V77c0-7.7-6.3-14-14-14H38.8C31.1,63,25,69.3,25,77v22.5c0,0.8,0.6,1.6,1.6,1.6h7.5v21.3
		h-7.5v3.2H125v-3.2H119.7z M90.1,117.2c0-3.9,3.2-6.9,6.9-6.9h12.4c3.9,0,6.9,3,6.9,6.9v5.3H90.1V117.2z M54,117.2
		c0-3.9,3.2-6.9,6.9-6.9h12.4c3.9,0,6.9,3,6.9,6.9v5.3H54V117.2z"/>
	<path class="st1" d="M91.9,94.1c0,6.3,5.1,11.4,11.4,11.4s11.4-5.1,11.4-11.4c0-6.3-5.1-11.4-11.4-11.4
		C97,82.5,91.9,87.6,91.9,94.1z M111.6,94.1c0,4.5-3.7,8.1-8.1,8.1c-4.5,0-8.1-3.7-8.1-8.1S99,86,103.5,86
		C107.8,85.8,111.6,89.4,111.6,94.1z"/>
	<path class="st1" d="M55.6,94.1c0,6.3,5.1,11.4,11.4,11.4c6.3,0,11.4-5.1,11.4-11.4c0-6.3-5.1-11.4-11.4-11.4
		C60.9,82.5,55.6,87.6,55.6,94.1z M75.3,94.1c0,4.5-3.7,8.1-8.1,8.1s-8.1-3.7-8.1-8.1s3.7-8.1,8.1-8.1
		C71.7,85.8,75.3,89.4,75.3,94.1z"/>
	<path class="st1" d="M44.9,60.4c7.7,0,14-6.3,14-14s-6.3-14-14-14s-14,6.3-14,14C31.1,54.1,37.2,60.4,44.9,60.4z M44.9,35.6
		c5.9,0,10.8,4.9,10.8,10.8s-4.9,10.8-10.8,10.8s-10.5-4.9-10.5-10.8S39,35.6,44.9,35.6z"/>
</g>
</svg>
