<?xml version="1.0" encoding="utf-8"?>
<!-- Generator: Adobe Illustrator 21.0.2, SVG Export Plug-In . SVG Version: 6.00 Build 0)  -->
<svg version="1.1" id="Layer_1" xmlns="http://www.w3.org/2000/svg" xmlns:xlink="http://www.w3.org/1999/xlink" x="0px" y="0px"
	 viewBox="0 0 150 150" style="enable-background:new 0 0 150 150;" xml:space="preserve">
<style type="text/css">
	.st0{fill:#703081;}
	.st1{fill:#DF6B90;}
</style>
<g id="Layer_2">
	<path class="st0" d="M75,0C33.6,0,0,33.6,0,75s33.6,75,75,75s75-33.6,75-75S116.4,0,75,0z M75,3.1c39.7,0,71.9,32.2,71.9,71.9
		s-32.2,71.9-71.9,71.9S3.1,114.7,3.1,75S35.3,3.1,75,3.1z"/>
</g>
<g>
	<path class="st0" d="M99.1,95.6l-8.2-8.1c3.4-3.8,5-8.5,5-13.3s-1.7-9.5-5-13.3l8.3-8.1c-0.4-0.3-0.8-0.6-1.2-1s-0.8-0.9-1.1-1.3
		l-8.3,8.1c-3.9-3.3-8.7-4.9-13.5-4.9s-9.7,1.6-13.5,4.9l-8.5-8.4c-0.3,0.5-0.7,0.9-1.1,1.3c-0.4,0.3-0.7,0.6-1.2,1l8.5,8.3
		c-3.3,3.8-5,8.5-5,13.3c0,4.8,1.7,9.4,5,13.3l-7.8,7.7c0.2,0.2,0.3,0.2,0.5,0.4c0.6,0.6,1.1,1.3,1.5,2.1l8.1-7.9
		c4,3.3,8.9,5,13.7,5s9.7-1.6,13.5-4.9l8.3,8.1c0.3-0.5,0.6-0.9,1.1-1.3C98.3,96.2,98.7,95.9,99.1,95.6z M87.5,86.4
		c-3.3,3.3-7.8,5.1-12.5,5.1c-4.8,0-9.2-1.8-12.5-5.1c-3.3-3.2-5.2-7.6-5.2-12.2s1.9-9,5.2-12.2c3.3-3.3,7.8-5.1,12.5-5.1
		c4.8,0,9.2,1.8,12.5,5.1c3.3,3.2,5.2,7.6,5.2,12.2S90.8,83.1,87.5,86.4z"/>
	<path class="st1" d="M87.6,31.7H62.4v18.1h25.2C87.6,49.8,87.6,31.7,87.6,31.7z M81.7,34.9L75,41l-6.7-6L81.7,34.9L81.7,34.9z
		 M84.4,46.6H65.6v-9.7l9.4,8.3l9.4-8.3V46.6z"/>
	<path class="st1" d="M62.4,118.3h25.2V98.6H62.4V118.3z M65.6,101.9h18.7v13.2H65.6V101.9z"/>
	<polygon class="st1" points="71.7,112.2 78.3,108.5 71.7,104.7 	"/>
	<path class="st1" d="M37.3,80.5h12.8V64H25v16.5h3.9v8.8L37.3,80.5z M28.2,77.3V67.2h18.7v10.1H36l-3.9,4v-4H28.2z"/>
	<path class="st1" d="M99.8,64.4V84H125V64.4H99.8z M121.8,80.8h-18.7V67.6h18.7V80.8z"/>
	<path class="st1" d="M109.5,78.6c0.5,0.2,1,0.3,1.6,0.3h4.8c0.5,0,0.9-0.4,0.9-0.8c0,0,0.9-4,0.9-4.2c0-0.3-0.2-0.6-0.5-0.8l0,0
		c-0.2-0.1-0.3-0.1-0.4-0.1l0,0h-3.5l0.1-0.5c0.2-0.7,0.2-1.5,0.2-2.3v-0.1c0-0.3-0.2-0.6-0.4-0.9l0,0c-0.2-0.2-0.4-0.2-0.6-0.2
		c-0.1,0-0.1,0-0.2,0s-0.2,0.1-0.2,0.1l-0.3,0.2c0,0,0,0.5,0,0.9c0,0.5-0.1,1-0.2,1.4s-0.5,0.8-0.8,1.2l-1.3,1.2v-0.8h-2.3v6.3h2.3
		C109.5,79.4,109.5,78.6,109.5,78.6z"/>
	<path class="st1" d="M33.1,72.2c0-0.4-0.2-0.8-0.5-1C32.3,71,32.1,71,31.8,71c-0.7,0-1.3,0.6-1.3,1.3s0.6,1.3,1.3,1.3
		c0.3,0,0.6-0.1,0.8-0.2C32.9,73,33.1,72.6,33.1,72.2z"/>
	<path class="st1" d="M37.6,73.5c0.6,0,1.1-0.4,1.2-1c0-0.1,0.1-0.2,0.1-0.3c0-0.7-0.6-1.3-1.3-1.3c-0.7,0-1.3,0.6-1.3,1.3
		S36.9,73.5,37.6,73.5z"/>
	<path class="st1" d="M42.1,72.2c0,0.1,0,0.2,0.1,0.3c0.1,0.3,0.2,0.6,0.5,0.7s0.5,0.2,0.8,0.2c0.6,0,1.1-0.4,1.2-1
		c0-0.1,0.1-0.2,0.1-0.3c0-0.7-0.6-1.3-1.3-1.3c-0.3,0-0.6,0.1-0.8,0.2C42.3,71.5,42.1,71.8,42.1,72.2z"/>
	<path class="st1" d="M80.7,64L63.8,80.2L61.9,81c-0.2,0.1-0.2,0.2-0.2,0.3l1.8,3.1c0,0.1,0.2,0.1,0.2,0.1s0.1,0,0.2-0.1l1.6-1.3
		l4.9-1.4c0.6,1.9,2.3,3.2,4.3,3.2c0.4,0,0.8-0.1,1.2-0.2l1.5-0.4c1.1-0.3,2.1-1,2.7-2.1c0.6-1,0.7-2.3,0.4-3.4l7.7-2.2L80.7,64z
		 M77.3,80.6c-0.2,0.3-0.4,0.5-0.7,0.6l-1.5,0.4c-0.6,0.2-1.4-0.2-1.5-0.8l3.9-1C77.4,80.1,77.3,80.4,77.3,80.6z"/>
	<g>
		<path class="st0" d="M51.2,45.4c0,1.5-0.6,2.8-1.6,3.9s-2.5,1.6-4,1.6s-2.8-0.6-4-1.6c-1-1-1.6-2.4-1.6-3.9c0-1.5,0.6-2.8,1.6-3.9
			c2.2-2.1,5.7-2.1,7.9,0C50.6,42.5,51.2,43.9,51.2,45.4z"/>
		<path class="st0" d="M51.2,101.8c0,1.5-0.6,2.8-1.6,3.9c-1,1-2.5,1.6-4,1.6s-2.8-0.6-4-1.6c-1-1-1.6-2.4-1.6-3.9s0.6-2.8,1.6-3.9
			c2.2-2.1,5.7-2.1,7.9,0C50.6,98.9,51.2,100.2,51.2,101.8z"/>
		<path class="st0" d="M109.8,102.7c0,1.5-0.6,2.8-1.6,3.9c-1,1-2.5,1.6-4,1.6c-1.5,0-2.8-0.6-4-1.6c-1-1-1.6-2.4-1.6-3.9
			s0.6-2.8,1.6-3.9c2.2-2.1,5.7-2.1,7.9,0C109.1,99.9,109.8,101.3,109.8,102.7z"/>
		<path class="st0" d="M109.8,45.6c0,1.5-0.6,2.8-1.6,3.9c-1,1-2.5,1.6-4,1.6c-1.5,0-2.8-0.6-4-1.6c-1-1-1.6-2.4-1.6-3.9
			c0-1.5,0.6-2.8,1.6-3.9c2.2-2.1,5.7-2.1,7.9,0C109.1,42.7,109.8,44.1,109.8,45.6z"/>
	</g>
</g>
</svg>
