<?xml version="1.0" encoding="utf-8"?>
<!-- Generator: Adobe Illustrator 21.0.2, SVG Export Plug-In . SVG Version: 6.00 Build 0)  -->
<svg version="1.1" id="Layer_1" xmlns="http://www.w3.org/2000/svg" xmlns:xlink="http://www.w3.org/1999/xlink" x="0px" y="0px"
	 viewBox="0 0 150 126.6" style="enable-background:new 0 0 150 126.6;" xml:space="preserve">
<style type="text/css">
	.st0{fill:#703081;}
	.st1{fill:#865294;}
	.st2{fill:#9B75A6;}
</style>
<g>
	<path class="st0" d="M138,0H11.8C5.4,0,0,5.2,0,11.8v103.1c0,6.4,5.2,11.8,11.8,11.8h126.4c6.4,0,11.8-5.2,11.8-11.8V11.6
		C149.8,5.2,144.6,0,138,0z M145.2,114.6c0,3.8-3.2,7-7,7H11.8c-3.8,0-7-3.2-7-7v-103c0-3.8,3.2-7,7-7h126.4c3.8,0,7,3.2,7,7V114.6z
		"/>
</g>
<g>
	<g>
		<path class="st1" d="M123,27.3H27c-1.1,0-2,0.9-2,2v55.6c0,1.1,0.9,2,2,2h55.6v10.5c0,0.8,0.4,1.5,1.1,1.7
			c0.7,0.3,1.5,0.3,2.1-0.3l5.9-4.7l5.9,4.7c0.4,0.3,0.8,0.4,1.2,0.4c0.3,0,0.5,0,0.9-0.3c0.7-0.3,1.1-1.1,1.1-1.7V86.7H123
			c1.1,0,2-0.9,2-2V29.3C125,28.1,124.1,27.3,123,27.3z M96.9,93.3L93,90.2c-0.7-0.5-1.7-0.5-2.4,0l-3.9,3.1V81.1
			c1.6,0.7,3.3,1.1,5.1,1.1c1.7,0,3.6-0.4,5.1-1.1L96.9,93.3L96.9,93.3z M91.7,78.2c-4.9,0-8.9-4-8.9-8.9s4-8.9,8.9-8.9
			s8.9,4,8.9,8.9C100.7,74.2,96.6,78.2,91.7,78.2z M91.7,56.3c-3.9,0-7.5,1.7-9.7,4.5h-30c-1.1,0-2,0.9-2,2s0.9,2,2,2h27.6
			c-0.5,1.3-0.8,2.9-0.8,4.5c0,2.4,0.7,4.7,1.9,6.7H44.1c-0.8-4.1-4.1-7.5-8.3-8.3V46.5c4.1-0.8,7.5-4.1,8.3-8.3h61.9
			c0.8,4.1,4.1,7.5,8.3,8.3v21.1c-4.1,0.8-7.5,4.1-8.3,8.3h-3.1c1.2-2,1.9-4.1,1.9-6.7C104.6,62.1,98.9,56.3,91.7,56.3z M121,82.9
			h-20.3v-2.9h6.9c1.1,0,2-0.9,2-2c0-3.6,2.9-6.5,6.5-6.5c1.1,0,2-0.9,2-2V44.6c0-1.1-0.9-2-2-2c-3.6,0-6.5-2.9-6.5-6.5
			c0-1.1-0.9-2-2-2H42.2c-1.1,0-2,0.9-2,2c0,3.6-2.9,6.5-6.5,6.5c-1.1,0-2,0.9-2,2v24.8c0,1.1,0.9,2,2,2c3.6,0,6.5,2.9,6.5,6.5
			c0,1.1,0.9,2,2,2h40.4v2.9H29V31.1h92V82.9L121,82.9z"/>
	</g>
	<g>
		<g>
			<path class="st2" d="M98.1,49.3h-0.5c-1.1,0-2,0.9-2,2s0.9,2,2,2h0.5c1.1,0,2-0.9,2-2S99.1,49.3,98.1,49.3z"/>
		</g>
	</g>
	<g>
		<g>
			<path class="st2" d="M90.7,49.3H52.1c-1.1,0-2,0.9-2,2s0.9,2,2,2h38.7c1.1,0,2-0.9,2-2S91.8,49.3,90.7,49.3z"/>
		</g>
	</g>
</g>
</svg>
