<?xml version="1.0" encoding="utf-8"?>
<!-- Generator: Adobe Illustrator 21.0.2, SVG Export Plug-In . SVG Version: 6.00 Build 0)  -->
<svg version="1.1" id="Layer_1" xmlns="http://www.w3.org/2000/svg" xmlns:xlink="http://www.w3.org/1999/xlink" x="0px" y="0px"
	 viewBox="0 0 150 126.6" style="enable-background:new 0 0 150 126.6;" xml:space="preserve">
<style type="text/css">
	.st0{fill:#703081;}
	.st1{fill:#9B75A6;}
</style>
<g>
	<path class="st0" d="M138,0H11.8C5.4,0,0,5.2,0,11.8v103.1c0,6.4,5.2,11.8,11.8,11.8h126.4c6.4,0,11.8-5.2,11.8-11.8V11.6
		C149.8,5.2,144.6,0,138,0z M145.2,114.6c0,3.8-3.2,7-7,7H11.8c-3.8,0-7-3.2-7-7v-103c0-3.8,3.2-7,7-7h126.4c3.8,0,7,3.2,7,7V114.6z
		"/>
</g>
<g>
	<g>
		<g>
			<path class="st1" d="M90,50.2c-7.3,0-13.2,6-13.2,13.2c0,7.3,6,13.2,13.2,13.2s13.2-6,13.2-13.2C103.1,56,97.3,50.2,90,50.2z
				 M90,73.4c-5.6,0-10.1-4.5-10.1-10.1S84.4,53.2,90,53.2s10.1,4.5,10.1,10.1S95.6,73.4,90,73.4z"/>
		</g>
	</g>
	<g>
		<g>
			<path class="st1" d="M111.7,58.4h-0.8c-0.5-2.3-1.5-4.5-2.7-6.5l0.5-0.5c1.2-1.2,1.2-3.3,0-4.5l-2.4-2.3c-1.2-1.2-3.3-1.2-4.5,0
				l-0.5,0.5c-2-1.2-4.1-2.1-6.5-2.7v-0.7c0-1.7-1.5-3.2-3.2-3.2h-3.3c-1.7,0-3.2,1.5-3.2,3.2v0.7c-2.3,0.5-4.5,1.5-6.5,2.7L78,44.4
				c-1.2-1.2-3.3-1.2-4.5,0l-2.4,2.4c-1.2,1.2-1.2,3.3,0,4.5l0.5,0.5c-1.2,2-2.1,4.1-2.7,6.5h-0.7c-1.7,0-3.2,1.5-3.2,3.2V65
				c0,1.7,1.5,3.2,3.2,3.2h0.7c0.5,2.3,1.5,4.5,2.7,6.5l-0.5,0.5c-1.2,1.2-1.2,3.3,0,4.5l2.4,2.4c0.7,0.7,1.5,0.9,2.3,0.9
				s1.7-0.4,2.3-0.9l0.5-0.5c2,1.2,4.1,2.1,6.5,2.7V85c0,1.7,1.5,3.2,3.2,3.2h3.3c1.7,0,3.2-1.5,3.2-3.2v-0.7
				c2.3-0.5,4.5-1.5,6.5-2.7l0.5,0.5c0.7,0.7,1.5,0.9,2.3,0.9c0.8,0,1.7-0.4,2.3-0.9l2.4-2.4c1.2-1.2,1.2-3.3,0-4.5l-0.5-0.5
				c1.2-2,2.1-4.1,2.7-6.5h0.7c1.7,0,3.2-1.5,3.2-3.2v-3.3C114.9,59.8,113.4,58.4,111.7,58.4z M111.7,65L111.7,65l-2.1,0.1
				c-0.8,0-1.5,0.5-1.6,1.3c-0.4,2.8-1.5,5.3-3.2,7.6c-0.4,0.7-0.4,1.5,0.1,2l1.3,1.3v0.1l-2,2.4c0,0,0,0-0.1,0c0,0,0,0-0.1,0
				l-1.3-1.3c-0.5-0.5-1.3-0.7-2-0.1c-2.3,1.6-4.8,2.7-7.6,3.2c-0.8,0.1-1.3,0.8-1.3,1.6v2c0,0,0,0.1-0.1,0.1h-3.3
				c0,0-0.1,0-0.1-0.1v-2c0-0.8-0.5-1.5-1.3-1.6c-2.8-0.4-5.3-1.5-7.6-3.2c-0.3-0.1-0.5-0.3-0.9-0.3c-0.4,0-0.8,0.1-1.1,0.4L75.8,80
				c0,0,0,0-0.1,0c0,0,0,0-0.1,0l-2.4-2.4v-0.1l1.3-1.3c0.5-0.5,0.7-1.3,0.1-2c-1.6-2.3-2.7-4.8-3.2-7.6c-0.1-0.8-0.8-1.3-1.6-1.3
				h-1.6c0,0-0.1,0-0.1-0.1v-3.3c0,0,0-0.1,0.1-0.1h2c0.8,0,1.5-0.5,1.6-1.3c0.4-2.8,1.5-5.3,3.2-7.6c0.4-0.7,0.4-1.5-0.1-2
				l-1.3-1.3v-0.1l2.4-2.4h0.1l1.3,1.3c0.5,0.5,1.3,0.7,2,0.1c2.3-1.6,4.8-2.7,7.6-3.2c0.8-0.1,1.3-0.8,1.3-1.6v-2
				c0,0,0-0.1,0.1-0.1h3.3c0,0,0.1,0,0.1,0.1v2c0,0.8,0.5,1.5,1.3,1.6c2.8,0.4,5.3,1.5,7.6,3.2c0.7,0.4,1.5,0.4,2-0.1l1.3-1.3h0.1
				l2.4,2.4v0.1l-1.3,1.3c-0.5,0.5-0.7,1.3-0.1,2c1.6,2.3,2.7,4.8,3.2,7.6c0.1,0.8,0.8,1.3,1.6,1.3h2c0,0,0.1,0,0.1,0.1L111.7,65
				L111.7,65z"/>
		</g>
	</g>
	<g>
		<g>
			<path class="st0" d="M90,28.4H26.6c-0.8,0-1.6,0.7-1.6,1.6c0,0.8,0.7,1.6,1.6,1.6H90c17.6,0,31.8,14.3,31.8,31.8
				S107.4,95.1,90,95.1c-15.7,0-28.9-11.3-31.3-26.5l1.3,1.9c0.5,0.7,1.5,0.8,2.1,0.3c0.7-0.5,0.8-1.5,0.3-2.1l-4.7-6.3
				c-0.3-0.4-0.8-0.7-1.3-0.7s-1.1,0.4-1.2,0.8l-3.5,7.1c-0.4,0.8-0.1,1.7,0.7,2.1c0.3,0.1,0.4,0.1,0.7,0.1c0.5,0,1.1-0.3,1.5-0.9
				l1.1-2c2.7,16.8,17.2,29.3,34.5,29.3c19.3,0,34.9-15.7,34.9-34.9S109.1,28.4,90,28.4z"/>
		</g>
	</g>
	<g>
		<g>
			<path class="st1" d="M76.7,35.1H63.3c-0.8,0-1.6,0.7-1.6,1.6c0,0.8,0.7,1.6,1.6,1.6h13.3c0.8,0,1.6-0.7,1.6-1.6
				C78.1,35.8,77.5,35.1,76.7,35.1z"/>
		</g>
	</g>
	<g>
		<g>
			<path class="st1" d="M56.5,35.1H26.6c-0.8,0-1.6,0.7-1.6,1.6c0,0.8,0.7,1.6,1.6,1.6h29.9c0.8,0,1.6-0.7,1.6-1.6
				C58.1,35.8,57.5,35.1,56.5,35.1z"/>
		</g>
	</g>
	<g>
		<g>
			<path class="st0" d="M64.9,41.8h-8.4c-0.8,0-1.6,0.7-1.6,1.6c0,0.9,0.7,1.6,1.6,1.6h8.4c0.8,0,1.6-0.7,1.6-1.6
				C66.5,42.4,65.7,41.8,64.9,41.8z"/>
		</g>
	</g>
	<g>
		<g>
			<path class="st1" d="M49.9,41.8H26.6c-0.8,0-1.6,0.7-1.6,1.6c0,0.9,0.7,1.6,1.6,1.6h23.3c0.8,0,1.6-0.7,1.6-1.6
				C51.5,42.4,50.8,41.8,49.9,41.8z"/>
		</g>
	</g>
	<g>
		<g>
			<path class="st1" d="M54.9,48.4h-6.6c-0.8,0-1.6,0.7-1.6,1.6c0,0.8,0.7,1.6,1.6,1.6H55c0.8,0,1.6-0.7,1.6-1.6
				C56.4,49.1,55.7,48.4,54.9,48.4z"/>
		</g>
	</g>
	<g>
		<g>
			<path class="st0" d="M41.5,48.4H26.6c-0.8,0-1.6,0.7-1.6,1.6c0,0.8,0.7,1.6,1.6,1.6h15.1c0.8,0,1.6-0.7,1.6-1.6
				C43.1,49.1,42.5,48.4,41.5,48.4z"/>
		</g>
	</g>
	<g>
		<g>
			<path class="st1" d="M46.6,55h-3.3c-0.8,0-1.6,0.7-1.6,1.6c0,0.8,0.7,1.6,1.6,1.6h3.3c0.8,0,1.6-0.7,1.6-1.6S47.5,55,46.6,55z"/>
		</g>
	</g>
	<g>
		<g>
			<path class="st1" d="M36.6,55h-10c-0.8,0-1.6,0.7-1.6,1.6c0,0.8,0.7,1.6,1.6,1.6h10c0.8,0,1.6-0.7,1.6-1.6S37.4,55,36.6,55z"/>
		</g>
	</g>
</g>
</svg>
