<?xml version="1.0" encoding="utf-8"?>
<!-- Generator: Adobe Illustrator 21.0.2, SVG Export Plug-In . SVG Version: 6.00 Build 0)  -->
<svg version="1.1" id="Layer_1" xmlns="http://www.w3.org/2000/svg" xmlns:xlink="http://www.w3.org/1999/xlink" x="0px" y="0px"
	 viewBox="0 0 150 150" style="enable-background:new 0 0 150 150;" xml:space="preserve">
<style type="text/css">
	.st0{fill:#D8427D;}
</style>
<g>
	<circle class="st0" cx="65.6" cy="51.8" r="2.1"/>
	<path class="st0" d="M59.3,49.7c-1.1,0-2.1,0.9-2.1,2.1c0,1.1,0.9,2.1,2.1,2.1c1.1,0,2.1-0.9,2.1-2.1
		C61.4,50.7,60.5,49.7,59.3,49.7z"/>
	<path class="st0" d="M71.9,49.7c-1.1,0-2.1,0.9-2.1,2.1c0,1.1,0.9,2.1,2.1,2.1c1.1,0,2.1-0.9,2.1-2.1C74,50.7,73,49.7,71.9,49.7z"
		/>
	<rect x="76.9" y="50.8" class="st0" width="29" height="2.1"/>
	<path class="st0" d="M108.4,44.2H58.7c-2.3,0-4.1,1.9-4.1,4.1V78c1.2,0,2.6,0,4.1,0V54.6h49.7v35.2H96c0.8,1.7,1.3,3.2,1.3,3.2
		c-0.3,0.3-0.6,0.7-0.9,1h12c2.3,0,4.1-1.9,4.1-4.1V48.3C112.5,46.1,110.6,44.2,108.4,44.2z M61.8,51.4c-1.1,0-2.1-0.9-2.1-2.1
		c0-1.2,0.9-2.1,2.1-2.1c1.1,0,2.1,0.9,2.1,2.1C63.8,50.5,62.9,51.4,61.8,51.4z M68,51.4c-1.1,0-2.1-0.9-2.1-2.1
		c0-1.2,0.9-2.1,2.1-2.1c1.1,0,2.1,0.9,2.1,2.1C70.1,50.5,69.1,51.4,68,51.4z M74.3,51.4c-1.1,0-2.1-0.9-2.1-2.1
		c0-1.2,0.9-2.1,2.1-2.1c1.1,0,2.1,0.9,2.1,2.1C76.4,50.5,75.5,51.4,74.3,51.4z"/>
	<path class="st0" d="M93.5,92.2c-0.7-1.5-1.6-3.2-2.6-4.3c0,0-1.1-0.9-1.6-1.1c-0.5-0.1-0.5-0.1-0.8-0.1c-1.4,0.3-3.2,3.2-6.2,5.4
		h-15c-0.9-0.8-1.8-1.8-2.5-2.9h8.3c0,0,2.4,0.2,2.4-1.7c0-1.9,0-4.8,0-4.8s0.1-2.4-2.4-2.4c-0.8,0-5.4,0-10.3,0h-0.2h-1.7
		c-1.6,0-3.2,0-4.7,0c-1.6,0-3,0-4.1,0c-1.7,0-2.9,0-2.9,0v20.3c0,0,16.2,5.1,21.9,5.1c0,0,13.3,0.6,22.8-9.5c0.3-0.3,0.6-0.6,0.9-1
		C94.8,95.3,94.3,93.9,93.5,92.2z"/>
	<rect x="37.5" y="77.9" class="st0" width="8.2" height="27.9"/>
</g>
</svg>
