<?xml version="1.0" encoding="utf-8"?>
<!-- Generator: Adobe Illustrator 21.0.2, SVG Export Plug-In . SVG Version: 6.00 Build 0)  -->
<svg version="1.1" id="Layer_1" xmlns="http://www.w3.org/2000/svg" xmlns:xlink="http://www.w3.org/1999/xlink" x="0px" y="0px"
	 viewBox="0 0 150 126.6" style="enable-background:new 0 0 150 126.6;" xml:space="preserve">
<style type="text/css">
	.st0{fill:#703081;}
	.st1{fill:#9B75A6;}
</style>
<g>
	<path class="st0" d="M138,0H11.8C5.4,0,0,5.2,0,11.8v103.1c0,6.4,5.2,11.8,11.8,11.8h126.4c6.4,0,11.8-5.2,11.8-11.8V11.6
		C149.8,5.2,144.6,0,138,0z M145.2,114.6c0,3.8-3.2,7-7,7H11.8c-3.8,0-7-3.2-7-7v-103c0-3.8,3.2-7,7-7h126.4c3.8,0,7,3.2,7,7V114.6z
		"/>
</g>
<g>
	<circle class="st1" cx="120.2" cy="13.5" r="2.3"/>
	<circle class="st1" cx="107.4" cy="13.5" r="2.3"/>
	<circle class="st1" cx="132.7" cy="13.5" r="2.3"/>
	<g>
		<path class="st0" d="M75.1,46.2c-9.4,0-17.1,7.7-17.1,17.1s7.7,17.1,17.1,17.1c2.7,0,5.4-0.6,7.9-1.9c1.2-0.6,1.5-1.9,1-3.1
			s-1.9-1.5-3.1-1c-1.7,1-3.7,1.3-5.8,1.3c-6.9,0-12.5-5.6-12.5-12.5s5.6-12.5,12.5-12.5c6.9,0,12.5,5.6,12.5,12.5
			c0,1.9-0.4,3.9-1.3,5.8c-0.6,1.2-0.2,2.5,1,3.1s2.5,0.2,3.1-1c1.2-2.3,1.9-5.2,1.9-7.9C92.2,54,84.5,46.2,75.1,46.2z"/>
		<path class="st1" d="M112.8,54.9h-9.6c-0.6-1.9-1.3-3.7-2.3-5.4l6.9-6.9c0.4-0.4,0.8-1,0.8-1.5s-0.2-1.2-0.8-1.5l-8.7-8.7
			c-1-1-2.3-1-3.3,0l-6.9,6.9c-1.7-1-3.7-1.7-5.4-2.3v-9.6c0-1.3-1-2.3-2.3-2.3H68.9c-1.3,0-2.3,1-2.3,2.3v9.6
			c-1.9,0.6-3.7,1.3-5.4,2.3l-6.9-6.9c-1-1-2.3-1-3.3,0l-8.7,8.5c-0.4,0.4-0.8,1-0.8,1.5c0,0.6,0.2,1.2,0.8,1.5l6.9,6.9
			c-1,1.7-1.7,3.7-2.3,5.6h-9.6c-1.3,0-2.3,1-2.3,2.3v12.3c0,1.3,1,2.3,2.3,2.3h9.6c0.6,1.9,1.3,3.7,2.3,5.4L42.3,84
			c-0.4,0.4-0.8,1-0.8,1.5s0.2,1.2,0.8,1.5l8.7,8.7c1,1,2.3,1,3.3,0l6.9-6.9c1.7,1,3.7,1.7,5.4,2.3v9.6c0,1.3,1,2.3,2.3,2.3h12.3
			c1.3,0,2.3-1,2.3-2.3v-9.6c1.9-0.6,3.7-1.3,5.4-2.3l6.9,6.9c1,1,2.3,1,3.3,0l8.7-8.7c0.4-0.4,0.8-1,0.8-1.5s-0.2-1.2-0.8-1.5
			l-6.9-6.9c1-1.7,1.7-3.7,2.3-5.4h9.6c1.3,0,2.3-1,2.3-2.3V57C115.2,55.9,114.2,54.9,112.8,54.9z M110.5,67.1h-9.2
			c-1.2,0-1.9,0.8-2.3,1.7c-0.6,2.7-1.7,5.2-3.1,7.5c-0.6,1-0.4,2.1,0.4,2.9l6.6,6.6l-5.4,5.4l-6.6-6.6c-0.8-0.8-1.9-1-2.9-0.4
			c-2.3,1.3-4.8,2.5-7.5,3.1c-0.8,0.4-1.5,1.3-1.5,2.3v9.2h-7.7v-9.2c0-1.2-0.8-1.9-1.7-2.3c-2.7-0.6-5.2-1.7-7.5-3.1
			c-1-0.6-2.1-0.4-2.9,0.4l-6.6,6.6l-5.4-5.4l6.6-6.6c0.8-0.8,1-1.9,0.4-2.9c-1.3-2.3-2.5-4.8-3.1-7.5c-0.2-1-1.2-1.7-2.3-1.7h-9.2
			v-7.7h9.2c1.2,0,1.9-0.8,2.3-1.7c0.6-2.7,1.7-5.2,3.1-7.5c0.6-1,0.4-2.1-0.4-2.9l-6.6-6.6l5.4-5.4l6.6,6.6c0.8,0.8,1.9,1,2.9,0.4
			c2.3-1.3,4.8-2.5,7.5-3.1c1-0.2,1.7-1.2,1.7-2.3v-9.2h7.7v9.2c0,1.2,0.8,1.9,1.7,2.3c2.7,0.6,5.2,1.7,7.5,3.1
			c1,0.6,2.1,0.4,2.9-0.4l6.6-6.6l5.4,5.4l-6.6,6.6c-0.8,0.8-1,1.9-0.4,2.9c1.3,2.3,2.5,4.8,3.1,7.5c0.2,1,1.2,1.7,2.3,1.7h9.2
			L110.5,67.1L110.5,67.1z"/>
	</g>
</g>
</svg>
