<?xml version="1.0" encoding="utf-8"?>
<!-- Generator: Adobe Illustrator 21.0.2, SVG Export Plug-In . SVG Version: 6.00 Build 0)  -->
<svg version="1.1" id="Layer_1" xmlns="http://www.w3.org/2000/svg" xmlns:xlink="http://www.w3.org/1999/xlink" x="0px" y="0px"
	 viewBox="0 0 150 126.6" style="enable-background:new 0 0 150 126.6;" xml:space="preserve">
<style type="text/css">
	.st0{fill:#703081;}
	.st1{fill:#9B75A6;}
</style>
<g>
	<path class="st0" d="M138,0H11.8C5.4,0,0,5.2,0,11.8v103.1c0,6.4,5.2,11.8,11.8,11.8h126.4c6.4,0,11.8-5.2,11.8-11.8V11.6
		C149.8,5.2,144.6,0,138,0z M145.2,114.6c0,3.8-3.2,7-7,7H11.8c-3.8,0-7-3.2-7-7v-103c0-3.8,3.2-7,7-7h126.4c3.8,0,7,3.2,7,7V114.6z
		"/>
</g>
<g>
	<g>
		<g>
			<path class="st0" d="M123,81.7H27c-1.1,0-2,0.9-2,2v26.9c0,1.1,0.9,2,2,2h96c1.1,0,2-0.9,2-2V83.7C125,82.6,124.1,81.7,123,81.7z
				 M101.4,85.7h8.3v5.1h-8.3V85.7z M114.2,94.6v5.1h-5.1v-5.1H114.2z M105.1,94.6v5.1h-8.3v-5.1H105.1z M89.1,85.7h8.3v5.1h-8.3
				V85.7z M93,94.6v5.1h-8.3v-5.1H93z M77,85.7h8.3v5.1H77V85.7z M80.7,94.6v5.1h-8.3v-5.1H80.7z M64.7,85.7H73v5.1h-8.3V85.7z
				 M68.6,94.6v5.1h-8.3v-5.1H68.6z M52.6,85.7h8.3v5.1h-8.3V85.7z M56.3,94.6v5.1h-8.3v-5.1H56.3z M40.3,85.7h8.3v5.1h-8.3V85.7z
				 M44.2,94.6v5.1h-8.3v-5.1H44.2z M28.9,85.7h7.6v5.1h-7.6V85.7z M28.9,94.6h3.1v5.1h-3.1V94.6z M36.5,108.6h-7.6v-5.1h7.6V108.6z
				 M48.6,108.6h-8.3v-5.1h8.3V108.6z M60.9,108.6h-8.3v-5.1h8.3C60.9,103.6,60.9,108.6,60.9,108.6z M85.3,108.6H64.7v-5.1h20.5
				C85.3,103.6,85.3,108.6,85.3,108.6z M97.4,108.6h-8.3v-5.1h8.3V108.6z M109.7,108.6h-8.3v-5.1h8.3V108.6z M121.1,108.6h-7.6v-5.1
				h7.6V108.6z M118.1,99.7v-5.1h3.1v5.1H118.1z M121.1,90.8h-7.6v-5.1h7.6V90.8z"/>
		</g>
	</g>
	<g>
		<g>
			<path class="st0" d="M64.7,14H27c-1.1,0-2,0.9-2,2v60.3c0,1.1,0.9,2,2,2h37.9c1.1,0,2-0.9,2-2V16C66.7,14.9,65.8,14,64.7,14z
				 M62.9,74.2h-34V18h33.9L62.9,74.2L62.9,74.2z"/>
		</g>
	</g>
	<g>
		<g>
			<path class="st0" d="M123,14H73.7c-1.1,0-2,0.9-2,2v60.3c0,1.1,0.9,2,2,2H123c1.1,0,2-0.9,2-2V16C125,14.9,124.1,14,123,14z
				 M121.1,74.2H75.7v-48h45.5V74.2z M121.1,22.4H75.7V18h45.5V22.4z"/>
		</g>
	</g>
	<g>
		<g>
			<path class="st1" d="M56.5,23.8H35.1c-1.1,0-2,0.9-2,2s0.9,2,2,2h21.3c1.1,0,2-0.9,2-2C58.5,24.6,57.7,23.8,56.5,23.8z"/>
		</g>
	</g>
	<g>
		<g>
			<path class="st1" d="M45.9,32H35.3c-1.1,0-2,0.9-2,2c0,1.1,0.9,2,2,2h10.7c1.1,0,2-0.9,2-2C47.8,32.8,47,32,45.9,32z"/>
		</g>
	</g>
	<g>
		<g>
			<path class="st1" d="M56.5,40.1H35.1c-1.1,0-2,0.9-2,2s0.9,2,2,2h21.3c1.1,0,2-0.9,2-2C58.5,40.9,57.7,40.1,56.5,40.1z"/>
		</g>
	</g>
	<g>
		<g>
			<path class="st1" d="M45.9,48.2H35.3c-1.1,0-2,0.9-2,2s0.9,2,2,2h10.7c1.1,0,2-0.9,2-2C47.8,49,47,48.2,45.9,48.2z"/>
		</g>
	</g>
	<g>
		<g>
			<path class="st1" d="M56.5,56.4H35.1c-1.1,0-2,0.9-2,2s0.9,2,2,2h21.3c1.1,0,2-0.9,2-2C58.5,57.2,57.7,56.4,56.5,56.4z"/>
		</g>
	</g>
	<g>
		<g>
			<path class="st1" d="M45.9,64.5H35.3c-1.1,0-2,0.9-2,2s0.9,2,2,2h10.7c1.1,0,2-0.9,2-2C47.8,65.3,47,64.5,45.9,64.5z"/>
		</g>
	</g>
	<g>
		<g>
			<path class="st1" d="M84.3,49.3l6.1-6.1c0.8-0.8,0.8-2,0-2.8c-0.8-0.8-2-0.8-2.8,0L80.1,48c-0.8,0.8-0.8,2,0,2.8l7.6,7.6
				c0.4,0.4,0.9,0.5,1.3,0.5c0.5,0,0.9-0.1,1.3-0.5c0.8-0.8,0.8-2,0-2.8L84.3,49.3z"/>
		</g>
	</g>
	<g>
		<g>
			<path class="st1" d="M116.6,48l-7.6-7.6c-0.8-0.8-2-0.8-2.8,0c-0.8,0.8-0.8,2,0,2.8l6.1,6.1l-6.1,6.1c-0.8,0.8-0.8,2,0,2.8
				c0.4,0.4,0.9,0.5,1.3,0.5c0.4,0,0.9-0.1,1.3-0.5l7.6-7.6C117.4,50,117.4,48.8,116.6,48z"/>
		</g>
	</g>
	<g>
		<g>
			<path class="st1" d="M101.1,34.9c-1.1-0.3-2.1,0.4-2.4,1.5l-4.7,18.5c-0.3,1.1,0.4,2.1,1.5,2.4c0.1,0,0.3,0,0.5,0
				c0.9,0,1.7-0.5,1.9-1.5l4.7-18.5C102.9,36.2,102.2,35.2,101.1,34.9z"/>
		</g>
	</g>
</g>
</svg>
