<?xml version="1.0" encoding="utf-8"?>
<!-- Generator: Adobe Illustrator 21.0.2, SVG Export Plug-In . SVG Version: 6.00 Build 0)  -->
<svg version="1.1" id="Layer_1" xmlns="http://www.w3.org/2000/svg" xmlns:xlink="http://www.w3.org/1999/xlink" x="0px" y="0px"
	 viewBox="0 0 150 166.8" style="enable-background:new 0 0 150 166.8;" xml:space="preserve">
<style type="text/css">
	.st0{fill:#703081;}
	.st1{fill:#FFFFFF;}
	.st2{fill:#9B75A6;}
</style>
<g id="Layer_2">
	<g>
		<path class="st0" d="M75,0C33.6,0,0,33.6,0,75c0,39.2,30.2,71.4,68.6,74.8L56.4,162c-1,1-1,2.8,0,4c0.6,0.6,1.2,0.8,2,0.8
			s1.4-0.2,2-0.8L77,149.4c0.2-0.2,0.4-0.6,0.6-1c0.2-0.6,0.2-1.4,0-2.2c-0.2-0.4-0.4-0.6-0.6-1l-16.6-16.6c-1-1-2.8-1-4,0
			s-1,2.8,0,4L68,144.2C33,140.6,5.6,111,5.6,75C5.6,36.8,36.8,5.6,75,5.6s69.4,31.2,69.4,69.4c0,18.4-7.2,35.8-20.2,48.8
			c-1,1-1,2.8,0,4c1,1,2.8,1,4,0C142.2,113.6,150,95,150,75C150,33.8,116.4,0,75,0z"/>
	</g>
</g>
<g id="Layer_10">
	<ellipse class="st1" cx="75.6" cy="87" rx="8.9" ry="15.6"/>
	<path class="st2" d="M93.9,60.2V41c0-9.7-8.5-17.6-18.9-17.6S56.1,31.3,56.1,41v19.1c-9.4,6.2-15.5,16.7-15.5,28.8
		c0,19,15.4,34.5,34.5,34.5s34.5-15.4,34.5-34.5C109.5,76.9,103.3,66.3,93.9,60.2z M59.5,58.1V41c0-7.8,7-14.2,15.5-14.2
		S90.5,33.2,90.5,41v17.1c-0.4-0.2-0.6-0.3-1-0.5c-0.6-0.3-1.4-0.6-2-0.9c-0.5-0.2-0.9-0.4-1.4-0.5c-0.5-0.2-0.9-0.3-1.4-0.5
		c-0.7-0.2-1.5-0.5-2.3-0.6c-0.4-0.1-0.6-0.2-1-0.2c-0.9-0.2-1.8-0.3-2.8-0.5c-0.2,0-0.4,0-0.6-0.1c-1-0.1-2.1-0.2-3.1-0.2
		s-2.1,0.1-3.1,0.2c-0.2,0-0.5,0-0.6,0.1c-0.9,0.1-1.8,0.3-2.8,0.5c-0.4,0.1-0.6,0.1-1,0.2c-0.7,0.2-1.6,0.4-2.3,0.6
		c-0.5,0.1-0.9,0.3-1.4,0.5c-0.5,0.2-0.9,0.4-1.4,0.5c-0.7,0.3-1.4,0.6-2,0.9C60.1,57.9,59.8,58,59.5,58.1z M81.9,92.3
		c0,3.8-3.1,6.9-6.9,6.9s-6.9-3.1-6.9-6.9V82c0-3.8,3.1-6.9,6.9-6.9s6.9,3.1,6.9,6.9V92.3z"/>
</g>
</svg>
