<?xml version="1.0" encoding="utf-8"?>
<!-- Generator: Adobe Illustrator 20.1.0, SVG Export Plug-In . SVG Version: 6.00 Build 0)  -->
<svg version="1.1" id="Layer_1" xmlns="http://www.w3.org/2000/svg" xmlns:xlink="http://www.w3.org/1999/xlink" x="0px" y="0px"
	 viewBox="0 0 50 50" enable-background="new 0 0 50 50" xml:space="preserve">
<g>
	<path fill="#575757" d="M41.9,19.1v-1.9c0-4.5-1.6-8.8-4.5-11.9c-3-3.2-7.1-5-11.6-5h-1.6c-4.5,0-8.6,1.8-11.6,5
		c-2.9,3.1-4.5,7.4-4.5,11.9v1.9c-3.5,0.2-6.3,3.2-6.3,6.8v3c0,3.7,3,6.8,6.8,6.8h3.8c0.7,0,1.2-0.6,1.2-1.2V20.3
		c0-0.7-0.6-1.2-1.2-1.2h-1.8v-1.9c0-8.2,5.8-14.4,13.6-14.4h1.6c7.8,0,13.6,6.2,13.6,14.4v1.9h-1.8c-0.7,0-1.2,0.6-1.2,1.2v14.1
		c0,0.7,0.6,1.2,1.2,1.2h1.7c-0.5,6.5-5,8-7.1,8.3c-0.6-1.8-2.2-3-4.2-3H25c-2.4,0-4.4,2-4.4,4.4s2,4.4,4.4,4.4h3.1
		c2,0,3.7-1.4,4.2-3.2c1-0.1,2.6-0.5,4.2-1.4c2.3-1.3,4.9-4,5.3-9.4c3.6-0.2,6.4-3.2,6.4-6.8v-3C48.2,22.3,45.4,19.3,41.9,19.1z
		 M11.2,33.1H8.6c-2.4,0-4.3-1.9-4.3-4.3v-3c0-2.4,1.9-4.3,4.3-4.3h2.6V33.1z M28.1,47.2H25c-1,0-1.9-0.8-1.9-1.9
		c0-1,0.8-1.9,1.9-1.9h3.1c1,0,1.9,0.8,1.9,1.9C30,46.4,29.2,47.2,28.1,47.2z M45.7,28.8c0,2.4-1.9,4.3-4.3,4.3h-2.6V21.6h2.6
		c2.4,0,4.3,1.9,4.3,4.3V28.8z"/>
</g>
</svg>
