<?xml version="1.0" encoding="utf-8"?>
<!-- Generator: Adobe Illustrator 21.0.2, SVG Export Plug-In . SVG Version: 6.00 Build 0)  -->
<svg version="1.1" id="Layer_1" xmlns="http://www.w3.org/2000/svg" xmlns:xlink="http://www.w3.org/1999/xlink" x="0px" y="0px"
	 viewBox="0 0 150 150" style="enable-background:new 0 0 150 150;" xml:space="preserve">
<style type="text/css">
	.st0{fill:#703081;}
	.st1{fill:#DF6B90;}
</style>
<g id="Layer_2">
	<path class="st0" d="M75,0C33.6,0,0,33.6,0,75s33.6,75,75,75s75-33.6,75-75S116.4,0,75,0z M75,3.1c39.7,0,71.9,32.2,71.9,71.9
		s-32.2,71.9-71.9,71.9S3.1,114.7,3.1,75S35.3,3.1,75,3.1z"/>
</g>
<g>
	<g>
		<path class="st1" d="M123.3,50.8h-35H55c-0.9,0-1.7,0.7-1.7,1.7v50c0,0.9,0.7,1.7,1.7,1.7h31.7v10.1H69.8c-0.9,0-1.7,0.7-1.7,1.7
			c0,0.9,0.7,1.7,1.7,1.7h37c0.9,0,1.7-0.7,1.7-1.7c0-0.9-0.7-1.7-1.7-1.7H90v-10.1h33.3c0.9,0,1.7-0.7,1.7-1.7v-50
			C125,51.5,124.3,50.8,123.3,50.8z M121.7,100.8h-65V54.1h65V100.8z"/>
		<path class="st0" d="M68.8,70.3c0.3,0.3,0.8,0.5,1.2,0.5s0.9-0.2,1.2-0.5l6.7-6.7c0.7-0.7,0.7-1.7,0-2.4c-0.7-0.7-1.7-0.7-2.4,0
			L70,66.8L66.2,63c-0.7-0.7-1.7-0.7-2.4,0c-0.7,0.7-0.7,1.7,0,2.4L68.8,70.3z"/>
		<path class="st0" d="M85,65.8h26.7c0.9,0,1.7-0.7,1.7-1.7c0-0.9-0.7-1.7-1.7-1.7H85c-0.9,0-1.7,0.7-1.7,1.7
			C83.3,65.1,84.1,65.8,85,65.8z"/>
		<path class="st0" d="M68.8,83.6c0.3,0.3,0.8,0.5,1.2,0.5s0.9-0.2,1.2-0.5l6.7-6.7c0.7-0.7,0.7-1.7,0-2.4c-0.7-0.7-1.7-0.7-2.4,0
			L70,80.1l-3.8-3.8c-0.7-0.7-1.7-0.7-2.4,0c-0.7,0.7-0.7,1.7,0,2.4L68.8,83.6z"/>
		<path class="st0" d="M85,79.1h26.7c0.9,0,1.7-0.7,1.7-1.7s-0.7-1.7-1.7-1.7H85c-0.9,0-1.7,0.7-1.7,1.7S84.1,79.1,85,79.1z"/>
		<path class="st0" d="M85,92.5h26.7c0.9,0,1.7-0.7,1.7-1.7c0-0.9-0.7-1.7-1.7-1.7H85c-0.9,0-1.7,0.7-1.7,1.7
			C83.3,91.7,84.1,92.5,85,92.5z"/>
		<circle class="st0" cx="70" cy="90.8" r="1.7"/>
		<path class="st1" d="M36.7,55.8v-4.3c0-0.9-0.7-1.7-1.7-1.7s-1.7,0.7-1.7,1.7v4.3c-4.6,0-8.3,3.7-8.3,8.3v13.3
			c0,4.6,3.7,8.3,8.3,8.3h3.3c4.6,0,8.3-3.7,8.3-8.3V64.1C45,59.5,41.3,55.8,36.7,55.8z M33.3,59.1h3.3c2.8,0,5,2.2,5,5v6.7H28.3
			v-6.7C28.3,61.4,30.6,59.1,33.3,59.1z M36.7,82.5h-3.3c-2.8,0-5-2.2-5-5v-3.3h13.3v3.3C41.7,80.2,39.4,82.5,36.7,82.5z"/>
		<circle class="st0" cx="35" cy="65.8" r="1.7"/>
		<path class="st0" d="M68.8,35.8h5c0.9,0,1.7-0.7,1.7-1.7c0-0.9-0.7-1.7-1.7-1.7h-5c-0.9,0-1.7,0.7-1.7,1.7
			C67.1,35.1,67.9,35.8,68.8,35.8z"/>
		<path class="st0" d="M82,35.8c1.3,0.1,2.4,0.7,3.3,1.6c0.3,0.4,0.8,0.5,1.2,0.5c0.4,0,0.8-0.1,1.1-0.4c0.7-0.6,0.7-1.7,0.1-2.4
			c-1.4-1.6-3.4-2.5-5.5-2.6c-1-0.1-1.7,0.6-1.8,1.5S81.1,35.8,82,35.8z"/>
		<path class="st0" d="M55.5,35.8h5c0.9,0,1.7-0.7,1.7-1.7c0-0.9-0.7-1.7-1.7-1.7h-5c-0.9,0-1.7,0.7-1.7,1.7
			C53.8,35.1,54.5,35.8,55.5,35.8z"/>
		<path class="st0" d="M47.1,32.5h-5c-0.9,0-1.7,0.7-1.7,1.7c0,0.9,0.7,1.7,1.7,1.7h5c0.9,0,1.7-0.7,1.7-1.7
			C48.8,33.2,48.1,32.5,47.1,32.5z"/>
		<path class="st0" d="M35,44.9c0.9,0,1.7-0.7,1.7-1.7v-2.4c0-0.7,0.1-1.3,0.4-1.9c0.4-0.8-0.1-1.8-0.9-2.2c-0.8-0.4-1.8,0-2.2,0.9
			c-0.4,1-0.6,2.1-0.6,3.2v2.4C33.3,44.1,34.1,44.9,35,44.9z"/>
		<path class="st0" d="M90,49.1v-5c0-0.9-0.7-1.7-1.7-1.7c-0.9,0-1.7,0.7-1.7,1.7v5c0,0.9,0.7,1.7,1.7,1.7
			C89.3,50.8,90,50.1,90,49.1z"/>
	</g>
</g>
</svg>
