<?xml version="1.0" encoding="utf-8"?>
<!-- Generator: Adobe Illustrator 21.0.2, SVG Export Plug-In . SVG Version: 6.00 Build 0)  -->
<svg version="1.1" id="Layer_1" xmlns="http://www.w3.org/2000/svg" xmlns:xlink="http://www.w3.org/1999/xlink" x="0px" y="0px"
	 viewBox="0 0 140 111.6" style="enable-background:new 0 0 140 111.6;" xml:space="preserve">
<style type="text/css">
	.st0{fill:#703081;}
	.st1{fill:#DF6B90;}
	.st2{fill:#FFFFFF;}
</style>
<g id="Layer_1_copy">
</g>
<g>
	<g id="Layer_1_1_">
		<g>
			<path class="st0" d="M96.3,37.4H21.9c-4.5,0-8.1,3.4-8.1,7.5v46.4c0,4.1,3.6,7.5,8.1,7.5h74.4c4.5,0,8.1-3.4,8.1-7.5V44.9
				C104.4,40.7,100.8,37.4,96.3,37.4z M96.3,42.2c0.2,0,0.4,0,0.6,0.2L59.1,71L20.6,42.6c0.3-0.2,0.9-0.4,1.3-0.4H96.3z M96.3,93.9
				H21.9c-1.7,0-3-1.1-3-2.6V47.5l40.2,29.7l40.2-30.5v44.5C99.3,92.8,98,93.9,96.3,93.9z"/>
			
				<rect x="31.9" y="11.2" transform="matrix(0.7071 -0.7071 0.7071 0.7071 4.5133 38.3021)" class="st1" width="33.1" height="5.1"/>
			
				<rect x="109.9" y="11" transform="matrix(0.7071 -0.7071 0.7071 0.7071 27.4994 93.4007)" class="st1" width="33.1" height="5.1"/>
			<rect x="70" y="11" transform="matrix(0.7071 -0.7071 0.7071 0.7071 15.8069 65.1726)" class="st0" width="33.1" height="5.1"/>
			
				<rect x="109.8" y="73.1" transform="matrix(0.7071 -0.7071 0.7071 0.7071 -16.4838 111.5148)" class="st1" width="33.1" height="5.1"/>
			
				<rect x="109.9" y="43.1" transform="matrix(0.7071 -0.7071 0.7071 0.7071 4.7832 102.7833)" class="st0" width="33.1" height="5.1"/>
		</g>
	</g>
	<g>
		<g>
			<g>
				<g>
					<g>
						<path class="st1" d="M40,91.6c0,11-9,20-20,20s-20-9-20-20c0-11,9-20,20-20C31.1,71.6,40,80.6,40,91.6z"/>
					</g>
				</g>
			</g>
		</g>
	</g>
	<g>
		<path class="st2" d="M33.5,93.3c-0.6-0.2-1.2,0.3-1.2,0.9c-1.2,6.1-6,10.2-11.9,10.2c-5.6,0-10.4-3.7-12.1-8.8h5.1v-2.2H4.6v8.8
			h2.1v-4.2c2.4,5.2,7.7,8.7,13.5,8.7c7,0,12.7-4.9,14.1-11.9C34.4,94,34,93.4,33.5,93.3z"/>
		<path class="st2" d="M33.2,80.1v4.7c-2.5-5-7.4-8.1-13-8.1c-6.8,0-12.8,4.4-14.6,10.8c-0.2,0.6,0.2,1.2,0.7,1.3
			c0.6,0.2,1.2-0.2,1.4-0.7c1.6-5.3,6.8-9.1,12.5-9.1c5,0,9.5,3,11.4,7.8h-5v2.2h8.8v-8.8H33.2L33.2,80.1z"/>
	</g>
</g>
</svg>
