<?xml version="1.0" encoding="utf-8"?>
<!-- Generator: Adobe Illustrator 21.0.2, SVG Export Plug-In . SVG Version: 6.00 Build 0)  -->
<svg version="1.1" id="Layer_1" xmlns="http://www.w3.org/2000/svg" xmlns:xlink="http://www.w3.org/1999/xlink" x="0px" y="0px"
	 viewBox="0 0 150 150" style="enable-background:new 0 0 150 150;" xml:space="preserve">
<style type="text/css">
	.st0{fill:#703081;}
	.st1{fill:#DF6B90;}
</style>
<g>
	<g>
		<g>
			<g>
				<g>
					<path class="st0" d="M117.5,38.1H22.9c-4.4,0-7.9,3.5-7.9,7.9v55.2c0,4.4,3.5,7.9,7.9,7.9H80c1.1,0,2-0.9,2-2s-0.9-2-2-2H22.9
						c-2.2,0-3.9-1.8-3.9-3.9V46c0-2.2,1.8-3.9,3.9-3.9h94.6c2.2,0,3.9,1.8,3.9,3.9v21.7c0,1.1,0.9,2,2,2s2-0.9,2-2V46
						C125.4,41.7,121.8,38.1,117.5,38.1z"/>
					<path class="st1" d="M40.6,85.4H28.8c-1.1,0-2-0.9-2-2l0,0c0-1.1,0.9-2,2-2h11.8c1.1,0,2,0.9,2,2l0,0
						C42.6,84.5,41.7,85.4,40.6,85.4z"/>
					<path class="st0" d="M72.2,97.3H28.8c-1.1,0-2-0.9-2-2l0,0c0-1.1,0.9-2,2-2h43.4c1.1,0,2,0.9,2,2l0,0
						C74.1,96.4,73.2,97.3,72.2,97.3z"/>
					<path class="st1" d="M64.3,85.4H52.4c-1.1,0-2-0.9-2-2l0,0c0-1.1,0.9-2,2-2h11.8c1.1,0,2,0.9,2,2l0,0
						C66.2,84.5,65.4,85.4,64.3,85.4z"/>
					<path class="st1" d="M87.9,85.4H76.1c-1.1,0-2-0.9-2-2l0,0c0-1.1,0.9-2,2-2h11.8c1.1,0,2,0.9,2,2l0,0
						C89.9,84.5,89,85.4,87.9,85.4z"/>
					<path class="st1" d="M46.5,53.9v15.8H30.8V53.9H46.5 M46.5,49.9H30.8c-2.2,0-3.9,1.8-3.9,3.9v15.8c0,2.2,1.8,3.9,3.9,3.9h15.8
						c2.2,0,3.9-1.8,3.9-3.9V53.9C50.5,51.7,48.7,49.9,46.5,49.9L46.5,49.9z"/>
				</g>
			</g>
		</g>
	</g>
	<g transform="translate(0,-1028.3622)">
		<path class="st0" d="M108.6,1115.4c-2.6,0-5.2,0.6-7.7,1.6l-0.9,0.4v6.8h1.5h16v-6.8l-0.9-0.4
			C113.9,1115.9,111.2,1115.4,108.6,1115.4z M108.6,1118.3c1.9,0,3.9,0.4,5.9,1.1v1.8h-11.7v-1.7
			C104.8,1118.9,106.7,1118.4,108.6,1118.3z"/>
		<path class="st0" d="M108.8,1105.2c-2.4,0-4.4,2-4.4,4.4s2,4.4,4.4,4.4s4.4-2,4.4-4.4C113.1,1107.2,111.2,1105.2,108.8,1105.2z
			 M108.8,1108.2c0.8,0,1.5,0.6,1.5,1.5c0,0.8-0.6,1.5-1.5,1.5c-0.8,0-1.5-0.6-1.5-1.5C107.3,1108.8,107.9,1108.2,108.8,1108.2z"/>
		<path class="st0" d="M126.1,1131.5c-2.6,0-5.2,0.6-7.7,1.6l-0.9,0.4v6.8h1.5h16v-6.8l-0.9-0.4
			C131.4,1131.9,128.7,1131.4,126.1,1131.5z M126.1,1134.4c1.9,0,3.9,0.4,5.9,1.1v1.8h-11.7v-1.7
			C122.3,1134.9,124.2,1134.4,126.1,1134.4z"/>
		<path class="st0" d="M126.3,1121.3c-2.4,0-4.4,2-4.4,4.4s2,4.4,4.4,4.4c2.4,0,4.4-2,4.4-4.4
			C130.6,1123.3,128.7,1121.3,126.3,1121.3z M126.3,1124.2c0.8,0,1.5,0.6,1.5,1.5c0,0.8-0.6,1.5-1.5,1.5s-1.5-0.6-1.5-1.5
			C124.8,1124.8,125.4,1124.2,126.3,1124.2z"/>
		<path class="st1" d="M107.3,1127.1v10.2h7.3v-2.9h-4.4v-7.3L107.3,1127.1L107.3,1127.1z"/>
		<path class="st1" d="M117.5,1109.6v2.9h7.3v4.4h2.9v-7.3C127.7,1109.6,117.5,1109.6,117.5,1109.6z"/>
	</g>
</g>
</svg>
