<?xml version="1.0" encoding="utf-8"?>
<!-- Generator: Adobe Illustrator 21.0.2, SVG Export Plug-In . SVG Version: 6.00 Build 0)  -->
<svg version="1.1" id="Layer_1" xmlns="http://www.w3.org/2000/svg" xmlns:xlink="http://www.w3.org/1999/xlink" x="0px" y="0px"
	 viewBox="0 0 150 92.3" style="enable-background:new 0 0 150 92.3;" xml:space="preserve">
<style type="text/css">
	.st0{fill:#703081;}
	.st1{fill:#DF6B90;}
</style>
<g>
	<g>
		<g>
			<g>
				<g>
					<path class="st0" d="M128.1,0H9.9C4.4,0,0,4.4,0,9.9v69c0,5.5,4.4,9.9,9.9,9.9h71.4c1.4,0,2.5-1.1,2.5-2.5s-1.1-2.5-2.5-2.5
						H9.9c-2.8,0-4.9-2.3-4.9-4.9v-69C5,7.1,7.2,5,9.9,5h118.3c2.8,0,4.9,2.2,4.9,4.9V37c0,1.4,1.1,2.5,2.5,2.5s2.5-1.1,2.5-2.5V9.9
						C138,4.5,133.5,0,128.1,0z"/>
					<path class="st1" d="M32,59.1H17.3c-1.4,0-2.5-1.1-2.5-2.5l0,0c0-1.4,1.1-2.5,2.5-2.5H32c1.4,0,2.5,1.1,2.5,2.5l0,0
						C34.5,58,33.4,59.1,32,59.1z"/>
					<path class="st0" d="M71.5,74H17.3c-1.4,0-2.5-1.1-2.5-2.5l0,0c0-1.4,1.1-2.5,2.5-2.5h54.3c1.4,0,2.5,1.1,2.5,2.5l0,0
						C73.9,72.9,72.8,74,71.5,74z"/>
					<path class="st1" d="M61.6,59.1H46.8c-1.4,0-2.5-1.1-2.5-2.5l0,0c0-1.4,1.1-2.5,2.5-2.5h14.8c1.4,0,2.5,1.1,2.5,2.5l0,0
						C64,58,63,59.1,61.6,59.1z"/>
					<path class="st1" d="M91.1,59.1H76.4c-1.4,0-2.5-1.1-2.5-2.5l0,0c0-1.4,1.1-2.5,2.5-2.5h14.8c1.4,0,2.5,1.1,2.5,2.5l0,0
						C93.6,58,92.5,59.1,91.1,59.1z"/>
					<path class="st1" d="M39.4,19.8v19.8H19.8V19.8H39.4 M39.4,14.8H19.8c-2.8,0-4.9,2.3-4.9,4.9v19.8c0,2.8,2.2,4.9,4.9,4.9h19.8
						c2.8,0,4.9-2.3,4.9-4.9V19.8C44.4,17,42.1,14.8,39.4,14.8L39.4,14.8z"/>
				</g>
			</g>
		</g>
	</g>
	<g transform="translate(0,-1028.3622)">
		<path class="st0" d="M117,1089.5c-3.3,0-6.5,0.7-9.6,2l-1.1,0.5v8.5h1.9h20v-8.5l-1.1-0.5C123.6,1090.2,120.3,1089.5,117,1089.5z
			 M117,1093.2c2.4,0,4.9,0.5,7.4,1.4v2.3h-14.6v-2.1C112.3,1093.9,114.6,1093.3,117,1093.2z"/>
		<path class="st0" d="M117.3,1076.8c-3,0-5.5,2.5-5.5,5.5s2.5,5.5,5.5,5.5c3,0,5.5-2.5,5.5-5.5
			C122.6,1079.3,120.3,1076.8,117.3,1076.8z M117.3,1080.5c1,0,1.9,0.8,1.9,1.9c0,1-0.7,1.9-1.9,1.9c-1,0-1.9-0.8-1.9-1.9
			C115.4,1081.3,116.1,1080.5,117.3,1080.5z"/>
		<path class="st0" d="M138.9,1109.7c-3.3,0-6.5,0.8-9.6,2l-1.1,0.5v8.5h1.9h20v-8.5l-1.1-0.5
			C145.5,1110.2,142.1,1109.5,138.9,1109.7z M138.9,1113.3c2.4,0,4.9,0.5,7.4,1.4v2.3h-14.6v-2.1
			C134.1,1113.9,136.5,1113.3,138.9,1113.3z"/>
		<path class="st0" d="M139.1,1096.9c-3,0-5.5,2.5-5.5,5.5s2.5,5.5,5.5,5.5s5.5-2.5,5.5-5.5C144.5,1099.4,142.1,1096.9,139.1,1096.9
			z M139.1,1100.5c1,0,1.9,0.8,1.9,1.9c0,1-0.8,1.9-1.9,1.9s-1.9-0.8-1.9-1.9C137.3,1101.3,138,1100.5,139.1,1100.5z"/>
		<path class="st1" d="M115.4,1104.2v12.8h9.1v-3.6H119v-9.1L115.4,1104.2L115.4,1104.2z"/>
		<path class="st1" d="M128.1,1082.3v3.6h9.1v5.5h3.6v-9.1C140.9,1082.3,128.1,1082.3,128.1,1082.3z"/>
	</g>
</g>
</svg>
