<?xml version="1.0" encoding="utf-8"?>
<!-- Generator: Adobe Illustrator 21.0.2, SVG Export Plug-In . SVG Version: 6.00 Build 0)  -->
<svg version="1.1" id="Layer_1" xmlns="http://www.w3.org/2000/svg" xmlns:xlink="http://www.w3.org/1999/xlink" x="0px" y="0px"
	 viewBox="0 0 150 150" style="enable-background:new 0 0 150 150;" xml:space="preserve">
<style type="text/css">
	.st0{fill:#703081;}
	.st1{fill:#DF6B90;}
	.st2{display:none;fill:#DF6B90;}
</style>
<g id="Layer_2">
	<path class="st0" d="M75,0C33.6,0,0,33.6,0,75s33.6,75,75,75s75-33.6,75-75S116.4,0,75,0z M75,3.1c39.7,0,71.9,32.2,71.9,71.9
		s-32.2,71.9-71.9,71.9S3.1,114.7,3.1,75S35.3,3.1,75,3.1z"/>
</g>
<g>
	<g>
		<g>
			<g>
				<g>
					<g>
						<g>
							<path class="st1" d="M48.4,112.2H30.6c-1.7,0-3-1.3-3-3l0,0c0-1.7,1.3-3,3-3h17.8c1.7,0,3,1.3,3,3l0,0
								C51.2,110.9,50.1,112.2,48.4,112.2z"/>
							<path class="st0" d="M111,130H46c-1.7,0-3-1.3-3-3l0,0c0-1.7,1.3-3,3-3h65c1.7,0,3,1.3,3,3l0,0C114,128.7,112.7,130,111,130z
								"/>
							<path class="st1" d="M83.8,112.2H66.1c-1.7,0-3-1.3-3-3l0,0c0-1.7,1.3-3,3-3h17.8c1.7,0,3,1.3,3,3l0,0
								C86.8,110.9,85.5,112.2,83.8,112.2z"/>
							<path class="st1" d="M119.4,112.2h-17.8c-1.7,0-3-1.3-3-3l0,0c0-1.7,1.3-3,3-3h17.8c1.7,0,3,1.3,3,3l0,0
								C122.3,110.9,121,112.2,119.4,112.2z"/>
							<path class="st2" d="M57.2,65v23.7H33.6V65H57.2 M57.2,59H33.6c-3.3,0-5.9,2.7-5.9,5.9v23.7c0,3.2,2.7,5.9,5.9,5.9h23.7
								c3.3,0,5.9-2.7,5.9-5.9V65C63.1,61.8,60.4,59,57.2,59L57.2,59z"/>
						</g>
					</g>
				</g>
			</g>
		</g>
	</g>
</g>
<g transform="translate(0,-1028.3622)">
	<path class="st0" d="M54.6,1068.9c-6,0-11.8,1.3-17.5,3.6l-2,0.9v15.5h3.5H75v-15.5l-2-0.9C66.6,1070.2,60.6,1068.9,54.6,1068.9z
		 M54.6,1075.6c4.4,0,8.9,0.9,13.5,2.6v4.2H41.5v-3.8C46,1076.9,50.2,1075.8,54.6,1075.6z"/>
	<path class="st0" d="M55.1,1045.8c-5.5,0-10,4.6-10,10c0,5.5,4.6,10,10,10s10-4.6,10-10C64.8,1050.3,60.6,1045.8,55.1,1045.8z
		 M55.1,1052.5c1.8,0,3.5,1.5,3.5,3.5c0,1.8-1.3,3.5-3.5,3.5c-1.8,0-3.5-1.5-3.5-3.5S52.9,1052.5,55.1,1052.5z"/>
	<path class="st0" d="M94.5,1105.7c-6,0-11.8,1.5-17.5,3.6l-2,0.9v15.5h3.5h36.4v-15.5l-2-0.9
		C106.5,1106.6,100.3,1105.3,94.5,1105.7z M94.5,1112.3c4.4,0,8.9,0.9,13.5,2.6v4.2H81.4v-3.8C85.8,1113.4,90.1,1112.3,94.5,1112.3z
		"/>
	<path class="st0" d="M94.9,1082.4c-5.5,0-10,4.6-10,10c0,5.5,4.6,10,10,10c5.5,0,10-4.6,10-10
		C104.7,1086.9,100.3,1082.4,94.9,1082.4z M94.9,1088.9c1.8,0,3.5,1.5,3.5,3.5c0,1.8-1.5,3.5-3.5,3.5c-2,0-3.5-1.5-3.5-3.5
		C91.6,1090.4,92.9,1088.9,94.9,1088.9z"/>
	<path class="st1" d="M51.7,1095.7v23.3h16.6v-6.6h-10v-16.6L51.7,1095.7L51.7,1095.7z"/>
	<path class="st1" d="M74.8,1055.8v6.6h16.6v10H98v-16.6C98.1,1055.8,74.8,1055.8,74.8,1055.8z"/>
</g>
</svg>
