<?xml version="1.0" encoding="utf-8"?>
<!-- Generator: Adobe Illustrator 20.1.0, SVG Export Plug-In . SVG Version: 6.00 Build 0)  -->
<svg version="1.1" id="Layer_1" xmlns="http://www.w3.org/2000/svg" xmlns:xlink="http://www.w3.org/1999/xlink" x="0px" y="0px"
	 viewBox="0 0 50 50" enable-background="new 0 0 50 50" xml:space="preserve">
<g>
	<g>
		<path fill="#703975" d="M40,14.8H10c-0.5,0-1,0.4-1,1v15c0,0.5,0.4,1,1,1c0.5,0,1-0.4,1-1v-14H39v14l0,0c0,0.5,0.4,1,1,1
			s1-0.4,1-1v-15C41,15.2,40.6,14.8,40,14.8z"/>
	</g>
</g>
<g>
	<g>
		<path fill="#703975" d="M47.2,34.3h-1.8V13.5c0-1.7-1.3-3-3-3H7.7c-1.7,0-3,1.3-3,3v20.8H2.8c-0.5,0-0.9,0.4-0.9,0.9v1.8
			c0,2.4,2,4.4,4.4,4.4h37.3c2.4,0,4.4-2,4.4-4.4v-1.8C48.1,34.7,47.7,34.3,47.2,34.3z M6.6,13.5c0-0.6,0.5-1,1-1h34.7
			c0.6,0,1,0.5,1,1v20.8H29.9c-0.1,0-0.1,0-0.2,0c-0.4,0.1-0.7,0.4-0.7,0.9c0,0.8-0.6,1.4-1.4,1.4h-5.3c-0.8,0-1.4-0.6-1.4-1.4
			c0-0.5-0.4-0.9-0.9-0.9H6.6V13.5z M46.3,36.9L46.3,36.9c0,1.4-1.2,2.6-2.6,2.6H6.3c-1.4,0-2.6-1.2-2.6-2.6v-0.9h15.6
			c0.4,1.3,1.6,2.3,3,2.3h5.3c1.4,0,2.6-1,3-2.3h15.6L46.3,36.9L46.3,36.9z"/>
	</g>
</g>
<g>
	<g>
		<path fill="#703975" d="M26.5,20.5c-0.4-0.4-1-0.4-1.4,0l-6.2,6.2c-0.4,0.4-0.4,1,0,1.4c0.2,0.2,0.4,0.3,0.7,0.3
			c0.3,0,0.5-0.1,0.7-0.3l6.2-6.2C26.9,21.6,26.9,20.9,26.5,20.5z"/>
	</g>
</g>
<g>
	<g>
		<path fill="#703975" d="M30.2,24.2c-0.4-0.4-1-0.4-1.4,0l-2.5,2.5c-0.4,0.4-0.4,1,0,1.4c0.2,0.2,0.4,0.3,0.7,0.3
			c0.3,0,0.5-0.1,0.7-0.3l2.5-2.5C30.6,25.2,30.6,24.5,30.2,24.2z"/>
	</g>
</g>
</svg>
