<?xml version="1.0" encoding="utf-8"?>
<!-- Generator: Adobe Illustrator 20.1.0, SVG Export Plug-In . SVG Version: 6.00 Build 0)  -->
<svg version="1.1" id="Layer_1" xmlns="http://www.w3.org/2000/svg" xmlns:xlink="http://www.w3.org/1999/xlink" x="0px" y="0px"
	 viewBox="0 0 50 50" enable-background="new 0 0 50 50" xml:space="preserve">
<g>
	<g>
		<path fill="#F4F4F5" d="M38.7,14.8H11.3c-0.5,0-0.9,0.4-0.9,0.9v13.7c0,0.5,0.4,0.9,0.9,0.9s0.9-0.4,0.9-0.9V16.6h25.6v12.8l0,0
			c0,0.5,0.4,0.9,0.9,0.9s0.9-0.4,0.9-0.9V15.7C39.6,15.2,39.2,14.8,38.7,14.8z"/>
	</g>
</g>
<g>
	<g>
		<path fill="#F4F4F5" d="M45.2,32.7h-1.7v-19c0-1.5-1.2-2.7-2.7-2.7H9.2c-1.5,0-2.7,1.2-2.7,2.7v19H4.8c-0.5,0-0.8,0.4-0.8,0.8v1.6
			c0,2.2,1.8,4,4,4H42c2.2,0,4-1.8,4-4v-1.6C46.1,33,45.7,32.7,45.2,32.7z M8.2,13.6c0-0.5,0.4-0.9,0.9-0.9h31.7
			c0.5,0,0.9,0.4,0.9,0.9v19H29.5c-0.1,0-0.1,0-0.2,0c-0.4,0.1-0.7,0.4-0.7,0.8c0,0.7-0.6,1.2-1.2,1.2h-4.8c-0.7,0-1.2-0.6-1.2-1.2
			c0-0.5-0.4-0.8-0.8-0.8H8.2V13.6z M44.4,35.1L44.4,35.1c0,1.3-1.1,2.4-2.4,2.4H8c-1.3,0-2.4-1.1-2.4-2.4v-0.8h14.3
			c0.4,1.2,1.5,2.1,2.8,2.1h4.8c1.3,0,2.4-0.9,2.8-2.1h14.3L44.4,35.1L44.4,35.1z"/>
	</g>
</g>
<g>
	<g>
		<path fill="#F4F4F5" d="M26.3,20.1c-0.4-0.4-0.9-0.4-1.3,0l-5.7,5.7c-0.4,0.4-0.4,0.9,0,1.3c0.2,0.2,0.4,0.3,0.6,0.3
			c0.2,0,0.5-0.1,0.6-0.3l5.7-5.7C26.7,21,26.7,20.5,26.3,20.1z"/>
	</g>
</g>
<g>
	<g>
		<path fill="#F4F4F5" d="M29.7,23.4c-0.4-0.4-0.9-0.4-1.3,0l-2.3,2.3c-0.4,0.4-0.4,0.9,0,1.3c0.2,0.2,0.4,0.3,0.6,0.3
			c0.2,0,0.5-0.1,0.6-0.3l2.3-2.3C30.1,24.3,30.1,23.8,29.7,23.4z"/>
	</g>
</g>
</svg>
