<?xml version="1.0" encoding="utf-8"?>
<!-- Generator: Adobe Illustrator 21.0.2, SVG Export Plug-In . SVG Version: 6.00 Build 0)  -->
<svg version="1.1" id="Layer_1" xmlns="http://www.w3.org/2000/svg" xmlns:xlink="http://www.w3.org/1999/xlink" x="0px" y="0px"
	 viewBox="0 0 150 166.8" style="enable-background:new 0 0 150 166.8;" xml:space="preserve">
<style type="text/css">
	.st0{fill:#703081;}
	.st1{display:none;fill:#9B75A6;}
	.st2{fill:#9B75A6;}
</style>
<g id="Layer_2">
	<g>
		<path class="st0" d="M75,0C33.6,0,0,33.6,0,75c0,39.2,30.2,71.4,68.6,74.8L56.4,162c-1,1-1,2.8,0,4c0.6,0.6,1.2,0.8,2,0.8
			s1.4-0.2,2-0.8L77,149.4c0.2-0.2,0.4-0.6,0.6-1c0.2-0.6,0.2-1.4,0-2.2c-0.2-0.4-0.4-0.6-0.6-1l-16.6-16.6c-1-1-2.8-1-4,0
			s-1,2.8,0,4L68,144.2C33,140.6,5.6,111,5.6,75C5.6,36.8,36.8,5.6,75,5.6s69.4,31.2,69.4,69.4c0,18.4-7.2,35.8-20.2,48.8
			c-1,1-1,2.8,0,4c1,1,2.8,1,4,0C142.2,113.6,150,95,150,75C150,33.8,116.4,0,75,0z"/>
	</g>
</g>
<g id="Layer_6">
	<g>
		<g id="vpn">
			<path class="st1" d="M32,95.7c-3-3.4-2.5-10.3,2.7-11.3c-0.4-2.1-0.6-4.3-0.6-6.5c0-2.7,0.4-5.5,0.9-8.1l12.5,12.5
				c7.9-1.5,15.7-2.8,23.6-3c0.5-0.5,1-0.9,1.5-1.3H52.4v-7.6C49.1,75,40,73.8,40.2,66.7c0.5-15.3,13.3-30.3,29.7-27.4
				c7.1,1.2,11.6,4.9,12.2,12.2c0,0.1,0,0.3,0.1,0.4c1.3-1.6,2-3.5,2-5.7V34.6c-4.1-1.3-9.1-2.3-13.6-2.3C45.4,32.4,25,52.9,25,77.9
				c0,6.8,1.5,13.2,4.1,19C30.1,96.5,31.1,96.1,32,95.7z"/>
			<path class="st1" d="M67.2,52.3c-2.6,0.5-4.5,0.2-6.9,1.7c-4.3,2.7-6.6,7.7-6.7,12.7c0,0.8-0.2,1.5-0.4,2.2h8.3
				c2.7,0,4.5-1.9,4.5-4.5v-9.1h2.9c0-0.3-0.1-0.6-0.1-0.9c0-0.5,0-1-0.1-1.5C68.5,52.9,67.9,52.7,67.2,52.3z"/>
			<path class="st0" d="M97.8,64.2h22.7c2.7,0,4.5-1.9,4.5-4.5V41.4c0.1-2.7-1.7-4.5-4.4-4.5v-2.3c0-6.4-5.1-11.3-11.3-11.3
				c-6.3,0-11.5,5.1-11.5,11.3v2.3c-2.7,0-4.5,1.9-4.5,4.5v18.1C93.2,62.3,95.1,64.2,97.8,64.2z M101.5,34.6c0-4.1,3.6-7.7,7.7-7.7
				c4.1,0,7.7,3.6,7.7,7.7v2.3h-15.5V34.6z"/>
			<path class="st2" d="M107,73.3c0,1.3,0.4,3.2,0.4,4.5c0,9.6-3.6,18.1-9.6,24.5c-1.3-3.6-4.5-6.4-8.7-6.4h-4.5V82.5
				c0-2.7-1.9-4.5-4.5-4.5H52.9v-9.1H62c2.7,0,4.5-1.9,4.5-4.5v-9.1h9.1c5.1,0,9.1-4.1,9.1-9.1V34.6c-4.1-1.3-9.1-2.3-13.6-2.3
				c-25.1,0-45.6,20.4-45.6,45.6s20.4,45.6,45.6,45.6s45.6-20.4,45.6-45.6c0-1.3,0-3.2-0.4-4.5C116.2,73.3,107,73.3,107,73.3z"/>
		</g>
	</g>
</g>
</svg>
