<?xml version="1.0" encoding="utf-8"?>
<!-- Generator: Adobe Illustrator 21.0.2, SVG Export Plug-In . SVG Version: 6.00 Build 0)  -->
<svg version="1.1" id="Layer_1" xmlns="http://www.w3.org/2000/svg" xmlns:xlink="http://www.w3.org/1999/xlink" x="0px" y="0px"
	 viewBox="0 0 150 150" style="enable-background:new 0 0 150 150;" xml:space="preserve">
<style type="text/css">
	.st0{fill:#F2BA59;}
	.st1{fill:#703081;}
</style>
<g id="Layer_1_1_">
	<rect x="53.9" y="120.6" class="st0" width="23.5" height="4.8"/>
	<rect x="53.9" y="92.5" class="st0" width="23.5" height="4.8"/>
	<path class="st1" d="M131.1,55.1c0.1-0.9,0.1-1.6,0.1-2.5c0-11.6-9.5-21.1-21.1-21.1c-1.5,0-2.9,0.1-4.4,0.5
		c-4.6-12.9-17-21.6-30.8-21.6s-26.1,8.8-30.8,21.5c-1.4-0.3-2.9-0.5-4.4-0.5c-11.6,0-21.1,9.5-21.1,21.1c0,0.7,0,1.6,0.1,2.5
		C8.3,56.1,0,65.1,0,76c0,11.6,9.5,21.1,21.1,21.1h18.8v-4.8H21.1c-9,0-16.4-7.4-16.4-16.4s7.4-16.4,16.6-16.4l0,0h0.4
		c0.7,0,1.5-0.3,1.9-0.9c0.5-0.6,0.6-1.4,0.5-2c-0.4-1.4-0.5-2.8-0.5-4.1c0-9,7.4-16.4,16.4-16.4c1.8,0,3.5,0.3,5.1,0.9
		c0.6,0.3,1.3,0.1,1.9-0.1c0.6-0.3,1-0.8,1.1-1.4c3.3-12,14.4-20.4,26.9-20.4s23.6,8.4,27,20.4c0.1,0.6,0.6,1.1,1.1,1.4
		c0.6,0.3,1.3,0.4,1.9,0.1c1.6-0.5,3.4-0.9,5.1-0.9c9,0,16.4,7.4,16.4,16.4c0,1.4-0.1,2.8-0.5,4.1c-0.1,0.8,0,1.5,0.5,2
		c0.5,0.6,1.1,0.9,1.9,0.9h0.5c9,0,16.4,7.4,16.4,16.4s-7.4,16.4-16.4,16.4h-18.8V97h18.8c11.6,0,21.1-9.5,21.1-21.1
		C150,65.1,141.8,56.1,131.1,55.1z"/>
	<rect x="53.9" y="64.4" class="st0" width="23.5" height="4.8"/>
	<path class="st1" d="M44.5,78.4h4.7v4.8h-4.7v23.5h4.7v4.8h-4.7V135h4.7v4.8H54V135h42.3v4.8h4.8V135h4.8v-23.5H101v-4.8h4.8V83.1
		H101v-4.8h4.8V55H44.5V78.4z M100.8,130H49.3v-14.1h51.6L100.8,130L100.8,130z M53.9,111.2v-4.8h42.2v4.8H53.9z M100.8,101.9H49.3
		V87.7h51.6v14.1h-0.1C100.8,101.8,100.8,101.9,100.8,101.9z M53.9,83.1v-4.8h42.2v4.8H53.9z M49.3,59.6h51.6v14.1H49.3V59.6z"/>
	<rect x="91.4" y="64.4" class="st0" width="4.8" height="4.8"/>
	<rect x="91.4" y="92.5" class="st0" width="4.8" height="4.8"/>
	<rect x="91.4" y="120.6" class="st0" width="4.8" height="4.8"/>
	<path class="st0" d="M56.3,43.2h-4.8C51.5,30.4,62,19.7,75,19.7v4.8C64.6,24.5,56.3,32.9,56.3,43.2z"/>
</g>
<g id="Layer_2">
</g>
<path class="st0" d="M115.9,136.4l32.3,10.8c0.9,0.3,1.8-0.4,1.8-1.3v-45.8c0-0.9-0.9-1.6-1.8-1.3l-32.3,10.8
	c-0.5,0.2-0.9,0.7-0.9,1.3v24.2C115,135.7,115.4,136.2,115.9,136.4z M117.7,123.7h12.1v14.5l-12.1-4
	C117.7,134.2,117.7,123.7,117.7,123.7z M131.2,138.6v-14.9h16.2V144L131.2,138.6z M147.3,122.4h-16.2v-15l16.2-5.4V122.4z
	 M129.8,107.8v14.5h-12.1v-10.4L129.8,107.8z"/>
</svg>
