<?xml version="1.0" encoding="utf-8"?>
<!-- Generator: Adobe Illustrator 21.0.2, SVG Export Plug-In . SVG Version: 6.00 Build 0)  -->
<svg version="1.1" id="Layer_1" xmlns="http://www.w3.org/2000/svg" xmlns:xlink="http://www.w3.org/1999/xlink" x="0px" y="0px"
	 viewBox="0 0 150 166.8" style="enable-background:new 0 0 150 166.8;" xml:space="preserve">
<style type="text/css">
	.st0{fill:#703081;}
	.st1{fill:#9B75A6;}
</style>
<g id="Layer_2">
	<g>
		<path class="st0" d="M75,0C33.6,0,0,33.6,0,75c0,39.2,30.2,71.4,68.6,74.8L56.4,162c-1,1-1,2.8,0,4c0.6,0.6,1.2,0.8,2,0.8
			s1.4-0.2,2-0.8L77,149.4c0.2-0.2,0.4-0.6,0.6-1c0.2-0.6,0.2-1.4,0-2.2c-0.2-0.4-0.4-0.6-0.6-1l-16.6-16.6c-1-1-2.8-1-4,0
			s-1,2.8,0,4L68,144.2C33,140.6,5.6,111,5.6,75C5.6,36.8,36.8,5.6,75,5.6s69.4,31.2,69.4,69.4c0,18.4-7.2,35.8-20.2,48.8
			c-1,1-1,2.8,0,4c1,1,2.8,1,4,0C142.2,113.6,150,95,150,75C150,33.8,116.4,0,75,0z"/>
	</g>
</g>
<g id="Layer_7">
	<g>
		<path class="st1" d="M102.5,65.5c8.4,0,16,3.6,21.3,9.3c-0.3-10.4-8.9-18.8-19.5-18.8c-1.7-14.9-14.5-26.6-29.9-26.6
			S46.2,41,44.5,56C33.7,56,25,64.7,25,75.5s8.8,19.3,19.6,19.3h28.6C73.2,78.7,86.4,65.5,102.5,65.5z"/>
		<path class="st0" d="M102.5,72.3C90.1,72.3,80,82.4,80,94.8s10.1,22.5,22.5,22.5S125,107.2,125,94.8S114.9,72.3,102.5,72.3z
			 M114.7,102.3l-4.8,4.8l-7.5-7.5l-7.5,7.5l-4.8-4.8l7.5-7.5l-7.4-7.5l4.8-4.8l7.5,7.5l7.5-7.5l4.8,4.8l-7.5,7.5L114.7,102.3z"/>
	</g>
</g>
</svg>
